<?xml version="1.0" encoding="UTF-8"?>
<svg xmlns="http://www.w3.org/2000/svg" xmlns:xlink="http://www.w3.org/1999/xlink" version="1.2" >
<font id="Butler Stencil Medium">
<font-face  font-family="Butler Stencil" units-per-em="1000" ascent="735" descent="-265" font-style="normal" font-weight="500" font-stretch="normal" cap-height="704" x-height="420" underline-position="-75" underline-thickness="50" />
<missing-glyph  horiz-adv-x="507" d="M281 352 L459 622 L459 84 L281 352 Z M79 657 L426 657 L253 396 L79 657 Z M-1 704 L-1 0 L507 0 L507 704 L-1 704 Z M224 352 L46 84 L46 622 L224 352 Z M253 310 L426 48 L79 48 L253 310 Z " />
<glyph glyph-name="NULL" d="" />
<glyph glyph-name="CR" unicode="&#xd;" horiz-adv-x="278" d="" />
<glyph glyph-name="space" unicode="&#x20;" horiz-adv-x="257" d="" />
<glyph glyph-name="exclam" unicode="&#x21;" horiz-adv-x="318" d="M186 206 L215 745 L102 745 L129 206 L186 206 Z M224 59 C224 21 194 -9 157 -9 C120 -9 90 21 90 59 C90 96 120 126 157 126 C194 126 224 96 224 59 L224 59 Z " />
<glyph glyph-name="quotedbl" unicode="&#x22;" horiz-adv-x="519" d="M328 378 L382 378 L412 704 L297 704 L328 378 Z M131 378 L186 378 L214 704 L101 704 L131 378 Z " />
<glyph glyph-name="numbersign" unicode="&#x23;" horiz-adv-x="709" d="M448 471 L410 307 L262 307 L300 471 L448 471 Z M662 471 L662 544 L541 544 L588 746 L511 746 L464 544 L317 544 L363 746 L286 746 L239 544 L108 544 L108 471 L223 471 L185 307 L44 307 L44 233 L168 233 L114 0 L191 0 L245 233 L393 233 L339 0 L416 0 L470 233 L599 233 L599 307 L487 307 L525 471 L662 471 Z " />
<glyph glyph-name="dollar" unicode="&#x24;" horiz-adv-x="568" d="M54 243 L46 243 L46 51 C46 51 92 15 195 -1 L195 14 C108 61 67 176 54 243 L54 243 Z M500 498 L509 498 L509 666 C509 666 457 694 359 706 L359 691 C450 656 488 553 500 498 L500 498 Z M288 6 L288 281 L339 249 C444 174 452 9 288 6 L288 6 Z M397 366 L288 438 L288 835 L266 835 L266 713 C118 713 68 637 68 637 C-12 523 60 428 179 352 L266 296 L266 -131 L288 -131 L288 -9 C428 -7 474 36 505 73 C569 169 530 278 397 366 L397 366 Z M266 452 L238 471 C98 563 158 698 266 698 L266 452 Z " />
<glyph glyph-name="percent" unicode="&#x25;" horiz-adv-x="992" d="M785 201 C785 63 770 38 725 38 C681 38 664 63 664 201 C664 339 680 369 725 369 C768 369 785 339 785 201 L785 201 Z M413 496 C413 588 387 678 278 678 C168 678 141 588 141 496 C141 404 168 320 278 320 C387 320 413 404 413 496 L413 496 Z M338 496 C338 358 323 334 278 334 C234 334 217 358 217 496 C217 634 233 665 278 665 C321 665 338 634 338 496 L338 496 Z M244 0 L303 0 L759 704 L700 704 L244 0 Z M861 201 C861 292 834 383 725 383 C615 383 588 292 588 201 C588 108 615 25 725 25 C834 25 861 108 861 201 L861 201 Z " />
<glyph glyph-name="ampersand" unicode="&#x26;" horiz-adv-x="810" d="M582 288 C583 273 590 260 602 250 C627 229 664 232 684 256 C707 282 702 319 678 338 C660 353 632 354 610 349 C589 344 552 331 519 282 C519 282 528 271 528 270 C554 300 582 305 582 288 L582 288 Z M665 69 C665 69 613 69 583 114 L289 547 C241 618 266 699 318 718 C354 731 396 718 424 688 L438 699 C408 734 361 752 293 741 C181 721 119 596 212 466 L438 138 C388 33 262 39 208 105 C129 202 169 301 225 342 L216 356 C137 310 6 201 105 63 C206 -75 410 9 449 124 L505 41 C545 -18 643 -8 643 -8 C699 -3 758 35 759 116 L744 116 C736 80 701 69 665 69 L665 69 Z " />
<glyph glyph-name="quotesingle" unicode="&#x27;" horiz-adv-x="258" d="M105 376 L160 376 L189 704 L75 704 L105 376 Z " />
<glyph glyph-name="parenleft" unicode="&#x28;" horiz-adv-x="325" d="M313 745 C134 620 79 405 79 254 C79 102 133 -106 311 -206 L324 -193 C183 -66 185 171 185 251 C185 330 182 564 326 733 L313 745 Z " />
<glyph glyph-name="parenright" unicode="&#x29;" horiz-adv-x="329" d="M-2 733 C142 564 139 330 139 251 C139 171 141 -66 0 -193 L13 -206 C191 -106 245 102 245 254 C245 405 190 620 11 745 L-2 733 Z " />
<glyph glyph-name="asterisk" unicode="&#x2a;" horiz-adv-x="551" d="M483 519 L455 606 L291 522 L320 704 L228 704 L257 522 L93 606 L64 519 L247 490 L116 361 L190 306 L274 471 L357 306 L432 361 L301 490 L483 519 Z " />
<glyph glyph-name="plus" unicode="&#x2b;" horiz-adv-x="715" d="M657 350 L397 350 L397 619 L316 619 L316 350 L56 350 L56 270 L316 270 L316 0 L397 0 L397 270 L657 270 L657 350 Z " />
<glyph glyph-name="comma" unicode="&#x2c;" horiz-adv-x="254" d="M89 -129 C134 -105 154 -76 167 -55 C197 -9 224 71 181 113 C154 141 109 141 81 113 C54 85 55 41 82 14 C96 0 113 -5 130 -7 C146 -9 142 -72 80 -118 L89 -129 L89 -129 Z " />
<glyph glyph-name="hyphen" unicode="&#x2d;" horiz-adv-x="444" d="M379 215 L379 295 L64 295 L64 215 L379 215 Z " />
<glyph glyph-name="period" unicode="&#x2e;" horiz-adv-x="252" d="M127 -5 C166 -5 199 27 199 67 C199 107 166 139 127 139 C87 139 55 107 55 67 C55 27 87 -5 127 -5 L127 -5 Z " />
<glyph glyph-name="slash" unicode="&#x2f;" horiz-adv-x="420" d="M403 725 L322 725 L14 -21 L95 -21 L403 725 Z " />
<glyph glyph-name="zero" unicode="0" horiz-adv-x="619" d="M343 711 L343 694 C410 674 450 586 450 346 C450 106 413 26 343 9 L343 -7 C534 11 583 172 583 346 C583 522 534 692 343 711 L343 711 Z M34 346 C34 172 82 11 273 -7 L273 10 C205 28 167 108 167 346 C167 586 204 675 273 694 L273 711 C82 692 34 522 34 346 L34 346 Z " />
<glyph glyph-name="one" unicode="1" horiz-adv-x="405" d="M344 15 C309 15 265 16 265 93 L265 713 L232 713 L58 578 L67 564 C85 579 159 629 159 547 L159 93 C159 19 112 15 71 15 L71 0 L344 0 L344 15 L344 15 Z " />
<glyph glyph-name="two" unicode="2" horiz-adv-x="487" d="M436 165 C414 125 378 108 344 108 L112 108 L39 0 L406 0 L451 165 L436 165 Z M231 713 C231 713 57 714 41 524 L56 521 C114 703 435 606 263 331 L279 319 C360 416 402 480 402 546 C402 637 331 713 231 713 L231 713 Z " />
<glyph glyph-name="three" unicode="3" horiz-adv-x="514" d="M310 394 C489 528 381 713 230 713 C222 713 66 713 49 551 L64 548 C92 633 204 652 258 606 C330 546 326 404 166 365 L166 349 C317 333 353 230 357 182 C365 97 340 26 265 10 L265 -7 C359 5 470 65 462 221 C459 288 405 357 310 394 L310 394 Z M135 38 C149 45 160 57 165 74 C175 110 155 146 120 157 C86 167 48 147 38 112 C31 87 39 59 56 45 C89 17 134 -2 195 -7 L195 8 C142 15 128 36 135 38 L135 38 Z " />
<glyph glyph-name="four" unicode="4" horiz-adv-x="538" d="M500 200 L500 261 L400 261 L400 704 L358 711 L278 590 L278 261 L123 261 C101 261 83 262 101 295 L87 303 L29 215 L29 200 L278 200 L278 128 C278 19 240 15 198 15 L198 0 L480 0 L480 15 C438 15 400 17 400 133 L400 200 L500 200 Z " />
<glyph glyph-name="five" unicode="5" horiz-adv-x="535" d="M149 38 C162 44 175 57 180 75 C190 111 169 148 134 158 C98 168 61 147 51 112 C44 88 53 59 70 44 C85 30 122 1 194 -7 L194 8 C150 15 139 33 149 38 L149 38 Z M465 704 L119 704 L99 592 L431 592 L465 704 Z M71 427 L52 325 C288 366 374 259 392 198 C418 112 372 24 264 8 L264 -7 C385 5 492 81 483 232 C478 330 389 491 71 427 L71 427 Z " />
<glyph glyph-name="six" unicode="6" horiz-adv-x="563" d="M393 679 C376 677 363 668 353 654 C333 625 340 584 369 563 C399 543 440 549 460 580 C475 600 475 629 465 648 C456 663 429 698 370 709 L370 694 C393 688 398 680 393 679 L393 679 Z M337 436 C275 436 203 413 174 338 C175 575 230 674 300 696 L300 711 C155 693 43 536 43 318 C43 134 109 10 252 -7 L252 8 C197 32 176 125 174 298 C189 361 242 397 297 397 C353 397 401 340 401 199 C401 70 375 21 323 8 L323 -7 C442 4 524 77 524 218 C524 324 479 436 337 436 L337 436 Z " />
<glyph glyph-name="seven" unicode="7" horiz-adv-x="553" d="M188 0 L311 0 C311 110 325 322 419 526 L404 526 C249 344 193 159 188 0 L188 0 Z M46 538 L61 538 C80 578 115 596 155 596 L455 596 L518 704 L67 704 L46 538 Z " />
<glyph glyph-name="eight" unicode="8" horiz-adv-x="552" d="M344 408 C424 427 471 503 471 562 C471 647 405 701 305 711 L305 695 C351 684 393 646 394 553 C394 482 364 434 326 418 C215 462 165 511 165 586 C165 643 195 682 235 695 L235 711 C140 699 66 640 66 531 C66 460 103 398 198 340 C122 318 36 242 36 156 C36 45 120 -1 248 -8 L248 8 C175 20 129 76 129 161 C129 268 187 314 217 329 C232 320 237 317 254 308 C337 265 409 217 409 139 C410 61 368 20 319 8 L319 -8 C434 2 518 61 518 196 C518 286 439 362 344 408 L344 408 Z " />
<glyph glyph-name="nine" unicode="9" horiz-adv-x="555" d="M161 27 C178 29 192 38 202 52 C222 82 215 123 186 143 C156 164 115 157 95 127 C80 107 80 77 90 59 C99 43 123 3 198 -8 L198 8 C168 14 156 27 161 27 L161 27 Z M309 710 L309 695 C364 672 383 583 385 409 C369 346 319 308 264 308 C208 308 160 365 160 506 C160 631 186 682 238 695 L238 710 C119 699 37 626 37 487 C37 381 82 269 224 269 C286 269 352 289 385 367 C385 115 362 25 268 8 L268 -7 C435 11 517 157 517 391 C517 575 452 694 309 710 L309 710 Z " />
<glyph glyph-name="colon" unicode="&#x3a;" horiz-adv-x="252" d="M127 304 C166 304 200 337 200 377 C200 417 166 450 127 450 C86 450 54 417 54 377 C54 337 86 304 127 304 L127 304 Z M127 16 C166 16 200 48 200 88 C200 129 166 162 127 162 C86 162 54 129 54 88 C54 48 86 16 127 16 L127 16 Z " />
<glyph glyph-name="semicolon" unicode="&#x3b;" horiz-adv-x="251" d="M126 303 C167 303 199 336 199 377 C199 417 167 450 126 450 C86 450 54 417 54 377 C54 336 86 303 126 303 L126 303 Z M84 -104 L75 -93 C137 -47 141 16 125 18 C108 20 91 25 77 39 C50 66 49 110 76 138 C104 166 149 166 176 138 C219 96 192 16 162 -30 C149 -51 129 -80 84 -104 L84 -104 Z " />
<glyph glyph-name="less" unicode="&#x3c;" horiz-adv-x="600" d="M170 266 L553 465 L553 547 L46 287 L46 244 L553 -16 L553 65 L170 266 Z " />
<glyph glyph-name="equal" unicode="&#x3d;" horiz-adv-x="613" d="M567 344 L567 415 L56 415 L56 344 L567 344 Z M567 119 L567 190 L56 190 L56 119 L567 119 Z " />
<glyph glyph-name="greater" unicode="&#x3e;" horiz-adv-x="600" d="M47 65 L47 -16 L554 244 L554 287 L47 547 L47 465 L430 266 L47 65 Z " />
<glyph glyph-name="question" unicode="&#x3f;" horiz-adv-x="584" d="M273 143 C232 143 200 110 200 69 C200 28 232 -5 273 -5 C315 -5 348 28 348 69 C348 110 315 143 273 143 L273 143 Z M187 628 C177 641 165 649 150 652 C137 653 135 676 162 691 L157 707 C111 685 87 644 82 621 C76 602 75 579 88 560 C108 532 146 524 173 543 C199 563 206 600 187 628 L187 628 Z M224 729 L228 714 C296 716 363 668 372 566 C381 460 350 415 304 377 C240 323 246 258 252 219 L275 222 C270 282 298 328 350 346 C407 364 505 424 498 570 C492 693 361 759 224 729 L224 729 Z " />
<glyph glyph-name="at" unicode="&#x40;" horiz-adv-x="880" d="M552 253 C542 203 520 106 515 81 C515 81 491 41 445 45 C400 49 352 91 374 206 C391 297 443 373 506 373 C569 373 555 269 552 253 L552 253 Z M827 243 C851 478 697 608 525 614 C288 624 49 459 38 181 C25 -131 269 -205 414 -205 C579 -205 649 -130 649 -130 L640 -117 C640 -117 552 -182 434 -173 C83 -146 145 204 145 204 C169 389 302 575 535 558 C755 541 787 362 781 247 C772 85 673 29 631 29 C598 29 598 59 603 79 C611 115 662 378 662 378 L578 379 C578 379 575 365 573 353 C572 354 552 393 489 393 C339 393 281 248 272 165 C263 88 292 -9 379 -9 C457 -9 501 40 511 53 C506 21 527 -9 573 -9 C646 -9 805 21 827 243 L827 243 Z " />
<glyph glyph-name="A" unicode="A" horiz-adv-x="698" d="M600 92 C600 92 534 263 350 704 L336 704 L279 552 L412 220 L154 220 C72 15 47 16 17 15 L17 0 L251 0 L251 15 C103 9 155 165 169 205 L417 205 L449 125 C461 97 492 15 426 15 L426 0 L683 0 L683 15 C656 17 634 12 600 92 L600 92 Z " />
<glyph glyph-name="B" unicode="B" horiz-adv-x="615" d="M568 179 C568 349 413 361 348 361 C368 361 521 381 521 534 C521 690 414 702 289 704 L289 688 C339 683 398 659 398 535 C398 403 343 371 289 365 L289 349 C357 347 439 329 439 184 C439 31 369 17 289 15 L289 0 C447 1 568 15 568 179 L568 179 Z M37 696 C81 696 95 638 95 576 L95 129 C95 61 80 9 37 9 L37 0 L219 0 L219 704 L37 704 L37 696 Z " />
<glyph glyph-name="C" unicode="C" horiz-adv-x="681" d="M423 8 L423 -8 C510 -5 572 10 637 53 L625 209 L610 209 C592 97 516 21 423 8 L423 8 Z M610 496 L625 496 L637 652 C582 697 509 710 423 712 L423 696 C509 686 572 625 610 496 L610 496 Z M41 352 C41 154 162 8 353 -7 L353 8 C262 21 195 95 195 352 C195 608 260 683 353 696 L353 711 C162 696 41 552 41 352 L41 352 Z " />
<glyph glyph-name="D" unicode="D" horiz-adv-x="735" d="M307 703 L307 688 C409 684 541 642 541 350 C541 54 409 19 307 15 L307 0 C497 5 689 66 689 350 C689 630 497 698 307 703 L307 703 Z M42 704 L42 689 C85 689 113 637 113 576 L113 128 C113 61 84 15 42 15 L42 0 L237 0 L237 704 L42 704 Z " />
<glyph glyph-name="E" unicode="E" horiz-adv-x="625" d="M562 213 L547 213 C522 46 369 21 280 16 L280 0 L562 0 L562 213 Z M209 704 L30 704 L30 689 C74 689 85 644 85 582 L85 127 C85 59 72 15 30 15 L30 0 L209 0 L209 704 Z M534 519 L549 519 L549 704 L280 704 L280 688 C368 684 521 662 534 519 L534 519 Z M410 246 L425 246 L425 466 L410 466 C400 383 327 368 280 365 L280 346 C327 343 400 329 410 246 L410 246 Z " />
<glyph glyph-name="F" unicode="F" horiz-adv-x="573" d="M207 704 L28 704 L28 689 C72 689 83 644 83 582 L83 127 C83 59 70 15 28 15 L28 0 L288 0 L288 15 C245 15 207 23 207 129 L207 704 Z M415 245 L430 245 L430 465 L415 465 C405 382 325 368 278 365 L278 346 C325 343 405 328 415 245 L415 245 Z M278 689 C366 686 519 667 540 519 L555 519 L555 704 L278 704 L278 689 Z " />
<glyph glyph-name="G" unicode="G" horiz-adv-x="730" d="M195 352 C195 597 251 680 344 695 L344 711 C151 694 39 540 39 352 C39 164 152 9 346 -7 L346 9 C253 23 195 106 195 352 L195 352 Z M447 280 L447 265 C508 265 529 261 529 118 C529 37 505 12 417 7 L417 -8 C507 -5 583 12 638 33 C638 251 648 265 705 265 L705 280 L447 280 Z M598 492 L626 492 L634 658 C578 695 508 710 414 712 L414 697 C514 688 579 637 598 492 L598 492 Z " />
<glyph glyph-name="H" unicode="H" horiz-adv-x="634" d="M567 563 C567 650 567 680 614 689 L614 704 L422 704 L422 689 C450 680 448 650 448 563 L448 347 L190 347 L190 563 C190 650 188 680 216 689 L216 704 L23 704 L23 689 C71 680 71 647 71 563 L71 136 C71 47 76 29 23 15 L23 0 L216 0 L216 15 C188 25 190 44 190 136 L190 328 L448 328 L448 136 C448 50 449 25 422 15 L422 0 L614 0 L614 15 C562 29 567 54 567 136 L567 563 L567 563 Z " />
<glyph glyph-name="I" unicode="I" horiz-adv-x="363" d="M47 704 L47 689 C91 689 125 667 125 605 L125 114 C125 46 90 15 47 15 L47 0 L326 0 L326 15 C284 15 248 46 248 114 L248 605 C248 667 283 689 326 689 L326 704 L47 704 Z " />
<glyph glyph-name="J" unicode="J" horiz-adv-x="418" d="M90 704 L90 689 C167 689 168 663 168 475 L168 176 C168 -41 87 -121 1 -152 L5 -167 C168 -143 294 -54 294 182 L294 597 C294 661 332 689 377 689 L377 704 L90 704 Z " />
<glyph glyph-name="K" unicode="K" horiz-adv-x="770" d="M757 15 C737 15 668 13 621 75 C621 75 555 164 379 399 C595 676 658 689 728 689 L728 704 L425 704 L425 689 C589 686 445 520 416 487 L284 327 C284 327 333 263 390 181 C496 30 519 0 625 0 L757 0 L757 15 Z M38 704 L38 689 C81 689 105 667 105 605 L105 114 C105 46 80 15 38 15 L38 0 L300 0 L300 15 C257 15 229 46 229 114 L229 605 C229 678 267 689 311 689 L311 704 L38 704 Z " />
<glyph glyph-name="L" unicode="L" horiz-adv-x="640" d="M578 217 L563 217 C543 49 394 21 301 16 L301 0 L578 0 L578 217 Z M231 600 C231 672 271 689 314 689 L314 704 L37 704 L37 689 C80 689 108 663 108 602 L108 124 C108 56 88 15 45 15 L45 0 L231 0 L231 600 Z " />
<glyph glyph-name="M" unicode="M" horiz-adv-x="949" d="M174 251 L159 251 C159 195 150 15 14 15 L14 0 L307 0 L307 15 C182 15 174 193 174 251 L174 251 Z M845 119 L845 601 C845 665 879 689 922 689 L922 704 L722 704 L722 119 C722 44 692 15 650 15 L650 0 L929 0 L929 15 C886 15 845 44 845 119 L845 119 Z M47 704 L47 689 C72 687 121 687 159 622 L454 -9 L469 -9 L531 151 L273 704 L47 704 Z " />
<glyph glyph-name="N" unicode="N" horiz-adv-x="822" d="M184 252 L169 252 C169 207 169 15 21 15 L21 0 L318 0 L318 15 C183 15 184 208 184 252 L184 252 Z M10 704 L10 689 C36 687 65 696 129 616 L615 0 L657 0 L657 158 L225 704 L10 704 Z M508 689 C643 690 642 499 642 452 L657 452 C657 499 655 690 803 689 L803 704 L508 704 L508 689 Z " />
<glyph glyph-name="O" unicode="O" horiz-adv-x="755" d="M184 347 C184 593 242 680 341 695 L341 711 C145 694 41 534 41 347 C41 159 145 9 341 -7 L341 8 C242 22 184 101 184 347 L184 347 Z M711 347 C711 534 608 694 411 711 L411 695 C509 680 566 594 566 347 C566 100 509 22 411 8 L411 -7 C608 8 711 159 711 347 L711 347 Z " />
<glyph glyph-name="P" unicode="P" horiz-adv-x="619" d="M444 502 C444 344 377 320 288 316 L288 301 C462 306 580 344 580 502 C580 661 462 699 288 703 L288 689 C376 685 444 662 444 502 L444 502 Z M218 704 L28 704 L28 689 C75 689 96 650 96 585 L96 136 C96 54 75 15 30 15 L30 0 L326 0 L326 15 C273 15 218 20 218 137 L218 704 Z " />
<glyph glyph-name="Q" unicode="Q" horiz-adv-x="751" d="M711 347 C711 534 608 694 411 711 L411 695 C509 680 566 593 566 347 C566 99 509 21 411 8 L411 -8 C608 8 711 158 711 347 L711 347 Z M184 347 C184 592 242 679 341 695 L341 711 C144 693 41 534 41 347 C41 159 144 9 341 -8 L341 8 C242 22 184 100 184 347 L184 347 Z M587 -123 L426 -67 C426 -67 256 6 93 -131 L105 -142 C127 -126 176 -91 246 -121 L328 -155 C490 -225 573 -248 650 -185 L741 -108 L731 -97 C708 -113 664 -149 587 -123 L587 -123 Z " />
<glyph glyph-name="R" unicode="R" horiz-adv-x="687" d="M567 108 C519 308 442 333 377 331 C490 341 567 384 567 513 C567 669 457 700 282 703 L282 689 C366 686 430 668 430 513 C430 359 368 340 282 337 L282 320 C317 315 376 296 399 218 C463 1 442 1 595 0 L679 0 L679 15 C653 17 587 32 567 108 L567 108 Z M212 704 L24 704 L24 689 C68 689 91 668 91 606 L91 119 C91 43 67 15 24 15 L24 0 L281 0 L281 15 C239 15 212 44 212 113 L212 704 Z " />
<glyph glyph-name="S" unicode="S" horiz-adv-x="586" d="M60 242 L45 242 L45 50 C45 50 112 -1 266 -8 L266 8 C122 26 76 158 60 242 L60 242 Z M396 365 L237 471 C113 551 145 670 230 696 L230 711 C108 700 67 636 67 636 C-13 522 60 427 178 351 L338 249 C446 171 435 33 336 7 L336 -8 C466 3 504 73 504 73 C568 168 529 278 396 365 L396 365 Z M493 497 L508 497 L508 665 C508 665 436 705 300 712 L300 696 C435 680 479 567 493 497 L493 497 Z " />
<glyph glyph-name="T" unicode="T" horiz-adv-x="676" d="M19 704 L19 515 L34 515 C40 686 221 689 236 689 L275 689 L275 109 C275 42 238 15 196 15 L196 0 L476 0 L476 15 C434 15 397 42 397 109 L397 689 L436 689 C443 689 633 686 639 515 L654 515 L654 704 L19 704 Z " />
<glyph glyph-name="U" unicode="U" horiz-adv-x="736" d="M389 43 C287 43 214 114 214 235 L214 601 C214 676 257 689 300 689 L300 704 L17 704 L17 689 C61 689 92 666 92 601 L92 243 C92 80 199 -9 332 -9 C438 -9 577 41 577 238 L562 238 C562 110 478 43 389 43 L389 43 Z M435 689 C562 689 562 569 562 522 L577 522 C577 569 574 689 715 689 L715 704 L435 704 L435 689 Z " />
<glyph glyph-name="V" unicode="V" horiz-adv-x="761" d="M310 689 L310 704 L17 704 L17 689 C47 689 81 687 111 612 C111 612 177 441 360 0 L376 0 L431 139 L258 586 C257 590 228 689 310 689 L310 689 Z M474 689 C628 689 554 501 538 454 L552 450 C648 689 683 689 739 689 L739 704 L474 704 L474 689 Z " />
<glyph glyph-name="W" unicode="W" horiz-adv-x="1087" d="M307 689 L307 704 L13 704 L13 689 C43 689 76 686 106 609 L350 0 L366 0 L421 150 L254 588 C253 591 219 689 307 689 L307 689 Z M659 689 L659 704 L365 704 L365 689 C395 689 430 686 459 609 L694 0 L710 0 L767 149 L606 588 C606 591 570 689 659 689 L659 689 Z M798 689 C953 689 878 502 864 454 L878 450 C965 665 1013 689 1072 689 L1072 704 L798 704 L798 689 Z " />
<glyph glyph-name="X" unicode="X" horiz-adv-x="786" d="M301 228 C145 9 89 15 51 15 L51 0 L330 0 L330 15 C180 15 283 157 313 214 L301 228 Z M647 99 L324 574 C271 652 295 689 337 689 L337 704 L23 704 L23 689 C53 689 88 685 147 603 L475 127 C484 113 541 28 473 15 L473 0 L767 0 L767 15 C734 16 702 22 647 99 L647 99 Z M478 497 L490 483 C638 690 710 689 753 689 L753 704 L450 704 L450 689 C603 689 505 546 478 497 L478 497 Z " />
<glyph glyph-name="Y" unicode="Y" horiz-adv-x="732" d="M426 117 L426 324 L274 576 C206 691 273 690 297 690 L297 704 L10 704 L10 690 C38 689 71 688 115 611 C115 611 160 542 307 282 L307 117 C307 42 269 15 227 15 L227 0 L507 0 L507 15 C465 15 426 42 426 117 L426 117 Z M440 689 C580 689 505 518 488 483 L498 470 C610 689 684 689 719 689 L719 704 L440 704 L440 689 Z " />
<glyph glyph-name="Z" unicode="Z" horiz-adv-x="581" d="M67 704 L49 502 L67 502 C99 621 204 689 354 689 L364 704 L67 704 Z M251 15 L243 0 L520 0 L544 233 L527 233 C504 140 411 16 251 15 L251 15 Z M555 704 L421 704 L25 0 L184 0 L555 704 Z " />
<glyph glyph-name="bracketleft" unicode="&#x5b;" horiz-adv-x="321" d="M113 735 L113 -146 L306 -146 L306 -131 C254 -131 200 -128 200 -55 L200 635 C200 719 252 720 306 720 L306 735 L113 735 Z " />
<glyph glyph-name="backslash" unicode="&#x5c;" horiz-adv-x="423" d="M325 -19 L405 -19 L94 734 L14 734 L325 -19 Z " />
<glyph glyph-name="bracketright" unicode="&#x5d;" horiz-adv-x="320" d="M11 735 L11 720 C65 720 117 719 117 635 L117 -55 C117 -128 63 -131 11 -131 L11 -146 L204 -146 L204 735 L11 735 Z " />
<glyph glyph-name="asciicircum" unicode="&#x5e;" horiz-adv-x="569" d="M293 704 L270 704 L89 376 L127 376 L281 557 L438 376 L475 376 L293 704 Z " />
<glyph glyph-name="underscore" unicode="&#x5f;" horiz-adv-x="560" d="M0 -73 L0 -126 L560 -126 L560 -73 L0 -73 Z " />
<glyph glyph-name="grave" unicode="&#x60;" horiz-adv-x="337" d="M100 720 L4 691 L244 557 L273 557 L100 720 Z " />
<glyph glyph-name="a" unicode="a" horiz-adv-x="508" d="M156 311 C179 328 185 360 168 383 C160 395 148 401 135 403 C130 404 131 413 146 425 L139 439 C100 414 88 391 80 378 C72 362 73 340 84 323 C101 300 133 295 156 311 L156 311 Z M452 45 C405 45 406 111 406 111 L406 271 C406 389 373 471 253 471 C253 471 218 473 181 460 L187 447 C252 466 298 412 298 318 L298 258 C125 214 41 198 41 93 C41 -10 155 -9 155 -9 C202 -9 243 12 270 36 C269 37 260 51 259 53 C249 47 236 44 221 44 C158 44 149 101 149 116 C149 172 191 217 298 242 L298 80 C298 -11 391 -9 391 -9 C449 -9 488 29 496 60 L481 66 C475 45 452 45 452 45 L452 45 Z " />
<glyph glyph-name="b" unicode="b" horiz-adv-x="572" d="M322 471 C272 471 201 445 170 388 L170 742 L14 710 L14 695 C55 683 65 669 65 635 L65 5 C65 -11 118 12 149 41 C178 13 220 -4 269 -8 L269 8 C215 17 170 64 170 166 L170 305 C170 379 209 433 279 433 C364 433 409 373 409 215 C409 78 373 19 315 8 L315 -8 C440 0 532 77 532 226 C532 373 444 471 322 471 L322 471 Z " />
<glyph glyph-name="c" unicode="c" horiz-adv-x="491" d="M366 430 C353 425 342 415 336 400 C324 372 339 339 368 328 C397 316 429 332 441 360 C449 380 443 404 430 418 C419 432 388 463 320 469 L320 454 C357 449 373 432 366 430 L366 430 Z M444 128 C424 91 353 54 292 63 C222 73 155 125 155 246 C155 396 228 442 274 453 L274 469 C126 458 45 344 45 231 C45 99 143 -9 264 -9 C388 -9 444 71 456 121 L444 128 Z " />
<glyph glyph-name="d" unicode="d" horiz-adv-x="566" d="M501 87 L501 742 L344 710 L344 695 C385 683 395 672 395 637 L395 437 C369 454 336 465 298 469 L298 453 C349 443 395 397 395 300 L395 142 C395 72 349 23 282 23 C198 23 157 89 157 249 C157 386 194 442 252 453 L252 470 C126 462 34 387 34 237 C34 88 122 -9 245 -9 C294 -9 364 13 395 68 L395 10 C395 10 395 -13 423 -8 L552 12 L552 27 C511 29 501 38 501 87 L501 87 Z " />
<glyph glyph-name="e" unicode="e" horiz-adv-x="508" d="M282 59 C209 71 154 123 148 240 L467 240 C467 387 402 461 283 469 L283 454 C327 437 363 368 363 255 L148 255 C148 351 187 436 237 454 L237 469 C119 457 37 362 37 228 C37 103 126 -9 254 -9 C380 -9 437 70 450 120 L436 127 C414 79 339 50 282 59 L282 59 Z " />
<glyph glyph-name="f" unicode="f" horiz-adv-x="315" d="M271 743 L271 728 C290 723 297 711 287 710 C274 707 263 698 257 684 C244 656 256 625 283 612 C310 600 343 612 355 639 C364 658 360 684 349 700 C341 714 311 737 271 743 L271 743 Z M77 462 L12 462 L13 447 L77 447 L77 99 C77 49 76 24 38 15 L38 0 L228 0 L228 15 C192 23 183 45 183 99 L183 447 L290 447 L292 462 L183 462 C183 627 198 705 225 728 L225 743 C125 733 77 669 77 462 L77 462 Z " />
<glyph glyph-name="g" unicode="g" horiz-adv-x="558" d="M542 455 C529 470 509 476 491 473 C468 470 426 456 399 415 C371 439 331 456 280 460 L280 443 C315 434 345 401 345 309 C345 216 316 183 280 174 L280 158 C385 167 447 234 447 309 C447 345 434 380 410 405 C427 429 455 433 454 425 C451 413 455 400 464 389 C482 367 515 365 536 383 C558 402 560 434 542 455 L542 455 Z M98 -168 C99 -169 44 -107 81 -55 L71 -45 C26 -82 -5 -142 24 -199 C62 -274 216 -288 349 -224 L342 -211 C253 -250 146 -224 98 -168 L98 -168 Z M312 71 L182 71 C70 71 124 162 163 173 C183 165 205 160 233 158 L233 174 C198 183 169 217 169 309 C169 403 195 436 233 444 L233 459 C128 451 67 385 67 309 C67 256 96 203 147 180 C52 148 55 61 55 61 C55 -32 153 -42 208 -42 L343 -42 C422 -42 428 -94 428 -94 C428 -94 434 -144 382 -187 L390 -202 C477 -144 481 -72 481 -72 C499 69 381 71 312 71 L312 71 Z " />
<glyph glyph-name="h" unicode="h" horiz-adv-x="523" d="M172 108 L172 742 L16 706 L16 691 C56 680 66 669 66 634 L66 108 C66 57 64 27 26 16 L26 0 L213 0 L213 16 C177 25 172 53 172 108 L172 108 Z M464 108 L464 313 C464 433 413 471 332 471 C285 471 229 441 197 403 L208 385 C225 399 245 408 265 408 C329 408 359 374 359 309 L359 108 C359 57 357 26 319 15 L319 0 L505 0 L505 15 C470 24 464 53 464 108 L464 108 Z " />
<glyph glyph-name="i" unicode="i" horiz-adv-x="263" d="M121 553 C154 553 182 579 182 612 C182 645 154 672 121 672 C88 672 62 645 62 612 C62 579 88 553 121 553 L121 553 Z M225 15 C189 25 184 52 184 107 L184 471 L28 437 L28 422 C69 405 79 391 79 357 L79 107 C79 56 77 27 39 15 L39 0 L225 0 L225 15 Z " />
<glyph glyph-name="j" unicode="j" horiz-adv-x="261" d="M122 553 C155 553 183 579 183 612 C183 646 155 672 122 672 C90 672 63 646 63 612 C63 579 90 553 122 553 L122 553 Z M79 27 C79 9 79 -193 8 -213 L8 -228 C107 -203 184 -139 184 50 L184 471 L29 437 L29 422 C71 405 79 387 79 353 L79 27 Z " />
<glyph glyph-name="k" unicode="k" horiz-adv-x="536" d="M523 15 C503 16 465 19 434 60 C434 60 384 112 273 268 C420 439 500 446 532 447 L532 462 L298 462 L298 447 C430 450 284 308 284 308 L190 208 C190 208 233 151 256 118 C326 18 339 0 408 0 L523 0 L523 15 Z M207 15 C171 24 166 52 166 107 L166 742 L10 710 L10 695 C51 684 60 669 60 634 L60 107 C60 56 58 26 20 15 L20 0 L207 0 L207 15 Z " />
<glyph glyph-name="l" unicode="l" horiz-adv-x="246" d="M220 15 C184 24 179 52 179 107 L179 742 L23 710 L23 695 C64 684 73 669 73 634 L73 107 C73 56 71 26 33 15 L33 0 L220 0 L220 15 L220 15 Z " />
<glyph glyph-name="m" unicode="m" horiz-adv-x="778" d="M166 106 L166 471 L10 437 L10 422 C51 405 60 388 60 353 L60 106 C60 55 58 26 20 15 L20 0 L207 0 L207 15 C172 25 166 51 166 106 L166 106 Z M714 107 L714 315 C714 436 665 471 586 471 C538 471 492 441 463 403 C464 402 475 390 476 389 C490 401 508 410 526 410 C580 410 608 376 608 312 L608 107 C608 56 606 26 568 15 L568 0 L755 0 L755 15 C719 24 714 52 714 107 L714 107 Z M440 107 L440 311 C440 399 417 471 312 471 C265 471 222 441 192 404 L203 389 C217 401 235 410 253 410 C308 410 334 376 334 312 L334 107 C334 56 332 26 294 15 L294 0 L481 0 L481 15 C446 24 440 52 440 107 L440 107 Z " />
<glyph glyph-name="n" unicode="n" horiz-adv-x="519" d="M166 106 L166 471 L10 436 L10 422 C51 405 60 393 60 358 L60 106 C60 55 58 26 20 15 L20 0 L207 0 L207 15 C172 24 166 51 166 106 L166 106 Z M457 107 L457 315 C457 436 405 471 325 471 C281 471 233 445 200 411 L212 393 C226 403 242 410 259 410 C317 410 351 370 351 312 L351 107 C351 56 349 25 311 14 L311 0 L498 0 L498 14 C462 23 457 52 457 107 L457 107 Z " />
<glyph glyph-name="o" unicode="o" horiz-adv-x="548" d="M510 231 C510 356 436 459 298 469 L298 454 C357 444 384 392 384 231 C384 69 357 17 298 7 L298 -8 C436 2 510 106 510 231 L510 231 Z M166 231 C166 392 193 444 252 454 L252 469 C115 459 41 356 41 231 C41 106 115 2 252 -8 L252 7 C193 17 166 69 166 231 L166 231 Z " />
<glyph glyph-name="p" unicode="p" horiz-adv-x="579" d="M322 471 C273 471 203 447 172 391 L172 471 L17 436 L17 422 C57 410 67 401 67 367 L67 -164 C67 -215 65 -239 27 -250 L27 -265 L213 -265 L213 -250 C178 -241 172 -220 172 -164 L172 25 C198 7 231 -4 269 -8 L269 8 C221 17 179 56 172 139 L172 325 C178 389 217 437 281 437 C365 437 410 375 410 215 C410 77 373 19 315 8 L315 -9 C441 -1 534 77 534 227 C534 374 446 471 322 471 L322 471 Z " />
<glyph glyph-name="q" unicode="q" horiz-adv-x="571" d="M501 -164 L501 461 C501 477 450 461 419 433 C390 454 351 468 307 470 L307 454 C354 443 393 398 395 304 L395 132 C393 64 355 16 289 16 C205 16 164 90 164 250 C164 389 201 444 260 454 L260 470 C138 460 50 385 50 239 C50 90 138 -9 261 -9 C303 -9 359 8 395 46 L395 -164 C395 -215 393 -239 355 -250 L355 -265 L542 -265 L542 -250 C506 -241 501 -219 501 -164 L501 -164 Z " />
<glyph glyph-name="r" unicode="r" horiz-adv-x="397" d="M171 471 L14 437 L14 422 C55 406 64 391 64 357 L64 107 C64 56 62 27 24 15 L24 0 L212 0 L212 15 C176 25 171 52 171 107 L171 471 Z M297 467 C273 460 237 448 198 399 L207 386 C234 410 259 412 257 403 C256 387 262 372 274 359 C301 334 341 335 366 360 C391 385 391 426 366 451 C348 468 316 472 297 467 L297 467 Z " />
<glyph glyph-name="s" unicode="s" horiz-adv-x="435" d="M362 440 C362 440 320 466 222 470 L222 454 C312 442 339 366 348 323 L362 323 L362 440 Z M289 252 L188 315 C110 364 116 438 176 453 L176 469 C93 462 63 417 63 417 C16 347 40 276 136 215 L237 154 C306 109 313 25 248 9 L248 -8 C328 0 359 42 359 42 C408 112 378 197 289 252 L289 252 Z M47 33 C47 33 97 -3 202 -8 L202 8 C98 20 73 116 62 164 L47 164 L47 33 Z " />
<glyph glyph-name="t" unicode="t" horiz-adv-x="335" d="M311 90 C303 72 280 51 251 51 C202 51 176 79 176 147 L176 447 L291 447 L295 462 L176 462 L176 617 L70 600 L70 462 L17 462 L20 447 L70 447 L70 144 C70 23 116 -9 191 -9 C254 -9 307 37 324 82 L311 90 L311 90 Z " />
<glyph glyph-name="u" unicode="u" horiz-adv-x="543" d="M472 88 L472 471 L318 453 L318 438 C368 433 365 423 365 362 L365 9 C365 9 366 -12 392 -8 L523 15 L523 30 C481 35 472 40 472 88 L472 88 Z M327 71 C310 57 290 53 270 53 C212 53 177 81 177 146 L177 471 L16 453 L16 438 C73 432 72 425 72 363 L72 143 C72 21 130 -9 206 -9 C252 -9 305 18 338 54 C338 54 327 71 327 71 L327 71 Z " />
<glyph glyph-name="v" unicode="v" horiz-adv-x="518" d="M323 462 L323 447 C421 447 385 333 376 309 L391 301 C449 447 487 447 517 447 L517 462 L323 462 Z M222 447 L222 462 L1 462 L1 447 C18 446 45 447 69 396 C69 396 80 375 257 -9 L271 -9 L319 114 L197 375 C197 375 161 447 222 447 L222 447 Z " />
<glyph glyph-name="w" unicode="w" horiz-adv-x="786" d="M233 447 L233 462 L19 462 L19 447 C34 446 61 445 83 400 C83 400 95 375 266 -9 L280 -9 L326 117 L206 385 C206 385 175 447 233 447 L233 447 Z M589 462 L589 447 C682 447 656 345 648 320 L661 308 C710 444 755 447 776 447 L776 462 L589 462 Z M502 447 L502 462 L287 462 L287 447 C304 446 328 445 350 400 L532 -9 L545 -9 L593 117 L473 384 C473 384 438 447 502 447 L502 447 Z " />
<glyph glyph-name="x" unicode="x" horiz-adv-x="529" d="M324 342 L333 330 C429 454 483 446 506 447 L506 462 L286 462 L286 447 C390 447 335 360 324 342 L324 342 Z M15 15 L15 0 L229 0 L229 15 C120 15 171 97 186 120 L174 132 C85 13 36 15 15 15 L15 15 Z M432 61 L220 381 C184 432 205 447 230 447 L230 462 L9 462 L9 447 C29 446 46 450 83 405 L298 85 C298 85 349 15 299 15 L299 0 L522 0 L522 15 C506 15 464 15 432 61 L432 61 Z " />
<glyph glyph-name="y" unicode="y" horiz-adv-x="536" d="M326 462 L326 448 C427 449 392 332 381 301 L392 290 C453 443 493 448 521 448 L521 462 L326 462 Z M327 116 L203 381 C203 381 173 448 231 448 L231 462 L10 462 L10 448 C25 447 58 445 76 403 C76 403 221 87 265 -9 L280 -9 L327 116 Z M237 -122 C214 -185 186 -210 169 -224 C153 -237 122 -242 101 -232 C70 -218 57 -182 70 -151 C84 -120 120 -106 151 -120 C167 -127 177 -142 181 -157 C185 -170 208 -161 222 -121 L237 -122 Z " />
<glyph glyph-name="z" unicode="z" horiz-adv-x="448" d="M57 462 L52 330 L68 330 C85 400 138 438 242 446 L251 462 L57 462 Z M410 462 L297 462 L30 0 L157 0 L410 462 Z M212 17 L203 0 L385 0 L394 152 L378 152 C366 95 326 30 212 17 L212 17 Z " />
<glyph glyph-name="braceleft" unicode="&#x7b;" horiz-adv-x="329" d="M272 -150 C231 -136 208 -101 208 3 L208 147 C208 256 146 280 86 280 C146 280 208 314 208 424 L208 568 C208 672 231 706 272 721 L272 735 C193 724 128 683 128 568 L128 451 C128 293 86 297 49 286 L49 273 C87 264 128 268 128 120 L128 3 C128 -112 193 -153 272 -164 L272 -150 L272 -150 Z " />
<glyph glyph-name="bar" unicode="&#x7c;" horiz-adv-x="214" d="M73 -164 L140 -164 L140 735 L73 735 L73 -164 Z " />
<glyph glyph-name="braceright" unicode="&#x7d;" horiz-adv-x="327" d="M53 -164 C132 -153 197 -112 197 3 L197 120 C197 268 238 264 276 273 L276 286 C239 297 197 293 197 451 L197 568 C197 683 132 724 53 735 L53 721 C94 706 117 672 117 568 L117 424 C117 314 179 280 239 280 C179 280 117 256 117 147 L117 3 C117 -101 94 -136 53 -150 L53 -164 Z " />
<glyph glyph-name="asciitilde" unicode="&#x7e;" horiz-adv-x="589" d="M343 204 C343 204 464 162 531 325 L519 330 C493 275 403 270 369 283 L252 326 C252 326 127 369 61 206 L74 201 C100 257 192 259 226 247 L343 204 Z " />
<glyph glyph-name="uni007F" unicode="&#x7f;" d="" />
<glyph glyph-name="uni00A0" unicode="&#xa0;" horiz-adv-x="257" d="" />
<glyph glyph-name="exclamdown" unicode="&#xa1;" horiz-adv-x="302" d="M124 356 L96 -175 L207 -175 L180 356 L124 356 Z M153 569 C116 569 86 539 86 503 C86 465 116 436 153 436 C190 436 219 465 219 503 C219 539 190 569 153 569 L153 569 Z " />
<glyph glyph-name="cent" unicode="&#xa2;" horiz-adv-x="524" d="M308 65 C243 81 185 132 185 246 C185 401 263 446 308 455 L308 65 Z M474 128 C454 92 387 56 326 61 L326 593 L308 593 L308 471 C157 462 75 345 75 231 C75 101 159 -8 308 -9 L308 -118 L326 -118 L326 -9 C427 2 474 75 486 121 L474 128 Z M395 430 C383 425 371 415 366 400 C354 372 368 339 397 328 C426 316 459 332 470 360 C479 380 472 404 460 418 C449 431 420 459 361 468 L361 451 C390 445 402 432 395 430 L395 430 Z " />
<glyph glyph-name="sterling" unicode="&#xa3;" horiz-adv-x="659" d="M597 135 C590 91 520 68 452 91 C452 91 385 113 369 124 C398 180 404 253 361 321 L332 362 L502 362 L502 377 L323 377 C174 634 258 744 395 723 L397 737 C261 769 60 653 187 377 L99 377 L99 362 L194 362 C209 336 232 301 248 276 C280 228 297 189 295 150 C288 155 250 169 250 169 C60 234 21 110 36 64 L52 68 C40 112 93 177 188 136 C217 123 247 106 283 83 C256 36 208 6 142 6 L142 -9 C214 -9 275 4 321 60 C389 17 452 -19 507 -6 C517 -6 614 23 613 132 L597 135 Z M454 684 C438 685 422 682 410 669 C384 645 383 604 408 578 C433 553 474 552 499 577 C517 594 523 622 516 642 C507 665 492 693 445 718 L439 706 C455 697 467 684 454 684 L454 684 Z " />
<glyph glyph-name="currency" unicode="&#xa4;" horiz-adv-x="588" d="M175 460 C205 490 245 508 290 508 C334 508 375 490 405 460 C434 430 452 389 452 345 C452 301 434 260 404 230 C375 200 334 182 290 182 C245 182 205 200 175 230 C144 260 127 301 127 345 C127 389 144 430 175 460 L175 460 Z M479 205 C509 245 525 293 525 345 C525 397 509 446 479 485 L562 567 L512 617 L430 535 C391 565 341 581 290 581 C238 581 189 565 149 535 L68 617 L18 567 L100 485 C71 446 54 397 54 345 C54 293 71 245 100 205 L18 123 L68 73 L149 155 C189 126 238 109 290 109 C341 109 391 126 430 155 L512 73 L562 123 L479 205 Z " />
<glyph glyph-name="yen" unicode="&#xa5;" horiz-adv-x="661" d="M240 576 C172 691 239 690 263 690 L263 704 L-24 704 L-24 690 C5 689 37 688 81 611 C81 611 121 549 250 323 L84 323 L84 307 L258 307 L273 282 L273 237 L84 237 L84 221 L273 221 L273 116 C273 42 235 15 193 15 L193 0 L473 0 L473 15 C431 15 393 42 393 116 L393 221 L561 221 L561 237 L393 237 L393 307 L561 307 L561 323 L393 323 L240 576 Z M406 704 L406 689 C546 689 472 519 455 484 L464 469 C576 688 650 689 685 689 L685 704 L406 704 Z " />
<glyph glyph-name="brokenbar" unicode="&#xa6;" horiz-adv-x="212" d="M141 735 L71 735 L71 360 L141 360 L141 735 Z M141 186 L71 186 L71 -191 L141 -191 L141 186 Z " />
<glyph glyph-name="section" unicode="&#xa7;" horiz-adv-x="545" d="M181 -218 C196 -215 210 -207 218 -194 C234 -167 224 -132 197 -116 C168 -101 134 -111 119 -138 C108 -157 110 -182 121 -198 C132 -215 166 -241 215 -250 L215 -234 C190 -228 174 -219 181 -218 L181 -218 Z M329 658 C314 631 324 596 351 581 C379 565 413 575 429 602 C439 621 436 645 426 662 C415 680 380 706 332 714 L332 699 C357 692 365 682 358 681 C345 678 337 671 329 658 L329 658 Z M189 394 C194 389 204 382 215 375 C223 369 293 325 336 296 C411 245 510 169 366 66 C358 73 346 83 331 92 C322 98 254 139 211 168 C136 218 41 296 189 394 L189 394 Z M386 394 L261 475 C192 522 173 562 179 612 C184 660 216 693 262 704 L262 719 C197 714 119 685 107 574 C100 506 123 453 175 406 C-11 284 47 147 161 70 L287 -13 C355 -61 368 -97 362 -148 C357 -195 328 -229 285 -240 L285 -255 C352 -251 434 -222 446 -110 C454 -43 424 14 379 55 C561 172 502 318 386 394 L386 394 Z " />
<glyph glyph-name="dieresis" unicode="&#xa8;" horiz-adv-x="263" d="M166 645 C166 616 190 593 218 593 C248 593 272 616 272 645 C272 674 248 698 218 698 C190 698 166 674 166 645 L166 645 Z M-8 645 C-8 616 16 593 45 593 C74 593 97 616 97 645 C97 674 74 698 45 698 C16 698 -8 674 -8 645 L-8 645 Z " />
<glyph glyph-name="copyright" unicode="&#xa9;" horiz-adv-x="808" d="M522 276 C510 182 448 169 403 169 C355 169 294 195 294 359 C294 521 353 548 403 548 C446 548 510 536 522 442 L536 442 L541 528 C506 556 461 562 403 562 C283 562 207 478 207 359 C207 240 283 155 403 155 C463 155 499 162 541 190 L536 276 L522 276 Z M775 368 C775 574 608 741 403 741 C196 741 30 574 30 368 C30 163 196 -4 403 -4 C608 -4 775 163 775 368 L775 368 Z M710 368 C710 199 571 59 403 59 C233 59 94 199 94 368 C94 538 233 678 403 678 C571 678 710 538 710 368 L710 368 Z " />
<glyph glyph-name="ordfeminine" unicode="&#xaa;" horiz-adv-x="300" d="M155 579 C155 579 155 511 155 510 C150 498 138 482 116 482 C82 482 77 510 77 518 C77 547 100 566 155 579 L155 579 Z M248 493 C246 481 236 481 236 481 C212 480 212 516 212 516 L212 600 C212 661 195 704 132 704 C132 704 105 706 81 694 C56 681 46 665 42 655 C38 647 38 635 44 627 C53 615 69 613 81 621 C92 630 96 646 88 658 C84 664 78 668 70 668 C67 668 69 676 86 683 C125 700 155 678 155 624 L155 594 C64 571 21 562 21 506 C21 453 81 453 81 453 C118 453 149 471 156 492 C160 453 205 453 205 453 C238 453 256 472 259 489 L248 493 Z " />
<glyph glyph-name="guillemotleft" unicode="&#xab;" horiz-adv-x="610" d="M522 505 L291 266 L522 33 L522 65 L387 266 L522 472 L522 505 Z M318 505 L87 266 L318 33 L318 65 L182 266 L318 472 L318 505 Z " />
<glyph glyph-name="logicalnot" unicode="&#xac;" horiz-adv-x="648" d="M41 394 L41 323 L529 323 L529 80 L601 80 L601 394 L41 394 Z " />
<glyph glyph-name="uni00AD" unicode="&#xad;" horiz-adv-x="444" d="M379 215 L379 295 L64 295 L64 215 L379 215 Z " />
<glyph glyph-name="registered" unicode="&#xae;" horiz-adv-x="811" d="M469 460 C469 368 425 368 368 368 L351 368 L351 549 L368 549 C423 549 469 551 469 460 L469 460 Z M775 369 C775 575 608 742 403 742 C197 742 30 575 30 369 C30 164 197 -3 403 -3 C608 -3 775 164 775 369 L775 369 Z M710 369 C710 200 572 62 403 62 C233 62 95 200 95 369 C95 539 233 678 403 678 C572 678 710 539 710 369 L710 369 Z M604 196 C589 196 553 198 543 239 C516 347 475 363 440 361 C501 367 543 390 543 460 C543 551 476 563 368 563 L249 563 L249 549 C273 549 286 545 286 510 L286 253 C286 211 273 196 249 196 L249 182 L388 182 L388 196 C365 196 351 211 351 249 L351 354 L377 354 C377 354 437 356 453 300 C486 183 476 183 558 182 L604 182 L604 196 Z " />
<glyph glyph-name="macron" unicode="&#xaf;" horiz-adv-x="360" d="M377 591 L377 651 L-16 651 L-16 591 L377 591 Z " />
<glyph glyph-name="degree" unicode="&#xb0;" horiz-adv-x="381" d="M93 607 C93 658 135 700 188 700 C239 700 281 658 281 607 C281 555 239 513 188 513 C135 513 93 555 93 607 L93 607 Z M57 607 C57 536 116 478 187 478 C258 478 317 536 317 607 C317 679 258 737 187 737 C116 737 57 679 57 607 L57 607 Z " />
<glyph glyph-name="plusminus" unicode="&#xb1;" horiz-adv-x="608" d="M335 373 L335 535 L264 535 L264 373 L41 373 L41 302 L264 302 L264 140 L335 140 L335 302 L560 302 L560 373 L335 373 Z M41 0 L560 0 L560 71 L41 71 L41 0 Z " />
<glyph glyph-name="twosuperior" unicode="&#xb2;" horiz-adv-x="266" d="M206 454 C196 437 179 429 164 429 L81 429 C81 429 124 495 147 525 C182 572 198 599 198 629 C198 670 165 704 119 704 C119 704 37 706 30 619 L44 616 C70 699 213 656 134 531 L31 379 L199 379 L219 454 L206 454 Z " />
<glyph glyph-name="threesuperior" unicode="&#xb3;" horiz-adv-x="271" d="M123 373 C163 373 234 399 230 480 C229 510 207 545 161 558 C242 620 193 704 123 704 C121 704 46 704 39 630 L54 629 C66 668 110 676 136 655 C170 628 168 566 95 549 L95 534 C164 527 178 485 181 464 C187 422 164 386 123 386 C86 386 75 395 79 396 C88 399 92 405 94 413 C100 429 90 446 74 451 C58 456 41 446 36 430 C33 419 37 406 45 399 C61 385 88 373 123 373 L123 373 Z " />
<glyph glyph-name="acute" unicode="&#xb4;" horiz-adv-x="360" d="M87 558 L116 558 L356 692 L260 721 L87 558 Z " />
<glyph glyph-name="mu" unicode="&#xb5;" horiz-adv-x="539" d="M333 57 L323 72 C306 58 285 52 265 52 C208 52 173 80 172 143 L172 471 L11 452 L11 438 C68 432 67 425 67 363 L67 -247 C67 -247 66 -269 93 -264 L223 -241 L223 -226 C181 -222 172 -212 172 -163 L172 -1 C230 -14 300 8 333 57 L333 57 Z M467 88 L467 471 L313 452 L313 438 C363 433 360 423 360 362 L360 9 C360 9 361 -12 387 -8 L518 15 L518 30 C476 35 467 40 467 88 L467 88 Z " />
<glyph glyph-name="paragraph" unicode="&#xb6;" horiz-adv-x="643" d="M482 559 C482 629 514 689 564 689 L564 704 L418 704 L418 -265 L557 -265 L557 -250 C509 -250 482 -192 482 -114 L482 559 Z M288 704 L287 704 C167 703 37 665 37 500 C37 334 151 300 287 300 L287 -123 C287 -233 211 -250 163 -250 L163 -265 L352 -265 L352 704 L288 704 Z " />
<glyph glyph-name="periodcentered" unicode="&#xb7;" horiz-adv-x="260" d="M132 246 C161 246 185 270 185 299 C185 328 161 352 132 352 C102 352 78 328 78 299 C78 270 102 246 132 246 L132 246 Z " />
<glyph glyph-name="cedilla" unicode="&#xb8;" horiz-adv-x="272" d="M94 -68 L86 -92 C166 -77 187 -139 187 -161 C188 -195 166 -217 133 -217 C104 -218 99 -210 101 -208 C105 -206 109 -203 110 -196 C114 -181 106 -167 91 -162 C76 -158 61 -166 56 -181 C54 -191 58 -203 64 -209 C71 -215 94 -231 133 -231 C166 -232 228 -217 236 -148 C243 -97 198 -36 94 -68 L94 -68 Z " />
<glyph glyph-name="onesuperior" unicode="&#xb9;" horiz-adv-x="221" d="M177 393 C160 393 139 396 139 431 L139 704 L123 704 L39 643 L49 630 C57 637 88 655 88 621 L88 431 C88 397 65 393 45 393 L45 380 L177 380 L177 393 L177 393 Z " />
<glyph glyph-name="ordmasculine" unicode="&#xba;" horiz-adv-x="327" d="M228 537 C228 407 200 387 162 387 C125 387 95 407 95 537 C95 668 124 693 162 693 C198 693 228 668 228 537 L228 537 Z M290 537 C290 624 265 707 162 707 C58 707 33 624 33 537 C33 451 58 373 162 373 C265 373 290 451 290 537 L290 537 Z " />
<glyph glyph-name="guillemotright" unicode="&#xbb;" horiz-adv-x="609" d="M84 472 L219 266 L84 65 L84 33 L315 266 L84 505 L84 472 Z M288 472 L424 266 L288 65 L288 33 L519 266 L288 505 L288 472 Z " />
<glyph glyph-name="onequarter" unicode="&#xbc;" horiz-adv-x="642" d="M453 136 L380 136 C368 136 357 136 373 161 L453 279 L453 136 Z M570 708 L14 36 L71 36 L628 708 L570 708 Z M222 389 C205 389 183 389 183 429 L183 746 L166 746 L78 676 L87 663 C97 671 129 692 129 656 L129 429 C129 391 106 389 85 389 L85 375 L222 375 L222 389 Z M569 105 L569 136 L517 136 L517 364 L493 367 L323 113 L323 105 L453 105 L453 73 C453 16 433 14 412 14 L412 0 L558 0 L558 14 C536 14 517 15 517 75 L517 105 L569 105 Z " />
<glyph glyph-name="onehalf" unicode="&#xbd;" horiz-adv-x="647" d="M593 86 C582 66 559 57 542 57 L446 57 C446 57 496 133 521 167 C562 220 581 251 581 285 C581 332 545 372 492 372 C492 372 401 374 393 274 L407 270 C436 364 598 317 508 174 L392 0 L583 0 L607 86 L593 86 Z M570 708 L14 36 L71 36 L628 708 L570 708 Z M222 389 C205 389 183 389 183 429 L183 746 L166 746 L78 676 L87 663 C97 671 129 692 129 656 L129 429 C129 391 106 389 85 389 L85 375 L222 375 L222 389 Z " />
<glyph glyph-name="threequarters" unicode="&#xbe;" horiz-adv-x="643" d="M453 136 L380 136 C368 136 357 136 373 161 L453 279 L453 136 Z M570 708 L14 36 L71 36 L628 708 L570 708 Z M147 372 C193 372 271 398 268 493 C266 527 240 569 189 582 C281 650 225 746 146 746 C144 746 61 746 54 663 L69 658 C83 702 133 713 162 691 C199 661 196 591 114 571 L114 558 C193 551 208 500 211 475 C217 426 200 386 147 386 C106 386 96 398 101 399 C107 402 111 407 114 416 C121 434 109 454 90 459 C73 465 53 454 48 435 C45 424 49 409 58 401 C77 385 106 372 147 372 L147 372 Z M569 105 L569 136 L517 136 L517 364 L493 367 L323 113 L323 105 L453 105 L453 73 C453 16 433 14 412 14 L412 0 L558 0 L558 14 C536 14 517 15 517 75 L517 105 L569 105 Z " />
<glyph glyph-name="questiondown" unicode="&#xbf;" horiz-adv-x="596" d="M326 326 C367 326 399 359 399 400 C399 441 367 474 326 474 C285 474 251 441 251 400 C251 359 285 326 326 326 L326 326 Z M412 -156 C422 -170 434 -178 450 -180 C461 -182 463 -204 439 -218 L445 -234 C489 -212 512 -172 517 -150 C523 -131 524 -107 511 -89 C491 -61 453 -53 427 -72 C401 -91 394 -129 412 -156 L412 -156 Z M227 -94 C218 11 249 55 295 94 C359 147 354 213 348 252 L325 248 C330 188 302 142 249 125 C192 106 94 47 101 -98 C107 -222 240 -289 378 -257 L374 -242 C305 -245 236 -199 227 -94 L227 -94 Z " />
<glyph glyph-name="Agrave" unicode="&#xc0;" horiz-adv-x="698" d="M600 92 C600 92 534 263 350 704 L336 704 L279 552 L412 220 L154 220 C72 15 47 16 17 15 L17 0 L251 0 L251 15 C103 9 155 165 169 205 L417 205 L449 125 C461 97 492 15 426 15 L426 0 L683 0 L683 15 C656 17 634 12 600 92 L600 92 Z M305 898 L209 869 L449 735 L478 735 L305 898 Z " />
<glyph glyph-name="Aacute" unicode="&#xc1;" horiz-adv-x="698" d="M600 92 C600 92 534 263 350 704 L336 704 L279 552 L412 220 L154 220 C72 15 47 16 17 15 L17 0 L251 0 L251 15 C103 9 155 165 169 205 L417 205 L449 125 C461 97 492 15 426 15 L426 0 L683 0 L683 15 C656 17 634 12 600 92 L600 92 Z M219 735 L248 735 L488 869 L392 898 L219 735 Z " />
<glyph glyph-name="Acircumflex" unicode="&#xc2;" horiz-adv-x="698" d="M600 92 C600 92 534 263 350 704 L336 704 L279 552 L412 220 L154 220 C72 15 47 16 17 15 L17 0 L251 0 L251 15 C103 9 155 165 169 205 L417 205 L449 125 C461 97 492 15 426 15 L426 0 L683 0 L683 15 C656 17 634 12 600 92 L600 92 Z M462 735 L493 735 L344 922 L195 735 L225 735 L344 824 L462 735 Z " />
<glyph glyph-name="Atilde" unicode="&#xc3;" horiz-adv-x="698" d="M389 758 C389 758 511 717 577 880 L565 887 C540 832 449 825 415 838 L298 881 C298 881 176 923 110 760 L122 755 C149 811 238 813 272 802 L389 758 Z M600 92 C600 92 534 263 350 704 L336 704 L279 552 L412 220 L154 220 C72 15 47 16 17 15 L17 0 L251 0 L251 15 C103 9 155 165 169 205 L417 205 L449 125 C461 97 492 15 426 15 L426 0 L683 0 L683 15 C656 17 634 12 600 92 L600 92 Z " />
<glyph glyph-name="Adieresis" unicode="&#xc4;" horiz-adv-x="698" d="M378 830 C378 801 401 778 430 778 C459 778 484 801 484 830 C484 859 459 883 430 883 C401 883 378 859 378 830 L378 830 Z M204 830 C204 801 228 778 256 778 C286 778 309 801 309 830 C309 859 286 883 256 883 C228 883 204 859 204 830 L204 830 Z M600 92 C600 92 534 263 350 704 L336 704 L279 552 L412 220 L154 220 C72 15 47 16 17 15 L17 0 L251 0 L251 15 C103 9 155 165 169 205 L417 205 L449 125 C461 97 492 15 426 15 L426 0 L683 0 L683 15 C656 17 634 12 600 92 L600 92 Z " />
<glyph glyph-name="Aring" unicode="&#xc5;" horiz-adv-x="698" d="M281 880 C281 915 309 943 343 943 C378 943 406 915 406 880 C406 846 378 818 343 818 C309 818 281 846 281 880 L281 880 Z M242 880 C242 824 287 778 343 778 C400 778 446 824 446 880 C446 936 400 983 343 983 C287 983 242 936 242 880 L242 880 Z M600 92 C600 92 534 263 350 704 L336 704 L279 552 L412 220 L154 220 C72 15 47 16 17 15 L17 0 L251 0 L251 15 C103 9 155 165 169 205 L417 205 L449 125 C461 97 492 15 426 15 L426 0 L683 0 L683 15 C656 17 634 12 600 92 L600 92 Z " />
<glyph glyph-name="AE" unicode="&#xc6;" horiz-adv-x="970" d="M877 518 L892 518 L892 704 L643 704 L643 688 C725 683 864 659 877 518 L877 518 Z M573 704 L367 704 L367 689 C422 689 448 666 448 588 L448 254 L216 254 C90 36 41 16 10 15 L10 0 L252 0 L252 15 C192 15 112 24 228 239 L448 239 L448 126 C448 31 422 15 379 15 L379 0 L573 0 L573 704 Z M906 211 L891 211 C868 48 727 21 643 16 L643 0 L906 0 L906 211 Z M754 245 L769 245 L769 464 L754 464 C748 384 684 366 643 362 L643 347 C684 342 748 324 754 245 L754 245 Z " />
<glyph glyph-name="Ccedilla" unicode="&#xc7;" horiz-adv-x="681" d="M423 8 L423 -8 C510 -5 572 10 637 53 L625 209 L610 209 C592 97 516 21 423 8 L423 8 Z M610 496 L625 496 L637 652 C582 697 509 710 423 712 L423 696 C509 686 572 625 610 496 L610 496 Z M41 352 C41 154 162 8 353 -7 L353 8 C262 21 195 95 195 352 C195 608 260 683 353 696 L353 711 C162 696 41 552 41 352 L41 352 Z M352 -68 L344 -92 C424 -77 445 -139 445 -161 C446 -195 424 -217 391 -217 C362 -218 357 -210 359 -208 C363 -206 367 -203 368 -196 C372 -181 364 -167 349 -162 C334 -158 319 -166 314 -181 C312 -191 316 -203 322 -209 C329 -215 352 -231 391 -231 C424 -232 486 -217 494 -148 C501 -97 456 -36 352 -68 L352 -68 Z " />
<glyph glyph-name="Egrave" unicode="&#xc8;" horiz-adv-x="625" d="M562 213 L547 213 C522 46 369 21 280 16 L280 0 L562 0 L562 213 Z M209 704 L30 704 L30 689 C74 689 85 644 85 582 L85 127 C85 59 72 15 30 15 L30 0 L209 0 L209 704 Z M534 519 L549 519 L549 704 L280 704 L280 688 C368 684 521 662 534 519 L534 519 Z M410 246 L425 246 L425 466 L410 466 C400 383 327 368 280 365 L280 346 C327 343 400 329 410 246 L410 246 Z M259 898 L163 869 L403 735 L432 735 L259 898 Z " />
<glyph glyph-name="Eacute" unicode="&#xc9;" horiz-adv-x="625" d="M562 213 L547 213 C522 46 369 21 280 16 L280 0 L562 0 L562 213 Z M209 704 L30 704 L30 689 C74 689 85 644 85 582 L85 127 C85 59 72 15 30 15 L30 0 L209 0 L209 704 Z M534 519 L549 519 L549 704 L280 704 L280 688 C368 684 521 662 534 519 L534 519 Z M410 246 L425 246 L425 466 L410 466 C400 383 327 368 280 365 L280 346 C327 343 400 329 410 246 L410 246 Z M148 735 L177 735 L417 869 L321 898 L148 735 Z " />
<glyph glyph-name="Ecircumflex" unicode="&#xca;" horiz-adv-x="625" d="M562 213 L547 213 C522 46 369 21 280 16 L280 0 L562 0 L562 213 Z M209 704 L30 704 L30 689 C74 689 85 644 85 582 L85 127 C85 59 72 15 30 15 L30 0 L209 0 L209 704 Z M534 519 L549 519 L549 704 L280 704 L280 688 C368 684 521 662 534 519 L534 519 Z M410 246 L425 246 L425 466 L410 466 C400 383 327 368 280 365 L280 346 C327 343 400 329 410 246 L410 246 Z M410 735 L441 735 L292 922 L143 735 L173 735 L292 824 L410 735 Z " />
<glyph glyph-name="Edieresis" unicode="&#xcb;" horiz-adv-x="625" d="M328 830 C328 801 352 778 381 778 C410 778 434 801 434 830 C434 859 410 883 381 883 C352 883 328 859 328 830 L328 830 Z M154 830 C154 801 178 778 207 778 C236 778 260 801 260 830 C260 859 236 883 207 883 C178 883 154 859 154 830 L154 830 Z M562 213 L547 213 C522 46 369 21 280 16 L280 0 L562 0 L562 213 Z M209 704 L30 704 L30 689 C74 689 85 644 85 582 L85 127 C85 59 72 15 30 15 L30 0 L209 0 L209 704 Z M534 519 L549 519 L549 704 L280 704 L280 688 C368 684 521 662 534 519 L534 519 Z M410 246 L425 246 L425 466 L410 466 C400 383 327 368 280 365 L280 346 C327 343 400 329 410 246 L410 246 Z " />
<glyph glyph-name="Igrave" unicode="&#xcc;" horiz-adv-x="361" d="M44 689 C88 689 122 667 122 605 L122 115 C122 46 86 15 44 15 L44 0 L323 0 L323 15 C281 15 245 46 245 115 L245 605 C245 667 280 689 323 689 L323 704 L44 704 L44 689 Z M141 898 L45 869 L285 735 L314 735 L141 898 Z " />
<glyph glyph-name="Iacute" unicode="&#xcd;" horiz-adv-x="361" d="M44 689 C88 689 122 667 122 605 L122 115 C122 46 86 15 44 15 L44 0 L323 0 L323 15 C281 15 245 46 245 115 L245 605 C245 667 280 689 323 689 L323 704 L44 704 L44 689 Z M46 735 L75 735 L315 869 L219 898 L46 735 Z " />
<glyph glyph-name="Icircumflex" unicode="&#xce;" horiz-adv-x="361" d="M44 689 C88 689 122 667 122 605 L122 115 C122 46 86 15 44 15 L44 0 L323 0 L323 15 C281 15 245 46 245 115 L245 605 C245 667 280 689 323 689 L323 704 L44 704 L44 689 Z M304 735 L335 735 L186 922 L37 735 L67 735 L186 824 L304 735 Z " />
<glyph glyph-name="Idieresis" unicode="&#xcf;" horiz-adv-x="361" d="M271 778 C300 778 324 801 324 830 C324 859 300 883 271 883 C242 883 218 859 218 830 C218 801 242 778 271 778 L271 778 Z M150 830 C150 859 126 883 97 883 C68 883 44 859 44 830 C44 801 68 778 97 778 C126 778 150 801 150 830 L150 830 Z M44 689 C88 689 122 667 122 605 L122 115 C122 46 86 15 44 15 L44 0 L323 0 L323 15 C281 15 245 46 245 115 L245 605 C245 667 280 689 323 689 L323 704 L44 704 L44 689 Z " />
<glyph glyph-name="Eth" unicode="&#xd0;" horiz-adv-x="732" d="M233 342 L377 342 L377 361 L233 361 L233 704 L37 704 L37 689 C81 689 108 638 108 576 L108 361 L26 361 L26 342 L108 342 L108 128 C108 60 80 15 37 15 L37 0 L233 0 L233 342 Z M685 350 C685 630 493 698 303 703 L303 689 C405 684 537 642 537 350 C537 54 404 19 303 15 L303 0 C493 5 685 66 685 350 L685 350 Z " />
<glyph glyph-name="Ntilde" unicode="&#xd1;" horiz-adv-x="822" d="M455 758 C455 758 577 717 643 880 L631 887 C606 832 515 825 481 838 L364 881 C364 881 242 923 177 760 L189 755 C215 811 305 813 338 802 L455 758 Z M184 252 L169 252 C169 207 169 15 21 15 L21 0 L318 0 L318 15 C183 15 184 208 184 252 L184 252 Z M10 704 L10 689 C36 687 65 696 129 616 L615 0 L657 0 L657 158 L225 704 L10 704 Z M508 689 C643 690 642 499 642 452 L657 452 C657 499 655 690 803 689 L803 704 L508 704 L508 689 Z " />
<glyph glyph-name="Ograve" unicode="&#xd2;" horiz-adv-x="755" d="M184 347 C184 593 242 680 341 695 L341 711 C145 694 41 534 41 347 C41 159 145 9 341 -7 L341 8 C242 22 184 101 184 347 L184 347 Z M711 347 C711 534 608 694 411 711 L411 695 C509 680 566 594 566 347 C566 100 509 22 411 8 L411 -7 C608 8 711 159 711 347 L711 347 Z M318 898 L222 869 L462 735 L491 735 L318 898 Z " />
<glyph glyph-name="Oacute" unicode="&#xd3;" horiz-adv-x="755" d="M184 347 C184 593 242 680 341 695 L341 711 C145 694 41 534 41 347 C41 159 145 9 341 -7 L341 8 C242 22 184 101 184 347 L184 347 Z M711 347 C711 534 608 694 411 711 L411 695 C509 680 566 594 566 347 C566 100 509 22 411 8 L411 -7 C608 8 711 159 711 347 L711 347 Z M235 735 L264 735 L504 869 L408 898 L235 735 Z " />
<glyph glyph-name="Ocircumflex" unicode="&#xd4;" horiz-adv-x="755" d="M184 347 C184 593 242 680 341 695 L341 711 C145 694 41 534 41 347 C41 159 145 9 341 -7 L341 8 C242 22 184 101 184 347 L184 347 Z M711 347 C711 534 608 694 411 711 L411 695 C509 680 566 594 566 347 C566 100 509 22 411 8 L411 -7 C608 8 711 159 711 347 L711 347 Z M493 735 L524 735 L375 922 L226 735 L256 735 L375 824 L493 735 Z " />
<glyph glyph-name="Otilde" unicode="&#xd5;" horiz-adv-x="755" d="M309 802 L426 758 C426 758 547 717 614 880 L602 887 C576 832 486 825 452 837 L335 881 C335 881 213 923 147 759 L159 755 C186 811 275 813 309 802 L309 802 Z M184 347 C184 593 242 680 341 695 L341 711 C145 694 41 534 41 347 C41 159 145 9 341 -7 L341 8 C242 22 184 101 184 347 L184 347 Z M711 347 C711 534 608 694 411 711 L411 695 C509 680 566 594 566 347 C566 100 509 22 411 8 L411 -7 C608 8 711 159 711 347 L711 347 Z " />
<glyph glyph-name="Odieresis" unicode="&#xd6;" horiz-adv-x="755" d="M411 830 C411 801 435 777 464 777 C493 777 517 801 517 830 C517 859 493 883 464 883 C435 883 411 859 411 830 L411 830 Z M238 830 C238 801 261 777 290 777 C319 777 343 801 343 830 C343 859 319 883 290 883 C261 883 238 859 238 830 L238 830 Z M184 347 C184 593 242 680 341 695 L341 711 C145 694 41 534 41 347 C41 159 145 9 341 -7 L341 8 C242 22 184 101 184 347 L184 347 Z M711 347 C711 534 608 694 411 711 L411 695 C509 680 566 594 566 347 C566 100 509 22 411 8 L411 -7 C608 8 711 159 711 347 L711 347 Z " />
<glyph glyph-name="multiply" unicode="&#xd7;" horiz-adv-x="600" d="M356 254 L541 439 L485 496 L300 311 L116 496 L59 439 L244 254 L59 70 L116 13 L300 198 L485 13 L541 70 L356 254 Z " />
<glyph glyph-name="Oslash" unicode="&#xd8;" horiz-adv-x="756" d="M712 347 C712 474 664 589 572 655 L627 745 L606 745 L557 665 C517 691 468 707 412 712 L412 695 C460 688 498 663 524 609 L222 108 C198 159 185 236 185 347 C185 594 243 680 342 696 L342 711 C145 694 42 535 42 347 C42 218 90 107 184 44 L136 -35 L157 -35 L199 35 C239 12 287 -3 342 -7 L342 9 C293 15 256 37 231 88 L532 588 C554 534 567 456 567 347 C567 100 510 22 412 9 L412 -7 C608 9 712 159 712 347 L712 347 Z " />
<glyph glyph-name="Ugrave" unicode="&#xd9;" horiz-adv-x="736" d="M320 898 L224 869 L464 735 L493 735 L320 898 Z M389 43 C287 43 214 114 214 235 L214 601 C214 676 257 689 300 689 L300 704 L17 704 L17 689 C61 689 92 666 92 601 L92 243 C92 80 199 -9 332 -9 C438 -9 577 41 577 238 L562 238 C562 110 478 43 389 43 L389 43 Z M435 689 C562 689 562 569 562 522 L577 522 C577 569 574 689 715 689 L715 704 L435 704 L435 689 Z " />
<glyph glyph-name="Uacute" unicode="&#xda;" horiz-adv-x="736" d="M389 43 C287 43 214 114 214 235 L214 601 C214 676 257 689 300 689 L300 704 L17 704 L17 689 C61 689 92 666 92 601 L92 243 C92 80 199 -9 332 -9 C438 -9 577 41 577 238 L562 238 C562 110 478 43 389 43 L389 43 Z M435 689 C562 689 562 569 562 522 L577 522 C577 569 574 689 715 689 L715 704 L435 704 L435 689 Z M235 735 L264 735 L504 869 L408 898 L235 735 Z " />
<glyph glyph-name="Ucircumflex" unicode="&#xdb;" horiz-adv-x="736" d="M496 735 L527 735 L378 922 L229 735 L259 735 L378 824 L496 735 Z M389 43 C287 43 214 114 214 235 L214 601 C214 676 257 689 300 689 L300 704 L17 704 L17 689 C61 689 92 666 92 601 L92 243 C92 80 199 -9 332 -9 C438 -9 577 41 577 238 L562 238 C562 110 478 43 389 43 L389 43 Z M435 689 C562 689 562 569 562 522 L577 522 C577 569 574 689 715 689 L715 704 L435 704 L435 689 Z " />
<glyph glyph-name="Udieresis" unicode="&#xdc;" horiz-adv-x="736" d="M401 830 C401 801 425 777 454 777 C483 777 507 801 507 830 C507 859 483 883 454 883 C425 883 401 859 401 830 L401 830 Z M228 830 C228 801 251 777 280 777 C309 777 333 801 333 830 C333 859 309 883 280 883 C251 883 228 859 228 830 L228 830 Z M389 43 C287 43 214 114 214 235 L214 601 C214 676 257 689 300 689 L300 704 L17 704 L17 689 C61 689 92 666 92 601 L92 243 C92 80 199 -9 332 -9 C438 -9 577 41 577 238 L562 238 C562 110 478 43 389 43 L389 43 Z M435 689 C562 689 562 569 562 522 L577 522 C577 569 574 689 715 689 L715 704 L435 704 L435 689 Z " />
<glyph glyph-name="Yacute" unicode="&#xdd;" horiz-adv-x="732" d="M426 117 L426 324 L274 576 C206 691 273 690 297 690 L297 704 L10 704 L10 690 C38 689 71 688 115 611 C115 611 160 542 307 282 L307 117 C307 42 269 15 227 15 L227 0 L507 0 L507 15 C465 15 426 42 426 117 L426 117 Z M440 689 C580 689 505 518 488 483 L498 470 C610 689 684 689 719 689 L719 704 L440 704 L440 689 Z M257 735 L286 735 L526 869 L430 898 L257 735 Z " />
<glyph glyph-name="Thorn" unicode="&#xde;" horiz-adv-x="628" d="M112 119 C112 51 79 15 37 15 L37 0 L310 0 L310 15 C268 15 234 51 234 119 L234 600 C234 662 267 689 310 689 L310 704 L37 704 L37 689 C81 689 112 662 112 600 L112 119 Z M460 375 C460 217 394 195 305 192 L305 177 C479 181 597 216 597 375 C597 534 479 572 305 576 L305 562 C393 558 460 535 460 375 L460 375 Z " />
<glyph glyph-name="germandbls" unicode="&#xdf;" horiz-adv-x="605" d="M69 496 L69 120 C69 69 67 27 29 15 L29 0 L175 0 L175 529 C175 529 174 697 242 730 L242 745 C124 732 69 637 69 496 L69 496 Z M309 24 C320 28 331 38 336 51 C346 77 334 108 308 118 C281 129 251 116 241 90 C234 71 238 47 249 32 C258 17 283 -1 325 -7 L325 9 C306 13 302 21 309 24 L309 24 Z M581 203 C581 370 418 420 351 420 C371 420 485 450 485 575 C485 703 402 738 312 746 L312 730 C345 719 385 681 385 580 C385 445 326 424 273 424 L273 409 C343 409 456 353 457 212 C457 130 449 38 395 9 L395 -5 C532 11 581 99 581 203 L581 203 Z " />
<glyph glyph-name="agrave" unicode="&#xe0;" horiz-adv-x="508" d="M156 311 C179 328 185 360 168 383 C160 395 148 401 135 403 C130 404 131 413 146 425 L139 439 C100 414 88 391 80 378 C72 362 73 340 84 323 C101 300 133 295 156 311 L156 311 Z M452 45 C405 45 406 111 406 111 L406 271 C406 389 373 471 253 471 C253 471 218 473 181 460 L187 447 C252 466 298 412 298 318 L298 258 C125 214 41 198 41 93 C41 -10 155 -9 155 -9 C202 -9 243 12 270 36 C269 37 260 51 259 53 C249 47 236 44 221 44 C158 44 149 101 149 116 C149 172 191 217 298 242 L298 80 C298 -11 391 -9 391 -9 C449 -9 488 29 496 60 L481 66 C475 45 452 45 452 45 L452 45 Z M218 704 L122 675 L362 541 L391 541 L218 704 Z " />
<glyph glyph-name="aacute" unicode="&#xe1;" horiz-adv-x="508" d="M156 311 C179 328 185 360 168 383 C160 395 148 401 135 403 C130 404 131 413 146 425 L139 439 C100 414 88 391 80 378 C72 362 73 340 84 323 C101 300 133 295 156 311 L156 311 Z M452 45 C405 45 406 111 406 111 L406 271 C406 389 373 471 253 471 C253 471 218 473 181 460 L187 447 C252 466 298 412 298 318 L298 258 C125 214 41 198 41 93 C41 -10 155 -9 155 -9 C202 -9 243 12 270 36 C269 37 260 51 259 53 C249 47 236 44 221 44 C158 44 149 101 149 116 C149 172 191 217 298 242 L298 80 C298 -11 391 -9 391 -9 C449 -9 488 29 496 60 L481 66 C475 45 452 45 452 45 L452 45 Z M127 541 L156 541 L396 675 L300 704 L127 541 Z " />
<glyph glyph-name="acircumflex" unicode="&#xe2;" horiz-adv-x="508" d="M156 311 C179 328 185 360 168 383 C160 395 148 401 135 403 C130 404 131 413 146 425 L139 439 C100 414 88 391 80 378 C72 362 73 340 84 323 C101 300 133 295 156 311 L156 311 Z M452 45 C405 45 406 111 406 111 L406 271 C406 389 373 471 253 471 C253 471 218 473 181 460 L187 447 C252 466 298 412 298 318 L298 258 C125 214 41 198 41 93 C41 -10 155 -9 155 -9 C202 -9 243 12 270 36 C269 37 260 51 259 53 C249 47 236 44 221 44 C158 44 149 101 149 116 C149 172 191 217 298 242 L298 80 C298 -11 391 -9 391 -9 C449 -9 488 29 496 60 L481 66 C475 45 452 45 452 45 L452 45 Z M381 517 L412 517 L263 704 L114 517 L144 517 L263 606 L381 517 Z " />
<glyph glyph-name="atilde" unicode="&#xe3;" horiz-adv-x="508" d="M307 554 C307 554 428 513 495 676 L483 682 C457 628 367 621 333 633 L216 677 C216 677 94 718 28 555 L40 551 C67 607 156 609 190 597 L307 554 Z M156 311 C179 328 185 360 168 383 C160 395 148 401 135 403 C130 404 131 413 146 425 L139 439 C100 414 88 391 80 378 C72 362 73 340 84 323 C101 300 133 295 156 311 L156 311 Z M452 45 C405 45 406 111 406 111 L406 271 C406 389 373 471 253 471 C253 471 218 473 181 460 L187 447 C252 466 298 412 298 318 L298 258 C125 214 41 198 41 93 C41 -10 155 -9 155 -9 C202 -9 243 12 270 36 C269 37 260 51 259 53 C249 47 236 44 221 44 C158 44 149 101 149 116 C149 172 191 217 298 242 L298 80 C298 -11 391 -9 391 -9 C449 -9 488 29 496 60 L481 66 C475 45 452 45 452 45 L452 45 Z " />
<glyph glyph-name="adieresis" unicode="&#xe4;" horiz-adv-x="508" d="M344 563 C373 563 397 587 397 616 C397 645 373 669 344 669 C315 669 292 645 292 616 C292 587 315 563 344 563 L344 563 Z M118 616 C118 587 141 563 170 563 C200 563 223 587 223 616 C223 645 200 669 170 669 C141 669 118 645 118 616 L118 616 Z M156 311 C179 328 185 360 168 383 C160 395 148 401 135 403 C130 404 131 413 146 425 L139 439 C100 414 88 391 80 378 C72 362 73 340 84 323 C101 300 133 295 156 311 L156 311 Z M452 45 C405 45 406 111 406 111 L406 271 C406 389 373 471 253 471 C253 471 218 473 181 460 L187 447 C252 466 298 412 298 318 L298 258 C125 214 41 198 41 93 C41 -10 155 -9 155 -9 C202 -9 243 12 270 36 C269 37 260 51 259 53 C249 47 236 44 221 44 C158 44 149 101 149 116 C149 172 191 217 298 242 L298 80 C298 -11 391 -9 391 -9 C449 -9 488 29 496 60 L481 66 C475 45 452 45 452 45 L452 45 Z " />
<glyph glyph-name="aring" unicode="&#xe5;" horiz-adv-x="508" d="M254 700 C288 700 316 672 316 638 C316 604 288 576 254 576 C219 576 191 604 191 638 C191 672 219 700 254 700 L254 700 Z M254 536 C310 536 355 582 355 638 C355 694 310 740 254 740 C197 740 152 694 152 638 C152 582 197 536 254 536 L254 536 Z M156 311 C179 328 185 360 168 383 C160 395 148 401 135 403 C130 404 131 413 146 425 L139 439 C100 414 88 391 80 378 C72 362 73 340 84 323 C101 300 133 295 156 311 L156 311 Z M452 45 C405 45 406 111 406 111 L406 271 C406 389 373 471 253 471 C253 471 218 473 181 460 L187 447 C252 466 298 412 298 318 L298 258 C125 214 41 198 41 93 C41 -10 155 -9 155 -9 C202 -9 243 12 270 36 C269 37 260 51 259 53 C249 47 236 44 221 44 C158 44 149 101 149 116 C149 172 191 217 298 242 L298 80 C298 -11 391 -9 391 -9 C449 -9 488 29 496 60 L481 66 C475 45 452 45 452 45 L452 45 Z " />
<glyph glyph-name="ae" unicode="&#xe6;" horiz-adv-x="724" d="M78 378 C70 362 71 341 82 324 C99 300 131 295 154 311 C177 328 183 360 166 384 C158 395 147 403 134 405 C129 406 129 415 145 427 L138 440 C98 415 86 392 78 378 L78 378 Z M514 60 C438 72 400 127 395 239 L682 239 C682 389 635 461 519 470 L519 454 C561 438 585 371 585 254 L395 254 C395 352 424 435 472 454 L472 470 C426 463 391 438 356 401 C335 443 298 471 242 471 C242 471 214 472 179 461 L187 448 C250 464 288 411 288 318 L288 259 C120 213 42 192 42 94 C42 -9 156 -9 156 -9 C218 -9 267 18 295 53 L283 69 C269 54 246 44 219 44 C156 44 150 102 150 117 C150 202 261 234 288 242 C288 242 288 222 289 203 C295 74 386 -9 489 -9 C614 -9 652 72 665 120 L650 128 C629 89 573 52 514 60 L514 60 Z " />
<glyph glyph-name="ccedilla" unicode="&#xe7;" horiz-adv-x="491" d="M366 430 C353 425 342 415 336 400 C324 372 339 339 368 328 C397 316 429 332 441 360 C449 380 443 404 430 418 C419 432 388 463 320 469 L320 454 C357 449 373 432 366 430 L366 430 Z M444 128 C424 91 353 54 292 63 C222 73 155 125 155 246 C155 396 228 442 274 453 L274 469 C126 458 45 344 45 231 C45 99 143 -9 264 -9 C388 -9 444 71 456 121 L444 128 Z M216 -68 L208 -92 C288 -77 309 -139 309 -161 C310 -195 288 -217 255 -217 C226 -218 221 -210 223 -208 C227 -206 231 -203 232 -196 C236 -181 228 -167 213 -162 C198 -158 183 -166 178 -181 C176 -191 180 -203 186 -209 C193 -215 216 -231 255 -231 C288 -232 350 -217 358 -148 C365 -97 320 -36 216 -68 L216 -68 Z " />
<glyph glyph-name="egrave" unicode="&#xe8;" horiz-adv-x="508" d="M282 59 C209 71 154 123 148 240 L467 240 C467 387 402 461 283 469 L283 454 C327 437 363 368 363 255 L148 255 C148 351 187 436 237 454 L237 469 C119 457 37 362 37 228 C37 103 126 -9 254 -9 C380 -9 437 70 450 120 L436 127 C414 79 339 50 282 59 L282 59 Z M220 704 L124 675 L364 541 L393 541 L220 704 Z " />
<glyph glyph-name="eacute" unicode="&#xe9;" horiz-adv-x="508" d="M282 59 C209 71 154 123 148 240 L467 240 C467 387 402 461 283 469 L283 454 C327 437 363 368 363 255 L148 255 C148 351 187 436 237 454 L237 469 C119 457 37 362 37 228 C37 103 126 -9 254 -9 C380 -9 437 70 450 120 L436 127 C414 79 339 50 282 59 L282 59 Z M121 541 L150 541 L390 675 L294 704 L121 541 Z " />
<glyph glyph-name="ecircumflex" unicode="&#xea;" horiz-adv-x="508" d="M282 59 C209 71 154 123 148 240 L467 240 C467 387 402 461 283 469 L283 454 C327 437 363 368 363 255 L148 255 C148 351 187 436 237 454 L237 469 C119 457 37 362 37 228 C37 103 126 -9 254 -9 C380 -9 437 70 450 120 L436 127 C414 79 339 50 282 59 L282 59 Z M370 517 L401 517 L252 704 L103 517 L133 517 L252 606 L370 517 Z " />
<glyph glyph-name="edieresis" unicode="&#xeb;" horiz-adv-x="508" d="M345 563 C374 563 398 587 398 616 C398 645 374 669 345 669 C315 669 292 645 292 616 C292 587 315 563 345 563 L345 563 Z M171 563 C200 563 224 587 224 616 C224 645 200 669 171 669 C142 669 119 645 119 616 C119 587 142 563 171 563 L171 563 Z M282 59 C209 71 154 123 148 240 L467 240 C467 387 402 461 283 469 L283 454 C327 437 363 368 363 255 L148 255 C148 351 187 436 237 454 L237 469 C119 457 37 362 37 228 C37 103 126 -9 254 -9 C380 -9 437 70 450 120 L436 127 C414 79 339 50 282 59 L282 59 Z " />
<glyph glyph-name="igrave" unicode="&#xec;" horiz-adv-x="264" d="M226 15 L226 0 L39 0 L39 15 C77 27 79 56 79 107 L79 357 C79 391 70 405 29 422 L29 437 L185 471 L185 107 C185 52 190 25 226 15 L226 15 Z M86 704 L-10 675 L230 541 L259 541 L86 704 Z " />
<glyph glyph-name="iacute" unicode="&#xed;" horiz-adv-x="264" d="M226 15 C190 25 185 52 185 107 L185 471 L29 437 L29 422 C70 405 79 391 79 357 L79 107 C79 56 77 27 39 15 L39 0 L226 0 L226 15 Z M-1 541 L28 541 L268 675 L172 704 L-1 541 Z " />
<glyph glyph-name="icircumflex" unicode="&#xee;" horiz-adv-x="264" d="M226 15 L226 0 L39 0 L39 15 C77 27 79 56 79 107 L79 357 C79 391 70 405 29 422 L29 437 L185 471 L185 107 C185 52 190 25 226 15 L226 15 Z M245 517 L276 517 L127 704 L-22 517 L8 517 L127 606 L245 517 Z " />
<glyph glyph-name="idieresis" unicode="&#xef;" horiz-adv-x="264" d="M214 563 C244 563 267 587 267 616 C267 645 244 669 214 669 C185 669 162 645 162 616 C162 587 185 563 214 563 L214 563 Z M41 563 C70 563 93 587 93 616 C93 645 70 669 41 669 C11 669 -12 645 -12 616 C-12 587 11 563 41 563 L41 563 Z M226 15 C190 25 185 52 185 107 L185 471 L29 437 L29 422 C70 405 79 391 79 357 L79 107 C79 56 77 27 39 15 L39 0 L226 0 L226 15 Z " />
<glyph glyph-name="eth" unicode="&#xf0;" horiz-adv-x="559" d="M397 638 L499 691 L484 704 L382 651 C327 689 255 712 175 712 L175 698 C233 698 289 676 326 623 L157 535 L171 523 L335 606 C365 551 385 462 387 362 C352 424 282 436 235 436 C96 436 40 328 38 215 C35 77 125 5 234 -7 L234 9 C188 24 164 75 165 200 C167 330 208 408 274 408 C319 408 363 373 387 331 C387 133 365 34 304 9 L304 -7 C449 10 519 138 519 322 C519 465 466 575 397 638 L397 638 Z " />
<glyph glyph-name="ntilde" unicode="&#xf1;" horiz-adv-x="519" d="M314 554 C314 554 435 513 502 676 L490 682 C464 628 374 621 340 633 L223 677 C223 677 101 718 35 555 L47 551 C74 607 163 609 197 597 L314 554 Z M166 106 L166 471 L10 436 L10 422 C51 405 60 393 60 358 L60 106 C60 55 58 26 20 15 L20 0 L207 0 L207 15 C172 24 166 51 166 106 L166 106 Z M457 107 L457 315 C457 436 405 471 325 471 C281 471 233 445 200 411 L212 393 C226 403 242 410 259 410 C317 410 351 370 351 312 L351 107 C351 56 349 25 311 14 L311 0 L498 0 L498 14 C462 23 457 52 457 107 L457 107 Z " />
<glyph glyph-name="ograve" unicode="&#xf2;" horiz-adv-x="548" d="M510 231 C510 356 436 459 298 469 L298 454 C357 444 384 392 384 231 C384 69 357 17 298 7 L298 -8 C436 2 510 106 510 231 L510 231 Z M166 231 C166 392 193 444 252 454 L252 469 C115 459 41 356 41 231 C41 106 115 2 252 -8 L252 7 C193 17 166 69 166 231 L166 231 Z M238 704 L142 675 L382 541 L411 541 L238 704 Z " />
<glyph glyph-name="oacute" unicode="&#xf3;" horiz-adv-x="548" d="M510 231 C510 356 436 459 298 469 L298 454 C357 444 384 392 384 231 C384 69 357 17 298 7 L298 -8 C436 2 510 106 510 231 L510 231 Z M166 231 C166 392 193 444 252 454 L252 469 C115 459 41 356 41 231 C41 106 115 2 252 -8 L252 7 C193 17 166 69 166 231 L166 231 Z M136 541 L165 541 L405 675 L309 704 L136 541 Z " />
<glyph glyph-name="ocircumflex" unicode="&#xf4;" horiz-adv-x="548" d="M510 231 C510 356 436 459 298 469 L298 454 C357 444 384 392 384 231 C384 69 357 17 298 7 L298 -8 C436 2 510 106 510 231 L510 231 Z M166 231 C166 392 193 444 252 454 L252 469 C115 459 41 356 41 231 C41 106 115 2 252 -8 L252 7 C193 17 166 69 166 231 L166 231 Z M396 517 L427 517 L278 704 L129 517 L159 517 L278 606 L396 517 Z " />
<glyph glyph-name="otilde" unicode="&#xf5;" horiz-adv-x="548" d="M204 597 L321 554 C321 554 443 513 509 676 L497 682 C472 628 381 621 347 633 L230 677 C230 677 108 718 43 555 L55 551 C81 607 171 609 204 597 L204 597 Z M510 231 C510 356 436 459 298 469 L298 454 C357 444 384 392 384 231 C384 69 357 17 298 7 L298 -8 C436 2 510 106 510 231 L510 231 Z M166 231 C166 392 193 444 252 454 L252 469 C115 459 41 356 41 231 C41 106 115 2 252 -8 L252 7 C193 17 166 69 166 231 L166 231 Z " />
<glyph glyph-name="odieresis" unicode="&#xf6;" horiz-adv-x="548" d="M363 563 C392 563 416 587 416 616 C416 645 392 669 363 669 C333 669 310 645 310 616 C310 587 333 563 363 563 L363 563 Z M189 563 C218 563 242 587 242 616 C242 645 218 669 189 669 C160 669 137 645 137 616 C137 587 160 563 189 563 L189 563 Z M510 231 C510 356 436 459 298 469 L298 454 C357 444 384 392 384 231 C384 69 357 17 298 7 L298 -8 C436 2 510 106 510 231 L510 231 Z M166 231 C166 392 193 444 252 454 L252 469 C115 459 41 356 41 231 C41 106 115 2 252 -8 L252 7 C193 17 166 69 166 231 L166 231 Z " />
<glyph glyph-name="divide" unicode="&#xf7;" horiz-adv-x="625" d="M312 432 C347 432 374 460 374 493 C374 527 347 555 312 555 C279 555 251 527 251 493 C251 460 279 432 312 432 L312 432 Z M581 237 L581 316 L45 316 L45 237 L581 237 Z M312 -1 C347 -1 374 26 374 60 C374 94 347 121 312 121 C279 121 251 94 251 60 C251 26 279 -1 312 -1 L312 -1 Z " />
<glyph glyph-name="oslash" unicode="&#xf8;" horiz-adv-x="548" d="M510 230 C510 317 474 393 406 435 L460 524 L443 524 L394 442 C367 457 334 466 298 469 L298 453 C329 448 348 430 360 388 L183 90 C171 122 166 167 166 230 C166 391 193 444 252 453 L252 469 C115 459 41 355 41 230 C41 143 76 67 144 25 L88 -68 L104 -68 L156 17 C183 3 215 -6 252 -9 L252 7 C221 12 201 29 188 71 L365 369 C376 337 384 291 384 230 C384 69 357 17 298 7 L298 -9 C436 2 510 106 510 230 L510 230 Z " />
<glyph glyph-name="ugrave" unicode="&#xf9;" horiz-adv-x="543" d="M472 88 L472 471 L318 453 L318 438 C368 433 365 423 365 362 L365 9 C365 9 366 -12 392 -8 L523 15 L523 30 C481 35 472 40 472 88 L472 88 Z M327 71 C310 57 290 53 270 53 C212 53 177 81 177 146 L177 471 L16 453 L16 438 C73 432 72 425 72 363 L72 143 C72 21 130 -9 206 -9 C252 -9 305 18 338 54 C338 54 327 71 327 71 L327 71 Z M238 704 L142 675 L382 541 L411 541 L238 704 Z " />
<glyph glyph-name="uacute" unicode="&#xfa;" horiz-adv-x="543" d="M472 88 L472 471 L318 453 L318 438 C368 433 365 423 365 362 L365 9 C365 9 366 -12 392 -8 L523 15 L523 30 C481 35 472 40 472 88 L472 88 Z M327 71 C310 57 290 53 270 53 C212 53 177 81 177 146 L177 471 L16 453 L16 438 C73 432 72 425 72 363 L72 143 C72 21 130 -9 206 -9 C252 -9 305 18 338 54 C338 54 327 71 327 71 L327 71 Z M149 541 L178 541 L418 675 L322 704 L149 541 Z " />
<glyph glyph-name="ucircumflex" unicode="&#xfb;" horiz-adv-x="543" d="M472 88 L472 471 L318 453 L318 438 C368 433 365 423 365 362 L365 9 C365 9 366 -12 392 -8 L523 15 L523 30 C481 35 472 40 472 88 L472 88 Z M327 71 C310 57 290 53 270 53 C212 53 177 81 177 146 L177 471 L16 453 L16 438 C73 432 72 425 72 363 L72 143 C72 21 130 -9 206 -9 C252 -9 305 18 338 54 C338 54 327 71 327 71 L327 71 Z M389 517 L420 517 L271 704 L122 517 L152 517 L271 606 L389 517 Z " />
<glyph glyph-name="udieresis" unicode="&#xfc;" horiz-adv-x="543" d="M353 563 C382 563 405 587 405 616 C405 645 382 669 353 669 C323 669 300 645 300 616 C300 587 323 563 353 563 L353 563 Z M179 563 C208 563 232 587 232 616 C232 645 208 669 179 669 C149 669 126 645 126 616 C126 587 149 563 179 563 L179 563 Z M472 88 L472 471 L318 453 L318 438 C368 433 365 423 365 362 L365 9 C365 9 366 -12 392 -8 L523 15 L523 30 C481 35 472 40 472 88 L472 88 Z M327 71 C310 57 290 53 270 53 C212 53 177 81 177 146 L177 471 L16 453 L16 438 C73 432 72 425 72 363 L72 143 C72 21 130 -9 206 -9 C252 -9 305 18 338 54 C338 54 327 71 327 71 L327 71 Z " />
<glyph glyph-name="yacute" unicode="&#xfd;" horiz-adv-x="536" d="M326 462 L326 448 C427 449 392 332 381 301 L392 290 C453 443 493 448 521 448 L521 462 L326 462 Z M327 116 L203 381 C203 381 173 448 231 448 L231 462 L10 462 L10 448 C25 447 58 445 76 403 C76 403 221 87 265 -9 L280 -9 L327 116 Z M222 -121 C208 -161 185 -170 181 -157 C177 -142 167 -127 151 -120 C120 -106 84 -120 70 -151 C57 -182 70 -218 101 -232 C122 -242 153 -237 169 -224 C186 -210 214 -185 237 -122 L222 -121 Z M133 541 L162 541 L402 675 L306 704 L133 541 Z " />
<glyph glyph-name="thorn" unicode="&#xfe;" horiz-adv-x="579" d="M534 227 C534 375 446 471 322 471 C273 471 203 448 172 392 L172 731 L17 697 L17 682 C57 671 67 662 67 627 L67 -163 C67 -214 65 -239 27 -250 L27 -265 L213 -265 L213 -250 C178 -241 172 -219 172 -163 L172 26 C198 8 232 -4 270 -7 L270 8 C221 17 179 56 172 140 L172 325 C178 390 217 438 281 438 C365 438 410 375 410 216 C410 79 374 20 316 8 L316 -8 C442 0 534 78 534 227 L534 227 Z " />
<glyph glyph-name="ydieresis" unicode="&#xff;" horiz-adv-x="536" d="M354 563 C383 563 407 587 407 616 C407 645 383 669 354 669 C325 669 302 645 302 616 C302 587 325 563 354 563 L354 563 Z M180 563 C210 563 233 587 233 616 C233 645 210 669 180 669 C151 669 128 645 128 616 C128 587 151 563 180 563 L180 563 Z M326 462 L326 448 C427 449 392 332 381 301 L392 290 C453 443 493 448 521 448 L521 462 L326 462 Z M327 116 L203 381 C203 381 173 448 231 448 L231 462 L10 462 L10 448 C25 447 58 445 76 403 C76 403 221 87 265 -9 L280 -9 L327 116 Z M222 -121 C208 -161 185 -170 181 -157 C177 -142 167 -127 151 -120 C120 -106 84 -120 70 -151 C57 -182 70 -218 101 -232 C122 -242 153 -237 169 -224 C186 -210 214 -185 237 -122 L222 -121 Z " />
<glyph glyph-name="Abreve" unicode="&#x102;" horiz-adv-x="698" d="M600 92 C600 92 534 263 350 704 L336 704 L279 552 L412 220 L154 220 C72 15 47 16 17 15 L17 0 L251 0 L251 15 C103 9 155 165 169 205 L417 205 L449 125 C461 97 492 15 426 15 L426 0 L683 0 L683 15 C656 17 634 12 600 92 L600 92 Z M462 910 C462 873 439 832 345 832 C247 832 225 873 225 910 L211 910 C211 834 248 766 345 766 C440 766 475 834 475 910 L462 910 L462 910 Z " />
<glyph glyph-name="abreve" unicode="&#x103;" horiz-adv-x="508" d="M156 311 C179 328 185 360 168 383 C160 395 148 401 135 403 C130 404 131 413 146 425 L139 439 C100 414 88 391 80 378 C72 362 73 340 84 323 C101 300 133 295 156 311 L156 311 Z M452 45 C405 45 406 111 406 111 L406 271 C406 389 373 471 253 471 C253 471 218 473 181 460 L187 447 C252 466 298 412 298 318 L298 258 C125 214 41 198 41 93 C41 -10 155 -9 155 -9 C202 -9 243 12 270 36 C269 37 260 51 259 53 C249 47 236 44 221 44 C158 44 149 101 149 116 C149 172 191 217 298 242 L298 80 C298 -11 391 -9 391 -9 C449 -9 488 29 496 60 L481 66 C475 45 452 45 452 45 L452 45 Z M380 704 C380 667 357 626 263 626 C165 626 143 667 143 704 L129 704 C129 628 166 560 263 560 C358 560 393 628 393 704 L380 704 Z " />
<glyph glyph-name="Aogonek" unicode="&#x104;" horiz-adv-x="698" d="M614 0 L683 0 L683 15 C656 17 634 12 600 92 C600 92 534 263 350 704 L336 704 L279 552 L412 220 L154 220 C72 15 47 16 17 15 L17 0 L251 0 L251 15 C103 9 155 165 169 205 L417 205 L449 125 C461 97 492 15 426 15 L426 0 L575 0 C511 -30 471 -74 490 -140 C490 -140 507 -197 593 -185 C648 -178 656 -142 656 -106 L642 -106 C642 -126 628 -146 606 -148 C606 -148 555 -156 544 -110 C535 -75 563 -30 614 0 L614 0 Z " />
<glyph glyph-name="aogonek" unicode="&#x105;" horiz-adv-x="508" d="M156 311 C179 328 185 360 168 383 C160 395 148 401 135 403 C130 404 131 413 146 425 L139 439 C100 414 88 391 80 378 C72 362 73 340 84 323 C101 300 133 295 156 311 L156 311 Z M412 -7 C458 1 489 33 496 60 L481 66 C475 45 452 45 452 45 C405 45 406 111 406 111 L406 271 C406 389 373 471 253 471 C253 471 213 471 181 460 L187 447 C252 466 298 412 298 318 L298 258 C125 214 41 198 41 93 C41 -10 155 -9 155 -9 C202 -9 243 12 270 36 L259 53 C249 47 236 44 221 44 C158 44 149 101 149 116 C149 172 191 217 298 242 L298 80 C298 17 343 -1 370 -7 C315 -37 283 -79 301 -139 C301 -139 318 -196 404 -184 C459 -177 467 -141 467 -105 L453 -105 C453 -125 439 -145 417 -147 C417 -147 366 -155 355 -109 C346 -77 368 -37 412 -7 L412 -7 Z " />
<glyph glyph-name="Cacute" unicode="&#x106;" horiz-adv-x="681" d="M423 8 L423 -8 C510 -5 572 10 637 53 L625 209 L610 209 C592 97 516 21 423 8 L423 8 Z M610 496 L625 496 L637 652 C582 697 509 710 423 712 L423 696 C509 686 572 625 610 496 L610 496 Z M41 352 C41 154 162 8 353 -7 L353 8 C262 21 195 95 195 352 C195 608 260 683 353 696 L353 711 C162 696 41 552 41 352 L41 352 Z M224 735 L253 735 L493 869 L397 898 L224 735 Z " />
<glyph glyph-name="cacute" unicode="&#x107;" horiz-adv-x="491" d="M366 430 C353 425 342 415 336 400 C324 372 339 339 368 328 C397 316 429 332 441 360 C449 380 443 404 430 418 C419 432 388 463 320 469 L320 454 C357 449 373 432 366 430 L366 430 Z M444 128 C424 91 353 54 292 63 C222 73 155 125 155 246 C155 396 228 442 274 453 L274 469 C126 458 45 344 45 231 C45 99 143 -9 264 -9 C388 -9 444 71 456 121 L444 128 Z M130 541 L159 541 L399 675 L303 704 L130 541 Z " />
<glyph glyph-name="Ccaron" unicode="&#x10c;" horiz-adv-x="681" d="M423 8 L423 -8 C510 -5 572 10 637 53 L625 209 L610 209 C592 97 516 21 423 8 L423 8 Z M610 496 L625 496 L637 652 C582 697 509 710 423 712 L423 696 C509 686 572 625 610 496 L610 496 Z M41 352 C41 154 162 8 353 -7 L353 8 C262 21 195 95 195 352 C195 608 260 683 353 696 L353 711 C162 696 41 552 41 352 L41 352 Z M365 833 L246 922 L216 922 L365 735 L514 922 L483 922 L365 833 Z " />
<glyph glyph-name="ccaron" unicode="&#x10d;" horiz-adv-x="491" d="M366 430 C353 425 342 415 336 400 C324 372 339 339 368 328 C397 316 429 332 441 360 C449 380 443 404 430 418 C419 432 388 463 320 469 L320 454 C357 449 373 432 366 430 L366 430 Z M444 128 C424 91 353 54 292 63 C222 73 155 125 155 246 C155 396 228 442 274 453 L274 469 C126 458 45 344 45 231 C45 99 143 -9 264 -9 C388 -9 444 71 456 121 L444 128 Z M265 615 L146 704 L116 704 L265 517 L414 704 L383 704 L265 615 Z " />
<glyph glyph-name="Dcaron" unicode="&#x10e;" horiz-adv-x="768" d="M307 703 L307 688 C409 684 541 642 541 350 C541 54 409 19 307 15 L307 0 C497 5 689 66 689 350 C689 630 497 698 307 703 L307 703 Z M42 704 L42 689 C85 689 113 637 113 576 L113 128 C113 61 84 15 42 15 L42 0 L237 0 L237 704 L42 704 Z M299 833 L180 922 L150 922 L299 735 L448 922 L417 922 L299 833 Z " />
<glyph glyph-name="dcaron" unicode="&#x10f;" horiz-adv-x="695" d="M501 87 L501 742 L344 710 L344 695 C385 683 395 672 395 637 L395 437 C369 454 336 465 298 469 L298 453 C349 443 395 397 395 300 L395 142 C395 72 349 23 282 23 C198 23 157 89 157 249 C157 386 194 442 252 453 L252 470 C126 462 34 387 34 237 C34 88 122 -9 245 -9 C294 -9 364 13 395 68 L395 10 C395 10 395 -13 423 -8 L552 12 L552 27 C511 29 501 38 501 87 L501 87 Z M656 704 C656 573 536 504 536 504 L526 517 C526 517 572 555 572 704 L656 704 Z " />
<glyph glyph-name="Dcroat" unicode="&#x110;" horiz-adv-x="739" d="M233 342 L377 342 L377 361 L233 361 L233 704 L37 704 L37 689 C81 689 108 638 108 576 L108 361 L26 361 L26 342 L108 342 L108 128 C108 60 80 15 37 15 L37 0 L233 0 L233 342 Z M685 350 C685 630 493 698 303 703 L303 689 C405 684 537 642 537 350 C537 54 404 19 303 15 L303 0 C493 5 685 66 685 350 L685 350 Z " />
<glyph glyph-name="dcroat" unicode="&#x111;" horiz-adv-x="600" d="M286 564 L395 564 L395 437 C369 454 336 465 298 469 L298 453 C349 443 395 397 395 300 L395 142 C395 72 349 23 282 23 C198 23 157 89 157 249 C157 386 194 442 252 453 L252 470 C126 462 34 387 34 237 C34 88 122 -9 245 -9 C294 -9 364 13 395 68 L395 10 C395 10 395 -13 423 -8 L552 12 L552 27 C511 29 501 38 501 87 L501 564 L601 564 L601 582 L501 582 L501 742 L344 710 L344 695 C385 683 395 672 395 637 L395 582 L286 582 L286 564 Z " />
<glyph glyph-name="Eogonek" unicode="&#x118;" horiz-adv-x="653" d="M534 519 L549 519 L549 704 L280 704 L280 688 C368 684 521 662 534 519 L534 519 Z M410 246 L425 246 L425 466 L410 466 C400 383 327 368 280 365 L280 346 C327 343 400 329 410 246 L410 246 Z M556 -108 C556 -128 542 -148 520 -150 C520 -150 469 -158 458 -112 C449 -76 477 -30 531 0 L562 0 L562 213 L547 213 C522 46 369 21 280 16 L280 0 L493 0 C426 -31 385 -75 404 -142 C404 -142 421 -199 507 -187 C562 -180 570 -144 570 -108 L556 -108 Z M30 689 C74 689 85 644 85 582 L85 127 C85 59 72 15 30 15 L30 0 L209 0 L209 704 L30 704 L30 689 Z " />
<glyph glyph-name="eogonek" unicode="&#x119;" horiz-adv-x="508" d="M282 59 C209 71 154 123 148 240 L467 240 C467 387 402 461 283 469 L283 454 C327 437 363 368 363 255 L148 255 C148 351 187 436 237 454 L237 469 C119 457 37 362 37 228 C37 107 120 0 241 -8 C185 -38 151 -81 169 -142 C169 -142 186 -199 272 -187 C327 -180 335 -144 335 -108 L321 -108 C321 -128 307 -148 285 -150 C285 -150 234 -158 223 -112 C215 -80 237 -37 284 -7 C389 5 439 74 450 120 L436 127 C414 79 339 50 282 59 L282 59 Z " />
<glyph glyph-name="Ecaron" unicode="&#x11a;" horiz-adv-x="653" d="M562 213 L547 213 C522 46 369 21 280 16 L280 0 L562 0 L562 213 Z M209 704 L30 704 L30 689 C74 689 85 644 85 582 L85 127 C85 59 72 15 30 15 L30 0 L209 0 L209 704 Z M534 519 L549 519 L549 704 L280 704 L280 688 C368 684 521 662 534 519 L534 519 Z M410 246 L425 246 L425 466 L410 466 C400 383 327 368 280 365 L280 346 C327 343 400 329 410 246 L410 246 Z M311 833 L192 922 L162 922 L311 735 L460 922 L429 922 L311 833 Z " />
<glyph glyph-name="ecaron" unicode="&#x11b;" horiz-adv-x="508" d="M282 59 C209 71 154 123 148 240 L467 240 C467 387 402 461 283 469 L283 454 C327 437 363 368 363 255 L148 255 C148 351 187 436 237 454 L237 469 C119 457 37 362 37 228 C37 103 126 -9 254 -9 C380 -9 437 70 450 120 L436 127 C414 79 339 50 282 59 L282 59 Z M258 615 L139 704 L109 704 L258 517 L407 704 L376 704 L258 615 Z " />
<glyph glyph-name="dotlessi" unicode="&#x131;" horiz-adv-x="263" d="M225 15 C189 25 184 52 184 107 L184 471 L28 437 L28 422 C69 405 79 391 79 357 L79 107 C79 56 77 27 39 15 L39 0 L225 0 L225 15 L225 15 Z " />
<glyph glyph-name="Lacute" unicode="&#x139;" horiz-adv-x="640" d="M578 217 L563 217 C543 49 394 21 301 16 L301 0 L578 0 L578 217 Z M231 600 C231 672 271 689 314 689 L314 704 L37 704 L37 689 C80 689 108 663 108 602 L108 124 C108 56 88 15 45 15 L45 0 L231 0 L231 600 Z M152 735 L181 735 L421 869 L325 898 L152 735 Z " />
<glyph glyph-name="lacute" unicode="&#x13a;" horiz-adv-x="265" d="M220 15 C184 24 179 52 179 107 L179 742 L23 710 L23 695 C64 684 73 669 73 634 L73 107 C73 56 71 26 33 15 L33 0 L220 0 L220 15 Z M-16 764 L13 764 L253 898 L157 927 L-16 764 Z " />
<glyph glyph-name="Lcaron" unicode="&#x13d;" horiz-adv-x="637" d="M349 704 C349 555 303 517 303 517 L314 504 C314 504 433 573 433 704 L349 704 Z M578 217 L563 217 C543 49 394 21 301 16 L301 0 L578 0 L578 217 Z M231 600 C231 672 271 689 314 689 L314 704 L37 704 L37 689 C80 689 108 663 108 602 L108 124 C108 56 88 15 45 15 L45 0 L231 0 L231 600 Z " />
<glyph glyph-name="lcaron" unicode="&#x13e;" horiz-adv-x="392" d="M220 15 C184 24 179 52 179 107 L179 742 L23 710 L23 695 C64 684 73 669 73 634 L73 107 C73 56 71 26 33 15 L33 0 L220 0 L220 15 Z M252 704 C252 555 206 517 206 517 L217 504 C217 504 336 573 336 704 L252 704 Z " />
<glyph glyph-name="Lslash" unicode="&#x141;" horiz-adv-x="646" d="M602 217 L587 217 C587 170 555 25 325 15 L325 0 L602 0 L602 217 Z M255 354 L454 466 L454 485 L255 373 L255 600 C255 673 294 689 338 689 L338 704 L60 704 L60 689 C103 689 131 664 131 602 L131 303 L10 235 L10 216 L131 284 L131 130 C131 62 110 15 68 15 L68 0 L255 0 L255 354 Z " />
<glyph glyph-name="lslash" unicode="&#x142;" horiz-adv-x="312" d="M12 266 L102 322 L102 107 C102 56 100 26 62 15 L62 0 L248 0 L248 15 C213 24 208 52 208 107 L208 390 L295 445 L295 464 L208 409 L208 746 L52 711 L52 697 C92 685 102 671 102 636 L102 341 L12 285 L12 266 Z " />
<glyph glyph-name="Nacute" unicode="&#x143;" horiz-adv-x="840" d="M184 252 L169 252 C169 207 169 15 21 15 L21 0 L318 0 L318 15 C183 15 184 208 184 252 L184 252 Z M10 704 L10 689 C36 687 65 696 129 616 L615 0 L657 0 L657 158 L225 704 L10 704 Z M508 689 C643 690 642 499 642 452 L657 452 C657 499 655 690 803 689 L803 704 L508 704 L508 689 Z M273 735 L302 735 L542 869 L446 898 L273 735 Z " />
<glyph glyph-name="nacute" unicode="&#x144;" horiz-adv-x="519" d="M166 106 L166 471 L10 436 L10 422 C51 405 60 393 60 358 L60 106 C60 55 58 26 20 15 L20 0 L207 0 L207 15 C172 24 166 51 166 106 L166 106 Z M457 107 L457 315 C457 436 405 471 325 471 C281 471 233 445 200 411 L212 393 C226 403 242 410 259 410 C317 410 351 370 351 312 L351 107 C351 56 349 25 311 14 L311 0 L498 0 L498 14 C462 23 457 52 457 107 L457 107 Z M144 541 L173 541 L413 675 L317 704 L144 541 Z " />
<glyph glyph-name="Ncaron" unicode="&#x147;" horiz-adv-x="840" d="M184 252 L169 252 C169 207 169 15 21 15 L21 0 L318 0 L318 15 C183 15 184 208 184 252 L184 252 Z M10 704 L10 689 C36 687 65 696 129 616 L615 0 L657 0 L657 158 L225 704 L10 704 Z M508 689 C643 690 642 499 642 452 L657 452 C657 499 655 690 803 689 L803 704 L508 704 L508 689 Z M404 833 L285 922 L255 922 L404 735 L553 922 L522 922 L404 833 Z " />
<glyph glyph-name="ncaron" unicode="&#x148;" horiz-adv-x="519" d="M166 106 L166 471 L10 436 L10 422 C51 405 60 393 60 358 L60 106 C60 55 58 26 20 15 L20 0 L207 0 L207 15 C172 24 166 51 166 106 L166 106 Z M457 107 L457 315 C457 436 405 471 325 471 C281 471 233 445 200 411 L212 393 C226 403 242 410 259 410 C317 410 351 370 351 312 L351 107 C351 56 349 25 311 14 L311 0 L498 0 L498 14 C462 23 457 52 457 107 L457 107 Z M262 615 L143 704 L113 704 L262 517 L411 704 L380 704 L262 615 Z " />
<glyph glyph-name="Ohungarumlaut" unicode="&#x150;" horiz-adv-x="775" d="M184 347 C184 593 242 680 341 695 L341 711 C145 694 41 534 41 347 C41 159 145 9 341 -7 L341 8 C242 22 184 101 184 347 L184 347 Z M711 347 C711 534 608 694 411 711 L411 695 C509 680 566 594 566 347 C566 100 509 22 411 8 L411 -7 C608 8 711 159 711 347 L711 347 Z M380 735 L409 735 L649 869 L550 899 L380 735 Z M205 735 L234 735 L474 869 L375 899 L205 735 Z " />
<glyph glyph-name="ohungarumlaut" unicode="&#x151;" horiz-adv-x="548" d="M510 231 C510 356 436 459 298 469 L298 454 C357 444 384 392 384 231 C384 69 357 17 298 7 L298 -8 C436 2 510 106 510 231 L510 231 Z M166 231 C166 392 193 444 252 454 L252 469 C115 459 41 356 41 231 C41 106 115 2 252 -8 L252 7 C193 17 166 69 166 231 L166 231 Z M275 541 L304 541 L544 675 L445 705 L275 541 Z M100 541 L129 541 L369 675 L270 705 L100 541 Z " />
<glyph glyph-name="OE" unicode="&#x152;" horiz-adv-x="966" d="M185 346 C185 592 227 679 323 695 L323 710 C128 694 43 534 43 346 C43 158 128 8 323 -8 L323 8 C227 21 185 99 185 346 L185 346 Z M654 16 L654 0 L902 0 L902 213 L887 213 C865 48 735 21 654 16 L654 16 Z M750 245 L765 245 L765 465 L750 465 C745 388 692 368 654 363 L654 347 C691 342 745 322 750 245 L750 245 Z M874 519 L889 519 L889 704 L654 704 L654 688 C732 684 854 660 874 519 L874 519 Z M585 704 L427 704 C414 706 404 708 394 710 L394 695 C430 689 461 667 461 581 L461 118 C461 36 430 14 394 8 L394 -7 C405 -5 416 -3 430 0 L585 0 L585 704 Z " />
<glyph glyph-name="oe" unicode="&#x153;" horiz-adv-x="784" d="M40 229 C40 106 97 3 231 -8 L231 8 C181 19 165 71 165 229 C165 388 181 442 231 454 L231 470 C97 459 40 354 40 229 L40 229 Z M578 61 C504 72 465 123 462 236 L743 236 C743 385 691 461 581 470 L581 454 C620 437 646 368 646 251 L462 251 C462 349 487 435 534 454 L534 470 C487 463 447 434 412 391 C383 433 340 464 277 470 L277 454 C326 443 343 388 343 229 C343 70 327 18 277 8 L277 -8 C339 -3 378 24 411 67 C449 21 495 -9 559 -9 C680 -9 716 72 730 120 L714 128 C693 92 636 52 578 61 L578 61 Z " />
<glyph glyph-name="Racute" unicode="&#x154;" horiz-adv-x="687" d="M567 108 C519 308 442 333 377 331 C490 341 567 384 567 513 C567 669 457 700 282 703 L282 689 C366 686 430 668 430 513 C430 359 368 340 282 337 L282 320 C317 315 376 296 399 218 C463 1 442 1 595 0 L679 0 L679 15 C653 17 587 32 567 108 L567 108 Z M212 704 L24 704 L24 689 C68 689 91 668 91 606 L91 119 C91 43 67 15 24 15 L24 0 L281 0 L281 15 C239 15 212 44 212 113 L212 704 Z M171 735 L200 735 L440 869 L344 898 L171 735 Z " />
<glyph glyph-name="racute" unicode="&#x155;" horiz-adv-x="425" d="M171 471 L14 437 L14 422 C55 406 64 391 64 357 L64 107 C64 56 62 27 24 15 L24 0 L212 0 L212 15 C176 25 171 52 171 107 L171 471 Z M297 467 C273 460 237 448 198 399 L207 386 C234 410 259 412 257 403 C256 387 262 372 274 359 C301 334 341 335 366 360 C391 385 391 426 366 451 C348 468 316 472 297 467 L297 467 Z M72 541 L101 541 L341 675 L245 704 L72 541 Z " />
<glyph glyph-name="Rcaron" unicode="&#x158;" horiz-adv-x="687" d="M567 108 C519 308 442 333 377 331 C490 341 567 384 567 513 C567 669 457 700 282 703 L282 689 C366 686 430 668 430 513 C430 359 368 340 282 337 L282 320 C317 315 376 296 399 218 C463 1 442 1 595 0 L679 0 L679 15 C653 17 587 32 567 108 L567 108 Z M212 704 L24 704 L24 689 C68 689 91 668 91 606 L91 119 C91 43 67 15 24 15 L24 0 L281 0 L281 15 C239 15 212 44 212 113 L212 704 Z M282 833 L163 922 L133 922 L282 735 L431 922 L400 922 L282 833 Z " />
<glyph glyph-name="rcaron" unicode="&#x159;" horiz-adv-x="397" d="M171 471 L14 437 L14 422 C55 406 64 391 64 357 L64 107 C64 56 62 27 24 15 L24 0 L212 0 L212 15 C176 25 171 52 171 107 L171 471 Z M297 467 C273 460 237 448 198 399 L207 386 C234 410 259 412 257 403 C256 387 262 372 274 359 C301 334 341 335 366 360 C391 385 391 426 366 451 C348 468 316 472 297 467 L297 467 Z M183 616 L64 705 L34 705 L183 518 L332 705 L301 705 L183 616 Z " />
<glyph glyph-name="Sacute" unicode="&#x15a;" horiz-adv-x="586" d="M60 242 L45 242 L45 50 C45 50 112 -1 266 -8 L266 8 C122 26 76 158 60 242 L60 242 Z M396 365 L237 471 C113 551 145 670 230 696 L230 711 C108 700 67 636 67 636 C-13 522 60 427 178 351 L338 249 C446 171 435 33 336 7 L336 -8 C466 3 504 73 504 73 C568 168 529 278 396 365 L396 365 Z M493 497 L508 497 L508 665 C508 665 436 705 300 712 L300 696 C435 680 479 567 493 497 L493 497 Z M142 735 L171 735 L411 869 L315 898 L142 735 Z " />
<glyph glyph-name="sacute" unicode="&#x15b;" horiz-adv-x="435" d="M362 440 C362 440 320 466 222 470 L222 454 C312 442 339 366 348 323 L362 323 L362 440 Z M289 252 L188 315 C110 364 116 438 176 453 L176 469 C93 462 63 417 63 417 C16 347 40 276 136 215 L237 154 C306 109 313 25 248 9 L248 -8 C328 0 359 42 359 42 C408 112 378 197 289 252 L289 252 Z M47 33 C47 33 97 -3 202 -8 L202 8 C98 20 73 116 62 164 L47 164 L47 33 Z M99 541 L128 541 L368 675 L272 704 L99 541 Z " />
<glyph glyph-name="Scedilla" unicode="&#x15e;" horiz-adv-x="586" d="M60 242 L45 242 L45 50 C45 50 112 -1 266 -8 L266 8 C122 26 76 158 60 242 L60 242 Z M396 365 L237 471 C113 551 145 670 230 696 L230 711 C108 700 67 636 67 636 C-13 522 60 427 178 351 L338 249 C446 171 435 33 336 7 L336 -8 C466 3 504 73 504 73 C568 168 529 278 396 365 L396 365 Z M493 497 L508 497 L508 665 C508 665 436 705 300 712 L300 696 C435 680 479 567 493 497 L493 497 Z M257 -68 L249 -92 C329 -77 350 -139 350 -161 C351 -195 329 -217 296 -217 C267 -218 262 -210 264 -208 C268 -206 272 -203 273 -196 C277 -181 269 -167 254 -162 C239 -158 224 -166 219 -181 C217 -191 221 -203 227 -209 C234 -215 257 -231 296 -231 C329 -232 391 -217 399 -148 C406 -97 361 -36 257 -68 L257 -68 Z " />
<glyph glyph-name="scedilla" unicode="&#x15f;" horiz-adv-x="435" d="M362 440 C362 440 320 466 222 470 L222 454 C312 442 339 366 348 323 L362 323 L362 440 Z M289 252 L188 315 C110 364 116 438 176 453 L176 469 C93 462 63 417 63 417 C16 347 40 276 136 215 L237 154 C306 109 313 25 248 9 L248 -8 C328 0 359 42 359 42 C408 112 378 197 289 252 L289 252 Z M47 33 C47 33 97 -3 202 -8 L202 8 C98 20 73 116 62 164 L47 164 L47 33 Z M175 -68 L167 -92 C247 -77 268 -139 268 -161 C269 -195 247 -217 214 -217 C185 -218 180 -210 182 -208 C186 -206 190 -203 191 -196 C195 -181 187 -167 172 -162 C157 -158 142 -166 137 -181 C135 -191 139 -203 145 -209 C152 -215 175 -231 214 -231 C247 -232 309 -217 317 -148 C324 -97 279 -36 175 -68 L175 -68 Z " />
<glyph glyph-name="Scaron" unicode="&#x160;" horiz-adv-x="586" d="M60 242 L45 242 L45 50 C45 50 112 -1 266 -8 L266 8 C122 26 76 158 60 242 L60 242 Z M396 365 L237 471 C113 551 145 670 230 696 L230 711 C108 700 67 636 67 636 C-13 522 60 427 178 351 L338 249 C446 171 435 33 336 7 L336 -8 C466 3 504 73 504 73 C568 168 529 278 396 365 L396 365 Z M493 497 L508 497 L508 665 C508 665 436 705 300 712 L300 696 C435 680 479 567 493 497 L493 497 Z M278 833 L159 922 L129 922 L278 735 L427 922 L396 922 L278 833 Z " />
<glyph glyph-name="scaron" unicode="&#x161;" horiz-adv-x="435" d="M205 593 L86 682 L56 682 L205 495 L354 682 L323 682 L205 593 Z M362 440 C362 440 320 466 222 470 L222 454 C312 442 339 366 348 323 L362 323 L362 440 Z M289 252 L188 315 C110 364 116 438 176 453 L176 469 C93 462 63 417 63 417 C16 347 40 276 136 215 L237 154 C306 109 313 25 248 9 L248 -8 C328 0 359 42 359 42 C408 112 378 197 289 252 L289 252 Z M47 33 C47 33 97 -3 202 -8 L202 8 C98 20 73 116 62 164 L47 164 L47 33 Z " />
<glyph glyph-name="uni0162" unicode="&#x162;" horiz-adv-x="676" d="M19 704 L19 515 L34 515 C40 686 221 689 236 689 L275 689 L275 109 C275 42 238 15 196 15 L196 0 L476 0 L476 15 C434 15 397 42 397 109 L397 689 L436 689 C443 689 633 686 639 515 L654 515 L654 704 L19 704 Z M313 -63 L305 -87 C385 -72 406 -134 406 -156 C407 -190 385 -212 352 -212 C323 -213 318 -205 320 -203 C324 -201 328 -198 329 -191 C333 -176 325 -162 310 -157 C295 -153 280 -161 275 -176 C273 -186 277 -198 283 -204 C290 -210 313 -226 352 -226 C385 -227 447 -212 455 -143 C462 -92 417 -31 313 -63 L313 -63 Z " />
<glyph glyph-name="uni0163" unicode="&#x163;" horiz-adv-x="335" d="M311 90 C303 72 280 51 251 51 C202 51 176 79 176 147 L176 447 L291 447 L295 462 L176 462 L176 617 L70 600 L70 462 L17 462 L20 447 L70 447 L70 144 C70 23 116 -9 191 -9 C254 -9 307 37 324 82 L311 90 Z M133 -63 L125 -87 C205 -72 226 -134 226 -156 C227 -190 205 -212 172 -212 C143 -213 138 -205 140 -203 C144 -201 148 -198 149 -191 C153 -176 145 -162 130 -157 C115 -153 100 -161 95 -176 C93 -186 97 -198 103 -204 C110 -210 133 -226 172 -226 C205 -227 267 -212 275 -143 C282 -92 237 -31 133 -63 L133 -63 Z " />
<glyph glyph-name="Tcaron" unicode="&#x164;" horiz-adv-x="676" d="M19 704 L19 515 L34 515 C40 686 221 689 236 689 L275 689 L275 109 C275 42 238 15 196 15 L196 0 L476 0 L476 15 C434 15 397 42 397 109 L397 689 L436 689 C443 689 633 686 639 515 L654 515 L654 704 L19 704 Z M338 833 L219 922 L189 922 L338 735 L487 922 L456 922 L338 833 Z " />
<glyph glyph-name="tcaron" unicode="&#x165;" horiz-adv-x="357" d="M311 90 C303 72 280 51 251 51 C202 51 176 79 176 147 L176 447 L291 447 L295 462 L176 462 L176 617 L70 600 L70 462 L17 462 L20 447 L70 447 L70 144 C70 23 116 -9 191 -9 C254 -9 307 37 324 82 L311 90 Z M248 704 C248 555 201 517 201 517 L212 504 C212 504 332 573 332 704 L248 704 Z " />
<glyph glyph-name="Uring" unicode="&#x16e;" horiz-adv-x="752" d="M389 43 C287 43 214 114 214 235 L214 601 C214 676 257 689 300 689 L300 704 L17 704 L17 689 C61 689 92 666 92 601 L92 243 C92 80 199 -9 332 -9 C438 -9 577 41 577 238 L562 238 C562 110 478 43 389 43 L389 43 Z M435 689 C562 689 562 569 562 522 L577 522 C577 569 574 689 715 689 L715 704 L435 704 L435 689 Z M298 880 C298 913 324 939 356 939 C389 939 414 913 414 880 C414 848 389 822 356 822 C324 822 298 848 298 880 L298 880 Z M261 880 C261 829 304 786 356 786 C408 786 451 829 451 880 C451 933 408 975 356 975 C304 975 261 933 261 880 L261 880 Z " />
<glyph glyph-name="uring" unicode="&#x16f;" horiz-adv-x="543" d="M472 88 L472 471 L318 453 L318 438 C368 433 365 423 365 362 L365 9 C365 9 366 -12 392 -8 L523 15 L523 30 C481 35 472 40 472 88 L472 88 Z M327 71 C310 57 290 53 270 53 C212 53 177 81 177 146 L177 471 L16 453 L16 438 C73 432 72 425 72 363 L72 143 C72 21 130 -9 206 -9 C252 -9 305 18 338 54 C338 54 327 71 327 71 L327 71 Z M208 615 C208 648 234 674 266 674 C299 674 324 648 324 615 C324 583 299 557 266 557 C234 557 208 583 208 615 L208 615 Z M171 615 C171 564 214 521 266 521 C318 521 361 564 361 615 C361 668 318 710 266 710 C214 710 171 668 171 615 L171 615 Z " />
<glyph glyph-name="Uhungarumlaut" unicode="&#x170;" horiz-adv-x="752" d="M389 43 C287 43 214 114 214 235 L214 601 C214 676 257 689 300 689 L300 704 L17 704 L17 689 C61 689 92 666 92 601 L92 243 C92 80 199 -9 332 -9 C438 -9 577 41 577 238 L562 238 C562 110 478 43 389 43 L389 43 Z M435 689 C562 689 562 569 562 522 L577 522 C577 569 574 689 715 689 L715 704 L435 704 L435 689 Z M383 735 L412 735 L652 869 L553 899 L383 735 Z M208 735 L237 735 L477 869 L378 899 L208 735 Z " />
<glyph glyph-name="uhungarumlaut" unicode="&#x171;" horiz-adv-x="543" d="M472 88 L472 471 L318 453 L318 438 C368 433 365 423 365 362 L365 9 C365 9 366 -12 392 -8 L523 15 L523 30 C481 35 472 40 472 88 L472 88 Z M327 71 C310 57 290 53 270 53 C212 53 177 81 177 146 L177 471 L16 453 L16 438 C73 432 72 425 72 363 L72 143 C72 21 130 -9 206 -9 C252 -9 305 18 338 54 C338 54 327 71 327 71 L327 71 Z M265 541 L294 541 L534 675 L435 705 L265 541 Z M90 541 L119 541 L359 675 L260 705 L90 541 Z " />
<glyph glyph-name="Ydieresis" unicode="&#x178;" horiz-adv-x="732" d="M401 830 C401 801 425 778 453 778 C483 778 507 801 507 830 C507 859 483 883 453 883 C425 883 401 859 401 830 L401 830 Z M227 830 C227 801 251 778 280 778 C309 778 332 801 332 830 C332 859 309 883 280 883 C251 883 227 859 227 830 L227 830 Z M426 117 L426 324 L274 576 C206 691 273 690 297 690 L297 704 L10 704 L10 690 C38 689 71 688 115 611 C115 611 160 542 307 282 L307 117 C307 42 269 15 227 15 L227 0 L507 0 L507 15 C465 15 426 42 426 117 L426 117 Z M440 689 C580 689 505 518 488 483 L498 470 C610 689 684 689 719 689 L719 704 L440 704 L440 689 Z " />
<glyph glyph-name="Zacute" unicode="&#x179;" horiz-adv-x="581" d="M67 704 L49 502 L67 502 C99 621 204 689 354 689 L364 704 L67 704 Z M251 15 L243 0 L520 0 L544 233 L527 233 C504 140 411 16 251 15 L251 15 Z M555 704 L421 704 L25 0 L184 0 L555 704 Z M168 735 L197 735 L437 869 L341 898 L168 735 Z " />
<glyph glyph-name="zacute" unicode="&#x17a;" horiz-adv-x="448" d="M57 462 L52 330 L68 330 C85 400 138 438 242 446 L251 462 L57 462 Z M410 462 L297 462 L30 0 L157 0 L410 462 Z M212 17 L203 0 L385 0 L394 152 L378 152 C366 95 326 30 212 17 L212 17 Z M117 541 L146 541 L386 675 L290 704 L117 541 Z " />
<glyph glyph-name="Zdotaccent" unicode="&#x17b;" horiz-adv-x="581" d="M67 704 L49 502 L67 502 C99 621 204 689 354 689 L364 704 L67 704 Z M251 15 L243 0 L520 0 L544 233 L527 233 C504 140 411 16 251 15 L251 15 Z M555 704 L421 704 L25 0 L184 0 L555 704 Z M315 790 C346 790 371 815 371 846 C371 877 346 902 315 902 C284 902 258 877 258 846 C258 815 284 790 315 790 L315 790 Z " />
<glyph glyph-name="zdotaccent" unicode="&#x17c;" horiz-adv-x="448" d="M57 462 L52 330 L68 330 C85 400 138 438 242 446 L251 462 L57 462 Z M410 462 L297 462 L30 0 L157 0 L410 462 Z M212 17 L203 0 L385 0 L394 152 L378 152 C366 95 326 30 212 17 L212 17 Z M231 570 C262 570 287 595 287 626 C287 657 262 682 231 682 C200 682 174 657 174 626 C174 595 200 570 231 570 L231 570 Z " />
<glyph glyph-name="Zcaron" unicode="&#x17d;" horiz-adv-x="581" d="M67 704 L49 502 L67 502 C99 621 204 689 354 689 L364 704 L67 704 Z M251 15 L243 0 L520 0 L544 233 L527 233 C504 140 411 16 251 15 L251 15 Z M555 704 L421 704 L25 0 L184 0 L555 704 Z M313 833 L194 922 L164 922 L313 735 L462 922 L431 922 L313 833 Z " />
<glyph glyph-name="zcaron" unicode="&#x17e;" horiz-adv-x="448" d="M233 593 L114 682 L84 682 L233 495 L382 682 L351 682 L233 593 Z M57 462 L52 330 L68 330 C85 400 138 438 242 446 L251 462 L57 462 Z M410 462 L297 462 L30 0 L157 0 L410 462 Z M212 17 L203 0 L385 0 L394 152 L378 152 C366 95 326 30 212 17 L212 17 Z " />
<glyph glyph-name="florin" unicode="&#x192;" horiz-adv-x="660" d="M287 383 L212 383 L210 367 L286 367 L233 -28 C233 -28 207 -186 159 -223 L159 -238 C278 -229 330 -131 360 98 L397 367 L509 367 L515 383 L399 383 L418 527 C418 527 444 681 492 717 L492 732 C375 715 309 564 287 383 L287 383 Z M96 -204 C108 -200 120 -191 126 -178 C139 -151 128 -119 102 -106 C76 -93 44 -104 30 -131 C21 -150 24 -175 34 -191 C42 -205 68 -231 113 -237 L113 -222 C88 -217 90 -206 96 -204 L96 -204 Z M615 686 C607 700 579 724 539 732 L539 717 C559 712 558 700 553 699 C540 695 529 686 523 673 C510 646 521 614 548 601 C573 588 606 598 619 625 C628 644 625 670 615 686 L615 686 Z " />
<glyph glyph-name="uni0218" unicode="&#x218;" horiz-adv-x="586" d="M256 -292 L247 -281 C309 -235 313 -172 297 -170 C280 -168 263 -163 249 -149 C222 -122 221 -78 248 -50 C276 -22 321 -22 348 -50 C391 -92 364 -172 334 -218 C321 -239 301 -268 256 -292 L256 -292 Z M60 242 L45 242 L45 50 C45 50 112 -1 266 -8 L266 8 C122 26 76 158 60 242 L60 242 Z M396 365 L237 471 C113 551 145 670 230 696 L230 711 C108 700 67 636 67 636 C-13 522 60 427 178 351 L338 249 C446 171 435 33 336 7 L336 -8 C466 3 504 73 504 73 C568 168 529 278 396 365 L396 365 Z M493 497 L508 497 L508 665 C508 665 436 705 300 712 L300 696 C435 680 479 567 493 497 L493 497 Z " />
<glyph glyph-name="uni0219" unicode="&#x219;" horiz-adv-x="435" d="M180 -292 L171 -281 C233 -235 237 -172 221 -170 C204 -168 187 -163 173 -149 C146 -122 145 -78 172 -50 C200 -22 245 -22 272 -50 C315 -92 288 -172 258 -218 C245 -239 225 -268 180 -292 L180 -292 Z M362 440 C362 440 320 466 222 470 L222 454 C312 442 339 366 348 323 L362 323 L362 440 Z M289 252 L188 315 C110 364 116 438 176 453 L176 469 C93 462 63 417 63 417 C16 347 40 276 136 215 L237 154 C306 109 313 25 248 9 L248 -8 C328 0 359 42 359 42 C408 112 378 197 289 252 L289 252 Z M47 33 C47 33 97 -3 202 -8 L202 8 C98 20 73 116 62 164 L47 164 L47 33 Z " />
<glyph glyph-name="uni021A" unicode="&#x21a;" horiz-adv-x="676" d="M288 -292 C333 -268 353 -239 366 -218 C396 -172 423 -92 380 -50 C353 -22 308 -22 280 -50 C253 -78 254 -122 281 -149 C295 -163 312 -168 329 -170 C345 -172 341 -235 279 -281 L288 -292 Z M19 704 L19 515 L34 515 C40 686 221 689 236 689 L275 689 L275 109 C275 42 238 15 196 15 L196 0 L476 0 L476 15 C434 15 397 42 397 109 L397 689 L436 689 C443 689 633 686 639 515 L654 515 L654 704 L19 704 Z " />
<glyph glyph-name="uni021B" unicode="&#x21b;" horiz-adv-x="335" d="M140 -292 C185 -268 205 -239 218 -218 C248 -172 275 -92 232 -50 C205 -22 160 -22 132 -50 C105 -78 106 -122 133 -149 C147 -163 164 -168 181 -170 C197 -172 193 -235 131 -281 L140 -292 Z M311 90 C303 72 280 51 251 51 C202 51 176 79 176 147 L176 447 L291 447 L295 462 L176 462 L176 617 L70 600 L70 462 L17 462 L20 447 L70 447 L70 144 C70 23 116 -9 191 -9 C254 -9 307 37 324 82 L311 90 Z " />
<glyph glyph-name="circumflex" unicode="&#x2c6;" horiz-adv-x="298" d="M149 621 L268 531 L298 531 L149 719 L0 531 L30 531 L149 621 Z " />
<glyph glyph-name="caron" unicode="&#x2c7;" horiz-adv-x="300" d="M149 631 L30 720 L0 720 L149 533 L298 720 L267 720 L149 631 Z " />
<glyph glyph-name="uni02C9" unicode="&#x2c9;" horiz-adv-x="305" d="M330 588 L330 654 L-25 654 L-25 588 L330 588 Z " />
<glyph glyph-name="breve" unicode="&#x2d8;" horiz-adv-x="262" d="M250 704 C250 667 227 626 133 626 C35 626 13 667 13 704 L-1 704 C-1 628 36 560 133 560 C228 560 263 628 263 704 L250 704 L250 704 Z " />
<glyph glyph-name="dotaccent" unicode="&#x2d9;" horiz-adv-x="270" d="M137 589 C168 589 193 614 193 645 C193 676 168 701 137 701 C106 701 80 676 80 645 C80 614 106 589 137 589 L137 589 Z " />
<glyph glyph-name="ring" unicode="&#x2da;" horiz-adv-x="276" d="M82 637 C82 670 108 696 140 696 C173 696 198 670 198 637 C198 605 173 579 140 579 C108 579 82 605 82 637 L82 637 Z M45 637 C45 586 88 543 140 543 C192 543 235 586 235 637 C235 690 192 732 140 732 C88 732 45 690 45 637 L45 637 Z " />
<glyph glyph-name="ogonek" unicode="&#x2db;" horiz-adv-x="274" d="M162 -127 C152 -90 184 -41 243 -11 L243 3 C151 -28 84 -76 108 -157 C108 -157 125 -214 211 -202 C266 -195 274 -159 274 -123 L260 -123 C260 -143 246 -163 224 -165 C224 -165 173 -173 162 -127 L162 -127 Z " />
<glyph glyph-name="tilde" unicode="&#x2dc;" horiz-adv-x="431" d="M260 557 C260 557 381 515 448 678 L436 685 C410 630 320 623 286 636 L169 679 C169 679 47 721 -19 558 L-7 553 C20 609 109 612 143 600 L260 557 Z " />
<glyph glyph-name="hungarumlaut" unicode="&#x2dd;" horiz-adv-x="533" d="M262 557 L291 557 L531 691 L432 721 L262 557 Z M87 557 L116 557 L356 691 L257 721 L87 557 Z " />
<glyph glyph-name="uni03A9" unicode="&#x3a9;" horiz-adv-x="711" d="M667 156 C648 109 605 100 566 100 L454 100 C463 127 502 149 536 185 C620 274 644 361 644 450 C644 597 560 718 390 733 L390 717 C455 707 516 659 516 445 C516 192 414 101 395 0 L653 0 L681 156 L667 156 Z M66 450 C66 361 91 274 175 185 C209 149 248 127 256 100 L144 100 C105 100 63 109 44 156 L29 156 L57 0 L315 0 C296 101 194 192 194 445 C194 659 256 707 320 717 L320 733 C150 718 66 597 66 450 L66 450 Z " />
<glyph glyph-name="uni03BC" unicode="&#x3bc;" horiz-adv-x="539" d="M333 57 L323 72 C306 58 285 52 265 52 C208 52 173 80 172 143 L172 471 L11 452 L11 438 C68 432 67 425 67 363 L67 -247 C67 -247 66 -269 93 -264 L223 -241 L223 -226 C181 -222 172 -212 172 -163 L172 -1 C230 -14 300 8 333 57 L333 57 Z M467 88 L467 471 L313 452 L313 438 C363 433 360 423 360 362 L360 9 C360 9 361 -12 387 -8 L518 15 L518 30 C476 35 467 40 467 88 L467 88 Z " />
<glyph glyph-name="pi" unicode="&#x3c0;" horiz-adv-x="580" d="M516 61 C516 61 509 41 484 41 C473 41 439 48 439 108 L439 384 L446 384 C543 384 563 439 563 525 L550 525 C545 468 506 462 429 462 L177 462 C57 459 9 322 9 322 L22 314 C65 371 136 382 174 384 L179 384 L167 183 C163 112 123 18 61 -30 L69 -41 C69 -41 218 45 224 177 L236 384 L357 384 L357 83 C357 83 357 -7 442 -7 C496 -7 523 21 530 54 L516 61 Z " />
<glyph glyph-name="uni2010" unicode="&#x2010;" horiz-adv-x="447" d="M64 294 L64 216 L379 216 L379 294 L64 294 Z " />
<glyph glyph-name="endash" unicode="&#x2013;" horiz-adv-x="561" d="M0 282 L0 222 L561 222 L561 282 L0 282 Z " />
<glyph glyph-name="emdash" unicode="&#x2014;" horiz-adv-x="1055" d="M0 282 L0 222 L1055 222 L1055 282 L0 282 Z " />
<glyph glyph-name="quoteleft" unicode="&#x2018;" horiz-adv-x="253" d="M175 730 C130 706 110 677 97 656 C67 610 40 530 83 488 C110 460 155 460 183 488 C210 516 209 560 182 587 C168 601 151 606 134 608 C118 610 122 673 184 719 L175 730 L175 730 Z " />
<glyph glyph-name="quoteright" unicode="&#x2019;" horiz-adv-x="255" d="M86 452 C131 476 151 505 164 526 C194 572 221 652 178 694 C151 722 106 722 78 694 C51 666 52 622 79 595 C93 581 110 576 127 574 C143 572 139 509 77 463 L86 452 L86 452 Z " />
<glyph glyph-name="quotesinglbase" unicode="&#x201a;" horiz-adv-x="256" d="M85 -128 C130 -104 150 -75 163 -54 C193 -8 220 72 177 114 C150 142 105 142 77 114 C50 86 51 42 78 15 C92 1 109 -4 126 -6 C142 -8 138 -71 76 -117 L85 -128 L85 -128 Z " />
<glyph glyph-name="quotedblleft" unicode="&#x201c;" horiz-adv-x="485" d="M393 718 C348 694 328 665 315 644 C285 598 258 518 301 476 C328 448 373 448 401 476 C428 504 427 548 400 575 C386 589 369 594 352 596 C336 598 340 661 402 707 L393 718 Z M168 718 C124 694 103 665 90 644 C61 598 34 518 76 476 C103 448 149 448 176 476 C204 504 203 548 175 575 C161 589 144 594 127 596 C111 598 115 661 177 707 L168 718 Z " />
<glyph glyph-name="quotedblright" unicode="&#x201d;" horiz-adv-x="479" d="M86 456 C131 480 151 509 164 530 C194 576 221 656 178 698 C151 726 106 726 78 698 C51 670 52 626 79 599 C93 585 110 580 127 578 C143 576 139 513 77 467 L86 456 Z M311 456 C355 480 376 509 389 530 C418 576 445 656 403 698 C376 726 330 726 303 698 C275 670 276 626 304 599 C318 585 335 580 352 578 C368 576 364 513 302 467 L311 456 Z " />
<glyph glyph-name="quotedblbase" unicode="&#x201e;" horiz-adv-x="475" d="M84 -128 C129 -104 149 -75 162 -54 C192 -8 219 72 176 114 C149 142 104 142 76 114 C49 86 50 42 77 15 C91 1 108 -4 125 -6 C141 -8 137 -71 75 -117 L84 -128 Z M309 -128 C353 -104 374 -75 387 -54 C416 -8 443 72 401 114 C374 142 328 142 301 114 C273 86 274 42 302 15 C316 1 333 -4 350 -6 C366 -8 362 -71 300 -117 L309 -128 Z " />
<glyph glyph-name="dagger" unicode="&#x2020;" horiz-adv-x="407" d="M203 645 C227 645 248 666 248 691 C248 715 227 736 203 736 C177 736 157 715 157 691 C157 666 177 645 203 645 L203 645 Z M115 451 C91 467 50 484 27 459 C11 444 12 420 27 404 C43 389 67 389 82 405 C90 412 92 422 93 431 C94 438 127 431 147 406 L151 410 C138 431 124 445 115 451 L115 451 Z M211 403 C211 462 232 495 232 545 C232 545 235 606 203 606 C171 606 173 545 173 545 C173 495 194 459 194 403 C194 403 196 351 154 292 C199 43 199 -250 199 -265 L207 -265 C207 -250 206 43 252 292 C209 349 211 403 211 403 L211 403 Z M378 459 C355 484 314 467 291 451 C281 444 266 431 253 410 L258 406 C278 431 311 438 311 431 C312 422 315 412 323 405 C338 389 363 389 378 404 C394 420 394 444 378 459 L378 459 Z " />
<glyph glyph-name="daggerdbl" unicode="&#x2021;" horiz-adv-x="508" d="M258 352 C258 420 284 435 284 494 C284 494 287 566 249 566 C211 566 214 494 214 494 C214 435 240 417 240 352 C240 327 227 275 184 245 C227 220 240 164 240 140 C240 71 214 56 214 -2 C214 -2 211 -74 250 -74 C287 -74 285 -2 285 -2 C285 56 258 74 258 140 C258 164 271 216 313 245 C271 272 258 327 258 352 L258 352 Z M378 412 C378 401 382 389 391 380 C409 362 438 362 457 380 C475 398 475 427 457 445 C429 474 380 455 353 435 C341 427 324 412 309 386 L314 383 C338 412 377 420 378 412 L378 412 Z M249 614 C279 614 303 637 303 667 C303 697 279 722 249 722 C219 722 195 697 195 667 C195 637 219 614 249 614 L249 614 Z M250 -120 C219 -120 195 -145 195 -174 C195 -204 219 -228 250 -228 C279 -228 303 -204 303 -174 C303 -145 279 -120 250 -120 L250 -120 Z M107 380 C116 389 120 401 121 412 C121 420 160 412 183 383 L189 386 C173 412 157 427 145 435 C118 455 69 474 41 445 C23 427 23 398 41 380 C60 362 89 362 107 380 L107 380 Z M391 115 C382 106 378 94 378 83 C377 76 338 83 314 113 L309 109 C324 83 341 68 353 59 C380 41 429 21 457 49 C475 67 475 96 457 115 C438 134 409 134 391 115 L391 115 Z M121 83 C120 94 116 106 107 115 C89 134 59 134 41 115 C23 96 23 67 41 49 C69 21 118 41 145 59 C157 68 173 83 189 109 L183 113 C160 83 121 76 121 83 L121 83 Z " />
<glyph glyph-name="bullet" unicode="&#x2022;" horiz-adv-x="473" d="M231 232 C292 232 342 281 342 341 C342 403 292 451 231 451 C170 451 121 403 121 341 C121 281 170 232 231 232 L231 232 Z " />
<glyph glyph-name="ellipsis" unicode="&#x2026;" horiz-adv-x="792" d="M701 63 C701 104 669 136 629 136 C589 136 557 104 557 63 C557 24 589 -8 629 -8 C669 -8 701 24 701 63 L701 63 Z M465 63 C465 104 433 136 393 136 C353 136 321 104 321 63 C321 24 353 -8 393 -8 C433 -8 465 24 465 63 L465 63 Z M230 63 C230 104 198 136 158 136 C118 136 86 104 86 63 C86 24 118 -8 158 -8 C198 -8 230 24 230 63 L230 63 Z " />
<glyph glyph-name="perthousand" unicode="&#x2030;" horiz-adv-x="1100" d="M991 201 C991 63 976 38 931 38 C887 38 870 63 870 201 C870 339 886 369 931 369 C974 369 991 339 991 201 L991 201 Z M289 496 C289 588 263 678 154 678 C44 678 17 588 17 496 C17 404 44 320 154 320 C263 320 289 404 289 496 L289 496 Z M214 496 C214 358 199 334 154 334 C110 334 93 358 93 496 C93 634 109 665 154 665 C197 665 214 634 214 496 L214 496 Z M120 0 L179 0 L635 704 L576 704 L120 0 Z M737 201 C737 292 710 383 601 383 C491 383 464 292 464 201 C464 108 491 25 601 25 C710 25 737 108 737 201 L737 201 Z M661 201 C661 63 646 38 601 38 C557 38 540 63 540 201 C540 339 556 369 601 369 C644 369 661 339 661 201 L661 201 Z M1067 201 C1067 292 1040 383 931 383 C821 383 795 292 795 201 C795 108 821 25 931 25 C1040 25 1067 108 1067 201 L1067 201 Z " />
<glyph glyph-name="guilsinglleft" unicode="&#x2039;" horiz-adv-x="339" d="M281 505 L50 266 L281 33 L281 65 L145 266 L281 472 L281 505 Z " />
<glyph glyph-name="guilsinglright" unicode="&#x203a;" horiz-adv-x="339" d="M48 472 L183 266 L48 65 L48 33 L279 266 L48 505 L48 472 Z " />
<glyph glyph-name="fraction" unicode="&#x2044;" horiz-adv-x="343" d="M458 734 L-146 0 L-92 0 L513 734 L458 734 Z " />
<glyph glyph-name="Euro" unicode="&#x20ac;" horiz-adv-x="609" d="M123 418 L30 418 L19 402 L121 402 C120 384 119 365 119 352 C119 338 120 319 121 303 L30 303 L19 287 L123 287 C139 128 204 9 355 -7 L355 9 C284 26 250 98 243 287 L439 287 L449 303 L242 303 C242 306 242 348 242 352 C242 356 242 399 242 402 L455 402 L466 418 L243 418 C251 605 284 679 355 695 L355 711 C205 695 140 576 123 418 L123 418 Z M425 712 L425 695 C491 682 536 625 536 535 L551 535 L551 667 C513 697 483 709 425 712 L425 712 Z M551 36 L551 169 L536 169 C536 79 490 22 425 9 L425 -8 C478 -4 511 7 551 36 L551 36 Z " />
<glyph glyph-name="afii61289" unicode="&#x2113;" horiz-adv-x="350" d="M243 339 C299 390 323 484 319 566 C313 565 304 564 298 563 C299 497 280 421 225 368 L191 335 L191 518 C191 778 260 702 266 694 L275 705 C210 776 85 739 85 498 L85 271 L22 221 L22 177 L85 225 L85 194 C85 29 150 -9 227 -9 C273 -9 324 33 330 92 L317 97 C304 56 280 44 262 40 C212 34 183 81 188 178 L190 289 L243 339 Z " />
<glyph glyph-name="trademark" unicode="&#x2122;" horiz-adv-x="699" d="M673 431 C655 431 638 442 638 473 L638 654 C638 682 652 690 669 690 L669 704 L588 704 L505 487 L405 704 L313 704 L313 690 C323 690 345 690 356 674 L356 526 C356 503 356 431 301 431 L301 417 L419 417 L419 431 C369 431 370 503 370 526 L370 655 L478 414 L491 414 L588 663 L588 473 C588 442 576 431 559 431 L559 417 L673 417 L673 431 Z M13 704 L13 622 L27 622 C27 691 96 691 102 691 L117 691 L117 470 C117 442 103 431 86 431 L86 417 L199 417 L199 431 C182 431 168 442 168 470 L168 691 L183 691 C186 691 258 691 258 622 L272 622 L272 704 L13 704 Z " />
<glyph glyph-name="Omega" unicode="&#x2126;" horiz-adv-x="711" d="M667 156 C648 109 605 100 566 100 L454 100 C463 127 502 149 536 185 C620 274 644 361 644 450 C644 597 560 718 390 733 L390 717 C455 707 516 659 516 445 C516 192 414 101 395 0 L653 0 L681 156 L667 156 Z M66 450 C66 361 91 274 175 185 C209 149 248 127 256 100 L144 100 C105 100 63 109 44 156 L29 156 L57 0 L315 0 C296 101 194 192 194 445 C194 659 256 707 320 717 L320 733 C150 718 66 597 66 450 L66 450 Z " />
<glyph glyph-name="estimated" unicode="&#x212e;" horiz-adv-x="892" d="M176 608 C245 668 340 706 445 706 C553 706 650 666 720 603 L720 395 L176 395 L176 608 Z M445 735 C217 735 32 570 32 367 C32 164 217 0 445 0 C577 0 693 55 769 140 L728 140 C658 72 557 29 445 29 C340 29 245 67 176 127 L176 367 L858 367 C858 570 673 735 445 735 L445 735 Z " />
<glyph glyph-name="partialdiff" unicode="&#x2202;" horiz-adv-x="538" d="M64 660 L95 564 L111 569 C105 632 157 702 220 722 L220 741 C151 732 93 702 64 660 L64 660 Z M291 741 L291 723 C359 702 397 610 377 363 C358 434 278 458 236 458 C110 458 51 340 41 225 C29 84 95 6 208 -7 L208 10 C163 24 144 74 156 208 C170 353 224 416 279 416 C313 416 360 381 374 333 C358 156 327 46 279 13 L279 -6 C414 15 482 151 496 333 C514 566 435 719 291 741 L291 741 Z " />
<glyph glyph-name="Delta" unicode="&#x2206;" horiz-adv-x="714" d="M79 40 L305 567 L531 40 L79 40 Z M375 738 L320 720 L33 28 L32 26 L38 0 L654 0 L669 32 L375 738 Z " />
<glyph glyph-name="product" unicode="&#x220f;" horiz-adv-x="781" d="M654 590 C654 659 689 689 738 689 L738 704 L38 704 L38 689 C88 689 122 659 122 590 L122 47 C122 -30 86 -70 38 -70 L38 -85 L339 -85 L339 -70 C292 -70 258 -30 258 47 L258 587 C258 657 291 688 339 688 L434 688 C483 688 518 657 518 587 L518 47 C518 -30 482 -70 434 -70 L434 -85 L738 -85 L738 -70 C690 -70 654 -30 654 47 L654 590 L654 590 Z " />
<glyph glyph-name="summation" unicode="&#x2211;" horiz-adv-x="668" d="M147 -98 L399 328 L184 704 L21 704 L272 240 L76 -98 L147 -98 Z M624 155 C599 68 542 -83 253 -83 L222 -83 C219 -88 217 -93 214 -98 L613 -98 L640 155 L624 155 Z M257 689 L279 689 C426 689 569 611 605 486 L622 486 L601 704 L249 704 C251 699 254 694 257 689 L257 689 Z " />
<glyph glyph-name="minus" unicode="&#x2212;" horiz-adv-x="626" d="M581 216 L581 294 L48 294 L48 216 L581 216 Z " />
<glyph glyph-name="uni2215" unicode="&#x2215;" horiz-adv-x="345" d="M458 734 L-146 0 L-90 0 L515 734 L458 734 Z " />
<glyph glyph-name="uni2219" unicode="&#x2219;" horiz-adv-x="266" d="M134 243 C165 243 190 268 190 298 C190 330 165 354 134 354 C102 354 78 330 78 298 C78 268 102 243 134 243 L134 243 Z " />
<glyph glyph-name="radical" unicode="&#x221a;" horiz-adv-x="565" d="M355 36 L193 414 L45 351 L50 338 C88 353 127 323 149 271 L344 -185 L362 -178 L542 853 L498 865 L355 36 Z " />
<glyph glyph-name="infinity" unicode="&#x221e;" horiz-adv-x="783" d="M673 408 C642 440 601 457 557 457 C513 457 473 440 441 408 C440 407 384 348 384 348 C384 348 327 407 326 408 C295 440 254 457 210 457 C166 457 124 440 93 409 C34 344 31 238 93 175 C124 144 166 126 210 126 C254 126 295 144 326 175 C327 176 384 235 384 235 C384 235 440 176 441 175 C473 143 513 126 557 126 C601 126 642 144 673 175 C736 239 736 344 673 408 L673 408 Z M150 353 C166 370 187 378 210 378 C233 378 254 370 269 355 C270 353 329 292 329 292 C329 292 272 231 270 229 C253 214 232 204 210 204 C188 204 166 214 150 230 C134 246 126 268 125 291 C125 315 134 337 150 353 L150 353 Z M617 230 C600 214 579 204 557 204 C534 204 513 214 497 230 C496 232 439 291 439 291 C439 291 496 352 497 353 C512 370 534 378 557 378 C580 378 601 370 617 353 C633 337 642 315 642 291 C642 268 633 246 617 230 L617 230 Z " />
<glyph glyph-name="integral" unicode="&#x222b;" horiz-adv-x="383" d="M88 -181 C98 -178 108 -169 113 -157 C122 -133 110 -105 85 -95 C61 -85 33 -97 24 -122 C17 -139 22 -161 32 -176 C40 -187 64 -203 96 -209 L96 -193 C88 -189 83 -183 88 -181 L88 -181 Z M130 445 L165 5 C177 -126 156 -177 137 -193 L137 -209 C234 -193 270 -66 250 169 L215 610 C204 740 224 790 242 806 L242 823 C147 807 110 680 130 445 L130 445 Z M348 790 C339 801 315 817 283 823 L283 806 C292 802 295 797 293 796 C281 793 272 783 266 771 C257 746 269 719 294 709 C318 699 346 711 355 736 C362 752 359 776 348 790 L348 790 Z " />
<glyph glyph-name="approxequal" unicode="&#x2248;" horiz-adv-x="518" d="M306 311 C306 311 427 269 494 433 L482 439 C456 385 366 378 332 390 L215 434 C215 434 93 475 27 312 L39 307 C66 364 155 366 189 354 L306 311 Z M306 131 C306 131 427 89 494 252 L482 259 C456 204 366 197 332 210 L215 253 C215 253 93 295 27 132 L39 127 C66 183 155 186 189 174 L306 131 Z " />
<glyph glyph-name="notequal" unicode="&#x2260;" horiz-adv-x="527" d="M480 346 L480 410 L362 410 L412 519 L355 546 L292 410 L46 410 L46 346 L261 346 L202 217 L46 217 L46 154 L172 154 L126 54 L184 28 L242 154 L480 154 L480 217 L273 217 L332 346 L480 346 Z " />
<glyph glyph-name="lessequal" unicode="&#x2264;" horiz-adv-x="532" d="M191 344 L479 495 L479 585 L56 368 L56 322 L479 105 L479 194 L191 344 Z M47 58 L47 -15 L479 -15 L479 58 L47 58 Z " />
<glyph glyph-name="greaterequal" unicode="&#x2265;" horiz-adv-x="532" d="M55 194 L55 105 L478 322 L478 368 L55 585 L55 495 L343 344 L55 194 Z M55 58 L55 -15 L487 -15 L487 58 L55 58 Z " />
<glyph glyph-name="lozenge" unicode="&#x25ca;" horiz-adv-x="559" d="M428 327 L278 36 L127 327 L278 618 L428 327 Z M301 733 L256 733 L48 327 L256 -79 L301 -79 L509 327 L301 733 Z " />
<glyph glyph-name="zero.taboldstyle" unicode="&#xf643;" horiz-adv-x="564" d="M181 229 C181 386 200 439 252 452 L252 469 C128 456 56 372 56 229 C56 83 128 6 252 -7 L252 10 C200 23 181 75 181 229 L181 229 Z M520 229 C520 379 449 457 323 469 L323 452 C375 439 394 386 394 229 C394 75 375 23 323 10 L323 -7 C449 5 520 81 520 229 L520 229 Z " />
<glyph glyph-name="one.taboldstyle" unicode="&#xf644;" horiz-adv-x="491" d="M204 93 C204 18 156 15 116 15 L116 0 L389 0 L389 15 C354 15 310 16 310 93 L310 471 L303 471 L123 421 L124 407 C181 421 204 415 204 364 L204 93 Z " />
<glyph glyph-name="two.taboldstyle" unicode="&#xf645;" horiz-adv-x="508" d="M83 374 C78 357 82 337 96 324 C116 305 148 306 167 326 C185 345 185 377 164 395 C154 405 140 408 128 407 C124 407 123 415 142 427 L137 440 C96 411 86 386 83 374 L83 374 Z M420 153 C399 113 371 100 337 100 L184 96 C258 174 429 223 409 369 C394 474 267 481 194 465 L199 451 C242 448 286 411 298 359 C314 295 292 222 175 111 L72 0 L392 0 L435 153 L420 153 Z " />
<glyph glyph-name="three.taboldstyle" unicode="&#xf646;" horiz-adv-x="539" d="M166 -217 C181 -210 194 -200 199 -182 C210 -147 191 -110 156 -100 C121 -89 84 -109 74 -144 C67 -169 76 -196 92 -212 C121 -241 162 -259 226 -264 L226 -248 C176 -240 158 -220 166 -217 L166 -217 Z M498 -25 C495 42 443 114 346 145 C525 279 415 470 264 470 C255 470 101 470 84 305 L100 302 C127 387 240 409 294 364 C366 304 361 153 201 114 L201 98 C353 82 388 -16 393 -64 C401 -150 375 -232 297 -247 L297 -263 C384 -251 505 -182 498 -25 L498 -25 Z " />
<glyph glyph-name="four.taboldstyle" unicode="&#xf647;" horiz-adv-x="577" d="M522 -48 L522 14 L421 14 L421 462 L382 469 L299 344 L299 14 L140 14 C119 14 101 14 119 47 L107 55 L50 -32 L50 -48 L299 -48 L299 -137 C299 -246 261 -250 219 -250 L219 -265 L501 -265 L501 -250 C459 -250 421 -248 421 -132 L421 -48 L522 -48 Z " />
<glyph glyph-name="five.taboldstyle" unicode="&#xf648;" horiz-adv-x="553" d="M485 462 L139 462 L119 351 L451 351 L485 462 Z M90 175 L72 74 C308 115 394 5 412 -56 C438 -142 392 -231 284 -247 L284 -263 C405 -250 511 -173 503 -22 C498 86 390 244 90 175 L90 175 Z M168 -218 C183 -211 195 -199 200 -180 C210 -145 189 -107 154 -98 C118 -88 81 -108 71 -143 C64 -168 73 -197 90 -212 C105 -226 144 -255 214 -263 L214 -247 C170 -241 158 -223 168 -218 L168 -218 Z " />
<glyph glyph-name="six.taboldstyle" unicode="&#xf649;" horiz-adv-x="571" d="M399 680 C384 678 371 669 361 657 C342 629 348 591 375 572 C403 553 441 559 460 587 C473 606 474 633 464 650 C456 664 431 700 369 710 L369 695 C396 690 404 680 399 680 L399 680 Z M526 235 C526 341 481 471 339 471 C277 471 205 440 176 359 C177 594 231 676 299 696 L299 711 C156 690 45 531 45 315 C45 130 111 10 254 -6 L254 10 C199 38 178 143 176 317 C192 380 244 433 299 433 C355 433 403 357 403 216 C403 87 377 27 325 10 L325 -6 C444 7 526 93 526 235 L526 235 Z " />
<glyph glyph-name="seven.taboldstyle" unicode="&#xf64a;" horiz-adv-x="551" d="M466 354 L529 462 L78 462 L57 296 L72 296 C91 337 120 354 161 354 L466 354 Z M199 -258 L322 -258 C322 -83 335 90 429 284 L414 284 C252 93 203 -67 199 -258 L199 -258 Z " />
<glyph glyph-name="eight.taboldstyle" unicode="&#xf64b;" horiz-adv-x="559" d="M526 195 C526 285 446 362 350 410 C430 429 479 502 479 561 C479 647 414 700 314 710 L314 693 C360 682 401 645 402 552 C402 481 371 435 333 419 C222 463 173 510 173 585 C173 643 204 679 244 692 L244 710 C148 699 74 639 74 530 C74 459 110 396 207 338 C124 315 44 241 44 155 C44 45 128 -1 256 -9 L256 8 C183 21 137 76 137 160 C137 267 192 314 222 329 C237 320 245 316 262 307 C345 263 417 216 417 138 C418 60 376 21 326 9 L326 -8 C441 1 526 60 526 195 L526 195 Z " />
<glyph glyph-name="nine.taboldstyle" unicode="&#xf64c;" horiz-adv-x="553" d="M519 141 C519 326 453 452 309 469 L309 451 C365 420 388 303 388 139 C372 76 320 30 265 30 C209 30 161 103 161 244 C161 372 186 434 238 451 L238 469 C119 456 38 380 38 225 C38 119 83 -9 225 -9 C287 -9 359 18 388 95 C387 -158 363 -234 269 -248 L269 -263 C436 -245 519 -94 519 141 L519 141 Z M160 -227 C177 -225 193 -215 203 -201 C223 -172 216 -131 187 -110 C157 -90 116 -97 96 -127 C81 -147 81 -176 91 -195 C100 -211 124 -252 198 -263 L198 -247 C168 -241 155 -227 160 -227 L160 -227 Z " />
<glyph glyph-name="dollar.taboldstyle" unicode="&#xf653;" horiz-adv-x="568" d="M54 243 L46 243 L46 51 C46 51 92 15 195 -1 L195 14 C108 61 67 176 54 243 L54 243 Z M500 498 L509 498 L509 666 C509 666 457 694 359 706 L359 691 C450 656 488 553 500 498 L500 498 Z M288 6 L288 281 L339 249 C444 174 452 9 288 6 L288 6 Z M397 366 L288 438 L288 835 L266 835 L266 713 C118 713 68 637 68 637 C-12 523 60 428 179 352 L266 296 L266 -131 L288 -131 L288 -9 C428 -7 474 36 505 73 C569 169 530 278 397 366 L397 366 Z M266 452 L238 471 C98 563 158 698 266 698 L266 452 Z " />
<glyph glyph-name="cent.taboldstyle" unicode="&#xf654;" horiz-adv-x="524" d="M308 65 C243 81 185 132 185 246 C185 401 263 446 308 455 L308 65 Z M474 128 C454 92 387 56 326 61 L326 593 L308 593 L308 471 C157 462 75 345 75 231 C75 101 159 -8 308 -9 L308 -118 L326 -118 L326 -9 C427 2 474 75 486 121 L474 128 Z M395 430 C383 425 371 415 366 400 C354 372 368 339 397 328 C426 316 459 332 470 360 C479 380 472 404 460 418 C449 431 420 459 361 468 L361 451 C390 445 402 432 395 430 L395 430 Z " />
<glyph glyph-name="dollar.oldstyle" unicode="&#xf724;" horiz-adv-x="568" d="M54 243 L46 243 L46 51 C46 51 92 15 195 -1 L195 14 C108 61 67 176 54 243 L54 243 Z M500 498 L509 498 L509 666 C509 666 457 694 359 706 L359 691 C450 656 488 553 500 498 L500 498 Z M288 6 L288 281 L339 249 C444 174 452 9 288 6 L288 6 Z M397 366 L288 438 L288 835 L266 835 L266 713 C118 713 68 637 68 637 C-12 523 60 428 179 352 L266 296 L266 -131 L288 -131 L288 -9 C428 -7 474 36 505 73 C569 169 530 278 397 366 L397 366 Z M266 452 L238 471 C98 563 158 698 266 698 L266 452 Z " />
<glyph glyph-name="zero.oldstyle" unicode="&#xf730;" horiz-adv-x="564" d="M181 229 C181 386 200 439 252 452 L252 469 C128 456 56 372 56 229 C56 83 128 6 252 -7 L252 10 C200 23 181 75 181 229 L181 229 Z M520 229 C520 379 449 457 323 469 L323 452 C375 439 394 386 394 229 C394 75 375 23 323 10 L323 -7 C449 5 520 81 520 229 L520 229 Z " />
<glyph glyph-name="one.oldstyle" unicode="&#xf731;" horiz-adv-x="491" d="M204 93 C204 18 156 15 116 15 L116 0 L389 0 L389 15 C354 15 310 16 310 93 L310 471 L303 471 L123 421 L124 407 C181 421 204 415 204 364 L204 93 Z " />
<glyph glyph-name="two.oldstyle" unicode="&#xf732;" horiz-adv-x="508" d="M83 374 C78 357 82 337 96 324 C116 305 148 306 167 326 C185 345 185 377 164 395 C154 405 140 408 128 407 C124 407 123 415 142 427 L137 440 C96 411 86 386 83 374 L83 374 Z M420 153 C399 113 371 100 337 100 L184 96 C258 174 429 223 409 369 C394 474 267 481 194 465 L199 451 C242 448 286 411 298 359 C314 295 292 222 175 111 L72 0 L392 0 L435 153 L420 153 Z " />
<glyph glyph-name="three.oldstyle" unicode="&#xf733;" horiz-adv-x="539" d="M166 -217 C181 -210 194 -200 199 -182 C210 -147 191 -110 156 -100 C121 -89 84 -109 74 -144 C67 -169 76 -196 92 -212 C121 -241 162 -259 226 -264 L226 -248 C176 -240 158 -220 166 -217 L166 -217 Z M498 -25 C495 42 443 114 346 145 C525 279 415 470 264 470 C255 470 101 470 84 305 L100 302 C127 387 240 409 294 364 C366 304 361 153 201 114 L201 98 C353 82 388 -16 393 -64 C401 -150 375 -232 297 -247 L297 -263 C384 -251 505 -182 498 -25 L498 -25 Z " />
<glyph glyph-name="four.oldstyle" unicode="&#xf734;" horiz-adv-x="577" d="M522 -48 L522 14 L421 14 L421 462 L382 469 L299 344 L299 14 L140 14 C119 14 101 14 119 47 L107 55 L50 -32 L50 -48 L299 -48 L299 -137 C299 -246 261 -250 219 -250 L219 -265 L501 -265 L501 -250 C459 -250 421 -248 421 -132 L421 -48 L522 -48 Z " />
<glyph glyph-name="five.oldstyle" unicode="&#xf735;" horiz-adv-x="553" d="M485 462 L139 462 L119 351 L451 351 L485 462 Z M90 175 L72 74 C308 115 394 5 412 -56 C438 -142 392 -231 284 -247 L284 -263 C405 -250 511 -173 503 -22 C498 86 390 244 90 175 L90 175 Z M168 -218 C183 -211 195 -199 200 -180 C210 -145 189 -107 154 -98 C118 -88 81 -108 71 -143 C64 -168 73 -197 90 -212 C105 -226 144 -255 214 -263 L214 -247 C170 -241 158 -223 168 -218 L168 -218 Z " />
<glyph glyph-name="six.oldstyle" unicode="&#xf736;" horiz-adv-x="571" d="M399 680 C384 678 371 669 361 657 C342 629 348 591 375 572 C403 553 441 559 460 587 C473 606 474 633 464 650 C456 664 431 700 369 710 L369 695 C396 690 404 680 399 680 L399 680 Z M526 235 C526 341 481 471 339 471 C277 471 205 440 176 359 C177 594 231 676 299 696 L299 711 C156 690 45 531 45 315 C45 130 111 10 254 -6 L254 10 C199 38 178 143 176 317 C192 380 244 433 299 433 C355 433 403 357 403 216 C403 87 377 27 325 10 L325 -6 C444 7 526 93 526 235 L526 235 Z " />
<glyph glyph-name="seven.oldstyle" unicode="&#xf737;" horiz-adv-x="551" d="M466 354 L529 462 L78 462 L57 296 L72 296 C91 337 120 354 161 354 L466 354 Z M199 -258 L322 -258 C322 -83 335 90 429 284 L414 284 C252 93 203 -67 199 -258 L199 -258 Z " />
<glyph glyph-name="eight.oldstyle" unicode="&#xf738;" horiz-adv-x="559" d="M526 195 C526 285 446 362 350 410 C430 429 479 502 479 561 C479 647 414 700 314 710 L314 693 C360 682 401 645 402 552 C402 481 371 435 333 419 C222 463 173 510 173 585 C173 643 204 679 244 692 L244 710 C148 699 74 639 74 530 C74 459 110 396 207 338 C124 315 44 241 44 155 C44 45 128 -1 256 -9 L256 8 C183 21 137 76 137 160 C137 267 192 314 222 329 C237 320 245 316 262 307 C345 263 417 216 417 138 C418 60 376 21 326 9 L326 -8 C441 1 526 60 526 195 L526 195 Z " />
<glyph glyph-name="nine.oldstyle" unicode="&#xf739;" horiz-adv-x="553" d="M519 141 C519 326 453 452 309 469 L309 451 C365 420 388 303 388 139 C372 76 320 30 265 30 C209 30 161 103 161 244 C161 372 186 434 238 451 L238 469 C119 456 38 380 38 225 C38 119 83 -9 225 -9 C287 -9 359 18 388 95 C387 -158 363 -234 269 -248 L269 -263 C436 -245 519 -94 519 141 L519 141 Z M160 -227 C177 -225 193 -215 203 -201 C223 -172 216 -131 187 -110 C157 -90 116 -97 96 -127 C81 -147 81 -176 91 -195 C100 -211 124 -252 198 -263 L198 -247 C168 -241 155 -227 160 -227 L160 -227 Z " />
<glyph glyph-name="cent.oldstyle" unicode="&#xf7a2;" horiz-adv-x="524" d="M308 65 C243 81 185 132 185 246 C185 401 263 446 308 455 L308 65 Z M474 128 C454 92 387 56 326 61 L326 593 L308 593 L308 471 C157 462 75 345 75 231 C75 101 159 -8 308 -9 L308 -118 L326 -118 L326 -9 C427 2 474 75 486 121 L474 128 Z M395 430 C383 425 371 415 366 400 C354 372 368 339 397 328 C426 316 459 332 470 360 C479 380 472 404 460 418 C449 431 420 459 361 468 L361 451 C390 445 402 432 395 430 L395 430 Z " />
<glyph glyph-name="fi" unicode="&#xfb01;" horiz-adv-x="557" d="M478 101 L478 462 L323 462 L189 462 L189 499 C189 688 262 722 307 729 L307 744 C161 737 83 667 83 479 L83 462 L18 462 L19 447 L83 447 L83 99 C83 48 82 18 44 8 L44 0 L234 0 L234 8 C198 16 189 44 189 99 L189 447 L322 447 C360 447 372 408 372 373 L372 101 C372 50 371 19 333 8 L333 0 L519 0 L519 8 C483 17 478 46 478 101 L478 101 Z M395 692 C380 689 366 680 357 665 C339 636 348 598 378 580 C407 562 446 571 464 601 C476 621 475 651 465 672 C456 707 411 737 353 743 L353 728 C396 721 414 694 395 692 L395 692 Z " />
<glyph glyph-name="fl" unicode="&#xfb02;" horiz-adv-x="542" d="M528 15 C492 24 487 46 487 101 L487 746 L352 716 C320 736 285 745 246 745 C149 745 74 675 74 522 L74 462 L8 462 L10 447 L74 447 L74 99 C74 48 72 25 34 15 L34 0 L225 0 L225 15 C189 23 180 44 180 99 L180 447 L284 447 L287 462 L180 462 L180 492 C180 735 286 718 329 706 C367 696 381 669 381 639 L381 101 C381 50 380 26 342 15 L342 0 L528 0 L528 15 L528 15 Z " />
</font>
</svg>
