<?xml version="1.0" encoding="UTF-8"?>
<svg xmlns="http://www.w3.org/2000/svg" xmlns:xlink="http://www.w3.org/1999/xlink" version="1.2" >
<font id="Butler Stencil Bold">
<font-face  font-family="Butler Stencil" units-per-em="1000" ascent="735" descent="-265" font-style="normal" font-weight="700" font-stretch="normal" cap-height="704" x-height="420" underline-position="-75" underline-thickness="50" />
<missing-glyph  horiz-adv-x="507" d="M-1 704 L-1 0 L507 0 L507 704 L-1 704 Z M223 352 L49 85 L49 620 L223 352 Z M86 654 L420 654 L253 398 L86 654 Z M253 307 L420 50 L86 50 L253 307 Z M283 352 L457 620 L457 85 L283 352 Z " />
<glyph glyph-name="NULL" d="" />
<glyph glyph-name="CR" unicode="&#xd;" horiz-adv-x="278" d="" />
<glyph glyph-name="space" unicode="&#x20;" horiz-adv-x="265" d="" />
<glyph glyph-name="exclam" unicode="&#x21;" horiz-adv-x="334" d="M199 224 L234 745 L102 745 L134 224 L199 224 Z M242 67 C242 25 208 -9 166 -9 C125 -9 91 25 91 67 C91 109 125 143 166 143 C208 143 242 109 242 67 L242 67 Z " />
<glyph glyph-name="quotedbl" unicode="&#x22;" horiz-adv-x="532" d="M136 377 L199 377 L232 704 L101 704 L136 377 Z M343 377 L406 377 L440 704 L308 704 L343 377 Z " />
<glyph glyph-name="numbersign" unicode="&#x23;" horiz-adv-x="714" d="M667 463 L667 551 L555 551 L601 746 L510 746 L464 551 L329 551 L374 746 L283 746 L237 551 L108 551 L108 463 L217 463 L183 314 L44 314 L44 225 L162 225 L110 0 L201 0 L253 225 L389 225 L337 0 L428 0 L480 225 L604 225 L604 314 L500 314 L535 463 L667 463 Z M444 463 L409 314 L274 314 L308 463 L444 463 Z " />
<glyph glyph-name="dollar" unicode="&#x24;" horiz-adv-x="594" d="M54 245 L46 245 L46 53 C46 53 97 13 216 -4 L216 13 C121 67 71 197 54 245 L54 245 Z M528 497 L536 497 L536 665 C536 665 476 698 358 709 L358 692 C463 654 512 540 528 497 L528 497 Z M296 8 L296 268 L338 242 C441 167 454 8 296 8 L296 8 Z M416 377 L296 456 L296 835 L279 835 L279 713 C121 713 72 637 72 637 C-11 528 42 428 184 339 L279 279 L279 -131 L296 -131 L296 -9 C437 -9 487 23 528 73 C603 182 548 290 416 377 L416 377 Z M279 467 L262 479 C132 564 171 696 279 696 L279 467 Z " />
<glyph glyph-name="percent" unicode="&#x25;" horiz-adv-x="1011" d="M250 0 L315 0 L771 704 L706 704 L250 0 Z M280 679 C170 679 141 595 141 497 C141 398 170 321 280 321 C389 321 418 398 418 497 C418 595 389 679 280 679 L280 679 Z M280 338 C236 338 229 361 229 497 C229 633 235 662 280 662 C323 662 330 633 330 497 C330 361 325 338 280 338 L280 338 Z M741 383 C631 383 602 299 602 201 C602 102 631 25 741 25 C850 25 879 102 879 201 C879 299 850 383 741 383 L741 383 Z M741 42 C697 42 690 65 690 201 C690 337 696 366 741 366 C784 366 791 337 791 201 C791 65 786 42 741 42 L741 42 Z " />
<glyph glyph-name="ampersand" unicode="&#x26;" horiz-adv-x="834" d="M580 286 C581 269 589 254 602 243 C630 219 671 223 694 250 C718 278 715 319 687 342 C667 358 637 359 614 354 C592 349 555 333 521 284 L531 270 C554 297 580 302 580 286 L580 286 Z M676 83 C676 83 620 82 590 127 L303 555 C255 626 293 700 336 715 C368 726 406 714 434 685 L450 698 C419 734 373 752 304 740 C192 720 120 593 208 467 L434 136 C387 43 272 56 226 115 C154 207 178 296 232 338 L221 354 C144 308 6 210 101 68 C197 -75 405 4 447 119 L500 41 C541 -19 653 -8 653 -8 C718 -1 782 42 782 131 L764 131 C753 93 716 83 676 83 L676 83 Z " />
<glyph glyph-name="quotesingle" unicode="&#x27;" horiz-adv-x="278" d="M109 376 L172 376 L206 704 L75 704 L109 376 Z " />
<glyph glyph-name="parenleft" unicode="&#x28;" horiz-adv-x="333" d="M318 745 C79 579 79 360 79 254 C79 147 79 -72 316 -206 L330 -193 C202 -77 202 144 202 251 C202 357 202 579 332 732 L318 745 L318 745 Z " />
<glyph glyph-name="parenright" unicode="&#x29;" horiz-adv-x="333" d="M251 255 C251 361 251 580 12 746 L-2 733 C128 580 128 358 128 252 C128 145 128 -76 0 -192 L14 -205 C251 -71 251 148 251 255 L251 255 Z " />
<glyph glyph-name="asterisk" unicode="&#x2a;" horiz-adv-x="556" d="M487 513 L455 612 L295 525 L328 704 L223 704 L256 525 L97 612 L64 513 L245 489 L113 364 L197 302 L276 467 L354 302 L439 364 L307 489 L487 513 Z " />
<glyph glyph-name="plus" unicode="&#x2b;" horiz-adv-x="715" d="M657 356 L403 356 L403 619 L310 619 L310 356 L56 356 L56 263 L310 263 L310 0 L403 0 L403 263 L657 263 L657 356 Z " />
<glyph glyph-name="comma" unicode="&#x2c;" horiz-adv-x="272" d="M180 -53 C212 -5 249 84 199 134 C167 166 114 166 82 134 C50 101 50 48 83 17 C99 1 119 -5 139 -7 C155 -9 142 -74 85 -118 L96 -132 C142 -107 166 -75 180 -53 L180 -53 Z " />
<glyph glyph-name="hyphen" unicode="&#x2d;" horiz-adv-x="444" d="M379 208 L379 301 L64 301 L64 208 L379 208 Z " />
<glyph glyph-name="period" unicode="&#x2e;" horiz-adv-x="296" d="M232 79 C232 126 194 164 148 164 C101 164 63 126 63 79 C63 32 101 -5 148 -5 C194 -5 232 32 232 79 L232 79 Z " />
<glyph glyph-name="slash" unicode="&#x2f;" horiz-adv-x="430" d="M413 725 L322 725 L14 -21 L105 -21 L413 725 Z " />
<glyph glyph-name="zero" unicode="0" horiz-adv-x="630" d="M345 712 L345 692 C408 674 435 586 435 346 C435 106 412 27 345 12 L345 -7 C539 7 593 158 593 346 C593 536 539 697 345 712 L345 712 Z M34 346 C34 158 87 8 282 -7 L282 12 C217 29 192 108 192 346 C192 586 216 674 282 692 L282 712 C87 696 34 535 34 346 L34 346 Z " />
<glyph glyph-name="one" unicode="1" horiz-adv-x="424" d="M284 95 L284 713 L252 713 L57 568 L67 552 C67 552 160 618 160 528 L160 95 C160 21 106 17 65 17 L65 0 L366 0 L366 17 C331 17 284 18 284 95 L284 95 Z " />
<glyph glyph-name="two" unicode="2" horiz-adv-x="493" d="M445 185 C423 145 388 128 354 128 L127 128 L39 0 L411 0 L462 185 L445 185 L445 185 Z M235 713 C235 713 64 712 41 525 L57 521 C133 679 410 577 267 332 L285 318 C364 418 406 480 406 546 C406 637 335 713 235 713 L235 713 Z " />
<glyph glyph-name="three" unicode="3" horiz-adv-x="528" d="M334 400 C503 563 376 713 235 713 C235 713 79 713 57 551 L73 547 C111 625 211 630 256 593 C313 547 334 416 167 364 L167 347 C322 326 353 217 357 181 C364 108 348 29 274 12 L274 -7 C372 5 487 71 477 232 C473 293 422 356 334 400 L334 400 Z M156 39 C171 48 183 62 188 83 C198 125 172 166 130 176 C89 186 47 160 38 118 C31 89 42 56 63 41 C103 11 150 -4 212 -8 L212 9 C158 15 147 35 156 39 L156 39 Z " />
<glyph glyph-name="four" unicode="4" horiz-adv-x="547" d="M510 196 L510 266 L406 266 L406 704 L359 713 L261 564 L261 266 L134 266 C117 266 92 267 110 301 L94 311 L29 213 L29 196 L261 196 L261 140 C261 21 218 17 176 17 L176 0 L491 0 L491 17 C449 17 406 19 406 145 L406 196 L510 196 Z " />
<glyph glyph-name="five" unicode="5" horiz-adv-x="535" d="M169 35 C183 43 197 59 201 80 C211 122 185 164 144 173 C102 183 60 157 50 116 C44 87 55 55 75 38 C94 23 129 -2 200 -8 L200 10 C161 15 159 28 169 35 L169 35 Z M471 704 L125 704 L100 573 L428 573 L471 704 Z M74 433 L51 314 C302 348 369 220 381 178 C401 111 373 24 262 10 L262 -8 C386 3 484 79 484 220 C484 305 427 492 74 433 L74 433 Z " />
<glyph glyph-name="six" unicode="6" horiz-adv-x="584" d="M398 680 C379 677 365 666 354 649 C332 614 342 567 377 545 C413 523 459 533 481 569 C497 593 496 626 483 647 C472 664 438 700 377 710 L377 693 C397 688 403 680 398 680 L398 680 Z M358 438 C312 438 231 429 200 356 C201 589 254 674 314 693 L314 710 C169 692 42 547 42 318 C42 131 117 7 266 -8 L266 9 C216 34 202 134 200 317 C216 380 274 396 305 396 C360 396 398 329 398 198 C398 67 379 20 328 9 L328 -8 C452 2 545 74 545 218 C545 328 500 438 358 438 L358 438 Z " />
<glyph glyph-name="seven" unicode="7" horiz-adv-x="556" d="M181 0 L323 0 C323 90 326 314 415 512 L398 512 C238 338 181 148 181 0 L181 0 Z M46 517 L63 517 C84 557 129 575 163 575 L446 575 L521 704 L70 704 L46 517 Z " />
<glyph glyph-name="eight" unicode="8" horiz-adv-x="565" d="M363 415 C447 434 485 507 485 567 C485 654 411 704 306 712 L306 694 C352 684 394 646 394 554 C394 489 383 445 343 426 C228 471 182 523 182 586 C182 644 207 682 244 694 L244 712 C141 702 61 640 61 523 C61 459 102 387 192 330 C125 315 36 238 36 152 C36 41 127 -2 259 -8 L259 9 C184 22 146 83 146 158 C146 258 190 304 215 317 C230 308 236 305 253 296 C314 264 401 213 401 131 C401 63 368 21 321 9 L321 -8 C442 0 531 60 531 202 C531 285 456 370 363 415 L363 415 Z " />
<glyph glyph-name="nine" unicode="9" horiz-adv-x="577" d="M175 25 C194 28 209 39 220 56 C242 91 232 138 197 160 C161 182 115 172 93 136 C77 112 78 79 91 58 C101 41 129 2 204 -7 L204 11 C180 15 170 25 175 25 L175 25 Z M316 712 L316 695 C365 671 379 576 382 393 C366 330 308 309 277 309 C222 309 184 376 184 507 C184 639 202 684 254 695 L254 712 C130 702 37 631 37 487 C37 377 82 267 224 267 C270 267 346 274 382 351 C381 102 364 23 267 11 L267 -7 C447 8 540 154 540 387 C540 574 464 697 316 712 L316 712 Z " />
<glyph glyph-name="colon" unicode="&#x3a;" horiz-adv-x="278" d="M226 79 C226 127 187 165 140 165 C92 165 54 127 54 79 C54 31 92 -7 140 -7 C187 -7 226 31 226 79 L226 79 Z M226 385 C226 432 187 471 140 471 C92 471 54 432 54 385 C54 338 92 299 140 299 C187 299 226 338 226 385 L226 385 Z " />
<glyph glyph-name="semicolon" unicode="&#x3b;" horiz-adv-x="278" d="M226 385 C226 432 188 471 140 471 C92 471 54 432 54 385 C54 337 92 299 140 299 C188 299 226 337 226 385 L226 385 Z M184 -53 C170 -75 140 -104 94 -129 L83 -115 C145 -78 155 -9 139 -7 C119 -5 99 1 83 17 C50 48 50 101 82 134 C114 166 167 166 199 134 C249 84 216 -5 184 -53 L184 -53 Z " />
<glyph glyph-name="less" unicode="&#x3c;" horiz-adv-x="600" d="M195 266 L553 453 L553 547 L46 287 L46 244 L553 -16 L553 77 L195 266 Z " />
<glyph glyph-name="equal" unicode="&#x3d;" horiz-adv-x="613" d="M567 339 L567 419 L56 419 L56 339 L567 339 Z M567 114 L567 194 L56 194 L56 114 L567 114 Z " />
<glyph glyph-name="greater" unicode="&#x3e;" horiz-adv-x="600" d="M47 77 L47 -16 L554 244 L554 287 L47 547 L47 453 L405 266 L47 77 Z " />
<glyph glyph-name="question" unicode="&#x3f;" horiz-adv-x="593" d="M279 164 C232 164 195 127 195 80 C195 33 232 -5 279 -5 C326 -5 364 33 364 80 C364 127 326 164 279 164 L279 164 Z M200 625 C189 640 176 649 158 652 C146 654 145 676 168 690 L162 708 C114 686 88 644 82 618 C76 596 74 570 89 549 C111 518 154 509 184 530 C213 552 221 594 200 625 L200 625 Z M221 728 L226 711 C292 713 354 663 361 573 C370 480 354 434 307 394 C243 341 248 274 254 235 L280 239 C275 299 308 343 362 357 C420 372 512 431 506 577 C500 696 361 761 221 728 L221 728 Z " />
<glyph glyph-name="at" unicode="&#x40;" horiz-adv-x="892" d="M528 624 C291 633 46 460 38 184 C29 -136 271 -203 417 -203 C582 -203 651 -125 651 -125 L641 -110 C641 -110 560 -172 442 -165 C96 -136 160 210 160 210 C183 376 305 573 538 556 C754 540 781 362 781 251 C781 100 684 35 642 35 C612 35 611 63 616 83 C623 119 672 382 672 382 L574 384 C574 384 572 374 569 358 C568 359 548 400 489 400 C328 400 279 242 268 172 C258 101 277 -9 369 -9 C452 -9 499 43 509 56 C504 27 525 -9 572 -9 C650 -9 820 15 839 246 C859 488 700 617 528 624 L528 624 Z M514 87 C514 87 491 49 448 53 C407 56 360 101 382 211 C399 294 447 377 510 377 C569 377 550 264 547 248 C534 181 519 112 514 87 L514 87 Z " />
<glyph glyph-name="A" unicode="A" horiz-adv-x="708" d="M610 90 C610 90 601 116 356 704 L339 704 L271 525 L398 214 L151 214 C65 12 41 19 17 17 L17 0 L263 0 L263 17 C105 9 167 197 167 197 L404 197 L434 124 C434 124 486 17 408 17 L408 0 L694 0 L694 17 C668 19 644 10 610 90 L610 90 Z " />
<glyph glyph-name="B" unicode="B" horiz-adv-x="642" d="M596 179 C596 350 435 361 370 361 C390 361 549 385 549 534 C549 700 433 704 303 704 L303 686 C350 683 410 662 410 536 C410 408 353 374 303 367 L303 348 C368 345 449 325 449 184 C449 30 381 18 303 17 L303 0 C465 1 596 12 596 179 L596 179 Z M37 696 C81 696 95 628 95 566 L95 137 C95 69 80 9 37 9 L37 0 L241 0 L241 704 L37 704 L37 696 Z " />
<glyph glyph-name="C" unicode="C" horiz-adv-x="687" d="M615 210 C591 111 521 25 418 10 L418 -8 C509 -6 579 9 646 53 L632 210 L615 210 Z M418 694 C512 682 564 617 615 495 L632 495 L646 652 C589 698 508 710 418 713 L418 694 Z M40 352 C40 163 160 7 356 -8 L356 10 C267 24 220 105 220 352 C220 599 265 680 356 694 L356 712 C160 697 40 541 40 352 L40 352 Z " />
<glyph glyph-name="D" unicode="D" horiz-adv-x="768" d="M319 704 L319 687 C416 683 545 642 545 349 C545 57 416 21 319 17 L319 0 C513 4 720 66 720 349 C720 633 513 700 319 704 L319 704 Z M37 687 C81 687 112 628 112 566 L112 137 C112 69 80 17 37 17 L37 0 L257 0 L257 704 L37 704 L37 687 Z " />
<glyph glyph-name="E" unicode="E" horiz-adv-x="653" d="M590 218 L573 218 C539 56 360 25 292 18 L292 0 L590 0 L590 218 Z M230 704 L27 704 L27 687 C71 687 85 628 85 566 L85 137 C85 69 69 17 27 17 L27 0 L230 0 L230 704 Z M560 514 L577 514 L577 704 L292 704 L292 686 C361 681 541 654 560 514 L560 514 Z M292 366 L292 345 C337 340 414 321 428 243 L445 243 L445 468 L428 468 C414 389 337 371 292 366 L292 366 Z " />
<glyph glyph-name="F" unicode="F" horiz-adv-x="602" d="M228 137 L228 704 L25 704 L25 687 C69 687 83 628 83 566 L83 137 C83 69 68 17 25 17 L25 0 L314 0 L314 17 C271 17 228 24 228 137 L228 137 Z M290 366 L290 345 C335 340 422 321 435 243 L452 243 L452 468 L435 468 C422 389 335 371 290 366 L290 366 Z M290 686 C360 683 541 660 569 514 L586 514 L586 704 L290 704 L290 686 Z " />
<glyph glyph-name="G" unicode="G" horiz-adv-x="745" d="M222 352 C222 599 265 680 357 694 L357 712 C160 696 39 541 39 352 C39 163 161 7 360 -7 L360 10 C268 23 222 103 222 352 L222 352 Z M438 280 L438 263 C495 263 523 258 523 122 C523 35 510 13 422 9 L422 -8 C515 -5 595 12 651 33 C651 244 664 263 720 263 L720 280 L438 280 Z M604 489 L638 489 L645 660 C589 697 511 711 419 713 L419 695 C520 687 577 632 604 489 L604 489 Z " />
<glyph glyph-name="H" unicode="H" horiz-adv-x="658" d="M637 687 L637 704 L429 704 L429 687 C457 678 453 638 453 561 L453 347 L211 347 L211 561 C211 638 207 678 235 687 L235 704 L26 704 L26 687 C74 678 71 638 71 561 L71 136 C71 54 79 31 26 17 L26 0 L235 0 L235 17 C207 27 211 54 211 136 L211 327 L453 327 L453 136 C453 54 456 27 429 17 L429 0 L637 0 L637 17 C585 31 593 54 593 136 L593 561 C593 638 590 678 637 687 L637 687 Z " />
<glyph glyph-name="I" unicode="I" horiz-adv-x="390" d="M39 704 L39 687 C83 687 124 660 124 598 L124 121 C124 53 82 17 39 17 L39 0 L354 0 L354 17 C312 17 269 53 269 121 L269 598 C269 660 311 687 354 687 L354 704 L39 704 Z " />
<glyph glyph-name="J" unicode="J" horiz-adv-x="443" d="M86 704 L86 687 C168 687 168 661 168 473 L168 182 C168 -35 88 -119 2 -150 L6 -167 C169 -143 317 -59 317 182 L317 595 C317 659 359 687 404 687 L404 704 L86 704 L86 704 Z " />
<glyph glyph-name="K" unicode="K" horiz-adv-x="814" d="M34 704 L34 687 C77 687 105 660 105 598 L105 123 C105 55 76 17 34 17 L34 0 L325 0 L325 17 C282 17 250 55 250 123 L250 598 C250 671 292 687 336 687 L336 704 L34 704 Z M660 82 C660 82 650 95 416 408 C632 685 702 687 769 687 L769 704 L439 704 L439 687 C617 683 445 487 445 487 L307 320 C307 320 350 263 408 181 C513 29 537 0 643 0 L801 0 L801 17 C774 17 709 17 660 82 L660 82 Z " />
<glyph glyph-name="L" unicode="L" horiz-adv-x="667" d="M605 217 L588 217 C560 56 383 25 315 18 L315 0 L605 0 L605 217 Z M253 598 C253 670 303 687 346 687 L346 704 L29 704 L29 687 C72 687 108 659 108 598 L108 129 C108 61 80 17 37 17 L37 0 L253 0 L253 598 Z " />
<glyph glyph-name="M" unicode="M" horiz-adv-x="988" d="M177 253 L160 253 C160 253 160 17 10 17 L10 0 L313 0 L313 17 C175 17 177 253 177 253 L177 253 Z M884 121 L884 599 C884 660 918 687 961 687 L961 704 L740 704 L740 121 C740 53 710 17 668 17 L668 0 L970 0 L970 17 C927 17 884 53 884 121 L884 121 Z M47 704 L47 687 C72 685 122 685 160 618 L457 -9 L474 -9 L549 178 L299 704 L47 704 Z " />
<glyph glyph-name="N" unicode="N" horiz-adv-x="840" d="M184 255 L167 255 C167 255 168 17 17 17 L17 0 L321 0 L321 17 C183 17 184 255 184 255 L184 255 Z M9 704 L9 687 C35 685 64 696 128 616 L621 0 L674 0 L674 186 L254 704 L9 704 Z M520 687 C658 688 657 450 657 450 L674 450 C674 450 672 688 823 687 L823 704 L520 704 L520 687 Z " />
<glyph glyph-name="O" unicode="O" horiz-adv-x="776" d="M212 347 C212 595 257 680 353 693 L353 711 C154 695 41 535 41 347 C41 158 154 7 353 -8 L353 9 C257 22 212 98 212 347 L212 347 Z M731 347 C731 535 617 696 416 711 L416 694 C513 680 558 596 558 347 C558 96 513 21 416 9 L416 -8 C617 6 731 157 731 347 L731 347 Z " />
<glyph glyph-name="P" unicode="P" horiz-adv-x="651" d="M454 502 C454 341 389 320 304 317 L304 300 C489 303 618 343 618 502 C618 661 489 700 304 704 L304 687 C389 684 454 664 454 502 L454 502 Z M242 704 L25 704 L25 687 C69 687 97 634 97 572 L97 137 C97 69 73 17 31 17 L31 0 L360 0 L360 17 C317 17 242 24 242 137 L242 704 Z " />
<glyph glyph-name="Q" unicode="Q" horiz-adv-x="771" d="M731 347 C731 536 617 697 416 712 L416 694 C513 681 558 596 558 347 C558 97 513 21 416 10 L416 -8 C617 6 731 157 731 347 L731 347 Z M212 347 C212 595 257 680 354 694 L354 711 C154 696 41 535 41 347 C41 158 154 7 354 -8 L354 10 C257 22 212 98 212 347 L212 347 Z M615 -116 L444 -58 C444 -58 271 17 91 -135 L104 -148 C125 -132 161 -95 238 -128 L324 -164 C488 -233 587 -260 664 -194 L771 -102 L759 -89 C739 -103 694 -143 615 -116 L615 -116 Z " />
<glyph glyph-name="R" unicode="R" horiz-adv-x="728" d="M604 115 C555 295 475 339 410 332 C529 346 605 391 605 513 C605 671 479 701 297 704 L297 687 C379 685 442 668 442 513 C442 358 379 340 297 338 L297 319 C325 314 382 295 407 218 C477 1 451 1 629 0 L721 0 L721 17 C695 19 624 39 604 115 L604 115 Z M235 704 L18 704 L18 687 C62 687 90 660 90 598 L90 121 C90 53 61 17 18 17 L18 0 L309 0 L309 17 C267 17 235 53 235 121 L235 704 Z " />
<glyph glyph-name="S" unicode="S" horiz-adv-x="616" d="M63 245 L46 245 L46 53 C46 53 117 -2 288 -8 L288 10 C135 29 84 188 63 245 L63 245 Z M416 377 L262 479 C146 555 165 672 247 695 L247 712 C115 703 72 637 72 637 C-11 528 42 428 184 339 L338 242 C447 162 432 34 351 9 L351 -8 C487 2 528 73 528 73 C603 182 548 290 416 377 L416 377 Z M519 497 L536 497 L536 665 C536 665 460 707 310 712 L310 694 C447 677 501 546 519 497 L519 497 Z " />
<glyph glyph-name="T" unicode="T" horiz-adv-x="698" d="M19 704 L19 503 L36 503 C44 682 256 687 256 687 L275 687 L275 121 C275 53 232 17 190 17 L190 0 L505 0 L505 17 C463 17 420 53 420 121 L420 687 L439 687 C439 687 652 682 660 503 L677 503 L677 704 L19 704 L19 704 Z " />
<glyph glyph-name="U" unicode="U" horiz-adv-x="752" d="M405 51 C310 51 237 121 237 239 L237 599 C237 671 287 687 330 687 L330 704 L12 704 L12 687 C56 687 92 660 92 599 L92 246 C92 83 204 -9 340 -9 C428 -9 587 26 587 240 L570 240 C570 114 481 51 405 51 L405 51 Z M434 687 C572 688 570 537 570 537 L587 537 C587 537 585 688 736 687 L736 704 L434 704 L434 687 Z " />
<glyph glyph-name="V" unicode="V" horiz-adv-x="775" d="M331 687 L331 704 L13 704 L13 687 C39 687 75 686 108 606 C108 606 119 589 364 0 L381 0 L449 169 L287 571 C287 571 249 687 331 687 L331 687 Z M471 687 C636 687 545 453 545 453 L561 448 C662 687 708 687 754 687 L754 704 L471 704 L471 687 Z " />
<glyph glyph-name="W" unicode="W" horiz-adv-x="1122" d="M333 687 L333 704 L14 704 L14 687 C40 687 74 687 106 606 L357 0 L374 0 L441 183 L288 571 C288 571 245 687 333 687 L333 687 Z M695 687 L695 704 L376 704 L376 687 C402 687 437 687 468 606 L713 0 L730 0 L800 181 L650 571 C650 571 605 687 695 687 L695 687 Z M812 687 C982 687 887 453 887 453 L903 448 C995 663 1061 687 1107 687 L1107 704 L812 704 L812 687 Z " />
<glyph glyph-name="X" unicode="X" horiz-adv-x="830" d="M322 203 L308 219 C150 8 78 17 54 17 L54 0 L354 0 L354 17 C187 17 322 203 322 203 L322 203 Z M692 98 L352 572 C304 639 322 687 367 687 L367 704 L14 704 L14 687 C40 687 80 683 140 605 L483 129 C483 129 549 35 481 17 L481 0 L811 0 L811 17 C785 17 747 26 692 98 L692 98 Z M509 507 L522 491 C673 689 769 687 795 687 L795 704 L467 704 L467 687 C638 687 509 507 509 507 L509 507 Z " />
<glyph glyph-name="Y" unicode="Y" horiz-adv-x="771" d="M456 121 L456 327 L305 574 C237 689 307 688 328 688 L328 704 L9 704 L9 688 C34 688 72 685 116 609 C116 609 164 536 311 276 L311 121 C311 53 268 17 226 17 L226 0 L541 0 L541 17 C499 17 456 53 456 121 L456 121 Z M458 687 C602 687 510 481 510 481 L522 466 C634 685 732 687 758 687 L758 704 L458 704 L458 687 Z " />
<glyph glyph-name="Z" unicode="Z" horiz-adv-x="617" d="M75 704 L56 502 L76 502 C111 603 241 687 374 687 L385 704 L75 704 Z M271 17 L262 0 L552 0 L577 233 L559 233 C537 172 424 17 271 17 L271 17 Z M594 704 L431 704 L24 0 L215 0 L594 704 Z " />
<glyph glyph-name="bracketleft" unicode="&#x5b;" horiz-adv-x="333" d="M113 735 L113 -146 L318 -146 L318 -129 C266 -129 212 -126 212 -53 L212 633 C212 717 264 718 318 718 L318 735 L113 735 Z " />
<glyph glyph-name="backslash" unicode="&#x5c;" horiz-adv-x="434" d="M325 -20 L416 -20 L105 735 L14 735 L325 -20 Z " />
<glyph glyph-name="bracketright" unicode="&#x5d;" horiz-adv-x="333" d="M11 735 L11 718 C65 718 117 717 117 633 L117 -53 C117 -126 63 -129 11 -129 L11 -146 L216 -146 L216 735 L11 735 Z " />
<glyph glyph-name="asciicircum" unicode="&#x5e;" horiz-adv-x="575" d="M295 704 L272 704 L89 376 L134 376 L283 532 L435 376 L480 376 L295 704 Z " />
<glyph glyph-name="underscore" unicode="&#x5f;" horiz-adv-x="560" d="M0 -69 L0 -130 L560 -130 L560 -69 L0 -69 Z " />
<glyph glyph-name="grave" unicode="&#x60;" horiz-adv-x="350" d="M116 720 L4 685 L248 557 L285 557 L116 720 Z " />
<glyph glyph-name="a" unicode="a" horiz-adv-x="527" d="M166 303 C192 321 199 356 181 382 C172 395 159 402 144 404 C139 404 140 414 155 426 L148 442 C105 416 93 393 84 378 C74 361 75 337 87 318 C105 292 140 286 166 303 L166 303 Z M474 52 C425 52 426 122 426 122 L426 271 C426 389 390 471 259 471 C259 471 223 473 185 460 L192 445 C252 463 300 412 300 318 L300 256 C125 212 41 202 41 93 C41 -9 156 -9 156 -9 C205 -9 248 15 275 40 L263 57 C255 53 245 52 234 52 C169 52 169 118 169 118 C169 169 202 216 300 238 L300 81 C300 -9 401 -9 401 -9 C464 -9 510 30 518 62 L501 69 C495 52 474 52 474 52 L474 52 Z " />
<glyph glyph-name="b" unicode="b" horiz-adv-x="593" d="M343 471 C295 471 221 446 189 386 L189 746 L14 709 L14 692 C55 677 65 662 65 628 L65 5 C65 -11 127 11 163 42 C192 12 236 -5 288 -9 L288 9 C237 18 189 63 189 175 L189 302 C189 373 225 429 293 429 C375 429 412 377 412 217 C412 79 387 20 329 10 L329 -9 C459 -2 555 71 555 225 C555 383 455 471 343 471 L343 471 Z " />
<glyph glyph-name="c" unicode="c" horiz-adv-x="500" d="M357 433 C342 425 330 412 326 393 C316 358 337 321 373 312 C409 302 445 325 455 360 C462 384 452 412 435 427 C419 440 383 465 325 470 L325 452 C351 447 364 436 357 433 L357 433 Z M450 129 C427 96 348 69 298 80 C229 95 171 143 171 251 C171 396 240 441 283 451 L283 470 C126 460 45 343 45 233 C45 116 134 -9 265 -9 C390 -9 450 69 464 120 L450 129 Z " />
<glyph glyph-name="d" unicode="d" horiz-adv-x="589" d="M523 97 L523 746 L348 709 L348 692 C389 677 399 667 399 632 L399 441 C372 456 338 466 300 469 L300 452 C351 442 399 397 399 287 L399 146 C399 76 357 26 289 26 C208 26 175 86 175 247 C175 383 201 441 259 452 L259 470 C129 463 33 391 33 238 C33 80 133 -9 246 -9 C293 -9 367 13 399 72 L399 10 C399 10 399 -12 427 -8 L574 14 L574 31 C533 36 523 48 523 97 L523 97 Z " />
<glyph glyph-name="e" unicode="e" horiz-adv-x="524" d="M290 76 C223 91 173 142 165 240 L483 240 C483 389 420 464 287 470 L287 453 C331 436 361 364 361 257 L165 257 C165 342 197 434 246 453 L246 469 C121 459 36 361 36 229 C36 112 126 -9 257 -9 C391 -9 450 70 466 122 L449 131 C424 84 344 64 290 76 L290 76 Z " />
<glyph glyph-name="f" unicode="f" horiz-adv-x="334" d="M284 743 L284 726 C306 721 314 709 302 707 C287 704 274 695 267 680 C252 650 264 615 294 600 C323 586 359 598 374 627 C384 648 381 677 369 695 C360 710 328 736 284 743 L284 743 Z M243 727 L243 744 C135 739 77 680 77 462 L12 462 L13 445 L77 445 L77 113 C77 62 76 28 38 17 L38 0 L243 0 L243 17 C207 27 202 58 202 113 L202 445 L306 445 L309 462 L202 462 C202 627 217 705 243 727 L243 727 Z " />
<glyph glyph-name="g" unicode="g" horiz-adv-x="572" d="M555 468 C541 484 518 490 499 486 C476 482 434 469 405 427 C376 451 337 467 282 470 L282 451 C314 444 337 413 337 321 C337 227 316 197 282 190 L282 171 C392 179 454 244 454 321 C454 357 442 390 418 415 C435 436 459 441 458 433 C456 419 460 405 470 393 C491 370 527 367 550 388 C574 409 576 445 555 468 L555 468 Z M104 -160 C104 -160 50 -101 88 -52 L76 -40 C30 -76 -7 -138 22 -197 C59 -275 225 -287 362 -221 L354 -206 C263 -247 155 -222 104 -160 L104 -160 Z M327 92 L187 92 C81 92 142 174 169 186 C188 177 212 173 241 171 L241 190 C208 197 186 227 186 321 C186 416 204 445 241 452 L241 470 C131 463 69 397 69 321 C69 268 101 216 151 194 C54 157 55 66 55 66 C55 -36 172 -42 214 -42 L350 -42 C423 -42 432 -95 432 -95 C432 -95 438 -146 389 -185 L398 -201 C488 -143 493 -67 493 -67 C512 84 396 92 327 92 L327 92 Z " />
<glyph glyph-name="h" unicode="h" horiz-adv-x="539" d="M191 123 L191 746 L16 704 L16 687 C56 672 66 662 66 627 L66 123 C66 72 64 29 26 18 L26 0 L232 0 L232 18 C196 27 191 68 191 123 L191 123 Z M482 123 L482 316 C482 436 436 471 356 471 C307 471 245 437 211 397 L224 376 C240 389 258 396 274 396 C332 396 358 369 358 312 L358 123 C358 72 356 28 318 17 L318 0 L523 0 L523 17 C488 26 482 68 482 123 L482 123 Z " />
<glyph glyph-name="i" unicode="i" horiz-adv-x="282" d="M200 619 C200 657 169 687 131 687 C93 687 63 657 63 619 C63 581 93 551 131 551 C169 551 200 581 200 619 L200 619 Z M203 122 L203 471 L28 431 L28 414 C69 392 79 378 79 344 L79 122 C79 71 77 29 39 17 L39 0 L244 0 L244 17 C208 27 203 66 203 122 L203 122 Z " />
<glyph glyph-name="j" unicode="j" horiz-adv-x="281" d="M79 27 C79 27 79 -196 18 -211 L18 -228 C117 -203 203 -139 203 50 L203 471 L29 431 L29 414 C70 392 79 374 79 340 L79 27 Z M201 619 C201 657 170 687 132 687 C95 687 64 657 64 619 C64 581 95 551 132 551 C170 551 201 581 201 619 L201 619 Z " />
<glyph glyph-name="k" unicode="k" horiz-adv-x="559" d="M185 121 L185 746 L10 709 L10 692 C50 677 60 662 60 627 L60 121 C60 70 58 28 20 17 L20 0 L226 0 L226 17 C190 26 185 66 185 121 L185 121 Z M452 67 C452 67 450 67 302 276 C435 440 537 443 555 445 L555 462 L312 462 L312 445 C442 449 299 304 299 304 L205 202 C205 202 231 162 261 118 C328 18 337 0 406 0 L547 0 L547 17 C530 18 485 21 452 67 L452 67 Z " />
<glyph glyph-name="l" unicode="l" horiz-adv-x="265" d="M198 121 L198 746 L23 709 L23 692 C63 677 73 662 73 627 L73 121 C73 70 71 28 33 17 L33 0 L238 0 L238 17 C203 26 198 66 198 121 L198 121 Z " />
<glyph glyph-name="m" unicode="m" horiz-adv-x="795" d="M185 120 L185 471 L10 431 L10 414 C51 392 60 374 60 339 L60 120 C60 69 59 28 21 17 L21 0 L226 0 L226 17 C191 27 185 65 185 120 L185 120 Z M739 122 L739 319 C739 440 691 471 613 471 C563 471 513 437 483 396 L497 380 C510 391 526 399 541 399 C586 399 614 372 614 316 L614 122 C614 71 612 28 574 17 L574 0 L780 0 L780 17 C744 26 739 67 739 122 L739 122 Z M462 122 L462 314 C462 383 453 471 336 471 C286 471 240 437 209 396 L221 380 C234 391 250 399 265 399 C310 399 337 372 337 316 L337 122 C337 71 335 28 297 17 L297 0 L503 0 L503 17 C467 26 462 67 462 122 L462 122 Z " />
<glyph glyph-name="n" unicode="n" horiz-adv-x="539" d="M185 120 L185 471 L10 431 L10 414 C51 392 60 381 60 346 L60 120 C60 69 59 28 21 17 L21 0 L226 0 L226 17 C191 27 185 65 185 120 L185 120 Z M476 122 L476 319 C476 440 428 471 350 471 C304 471 253 443 218 407 L230 387 C243 394 257 399 270 399 C320 399 351 364 351 316 L351 122 C351 71 349 28 311 17 L311 0 L517 0 L517 17 C481 26 476 67 476 122 L476 122 Z " />
<glyph glyph-name="o" unicode="o" horiz-adv-x="556" d="M517 231 C517 357 439 461 299 470 L299 452 C354 444 369 393 369 231 C369 69 354 18 299 10 L299 -8 C439 1 517 106 517 231 L517 231 Z M188 231 C188 393 203 444 258 452 L258 470 C119 461 41 357 41 231 C41 106 119 1 258 -8 L258 10 C203 18 188 69 188 231 L188 231 Z " />
<glyph glyph-name="p" unicode="p" horiz-adv-x="603" d="M343 471 C296 471 223 449 191 390 L191 471 L17 431 L17 414 C57 399 67 392 67 358 L67 -151 C67 -202 65 -237 27 -248 L27 -265 L232 -265 L232 -248 C197 -239 191 -207 191 -151 L191 22 C216 5 250 -5 287 -8 L287 9 C242 18 198 54 191 143 L191 326 C198 386 234 434 294 434 C375 434 413 379 413 218 C413 81 387 20 328 9 L328 -9 C459 -2 556 73 556 227 C556 384 456 471 343 471 L343 471 Z " />
<glyph glyph-name="q" unicode="q" horiz-adv-x="591" d="M522 -152 L522 462 C522 477 466 464 428 434 C398 456 357 469 311 470 L311 451 C358 441 397 395 397 287 L397 137 C397 67 365 16 297 16 C216 16 184 87 184 248 C184 387 210 443 270 452 L270 470 C144 460 53 388 53 239 C53 81 153 -9 266 -9 C304 -9 360 5 397 42 L397 -152 C397 -203 395 -237 358 -248 L358 -265 L563 -265 L563 -248 C527 -239 522 -207 522 -152 L522 -152 Z " />
<glyph glyph-name="r" unicode="r" horiz-adv-x="425" d="M190 122 L190 471 L14 431 L14 414 C55 393 64 378 64 344 L64 122 C64 70 63 29 24 17 L24 0 L231 0 L231 17 C195 27 190 66 190 122 L190 122 Z M308 466 C287 457 254 445 211 388 L221 374 C246 397 268 397 268 389 C268 371 276 354 291 340 C323 313 369 317 396 348 C423 378 420 426 389 453 C367 471 329 475 308 466 L308 466 Z " />
<glyph glyph-name="s" unicode="s" horiz-adv-x="444" d="M356 329 L373 329 L373 441 C373 441 329 467 230 470 L230 452 C316 441 344 361 356 329 L356 329 Z M303 259 L202 322 C125 371 138 437 188 451 L188 470 C103 464 70 421 70 421 C15 349 41 268 138 209 L239 148 C307 103 305 27 253 11 L253 -8 C339 -2 372 45 372 45 C422 117 392 204 303 259 L303 259 Z M68 163 L51 163 L51 37 C51 37 104 -4 211 -9 L211 9 C111 22 82 126 68 163 L68 163 Z " />
<glyph glyph-name="t" unicode="t" horiz-adv-x="354" d="M269 62 C219 62 195 91 195 147 L195 445 L310 445 L314 462 L195 462 L195 617 L70 596 L70 462 L17 462 L20 445 L70 445 L70 144 C70 23 117 -9 196 -9 C263 -9 324 41 344 88 L329 97 C320 82 298 62 269 62 L269 62 Z " />
<glyph glyph-name="u" unicode="u" horiz-adv-x="561" d="M493 92 L493 471 L321 452 L321 435 C372 429 368 416 368 355 L368 11 C368 11 369 -12 396 -8 L544 18 L544 35 C502 40 493 44 493 92 L493 92 Z M331 81 C314 68 296 64 281 64 C223 64 197 91 197 147 L197 471 L17 452 L17 435 C75 427 73 418 73 358 L73 144 C73 24 120 -9 199 -9 C246 -9 307 21 343 61 C343 61 331 81 331 81 L331 81 Z " />
<glyph glyph-name="v" unicode="v" horiz-adv-x="522" d="M327 462 L327 445 C424 445 385 324 376 299 L392 290 C456 444 499 445 522 445 L522 462 L327 462 Z M239 445 L239 462 L3 462 L3 445 C21 445 47 445 71 392 C71 392 80 375 257 -9 L273 -9 L330 134 L220 370 C220 370 183 445 239 445 L239 445 Z " />
<glyph glyph-name="w" unicode="w" horiz-adv-x="814" d="M252 445 L252 462 L16 462 L16 445 C32 445 57 445 79 402 C79 402 93 375 270 -9 L287 -9 L342 138 L227 380 C227 380 193 445 252 445 L252 445 Z M610 462 L610 445 C704 445 677 337 666 303 L682 290 C738 443 788 445 806 445 L806 462 L610 462 Z M534 445 L534 462 L297 462 L297 445 C314 445 338 445 361 402 L551 -9 L567 -9 L623 137 L508 380 C508 380 471 445 534 445 L534 445 Z " />
<glyph glyph-name="x" unicode="x" horiz-adv-x="547" d="M331 340 L341 327 C442 453 503 443 517 445 L517 462 L291 462 L291 445 C400 445 331 340 331 340 L331 340 Z M194 122 L181 137 C91 17 38 17 23 17 L23 0 L249 0 L249 17 C126 17 194 122 194 122 L194 122 Z M452 59 L240 383 C207 430 227 445 251 445 L251 462 L12 462 L12 445 C27 443 46 452 81 410 L295 87 C295 87 345 17 296 17 L296 0 L540 0 L540 17 C525 17 481 17 452 59 L452 59 Z " />
<glyph glyph-name="y" unicode="y" horiz-adv-x="541" d="M330 462 L330 445 C428 446 396 336 383 303 L395 289 C459 443 505 445 526 445 L526 462 L330 462 Z M337 136 L221 384 C221 384 195 445 247 445 L247 462 L11 462 L11 445 C26 445 58 445 74 406 L263 -9 L282 -9 L337 136 Z M242 -114 C216 -182 186 -210 167 -225 C149 -240 114 -246 90 -235 C55 -219 40 -178 55 -143 C71 -108 112 -92 147 -108 C165 -116 176 -132 181 -149 C185 -161 208 -156 224 -114 L242 -114 Z " />
<glyph glyph-name="z" unicode="z" horiz-adv-x="463" d="M65 462 L60 330 L77 330 C97 389 143 434 247 443 L257 462 L65 462 Z M430 462 L298 462 L29 0 L177 0 L430 462 Z M228 20 L218 0 L399 0 L408 152 L391 152 C378 116 344 36 228 20 L228 20 Z " />
<glyph glyph-name="braceleft" unicode="&#x7b;" horiz-adv-x="333" d="M218 3 L218 147 C218 256 159 280 86 280 C159 280 218 314 218 424 L218 568 C218 672 236 703 277 718 L277 735 C198 724 128 683 128 568 L128 451 C128 293 85 297 49 288 L49 271 C86 264 128 268 128 120 L128 3 C128 -112 198 -153 277 -164 L277 -147 C236 -133 218 -101 218 3 L218 3 Z " />
<glyph glyph-name="bar" unicode="&#x7c;" horiz-adv-x="222" d="M73 -164 L149 -164 L149 735 L73 735 L73 -164 Z " />
<glyph glyph-name="braceright" unicode="&#x7d;" horiz-adv-x="333" d="M112 3 C112 -101 94 -133 53 -147 L53 -164 C132 -153 202 -112 202 3 L202 120 C202 268 244 264 281 271 L281 288 C245 297 202 293 202 451 L202 568 C202 683 132 724 53 735 L53 718 C94 703 112 672 112 568 L112 424 C112 314 171 280 244 280 C171 280 112 256 112 147 L112 3 Z " />
<glyph glyph-name="asciitilde" unicode="&#x7e;" horiz-adv-x="600" d="M348 196 C348 196 468 156 540 330 L525 336 C499 281 409 275 375 288 L255 331 C255 331 131 373 59 199 L75 192 C101 247 194 251 228 239 L348 196 Z " />
<glyph glyph-name="uni007F" unicode="&#x7f;" d="" />
<glyph glyph-name="uni00A0" unicode="&#xa0;" horiz-adv-x="265" d="" />
<glyph glyph-name="exclamdown" unicode="&#xa1;" horiz-adv-x="319" d="M130 339 L96 -175 L226 -175 L194 339 L130 339 Z M88 495 C88 453 121 420 163 420 C204 420 237 453 237 495 C237 536 204 569 163 569 C121 569 88 536 88 495 L88 495 Z " />
<glyph glyph-name="cent" unicode="&#xa2;" horiz-adv-x="533" d="M317 82 C253 100 201 148 201 251 C201 400 274 444 317 453 L317 82 Z M480 129 C458 97 384 71 334 78 L334 593 L317 593 L317 471 C157 463 75 344 75 233 C75 116 148 -9 317 -9 L317 -118 L334 -118 L334 -9 C432 4 481 74 494 120 L480 129 Z M465 427 C450 440 416 463 361 469 L361 451 C383 446 394 436 387 433 C372 425 360 412 356 393 C346 358 367 321 403 312 C439 302 475 325 485 360 C492 384 482 412 465 427 L465 427 Z " />
<glyph glyph-name="sterling" unicode="&#xa3;" horiz-adv-x="670" d="M609 141 C599 105 528 80 453 104 L379 127 C412 187 416 259 374 325 L347 362 L518 362 L518 379 L337 379 C189 642 272 746 413 720 L416 735 C279 775 56 663 179 379 L93 379 L93 362 L186 362 C199 338 225 300 241 275 C269 232 289 191 289 156 L252 168 C53 232 21 110 36 64 L55 69 C43 113 91 171 183 132 C212 119 240 103 277 81 C251 39 209 9 143 8 L143 -9 C216 -9 276 4 322 53 C392 13 463 -22 523 -4 C523 -4 627 25 626 137 L609 141 Z M443 709 C459 702 474 689 460 689 C442 689 424 686 410 671 C382 643 382 597 411 569 C440 541 486 541 513 570 C533 590 539 621 531 644 C519 671 502 697 450 722 L443 709 Z " />
<glyph glyph-name="currency" unicode="&#xa4;" horiz-adv-x="612" d="M545 345 C545 397 529 446 501 485 L590 573 L532 631 L443 543 C404 571 355 587 304 587 C252 587 204 571 164 543 L76 631 L18 573 L106 485 C79 446 62 397 62 345 C62 293 79 246 106 206 L18 118 L76 59 L164 148 C204 120 252 104 304 104 C355 104 404 120 443 148 L532 59 L590 118 L501 206 C529 246 545 293 545 345 L545 345 Z M304 190 C218 190 148 260 148 345 C148 431 218 501 304 501 C390 501 459 431 459 345 C459 260 390 190 304 190 L304 190 Z " />
<glyph glyph-name="yen" unicode="&#xa5;" horiz-adv-x="702" d="M269 574 C201 689 271 688 292 688 L292 704 L-27 704 L-27 688 C-2 688 36 685 80 609 C80 609 121 545 246 327 L89 327 L89 310 L255 310 L275 276 L275 238 L89 238 L89 221 L275 221 L275 121 C275 53 232 17 190 17 L190 0 L505 0 L505 17 C463 17 420 53 420 121 L420 221 L585 221 L585 238 L420 238 L420 310 L585 310 L585 327 L420 327 L269 574 Z M422 704 L422 687 C566 687 477 483 477 483 L486 466 C598 685 696 687 722 687 L722 704 L422 704 Z " />
<glyph glyph-name="brokenbar" unicode="&#xa6;" horiz-adv-x="222" d="M152 735 L71 735 L71 360 L152 360 L152 735 Z M152 186 L71 186 L71 -191 L152 -191 L152 186 Z " />
<glyph glyph-name="section" unicode="&#xa7;" horiz-adv-x="556" d="M191 -224 C207 -219 223 -210 231 -194 C246 -162 232 -124 200 -109 C167 -94 129 -108 115 -140 C104 -162 108 -190 122 -207 C134 -221 171 -246 226 -252 L226 -235 C200 -232 185 -226 191 -224 L191 -224 Z M356 687 C341 682 334 675 326 659 C311 627 325 589 357 574 C390 559 427 573 443 605 C453 627 449 655 435 672 C423 687 386 712 333 718 L333 700 C357 696 362 689 356 687 L356 687 Z M343 101 C343 101 269 144 223 174 C152 222 42 285 189 384 C196 378 205 371 214 365 C214 365 289 320 334 290 C405 243 520 182 378 76 C367 85 356 94 343 101 L343 101 Z M395 404 L271 482 C207 522 188 565 193 611 C197 656 226 692 270 703 L270 720 C202 716 119 687 108 568 C102 505 122 445 173 398 C-17 273 48 135 162 61 L286 -19 C350 -61 361 -100 356 -146 C352 -189 328 -226 288 -237 L288 -254 C359 -250 446 -221 457 -103 C464 -42 434 23 393 62 C577 182 511 331 395 404 L395 404 Z " />
<glyph glyph-name="dieresis" unicode="&#xa8;" horiz-adv-x="292" d="M110 646 C110 678 83 704 51 704 C18 704 -9 678 -9 646 C-9 613 18 586 51 586 C83 586 110 613 110 646 L110 646 Z M298 646 C298 678 271 704 239 704 C206 704 180 678 180 646 C180 613 206 586 239 586 C271 586 298 613 298 646 L298 646 Z " />
<glyph glyph-name="copyright" unicode="&#xa9;" horiz-adv-x="815" d="M407 746 C198 746 30 577 30 369 C30 161 198 -8 407 -8 C615 -8 784 161 784 369 C784 577 615 746 407 746 L407 746 Z M407 68 C242 68 107 204 107 369 C107 534 242 671 407 671 C571 671 706 534 706 369 C706 204 571 68 407 68 L407 68 Z M525 276 C509 188 457 173 404 173 C358 173 310 204 310 359 C310 514 356 546 404 546 C453 546 509 531 525 443 L542 443 L547 529 C512 557 462 563 404 563 C283 563 208 472 208 359 C208 247 283 156 404 156 C464 156 505 163 547 191 L542 276 L525 276 Z " />
<glyph glyph-name="ordfeminine" unicode="&#xaa;" horiz-adv-x="319" d="M156 513 C151 501 140 488 122 488 C87 488 87 520 87 520 C87 547 105 565 156 577 C156 577 156 514 156 513 L156 513 Z M247 486 C222 484 222 523 222 523 L222 601 C222 662 204 705 135 705 C135 705 106 708 82 695 C57 682 48 667 43 656 C39 647 38 634 45 625 C54 612 73 608 86 618 C99 626 103 645 94 658 C90 665 83 669 74 669 C71 669 73 675 87 681 C124 697 156 679 156 625 L156 594 C64 571 21 565 21 507 C21 454 81 454 81 454 C118 454 150 471 157 491 C162 454 210 454 210 454 C247 454 267 473 270 491 L257 496 C255 486 247 486 247 486 L247 486 Z " />
<glyph glyph-name="guillemotleft" unicode="&#xab;" horiz-adv-x="610" d="M318 505 L87 266 L318 33 L318 72 L195 266 L318 466 L318 505 Z M522 505 L291 266 L522 33 L522 72 L400 266 L522 466 L522 505 Z " />
<glyph glyph-name="logicalnot" unicode="&#xac;" horiz-adv-x="653" d="M41 399 L41 317 L524 317 L524 79 L607 79 L607 399 L41 399 Z " />
<glyph glyph-name="uni00AD" unicode="&#xad;" horiz-adv-x="444" d="M379 208 L379 301 L64 301 L64 208 L379 208 Z " />
<glyph glyph-name="registered" unicode="&#xae;" horiz-adv-x="819" d="M408 746 C200 746 31 577 31 369 C31 161 200 -8 408 -8 C616 -8 785 161 785 369 C785 577 616 746 408 746 L408 746 Z M408 70 C243 70 109 204 109 369 C109 534 243 669 408 669 C573 669 707 534 707 369 C707 204 573 70 408 70 L408 70 Z M557 247 C531 343 488 369 453 365 C517 373 558 397 558 462 C558 552 483 564 376 564 L243 564 L243 547 C267 547 282 541 282 507 L282 260 C282 223 266 204 243 204 L243 187 L399 187 L399 204 C376 204 359 223 359 260 L359 356 L385 356 C385 356 435 356 452 304 C490 188 475 188 570 187 L620 187 L620 204 C605 204 568 206 557 247 L557 247 Z M376 373 L359 373 L359 547 L376 547 C428 547 470 547 470 462 C470 373 428 373 376 373 L376 373 Z " />
<glyph glyph-name="macron" unicode="&#xaf;" horiz-adv-x="360" d="M377 587 L377 656 L-16 656 L-16 587 L377 587 Z " />
<glyph glyph-name="degree" unicode="&#xb0;" horiz-adv-x="381" d="M187 737 C116 737 57 679 57 607 C57 536 116 479 187 479 C258 479 317 536 317 607 C317 679 258 737 187 737 L187 737 Z M277 607 C277 557 237 518 188 518 C138 518 97 557 97 607 C97 656 138 696 188 696 C237 696 277 656 277 607 L277 607 Z " />
<glyph glyph-name="plusminus" unicode="&#xb1;" horiz-adv-x="608" d="M340 378 L340 535 L260 535 L260 378 L41 378 L41 297 L260 297 L260 140 L340 140 L340 297 L560 297 L560 378 L340 378 Z M41 0 L560 0 L560 80 L41 80 L41 0 Z " />
<glyph glyph-name="twosuperior" unicode="&#xb2;" horiz-adv-x="270" d="M207 464 C197 446 181 438 166 438 L89 438 C89 438 127 495 149 525 C186 570 199 599 199 629 C199 670 167 704 121 704 C121 704 39 705 29 619 L45 616 C79 688 201 643 135 531 L31 379 L201 379 L224 464 L207 464 Z " />
<glyph glyph-name="threesuperior" unicode="&#xb3;" horiz-adv-x="276" d="M236 485 C234 512 214 546 171 561 C247 635 189 704 124 704 C124 704 51 704 42 630 L59 628 C76 664 112 666 134 649 C161 628 170 573 94 550 L94 532 C165 523 176 480 179 464 C186 431 167 388 127 388 C91 388 82 395 87 397 C97 401 101 408 104 417 C108 436 96 455 77 460 C58 464 39 452 35 433 C32 420 37 405 47 398 C67 382 94 372 127 372 C168 372 240 403 236 485 L236 485 Z " />
<glyph glyph-name="acute" unicode="&#xb4;" horiz-adv-x="372" d="M87 558 L124 558 L368 686 L256 721 L87 558 Z " />
<glyph glyph-name="mu" unicode="&#xb5;" horiz-adv-x="557" d="M336 64 L325 81 C308 68 289 64 275 64 C217 64 191 91 191 147 L191 471 L11 452 L11 435 C69 427 67 418 67 358 L67 -245 C67 -245 67 -269 96 -264 L243 -238 L243 -221 C201 -217 191 -206 191 -157 L191 -9 C242 -9 307 13 336 64 L336 64 Z M487 92 L487 471 L315 452 L315 435 C366 429 362 416 362 355 L362 11 C362 11 363 -12 390 -8 L538 18 L538 35 C496 40 487 44 487 92 L487 92 Z " />
<glyph glyph-name="paragraph" unicode="&#xb6;" horiz-adv-x="657" d="M581 687 L581 704 L429 704 L429 -265 L574 -265 L574 -248 C526 -248 499 -179 499 -101 L499 545 C499 615 531 687 581 687 L581 687 Z M288 704 L287 704 C167 703 37 665 37 500 C37 334 151 300 287 300 L287 -101 C287 -231 201 -248 153 -248 L153 -265 L358 -265 L358 704 L288 704 Z " />
<glyph glyph-name="periodcentered" unicode="&#xb7;" horiz-adv-x="278" d="M198 299 C198 332 171 359 138 359 C105 359 78 332 78 299 C78 266 105 239 138 239 C171 239 198 266 198 299 L198 299 Z " />
<glyph glyph-name="cedilla" unicode="&#xb8;" horiz-adv-x="278" d="M98 -66 L89 -93 C165 -81 187 -144 187 -162 C188 -193 169 -216 137 -216 C109 -216 107 -210 109 -208 C113 -205 116 -201 117 -194 C120 -176 110 -161 93 -157 C76 -153 59 -163 55 -180 C53 -192 58 -205 66 -211 C74 -218 100 -232 137 -232 C170 -232 233 -216 242 -149 C248 -98 204 -34 98 -66 L98 -66 Z " />
<glyph glyph-name="onesuperior" unicode="&#xb9;" horiz-adv-x="232" d="M150 435 L150 704 L134 704 L39 639 L51 622 C51 622 89 646 89 609 L89 435 C89 401 63 397 43 397 L43 380 L190 380 L190 397 C173 397 150 400 150 435 L150 435 Z " />
<glyph glyph-name="ordmasculine" unicode="&#xba;" horiz-adv-x="329" d="M164 707 C61 707 34 630 34 537 C34 445 61 373 164 373 C266 373 293 445 293 537 C293 630 266 707 164 707 L164 707 Z M164 390 C129 390 107 410 107 537 C107 665 128 690 164 690 C198 690 220 665 220 537 C220 410 200 390 164 390 L164 390 Z " />
<glyph glyph-name="guillemotright" unicode="&#xbb;" horiz-adv-x="609" d="M288 466 L411 266 L288 72 L288 33 L519 266 L288 505 L288 466 Z M84 466 L206 266 L84 72 L84 33 L315 266 L84 505 L84 466 Z " />
<glyph glyph-name="onequarter" unicode="&#xbc;" horiz-adv-x="654" d="M120 644 L120 432 C120 394 94 392 73 392 L73 375 L223 375 L223 392 C206 392 183 392 183 432 L183 746 L166 746 L69 671 L80 655 C80 655 120 683 120 644 L120 644 Z M583 103 L583 139 L529 139 L529 364 L502 367 L332 112 L332 103 L453 103 L453 81 C453 19 431 17 409 17 L409 0 L573 0 L573 17 C551 17 529 18 529 83 L529 103 L583 103 Z M453 139 L397 139 C387 139 373 139 390 167 L453 261 L453 139 Z M570 708 L14 36 L78 36 L635 708 L570 708 Z " />
<glyph glyph-name="onehalf" unicode="&#xbd;" horiz-adv-x="655" d="M596 97 C585 77 562 68 545 68 L456 68 C456 68 500 133 525 167 C567 218 584 251 584 285 C584 332 548 372 495 372 C495 372 405 372 394 274 L410 269 C448 351 586 301 511 174 L393 0 L586 0 L613 97 L596 97 Z M570 708 L14 36 L78 36 L635 708 L570 708 Z M120 644 L120 432 C120 394 94 392 73 392 L73 375 L223 375 L223 392 C206 392 183 392 183 432 L183 746 L166 746 L69 671 L80 655 C80 655 120 683 120 644 L120 644 Z " />
<glyph glyph-name="threequarters" unicode="&#xbe;" horiz-adv-x="656" d="M570 708 L14 36 L78 36 L635 708 L570 708 Z M271 499 C268 530 245 571 197 585 C283 668 218 746 144 746 C144 746 64 746 54 663 L72 657 C91 697 132 701 156 684 C186 661 196 599 110 573 L110 558 C191 548 202 494 206 476 C212 436 202 389 149 389 C108 389 103 399 108 401 C115 404 118 411 122 421 C126 443 113 464 91 470 C70 474 48 461 44 439 C41 425 46 408 57 400 C80 382 109 372 149 372 C195 372 271 401 271 499 L271 499 Z M583 103 L583 139 L529 139 L529 364 L502 367 L332 112 L332 103 L453 103 L453 81 C453 19 431 17 409 17 L409 0 L573 0 L573 17 C551 17 529 18 529 83 L529 103 L583 103 Z M453 139 L397 139 C387 139 373 139 390 167 L453 261 L453 139 Z " />
<glyph glyph-name="questiondown" unicode="&#xbf;" horiz-adv-x="605" d="M328 306 C375 306 412 343 412 390 C412 437 375 475 328 475 C281 475 243 437 243 390 C243 343 281 306 328 306 L328 306 Z M407 -154 C418 -169 431 -178 449 -181 C461 -182 462 -205 439 -219 L445 -237 C493 -215 519 -172 525 -147 C531 -125 533 -99 518 -78 C496 -47 453 -38 423 -59 C394 -81 386 -123 407 -154 L407 -154 Z M386 -257 L381 -239 C315 -241 253 -192 246 -102 C237 -9 253 36 300 76 C364 129 359 196 353 235 L327 231 C332 171 299 127 245 113 C187 98 95 40 101 -106 C107 -225 246 -290 386 -257 L386 -257 Z " />
<glyph glyph-name="Agrave" unicode="&#xc0;" horiz-adv-x="708" d="M610 90 C610 90 601 116 356 704 L339 704 L271 525 L398 214 L151 214 C65 12 41 19 17 17 L17 0 L263 0 L263 17 C105 9 167 197 167 197 L404 197 L434 124 C434 124 486 17 408 17 L408 0 L694 0 L694 17 C668 19 644 10 610 90 L610 90 Z M316 898 L204 863 L448 735 L485 735 L316 898 Z " />
<glyph glyph-name="Aacute" unicode="&#xc1;" horiz-adv-x="708" d="M610 90 C610 90 601 116 356 704 L339 704 L271 525 L398 214 L151 214 C65 12 41 19 17 17 L17 0 L263 0 L263 17 C105 9 167 197 167 197 L404 197 L434 124 C434 124 486 17 408 17 L408 0 L694 0 L694 17 C668 19 644 10 610 90 L610 90 Z M223 735 L260 735 L504 863 L392 898 L223 735 Z " />
<glyph glyph-name="Acircumflex" unicode="&#xc2;" horiz-adv-x="708" d="M610 90 C610 90 601 116 356 704 L339 704 L271 525 L398 214 L151 214 C65 12 41 19 17 17 L17 0 L263 0 L263 17 C105 9 167 197 167 197 L404 197 L434 124 C434 124 486 17 408 17 L408 0 L694 0 L694 17 C668 19 644 10 610 90 L610 90 Z M229 735 L348 812 L466 735 L503 735 L348 922 L193 735 L229 735 Z " />
<glyph glyph-name="Atilde" unicode="&#xc3;" horiz-adv-x="708" d="M395 750 C395 750 515 710 587 884 L572 892 C546 838 456 829 421 841 L302 885 C302 885 181 925 110 751 L125 745 C151 800 241 805 275 793 L395 750 Z M610 90 C610 90 601 116 356 704 L339 704 L271 525 L398 214 L151 214 C65 12 41 19 17 17 L17 0 L263 0 L263 17 C105 9 167 197 167 197 L404 197 L434 124 C434 124 486 17 408 17 L408 0 L694 0 L694 17 C668 19 644 10 610 90 L610 90 Z " />
<glyph glyph-name="Adieresis" unicode="&#xc4;" horiz-adv-x="708" d="M256 774 C289 774 315 800 315 833 C315 865 289 892 256 892 C224 892 197 865 197 833 C197 800 224 774 256 774 L256 774 Z M444 774 C477 774 504 800 504 833 C504 865 477 892 444 892 C412 892 385 865 385 833 C385 800 412 774 444 774 L444 774 Z M610 90 C610 90 601 116 356 704 L339 704 L271 525 L398 214 L151 214 C65 12 41 19 17 17 L17 0 L263 0 L263 17 C105 9 167 197 167 197 L404 197 L434 124 C434 124 486 17 408 17 L408 0 L694 0 L694 17 C668 19 644 10 610 90 L610 90 Z " />
<glyph glyph-name="Aring" unicode="&#xc5;" horiz-adv-x="708" d="M350 775 C408 775 456 822 456 880 C456 938 408 986 350 986 C292 986 245 938 245 880 C245 822 292 775 350 775 L350 775 Z M350 940 C384 940 410 913 410 880 C410 847 384 820 350 820 C317 820 290 847 290 880 C290 913 317 940 350 940 L350 940 Z M610 90 C610 90 601 116 356 704 L339 704 L271 525 L398 214 L151 214 C65 12 41 19 17 17 L17 0 L263 0 L263 17 C105 9 167 197 167 197 L404 197 L434 124 C434 124 486 17 408 17 L408 0 L694 0 L694 17 C668 19 644 10 610 90 L610 90 Z " />
<glyph glyph-name="AE" unicode="&#xc6;" horiz-adv-x="996" d="M903 513 L920 513 L920 704 L656 704 L656 686 C721 680 885 652 903 513 L903 513 Z M594 704 L356 704 L356 687 C418 687 448 658 448 566 L448 259 L219 259 C91 40 37 19 12 17 L12 0 L269 0 L269 17 C229 17 109 9 234 242 L448 242 L448 136 C448 32 415 17 372 17 L372 0 L594 0 L594 704 Z M934 216 L917 216 C886 57 721 25 656 19 L656 0 L934 0 L934 216 Z M772 242 L789 242 L789 466 L772 466 C764 390 695 368 656 363 L656 345 C695 340 764 318 772 242 L772 242 Z " />
<glyph glyph-name="Ccedilla" unicode="&#xc7;" horiz-adv-x="689" d="M615 210 C591 111 521 25 418 10 L418 -8 C509 -6 579 9 646 53 L632 210 L615 210 Z M418 694 C512 682 564 617 615 495 L632 495 L646 652 C589 698 508 710 418 713 L418 694 Z M40 352 C40 163 160 7 356 -8 L356 10 C267 24 220 105 220 352 C220 599 265 680 356 694 L356 712 C160 697 40 541 40 352 L40 352 Z M349 -68 L340 -95 C416 -83 438 -146 438 -164 C439 -195 420 -218 388 -218 C360 -218 358 -212 360 -210 C364 -207 367 -203 368 -196 C371 -178 361 -163 344 -159 C327 -155 310 -165 306 -182 C304 -194 309 -207 317 -213 C325 -220 351 -234 388 -234 C421 -234 484 -218 493 -151 C499 -100 455 -36 349 -68 L349 -68 Z " />
<glyph glyph-name="Egrave" unicode="&#xc8;" horiz-adv-x="648" d="M590 218 L573 218 C539 56 360 25 292 18 L292 0 L590 0 L590 218 Z M230 704 L27 704 L27 687 C71 687 85 628 85 566 L85 137 C85 69 69 17 27 17 L27 0 L230 0 L230 704 Z M560 514 L577 514 L577 704 L292 704 L292 686 C361 681 541 654 560 514 L560 514 Z M292 366 L292 345 C337 340 414 321 428 243 L445 243 L445 468 L428 468 C414 389 337 371 292 366 L292 366 Z M275 898 L163 863 L407 735 L444 735 L275 898 Z " />
<glyph glyph-name="Eacute" unicode="&#xc9;" horiz-adv-x="648" d="M590 218 L573 218 C539 56 360 25 292 18 L292 0 L590 0 L590 218 Z M230 704 L27 704 L27 687 C71 687 85 628 85 566 L85 137 C85 69 69 17 27 17 L27 0 L230 0 L230 704 Z M560 514 L577 514 L577 704 L292 704 L292 686 C361 681 541 654 560 514 L560 514 Z M292 366 L292 345 C337 340 414 321 428 243 L445 243 L445 468 L428 468 C414 389 337 371 292 366 L292 366 Z M163 735 L200 735 L444 863 L332 898 L163 735 Z " />
<glyph glyph-name="Ecircumflex" unicode="&#xca;" horiz-adv-x="648" d="M590 218 L573 218 C539 56 360 25 292 18 L292 0 L590 0 L590 218 Z M230 704 L27 704 L27 687 C71 687 85 628 85 566 L85 137 C85 69 69 17 27 17 L27 0 L230 0 L230 704 Z M560 514 L577 514 L577 704 L292 704 L292 686 C361 681 541 654 560 514 L560 514 Z M292 366 L292 345 C337 340 414 321 428 243 L445 243 L445 468 L428 468 C414 389 337 371 292 366 L292 366 Z M189 735 L308 812 L426 735 L463 735 L308 922 L153 735 L189 735 Z " />
<glyph glyph-name="Edieresis" unicode="&#xcb;" horiz-adv-x="648" d="M210 774 C243 774 269 800 269 833 C269 865 243 892 210 892 C178 892 151 865 151 833 C151 800 178 774 210 774 L210 774 Z M398 774 C431 774 458 800 458 833 C458 865 431 892 398 892 C366 892 339 865 339 833 C339 800 366 774 398 774 L398 774 Z M590 218 L573 218 C539 56 360 25 292 18 L292 0 L590 0 L590 218 Z M230 704 L27 704 L27 687 C71 687 85 628 85 566 L85 137 C85 69 69 17 27 17 L27 0 L230 0 L230 704 Z M560 514 L577 514 L577 704 L292 704 L292 686 C361 681 541 654 560 514 L560 514 Z M292 366 L292 345 C337 340 414 321 428 243 L445 243 L445 468 L428 468 C414 389 337 371 292 366 L292 366 Z " />
<glyph glyph-name="Igrave" unicode="&#xcc;" horiz-adv-x="388" d="M37 704 L37 687 C81 687 122 660 122 598 L122 122 C122 53 79 17 37 17 L37 0 L352 0 L352 17 C310 17 267 53 267 122 L267 598 C267 660 309 687 352 687 L352 704 L37 704 Z M156 898 L44 863 L288 735 L325 735 L156 898 Z " />
<glyph glyph-name="Iacute" unicode="&#xcd;" horiz-adv-x="388" d="M352 704 L352 687 C309 687 267 660 267 598 L267 122 C267 53 310 17 352 17 L352 0 L37 0 L37 17 C79 17 122 53 122 122 L122 598 C122 660 81 687 37 687 L37 704 L352 704 Z M53 735 L90 735 L334 863 L222 898 L53 735 Z " />
<glyph glyph-name="Icircumflex" unicode="&#xce;" horiz-adv-x="388" d="M37 704 L37 687 C81 687 122 660 122 598 L122 122 C122 53 79 17 37 17 L37 0 L352 0 L352 17 C310 17 267 53 267 122 L267 598 C267 660 309 687 352 687 L352 704 L37 704 Z M76 735 L195 812 L313 735 L350 735 L195 922 L40 735 L76 735 Z " />
<glyph glyph-name="Idieresis" unicode="&#xcf;" horiz-adv-x="388" d="M101 774 C134 774 160 800 160 833 C160 865 134 892 101 892 C69 892 42 865 42 833 C42 800 69 774 101 774 L101 774 Z M289 774 C322 774 349 800 349 833 C349 865 322 892 289 892 C257 892 230 865 230 833 C230 800 257 774 289 774 L289 774 Z M352 704 L352 687 C309 687 267 660 267 598 L267 122 C267 53 310 17 352 17 L352 0 L37 0 L37 17 C79 17 122 53 122 122 L122 598 C122 660 81 687 37 687 L37 704 L352 704 Z " />
<glyph glyph-name="Eth" unicode="&#xd0;" horiz-adv-x="764" d="M257 343 L403 343 L403 361 L257 361 L257 704 L37 704 L37 687 C81 687 112 628 112 566 L112 361 L38 361 L38 343 L112 343 L112 137 C112 69 80 17 37 17 L37 0 L257 0 L257 343 Z M720 349 C720 633 513 700 319 704 L319 687 C416 683 545 642 545 349 C545 57 416 21 319 17 L319 0 C513 4 720 66 720 349 L720 349 Z " />
<glyph glyph-name="Ntilde" unicode="&#xd1;" horiz-adv-x="840" d="M468 750 C468 750 588 710 660 884 L645 892 C619 838 529 829 494 841 L375 885 C375 885 254 925 183 751 L198 745 C224 800 314 805 348 793 L468 750 Z M184 255 L167 255 C167 255 168 17 17 17 L17 0 L321 0 L321 17 C183 17 184 255 184 255 L184 255 Z M9 704 L9 687 C35 685 64 696 128 616 L621 0 L674 0 L674 186 L254 704 L9 704 Z M520 687 C658 688 657 450 657 450 L674 450 C674 450 672 688 823 687 L823 704 L520 704 L520 687 Z " />
<glyph glyph-name="Ograve" unicode="&#xd2;" horiz-adv-x="776" d="M212 347 C212 595 257 680 353 693 L353 711 C154 695 41 535 41 347 C41 158 154 7 353 -8 L353 9 C257 22 212 98 212 347 L212 347 Z M731 347 C731 535 617 696 416 711 L416 694 C513 680 558 596 558 347 C558 96 513 21 416 9 L416 -8 C617 6 731 157 731 347 L731 347 Z M352 898 L240 863 L484 735 L521 735 L352 898 Z " />
<glyph glyph-name="Oacute" unicode="&#xd3;" horiz-adv-x="776" d="M212 347 C212 595 257 680 353 693 L353 711 C154 695 41 535 41 347 C41 158 154 7 353 -8 L353 9 C257 22 212 98 212 347 L212 347 Z M731 347 C731 535 617 696 416 711 L416 694 C513 680 558 596 558 347 C558 96 513 21 416 9 L416 -8 C617 6 731 157 731 347 L731 347 Z M246 735 L283 735 L527 863 L415 898 L246 735 Z " />
<glyph glyph-name="Ocircumflex" unicode="&#xd4;" horiz-adv-x="776" d="M212 347 C212 595 257 680 353 693 L353 711 C154 695 41 535 41 347 C41 158 154 7 353 -8 L353 9 C257 22 212 98 212 347 L212 347 Z M731 347 C731 535 617 696 416 711 L416 694 C513 680 558 596 558 347 C558 96 513 21 416 9 L416 -8 C617 6 731 157 731 347 L731 347 Z M271 735 L390 812 L508 735 L545 735 L390 922 L235 735 L271 735 Z " />
<glyph glyph-name="Otilde" unicode="&#xd5;" horiz-adv-x="776" d="M437 750 C437 750 557 710 629 884 L614 892 C588 838 498 829 463 841 L344 885 C344 885 223 925 152 751 L167 745 C193 800 283 805 317 793 L437 750 Z M212 347 C212 595 257 680 353 693 L353 711 C154 695 41 535 41 347 C41 158 154 7 353 -8 L353 9 C257 22 212 98 212 347 L212 347 Z M731 347 C731 535 617 696 416 711 L416 694 C513 680 558 596 558 347 C558 96 513 21 416 9 L416 -8 C617 6 731 157 731 347 L731 347 Z " />
<glyph glyph-name="Odieresis" unicode="&#xd6;" horiz-adv-x="776" d="M293 774 C326 774 352 800 352 833 C352 865 326 892 293 892 C261 892 234 865 234 833 C234 800 261 774 293 774 L293 774 Z M481 774 C514 774 541 800 541 833 C541 865 514 892 481 892 C449 892 422 865 422 833 C422 800 449 774 481 774 L481 774 Z M212 347 C212 595 257 680 353 693 L353 711 C154 695 41 535 41 347 C41 158 154 7 353 -8 L353 9 C257 22 212 98 212 347 L212 347 Z M731 347 C731 535 617 696 416 711 L416 694 C513 680 558 596 558 347 C558 96 513 21 416 9 L416 -8 C617 6 731 157 731 347 L731 347 Z " />
<glyph glyph-name="multiply" unicode="&#xd7;" horiz-adv-x="600" d="M540 432 L478 495 L300 317 L122 495 L59 432 L237 254 L59 76 L122 13 L300 191 L478 13 L540 76 L362 254 L540 432 Z " />
<glyph glyph-name="Oslash" unicode="&#xd8;" horiz-adv-x="777" d="M731 347 C731 475 678 591 581 657 L635 745 L614 745 L566 666 C523 691 474 707 417 711 L417 693 C467 686 503 660 527 601 L235 121 C219 172 212 245 212 347 C212 596 257 680 354 694 L354 711 C154 696 41 535 41 347 C41 218 93 108 189 45 L140 -35 L161 -35 L204 36 C246 11 297 -4 354 -8 L354 10 C302 16 265 40 242 99 L534 579 C550 525 558 450 558 347 C558 97 513 21 417 10 L417 -8 C617 6 731 157 731 347 L731 347 Z " />
<glyph glyph-name="Ugrave" unicode="&#xd9;" horiz-adv-x="752" d="M340 898 L228 863 L472 735 L509 735 L340 898 Z M405 51 C310 51 237 121 237 239 L237 599 C237 671 287 687 330 687 L330 704 L12 704 L12 687 C56 687 92 660 92 599 L92 246 C92 83 204 -9 340 -9 C428 -9 587 26 587 240 L570 240 C570 114 481 51 405 51 L405 51 Z M434 687 C572 688 570 537 570 537 L587 537 C587 537 585 688 736 687 L736 704 L434 704 L434 687 Z " />
<glyph glyph-name="Uacute" unicode="&#xda;" horiz-adv-x="752" d="M405 51 C310 51 237 121 237 239 L237 599 C237 671 287 687 330 687 L330 704 L12 704 L12 687 C56 687 92 660 92 599 L92 246 C92 83 204 -9 340 -9 C428 -9 587 26 587 240 L570 240 C570 114 481 51 405 51 L405 51 Z M434 687 C572 688 570 537 570 537 L587 537 C587 537 585 688 736 687 L736 704 L434 704 L434 687 Z M246 735 L283 735 L527 863 L415 898 L246 735 Z " />
<glyph glyph-name="Ucircumflex" unicode="&#xdb;" horiz-adv-x="752" d="M261 735 L380 812 L498 735 L535 735 L380 922 L225 735 L261 735 Z M405 51 C310 51 237 121 237 239 L237 599 C237 671 287 687 330 687 L330 704 L12 704 L12 687 C56 687 92 660 92 599 L92 246 C92 83 204 -9 340 -9 C428 -9 587 26 587 240 L570 240 C570 114 481 51 405 51 L405 51 Z M434 687 C572 688 570 537 570 537 L587 537 C587 537 585 688 736 687 L736 704 L434 704 L434 687 Z " />
<glyph glyph-name="Udieresis" unicode="&#xdc;" horiz-adv-x="752" d="M282 774 C315 774 341 800 341 833 C341 865 315 892 282 892 C250 892 223 865 223 833 C223 800 250 774 282 774 L282 774 Z M470 774 C503 774 530 800 530 833 C530 865 503 892 470 892 C438 892 411 865 411 833 C411 800 438 774 470 774 L470 774 Z M405 51 C310 51 237 121 237 239 L237 599 C237 671 287 687 330 687 L330 704 L12 704 L12 687 C56 687 92 660 92 599 L92 246 C92 83 204 -9 340 -9 C428 -9 587 26 587 240 L570 240 C570 114 481 51 405 51 L405 51 Z M434 687 C572 688 570 537 570 537 L587 537 C587 537 585 688 736 687 L736 704 L434 704 L434 687 Z " />
<glyph glyph-name="Yacute" unicode="&#xdd;" horiz-adv-x="771" d="M456 121 L456 327 L305 574 C237 689 307 688 328 688 L328 704 L9 704 L9 688 C34 688 72 685 116 609 C116 609 164 536 311 276 L311 121 C311 53 268 17 226 17 L226 0 L541 0 L541 17 C499 17 456 53 456 121 L456 121 Z M458 687 C602 687 510 481 510 481 L522 466 C634 685 732 687 758 687 L758 704 L458 704 L458 687 Z M275 735 L312 735 L556 863 L444 898 L275 735 Z " />
<glyph glyph-name="Thorn" unicode="&#xde;" horiz-adv-x="665" d="M258 598 C258 660 299 687 342 687 L342 704 L27 704 L27 687 C71 687 112 660 112 598 L112 121 C112 53 69 17 27 17 L27 0 L342 0 L342 17 C300 17 258 53 258 121 L258 598 Z M470 374 C470 213 405 194 320 192 L320 175 C505 178 634 215 634 374 C634 533 505 572 320 576 L320 559 C405 556 470 536 470 374 L470 374 Z " />
<glyph glyph-name="germandbls" unicode="&#xdf;" horiz-adv-x="624" d="M68 488 L68 122 C68 71 66 29 28 17 L28 0 L192 0 L192 512 C192 512 189 696 260 728 L260 745 C130 735 68 632 68 488 L68 488 Z M326 23 C339 29 350 42 355 58 C364 89 346 122 315 131 C283 141 250 123 241 91 C235 69 242 42 257 26 C268 12 294 -4 340 -8 L340 9 C322 12 320 20 326 23 L326 23 Z M601 203 C601 366 435 420 371 420 C391 420 501 449 501 576 C501 709 412 740 323 745 L323 728 C353 717 388 679 388 582 C388 449 338 425 285 425 L285 408 C351 408 460 338 460 215 C460 143 458 40 402 10 L402 -7 C551 8 601 101 601 203 L601 203 Z " />
<glyph glyph-name="agrave" unicode="&#xe0;" horiz-adv-x="526" d="M166 303 C192 321 199 356 181 382 C172 395 159 402 144 404 C139 404 140 414 155 426 L148 442 C105 416 93 393 84 378 C74 361 75 337 87 318 C105 292 140 286 166 303 L166 303 Z M474 52 C425 52 426 122 426 122 L426 271 C426 389 390 471 259 471 C259 471 223 473 185 460 L192 445 C252 463 300 412 300 318 L300 256 C125 212 41 202 41 93 C41 -9 156 -9 156 -9 C205 -9 248 15 275 40 L263 57 C255 53 245 52 234 52 C169 52 169 118 169 118 C169 169 202 216 300 238 L300 81 C300 -9 401 -9 401 -9 C464 -9 510 30 518 62 L501 69 C495 52 474 52 474 52 L474 52 Z M232 704 L120 669 L364 541 L401 541 L232 704 Z " />
<glyph glyph-name="aacute" unicode="&#xe1;" horiz-adv-x="526" d="M166 303 C192 321 199 356 181 382 C172 395 159 402 144 404 C139 404 140 414 155 426 L148 442 C105 416 93 393 84 378 C74 361 75 337 87 318 C105 292 140 286 166 303 L166 303 Z M474 52 C425 52 426 122 426 122 L426 271 C426 389 390 471 259 471 C259 471 223 473 185 460 L192 445 C252 463 300 412 300 318 L300 256 C125 212 41 202 41 93 C41 -9 156 -9 156 -9 C205 -9 248 15 275 40 L263 57 C255 53 245 52 234 52 C169 52 169 118 169 118 C169 169 202 216 300 238 L300 81 C300 -9 401 -9 401 -9 C464 -9 510 30 518 62 L501 69 C495 52 474 52 474 52 L474 52 Z M141 541 L178 541 L422 669 L310 704 L141 541 Z " />
<glyph glyph-name="acircumflex" unicode="&#xe2;" horiz-adv-x="526" d="M166 303 C192 321 199 356 181 382 C172 395 159 402 144 404 C139 404 140 414 155 426 L148 442 C105 416 93 393 84 378 C74 361 75 337 87 318 C105 292 140 286 166 303 L166 303 Z M474 52 C425 52 426 122 426 122 L426 271 C426 389 390 471 259 471 C259 471 223 473 185 460 L192 445 C252 463 300 412 300 318 L300 256 C125 212 41 202 41 93 C41 -9 156 -9 156 -9 C205 -9 248 15 275 40 L263 57 C255 53 245 52 234 52 C169 52 169 118 169 118 C169 169 202 216 300 238 L300 81 C300 -9 401 -9 401 -9 C464 -9 510 30 518 62 L501 69 C495 52 474 52 474 52 L474 52 Z M156 517 L275 594 L393 517 L430 517 L275 704 L120 517 L156 517 Z " />
<glyph glyph-name="atilde" unicode="&#xe3;" horiz-adv-x="526" d="M316 547 C316 547 436 507 508 681 L493 689 C467 635 377 626 342 638 L223 682 C223 682 102 722 31 548 L46 542 C72 597 162 602 196 590 L316 547 Z M166 303 C192 321 199 356 181 382 C172 395 159 402 144 404 C139 404 140 414 155 426 L148 442 C105 416 93 393 84 378 C74 361 75 337 87 318 C105 292 140 286 166 303 L166 303 Z M474 52 C425 52 426 122 426 122 L426 271 C426 389 390 471 259 471 C259 471 223 473 185 460 L192 445 C252 463 300 412 300 318 L300 256 C125 212 41 202 41 93 C41 -9 156 -9 156 -9 C205 -9 248 15 275 40 L263 57 C255 53 245 52 234 52 C169 52 169 118 169 118 C169 169 202 216 300 238 L300 81 C300 -9 401 -9 401 -9 C464 -9 510 30 518 62 L501 69 C495 52 474 52 474 52 L474 52 Z " />
<glyph glyph-name="adieresis" unicode="&#xe4;" horiz-adv-x="526" d="M236 616 C236 648 210 675 177 675 C144 675 118 648 118 616 C118 583 144 556 177 556 C210 556 236 583 236 616 L236 616 Z M424 616 C424 648 398 675 365 675 C332 675 306 648 306 616 C306 583 332 556 365 556 C398 556 424 583 424 616 L424 616 Z M166 303 C192 321 199 356 181 382 C172 395 159 402 144 404 C139 404 140 414 155 426 L148 442 C105 416 93 393 84 378 C74 361 75 337 87 318 C105 292 140 286 166 303 L166 303 Z M474 52 C425 52 426 122 426 122 L426 271 C426 389 390 471 259 471 C259 471 223 473 185 460 L192 445 C252 463 300 412 300 318 L300 256 C125 212 41 202 41 93 C41 -9 156 -9 156 -9 C205 -9 248 15 275 40 L263 57 C255 53 245 52 234 52 C169 52 169 118 169 118 C169 169 202 216 300 238 L300 81 C300 -9 401 -9 401 -9 C464 -9 510 30 518 62 L501 69 C495 52 474 52 474 52 L474 52 Z " />
<glyph glyph-name="aring" unicode="&#xe5;" horiz-adv-x="526" d="M266 533 C324 533 371 580 371 638 C371 696 324 743 266 743 C208 743 161 696 161 638 C161 580 208 533 266 533 L266 533 Z M266 698 C299 698 326 671 326 638 C326 605 299 578 266 578 C233 578 206 605 206 638 C206 671 233 698 266 698 L266 698 Z M166 303 C192 321 199 356 181 382 C172 395 159 402 144 404 C139 404 140 414 155 426 L148 442 C105 416 93 393 84 378 C74 361 75 337 87 318 C105 292 140 286 166 303 L166 303 Z M474 52 C425 52 426 122 426 122 L426 271 C426 389 390 471 259 471 C259 471 223 473 185 460 L192 445 C252 463 300 412 300 318 L300 256 C125 212 41 202 41 93 C41 -9 156 -9 156 -9 C205 -9 248 15 275 40 L263 57 C255 53 245 52 234 52 C169 52 169 118 169 118 C169 169 202 216 300 238 L300 81 C300 -9 401 -9 401 -9 C464 -9 510 30 518 62 L501 69 C495 52 474 52 474 52 L474 52 Z " />
<glyph glyph-name="ae" unicode="&#xe6;" horiz-adv-x="739" d="M81 378 C71 361 72 337 84 318 C102 292 137 286 163 303 C189 321 196 356 178 382 C169 395 158 404 143 406 C137 406 137 416 155 429 L146 443 C102 417 90 393 81 378 L81 378 Z M526 76 C459 91 421 142 415 240 L697 240 C697 388 655 463 527 470 L527 452 C569 437 585 366 585 257 L415 257 C415 341 438 433 485 452 L485 469 C439 464 403 439 367 404 C344 444 305 471 248 471 C248 471 219 472 184 461 L192 446 C249 460 291 409 291 318 L291 259 C118 213 41 197 41 93 C41 -9 156 -9 156 -9 C224 -9 275 21 303 57 L292 75 C278 61 256 52 230 52 C165 52 169 118 169 118 C169 203 266 234 291 241 C291 241 291 222 292 197 C300 55 417 -9 499 -9 C631 -9 666 70 682 122 L664 131 C640 94 580 64 526 76 L526 76 Z " />
<glyph glyph-name="ccedilla" unicode="&#xe7;" horiz-adv-x="499" d="M357 433 C342 425 330 412 326 393 C316 358 337 321 373 312 C409 302 445 325 455 360 C462 384 452 412 435 427 C419 440 383 465 325 470 L325 452 C351 447 364 436 357 433 L357 433 Z M450 129 C427 96 348 69 298 80 C229 95 171 143 171 251 C171 396 240 441 283 451 L283 470 C126 460 45 343 45 233 C45 116 134 -9 265 -9 C390 -9 450 69 464 120 L450 129 Z M213 -67 L204 -94 C280 -82 302 -145 302 -163 C303 -194 284 -217 252 -217 C224 -217 222 -211 224 -209 C228 -206 231 -202 232 -195 C235 -177 225 -162 208 -158 C191 -154 174 -164 170 -181 C168 -193 173 -206 181 -212 C189 -219 215 -233 252 -233 C285 -233 348 -217 357 -150 C363 -99 319 -35 213 -67 L213 -67 Z " />
<glyph glyph-name="egrave" unicode="&#xe8;" horiz-adv-x="524" d="M290 76 C223 91 173 142 165 240 L483 240 C483 389 420 464 287 470 L287 453 C331 436 361 364 361 257 L165 257 C165 342 197 434 246 453 L246 469 C121 459 36 361 36 229 C36 112 126 -9 257 -9 C391 -9 450 70 466 122 L449 131 C424 84 344 64 290 76 L290 76 Z M228 704 L116 669 L360 541 L397 541 L228 704 Z " />
<glyph glyph-name="eacute" unicode="&#xe9;" horiz-adv-x="524" d="M290 76 C223 91 173 142 165 240 L483 240 C483 389 420 464 287 470 L287 453 C331 436 361 364 361 257 L165 257 C165 342 197 434 246 453 L246 469 C121 459 36 361 36 229 C36 112 126 -9 257 -9 C391 -9 450 70 466 122 L449 131 C424 84 344 64 290 76 L290 76 Z M127 541 L164 541 L408 669 L296 704 L127 541 Z " />
<glyph glyph-name="ecircumflex" unicode="&#xea;" horiz-adv-x="524" d="M290 76 C223 91 173 142 165 240 L483 240 C483 389 420 464 287 470 L287 453 C331 436 361 364 361 257 L165 257 C165 342 197 434 246 453 L246 469 C121 459 36 361 36 229 C36 112 126 -9 257 -9 C391 -9 450 70 466 122 L449 131 C424 84 344 64 290 76 L290 76 Z M138 517 L257 594 L375 517 L412 517 L257 704 L102 517 L138 517 Z " />
<glyph glyph-name="edieresis" unicode="&#xeb;" horiz-adv-x="524" d="M226 616 C226 648 200 675 167 675 C134 675 108 648 108 616 C108 583 134 556 167 556 C200 556 226 583 226 616 L226 616 Z M414 616 C414 648 388 675 355 675 C322 675 296 648 296 616 C296 583 322 556 355 556 C388 556 414 583 414 616 L414 616 Z M290 76 C223 91 173 142 165 240 L483 240 C483 389 420 464 287 470 L287 453 C331 436 361 364 361 257 L165 257 C165 342 197 434 246 453 L246 469 C121 459 36 361 36 229 C36 112 126 -9 257 -9 C391 -9 450 70 466 122 L449 131 C424 84 344 64 290 76 L290 76 Z " />
<glyph glyph-name="igrave" unicode="&#xec;" horiz-adv-x="282" d="M203 122 L203 471 L28 431 L28 414 C69 392 79 378 79 344 L79 122 C79 71 77 29 39 17 L39 0 L244 0 L244 17 C208 27 203 66 203 122 L203 122 Z M108 704 L-4 669 L240 541 L277 541 L108 704 Z " />
<glyph glyph-name="iacute" unicode="&#xed;" horiz-adv-x="282" d="M203 122 L203 471 L28 431 L28 414 C69 392 79 378 79 344 L79 122 C79 71 77 29 39 17 L39 0 L244 0 L244 17 C208 27 203 66 203 122 L203 122 Z M9 541 L46 541 L290 669 L178 704 L9 541 Z " />
<glyph glyph-name="icircumflex" unicode="&#xee;" horiz-adv-x="282" d="M203 122 L203 471 L28 431 L28 414 C69 392 79 378 79 344 L79 122 C79 71 77 29 39 17 L39 0 L244 0 L244 17 C208 27 203 66 203 122 L203 122 Z M34 517 L153 594 L271 517 L308 517 L153 704 L-2 517 L34 517 Z " />
<glyph glyph-name="idieresis" unicode="&#xef;" horiz-adv-x="282" d="M102 616 C102 648 76 675 43 675 C10 675 -16 648 -16 616 C-16 583 10 556 43 556 C76 556 102 583 102 616 L102 616 Z M290 616 C290 648 264 675 231 675 C198 675 172 648 172 616 C172 583 198 556 231 556 C264 556 290 583 290 616 L290 616 Z M203 122 L203 471 L28 431 L28 414 C69 392 79 378 79 344 L79 122 C79 71 77 29 39 17 L39 0 L244 0 L244 17 C208 27 203 66 203 122 L203 122 Z " />
<glyph glyph-name="eth" unicode="&#xf0;" horiz-adv-x="579" d="M417 642 L518 694 L503 708 L400 655 C344 691 264 713 183 713 L183 696 C238 696 297 677 333 621 L159 531 L172 517 L342 603 C367 550 381 472 383 368 C347 428 276 437 230 437 C88 437 38 328 38 218 C38 75 135 3 255 -8 L255 11 C208 23 185 68 185 198 C185 328 223 407 279 407 C308 407 351 389 383 332 C383 136 367 36 318 11 L318 -8 C465 7 541 131 541 318 C541 470 491 579 417 642 L417 642 Z " />
<glyph glyph-name="ntilde" unicode="&#xf1;" horiz-adv-x="539" d="M312 547 C312 547 432 507 504 681 L489 689 C463 635 373 626 338 638 L219 682 C219 682 98 722 27 548 L42 542 C68 597 158 602 192 590 L312 547 Z M185 120 L185 471 L10 431 L10 414 C51 392 60 381 60 346 L60 120 C60 69 59 28 21 17 L21 0 L226 0 L226 17 C191 27 185 65 185 120 L185 120 Z M476 122 L476 319 C476 440 428 471 350 471 C304 471 253 443 218 407 L230 387 C243 394 257 399 270 399 C320 399 351 364 351 316 L351 122 C351 71 349 28 311 17 L311 0 L517 0 L517 17 C481 26 476 67 476 122 L476 122 Z " />
<glyph glyph-name="ograve" unicode="&#xf2;" horiz-adv-x="555" d="M517 231 C517 357 439 461 299 470 L299 452 C354 444 369 393 369 231 C369 69 354 18 299 10 L299 -8 C439 1 517 106 517 231 L517 231 Z M188 231 C188 393 203 444 258 452 L258 470 C119 461 41 357 41 231 C41 106 119 1 258 -8 L258 10 C203 18 188 69 188 231 L188 231 Z M242 704 L130 669 L374 541 L411 541 L242 704 Z " />
<glyph glyph-name="oacute" unicode="&#xf3;" horiz-adv-x="555" d="M517 231 C517 357 439 461 299 470 L299 452 C354 444 369 393 369 231 C369 69 354 18 299 10 L299 -8 C439 1 517 106 517 231 L517 231 Z M188 231 C188 393 203 444 258 452 L258 470 C119 461 41 357 41 231 C41 106 119 1 258 -8 L258 10 C203 18 188 69 188 231 L188 231 Z M149 541 L186 541 L430 669 L318 704 L149 541 Z " />
<glyph glyph-name="ocircumflex" unicode="&#xf4;" horiz-adv-x="555" d="M517 231 C517 357 439 461 299 470 L299 452 C354 444 369 393 369 231 C369 69 354 18 299 10 L299 -8 C439 1 517 106 517 231 L517 231 Z M188 231 C188 393 203 444 258 452 L258 470 C119 461 41 357 41 231 C41 106 119 1 258 -8 L258 10 C203 18 188 69 188 231 L188 231 Z M165 517 L284 594 L402 517 L439 517 L284 704 L129 517 L165 517 Z " />
<glyph glyph-name="otilde" unicode="&#xf5;" horiz-adv-x="555" d="M321 547 C321 547 441 507 513 681 L498 689 C472 635 382 626 347 638 L228 682 C228 682 107 722 36 548 L51 542 C77 597 167 602 201 590 L321 547 Z M517 231 C517 357 439 461 299 470 L299 452 C354 444 369 393 369 231 C369 69 354 18 299 10 L299 -8 C439 1 517 106 517 231 L517 231 Z M188 231 C188 393 203 444 258 452 L258 470 C119 461 41 357 41 231 C41 106 119 1 258 -8 L258 10 C203 18 188 69 188 231 L188 231 Z " />
<glyph glyph-name="odieresis" unicode="&#xf6;" horiz-adv-x="555" d="M244 616 C244 648 218 675 185 675 C152 675 126 648 126 616 C126 583 152 556 185 556 C218 556 244 583 244 616 L244 616 Z M432 616 C432 648 406 675 373 675 C340 675 314 648 314 616 C314 583 340 556 373 556 C406 556 432 583 432 616 L432 616 Z M517 231 C517 357 439 461 299 470 L299 452 C354 444 369 393 369 231 C369 69 354 18 299 10 L299 -8 C439 1 517 106 517 231 L517 231 Z M188 231 C188 393 203 444 258 452 L258 470 C119 461 41 357 41 231 C41 106 119 1 258 -8 L258 10 C203 18 188 69 188 231 L188 231 Z " />
<glyph glyph-name="divide" unicode="&#xf7;" horiz-adv-x="625" d="M581 230 L581 323 L45 323 L45 230 L581 230 Z M380 493 C380 530 350 561 312 561 C275 561 245 530 245 493 C245 456 275 425 312 425 C350 425 380 456 380 493 L380 493 Z M380 60 C380 97 350 127 312 127 C275 127 245 97 245 60 C245 22 275 -8 312 -8 C350 -8 380 22 380 60 L380 60 Z " />
<glyph glyph-name="oslash" unicode="&#xf8;" horiz-adv-x="557" d="M517 231 C517 317 481 392 413 435 L469 525 L452 525 L401 442 C372 457 338 467 299 469 L299 452 C332 446 350 426 360 376 L193 106 C189 137 188 178 188 231 C188 393 203 443 258 452 L258 470 C119 460 41 356 41 231 C41 145 77 69 145 27 L87 -67 L104 -67 L157 19 C186 3 220 -6 258 -8 L258 9 C225 14 207 34 197 84 L363 354 C367 323 369 282 369 231 C369 68 354 18 299 9 L299 -8 C439 1 517 106 517 231 L517 231 Z " />
<glyph glyph-name="ugrave" unicode="&#xf9;" horiz-adv-x="559" d="M493 92 L493 471 L321 452 L321 435 C372 429 368 416 368 355 L368 11 C368 11 369 -12 396 -8 L544 18 L544 35 C502 40 493 44 493 92 L493 92 Z M331 81 C314 68 296 64 281 64 C223 64 197 91 197 147 L197 471 L17 452 L17 435 C75 427 73 418 73 358 L73 144 C73 24 120 -9 199 -9 C246 -9 307 21 343 61 C343 61 331 81 331 81 L331 81 Z M242 704 L130 669 L374 541 L411 541 L242 704 Z " />
<glyph glyph-name="uacute" unicode="&#xfa;" horiz-adv-x="559" d="M493 92 L493 471 L321 452 L321 435 C372 429 368 416 368 355 L368 11 C368 11 369 -12 396 -8 L544 18 L544 35 C502 40 493 44 493 92 L493 92 Z M331 81 C314 68 296 64 281 64 C223 64 197 91 197 147 L197 471 L17 452 L17 435 C75 427 73 418 73 358 L73 144 C73 24 120 -9 199 -9 C246 -9 307 21 343 61 C343 61 331 81 331 81 L331 81 Z M149 541 L186 541 L430 669 L318 704 L149 541 Z " />
<glyph glyph-name="ucircumflex" unicode="&#xfb;" horiz-adv-x="559" d="M493 92 L493 471 L321 452 L321 435 C372 429 368 416 368 355 L368 11 C368 11 369 -12 396 -8 L544 18 L544 35 C502 40 493 44 493 92 L493 92 Z M331 81 C314 68 296 64 281 64 C223 64 197 91 197 147 L197 471 L17 452 L17 435 C75 427 73 418 73 358 L73 144 C73 24 120 -9 199 -9 C246 -9 307 21 343 61 C343 61 331 81 331 81 L331 81 Z M158 517 L277 594 L395 517 L432 517 L277 704 L122 517 L158 517 Z " />
<glyph glyph-name="udieresis" unicode="&#xfc;" horiz-adv-x="559" d="M242 616 C242 648 216 675 183 675 C150 675 124 648 124 616 C124 583 150 556 183 556 C216 556 242 583 242 616 L242 616 Z M430 616 C430 648 404 675 371 675 C338 675 312 648 312 616 C312 583 338 556 371 556 C404 556 430 583 430 616 L430 616 Z M493 92 L493 471 L321 452 L321 435 C372 429 368 416 368 355 L368 11 C368 11 369 -12 396 -8 L544 18 L544 35 C502 40 493 44 493 92 L493 92 Z M331 81 C314 68 296 64 281 64 C223 64 197 91 197 147 L197 471 L17 452 L17 435 C75 427 73 418 73 358 L73 144 C73 24 120 -9 199 -9 C246 -9 307 21 343 61 C343 61 331 81 331 81 L331 81 Z " />
<glyph glyph-name="yacute" unicode="&#xfd;" horiz-adv-x="541" d="M330 462 L330 445 C428 446 396 336 383 303 L395 289 C459 443 505 445 526 445 L526 462 L330 462 Z M337 136 L221 384 C221 384 195 445 247 445 L247 462 L11 462 L11 445 C26 445 58 445 74 406 L263 -9 L282 -9 L337 136 Z M242 -114 C216 -182 186 -210 167 -225 C149 -240 114 -246 90 -235 C55 -219 40 -178 55 -143 C71 -108 112 -92 147 -108 C165 -116 176 -132 181 -149 C185 -161 208 -156 224 -114 L242 -114 Z M130 541 L167 541 L411 669 L299 704 L130 541 Z " />
<glyph glyph-name="thorn" unicode="&#xfe;" horiz-adv-x="600" d="M556 227 C556 384 456 471 343 471 C296 471 223 449 191 390 L191 731 L17 691 L17 674 C57 659 67 652 67 618 L67 -151 C67 -202 65 -237 27 -248 L27 -265 L232 -265 L232 -248 C197 -239 191 -207 191 -151 L191 22 C217 5 251 -5 288 -8 L288 9 C243 17 199 54 191 143 L191 326 C198 386 234 434 294 434 C375 434 413 379 413 218 C413 82 387 20 329 9 L329 -8 C459 -1 556 73 556 227 L556 227 Z " />
<glyph glyph-name="ydieresis" unicode="&#xff;" horiz-adv-x="541" d="M235 616 C235 648 209 675 176 675 C143 675 117 648 117 616 C117 583 143 556 176 556 C209 556 235 583 235 616 L235 616 Z M423 616 C423 648 397 675 364 675 C331 675 305 648 305 616 C305 583 331 556 364 556 C397 556 423 583 423 616 L423 616 Z M330 462 L330 445 C428 446 396 336 383 303 L395 289 C459 443 505 445 526 445 L526 462 L330 462 Z M337 136 L221 384 C221 384 195 445 247 445 L247 462 L11 462 L11 445 C26 445 58 445 74 406 L263 -9 L282 -9 L337 136 Z M242 -114 C216 -182 186 -210 167 -225 C149 -240 114 -246 90 -235 C55 -219 40 -178 55 -143 C71 -108 112 -92 147 -108 C165 -116 176 -132 181 -149 C185 -161 208 -156 224 -114 L242 -114 Z " />
<glyph glyph-name="Abreve" unicode="&#x102;" horiz-adv-x="708" d="M610 90 C610 90 601 116 356 704 L339 704 L271 525 L398 214 L151 214 C65 12 41 19 17 17 L17 0 L263 0 L263 17 C105 9 167 197 167 197 L404 197 L434 124 C434 124 486 17 408 17 L408 0 L694 0 L694 17 C668 19 644 10 610 90 L610 90 Z M349 841 C254 841 230 877 230 914 L213 914 C213 838 252 766 349 766 C444 766 482 838 482 914 L465 914 C465 877 441 841 349 841 L349 841 Z " />
<glyph glyph-name="abreve" unicode="&#x103;" horiz-adv-x="527" d="M166 303 C192 321 199 356 181 382 C172 395 159 402 144 404 C139 404 140 414 155 426 L148 442 C105 416 93 393 84 378 C74 361 75 337 87 318 C105 292 140 286 166 303 L166 303 Z M474 52 C425 52 426 122 426 122 L426 271 C426 389 390 471 259 471 C259 471 223 473 185 460 L192 445 C252 463 300 412 300 318 L300 256 C125 212 41 202 41 93 C41 -9 156 -9 156 -9 C205 -9 248 15 275 40 L263 57 C255 53 245 52 234 52 C169 52 169 118 169 118 C169 169 202 216 300 238 L300 81 C300 -9 401 -9 401 -9 C464 -9 510 30 518 62 L501 69 C495 52 474 52 474 52 L474 52 Z M265 631 C170 631 146 667 146 704 L129 704 C129 628 168 556 265 556 C360 556 398 628 398 704 L381 704 C381 667 357 631 265 631 L265 631 Z " />
<glyph glyph-name="Aogonek" unicode="&#x104;" horiz-adv-x="708" d="M641 0 L694 0 L694 17 C668 19 644 10 610 90 C610 90 601 116 356 704 L339 704 L271 525 L398 214 L151 214 C65 12 41 19 17 17 L17 0 L263 0 L263 17 C105 9 167 197 167 197 L404 197 L434 124 C434 124 486 17 408 17 L408 0 L597 0 C528 -30 483 -73 501 -143 C501 -143 517 -205 611 -191 C669 -180 672 -143 672 -112 L655 -112 C655 -131 643 -144 625 -147 C625 -147 575 -155 563 -112 C554 -74 580 -33 641 0 L641 0 Z " />
<glyph glyph-name="aogonek" unicode="&#x105;" horiz-adv-x="527" d="M166 303 C192 321 199 356 181 382 C172 395 159 402 144 404 C139 404 140 414 155 426 L148 442 C105 416 93 393 84 378 C74 361 75 337 87 318 C105 292 140 286 166 303 L166 303 Z M442 -3 C483 9 512 37 518 62 L501 69 C495 52 474 52 474 52 C425 52 426 122 426 122 L426 271 C426 389 390 471 259 471 C259 471 223 473 185 460 L192 445 C252 463 300 412 300 318 L300 256 C125 212 41 202 41 93 C41 -9 156 -9 156 -9 C205 -9 248 15 275 40 L263 57 C255 53 245 52 234 52 C169 52 169 118 169 118 C169 169 202 216 300 238 L300 81 C300 12 359 -4 387 -8 C328 -38 291 -79 308 -143 C308 -143 324 -205 418 -191 C476 -180 479 -143 479 -112 L462 -112 C462 -131 450 -144 432 -147 C432 -147 382 -155 370 -112 C361 -75 385 -36 442 -3 L442 -3 Z " />
<glyph glyph-name="Cacute" unicode="&#x106;" horiz-adv-x="687" d="M615 210 C591 111 521 25 418 10 L418 -8 C509 -6 579 9 646 53 L632 210 L615 210 Z M418 694 C512 682 564 617 615 495 L632 495 L646 652 C589 698 508 710 418 713 L418 694 Z M40 352 C40 163 160 7 356 -8 L356 10 C267 24 220 105 220 352 C220 599 265 680 356 694 L356 712 C160 697 40 541 40 352 L40 352 Z M223 735 L260 735 L504 863 L392 898 L223 735 Z " />
<glyph glyph-name="cacute" unicode="&#x107;" horiz-adv-x="500" d="M357 433 C342 425 330 412 326 393 C316 358 337 321 373 312 C409 302 445 325 455 360 C462 384 452 412 435 427 C419 440 383 465 325 470 L325 452 C351 447 364 436 357 433 L357 433 Z M450 129 C427 96 348 69 298 80 C229 95 171 143 171 251 C171 396 240 441 283 451 L283 470 C126 460 45 343 45 233 C45 116 134 -9 265 -9 C390 -9 450 69 464 120 L450 129 Z M141 541 L178 541 L422 669 L310 704 L141 541 Z " />
<glyph glyph-name="Ccaron" unicode="&#x10c;" horiz-adv-x="687" d="M615 210 C591 111 521 25 418 10 L418 -8 C509 -6 579 9 646 53 L632 210 L615 210 Z M418 694 C512 682 564 617 615 495 L632 495 L646 652 C589 698 508 710 418 713 L418 694 Z M40 352 C40 163 160 7 356 -8 L356 10 C267 24 220 105 220 352 C220 599 265 680 356 694 L356 712 C160 697 40 541 40 352 L40 352 Z M226 922 L381 735 L536 922 L499 922 L381 845 L262 922 L226 922 Z " />
<glyph glyph-name="ccaron" unicode="&#x10d;" horiz-adv-x="500" d="M357 433 C342 425 330 412 326 393 C316 358 337 321 373 312 C409 302 445 325 455 360 C462 384 452 412 435 427 C419 440 383 465 325 470 L325 452 C351 447 364 436 357 433 L357 433 Z M450 129 C427 96 348 69 298 80 C229 95 171 143 171 251 C171 396 240 441 283 451 L283 470 C126 460 45 343 45 233 C45 116 134 -9 265 -9 C390 -9 450 69 464 120 L450 129 Z M128 704 L283 517 L438 704 L401 704 L283 627 L164 704 L128 704 Z " />
<glyph glyph-name="Dcaron" unicode="&#x10e;" horiz-adv-x="768" d="M319 704 L319 687 C416 683 545 642 545 349 C545 57 416 21 319 17 L319 0 C513 4 720 66 720 349 C720 633 513 700 319 704 L319 704 Z M37 687 C81 687 112 628 112 566 L112 137 C112 69 80 17 37 17 L37 0 L257 0 L257 704 L37 704 L37 687 Z M171 922 L326 735 L481 922 L444 922 L326 845 L207 922 L171 922 Z " />
<glyph glyph-name="dcaron" unicode="&#x10f;" horiz-adv-x="729" d="M599 704 C599 549 551 510 551 510 L564 495 C564 495 696 568 696 704 L599 704 Z M523 97 L523 746 L348 709 L348 692 C389 677 399 667 399 632 L399 441 C372 456 338 466 300 469 L300 452 C351 442 399 397 399 287 L399 146 C399 76 357 26 289 26 C208 26 175 86 175 247 C175 383 201 441 259 452 L259 470 C129 463 33 391 33 238 C33 80 133 -9 246 -9 C293 -9 367 13 399 72 L399 10 C399 10 399 -12 427 -8 L574 14 L574 31 C533 36 523 48 523 97 L523 97 Z " />
<glyph glyph-name="Dcroat" unicode="&#x110;" horiz-adv-x="768" d="M257 343 L403 343 L403 361 L257 361 L257 704 L37 704 L37 687 C81 687 112 628 112 566 L112 361 L38 361 L38 343 L112 343 L112 137 C112 69 80 17 37 17 L37 0 L257 0 L257 343 Z M720 349 C720 633 513 700 319 704 L319 687 C416 683 545 642 545 349 C545 57 416 21 319 17 L319 0 C513 4 720 66 720 349 L720 349 Z " />
<glyph glyph-name="dcroat" unicode="&#x111;" horiz-adv-x="611" d="M297 568 L399 568 L399 441 C372 456 338 466 300 469 L300 452 C351 442 399 397 399 287 L399 146 C399 76 357 26 289 26 C208 26 175 86 175 247 C175 383 201 441 259 452 L259 470 C129 463 33 391 33 238 C33 80 133 -9 246 -9 C293 -9 367 13 399 72 L399 10 C399 10 399 -12 427 -8 L574 14 L574 31 C533 36 523 48 523 97 L523 568 L612 568 L612 585 L523 585 L523 746 L348 709 L348 692 C389 677 399 667 399 632 L399 585 L297 585 L297 568 Z " />
<glyph glyph-name="Eogonek" unicode="&#x118;" horiz-adv-x="653" d="M428 243 L445 243 L445 468 L428 468 C414 389 337 371 292 366 L292 345 C337 340 414 321 428 243 L428 243 Z M560 514 L577 514 L577 704 L292 704 L292 686 C361 681 541 654 560 514 L560 514 Z M27 687 C71 687 85 628 85 566 L85 137 C85 69 69 17 27 17 L27 0 L230 0 L230 704 L27 704 L27 687 Z M557 0 L590 0 L590 218 L573 218 C539 56 360 25 292 18 L292 0 L513 0 C444 -30 399 -73 417 -143 C417 -143 433 -205 527 -191 C585 -180 588 -143 588 -112 L571 -112 C571 -131 559 -144 541 -147 C541 -147 491 -155 479 -112 C470 -74 496 -33 557 0 L557 0 Z " />
<glyph glyph-name="eogonek" unicode="&#x119;" horiz-adv-x="524" d="M290 76 C223 91 173 142 165 240 L483 240 C483 389 420 464 287 470 L287 453 C331 436 361 364 361 257 L165 257 C165 342 197 434 246 453 L246 469 C121 459 36 361 36 229 C36 117 119 0 243 -8 C184 -38 148 -79 165 -143 C165 -143 181 -205 275 -191 C333 -180 336 -143 336 -112 L319 -112 C319 -131 307 -144 289 -147 C289 -147 239 -155 227 -112 C219 -76 241 -38 293 -7 C402 6 451 75 466 122 L449 131 C424 84 344 64 290 76 L290 76 Z " />
<glyph glyph-name="Ecaron" unicode="&#x11a;" horiz-adv-x="653" d="M590 218 L573 218 C539 56 360 25 292 18 L292 0 L590 0 L590 218 Z M230 704 L27 704 L27 687 C71 687 85 628 85 566 L85 137 C85 69 69 17 27 17 L27 0 L230 0 L230 704 Z M560 514 L577 514 L577 704 L292 704 L292 686 C361 681 541 654 560 514 L560 514 Z M292 366 L292 345 C337 340 414 321 428 243 L445 243 L445 468 L428 468 C414 389 337 371 292 366 L292 366 Z M171 922 L326 735 L481 922 L444 922 L326 845 L207 922 L171 922 Z " />
<glyph glyph-name="ecaron" unicode="&#x11b;" horiz-adv-x="524" d="M290 76 C223 91 173 142 165 240 L483 240 C483 389 420 464 287 470 L287 453 C331 436 361 364 361 257 L165 257 C165 342 197 434 246 453 L246 469 C121 459 36 361 36 229 C36 112 126 -9 257 -9 C391 -9 450 70 466 122 L449 131 C424 84 344 64 290 76 L290 76 Z M108 704 L263 517 L418 704 L381 704 L263 627 L144 704 L108 704 Z " />
<glyph glyph-name="dotlessi" unicode="&#x131;" horiz-adv-x="282" d="M203 122 L203 471 L28 431 L28 414 C69 392 79 378 79 344 L79 122 C79 71 77 29 39 17 L39 0 L244 0 L244 17 C208 27 203 66 203 122 L203 122 Z " />
<glyph glyph-name="Lacute" unicode="&#x139;" horiz-adv-x="667" d="M605 217 L588 217 C560 56 383 25 315 18 L315 0 L605 0 L605 217 Z M253 598 C253 670 303 687 346 687 L346 704 L29 704 L29 687 C72 687 108 659 108 598 L108 129 C108 61 80 17 37 17 L37 0 L253 0 L253 598 Z M162 735 L199 735 L443 863 L331 898 L162 735 Z " />
<glyph glyph-name="lacute" unicode="&#x13a;" horiz-adv-x="265" d="M198 121 L198 746 L23 709 L23 692 C63 677 73 662 73 627 L73 121 C73 70 71 28 33 17 L33 0 L238 0 L238 17 C203 26 198 66 198 121 L198 121 Z M-8 764 L29 764 L273 892 L161 927 L-8 764 Z " />
<glyph glyph-name="Lcaron" unicode="&#x13d;" horiz-adv-x="667" d="M378 704 C378 549 330 510 330 510 L343 495 C343 495 475 568 475 704 L378 704 Z M605 217 L588 217 C560 56 383 25 315 18 L315 0 L605 0 L605 217 Z M253 598 C253 670 303 687 346 687 L346 704 L29 704 L29 687 C72 687 108 659 108 598 L108 129 C108 61 80 17 37 17 L37 0 L253 0 L253 598 Z " />
<glyph glyph-name="lcaron" unicode="&#x13e;" horiz-adv-x="422" d="M269 704 C269 549 221 510 221 510 L234 495 C234 495 366 568 366 704 L269 704 Z M198 121 L198 746 L23 709 L23 692 C63 677 73 662 73 627 L73 121 C73 70 71 28 33 17 L33 0 L238 0 L238 17 C203 26 198 66 198 121 L198 121 Z " />
<glyph glyph-name="Lslash" unicode="&#x141;" horiz-adv-x="676" d="M631 218 L614 218 C614 218 590 30 341 18 L341 0 L631 0 L631 218 Z M279 361 L473 471 L473 491 L279 381 L279 598 C279 671 328 687 372 687 L372 704 L54 704 L54 687 C97 687 133 660 133 598 L133 299 L13 232 L13 212 L133 279 L133 138 C133 70 104 17 62 17 L62 0 L279 0 L279 361 Z " />
<glyph glyph-name="lslash" unicode="&#x142;" horiz-adv-x="331" d="M11 270 L101 328 L101 121 C101 70 99 28 61 17 L61 0 L266 0 L266 17 C231 26 226 66 226 121 L226 409 L315 467 L315 487 L226 429 L226 746 L51 709 L51 692 C91 677 101 662 101 627 L101 348 L11 290 L11 270 Z " />
<glyph glyph-name="Nacute" unicode="&#x143;" horiz-adv-x="840" d="M184 255 L167 255 C167 255 168 17 17 17 L17 0 L321 0 L321 17 C183 17 184 255 184 255 L184 255 Z M9 704 L9 687 C35 685 64 696 128 616 L621 0 L674 0 L674 186 L254 704 L9 704 Z M520 687 C658 688 657 450 657 450 L674 450 C674 450 672 688 823 687 L823 704 L520 704 L520 687 Z M284 735 L321 735 L565 863 L453 898 L284 735 Z " />
<glyph glyph-name="nacute" unicode="&#x144;" horiz-adv-x="539" d="M185 120 L185 471 L10 431 L10 414 C51 392 60 381 60 346 L60 120 C60 69 59 28 21 17 L21 0 L226 0 L226 17 C191 27 185 65 185 120 L185 120 Z M476 122 L476 319 C476 440 428 471 350 471 C304 471 253 443 218 407 L230 387 C243 394 257 399 270 399 C320 399 351 364 351 316 L351 122 C351 71 349 28 311 17 L311 0 L517 0 L517 17 C481 26 476 67 476 122 L476 122 Z M154 541 L191 541 L435 669 L323 704 L154 541 Z " />
<glyph glyph-name="Ncaron" unicode="&#x147;" horiz-adv-x="840" d="M184 255 L167 255 C167 255 168 17 17 17 L17 0 L321 0 L321 17 C183 17 184 255 184 255 L184 255 Z M9 704 L9 687 C35 685 64 696 128 616 L621 0 L674 0 L674 186 L254 704 L9 704 Z M520 687 C658 688 657 450 657 450 L674 450 C674 450 672 688 823 687 L823 704 L520 704 L520 687 Z M268 922 L423 735 L578 922 L541 922 L423 845 L304 922 L268 922 Z " />
<glyph glyph-name="ncaron" unicode="&#x148;" horiz-adv-x="539" d="M185 120 L185 471 L10 431 L10 414 C51 392 60 381 60 346 L60 120 C60 69 59 28 21 17 L21 0 L226 0 L226 17 C191 27 185 65 185 120 L185 120 Z M476 122 L476 319 C476 440 428 471 350 471 C304 471 253 443 218 407 L230 387 C243 394 257 399 270 399 C320 399 351 364 351 316 L351 122 C351 71 349 28 311 17 L311 0 L517 0 L517 17 C481 26 476 67 476 122 L476 122 Z M132 704 L287 517 L442 704 L405 704 L287 627 L168 704 L132 704 Z " />
<glyph glyph-name="Ohungarumlaut" unicode="&#x150;" horiz-adv-x="775" d="M212 347 C212 595 257 680 353 693 L353 711 C154 695 41 535 41 347 C41 158 154 7 353 -8 L353 9 C257 22 212 98 212 347 L212 347 Z M731 347 C731 535 617 696 416 711 L416 694 C513 680 558 596 558 347 C558 96 513 21 416 9 L416 -8 C617 6 731 157 731 347 L731 347 Z M235 735 L272 735 L516 863 L404 898 L235 735 Z M415 735 L452 735 L696 863 L584 898 L415 735 Z " />
<glyph glyph-name="ohungarumlaut" unicode="&#x151;" horiz-adv-x="556" d="M517 231 C517 357 439 461 299 470 L299 452 C354 444 369 393 369 231 C369 69 354 18 299 10 L299 -8 C439 1 517 106 517 231 L517 231 Z M188 231 C188 393 203 444 258 452 L258 470 C119 461 41 357 41 231 C41 106 119 1 258 -8 L258 10 C203 18 188 69 188 231 L188 231 Z M112 541 L149 541 L393 669 L281 704 L112 541 Z M292 541 L329 541 L573 669 L461 704 L292 541 Z " />
<glyph glyph-name="OE" unicode="&#x152;" horiz-adv-x="1004" d="M214 347 C214 597 243 681 338 694 L338 712 C138 697 43 536 43 347 C43 158 138 6 338 -7 L338 10 C243 22 214 97 214 347 L214 347 Z M941 218 L924 218 C894 58 745 25 683 19 L683 0 L941 0 L941 218 Z M779 243 L796 243 L796 468 L779 468 C772 395 717 371 683 365 L683 347 C717 340 772 317 779 243 L779 243 Z M911 514 L928 514 L928 704 L683 704 L683 686 C743 681 883 655 911 514 L911 514 Z M621 704 L440 704 C425 708 413 710 400 712 L400 695 C440 690 476 669 476 566 L476 137 C476 36 439 14 400 10 L400 -7 C414 -5 427 -3 443 0 L621 0 L621 704 Z " />
<glyph glyph-name="oe" unicode="&#x153;" horiz-adv-x="783" d="M188 229 C188 387 193 441 238 451 L238 470 C101 460 41 354 41 229 C41 104 101 1 238 -8 L238 10 C192 19 188 70 188 229 L188 229 Z M572 76 C505 91 470 139 466 238 L741 238 C741 386 692 462 571 470 L571 453 C609 436 629 363 629 255 L466 255 C466 339 483 432 530 453 L530 470 C486 464 446 438 410 402 C381 438 336 465 279 470 L279 451 C321 441 329 387 329 229 C329 69 323 19 279 10 L279 -9 C336 -4 375 18 409 56 C448 18 494 -9 552 -9 C678 -9 713 69 729 121 L710 131 C685 96 626 64 572 76 L572 76 Z " />
<glyph glyph-name="Racute" unicode="&#x154;" horiz-adv-x="728" d="M604 115 C555 295 475 339 410 332 C529 346 605 391 605 513 C605 671 479 701 297 704 L297 687 C379 685 442 668 442 513 C442 358 379 340 297 338 L297 319 C325 314 382 295 407 218 C477 1 451 1 629 0 L721 0 L721 17 C695 19 624 39 604 115 L604 115 Z M235 704 L18 704 L18 687 C62 687 90 660 90 598 L90 121 C90 53 61 17 18 17 L18 0 L309 0 L309 17 C267 17 235 53 235 121 L235 704 Z M183 735 L220 735 L464 863 L352 898 L183 735 Z " />
<glyph glyph-name="racute" unicode="&#x155;" horiz-adv-x="425" d="M190 122 L190 471 L14 431 L14 414 C55 393 64 378 64 344 L64 122 C64 70 63 29 24 17 L24 0 L231 0 L231 17 C195 27 190 66 190 122 L190 122 Z M308 466 C287 457 254 445 211 388 L221 374 C246 397 268 397 268 389 C268 371 276 354 291 340 C323 313 369 317 396 348 C423 378 420 426 389 453 C367 471 329 475 308 466 L308 466 Z M82 541 L119 541 L363 669 L251 704 L82 541 Z " />
<glyph glyph-name="Rcaron" unicode="&#x158;" horiz-adv-x="728" d="M604 115 C555 295 475 339 410 332 C529 346 605 391 605 513 C605 671 479 701 297 704 L297 687 C379 685 442 668 442 513 C442 358 379 340 297 338 L297 319 C325 314 382 295 407 218 C477 1 451 1 629 0 L721 0 L721 17 C695 19 624 39 604 115 L604 115 Z M235 704 L18 704 L18 687 C62 687 90 660 90 598 L90 121 C90 53 61 17 18 17 L18 0 L309 0 L309 17 C267 17 235 53 235 121 L235 704 Z M150 922 L305 735 L460 922 L423 922 L305 845 L186 922 L150 922 Z " />
<glyph glyph-name="rcaron" unicode="&#x159;" horiz-adv-x="425" d="M190 122 L190 471 L14 431 L14 414 C55 393 64 378 64 344 L64 122 C64 70 63 29 24 17 L24 0 L231 0 L231 17 C195 27 190 66 190 122 L190 122 Z M308 466 C287 457 254 445 211 388 L221 374 C246 397 268 397 268 389 C268 371 276 354 291 340 C323 313 369 317 396 348 C423 378 420 426 389 453 C367 471 329 475 308 466 L308 466 Z M45 705 L200 518 L355 705 L318 705 L200 628 L81 705 L45 705 Z " />
<glyph glyph-name="Sacute" unicode="&#x15a;" horiz-adv-x="616" d="M63 245 L46 245 L46 53 C46 53 117 -2 288 -8 L288 10 C135 29 84 188 63 245 L63 245 Z M416 377 L262 479 C146 555 165 672 247 695 L247 712 C115 703 72 637 72 637 C-11 528 42 428 184 339 L338 242 C447 162 432 34 351 9 L351 -8 C487 2 528 73 528 73 C603 182 548 290 416 377 L416 377 Z M519 497 L536 497 L536 665 C536 665 460 707 310 712 L310 694 C447 677 501 546 519 497 L519 497 Z M166 735 L203 735 L447 863 L335 898 L166 735 Z " />
<glyph glyph-name="sacute" unicode="&#x15b;" horiz-adv-x="444" d="M356 329 L373 329 L373 441 C373 441 329 467 230 470 L230 452 C316 441 344 361 356 329 L356 329 Z M303 259 L202 322 C125 371 138 437 188 451 L188 470 C103 464 70 421 70 421 C15 349 41 268 138 209 L239 148 C307 103 305 27 253 11 L253 -8 C339 -2 372 45 372 45 C422 117 392 204 303 259 L303 259 Z M68 163 L51 163 L51 37 C51 37 104 -4 211 -9 L211 9 C111 22 82 126 68 163 L68 163 Z M99 541 L136 541 L380 669 L268 704 L99 541 Z " />
<glyph glyph-name="Scedilla" unicode="&#x15e;" horiz-adv-x="616" d="M63 245 L46 245 L46 53 C46 53 117 -2 288 -8 L288 10 C135 29 84 188 63 245 L63 245 Z M416 377 L262 479 C146 555 165 672 247 695 L247 712 C115 703 72 637 72 637 C-11 528 42 428 184 339 L338 242 C447 162 432 34 351 9 L351 -8 C487 2 528 73 528 73 C603 182 548 290 416 377 L416 377 Z M519 497 L536 497 L536 665 C536 665 460 707 310 712 L310 694 C447 677 501 546 519 497 L519 497 Z M264 -66 L255 -93 C331 -81 353 -144 353 -162 C354 -193 335 -216 303 -216 C275 -216 273 -210 275 -208 C279 -205 282 -201 283 -194 C286 -176 276 -161 259 -157 C242 -153 225 -163 221 -180 C219 -192 224 -205 232 -211 C240 -218 266 -232 303 -232 C336 -232 399 -216 408 -149 C414 -98 370 -34 264 -66 L264 -66 Z " />
<glyph glyph-name="scedilla" unicode="&#x15f;" horiz-adv-x="444" d="M356 329 L373 329 L373 441 C373 441 329 467 230 470 L230 452 C316 441 344 361 356 329 L356 329 Z M303 259 L202 322 C125 371 138 437 188 451 L188 470 C103 464 70 421 70 421 C15 349 41 268 138 209 L239 148 C307 103 305 27 253 11 L253 -8 C339 -2 372 45 372 45 C422 117 392 204 303 259 L303 259 Z M68 163 L51 163 L51 37 C51 37 104 -4 211 -9 L211 9 C111 22 82 126 68 163 L68 163 Z M188 -66 L179 -93 C255 -81 277 -144 277 -162 C278 -193 259 -216 227 -216 C199 -216 197 -210 199 -208 C203 -205 206 -201 207 -194 C210 -176 200 -161 183 -157 C166 -153 149 -163 145 -180 C143 -192 148 -205 156 -211 C164 -218 190 -232 227 -232 C260 -232 323 -216 332 -149 C338 -98 294 -34 188 -66 L188 -66 Z " />
<glyph glyph-name="Scaron" unicode="&#x160;" horiz-adv-x="616" d="M63 245 L46 245 L46 53 C46 53 117 -2 288 -8 L288 10 C135 29 84 188 63 245 L63 245 Z M416 377 L262 479 C146 555 165 672 247 695 L247 712 C115 703 72 637 72 637 C-11 528 42 428 184 339 L338 242 C447 162 432 34 351 9 L351 -8 C487 2 528 73 528 73 C603 182 548 290 416 377 L416 377 Z M519 497 L536 497 L536 665 C536 665 460 707 310 712 L310 694 C447 677 501 546 519 497 L519 497 Z M137 922 L292 735 L447 922 L410 922 L292 845 L173 922 L137 922 Z " />
<glyph glyph-name="scaron" unicode="&#x161;" horiz-adv-x="444" d="M64 682 L219 495 L374 682 L337 682 L219 605 L100 682 L64 682 Z M356 329 L373 329 L373 441 C373 441 329 467 230 470 L230 452 C316 441 344 361 356 329 L356 329 Z M303 259 L202 322 C125 371 138 437 188 451 L188 470 C103 464 70 421 70 421 C15 349 41 268 138 209 L239 148 C307 103 305 27 253 11 L253 -8 C339 -2 372 45 372 45 C422 117 392 204 303 259 L303 259 Z M68 163 L51 163 L51 37 C51 37 104 -4 211 -9 L211 9 C111 22 82 126 68 163 L68 163 Z " />
<glyph glyph-name="uni0162" unicode="&#x162;" horiz-adv-x="698" d="M19 704 L19 503 L36 503 C44 682 256 687 256 687 L275 687 L275 121 C275 53 232 17 190 17 L190 0 L505 0 L505 17 C463 17 420 53 420 121 L420 687 L439 687 C439 687 652 682 660 503 L677 503 L677 704 L19 704 L19 704 Z M304 -61 L295 -88 C371 -76 393 -139 393 -157 C394 -188 375 -211 343 -211 C315 -211 313 -205 315 -203 C319 -200 322 -196 323 -189 C326 -171 316 -156 299 -152 C282 -148 265 -158 261 -175 C259 -187 264 -200 272 -206 C280 -213 306 -227 343 -227 C376 -227 439 -211 448 -144 C454 -93 410 -29 304 -61 L304 -61 Z " />
<glyph glyph-name="uni0163" unicode="&#x163;" horiz-adv-x="354" d="M269 62 C219 62 195 91 195 147 L195 445 L310 445 L314 462 L195 462 L195 617 L70 596 L70 462 L17 462 L20 445 L70 445 L70 144 C70 23 117 -9 196 -9 C263 -9 324 41 344 88 L329 97 C320 82 298 62 269 62 L269 62 Z M128 -61 L119 -88 C195 -76 217 -139 217 -157 C218 -188 199 -211 167 -211 C139 -211 137 -205 139 -203 C143 -200 146 -196 147 -189 C150 -171 140 -156 123 -152 C106 -148 89 -158 85 -175 C83 -187 88 -200 96 -206 C104 -213 130 -227 167 -227 C200 -227 263 -211 272 -144 C278 -93 234 -29 128 -61 L128 -61 Z " />
<glyph glyph-name="Tcaron" unicode="&#x164;" horiz-adv-x="698" d="M19 704 L19 503 L36 503 C44 682 256 687 256 687 L275 687 L275 121 C275 53 232 17 190 17 L190 0 L505 0 L505 17 C463 17 420 53 420 121 L420 687 L439 687 C439 687 652 682 660 503 L677 503 L677 704 L19 704 L19 704 Z M194 922 L349 735 L504 922 L467 922 L349 845 L230 922 L194 922 Z " />
<glyph glyph-name="tcaron" unicode="&#x165;" horiz-adv-x="386" d="M268 704 C268 549 220 510 220 510 L233 495 C233 495 365 568 365 704 L268 704 Z M269 62 C219 62 195 91 195 147 L195 445 L310 445 L314 462 L195 462 L195 617 L70 596 L70 462 L17 462 L20 445 L70 445 L70 144 C70 23 117 -9 196 -9 C263 -9 324 41 344 88 L329 97 C320 82 298 62 269 62 L269 62 Z " />
<glyph glyph-name="Uring" unicode="&#x16e;" horiz-adv-x="752" d="M405 51 C310 51 237 121 237 239 L237 599 C237 671 287 687 330 687 L330 704 L12 704 L12 687 C56 687 92 660 92 599 L92 246 C92 83 204 -9 340 -9 C428 -9 587 26 587 240 L570 240 C570 114 481 51 405 51 L405 51 Z M434 687 C572 688 570 537 570 537 L587 537 C587 537 585 688 736 687 L736 704 L434 704 L434 687 Z M365 935 C396 935 420 911 420 880 C420 850 396 825 365 825 C335 825 311 850 311 880 C311 911 335 935 365 935 L365 935 Z M365 975 C313 975 269 933 269 880 C269 828 313 785 365 785 C418 785 461 828 461 880 C461 933 418 975 365 975 L365 975 Z " />
<glyph glyph-name="uring" unicode="&#x16f;" horiz-adv-x="561" d="M493 92 L493 471 L321 452 L321 435 C372 429 368 416 368 355 L368 11 C368 11 369 -12 396 -8 L544 18 L544 35 C502 40 493 44 493 92 L493 92 Z M331 81 C314 68 296 64 281 64 C223 64 197 91 197 147 L197 471 L17 452 L17 435 C75 427 73 418 73 358 L73 144 C73 24 120 -9 199 -9 C246 -9 307 21 343 61 C343 61 331 81 331 81 L331 81 Z M294 670 C325 670 349 646 349 615 C349 585 325 560 294 560 C264 560 240 585 240 615 C240 646 264 670 294 670 L294 670 Z M294 710 C242 710 198 668 198 615 C198 563 242 520 294 520 C347 520 390 563 390 615 C390 668 347 710 294 710 L294 710 Z " />
<glyph glyph-name="Uhungarumlaut" unicode="&#x170;" horiz-adv-x="752" d="M405 51 C310 51 237 121 237 239 L237 599 C237 671 287 687 330 687 L330 704 L12 704 L12 687 C56 687 92 660 92 599 L92 246 C92 83 204 -9 340 -9 C428 -9 587 26 587 240 L570 240 C570 114 481 51 405 51 L405 51 Z M434 687 C572 688 570 537 570 537 L587 537 C587 537 585 688 736 687 L736 704 L434 704 L434 687 Z M233 735 L270 735 L514 863 L402 898 L233 735 Z M413 735 L450 735 L694 863 L582 898 L413 735 Z " />
<glyph glyph-name="uhungarumlaut" unicode="&#x171;" horiz-adv-x="561" d="M493 92 L493 471 L321 452 L321 435 C372 429 368 416 368 355 L368 11 C368 11 369 -12 396 -8 L544 18 L544 35 C502 40 493 44 493 92 L493 92 Z M331 81 C314 68 296 64 281 64 C223 64 197 91 197 147 L197 471 L17 452 L17 435 C75 427 73 418 73 358 L73 144 C73 24 120 -9 199 -9 C246 -9 307 21 343 61 C343 61 331 81 331 81 L331 81 Z M123 541 L160 541 L404 669 L292 704 L123 541 Z M303 541 L340 541 L584 669 L472 704 L303 541 Z " />
<glyph glyph-name="Ydieresis" unicode="&#x178;" horiz-adv-x="771" d="M290 774 C323 774 349 800 349 833 C349 865 323 892 290 892 C258 892 231 865 231 833 C231 800 258 774 290 774 L290 774 Z M478 774 C511 774 538 800 538 833 C538 865 511 892 478 892 C446 892 419 865 419 833 C419 800 446 774 478 774 L478 774 Z M456 121 L456 327 L305 574 C237 689 307 688 328 688 L328 704 L9 704 L9 688 C34 688 72 685 116 609 C116 609 164 536 311 276 L311 121 C311 53 268 17 226 17 L226 0 L541 0 L541 17 C499 17 456 53 456 121 L456 121 Z M458 687 C602 687 510 481 510 481 L522 466 C634 685 732 687 758 687 L758 704 L458 704 L458 687 Z " />
<glyph glyph-name="Zacute" unicode="&#x179;" horiz-adv-x="617" d="M75 704 L56 502 L76 502 C111 603 241 687 374 687 L385 704 L75 704 Z M271 17 L262 0 L552 0 L577 233 L559 233 C537 172 424 17 271 17 L271 17 Z M594 704 L431 704 L24 0 L215 0 L594 704 Z M187 735 L224 735 L468 863 L356 898 L187 735 Z " />
<glyph glyph-name="zacute" unicode="&#x17a;" horiz-adv-x="463" d="M65 462 L60 330 L77 330 C97 389 143 434 247 443 L257 462 L65 462 Z M430 462 L298 462 L29 0 L177 0 L430 462 Z M228 20 L218 0 L399 0 L408 152 L391 152 C378 116 344 36 228 20 L228 20 Z M145 541 L182 541 L426 669 L314 704 L145 541 Z " />
<glyph glyph-name="Zdotaccent" unicode="&#x17b;" horiz-adv-x="617" d="M75 704 L56 502 L76 502 C111 603 241 687 374 687 L385 704 L75 704 Z M271 17 L262 0 L552 0 L577 233 L559 233 C537 172 424 17 271 17 L271 17 Z M594 704 L431 704 L24 0 L215 0 L594 704 Z M392 847 C392 879 365 905 333 905 C300 905 273 879 273 847 C273 814 300 787 333 787 C365 787 392 814 392 847 L392 847 Z " />
<glyph glyph-name="zdotaccent" unicode="&#x17c;" horiz-adv-x="463" d="M65 462 L60 330 L77 330 C97 389 143 434 247 443 L257 462 L65 462 Z M430 462 L298 462 L29 0 L177 0 L430 462 Z M228 20 L218 0 L399 0 L408 152 L391 152 C378 116 344 36 228 20 L228 20 Z M301 627 C301 659 274 685 242 685 C209 685 182 659 182 627 C182 594 209 567 242 567 C274 567 301 594 301 627 L301 627 Z " />
<glyph glyph-name="Zcaron" unicode="&#x17d;" horiz-adv-x="617" d="M75 704 L56 502 L76 502 C111 603 241 687 374 687 L385 704 L75 704 Z M271 17 L262 0 L552 0 L577 233 L559 233 C537 172 424 17 271 17 L271 17 Z M594 704 L431 704 L24 0 L215 0 L594 704 Z M187 922 L342 735 L497 922 L460 922 L342 845 L223 922 L187 922 Z " />
<glyph glyph-name="zcaron" unicode="&#x17e;" horiz-adv-x="466" d="M84 682 L239 495 L394 682 L357 682 L239 605 L120 682 L84 682 Z M65 462 L60 330 L77 330 C97 389 143 434 247 443 L257 462 L65 462 Z M430 462 L298 462 L29 0 L177 0 L430 462 Z M228 20 L218 0 L399 0 L408 152 L391 152 C378 116 344 36 228 20 L228 20 Z " />
<glyph glyph-name="florin" unicode="&#x192;" horiz-adv-x="695" d="M294 385 L219 385 L217 368 L293 368 L246 -3 C246 -3 214 -182 163 -221 L163 -238 C287 -230 355 -132 386 98 L423 368 L541 368 L547 385 L425 385 L440 498 C440 498 471 679 525 717 L525 734 C402 720 317 569 294 385 L294 385 Z M103 -203 C117 -199 131 -189 138 -174 C153 -144 140 -108 111 -93 C81 -79 45 -91 30 -121 C20 -142 23 -171 34 -189 C43 -204 73 -231 121 -237 L121 -220 C94 -216 96 -204 103 -203 L103 -203 Z M651 684 C641 700 609 726 566 733 L566 716 C588 712 586 700 581 698 C566 694 554 684 547 669 C532 639 545 603 575 588 C604 574 640 586 655 616 C665 637 662 666 651 684 L651 684 Z " />
<glyph glyph-name="uni0218" unicode="&#x218;" horiz-adv-x="616" d="M357 -240 C343 -262 319 -294 273 -319 L262 -305 C319 -261 332 -196 316 -194 C296 -192 276 -186 260 -170 C227 -139 227 -86 259 -53 C291 -21 344 -21 376 -53 C426 -103 389 -192 357 -240 L357 -240 Z M63 245 L46 245 L46 53 C46 53 117 -2 288 -8 L288 10 C135 29 84 188 63 245 L63 245 Z M416 377 L262 479 C146 555 165 672 247 695 L247 712 C115 703 72 637 72 637 C-11 528 42 428 184 339 L338 242 C447 162 432 34 351 9 L351 -8 C487 2 528 73 528 73 C603 182 548 290 416 377 L416 377 Z M519 497 L536 497 L536 665 C536 665 460 707 310 712 L310 694 C447 677 501 546 519 497 L519 497 Z " />
<glyph glyph-name="uni0219" unicode="&#x219;" horiz-adv-x="444" d="M267 -240 C253 -262 229 -294 183 -319 L172 -305 C229 -261 242 -196 226 -194 C206 -192 186 -186 170 -170 C137 -139 137 -86 169 -53 C201 -21 254 -21 286 -53 C336 -103 299 -192 267 -240 L267 -240 Z M356 329 L373 329 L373 441 C373 441 329 467 230 470 L230 452 C316 441 344 361 356 329 L356 329 Z M303 259 L202 322 C125 371 138 437 188 451 L188 470 C103 464 70 421 70 421 C15 349 41 268 138 209 L239 148 C307 103 305 27 253 11 L253 -8 C339 -2 372 45 372 45 C422 117 392 204 303 259 L303 259 Z M68 163 L51 163 L51 37 C51 37 104 -4 211 -9 L211 9 C111 22 82 126 68 163 L68 163 Z " />
<glyph glyph-name="uni021A" unicode="&#x21a;" horiz-adv-x="698" d="M377 -240 C363 -262 339 -294 293 -319 L282 -305 C339 -261 352 -196 336 -194 C316 -192 296 -186 280 -170 C247 -139 247 -86 279 -53 C311 -21 364 -21 396 -53 C446 -103 409 -192 377 -240 L377 -240 Z M19 704 L19 503 L36 503 C44 682 256 687 256 687 L275 687 L275 121 C275 53 232 17 190 17 L190 0 L505 0 L505 17 C463 17 420 53 420 121 L420 687 L439 687 C439 687 652 682 660 503 L677 503 L677 704 L19 704 L19 704 Z " />
<glyph glyph-name="uni021B" unicode="&#x21b;" horiz-adv-x="354" d="M231 -240 C217 -262 193 -294 147 -319 L136 -305 C193 -261 206 -196 190 -194 C170 -192 150 -186 134 -170 C101 -139 101 -86 133 -53 C165 -21 218 -21 250 -53 C300 -103 263 -192 231 -240 L231 -240 Z M269 62 C219 62 195 91 195 147 L195 445 L310 445 L314 462 L195 462 L195 617 L70 596 L70 462 L17 462 L20 445 L70 445 L70 144 C70 23 117 -9 196 -9 C263 -9 324 41 344 88 L329 97 C320 82 298 62 269 62 L269 62 Z " />
<glyph glyph-name="circumflex" unicode="&#x2c6;" horiz-adv-x="310" d="M310 531 L155 719 L0 531 L36 531 L155 608 L274 531 L310 531 Z " />
<glyph glyph-name="caron" unicode="&#x2c7;" horiz-adv-x="312" d="M0 720 L155 533 L310 720 L273 720 L155 643 L36 720 L0 720 Z " />
<glyph glyph-name="uni02C9" unicode="&#x2c9;" horiz-adv-x="305" d="M330 583 L330 659 L-25 659 L-25 583 L330 583 Z " />
<glyph glyph-name="breve" unicode="&#x2d8;" horiz-adv-x="267" d="M135 631 C40 631 16 667 16 704 L-1 704 C-1 628 38 556 135 556 C230 556 268 628 268 704 L251 704 C251 667 227 631 135 631 L135 631 Z " />
<glyph glyph-name="dotaccent" unicode="&#x2d9;" horiz-adv-x="278" d="M199 646 C199 678 172 704 140 704 C107 704 80 678 80 646 C80 613 107 586 140 586 C172 586 199 613 199 646 L199 646 Z " />
<glyph glyph-name="ring" unicode="&#x2da;" horiz-adv-x="278" d="M141 692 C172 692 196 668 196 637 C196 607 172 582 141 582 C111 582 87 607 87 637 C87 668 111 692 141 692 L141 692 Z M141 732 C89 732 45 690 45 637 C45 585 89 542 141 542 C194 542 237 585 237 637 C237 690 194 732 141 732 L141 732 Z " />
<glyph glyph-name="ogonek" unicode="&#x2db;" horiz-adv-x="278" d="M247 -12 L247 5 C155 -26 85 -71 107 -155 C107 -155 123 -217 217 -203 C275 -192 278 -155 278 -124 L261 -124 C261 -143 249 -156 231 -159 C231 -159 181 -167 169 -124 C160 -86 186 -45 247 -12 L247 -12 Z " />
<glyph glyph-name="tilde" unicode="&#x2dc;" horiz-adv-x="445" d="M266 550 C266 550 386 510 458 684 L443 692 C417 638 327 629 292 641 L173 685 C173 685 52 725 -19 551 L-4 545 C22 600 112 605 146 593 L266 550 Z " />
<glyph glyph-name="hungarumlaut" unicode="&#x2dd;" horiz-adv-x="550" d="M87 557 L124 557 L368 685 L256 720 L87 557 Z M267 557 L304 557 L548 685 L436 720 L267 557 Z " />
<glyph glyph-name="uni03A9" unicode="&#x3a9;" horiz-adv-x="738" d="M692 175 C673 128 621 119 590 119 L477 119 C485 140 522 157 556 193 C640 282 663 361 663 450 C663 598 576 720 400 733 L400 716 C462 707 512 661 512 445 C512 200 425 86 409 0 L678 0 L709 175 L692 175 Z M75 450 C75 361 98 282 182 193 C216 157 253 140 261 119 L148 119 C117 119 65 128 46 175 L29 175 L60 0 L329 0 C313 86 226 200 226 445 C226 661 277 707 338 716 L338 733 C162 720 75 598 75 450 L75 450 Z " />
<glyph glyph-name="uni03BC" unicode="&#x3bc;" horiz-adv-x="557" d="M336 64 L325 81 C308 68 289 64 275 64 C217 64 191 91 191 147 L191 471 L11 452 L11 435 C69 427 67 418 67 358 L67 -245 C67 -245 67 -269 96 -264 L243 -238 L243 -221 C201 -217 191 -206 191 -157 L191 -9 C242 -9 307 13 336 64 L336 64 Z M487 92 L487 471 L315 452 L315 435 C366 429 362 416 362 355 L362 11 C362 11 363 -12 390 -8 L538 18 L538 35 C496 40 487 44 487 92 L487 92 Z " />
<glyph glyph-name="pi" unicode="&#x3c0;" horiz-adv-x="582" d="M525 66 C525 66 518 45 492 45 C492 45 452 47 452 115 L452 372 L452 372 C553 372 566 440 566 525 L549 525 C543 468 506 462 433 462 L176 462 C57 458 8 307 8 307 L24 297 C71 357 142 370 179 372 L179 372 L166 181 C162 119 119 17 57 -31 L67 -44 C67 -44 226 55 231 175 L244 372 L359 372 L359 90 C359 90 359 -9 447 -9 C506 -9 535 21 541 57 L525 66 Z " />
<glyph glyph-name="uni2010" unicode="&#x2010;" horiz-adv-x="447" d="M379 208 L379 301 L64 301 L64 208 L379 208 Z " />
<glyph glyph-name="endash" unicode="&#x2013;" horiz-adv-x="561" d="M0 286 L0 218 L561 218 L561 286 L0 286 Z " />
<glyph glyph-name="emdash" unicode="&#x2014;" horiz-adv-x="1055" d="M0 286 L0 218 L1055 218 L1055 286 L0 286 Z " />
<glyph glyph-name="quoteleft" unicode="&#x2018;" horiz-adv-x="268" d="M103 653 C71 605 34 516 84 466 C116 434 169 434 201 466 C233 499 233 552 200 583 C184 599 164 605 144 607 C128 609 141 674 198 718 L187 732 C141 707 117 675 103 653 L103 653 Z " />
<glyph glyph-name="quoteright" unicode="&#x2019;" horiz-adv-x="273" d="M177 522 C209 570 246 659 196 709 C164 741 111 741 79 709 C47 676 47 623 80 592 C96 576 116 570 136 568 C152 566 139 501 82 457 L93 443 C139 468 163 500 177 522 L177 522 Z " />
<glyph glyph-name="quotesinglbase" unicode="&#x201a;" horiz-adv-x="278" d="M180 -53 C212 -5 249 84 199 134 C167 166 114 166 82 134 C50 101 50 48 83 17 C99 1 119 -5 139 -7 C155 -9 142 -74 85 -118 L96 -132 C142 -107 166 -75 180 -53 L180 -53 Z " />
<glyph glyph-name="quotedblleft" unicode="&#x201c;" horiz-adv-x="529" d="M94 658 C62 610 25 521 75 471 C107 439 160 439 192 471 C224 504 224 557 191 588 C175 604 155 610 135 612 C119 614 132 679 189 723 L178 737 C132 712 108 680 94 658 L94 658 Z M344 658 C312 610 275 521 325 471 C357 439 410 439 442 471 C474 504 474 557 441 588 C425 604 405 610 385 612 C369 614 382 679 439 723 L428 737 C382 712 358 680 344 658 L344 658 Z " />
<glyph glyph-name="quotedblright" unicode="&#x201d;" horiz-adv-x="521" d="M177 522 C209 570 246 659 196 709 C164 741 111 741 79 709 C47 676 47 623 80 592 C96 576 116 570 136 568 C152 566 139 501 82 457 L93 443 C139 468 163 500 177 522 L177 522 Z M427 522 C459 570 496 659 446 709 C414 741 361 741 329 709 C297 676 297 623 330 592 C346 576 366 570 386 568 C402 566 389 501 332 457 L343 443 C389 468 413 500 427 522 L427 522 Z " />
<glyph glyph-name="quotedblbase" unicode="&#x201e;" horiz-adv-x="521" d="M175 -53 C207 -5 244 84 194 134 C162 166 109 166 77 134 C45 101 45 48 78 17 C94 1 114 -5 134 -7 C150 -9 137 -74 80 -118 L91 -132 C137 -107 161 -75 175 -53 L175 -53 Z M425 -53 C457 -5 494 84 444 134 C412 166 359 166 327 134 C295 101 295 48 328 17 C344 1 364 -5 384 -7 C400 -9 387 -74 330 -118 L341 -132 C387 -107 411 -75 425 -53 L425 -53 Z " />
<glyph glyph-name="dagger" unicode="&#x2020;" horiz-adv-x="425" d="M212 645 C238 645 260 667 260 694 C260 720 238 742 212 742 C185 742 163 720 163 694 C163 667 185 645 212 645 L212 645 Z M122 454 C97 471 53 489 28 463 C11 447 12 421 28 404 C45 388 71 388 87 405 C95 413 98 423 99 433 C100 440 135 433 156 406 L161 410 C147 433 132 447 122 454 L122 454 Z M221 403 C221 459 244 492 244 545 C244 545 244 606 212 606 C180 606 180 545 180 545 C180 492 203 456 203 403 C203 403 205 350 159 292 C209 36 208 -265 208 -265 L217 -265 C217 -265 215 36 265 292 C219 347 221 403 221 403 L221 403 Z M395 463 C370 489 327 471 302 454 C291 447 276 433 262 410 L267 406 C288 433 323 440 324 433 C325 423 328 413 336 405 C353 388 379 388 395 404 C412 421 412 447 395 463 L395 463 Z " />
<glyph glyph-name="daggerdbl" unicode="&#x2021;" horiz-adv-x="541" d="M333 246 C277 281 278 350 278 350 C278 418 308 425 308 491 C308 491 308 566 269 566 C229 566 229 491 229 491 C229 425 259 414 259 350 C259 350 260 285 203 246 C260 212 259 143 259 143 C259 74 229 67 229 2 C229 2 229 -73 269 -73 C308 -73 308 2 308 2 C308 67 278 78 278 143 C278 143 277 207 333 246 L333 246 Z M407 422 C407 410 411 397 421 387 C441 367 473 367 494 387 C514 407 514 439 494 459 C463 491 409 469 379 448 C366 439 347 422 331 394 L336 390 C363 422 406 431 407 422 L407 422 Z M269 616 C301 616 328 642 328 675 C328 708 301 735 269 735 C236 735 209 708 209 675 C209 642 236 616 269 616 L269 616 Z M269 -121 C236 -121 209 -148 209 -180 C209 -214 236 -240 269 -240 C301 -240 328 -214 328 -180 C328 -148 301 -121 269 -121 L269 -121 Z M116 387 C126 397 130 410 131 422 C132 431 174 422 200 390 L206 394 C189 422 171 439 158 448 C128 469 74 491 43 459 C23 439 23 407 43 387 C64 367 96 367 116 387 L116 387 Z M421 110 C411 100 407 88 407 75 C406 67 363 75 336 108 L331 104 C347 75 366 59 379 49 C409 29 463 7 494 38 C514 58 514 90 494 110 C473 131 441 131 421 110 L421 110 Z M131 75 C130 88 126 100 116 110 C96 131 63 131 43 110 C23 90 23 58 43 38 C74 7 128 29 158 49 C171 59 189 75 206 104 L200 108 C174 75 131 67 131 75 L131 75 Z " />
<glyph glyph-name="bullet" unicode="&#x2022;" horiz-adv-x="500" d="M250 220 C318 220 372 274 372 341 C372 409 318 463 250 463 C183 463 128 409 128 341 C128 274 183 220 250 220 L250 220 Z " />
<glyph glyph-name="ellipsis" unicode="&#x2026;" horiz-adv-x="866" d="M255 76 C255 123 217 161 170 161 C124 161 86 123 86 76 C86 29 124 -8 170 -8 C217 -8 255 29 255 76 L255 76 Z M520 76 C520 123 482 161 436 161 C389 161 351 123 351 76 C351 29 389 -8 436 -8 C482 -8 520 29 520 76 L520 76 Z M786 76 C786 123 748 161 701 161 C654 161 616 123 616 76 C616 29 654 -8 701 -8 C748 -8 786 29 786 76 L786 76 Z " />
<glyph glyph-name="perthousand" unicode="&#x2030;" horiz-adv-x="1131" d="M127 0 L192 0 L648 704 L583 704 L127 0 Z M157 679 C47 679 18 595 18 497 C18 398 47 321 157 321 C266 321 295 398 295 497 C295 595 266 679 157 679 L157 679 Z M157 338 C113 338 106 361 106 497 C106 633 112 662 157 662 C200 662 207 633 207 497 C207 361 202 338 157 338 L157 338 Z M618 383 C508 383 479 299 479 201 C479 102 508 25 618 25 C727 25 756 102 756 201 C756 299 727 383 618 383 L618 383 Z M618 42 C574 42 567 65 567 201 C567 337 573 366 618 366 C661 366 668 337 668 201 C668 65 663 42 618 42 L618 42 Z M957 383 C847 383 818 299 818 201 C818 102 847 25 957 25 C1066 25 1095 102 1095 201 C1095 299 1066 383 957 383 L957 383 Z M957 42 C913 42 906 65 906 201 C906 337 912 366 957 366 C1000 366 1007 337 1007 201 C1007 65 1002 42 957 42 L957 42 Z " />
<glyph glyph-name="guilsinglleft" unicode="&#x2039;" horiz-adv-x="339" d="M281 505 L50 266 L281 33 L281 72 L158 266 L281 466 L281 505 Z " />
<glyph glyph-name="guilsinglright" unicode="&#x203a;" horiz-adv-x="339" d="M48 466 L171 266 L48 72 L48 33 L279 266 L48 505 L48 466 Z " />
<glyph glyph-name="fraction" unicode="&#x2044;" horiz-adv-x="351" d="M458 734 L-146 0 L-82 0 L523 734 L458 734 Z " />
<glyph glyph-name="Euro" unicode="&#x20ac;" horiz-adv-x="623" d="M124 422 L34 422 L22 405 L122 405 C120 385 119 365 119 352 C119 339 120 317 122 300 L34 300 L22 283 L124 283 C142 132 207 6 373 -8 L373 10 C295 25 271 98 265 283 L462 283 L474 300 L264 300 L264 352 L264 405 L478 405 L491 422 L265 422 C271 606 295 679 373 693 L373 711 C207 697 142 571 124 422 L124 422 Z M547 540 L564 540 L564 673 C529 699 499 710 436 712 L436 693 C509 679 547 616 547 540 L547 540 Z M564 31 L564 164 L547 164 C547 88 507 24 436 11 L436 -9 C493 -6 529 5 564 31 L564 31 Z " />
<glyph glyph-name="afii61289" unicode="&#x2113;" horiz-adv-x="359" d="M281 48 C231 42 199 81 206 183 L208 296 L258 343 C314 396 338 496 330 581 C322 580 314 579 305 578 C309 511 293 432 235 376 L209 351 L209 503 C209 784 271 697 274 693 L284 707 C216 779 85 736 85 480 L85 275 L22 225 L22 173 L85 221 L85 189 C85 21 162 -9 239 -9 C285 -9 341 33 345 91 L329 96 C319 65 299 52 281 48 L281 48 Z " />
<glyph glyph-name="trademark" unicode="&#x2122;" horiz-adv-x="720" d="M13 704 L13 622 L30 622 C30 687 110 687 110 687 L117 687 L117 477 C117 449 100 434 83 434 L83 417 L211 417 L211 434 C194 434 177 449 177 477 L177 687 L184 687 C184 687 264 687 264 622 L281 622 L281 704 L13 704 Z M662 476 L662 651 C662 677 677 687 694 687 L694 704 L604 704 L520 499 L425 704 L322 704 L322 687 C332 687 354 687 364 673 L364 529 C364 529 369 434 308 434 L308 417 L431 417 L431 434 C375 434 381 529 381 529 L381 652 L487 414 L504 414 L604 653 L604 476 C604 448 592 434 575 434 L575 417 L698 417 L698 434 C680 434 662 448 662 476 L662 476 Z " />
<glyph glyph-name="Omega" unicode="&#x2126;" horiz-adv-x="739" d="M692 175 C673 128 621 119 590 119 L477 119 C485 140 522 157 556 193 C640 282 663 361 663 450 C663 598 576 720 400 733 L400 716 C462 707 512 661 512 445 C512 200 425 86 409 0 L678 0 L709 175 L692 175 Z M75 450 C75 361 98 282 182 193 C216 157 253 140 261 119 L148 119 C117 119 65 128 46 175 L29 175 L60 0 L329 0 C313 86 226 200 226 445 C226 661 277 707 338 716 L338 733 C162 720 75 598 75 450 L75 450 Z " />
<glyph glyph-name="estimated" unicode="&#x212e;" horiz-adv-x="892" d="M180 605 C248 664 342 701 445 701 C551 701 647 662 716 600 L716 398 L180 398 L180 605 Z M445 735 C217 735 32 570 32 367 C32 164 217 0 445 0 C577 0 693 54 769 140 L721 140 C652 75 554 34 445 34 C342 34 248 70 180 129 L180 367 L858 367 C858 570 673 735 445 735 L445 735 Z " />
<glyph glyph-name="partialdiff" unicode="&#x2202;" horiz-adv-x="572" d="M61 668 L95 561 L115 568 C114 630 165 704 232 722 L232 742 C156 737 96 709 61 668 L61 668 Z M294 742 L294 723 C365 705 407 617 387 365 C368 436 282 462 236 462 C96 462 51 342 41 227 C29 78 105 3 227 -8 L227 11 C181 24 165 72 176 206 C188 343 231 413 286 413 C316 413 369 378 383 330 C367 153 338 42 289 11 L289 -8 C438 8 513 137 529 332 C549 572 450 724 294 742 L294 742 Z " />
<glyph glyph-name="Delta" unicode="&#x2206;" horiz-adv-x="714" d="M375 738 L320 720 L33 28 L32 26 L38 0 L654 0 L669 32 L375 738 Z M87 44 L298 527 L509 44 L87 44 Z " />
<glyph glyph-name="product" unicode="&#x220f;" horiz-adv-x="839" d="M809 687 L809 704 L26 704 L26 687 C76 687 121 657 121 588 L121 49 C121 -28 74 -68 26 -68 L26 -85 L380 -85 L380 -68 C333 -68 285 -28 285 49 L285 586 C285 656 332 687 380 687 L454 687 C503 687 550 656 550 586 L550 49 C550 -28 502 -68 454 -68 L454 -85 L809 -85 L809 -68 C761 -68 713 -28 713 49 L713 588 C713 657 760 687 809 687 L809 687 Z " />
<glyph glyph-name="summation" unicode="&#x2211;" horiz-adv-x="680" d="M271 687 C416 684 570 586 610 473 L627 473 L605 704 L262 704 C265 698 268 692 271 687 L271 687 Z M158 -98 L415 340 L206 704 L15 704 L263 240 L70 -98 L158 -98 Z M628 168 C602 98 525 -81 236 -81 L227 -81 C224 -87 221 -93 219 -98 L617 -98 L644 168 L628 168 Z " />
<glyph glyph-name="minus" unicode="&#x2212;" horiz-adv-x="626" d="M581 208 L581 301 L48 301 L48 208 L581 208 Z " />
<glyph glyph-name="uni2215" unicode="&#x2215;" horiz-adv-x="352" d="M458 734 L-146 0 L-82 0 L523 734 L458 734 Z " />
<glyph glyph-name="uni2219" unicode="&#x2219;" horiz-adv-x="278" d="M203 298 C203 333 175 361 140 361 C105 361 78 333 78 298 C78 264 105 236 140 236 C175 236 203 264 203 298 L203 298 Z " />
<glyph glyph-name="radical" unicode="&#x221a;" horiz-adv-x="565" d="M352 78 L205 419 L46 350 L52 335 C90 350 131 316 153 264 L345 -186 L363 -179 L543 852 L489 867 L352 78 Z " />
<glyph glyph-name="infinity" unicode="&#x221e;" horiz-adv-x="799" d="M626 235 C610 220 590 211 569 211 C548 211 528 220 513 235 L456 291 L513 348 C527 363 547 371 569 371 C591 371 611 363 626 348 C641 333 649 313 649 291 C649 270 641 250 626 235 L626 235 Z M275 235 C259 220 239 211 218 211 C197 211 177 220 161 235 C146 250 138 270 138 291 C138 313 146 333 161 348 C176 363 196 371 218 371 C240 371 260 363 274 348 L331 292 L275 235 Z M688 410 C656 442 614 460 569 460 C524 460 483 443 450 410 L394 354 L337 410 C305 442 263 460 218 460 C172 460 128 442 97 411 C36 345 33 237 97 173 C128 142 172 123 218 123 C263 123 305 141 337 173 L394 229 L450 173 C483 140 524 123 569 123 C614 123 656 141 688 173 C754 238 754 345 688 410 L688 410 Z " />
<glyph glyph-name="integral" unicode="&#x222b;" horiz-adv-x="406" d="M96 -178 C108 -175 119 -164 124 -151 C135 -124 121 -92 93 -82 C66 -70 34 -84 24 -112 C17 -131 22 -156 33 -172 C42 -185 71 -203 107 -208 L107 -189 C97 -186 91 -180 96 -178 L96 -178 Z M135 446 L170 6 C182 -123 162 -174 145 -189 L145 -208 C243 -192 290 -65 270 170 L235 611 C224 742 243 790 261 805 L261 824 C164 808 115 681 135 446 L135 446 Z M373 788 C363 800 334 819 299 824 L299 805 C308 801 314 795 311 795 C298 792 287 781 281 767 C271 739 284 709 312 698 C339 686 371 700 381 728 C388 746 385 773 373 788 L373 788 Z " />
<glyph glyph-name="approxequal" unicode="&#x2248;" horiz-adv-x="532" d="M312 305 C312 305 432 265 504 439 L489 447 C463 393 373 384 338 396 L219 440 C219 440 98 480 27 306 L42 300 C68 355 158 360 192 348 L312 305 Z M312 123 C312 123 432 83 504 257 L489 265 C463 211 373 202 338 214 L219 258 C219 258 98 298 27 124 L42 118 C68 173 158 178 192 166 L312 123 Z " />
<glyph glyph-name="notequal" unicode="&#x2260;" horiz-adv-x="527" d="M480 344 L480 412 L364 412 L412 518 L351 547 L289 412 L46 412 L46 344 L256 344 L200 221 L46 221 L46 153 L168 153 L124 57 L186 29 L243 153 L480 153 L480 221 L276 221 L332 344 L480 344 Z " />
<glyph glyph-name="lessequal" unicode="&#x2264;" horiz-adv-x="532" d="M47 67 L47 -20 L479 -20 L479 67 L47 67 Z M220 344 L479 480 L479 585 L56 368 L56 321 L479 105 L479 208 L220 344 Z " />
<glyph glyph-name="greaterequal" unicode="&#x2265;" horiz-adv-x="532" d="M55 67 L55 -20 L487 -20 L487 67 L55 67 Z M55 208 L55 105 L478 321 L478 368 L55 585 L55 480 L314 344 L55 208 Z " />
<glyph glyph-name="lozenge" unicode="&#x25ca;" horiz-adv-x="559" d="M301 733 L256 733 L48 327 L48 327 L256 -79 L301 -79 L509 327 L509 327 L301 733 Z M418 327 L278 58 L138 327 L138 327 L278 596 L418 327 Z " />
<glyph glyph-name="zero.taboldstyle" unicode="&#xf643;" horiz-adv-x="580" d="M203 229 C203 384 210 438 263 450 L263 469 C130 458 56 373 56 229 C56 80 130 2 263 -8 L263 11 C210 23 203 74 203 229 L203 229 Z M535 229 C535 380 460 459 326 469 L326 450 C378 438 386 385 386 229 C386 74 378 22 326 10 L326 -8 C460 1 535 78 535 229 L535 229 Z " />
<glyph glyph-name="one.taboldstyle" unicode="&#xf644;" horiz-adv-x="513" d="M204 95 C204 20 150 17 110 17 L110 0 L410 0 L410 17 C375 17 329 18 329 95 L329 471 L329 471 L129 435 L129 418 C180 418 204 415 204 365 L204 95 Z " />
<glyph glyph-name="two.taboldstyle" unicode="&#xf645;" horiz-adv-x="537" d="M85 371 C79 352 83 329 98 313 C119 291 155 290 177 312 C199 333 200 369 178 391 C167 402 152 407 138 406 C133 406 130 413 148 425 L143 439 C102 410 89 384 85 371 L85 371 Z M445 174 C424 134 388 117 354 117 L201 112 C244 154 449 199 432 363 C421 473 279 480 201 464 L207 448 C253 444 299 401 308 348 C318 288 298 222 177 111 L72 0 L414 0 L462 174 L445 174 Z " />
<glyph glyph-name="three.taboldstyle" unicode="&#xf646;" horiz-adv-x="554" d="M182 -216 C200 -206 214 -194 219 -174 C229 -131 205 -90 163 -80 C122 -70 80 -96 71 -139 C64 -168 77 -199 96 -216 C131 -248 173 -261 238 -265 L238 -246 C188 -240 173 -220 182 -216 L182 -216 Z M510 -12 C506 49 457 115 367 151 C536 314 409 471 268 471 C268 471 113 471 90 305 L107 301 C145 379 244 388 289 351 C346 305 367 164 200 112 L200 95 C355 74 386 -27 390 -63 C397 -138 380 -229 301 -246 L301 -263 C390 -251 520 -175 510 -12 L510 -12 Z " />
<glyph glyph-name="four.taboldstyle" unicode="&#xf647;" horiz-adv-x="582" d="M527 -48 L527 22 L423 22 L423 462 L379 471 L278 317 L278 22 L149 22 C131 22 107 22 126 58 L112 65 L49 -31 L49 -48 L278 -48 L278 -125 C278 -244 235 -248 193 -248 L193 -265 L508 -265 L508 -248 C466 -248 423 -247 423 -120 L423 -48 L527 -48 Z " />
<glyph glyph-name="five.taboldstyle" unicode="&#xf648;" horiz-adv-x="553" d="M491 462 L145 462 L121 331 L448 331 L491 462 Z M93 179 L71 62 C322 96 389 -36 401 -78 C421 -146 393 -233 282 -247 L282 -264 C406 -253 504 -177 504 -36 C504 62 422 245 93 179 L93 179 Z M187 -223 C204 -213 216 -198 221 -176 C231 -134 205 -93 164 -83 C122 -73 80 -99 70 -140 C64 -169 75 -201 95 -219 C114 -233 152 -258 219 -264 L219 -247 C181 -242 177 -229 187 -223 L187 -223 Z " />
<glyph glyph-name="six.taboldstyle" unicode="&#xf649;" horiz-adv-x="592" d="M407 680 C390 677 375 667 365 652 C345 620 354 577 386 557 C419 537 461 546 481 579 C495 601 494 631 482 650 C472 665 440 701 380 710 L380 693 C403 688 411 680 407 680 L407 680 Z M548 232 C548 342 503 471 361 471 C315 471 234 458 203 377 C204 610 257 678 317 693 L317 710 C172 691 45 542 45 313 C45 126 120 6 269 -8 L269 11 C219 40 205 151 203 335 C219 398 277 429 308 429 C363 429 401 343 401 212 C401 81 382 25 331 11 L331 -8 C455 4 548 88 548 232 L548 232 Z " />
<glyph glyph-name="seven.taboldstyle" unicode="&#xf64a;" horiz-adv-x="556" d="M457 333 L532 462 L81 462 L57 275 L74 275 C95 315 133 333 167 333 L457 333 Z M194 -257 L336 -257 C336 -103 338 80 425 270 L408 270 C239 77 194 -92 194 -257 L194 -257 Z " />
<glyph glyph-name="eight.taboldstyle" unicode="&#xf64b;" horiz-adv-x="574" d="M539 202 C539 285 462 371 368 418 C452 437 493 507 493 567 C493 653 419 703 315 711 L315 692 C360 682 402 645 402 554 C402 489 390 446 350 427 C235 472 190 523 190 586 C190 643 216 678 253 690 L253 711 C149 701 69 640 69 523 C69 459 108 386 201 329 C125 311 44 238 44 152 C44 40 135 -3 266 -9 L266 10 C192 23 154 83 154 158 C154 258 194 305 219 318 C234 309 244 304 261 295 C322 263 409 213 409 131 C409 62 376 23 329 11 L329 -8 C449 0 539 58 539 202 L539 202 Z " />
<glyph glyph-name="nine.taboldstyle" unicode="&#xf64c;" horiz-adv-x="574" d="M541 139 C541 325 465 454 316 469 L316 449 C367 416 383 287 383 118 C367 55 309 33 278 33 C223 33 185 115 185 246 C185 376 203 434 254 449 L254 469 C130 459 38 387 38 226 C38 116 83 -9 225 -9 C271 -9 353 -2 383 74 C382 -175 365 -237 269 -247 L269 -264 C449 -247 541 -94 541 139 L541 139 Z M173 -232 C192 -229 210 -218 221 -201 C243 -165 233 -119 198 -96 C162 -74 116 -84 94 -120 C78 -144 79 -178 92 -199 C102 -216 131 -256 207 -264 L207 -246 C180 -242 167 -232 173 -232 L173 -232 Z " />
<glyph glyph-name="dollar.taboldstyle" unicode="&#xf653;" horiz-adv-x="594" d="M296 8 L296 268 L338 242 C441 167 454 8 296 8 L296 8 Z M279 467 L262 479 C132 564 171 696 279 696 L279 467 Z M416 377 L296 456 L296 696 C444 686 509 548 528 497 L536 497 L536 665 C536 665 455 710 296 713 L296 835 L279 835 L279 713 C121 713 72 637 72 637 C-11 528 42 428 184 339 L279 279 L279 9 C132 35 74 189 54 245 L46 245 L46 53 C46 53 115 -1 279 -9 L279 -131 L296 -131 L296 -9 C437 -9 487 23 528 73 C603 182 548 290 416 377 L416 377 Z " />
<glyph glyph-name="cent.taboldstyle" unicode="&#xf654;" horiz-adv-x="533" d="M317 82 C253 100 201 148 201 251 C201 400 274 444 317 453 L317 82 Z M480 129 C458 97 384 71 334 78 L334 593 L317 593 L317 471 C157 463 75 344 75 233 C75 116 148 -9 317 -9 L317 -118 L334 -118 L334 -9 C432 4 481 74 494 120 L480 129 Z M465 427 C450 440 416 463 361 469 L361 451 C383 446 394 436 387 433 C372 425 360 412 356 393 C346 358 367 321 403 312 C439 302 475 325 485 360 C492 384 482 412 465 427 L465 427 Z " />
<glyph glyph-name="dollar.oldstyle" unicode="&#xf724;" horiz-adv-x="594" d="M296 8 L296 268 L338 242 C441 167 454 8 296 8 L296 8 Z M279 467 L262 479 C132 564 171 696 279 696 L279 467 Z M416 377 L296 456 L296 696 C444 686 509 548 528 497 L536 497 L536 665 C536 665 455 710 296 713 L296 835 L279 835 L279 713 C121 713 72 637 72 637 C-11 528 42 428 184 339 L279 279 L279 9 C132 35 74 189 54 245 L46 245 L46 53 C46 53 115 -1 279 -9 L279 -131 L296 -131 L296 -9 C437 -9 487 23 528 73 C603 182 548 290 416 377 L416 377 Z " />
<glyph glyph-name="zero.oldstyle" unicode="&#xf730;" horiz-adv-x="580" d="M203 229 C203 384 210 438 263 450 L263 469 C130 458 56 373 56 229 C56 80 130 2 263 -8 L263 11 C210 23 203 74 203 229 L203 229 Z M535 229 C535 380 460 459 326 469 L326 450 C378 438 386 385 386 229 C386 74 378 22 326 10 L326 -8 C460 1 535 78 535 229 L535 229 Z " />
<glyph glyph-name="one.oldstyle" unicode="&#xf731;" horiz-adv-x="513" d="M204 95 C204 20 150 17 110 17 L110 0 L410 0 L410 17 C375 17 329 18 329 95 L329 471 L329 471 L129 435 L129 418 C180 418 204 415 204 365 L204 95 Z " />
<glyph glyph-name="two.oldstyle" unicode="&#xf732;" horiz-adv-x="537" d="M85 371 C79 352 83 329 98 313 C119 291 155 290 177 312 C199 333 200 369 178 391 C167 402 152 407 138 406 C133 406 130 413 148 425 L143 439 C102 410 89 384 85 371 L85 371 Z M445 174 C424 134 388 117 354 117 L201 112 C244 154 449 199 432 363 C421 473 279 480 201 464 L207 448 C253 444 299 401 308 348 C318 288 298 222 177 111 L72 0 L414 0 L462 174 L445 174 Z " />
<glyph glyph-name="three.oldstyle" unicode="&#xf733;" horiz-adv-x="554" d="M182 -216 C200 -206 214 -194 219 -174 C229 -131 205 -90 163 -80 C122 -70 80 -96 71 -139 C64 -168 77 -199 96 -216 C131 -248 173 -261 238 -265 L238 -246 C188 -240 173 -220 182 -216 L182 -216 Z M510 -12 C506 49 457 115 367 151 C536 314 409 471 268 471 C268 471 113 471 90 305 L107 301 C145 379 244 388 289 351 C346 305 367 164 200 112 L200 95 C355 74 386 -27 390 -63 C397 -138 380 -229 301 -246 L301 -263 C390 -251 520 -175 510 -12 L510 -12 Z " />
<glyph glyph-name="four.oldstyle" unicode="&#xf734;" horiz-adv-x="582" d="M527 -48 L527 22 L423 22 L423 462 L379 471 L278 317 L278 22 L149 22 C131 22 107 22 126 58 L112 65 L49 -31 L49 -48 L278 -48 L278 -125 C278 -244 235 -248 193 -248 L193 -265 L508 -265 L508 -248 C466 -248 423 -247 423 -120 L423 -48 L527 -48 Z " />
<glyph glyph-name="five.oldstyle" unicode="&#xf735;" horiz-adv-x="553" d="M491 462 L145 462 L121 331 L448 331 L491 462 Z M93 179 L71 62 C322 96 389 -36 401 -78 C421 -146 393 -233 282 -247 L282 -264 C406 -253 504 -177 504 -36 C504 62 422 245 93 179 L93 179 Z M187 -223 C204 -213 216 -198 221 -176 C231 -134 205 -93 164 -83 C122 -73 80 -99 70 -140 C64 -169 75 -201 95 -219 C114 -233 152 -258 219 -264 L219 -247 C181 -242 177 -229 187 -223 L187 -223 Z " />
<glyph glyph-name="six.oldstyle" unicode="&#xf736;" horiz-adv-x="592" d="M407 680 C390 677 375 667 365 652 C345 620 354 577 386 557 C419 537 461 546 481 579 C495 601 494 631 482 650 C472 665 440 701 380 710 L380 693 C403 688 411 680 407 680 L407 680 Z M548 232 C548 342 503 471 361 471 C315 471 234 458 203 377 C204 610 257 678 317 693 L317 710 C172 691 45 542 45 313 C45 126 120 6 269 -8 L269 11 C219 40 205 151 203 335 C219 398 277 429 308 429 C363 429 401 343 401 212 C401 81 382 25 331 11 L331 -8 C455 4 548 88 548 232 L548 232 Z " />
<glyph glyph-name="seven.oldstyle" unicode="&#xf737;" horiz-adv-x="556" d="M457 333 L532 462 L81 462 L57 275 L74 275 C95 315 133 333 167 333 L457 333 Z M194 -257 L336 -257 C336 -103 338 80 425 270 L408 270 C239 77 194 -92 194 -257 L194 -257 Z " />
<glyph glyph-name="eight.oldstyle" unicode="&#xf738;" horiz-adv-x="574" d="M539 202 C539 285 462 371 368 418 C452 437 493 507 493 567 C493 653 419 703 315 711 L315 692 C360 682 402 645 402 554 C402 489 390 446 350 427 C235 472 190 523 190 586 C190 643 216 678 253 690 L253 711 C149 701 69 640 69 523 C69 459 108 386 201 329 C125 311 44 238 44 152 C44 40 135 -3 266 -9 L266 10 C192 23 154 83 154 158 C154 258 194 305 219 318 C234 309 244 304 261 295 C322 263 409 213 409 131 C409 62 376 23 329 11 L329 -8 C449 0 539 58 539 202 L539 202 Z " />
<glyph glyph-name="nine.oldstyle" unicode="&#xf739;" horiz-adv-x="574" d="M541 139 C541 325 465 454 316 469 L316 449 C367 416 383 287 383 118 C367 55 309 33 278 33 C223 33 185 115 185 246 C185 376 203 434 254 449 L254 469 C130 459 38 387 38 226 C38 116 83 -9 225 -9 C271 -9 353 -2 383 74 C382 -175 365 -237 269 -247 L269 -264 C449 -247 541 -94 541 139 L541 139 Z M173 -232 C192 -229 210 -218 221 -201 C243 -165 233 -119 198 -96 C162 -74 116 -84 94 -120 C78 -144 79 -178 92 -199 C102 -216 131 -256 207 -264 L207 -246 C180 -242 167 -232 173 -232 L173 -232 Z " />
<glyph glyph-name="cent.oldstyle" unicode="&#xf7a2;" horiz-adv-x="533" d="M317 82 C253 100 201 148 201 251 C201 400 274 444 317 453 L317 82 Z M480 129 C458 97 384 71 334 78 L334 593 L317 593 L317 471 C157 463 75 344 75 233 C75 116 148 -9 317 -9 L317 -118 L334 -118 L334 -9 C432 4 481 74 494 120 L480 129 Z M465 427 C450 440 416 463 361 469 L361 451 C383 446 394 436 387 433 C372 425 360 412 356 393 C346 358 367 321 403 312 C439 302 475 325 485 360 C492 384 482 412 465 427 L465 427 Z " />
<glyph glyph-name="fi" unicode="&#xfb01;" horiz-adv-x="591" d="M512 113 L512 462 L338 462 L208 462 L208 511 C208 692 289 722 331 727 L331 744 C167 739 84 667 84 485 L84 462 L18 462 L20 445 L84 445 L84 113 C84 62 82 20 44 8 L44 0 L249 0 L249 8 C214 18 208 58 208 113 L208 445 L337 445 C374 445 387 398 387 363 L387 113 C387 62 386 19 348 8 L348 0 L553 0 L553 8 C517 17 512 58 512 113 L512 113 Z M411 698 C393 693 378 681 369 663 C351 627 366 584 402 566 C438 548 482 563 499 599 C511 624 507 658 494 682 C480 706 435 738 372 744 L372 726 C410 721 429 702 411 698 L411 698 Z " />
<glyph glyph-name="fl" unicode="&#xfb02;" horiz-adv-x="573" d="M520 113 L520 746 L360 713 C324 735 286 745 249 745 C155 746 74 677 74 542 L74 462 L8 462 L10 445 L74 445 L74 113 C74 62 72 29 34 17 L34 0 L240 0 L240 17 C204 27 199 58 199 113 L199 445 L303 445 L306 462 L199 462 L199 502 C199 748 322 712 360 696 C392 682 395 652 395 632 L395 113 C395 62 394 28 356 17 L356 0 L561 0 L561 17 C525 26 520 58 520 113 L520 113 Z " />
</font>
</svg>
