<?xml version="1.0" encoding="UTF-8"?>
<svg xmlns="http://www.w3.org/2000/svg" xmlns:xlink="http://www.w3.org/1999/xlink" version="1.2" >
<font id="Druk Super">
<font-face  font-family="Druk" units-per-em="1000" ascent="812" descent="-188" font-style="normal" font-weight="900" font-stretch="normal" cap-height="744" x-height="538" underline-position="22" underline-thickness="84" />
<missing-glyph  horiz-adv-x="116" d="" />
<glyph glyph-name="NULL" d="" />
<glyph glyph-name="nonmarkingreturn" unicode="&#xd;" horiz-adv-x="116" d="" />
<glyph glyph-name="space" unicode="&#x20;" horiz-adv-x="116" d="" />
<glyph glyph-name="exclam" unicode="&#x21;" horiz-adv-x="223" d="M194 180 L28 180 L28 0 L194 0 L194 180 Z M6 744 L57 206 L165 206 L217 744 L6 744 Z " />
<glyph glyph-name="quotedbl" unicode="&#x22;" horiz-adv-x="287" d="M135 744 L13 744 L13 515 L135 515 L135 744 Z M274 744 L151 744 L151 515 L274 515 L274 744 Z " />
<glyph glyph-name="numbersign" unicode="&#x23;" horiz-adv-x="400" d="M93 744 L79 548 L28 548 L19 432 L70 432 L64 346 L13 346 L4 230 L56 230 L40 0 L155 0 L172 230 L203 230 L187 0 L304 0 L320 230 L372 230 L381 346 L329 346 L335 432 L387 432 L396 548 L344 548 L358 744 L240 744 L226 548 L195 548 L210 744 L93 744 Z M187 432 L217 432 L211 346 L180 346 L187 432 Z " />
<glyph glyph-name="dollar" unicode="&#x24;" horiz-adv-x="460" d="M210 -75 L243 -75 L243 -11 C379 -10 452 61 452 182 L452 225 C452 317 421 375 344 424 L243 488 L243 622 C258 618 263 607 263 580 L263 514 L436 514 L436 589 C436 708 376 755 243 755 L243 812 L210 812 L210 755 C74 754 13 689 13 582 L13 545 C13 450 46 393 118 346 L210 287 L210 134 C197 139 190 152 190 175 L190 271 L10 271 L10 159 C10 54 67 -10 210 -11 L210 -75 Z M264 177 C264 152 257 137 243 133 L243 264 C259 251 264 238 264 205 L264 177 Z M190 580 C190 605 194 618 210 622 L210 511 C195 523 190 537 190 562 L190 580 Z " />
<glyph glyph-name="percent" unicode="&#x25;" horiz-adv-x="611" d="M326 122 C326 35 368 -8 453 -8 L471 -8 C551 -8 601 35 601 122 L601 215 C601 303 557 345 473 345 L452 345 C375 345 326 303 326 215 L326 122 Z M10 530 C10 443 52 400 137 400 L155 400 C235 400 285 443 285 530 L285 623 C285 711 241 753 157 753 L136 753 C59 753 10 711 10 623 L10 530 Z M409 744 L88 0 L203 0 L522 744 L409 744 Z M159 504 C159 495 155 490 148 490 C137 490 136 495 136 504 L136 650 C136 659 137 665 148 665 C155 665 159 660 159 650 L159 504 Z M464 82 C453 82 452 87 452 96 L452 242 C452 251 453 257 464 257 C471 257 475 252 475 242 L475 96 C475 87 471 82 464 82 L464 82 Z " />
<glyph glyph-name="ampersand" unicode="&#x26;" horiz-adv-x="557" d="M7 194 C7 57 96 -10 236 -10 L237 -10 C297 -10 337 7 364 26 C397 3 446 -12 526 -12 L557 132 C529 133 503 135 480 143 C509 210 530 301 530 446 L375 446 C375 389 374 338 370 294 L305 419 C382 464 430 501 430 592 L430 613 C430 708 373 755 272 755 L240 755 C120 755 75 680 75 603 L75 579 C75 509 95 475 129 412 C50 367 7 312 7 220 L7 194 Z M263 130 C206 130 182 168 182 236 L182 254 C182 275 184 290 187 309 L285 132 C278 131 271 130 263 130 L263 130 Z M241 613 C241 629 244 639 259 639 C274 639 277 633 277 614 L277 563 C277 535 272 521 260 505 C245 534 241 546 241 573 L241 613 Z " />
<glyph glyph-name="quotesingle" unicode="&#x27;" horiz-adv-x="151" d="M137 744 L13 744 L13 515 L137 515 L137 744 Z " />
<glyph glyph-name="parenleft" unicode="&#x28;" horiz-adv-x="242" d="M14 344 C14 130 77 -21 136 -131 L247 -131 C217 -31 175 147 175 347 C175 536 211 720 243 808 L133 808 C72 696 14 554 14 344 L14 344 Z " />
<glyph glyph-name="parenright" unicode="&#x29;" horiz-adv-x="242" d="M66 347 C66 148 26 -32 -6 -131 L105 -131 C164 -20 228 130 228 344 C228 554 170 696 108 808 L-2 808 C30 719 66 537 66 347 L66 347 Z " />
<glyph glyph-name="asterisk" unicode="&#x2a;" horiz-adv-x="272" d="M173 676 L183 744 L88 744 L100 676 L48 720 L4 643 L71 620 L5 596 L50 520 L101 565 L88 497 L183 497 L172 565 L222 519 L267 596 L201 620 L268 643 L222 720 L173 676 Z " />
<glyph glyph-name="plus" unicode="&#x2b;" horiz-adv-x="350" d="M115 136 L235 136 L235 250 L338 250 L338 356 L235 356 L235 470 L115 470 L115 356 L12 356 L12 250 L115 250 L115 136 Z " />
<glyph glyph-name="comma" unicode="&#x2c;" horiz-adv-x="192" d="M143 -107 C158 -74 179 -17 179 44 L179 180 L13 180 L13 0 L77 0 C74 -31 62 -76 49 -107 L143 -107 Z " />
<glyph glyph-name="hyphen" unicode="&#x2d;" horiz-adv-x="220" d="M13 386 L13 212 L207 212 L207 386 L13 386 Z " />
<glyph glyph-name="period" unicode="&#x2e;" horiz-adv-x="192" d="M179 180 L13 180 L13 0 L179 0 L179 180 Z " />
<glyph glyph-name="slash" unicode="&#x2f;" horiz-adv-x="258" d="M263 808 L133 808 L-14 -131 L116 -131 L263 808 Z " />
<glyph glyph-name="zero" unicode="0" horiz-adv-x="479" d="M466 523 C466 663 402 755 256 755 L223 755 C76 755 13 666 13 523 L13 214 C13 71 90 -11 223 -11 L256 -11 C381 -11 466 65 466 214 L466 523 Z M259 193 C259 174 252 165 239 165 C226 165 220 174 220 193 L220 551 C220 570 224 581 239 581 C256 581 259 570 259 551 L259 193 Z " />
<glyph glyph-name="one" unicode="1" horiz-adv-x="305" d="M92 495 L92 0 L289 0 L289 744 L118 744 C115 691 83 658 8 659 L8 495 L92 495 Z " />
<glyph glyph-name="two" unicode="2" horiz-adv-x="443" d="M211 603 C223 603 229 596 229 581 L229 547 C229 520 216 501 180 450 C161 425 141 400 117 365 C8 216 9 186 9 121 L9 0 L433 0 L433 246 L262 246 L262 158 L190 158 C190 172 191 180 295 295 C323 326 346 351 366 374 C424 440 430 483 430 549 L430 585 C430 688 367 754 235 754 L195 754 C68 754 16 677 16 598 L16 495 L194 495 L194 581 C194 596 200 603 211 603 L211 603 Z " />
<glyph glyph-name="three" unicode="3" horiz-adv-x="441" d="M196 501 L196 581 C196 594 201 601 212 601 C223 601 229 594 229 581 L229 494 C229 481 222 475 209 475 L124 475 L124 304 L215 304 C228 304 233 300 233 285 L233 178 C233 166 227 160 215 160 C203 160 197 166 197 178 L197 279 L9 279 L9 151 C9 75 52 -11 200 -11 L230 -11 C351 -11 431 50 431 170 L431 325 C431 381 398 418 366 431 C382 442 421 474 421 535 L421 599 C421 695 355 754 228 754 L199 754 C75 754 17 686 17 598 L17 501 L196 501 Z " />
<glyph glyph-name="four" unicode="4" horiz-adv-x="437" d="M9 136 L168 136 L168 0 L358 0 L358 136 L428 136 L428 317 L358 317 L358 749 L175 749 C127 610 52 402 9 290 L9 136 Z M168 317 L122 317 L168 452 L168 317 Z " />
<glyph glyph-name="five" unicode="5" horiz-adv-x="445" d="M200 326 L200 368 C200 381 206 388 217 388 C228 388 233 381 233 368 L233 174 C233 161 228 155 217 155 C206 155 200 161 200 174 L200 274 L12 274 L12 143 C12 62 62 -11 199 -11 L238 -11 C360 -11 433 63 433 160 L433 412 C433 471 398 538 322 538 L313 538 C255 538 220 498 196 474 L196 578 L413 578 L413 744 L17 744 L17 326 L200 326 Z " />
<glyph glyph-name="six" unicode="6" horiz-adv-x="476" d="M343 489 C276 489 240 446 219 422 L219 570 C219 585 224 592 235 592 C246 592 251 585 251 570 L251 508 L451 508 L451 572 C451 672 394 753 249 753 L220 753 C75 753 13 660 13 569 L13 179 C13 64 84 -11 220 -11 L258 -11 C382 -11 465 68 465 179 L465 364 C465 432 424 489 352 489 L343 489 Z M240 156 C224 156 219 166 219 181 L219 315 C219 334 226 344 240 344 C256 344 259 334 259 315 L259 181 C259 166 256 156 240 156 L240 156 Z " />
<glyph glyph-name="seven" unicode="7" horiz-adv-x="412" d="M11 744 L11 493 L180 493 L180 584 L238 584 C238 557 228 541 140 328 C87 204 86 150 86 83 L86 0 L320 0 L320 99 C320 174 330 251 349 347 C370 462 394 549 401 601 L401 744 L11 744 Z " />
<glyph glyph-name="eight" unicode="8" horiz-adv-x="466" d="M450 582 C450 680 393 753 248 753 L218 753 C74 753 17 681 17 582 L17 514 C17 450 44 420 76 400 C33 375 9 344 9 284 L9 180 C9 48 86 -11 218 -11 L248 -11 C370 -11 457 46 457 179 L457 284 C457 343 429 377 388 400 C417 419 450 451 450 514 L450 582 Z M252 180 C252 164 246 156 234 156 C220 156 213 164 213 180 L213 299 C213 316 220 325 234 325 C249 325 252 315 252 299 L252 180 Z M252 481 C252 466 246 458 234 458 C220 458 213 466 213 481 L213 575 C213 594 221 599 234 599 C246 599 252 591 252 575 L252 481 Z " />
<glyph glyph-name="nine" unicode="9" horiz-adv-x="475" d="M145 253 C194 253 232 290 256 319 L256 172 C256 157 251 150 241 150 C230 150 225 157 225 172 L225 234 L24 234 L24 156 C24 68 76 -11 223 -11 L256 -11 C400 -11 462 85 462 175 L462 558 C462 675 389 753 252 753 L209 753 C62 753 11 657 11 557 L11 395 C11 310 57 253 136 253 L145 253 Z M236 587 C252 587 256 574 256 561 L256 427 C256 408 249 398 236 398 C220 398 216 408 216 427 L216 561 C216 574 220 587 236 587 L236 587 Z " />
<glyph glyph-name="colon" unicode="&#x3a;" horiz-adv-x="196" d="M181 180 L15 180 L15 0 L181 0 L181 180 Z M181 475 L15 475 L15 295 L181 295 L181 475 Z " />
<glyph glyph-name="semicolon" unicode="&#x3b;" horiz-adv-x="196" d="M145 -107 C160 -74 181 -17 181 44 L181 180 L15 180 L15 0 L79 0 C76 -31 64 -76 51 -107 L145 -107 Z M181 475 L15 475 L15 295 L181 295 L181 475 Z " />
<glyph glyph-name="less" unicode="&#x3c;" horiz-adv-x="302" d="M12 248 L288 138 L288 263 L149 302 L288 343 L288 467 L12 358 L12 248 Z " />
<glyph glyph-name="equal" unicode="&#x3d;" horiz-adv-x="347" d="M14 295 L14 192 L333 192 L333 295 L14 295 Z M14 414 L14 311 L333 311 L333 414 L14 414 Z " />
<glyph glyph-name="greater" unicode="&#x3e;" horiz-adv-x="302" d="M14 343 L153 302 L14 263 L14 138 L291 248 L291 358 L14 467 L14 343 Z " />
<glyph glyph-name="question" unicode="&#x3f;" horiz-adv-x="425" d="M264 206 L264 235 C264 266 269 276 289 301 L368 398 C405 443 415 477 415 542 L415 592 C415 683 362 753 232 753 L188 753 C40 753 10 668 10 588 L10 476 L186 476 L186 584 C186 600 188 611 204 611 C219 611 222 601 222 585 L222 532 C222 508 220 495 207 475 L151 389 C124 349 120 329 120 281 L120 206 L264 206 Z M275 180 L108 180 L108 0 L275 0 L275 180 Z " />
<glyph glyph-name="at" unicode="&#x40;" horiz-adv-x="718" d="M543 20 C513 -10 454 -55 356 -55 L355 -55 C274 -55 123 -31 123 244 L123 338 C123 549 225 645 366 645 L367 645 C486 645 599 614 599 406 L599 335 C599 230 585 131 556 131 C544 131 541 141 542 152 L564 538 L388 538 L385 479 C362 511 327 542 276 542 L269 542 C220 542 178 502 174 425 L161 173 C156 94 207 38 270 38 L275 38 C306 38 344 58 380 107 C397 66 435 38 495 38 L521 38 C622 38 705 91 705 335 L705 409 C705 652 554 733 367 733 L366 733 C149 733 13 577 13 339 L13 244 C13 -100 228 -145 355 -145 L356 -145 C481 -145 565 -92 602 -44 L543 20 Z M367 169 C366 156 361 149 352 149 C342 149 338 156 339 170 L352 408 C353 423 355 432 366 432 C377 432 382 424 381 408 L367 169 Z " />
<glyph glyph-name="A" unicode="A" horiz-adv-x="450" d="M260 0 L453 0 L345 744 L94 744 L-3 0 L169 0 L178 92 L251 92 L260 0 Z M214 455 L234 259 L195 259 L214 455 Z " />
<glyph glyph-name="B" unicode="B" horiz-adv-x="477" d="M15 0 L319 0 C416 0 469 61 469 178 L469 272 C469 369 406 400 375 410 C396 418 452 452 452 533 L452 596 C452 701 398 744 318 744 L15 744 L15 0 Z M236 322 C251 322 259 312 259 292 L259 177 C259 157 255 147 236 147 L215 147 L215 322 L236 322 Z M230 602 C250 602 253 593 253 573 L253 491 C253 471 245 461 230 461 L215 461 L215 602 L230 602 Z " />
<glyph glyph-name="C" unicode="C" horiz-adv-x="468" d="M260 190 C260 170 257 157 240 157 C224 157 220 169 220 190 L220 562 C220 583 224 592 240 592 C257 592 260 581 260 562 L260 451 L456 451 L456 570 C456 682 393 755 256 755 L223 755 C73 755 13 665 13 541 L13 208 C13 69 75 -11 224 -11 L257 -11 C399 -11 456 84 456 183 L456 322 L260 322 L260 190 L260 190 Z " />
<glyph glyph-name="D" unicode="D" horiz-adv-x="469" d="M15 0 L303 0 C387 0 455 51 455 178 L455 575 C455 701 386 744 301 744 L15 744 L15 0 Z M210 585 L229 585 C248 585 253 572 253 549 L253 202 C253 175 248 163 229 163 L210 163 L210 585 Z " />
<glyph glyph-name="E" unicode="E" horiz-adv-x="372" d="M15 744 L15 0 L362 0 L362 181 L210 181 L210 293 L331 293 L331 476 L210 476 L210 565 L357 565 L357 744 L15 744 Z " />
<glyph glyph-name="F" unicode="F" horiz-adv-x="364" d="M15 0 L210 0 L210 293 L326 293 L326 476 L210 476 L210 565 L353 565 L353 744 L15 744 L15 0 Z " />
<glyph glyph-name="G" unicode="G" horiz-adv-x="481" d="M179 -11 C244 -11 286 27 314 66 C319 55 331 14 334 0 L469 0 L469 445 L235 445 L235 296 L278 296 L278 182 C278 157 268 145 249 145 C230 145 220 157 220 182 L220 564 C220 583 224 594 243 594 C262 594 267 583 267 564 L267 479 L460 479 L460 570 C460 660 415 755 254 755 L225 755 C68 755 13 661 13 550 L13 183 C13 79 63 -11 173 -11 L179 -11 Z " />
<glyph glyph-name="H" unicode="H" horiz-adv-x="473" d="M215 285 L258 285 L258 0 L458 0 L458 744 L258 744 L258 490 L215 490 L215 744 L15 744 L15 0 L215 0 L215 285 Z " />
<glyph glyph-name="I" unicode="I" horiz-adv-x="230" d="M215 744 L15 744 L15 0 L215 0 L215 744 Z " />
<glyph glyph-name="J" unicode="J" horiz-adv-x="447" d="M11 338 L11 159 C11 66 57 -11 185 -11 L239 -11 C375 -11 432 64 432 167 L432 744 L227 744 L227 174 C227 161 222 155 211 155 L210 155 C199 155 193 161 193 174 L193 338 L11 338 Z " />
<glyph glyph-name="K" unicode="K" horiz-adv-x="477" d="M215 272 L273 0 L481 0 L385 420 L480 744 L281 744 L215 506 L215 744 L15 744 L15 0 L215 0 L215 272 Z " />
<glyph glyph-name="L" unicode="L" horiz-adv-x="353" d="M15 744 L15 0 L343 0 L343 185 L215 185 L215 744 L15 744 Z " />
<glyph glyph-name="M" unicode="M" horiz-adv-x="550" d="M15 0 L180 0 L180 370 L239 0 L308 0 L368 370 L368 0 L535 0 L535 744 L312 744 L278 427 L247 744 L15 744 L15 0 Z " />
<glyph glyph-name="N" unicode="N" horiz-adv-x="474" d="M15 744 L15 0 L185 0 L185 367 L278 0 L458 0 L458 744 L290 744 L290 406 L213 744 L15 744 Z " />
<glyph glyph-name="O" unicode="O" horiz-adv-x="486" d="M473 523 C473 663 408 755 260 755 L226 755 C77 755 13 666 13 523 L13 214 C13 69 89 -11 226 -11 L261 -11 C386 -11 473 66 473 214 L473 523 Z M267 196 C267 175 259 165 243 165 C228 165 220 175 220 196 L220 547 C220 570 228 581 243 581 C262 581 267 570 267 547 L267 196 Z " />
<glyph glyph-name="P" unicode="P" horiz-adv-x="459" d="M308 275 C385 275 449 328 449 432 L449 590 C449 700 388 744 306 744 L14 744 L14 0 L213 0 L213 275 L308 275 Z M213 597 L227 597 C247 597 250 587 250 568 L250 459 C250 438 246 429 227 429 L213 429 L213 597 Z " />
<glyph glyph-name="Q" unicode="Q" horiz-adv-x="487" d="M474 523 C474 663 409 755 260 755 L226 755 C77 755 13 666 13 523 L13 214 C13 89 72 12 177 -7 L177 -155 L389 -155 L325 -3 C417 20 474 91 474 214 L474 523 Z M267 196 C267 175 259 165 243 165 C228 165 220 175 220 196 L220 547 C220 570 228 581 243 581 C262 581 267 570 267 547 L267 196 Z " />
<glyph glyph-name="R" unicode="R" horiz-adv-x="468" d="M215 602 L232 602 C249 602 252 594 252 575 L252 476 C252 459 245 450 231 450 L215 450 L215 602 Z M215 290 L231 290 C250 290 252 279 252 263 L252 48 C252 29 258 11 266 0 L463 0 L463 5 C456 17 453 35 453 58 L453 297 C453 352 415 390 380 403 C413 419 451 451 451 531 L451 605 C451 703 392 744 326 744 L15 744 L15 0 L215 0 L215 290 Z " />
<glyph glyph-name="S" unicode="S" horiz-adv-x="467" d="M214 755 C74 755 14 681 14 579 L14 541 C14 458 44 397 116 346 L211 279 C243 255 246 241 246 209 L246 182 C246 161 241 149 225 149 C208 149 204 161 204 180 L204 267 L8 267 L8 164 C8 47 73 -11 204 -11 L251 -11 C397 -11 459 75 459 194 L459 233 C459 332 426 383 342 442 L247 509 C223 526 217 539 217 563 L217 585 C217 602 224 610 237 610 C250 610 257 602 257 585 L257 519 L450 519 L450 596 C450 684 404 755 261 755 L214 755 Z " />
<glyph glyph-name="T" unicode="T" horiz-adv-x="399" d="M10 744 L10 565 L100 565 L100 0 L299 0 L299 565 L389 565 L389 744 L10 744 Z " />
<glyph glyph-name="U" unicode="U" horiz-adv-x="485" d="M15 181 C15 76 72 -13 226 -13 L258 -13 C400 -13 470 80 470 181 L470 744 L264 744 L264 204 C264 184 257 174 243 174 C228 174 221 184 221 204 L221 744 L15 744 L15 181 Z " />
<glyph glyph-name="V" unicode="V" horiz-adv-x="486" d="M115 0 L381 0 L488 744 L293 744 L252 308 L211 744 L-2 744 L115 0 Z " />
<glyph glyph-name="W" unicode="W" horiz-adv-x="690" d="M259 744 L227 321 L202 744 L-2 744 L94 0 L322 0 L345 365 L370 0 L596 0 L692 744 L501 744 L475 321 L444 744 L259 744 Z " />
<glyph glyph-name="X" unicode="X" horiz-adv-x="463" d="M80 397 L-3 0 L191 0 L230 243 L266 0 L466 0 L378 397 L451 744 L261 744 L234 532 L205 744 L1 744 L80 397 Z " />
<glyph glyph-name="Y" unicode="Y" horiz-adv-x="437" d="M442 744 L262 744 L229 521 L193 744 L-5 744 L124 268 L124 0 L323 0 L323 268 L442 744 Z " />
<glyph glyph-name="Z" unicode="Z" horiz-adv-x="404" d="M15 744 L15 566 L164 566 L10 163 L10 0 L394 0 L394 180 L228 180 L387 581 L387 744 L15 744 Z " />
<glyph glyph-name="bracketleft" unicode="&#x5b;" horiz-adv-x="229" d="M221 808 L15 808 L15 -133 L221 -133 L221 -3 L166 -3 L166 678 L221 678 L221 808 Z " />
<glyph glyph-name="backslash" unicode="&#x5c;" horiz-adv-x="258" d="M143 -131 L272 -131 L125 808 L-5 808 L143 -131 Z " />
<glyph glyph-name="bracketright" unicode="&#x5d;" horiz-adv-x="230" d="M8 -133 L215 -133 L215 808 L8 808 L8 678 L63 678 L63 -3 L8 -3 L8 -133 Z " />
<glyph glyph-name="asciicircum" unicode="&#x5e;" horiz-adv-x="300" d="M239 744 L61 744 L2 419 L130 419 L149 595 L169 419 L298 419 L239 744 Z " />
<glyph glyph-name="underscore" unicode="&#x5f;" horiz-adv-x="433" d="M4 -141 L429 -141 L429 -21 L4 -21 L4 -141 Z " />
<glyph glyph-name="grave" unicode="&#x60;" horiz-adv-x="342" d="M221 715 L69 715 L125 558 L272 558 L221 715 Z " />
<glyph glyph-name="a" unicode="a" horiz-adv-x="440" d="M223 139 C223 128 220 118 208 118 C195 118 192 127 192 138 L192 198 C192 218 194 226 201 235 C208 243 216 249 223 252 L223 139 Z M8 105 C8 45 42 -8 106 -8 L109 -8 C168 -8 207 32 225 61 C225 26 242 0 271 0 L436 0 L436 149 L422 149 C415 149 411 152 411 159 L411 414 C411 513 338 550 217 550 L195 550 C86 550 15 508 15 413 L15 367 L188 367 L188 413 C188 425 194 431 205 431 L207 431 C218 431 223 425 223 413 L223 385 C223 372 221 371 210 366 C194 358 119 332 88 319 C37 296 8 261 8 198 L8 105 Z " />
<glyph glyph-name="b" unicode="b" horiz-adv-x="454" d="M13 744 L13 0 L180 0 C181 17 187 54 191 70 C227 22 260 -11 320 -11 L323 -11 C392 -11 442 60 442 132 L442 409 C442 483 407 542 336 542 L330 542 C274 542 236 506 208 469 L208 744 L13 744 Z M208 384 C208 396 210 409 226 409 C242 409 245 398 245 385 L245 145 C245 132 240 120 225 120 C210 120 208 134 208 146 L208 384 Z " />
<glyph glyph-name="c" unicode="c" horiz-adv-x="419" d="M236 242 L236 144 C236 130 231 123 220 123 C211 123 206 130 206 144 L206 401 C206 414 211 421 220 421 C231 421 236 414 236 401 L236 320 L409 320 L409 392 C409 484 364 551 237 551 L195 551 C59 551 11 465 11 369 L11 163 C11 39 87 -13 196 -13 L236 -13 C343 -13 409 49 409 142 L409 242 L236 242 Z " />
<glyph glyph-name="d" unicode="d" horiz-adv-x="455" d="M248 744 L248 475 C219 508 183 544 124 544 L118 544 C54 544 12 485 12 408 L12 133 C12 55 59 -11 128 -11 L133 -11 C186 -11 223 28 250 60 L250 0 L442 0 L442 744 L248 744 Z M248 149 C248 134 244 121 229 121 C212 121 209 133 209 148 L209 380 C209 395 212 407 229 407 C244 407 248 394 248 378 L248 149 Z " />
<glyph glyph-name="e" unicode="e" horiz-adv-x="431" d="M201 551 C73 551 11 480 11 363 L11 171 C11 43 81 -13 201 -13 L238 -13 C351 -13 421 51 421 164 L421 213 L238 213 L238 141 C238 125 235 115 219 115 C207 115 201 121 201 141 L201 249 L421 249 L421 366 C421 502 342 551 238 551 L201 551 Z M201 406 C201 429 204 437 219 437 C236 437 238 429 238 406 L238 351 L201 351 L201 406 Z " />
<glyph glyph-name="f" unicode="f" horiz-adv-x="331" d="M322 744 L169 744 C120 744 67 712 67 641 L67 538 L6 538 L6 385 L67 385 L67 0 L261 0 L261 385 L322 385 L322 538 L261 538 L261 580 C261 592 264 598 279 598 L322 598 L322 744 Z " />
<glyph glyph-name="g" unicode="g" horiz-adv-x="455" d="M248 -44 C248 -57 242 -64 230 -64 C217 -64 211 -57 211 -44 L211 -18 L21 -18 L21 -70 C21 -139 73 -196 206 -196 L252 -196 C373 -196 442 -139 442 -39 L442 538 L250 538 L250 473 C223 502 186 544 129 544 L122 544 C49 544 12 478 12 411 L12 126 C12 41 63 -9 132 -9 C190 -9 230 38 248 58 L248 -44 Z M248 144 C248 131 244 117 229 117 C212 117 210 129 210 144 L210 383 C210 395 212 408 229 408 C244 408 248 397 248 382 L248 144 Z " />
<glyph glyph-name="h" unicode="h" horiz-adv-x="458" d="M13 0 L208 0 L208 374 C208 389 211 401 227 401 C244 401 248 388 248 375 L248 0 L445 0 L445 436 C445 476 421 546 341 546 L333 546 C274 546 235 507 208 469 L208 744 L13 744 L13 0 Z " />
<glyph glyph-name="i" unicode="i" horiz-adv-x="221" d="M208 538 L13 538 L13 0 L208 0 L208 538 Z M208 715 L13 715 L13 558 L208 558 L208 715 Z " />
<glyph glyph-name="j" unicode="j" horiz-adv-x="221" d="M208 715 L13 715 L13 558 L208 558 L208 715 Z M-41 -24 L-41 -188 L123 -188 C167 -188 208 -159 208 -98 L208 538 L13 538 L13 -6 C13 -21 8 -24 -3 -24 L-41 -24 Z " />
<glyph glyph-name="k" unicode="k" horiz-adv-x="440" d="M208 374 L208 744 L13 744 L13 0 L208 0 L208 206 L257 0 L443 0 L363 318 L434 538 L253 538 L208 374 Z " />
<glyph glyph-name="l" unicode="l" horiz-adv-x="221" d="M208 744 L13 744 L13 0 L208 0 L208 744 Z " />
<glyph glyph-name="m" unicode="m" horiz-adv-x="685" d="M13 0 L208 0 L208 375 C208 388 210 400 225 400 C241 400 243 390 243 375 L243 0 L440 0 L440 380 C441 391 445 400 457 400 C473 400 475 390 475 375 L475 0 L672 0 L672 434 C672 470 652 546 569 546 L561 546 C500 546 461 504 434 469 C423 505 393 546 335 546 L327 546 C269 546 228 500 206 467 L206 538 L13 538 L13 0 Z " />
<glyph glyph-name="n" unicode="n" horiz-adv-x="458" d="M13 0 L208 0 L208 374 C208 389 211 401 227 401 C244 401 248 388 248 375 L248 0 L445 0 L445 435 C445 475 424 546 341 546 L333 546 C275 546 235 506 206 467 L206 538 L13 538 L13 0 Z " />
<glyph glyph-name="o" unicode="o" horiz-adv-x="455" d="M11 194 C11 53 74 -13 210 -13 L243 -13 C367 -13 444 52 444 195 L444 344 C444 482 377 551 244 551 L211 551 C82 551 11 484 11 344 L11 194 Z M207 379 C207 396 210 410 227 410 C244 410 248 396 248 379 L248 161 C248 141 243 131 227 131 C214 131 207 141 207 161 L207 379 Z " />
<glyph glyph-name="p" unicode="p" horiz-adv-x="454" d="M13 538 L13 -188 L208 -188 L208 55 C243 8 278 -11 323 -11 L326 -11 C389 -11 442 47 442 127 L442 400 C442 488 409 546 337 546 L332 546 C288 546 251 528 206 465 L206 538 L13 538 Z M208 387 C208 402 210 413 226 413 C241 413 245 402 245 387 L245 144 C245 132 242 118 226 118 C210 118 208 132 208 144 L208 387 Z " />
<glyph glyph-name="q" unicode="q" horiz-adv-x="455" d="M293 538 C293 520 282 477 276 466 C244 506 209 547 145 547 L138 547 C57 547 12 489 12 393 L12 128 C12 48 67 -11 127 -11 L132 -11 C179 -11 215 16 248 59 L248 -188 L442 -188 L442 538 L293 538 Z M248 153 C248 130 244 117 229 117 C212 117 210 129 210 144 L210 392 C210 405 214 417 227 417 C246 417 248 401 248 388 L248 153 Z " />
<glyph glyph-name="r" unicode="r" horiz-adv-x="414" d="M206 538 L13 538 L13 0 L208 0 L208 388 C208 400 212 406 221 406 C230 406 235 400 235 388 L235 267 L405 267 L405 461 C405 504 378 542 325 542 L313 542 C257 542 222 493 206 466 L206 538 Z " />
<glyph glyph-name="s" unicode="s" horiz-adv-x="402" d="M386 429 C386 521 322 551 225 551 L181 551 C69 551 11 502 11 406 L11 387 C11 332 26 279 104 236 L188 191 C205 182 212 172 212 152 L212 132 C212 118 207 111 196 111 L195 111 C184 111 178 118 178 132 L178 185 L6 185 L6 124 C6 25 72 -13 172 -13 L219 -13 C328 -13 396 39 396 146 L396 164 C396 231 377 281 298 324 L209 372 C190 383 187 388 187 403 L187 421 C187 434 193 441 204 441 C216 441 219 434 219 421 L219 379 L386 379 L386 429 L386 429 Z " />
<glyph glyph-name="t" unicode="t" horiz-adv-x="328" d="M318 0 L318 156 L279 156 C264 156 262 161 262 174 L262 385 L318 385 L318 538 L262 538 L262 717 L67 717 L67 538 L7 538 L7 385 L67 385 L67 77 C67 21 104 0 135 0 L318 0 Z " />
<glyph glyph-name="u" unicode="u" horiz-adv-x="456" d="M442 538 L248 538 L248 163 C248 148 245 137 230 137 C215 137 210 149 210 162 L210 538 L13 538 L13 103 C13 63 38 -6 115 -6 L121 -6 C181 -6 221 32 250 72 L250 0 L442 0 L442 538 Z " />
<glyph glyph-name="v" unicode="v" horiz-adv-x="428" d="M89 0 L339 0 L430 538 L240 538 L216 235 L192 538 L-2 538 L89 0 Z " />
<glyph glyph-name="w" unicode="w" horiz-adv-x="642" d="M299 0 L322 246 L346 0 L556 0 L644 538 L457 538 L434 232 L410 538 L237 538 L212 232 L190 538 L-2 538 L87 0 L299 0 Z " />
<glyph glyph-name="x" unicode="x" horiz-adv-x="426" d="M77 289 L-2 0 L183 0 L211 151 L237 0 L428 0 L349 294 L423 538 L236 538 L215 397 L191 538 L2 538 L77 289 Z " />
<glyph glyph-name="y" unicode="y" horiz-adv-x="427" d="M110 36 C117 9 118 -4 118 -12 L118 -16 C117 -29 114 -33 101 -33 L40 -33 L40 -188 L207 -188 C239 -188 281 -173 297 -105 L430 538 L240 538 L220 266 L191 538 L-3 538 L110 36 Z " />
<glyph glyph-name="z" unicode="z" horiz-adv-x="353" d="M13 538 L13 390 L131 390 L8 136 L8 0 L344 0 L344 157 L223 157 L340 401 L340 538 L13 538 Z " />
<glyph glyph-name="braceleft" unicode="&#x7b;" horiz-adv-x="246" d="M205 252 C205 299 186 326 135 341 C186 356 205 388 205 444 C205 491 174 610 174 653 C174 674 186 685 210 685 L238 685 L238 808 L155 808 C74 808 29 765 29 688 C29 622 61 516 61 442 C61 417 55 401 28 401 L8 401 L8 281 L20 281 C47 281 61 266 61 236 C61 173 29 30 29 -17 C29 -96 76 -131 155 -131 L238 -131 L238 -9 L220 -9 C185 -9 174 16 174 44 C174 93 205 199 205 252 L205 252 Z " />
<glyph glyph-name="bar" unicode="&#x7c;" horiz-adv-x="220" d="M171 808 L48 808 L48 -131 L171 -131 L171 808 Z " />
<glyph glyph-name="braceright" unicode="&#x7d;" horiz-adv-x="246" d="M42 444 C42 388 61 356 112 341 C61 326 42 299 42 252 C42 199 72 93 72 44 C72 16 62 -9 27 -9 L8 -9 L8 -131 L90 -131 C170 -131 218 -96 218 -17 C218 30 186 173 186 236 C186 266 199 281 226 281 L238 281 L238 401 L219 401 C191 401 186 417 186 442 C186 516 218 622 218 688 C218 765 174 808 90 808 L8 808 L8 685 L36 685 C60 685 72 674 72 653 C72 610 42 491 42 444 L42 444 Z " />
<glyph glyph-name="asciitilde" unicode="&#x7e;" horiz-adv-x="326" d="M156 331 C181 308 198 298 237 298 C284 298 320 333 320 392 L320 515 L202 515 L202 473 C202 464 199 460 194 460 C187 460 181 466 169 477 C142 501 123 511 90 511 C38 511 6 467 6 399 L6 295 L124 295 L124 339 C124 346 126 349 131 349 C138 349 141 344 156 331 L156 331 Z " />
<glyph glyph-name="exclamdown" unicode="&#xa1;" horiz-adv-x="223" d="M25 358 L191 358 L191 538 L25 538 L25 358 Z M213 -206 L162 332 L54 332 L2 -206 L213 -206 Z " />
<glyph glyph-name="cent" unicode="&#xa2;" horiz-adv-x="421" d="M412 241 L257 241 L257 156 C257 137 252 124 237 119 L237 428 C250 424 257 412 257 392 L257 320 L412 320 L412 398 C412 486 367 551 244 551 L237 551 L237 616 L204 616 L204 551 L190 551 C62 551 11 470 11 373 L11 161 C11 38 86 -13 190 -13 L204 -13 L204 -76 L237 -76 L237 -13 L242 -13 C345 -13 412 46 412 141 L412 241 Z M185 392 C185 413 191 425 204 428 L204 119 C191 122 185 135 185 156 L185 392 L185 392 Z " />
<glyph glyph-name="sterling" unicode="&#xa3;" horiz-adv-x="506" d="M269 276 L269 281 L402 281 L402 430 L267 430 C266 489 265 540 265 569 L265 575 C265 593 272 602 286 602 C299 602 306 593 306 575 L306 457 L481 457 L481 586 C481 676 441 755 294 755 L276 755 C121 755 69 677 69 568 L69 538 C69 507 72 470 76 430 L13 430 L13 281 L91 281 C92 264 93 248 93 233 L93 226 C93 174 62 155 36 152 L13 152 L13 0 L493 0 L493 251 L320 251 L320 155 L229 155 C250 178 269 219 269 276 L269 276 Z " />
<glyph glyph-name="yen" unicode="&#xa5;" horiz-adv-x="432" d="M321 188 L417 188 L417 285 L321 285 L321 303 L417 303 L417 398 L336 398 L437 744 L262 744 L227 531 L191 744 L-5 744 L105 398 L27 398 L27 303 L122 303 L122 285 L27 285 L27 188 L122 188 L122 0 L321 0 L321 188 Z " />
<glyph glyph-name="brokenbar" unicode="&#xa6;" horiz-adv-x="220" d="M171 347 L48 347 L48 -131 L171 -131 L171 347 Z M171 808 L48 808 L48 379 L171 379 L171 808 Z " />
<glyph glyph-name="section" unicode="&#xa7;" horiz-adv-x="491" d="M485 291 C485 359 452 390 393 427 C390 428 260 510 259 510 C240 522 236 529 236 552 L236 590 C236 607 241 615 252 615 C267 615 270 609 270 590 L270 522 L454 522 L454 601 C454 714 380 755 278 755 L227 755 C97 755 40 684 40 589 L40 566 C40 497 57 462 96 420 C45 401 6 367 6 300 L6 281 C6 205 29 170 108 125 L231 53 C251 40 255 26 255 3 L255 -32 C255 -48 249 -56 236 -56 C223 -56 217 -48 217 -33 L217 47 L33 47 L33 -26 C33 -146 86 -196 213 -196 L253 -196 C382 -196 450 -132 450 -13 L450 15 C450 86 433 119 395 149 C447 168 485 202 485 271 L485 291 Z M285 278 C305 265 311 257 311 240 L311 236 C311 227 309 222 306 221 L201 289 C178 304 173 313 173 329 L173 332 C173 339 175 345 179 349 L285 278 Z " />
<glyph glyph-name="dieresis" unicode="&#xa8;" horiz-adv-x="342" d="M160 691 L22 691 L22 558 L160 558 L160 691 Z M320 691 L182 691 L182 558 L320 558 L320 691 Z " />
<glyph glyph-name="copyright" unicode="&#xa9;" horiz-adv-x="601" d="M307 -11 C459 -11 588 72 588 269 L588 477 C588 669 475 755 310 755 L298 755 C126 755 13 662 13 477 L13 269 C13 70 124 -11 297 -11 L307 -11 Z M299 64 C168 64 104 137 104 290 L104 454 C104 614 172 680 299 680 L309 680 C438 680 499 605 499 454 L499 290 C499 139 435 64 307 64 L299 64 L299 64 Z M306 226 C297 226 294 235 294 250 L294 502 C294 515 298 522 306 522 C317 522 319 515 319 502 L319 430 L460 430 L460 507 C460 587 409 636 316 636 L296 636 C192 636 142 575 142 487 L142 262 C142 166 193 110 300 110 L315 110 C415 110 460 175 460 244 L460 339 L319 339 L319 250 C319 235 317 226 306 226 L306 226 Z " />
<glyph glyph-name="ordfeminine" unicode="&#xaa;" horiz-adv-x="273" d="M253 671 C253 728 213 750 134 750 L121 750 C58 750 12 727 12 671 L12 644 L118 644 L118 667 C118 675 121 679 128 679 C135 679 139 675 139 667 L139 653 C139 648 136 644 131 642 C124 637 80 623 60 616 C25 601 7 586 7 543 L7 496 C7 459 28 430 67 430 L69 430 C105 430 128 455 139 471 C139 447 150 435 166 435 L267 435 L267 521 L260 521 C255 521 253 523 253 527 L253 671 Z M139 514 C139 509 136 503 129 503 C122 503 119 506 119 513 L119 546 C119 557 121 564 125 568 C128 571 132 573 139 576 L139 514 Z " />
<glyph glyph-name="guillemotleft" unicode="&#xab;" horiz-adv-x="360" d="M143 287 L201 460 L63 460 L9 323 L9 250 L63 110 L200 110 L143 287 Z M307 287 L354 460 L218 460 L163 287 L218 110 L353 110 L307 287 Z " />
<glyph glyph-name="registered" unicode="&#xae;" horiz-adv-x="330" d="M171 388 C254 388 321 439 321 540 L321 602 C321 699 265 750 173 750 L160 750 C65 750 9 699 9 599 L9 540 C9 436 68 388 160 388 L171 388 Z M160 430 C89 430 60 465 60 541 L60 598 C60 678 91 709 160 708 L173 708 C240 709 270 672 270 601 L270 541 C270 467 237 430 171 430 L160 430 L160 430 Z M159 548 L165 548 C171 548 174 544 174 536 L174 478 C174 473 176 467 180 462 L247 462 L247 466 C244 469 243 474 243 481 L243 549 C243 564 235 575 219 580 C234 586 242 599 242 620 L242 641 C242 668 226 682 193 682 L90 682 L90 462 L159 462 L159 548 Z M159 638 L165 638 C171 638 174 635 174 628 L174 608 C174 601 171 597 165 597 L159 597 L159 638 Z " />
<glyph glyph-name="macron" unicode="&#xaf;" horiz-adv-x="342" d="M45 564 L296 564 L296 677 L45 677 L45 564 Z " />
<glyph glyph-name="degree" unicode="&#xb0;" horiz-adv-x="226" d="M7 647 C7 591 50 546 114 546 C175 546 219 591 219 647 C219 704 175 749 114 749 C50 749 7 704 7 647 L7 647 Z M76 647 C76 670 89 685 112 685 C135 685 149 670 149 647 C149 626 135 610 112 610 C89 610 76 626 76 647 L76 647 Z " />
<glyph glyph-name="acute" unicode="&#xb4;" horiz-adv-x="342" d="M69 558 L216 558 L273 715 L121 715 L69 558 Z " />
<glyph glyph-name="paragraph" unicode="&#xb6;" horiz-adv-x="476" d="M151 744 C70 744 10 697 10 589 L10 494 C10 383 85 344 150 344 L156 344 L156 0 L276 0 L276 617 L308 617 L308 0 L426 0 L426 617 L468 617 L468 744 L151 744 L151 744 Z " />
<glyph glyph-name="periodcentered" unicode="&#xb7;" horiz-adv-x="192" d="M179 406 L13 406 L13 227 L179 227 L179 406 Z " />
<glyph glyph-name="cedilla" unicode="&#xb8;" horiz-adv-x="342" d="M163 -202 C231 -202 270 -170 270 -115 L270 -112 C270 -64 236 -33 172 -33 L164 -33 L164 0 L87 0 L87 -98 L138 -98 C151 -98 158 -102 158 -111 L158 -112 C158 -121 151 -126 138 -126 L72 -126 L72 -202 L163 -202 L163 -202 Z " />
<glyph glyph-name="ordmasculine" unicode="&#xba;" horiz-adv-x="275" d="M149 430 C221 430 266 466 266 542 L266 638 C266 714 221 750 149 750 L129 750 C57 750 9 711 9 638 L9 542 C9 467 57 430 129 430 L149 430 Z M129 652 C129 659 129 668 138 668 C149 668 149 659 149 652 L149 528 C149 520 149 511 138 511 C129 511 129 520 129 528 L129 652 Z " />
<glyph glyph-name="guillemotright" unicode="&#xbb;" horiz-adv-x="360" d="M160 110 L297 110 L351 248 L351 321 L297 460 L160 460 L217 283 L160 110 Z M6 110 L143 110 L198 283 L143 460 L7 460 L55 283 L6 110 Z " />
<glyph glyph-name="onequarter" unicode="&#xbc;" horiz-adv-x="465" d="M48 616 L48 401 L169 401 L169 744 L60 744 C59 719 44 705 5 705 L5 616 L48 616 Z M335 744 L9 0 L117 0 L445 744 L335 744 Z M219 46 L315 46 L315 0 L430 0 L430 46 L459 46 L459 144 L430 144 L430 344 L301 344 C280 283 240 181 219 130 L219 46 Z M291 144 L315 209 L315 144 L291 144 Z " />
<glyph glyph-name="onehalf" unicode="&#xbd;" horiz-adv-x="517" d="M335 744 L9 0 L117 0 L445 744 L335 744 Z M48 616 L48 401 L169 401 L169 744 L60 744 C59 719 44 705 5 705 L5 616 L48 616 Z M510 0 L510 123 L412 123 L412 86 L360 86 C360 94 359 95 420 135 C480 174 506 198 506 246 L506 256 C506 313 474 349 385 349 L367 349 C280 349 254 301 254 251 L254 222 L365 222 L365 258 C365 266 369 270 376 270 C381 270 384 266 384 258 L384 244 C384 231 379 222 340 188 C268 116 250 101 250 46 L250 0 L510 0 Z " />
<glyph glyph-name="threequarters" unicode="&#xbe;" horiz-adv-x="533" d="M402 744 L76 0 L184 0 L512 744 L402 744 Z M118 632 L118 664 C118 670 121 673 126 673 C132 673 135 670 135 664 L135 632 C135 625 132 622 125 622 L76 622 L76 539 L128 539 C134 539 137 535 137 528 L137 490 C137 483 134 480 129 480 C123 480 120 483 120 490 L120 527 L5 527 L5 485 C5 436 28 393 120 393 L137 393 C225 393 263 434 263 499 L263 526 C263 573 233 592 215 597 C230 602 254 620 254 655 L254 667 C254 726 209 750 134 750 L119 750 C39 750 7 712 7 665 L7 632 L118 632 Z M288 46 L384 46 L384 0 L499 0 L499 46 L528 46 L528 144 L499 144 L499 344 L370 344 C349 283 309 181 288 130 L288 46 Z M360 144 L384 209 L384 144 L360 144 Z " />
<glyph glyph-name="questiondown" unicode="&#xbf;" horiz-adv-x="425" d="M157 332 L157 303 C157 272 152 262 132 237 L53 140 C16 95 6 61 6 -4 L6 -54 C6 -145 59 -215 189 -215 L233 -215 C381 -215 411 -130 411 -50 L411 62 L235 62 L235 -46 C235 -62 233 -73 217 -73 C202 -73 199 -63 199 -47 L199 6 C199 30 201 43 214 63 L270 149 C297 189 301 209 301 257 L301 332 L157 332 Z M146 358 L313 358 L313 538 L146 538 L146 358 Z " />
<glyph glyph-name="Agrave" unicode="&#xc0;" horiz-adv-x="450" d="M260 0 L453 0 L345 744 L94 744 L-3 0 L169 0 L178 92 L251 92 L260 0 Z M214 455 L234 259 L195 259 L214 455 Z M253 895 L97 895 L150 764 L301 764 L253 895 Z " />
<glyph glyph-name="Aacute" unicode="&#xc1;" horiz-adv-x="450" d="M260 0 L453 0 L345 744 L94 744 L-3 0 L169 0 L178 92 L251 92 L260 0 Z M214 455 L234 259 L195 259 L214 455 Z M143 764 L294 764 L349 895 L194 895 L143 764 Z " />
<glyph glyph-name="Acircumflex" unicode="&#xc2;" horiz-adv-x="450" d="M260 0 L453 0 L345 744 L94 744 L-3 0 L169 0 L178 92 L251 92 L260 0 Z M214 455 L234 259 L195 259 L214 455 Z M295 895 L139 895 L63 764 L192 764 L216 810 L242 764 L372 764 L295 895 Z " />
<glyph glyph-name="Atilde" unicode="&#xc3;" horiz-adv-x="450" d="M260 0 L453 0 L345 744 L94 744 L-3 0 L169 0 L178 92 L251 92 L260 0 Z M214 455 L234 259 L195 259 L214 455 Z M219 783 C250 772 270 766 291 766 L296 766 C340 766 360 800 360 840 L360 905 L262 905 L262 884 C262 876 259 872 254 872 C247 872 238 876 219 883 C188 894 170 902 146 902 L143 902 C99 902 78 872 78 831 L78 762 L176 762 L176 782 C176 790 179 794 184 794 C191 794 200 790 219 783 L219 783 Z " />
<glyph glyph-name="Adieresis" unicode="&#xc4;" horiz-adv-x="450" d="M260 0 L453 0 L345 744 L94 744 L-3 0 L169 0 L178 92 L251 92 L260 0 Z M214 455 L234 259 L195 259 L214 455 Z M367 895 L229 895 L229 764 L367 764 L367 895 Z M207 895 L69 895 L69 764 L207 764 L207 895 Z " />
<glyph glyph-name="Aring" unicode="&#xc5;" horiz-adv-x="450" d="M260 0 L453 0 L345 744 L94 744 L-3 0 L169 0 L178 92 L251 92 L260 0 Z M214 455 L234 259 L195 259 L214 455 Z M181 847 C181 868 197 883 218 883 C239 883 255 868 255 847 C255 824 239 810 218 811 C197 810 181 824 181 847 L181 847 Z M218 935 C165 935 125 900 125 848 C125 795 165 759 218 759 C271 759 311 795 311 848 C311 900 271 935 218 935 L218 935 Z " />
<glyph glyph-name="AE" unicode="&#xc6;" horiz-adv-x="593" d="M583 0 L583 181 L457 181 L457 293 L552 293 L552 476 L457 476 L457 565 L578 565 L578 744 L134 744 L-6 0 L185 0 L199 102 L261 102 L261 0 L583 0 Z M223 269 L261 528 L261 269 L223 269 Z " />
<glyph glyph-name="Ccedilla" unicode="&#xc7;" horiz-adv-x="468" d="M260 190 C260 170 257 157 240 157 C224 157 220 169 220 190 L220 562 C220 583 224 592 240 592 C257 592 260 581 260 562 L260 451 L456 451 L456 570 C456 682 393 755 256 755 L223 755 C73 755 13 665 13 541 L13 208 C13 69 75 -11 224 -11 L257 -11 C399 -11 456 84 456 183 L456 322 L260 322 L260 190 L260 190 Z M243 -202 C311 -202 350 -170 350 -115 L350 -112 C350 -64 316 -33 252 -33 L244 -33 L244 0 L167 0 L167 -98 L218 -98 C231 -98 238 -102 238 -111 L238 -112 C238 -121 231 -126 218 -126 L152 -126 L152 -202 L243 -202 L243 -202 Z " />
<glyph glyph-name="Egrave" unicode="&#xc8;" horiz-adv-x="372" d="M15 744 L15 0 L362 0 L362 181 L210 181 L210 293 L331 293 L331 476 L210 476 L210 565 L357 565 L357 744 L15 744 Z M224 895 L68 895 L121 764 L272 764 L224 895 Z " />
<glyph glyph-name="Eacute" unicode="&#xc9;" horiz-adv-x="372" d="M15 744 L15 0 L362 0 L362 181 L210 181 L210 293 L331 293 L331 476 L210 476 L210 565 L357 565 L357 744 L15 744 Z M113 764 L264 764 L319 895 L164 895 L113 764 Z " />
<glyph glyph-name="Ecircumflex" unicode="&#xca;" horiz-adv-x="372" d="M15 744 L15 0 L362 0 L362 181 L210 181 L210 293 L331 293 L331 476 L210 476 L210 565 L357 565 L357 744 L15 744 Z M266 895 L110 895 L34 764 L163 764 L187 810 L213 764 L343 764 L266 895 Z " />
<glyph glyph-name="Edieresis" unicode="&#xcb;" horiz-adv-x="372" d="M15 744 L15 0 L362 0 L362 181 L210 181 L210 293 L331 293 L331 476 L210 476 L210 565 L357 565 L357 744 L15 744 Z M338 895 L200 895 L200 764 L338 764 L338 895 Z M178 895 L40 895 L40 764 L178 764 L178 895 Z " />
<glyph glyph-name="Igrave" unicode="&#xcc;" horiz-adv-x="230" d="M215 744 L15 744 L15 0 L215 0 L215 744 Z M144 895 L-12 895 L41 764 L192 764 L144 895 Z " />
<glyph glyph-name="Iacute" unicode="&#xcd;" horiz-adv-x="230" d="M215 744 L15 744 L15 0 L215 0 L215 744 Z M39 764 L190 764 L245 895 L90 895 L39 764 Z " />
<glyph glyph-name="Icircumflex" unicode="&#xce;" horiz-adv-x="230" d="M215 744 L15 744 L15 0 L215 0 L215 744 Z M192 895 L36 895 L-40 764 L89 764 L113 810 L139 764 L269 764 L192 895 Z " />
<glyph glyph-name="Idieresis" unicode="&#xcf;" horiz-adv-x="230" d="M215 744 L15 744 L15 0 L215 0 L215 744 Z M264 895 L126 895 L126 764 L264 764 L264 895 Z M104 895 L-34 895 L-34 764 L104 764 L104 895 Z " />
<glyph glyph-name="Eth" unicode="&#xd0;" horiz-adv-x="478" d="M25 472 L3 472 L3 302 L25 302 L25 0 L313 0 C397 0 465 51 465 178 L465 575 C465 701 396 744 311 744 L25 744 L25 472 Z M220 302 L253 302 L253 472 L220 472 L220 585 L239 585 C258 585 263 572 263 549 L263 202 C263 175 258 163 239 163 L220 163 L220 302 Z " />
<glyph glyph-name="Ntilde" unicode="&#xd1;" horiz-adv-x="474" d="M15 744 L15 0 L185 0 L185 367 L278 0 L458 0 L458 744 L290 744 L290 406 L213 744 L15 744 Z M247 783 C278 772 298 766 319 766 L324 766 C368 766 388 800 388 840 L388 905 L290 905 L290 884 C290 876 287 872 282 872 C275 872 266 876 247 883 C216 894 198 902 174 902 L171 902 C127 902 106 872 106 831 L106 762 L204 762 L204 782 C204 790 207 794 212 794 C219 794 228 790 247 783 L247 783 Z " />
<glyph glyph-name="Ograve" unicode="&#xd2;" horiz-adv-x="486" d="M473 523 C473 663 408 755 260 755 L226 755 C77 755 13 666 13 523 L13 214 C13 69 89 -11 226 -11 L261 -11 C386 -11 473 66 473 214 L473 523 Z M267 196 C267 175 259 165 243 165 C228 165 220 175 220 196 L220 547 C220 570 228 581 243 581 C262 581 267 570 267 547 L267 196 Z M272 895 L116 895 L169 764 L320 764 L272 895 Z " />
<glyph glyph-name="Oacute" unicode="&#xd3;" horiz-adv-x="486" d="M473 523 C473 663 408 755 260 755 L226 755 C77 755 13 666 13 523 L13 214 C13 69 89 -11 226 -11 L261 -11 C386 -11 473 66 473 214 L473 523 Z M267 196 C267 175 259 165 243 165 C228 165 220 175 220 196 L220 547 C220 570 228 581 243 581 C262 581 267 570 267 547 L267 196 Z M168 764 L319 764 L374 895 L219 895 L168 764 Z " />
<glyph glyph-name="Ocircumflex" unicode="&#xd4;" horiz-adv-x="486" d="M473 523 C473 663 408 755 260 755 L226 755 C77 755 13 666 13 523 L13 214 C13 69 89 -11 226 -11 L261 -11 C386 -11 473 66 473 214 L473 523 Z M267 196 C267 175 259 165 243 165 C228 165 220 175 220 196 L220 547 C220 570 228 581 243 581 C262 581 267 570 267 547 L267 196 Z M321 895 L165 895 L89 764 L218 764 L242 810 L268 764 L398 764 L321 895 Z " />
<glyph glyph-name="Otilde" unicode="&#xd5;" horiz-adv-x="486" d="M473 523 C473 663 408 755 260 755 L226 755 C77 755 13 666 13 523 L13 214 C13 69 89 -11 226 -11 L261 -11 C386 -11 473 66 473 214 L473 523 Z M267 196 C267 175 259 165 243 165 C228 165 220 175 220 196 L220 547 C220 570 228 581 243 581 C262 581 267 570 267 547 L267 196 Z M243 789 C274 778 294 772 315 772 L320 772 C364 772 384 806 384 846 L384 911 L286 911 L286 890 C286 882 283 878 278 878 C271 878 262 882 243 889 C212 900 194 908 170 908 L167 908 C123 908 102 878 102 837 L102 768 L200 768 L200 788 C200 796 203 800 208 800 C215 800 224 796 243 789 L243 789 Z " />
<glyph glyph-name="Odieresis" unicode="&#xd6;" horiz-adv-x="486" d="M473 523 C473 663 408 755 260 755 L226 755 C77 755 13 666 13 523 L13 214 C13 69 89 -11 226 -11 L261 -11 C386 -11 473 66 473 214 L473 523 Z M267 196 C267 175 259 165 243 165 C228 165 220 175 220 196 L220 547 C220 570 228 581 243 581 C262 581 267 570 267 547 L267 196 Z M393 895 L255 895 L255 764 L393 764 L393 895 Z M233 895 L95 895 L95 764 L233 764 L233 895 Z " />
<glyph glyph-name="multiply" unicode="&#xd7;" horiz-adv-x="326" d="M241 147 L318 223 L239 302 L318 382 L241 459 L163 380 L85 459 L8 382 L86 302 L8 223 L85 147 L163 225 L241 147 Z " />
<glyph glyph-name="Oslash" unicode="&#xd8;" horiz-adv-x="480" d="M467 524 C467 584 455 628 435 663 L476 744 L383 744 L372 723 C343 743 305 755 254 755 L226 755 C77 755 13 666 13 523 L13 214 C13 161 24 120 43 87 L-1 0 L91 0 L104 24 C133 1 175 -11 226 -11 L254 -11 C381 -11 467 66 467 214 L467 524 Z M240 163 C223 163 215 174 215 196 L215 237 L266 360 L266 196 C266 174 257 163 240 163 L240 163 Z M240 583 C257 583 266 571 266 547 L266 523 L215 400 L215 547 C215 574 221 583 240 583 L240 583 Z " />
<glyph glyph-name="Ugrave" unicode="&#xd9;" horiz-adv-x="485" d="M15 181 C15 76 72 -13 226 -13 L258 -13 C400 -13 470 80 470 181 L470 744 L264 744 L264 204 C264 184 257 174 243 174 C228 174 221 184 221 204 L221 744 L15 744 L15 181 Z M274 895 L118 895 L171 764 L322 764 L274 895 Z " />
<glyph glyph-name="Uacute" unicode="&#xda;" horiz-adv-x="485" d="M15 181 C15 76 72 -13 226 -13 L258 -13 C400 -13 470 80 470 181 L470 744 L264 744 L264 204 C264 184 257 174 243 174 C228 174 221 184 221 204 L221 744 L15 744 L15 181 Z M166 764 L317 764 L372 895 L217 895 L166 764 Z " />
<glyph glyph-name="Ucircumflex" unicode="&#xdb;" horiz-adv-x="485" d="M15 181 C15 76 72 -13 226 -13 L258 -13 C400 -13 470 80 470 181 L470 744 L264 744 L264 204 C264 184 257 174 243 174 C228 174 221 184 221 204 L221 744 L15 744 L15 181 Z M319 895 L163 895 L87 764 L216 764 L240 810 L266 764 L396 764 L319 895 Z " />
<glyph glyph-name="Udieresis" unicode="&#xdc;" horiz-adv-x="485" d="M15 181 C15 76 72 -13 226 -13 L258 -13 C400 -13 470 80 470 181 L470 744 L264 744 L264 204 C264 184 257 174 243 174 C228 174 221 184 221 204 L221 744 L15 744 L15 181 Z M391 895 L253 895 L253 764 L391 764 L391 895 Z M231 895 L93 895 L93 764 L231 764 L231 895 Z " />
<glyph glyph-name="Yacute" unicode="&#xdd;" horiz-adv-x="437" d="M442 744 L262 744 L229 521 L193 744 L-5 744 L124 268 L124 0 L323 0 L323 268 L442 744 Z M151 764 L302 764 L357 895 L202 895 L151 764 Z " />
<glyph glyph-name="Thorn" unicode="&#xde;" horiz-adv-x="457" d="M302 171 C385 171 447 223 447 325 L447 459 C447 567 387 611 300 611 L215 611 L215 744 L15 744 L15 0 L215 0 L215 171 L302 171 Z M215 469 L228 469 C247 469 251 460 251 441 L251 350 C251 327 245 320 228 320 L215 320 L215 469 Z " />
<glyph glyph-name="germandbls" unicode="&#xdf;" horiz-adv-x="460" d="M366 444 C395 457 437 497 437 563 L437 607 C437 684 383 754 251 754 L201 754 C67 754 13 674 13 578 L13 0 L208 0 L208 582 C208 599 214 608 225 608 L229 608 C241 608 247 599 247 582 L247 490 C247 479 240 475 232 475 L223 475 L223 329 L232 329 C245 329 247 323 247 312 L247 163 C247 152 243 147 234 147 L223 147 L223 0 L324 0 C400 0 452 54 452 138 L452 326 C452 392 409 431 366 444 L366 444 Z " />
<glyph glyph-name="agrave" unicode="&#xe0;" horiz-adv-x="440" d="M223 139 C223 128 220 118 208 118 C195 118 192 127 192 138 L192 198 C192 218 194 226 201 235 C208 243 216 249 223 252 L223 139 Z M8 105 C8 45 42 -8 106 -8 L109 -8 C168 -8 207 32 225 61 C225 26 242 0 271 0 L436 0 L436 149 L422 149 C415 149 411 152 411 159 L411 414 C411 513 338 550 217 550 L195 550 C86 550 15 508 15 413 L15 367 L188 367 L188 413 C188 425 194 431 205 431 L207 431 C218 431 223 425 223 413 L223 385 C223 372 221 371 210 366 C194 358 119 332 88 319 C37 296 8 261 8 198 L8 105 Z M231 715 L79 715 L135 558 L282 558 L231 715 Z " />
<glyph glyph-name="aacute" unicode="&#xe1;" horiz-adv-x="440" d="M223 139 C223 128 220 118 208 118 C195 118 192 127 192 138 L192 198 C192 218 194 226 201 235 C208 243 216 249 223 252 L223 139 Z M8 105 C8 45 42 -8 106 -8 L109 -8 C168 -8 207 32 225 61 C225 26 242 0 271 0 L436 0 L436 149 L422 149 C415 149 411 152 411 159 L411 414 C411 513 338 550 217 550 L195 550 C86 550 15 508 15 413 L15 367 L188 367 L188 413 C188 425 194 431 205 431 L207 431 C218 431 223 425 223 413 L223 385 C223 372 221 371 210 366 C194 358 119 332 88 319 C37 296 8 261 8 198 L8 105 Z M135 558 L282 558 L339 715 L187 715 L135 558 Z " />
<glyph glyph-name="acircumflex" unicode="&#xe2;" horiz-adv-x="440" d="M223 139 C223 128 220 118 208 118 C195 118 192 127 192 138 L192 198 C192 218 194 226 201 235 C208 243 216 249 223 252 L223 139 Z M8 105 C8 45 42 -8 106 -8 L109 -8 C168 -8 207 32 225 61 C225 26 242 0 271 0 L436 0 L436 149 L422 149 C415 149 411 152 411 159 L411 414 C411 513 338 550 217 550 L195 550 C86 550 15 508 15 413 L15 367 L188 367 L188 413 C188 425 194 431 205 431 L207 431 C218 431 223 425 223 413 L223 385 C223 372 221 371 210 366 C194 358 119 332 88 319 C37 296 8 261 8 198 L8 105 Z M286 715 L130 715 L56 558 L183 558 L207 625 L232 558 L361 558 L286 715 Z " />
<glyph glyph-name="atilde" unicode="&#xe3;" horiz-adv-x="440" d="M223 139 C223 128 220 118 208 118 C195 118 192 127 192 138 L192 198 C192 218 194 226 201 235 C208 243 216 249 223 252 L223 139 Z M8 105 C8 45 42 -8 106 -8 L109 -8 C168 -8 207 32 225 61 C225 26 242 0 271 0 L436 0 L436 149 L422 149 C415 149 411 152 411 159 L411 414 C411 513 338 550 217 550 L195 550 C86 550 15 508 15 413 L15 367 L188 367 L188 413 C188 425 194 431 205 431 L207 431 C218 431 223 425 223 413 L223 385 C223 372 221 371 210 366 C194 358 119 332 88 319 C37 296 8 261 8 198 L8 105 Z M250 714 L250 688 C250 680 248 676 243 676 C236 676 224 685 209 692 C178 707 162 711 143 711 L140 711 C92 711 70 680 70 640 L70 562 L171 562 L171 588 C171 596 173 600 178 600 C185 600 195 593 210 585 C238 570 258 565 277 565 L281 565 C329 565 350 596 350 636 L350 714 L250 714 Z " />
<glyph glyph-name="adieresis" unicode="&#xe4;" horiz-adv-x="440" d="M223 139 C223 128 220 118 208 118 C195 118 192 127 192 138 L192 198 C192 218 194 226 201 235 C208 243 216 249 223 252 L223 139 Z M8 105 C8 45 42 -8 106 -8 L109 -8 C168 -8 207 32 225 61 C225 26 242 0 271 0 L436 0 L436 149 L422 149 C415 149 411 152 411 159 L411 414 C411 513 338 550 217 550 L195 550 C86 550 15 508 15 413 L15 367 L188 367 L188 413 C188 425 194 431 205 431 L207 431 C218 431 223 425 223 413 L223 385 C223 372 221 371 210 366 C194 358 119 332 88 319 C37 296 8 261 8 198 L8 105 Z M197 697 L59 697 L59 564 L197 564 L197 697 Z M357 697 L219 697 L219 564 L357 564 L357 697 Z " />
<glyph glyph-name="aring" unicode="&#xe5;" horiz-adv-x="440" d="M223 139 C223 128 220 118 208 118 C195 118 192 127 192 138 L192 198 C192 218 194 226 201 235 C208 243 216 249 223 252 L223 139 Z M8 105 C8 45 42 -8 106 -8 L109 -8 C168 -8 207 32 225 61 C225 26 242 0 271 0 L436 0 L436 149 L422 149 C415 149 411 152 411 159 L411 414 C411 513 338 550 217 550 L195 550 C86 550 15 508 15 413 L15 367 L188 367 L188 413 C188 425 194 431 205 431 L207 431 C218 431 223 425 223 413 L223 385 C223 372 221 371 210 366 C194 358 119 332 88 319 C37 296 8 261 8 198 L8 105 Z M208 614 C187 613 171 627 171 650 C171 671 187 686 208 686 C229 686 245 671 245 650 C245 627 229 613 208 614 L208 614 Z M208 562 C261 562 301 598 301 651 C301 703 261 738 208 738 C155 738 115 703 115 651 C115 598 155 562 208 562 L208 562 Z " />
<glyph glyph-name="ae" unicode="&#xe6;" horiz-adv-x="644" d="M247 67 C266 32 308 -13 413 -13 L451 -13 C566 -13 633 53 633 164 L633 213 L451 213 L451 141 C451 125 448 115 432 115 C420 115 414 121 414 141 L414 249 L633 249 L633 365 C633 501 553 550 443 550 L429 550 C369 550 338 530 326 519 C314 530 280 550 211 550 L195 550 C86 550 15 508 15 413 L15 358 L188 358 L188 413 C188 425 194 431 205 431 L207 431 C218 431 223 425 223 413 L223 376 C223 363 221 362 210 357 C194 349 119 326 88 310 C37 286 8 252 8 189 L8 106 C8 47 42 -8 110 -8 L113 -8 C178 -8 223 36 247 67 L247 67 Z M223 139 C223 128 220 118 208 118 C195 118 192 127 192 138 L192 191 C192 211 194 219 201 228 C208 236 216 242 223 245 L223 139 Z M414 406 C414 429 417 437 432 437 C449 437 451 429 451 406 L451 351 L414 351 L414 406 Z " />
<glyph glyph-name="ccedilla" unicode="&#xe7;" horiz-adv-x="419" d="M236 242 L236 144 C236 130 231 123 220 123 C211 123 206 130 206 144 L206 401 C206 414 211 421 220 421 C231 421 236 414 236 401 L236 320 L409 320 L409 392 C409 484 364 551 237 551 L195 551 C59 551 11 465 11 369 L11 163 C11 39 87 -13 196 -13 L236 -13 C343 -13 409 49 409 142 L409 242 L236 242 Z M219 -202 C287 -202 326 -170 326 -115 L326 -112 C326 -64 292 -33 228 -33 L220 -33 L220 0 L143 0 L143 -98 L194 -98 C207 -98 214 -102 214 -111 L214 -112 C214 -121 207 -126 194 -126 L128 -126 L128 -202 L219 -202 L219 -202 Z " />
<glyph glyph-name="egrave" unicode="&#xe8;" horiz-adv-x="431" d="M201 551 C73 551 11 480 11 363 L11 171 C11 43 81 -13 201 -13 L238 -13 C351 -13 421 51 421 164 L421 213 L238 213 L238 141 C238 125 235 115 219 115 C207 115 201 121 201 141 L201 249 L421 249 L421 366 C421 502 342 551 238 551 L201 551 Z M201 406 C201 429 204 437 219 437 C236 437 238 429 238 406 L238 351 L201 351 L201 406 Z M240 715 L88 715 L144 558 L291 558 L240 715 Z " />
<glyph glyph-name="eacute" unicode="&#xe9;" horiz-adv-x="431" d="M201 551 C73 551 11 480 11 363 L11 171 C11 43 81 -13 201 -13 L238 -13 C351 -13 421 51 421 164 L421 213 L238 213 L238 141 C238 125 235 115 219 115 C207 115 201 121 201 141 L201 249 L421 249 L421 366 C421 502 342 551 238 551 L201 551 Z M201 406 C201 429 204 437 219 437 C236 437 238 429 238 406 L238 351 L201 351 L201 406 Z M144 558 L291 558 L348 715 L196 715 L144 558 Z " />
<glyph glyph-name="ecircumflex" unicode="&#xea;" horiz-adv-x="431" d="M201 551 C73 551 11 480 11 363 L11 171 C11 43 81 -13 201 -13 L238 -13 C351 -13 421 51 421 164 L421 213 L238 213 L238 141 C238 125 235 115 219 115 C207 115 201 121 201 141 L201 249 L421 249 L421 366 C421 502 342 551 238 551 L201 551 Z M201 406 C201 429 204 437 219 437 C236 437 238 429 238 406 L238 351 L201 351 L201 406 Z M294 715 L138 715 L64 558 L191 558 L215 625 L240 558 L369 558 L294 715 Z " />
<glyph glyph-name="edieresis" unicode="&#xeb;" horiz-adv-x="431" d="M201 551 C73 551 11 480 11 363 L11 171 C11 43 81 -13 201 -13 L238 -13 C351 -13 421 51 421 164 L421 213 L238 213 L238 141 C238 125 235 115 219 115 C207 115 201 121 201 141 L201 249 L421 249 L421 366 C421 502 342 551 238 551 L201 551 Z M201 406 C201 429 204 437 219 437 C236 437 238 429 238 406 L238 351 L201 351 L201 406 Z M206 698 L68 698 L68 565 L206 565 L206 698 Z M366 698 L228 698 L228 565 L366 565 L366 698 Z " />
<glyph glyph-name="igrave" unicode="&#xec;" horiz-adv-x="221" d="M208 538 L13 538 L13 0 L208 0 L208 538 Z M136 715 L-16 715 L40 558 L187 558 L136 715 Z " />
<glyph glyph-name="iacute" unicode="&#xed;" horiz-adv-x="221" d="M208 538 L13 538 L13 0 L208 0 L208 538 Z M39 558 L186 558 L243 715 L91 715 L39 558 Z " />
<glyph glyph-name="icircumflex" unicode="&#xee;" horiz-adv-x="221" d="M188 715 L32 715 L-19 558 L90 558 L109 630 L129 558 L240 558 L188 715 Z M208 538 L13 538 L13 0 L208 0 L208 538 Z " />
<glyph glyph-name="idieresis" unicode="&#xef;" horiz-adv-x="221" d="M103 693 L-17 693 L-17 558 L103 558 L103 693 Z M238 693 L118 693 L118 558 L238 558 L238 693 Z M208 538 L13 538 L13 0 L208 0 L208 538 Z " />
<glyph glyph-name="eth" unicode="&#xf0;" horiz-adv-x="448" d="M76 543 L187 579 L243 489 C219 509 182 540 131 540 L123 540 C48 540 11 469 11 377 L11 171 C11 58 71 -13 212 -13 L234 -13 C363 -13 437 69 437 181 L437 386 C437 463 427 507 387 574 L349 633 L383 644 L383 740 L299 712 L280 744 L86 744 L138 659 L76 639 L76 543 Z M245 162 C245 143 240 132 224 132 C208 132 205 143 205 162 L205 379 C205 394 205 410 224 410 C244 410 245 394 245 379 L245 162 Z " />
<glyph glyph-name="ntilde" unicode="&#xf1;" horiz-adv-x="458" d="M13 0 L208 0 L208 374 C208 389 211 401 227 401 C244 401 248 388 248 375 L248 0 L445 0 L445 435 C445 475 424 546 341 546 L333 546 C275 546 235 506 206 467 L206 538 L13 538 L13 0 Z M267 708 L267 682 C267 674 265 670 260 670 C253 670 241 679 226 686 C195 701 179 705 160 705 L157 705 C109 705 87 674 87 634 L87 556 L188 556 L188 582 C188 590 190 594 195 594 C202 594 212 587 227 579 C255 564 275 559 294 559 L298 559 C346 559 367 590 367 630 L367 708 L267 708 Z " />
<glyph glyph-name="ograve" unicode="&#xf2;" horiz-adv-x="455" d="M11 194 C11 53 74 -13 210 -13 L243 -13 C367 -13 444 52 444 195 L444 344 C444 482 377 551 244 551 L211 551 C82 551 11 484 11 344 L11 194 Z M207 379 C207 396 210 410 227 410 C244 410 248 396 248 379 L248 161 C248 141 243 131 227 131 C214 131 207 141 207 161 L207 379 Z M252 722 L100 722 L156 565 L303 565 L252 722 Z " />
<glyph glyph-name="oacute" unicode="&#xf3;" horiz-adv-x="455" d="M11 194 C11 53 74 -13 210 -13 L243 -13 C367 -13 444 52 444 195 L444 344 C444 482 377 551 244 551 L211 551 C82 551 11 484 11 344 L11 194 Z M207 379 C207 396 210 410 227 410 C244 410 248 396 248 379 L248 161 C248 141 243 131 227 131 C214 131 207 141 207 161 L207 379 Z M155 558 L302 558 L359 715 L207 715 L155 558 Z " />
<glyph glyph-name="ocircumflex" unicode="&#xf4;" horiz-adv-x="455" d="M11 194 C11 53 74 -13 210 -13 L243 -13 C367 -13 444 52 444 195 L444 344 C444 482 377 551 244 551 L211 551 C82 551 11 484 11 344 L11 194 Z M207 379 C207 396 210 410 227 410 C244 410 248 396 248 379 L248 161 C248 141 243 131 227 131 C214 131 207 141 207 161 L207 379 Z M305 715 L149 715 L75 558 L202 558 L226 625 L251 558 L380 558 L305 715 Z " />
<glyph glyph-name="otilde" unicode="&#xf5;" horiz-adv-x="455" d="M11 194 C11 53 74 -13 210 -13 L243 -13 C367 -13 444 52 444 195 L444 344 C444 482 377 551 244 551 L211 551 C82 551 11 484 11 344 L11 194 Z M207 379 C207 396 210 410 227 410 C244 410 248 396 248 379 L248 161 C248 141 243 131 227 131 C214 131 207 141 207 161 L207 379 Z M266 715 L266 689 C266 681 264 677 259 677 C252 677 240 686 225 693 C194 708 178 712 159 712 L156 712 C108 712 86 681 86 641 L86 563 L187 563 L187 589 C187 597 189 601 194 601 C201 601 211 594 226 586 C254 571 274 566 293 566 L297 566 C345 566 366 597 366 637 L366 715 L266 715 Z " />
<glyph glyph-name="odieresis" unicode="&#xf6;" horiz-adv-x="455" d="M11 194 C11 53 74 -13 210 -13 L243 -13 C367 -13 444 52 444 195 L444 344 C444 482 377 551 244 551 L211 551 C82 551 11 484 11 344 L11 194 Z M207 379 C207 396 210 410 227 410 C244 410 248 396 248 379 L248 161 C248 141 243 131 227 131 C214 131 207 141 207 161 L207 379 Z M216 698 L78 698 L78 565 L216 565 L216 698 Z M376 698 L238 698 L238 565 L376 565 L376 698 Z " />
<glyph glyph-name="divide" unicode="&#xf7;" horiz-adv-x="350" d="M12 356 L12 250 L338 250 L338 356 L12 356 Z M234 491 L116 491 L116 374 L234 374 L234 491 Z M234 231 L116 231 L116 115 L234 115 L234 231 Z " />
<glyph glyph-name="oslash" unicode="&#xf8;" horiz-adv-x="444" d="M11 192 C11 139 22 95 43 62 L-1 0 L85 0 L97 15 C126 -2 165 -13 218 -13 L223 -13 C356 -13 432 49 432 192 L432 345 C432 398 418 442 394 475 L442 538 L354 538 L341 521 C312 540 274 551 226 551 L217 551 C85 551 11 489 11 345 L11 192 L11 192 Z M221 130 C204 130 200 141 200 161 L200 177 L243 255 L243 161 C243 141 238 130 221 130 L221 130 Z M243 367 L200 289 L200 379 C200 394 201 412 221 412 C242 412 243 394 243 379 L243 367 Z " />
<glyph glyph-name="ugrave" unicode="&#xf9;" horiz-adv-x="456" d="M442 538 L248 538 L248 163 C248 148 245 137 230 137 C215 137 210 149 210 162 L210 538 L13 538 L13 103 C13 63 38 -6 115 -6 L121 -6 C181 -6 221 32 250 72 L250 0 L442 0 L442 538 Z M252 715 L100 715 L156 558 L303 558 L252 715 Z " />
<glyph glyph-name="uacute" unicode="&#xfa;" horiz-adv-x="456" d="M442 538 L248 538 L248 163 C248 148 245 137 230 137 C215 137 210 149 210 162 L210 538 L13 538 L13 103 C13 63 38 -6 115 -6 L121 -6 C181 -6 221 32 250 72 L250 0 L442 0 L442 538 Z M154 558 L301 558 L358 715 L206 715 L154 558 Z " />
<glyph glyph-name="ucircumflex" unicode="&#xfb;" horiz-adv-x="456" d="M442 538 L248 538 L248 163 C248 148 245 137 230 137 C215 137 210 149 210 162 L210 538 L13 538 L13 103 C13 63 38 -6 115 -6 L121 -6 C181 -6 221 32 250 72 L250 0 L442 0 L442 538 Z M306 715 L150 715 L76 558 L203 558 L227 625 L252 558 L381 558 L306 715 Z " />
<glyph glyph-name="udieresis" unicode="&#xfc;" horiz-adv-x="456" d="M442 538 L248 538 L248 163 C248 148 245 137 230 137 C215 137 210 149 210 162 L210 538 L13 538 L13 103 C13 63 38 -6 115 -6 L121 -6 C181 -6 221 32 250 72 L250 0 L442 0 L442 538 Z M218 691 L80 691 L80 558 L218 558 L218 691 Z M378 691 L240 691 L240 558 L378 558 L378 691 Z " />
<glyph glyph-name="yacute" unicode="&#xfd;" horiz-adv-x="427" d="M110 36 C117 9 118 -4 118 -12 L118 -16 C117 -29 114 -33 101 -33 L40 -33 L40 -188 L207 -188 C239 -188 281 -173 297 -105 L430 538 L240 538 L220 266 L191 538 L-3 538 L110 36 Z M141 558 L288 558 L345 715 L193 715 L141 558 Z " />
<glyph glyph-name="thorn" unicode="&#xfe;" horiz-adv-x="454" d="M13 744 L13 -188 L208 -188 L208 55 C243 8 278 -11 323 -11 L326 -11 C389 -11 442 47 442 127 L442 401 C442 489 409 547 337 547 L332 547 C288 547 251 527 208 467 L208 744 L13 744 Z M208 387 C208 402 210 413 226 413 C241 413 245 402 245 387 L245 144 C245 132 242 118 226 118 C210 118 208 132 208 144 L208 387 Z " />
<glyph glyph-name="ydieresis" unicode="&#xff;" horiz-adv-x="427" d="M110 36 C117 9 118 -4 118 -12 L118 -16 C117 -29 114 -33 101 -33 L40 -33 L40 -188 L207 -188 C239 -188 281 -173 297 -105 L430 538 L240 538 L220 266 L191 538 L-3 538 L110 36 Z M203 691 L65 691 L65 558 L203 558 L203 691 Z M363 691 L225 691 L225 558 L363 558 L363 691 Z " />
<glyph glyph-name="Amacron" unicode="&#x100;" horiz-adv-x="450" d="M260 0 L453 0 L345 744 L94 744 L-3 0 L169 0 L178 92 L251 92 L260 0 Z M214 455 L234 259 L195 259 L214 455 Z M94 771 L345 771 L345 883 L94 883 L94 771 Z " />
<glyph glyph-name="amacron" unicode="&#x101;" horiz-adv-x="440" d="M223 139 C223 128 220 118 208 118 C195 118 192 127 192 138 L192 198 C192 218 194 226 201 235 C208 243 216 249 223 252 L223 139 Z M8 105 C8 45 42 -8 106 -8 L109 -8 C168 -8 207 32 225 61 C225 26 242 0 271 0 L436 0 L436 149 L422 149 C415 149 411 152 411 159 L411 414 C411 513 338 550 217 550 L195 550 C86 550 15 508 15 413 L15 367 L188 367 L188 413 C188 425 194 431 205 431 L207 431 C218 431 223 425 223 413 L223 385 C223 372 221 371 210 366 C194 358 119 332 88 319 C37 296 8 261 8 198 L8 105 Z M83 570 L334 570 L334 683 L83 683 L83 570 Z " />
<glyph glyph-name="Abreve" unicode="&#x102;" horiz-adv-x="450" d="M260 0 L453 0 L345 744 L94 744 L-3 0 L169 0 L178 92 L251 92 L260 0 Z M214 455 L234 259 L195 259 L214 455 Z M221 760 C312 760 358 816 358 884 L358 895 L244 895 L244 886 C244 870 238 859 219 859 L218 859 C201 859 194 870 194 886 L194 895 L79 895 L79 884 C79 816 124 760 216 760 L221 760 L221 760 Z " />
<glyph glyph-name="abreve" unicode="&#x103;" horiz-adv-x="440" d="M223 139 C223 128 220 118 208 118 C195 118 192 127 192 138 L192 198 C192 218 194 226 201 235 C208 243 216 249 223 252 L223 139 Z M8 105 C8 45 42 -8 106 -8 L109 -8 C168 -8 207 32 225 61 C225 26 242 0 271 0 L436 0 L436 149 L422 149 C415 149 411 152 411 159 L411 414 C411 513 338 550 217 550 L195 550 C86 550 15 508 15 413 L15 367 L188 367 L188 413 C188 425 194 431 205 431 L207 431 C218 431 223 425 223 413 L223 385 C223 372 221 371 210 366 C194 358 119 332 88 319 C37 296 8 261 8 198 L8 105 Z M210 561 C295 561 346 610 346 691 L346 705 L233 705 L233 697 C233 672 225 660 208 660 L207 660 C191 660 183 672 183 697 L183 705 L69 705 L69 691 C69 610 114 561 206 561 L210 561 L210 561 Z " />
<glyph glyph-name="Aogonek" unicode="&#x104;" horiz-adv-x="450" d="M260 0 L453 0 L345 744 L94 744 L-3 0 L169 0 L178 92 L251 92 L260 0 Z M214 455 L234 259 L195 259 L214 455 Z M281 -122 C281 -162 316 -188 371 -188 L453 -188 L453 -91 L440 -91 C419 -91 413 -83 413 -70 L413 -67 C413 -50 421 -35 453 0 L371 0 C311 -41 281 -74 281 -111 L281 -122 Z " />
<glyph glyph-name="aogonek" unicode="&#x105;" horiz-adv-x="440" d="M223 139 C223 128 220 118 208 118 C195 118 192 127 192 138 L192 198 C192 218 194 226 201 235 C208 243 216 249 223 252 L223 139 Z M8 105 C8 45 42 -8 106 -8 L109 -8 C168 -8 207 32 225 61 C225 26 242 0 271 0 L436 0 L436 149 L422 149 C415 149 411 152 411 159 L411 414 C411 513 338 550 217 550 L195 550 C86 550 15 508 15 413 L15 367 L188 367 L188 413 C188 425 194 431 205 431 L207 431 C218 431 223 425 223 413 L223 385 C223 372 221 371 210 366 C194 358 119 332 88 319 C37 296 8 261 8 198 L8 105 Z M264 -122 C264 -162 299 -188 354 -188 L436 -188 L436 -91 L423 -91 C402 -91 396 -83 396 -70 L396 -67 C396 -50 404 -35 436 0 L354 0 C294 -41 264 -74 264 -111 L264 -122 Z " />
<glyph glyph-name="Cacute" unicode="&#x106;" horiz-adv-x="468" d="M167 770 L318 770 L371 895 L216 895 L167 770 Z M260 190 C260 170 257 157 240 157 C224 157 220 169 220 190 L220 562 C220 583 224 592 240 592 C257 592 260 581 260 562 L260 451 L456 451 L456 570 C456 682 393 755 256 755 L223 755 C73 755 13 665 13 541 L13 208 C13 69 75 -11 224 -11 L257 -11 C399 -11 456 84 456 183 L456 322 L260 322 L260 190 L260 190 Z " />
<glyph glyph-name="cacute" unicode="&#x107;" horiz-adv-x="419" d="M144 565 L291 565 L346 715 L194 715 L144 565 Z M236 242 L236 144 C236 130 231 123 220 123 C211 123 206 130 206 144 L206 401 C206 414 211 421 220 421 C231 421 236 414 236 401 L236 320 L409 320 L409 392 C409 484 364 551 237 551 L195 551 C59 551 11 465 11 369 L11 163 C11 39 87 -13 196 -13 L236 -13 C343 -13 409 49 409 142 L409 242 L236 242 Z " />
<glyph glyph-name="Ccircumflex" unicode="&#x108;" horiz-adv-x="468" d="M326 895 L158 895 L87 770 L217 770 L241 813 L267 770 L398 770 L326 895 Z M260 190 C260 170 257 157 240 157 C224 157 220 169 220 190 L220 562 C220 583 224 592 240 592 C257 592 260 581 260 562 L260 451 L456 451 L456 570 C456 682 393 755 256 755 L223 755 C73 755 13 665 13 541 L13 208 C13 69 75 -11 224 -11 L257 -11 C399 -11 456 84 456 183 L456 322 L260 322 L260 190 L260 190 Z " />
<glyph glyph-name="ccircumflex" unicode="&#x109;" horiz-adv-x="419" d="M294 715 L140 715 L66 565 L192 565 L216 625 L241 565 L369 565 L294 715 Z M236 242 L236 144 C236 130 231 123 220 123 C211 123 206 130 206 144 L206 401 C206 414 211 421 220 421 C231 421 236 414 236 401 L236 320 L409 320 L409 392 C409 484 364 551 237 551 L195 551 C59 551 11 465 11 369 L11 163 C11 39 87 -13 196 -13 L236 -13 C343 -13 409 49 409 142 L409 242 L236 242 Z " />
<glyph glyph-name="Cdotaccent" unicode="&#x10a;" horiz-adv-x="468" d="M338 921 L143 921 L143 770 L338 770 L338 921 Z M260 190 C260 170 257 157 240 157 C224 157 220 169 220 190 L220 562 C220 583 224 592 240 592 C257 592 260 581 260 562 L260 451 L456 451 L456 570 C456 682 393 755 256 755 L223 755 C73 755 13 665 13 541 L13 208 C13 69 75 -11 224 -11 L257 -11 C399 -11 456 84 456 183 L456 322 L260 322 L260 190 L260 190 Z " />
<glyph glyph-name="cdotaccent" unicode="&#x10b;" horiz-adv-x="419" d="M315 715 L120 715 L120 565 L315 565 L315 715 Z M236 242 L236 144 C236 130 231 123 220 123 C211 123 206 130 206 144 L206 401 C206 414 211 421 220 421 C231 421 236 414 236 401 L236 320 L409 320 L409 392 C409 484 364 551 237 551 L195 551 C59 551 11 465 11 369 L11 163 C11 39 87 -13 196 -13 L236 -13 C343 -13 409 49 409 142 L409 242 L236 242 Z " />
<glyph glyph-name="Ccaron" unicode="&#x10c;" horiz-adv-x="468" d="M158 770 L328 770 L401 895 L268 895 L242 847 L218 895 L86 895 L158 770 Z M260 190 C260 170 257 157 240 157 C224 157 220 169 220 190 L220 562 C220 583 224 592 240 592 C257 592 260 581 260 562 L260 451 L456 451 L456 570 C456 682 393 755 256 755 L223 755 C73 755 13 665 13 541 L13 208 C13 69 75 -11 224 -11 L257 -11 C399 -11 456 84 456 183 L456 322 L260 322 L260 190 L260 190 Z " />
<glyph glyph-name="ccaron" unicode="&#x10d;" horiz-adv-x="419" d="M138 565 L298 565 L370 715 L242 715 L217 649 L193 715 L67 715 L138 565 Z M236 242 L236 144 C236 130 231 123 220 123 C211 123 206 130 206 144 L206 401 C206 414 211 421 220 421 C231 421 236 414 236 401 L236 320 L409 320 L409 392 C409 484 364 551 237 551 L195 551 C59 551 11 465 11 369 L11 163 C11 39 87 -13 196 -13 L236 -13 C343 -13 409 49 409 142 L409 242 L236 242 Z " />
<glyph glyph-name="Dcaron" unicode="&#x10e;" horiz-adv-x="469" d="M15 0 L303 0 C387 0 455 51 455 178 L455 575 C455 701 386 744 301 744 L15 744 L15 0 Z M210 585 L229 585 C248 585 253 572 253 549 L253 202 C253 175 248 163 229 163 L210 163 L210 585 Z M128 764 L284 764 L361 895 L231 895 L205 847 L181 895 L52 895 L128 764 Z " />
<glyph glyph-name="dcaron" unicode="&#x10f;" horiz-adv-x="455" d="M248 744 L248 475 C219 508 183 544 124 544 L118 544 C54 544 12 485 12 408 L12 133 C12 55 59 -11 128 -11 L133 -11 C186 -11 223 28 250 60 L250 0 L442 0 L442 744 L248 744 Z M248 149 C248 134 244 121 229 121 C212 121 209 133 209 148 L209 380 C209 395 212 407 229 407 C244 407 248 394 248 378 L248 149 Z M456 578 L573 578 L584 744 L461 744 L456 578 Z " />
<glyph glyph-name="Dcroat" unicode="&#x110;" horiz-adv-x="478" d="M25 472 L3 472 L3 302 L25 302 L25 0 L313 0 C397 0 465 51 465 178 L465 575 C465 701 396 744 311 744 L25 744 L25 472 Z M220 302 L253 302 L253 472 L220 472 L220 585 L239 585 C258 585 263 572 263 549 L263 202 C263 175 258 163 239 163 L220 163 L220 302 Z " />
<glyph glyph-name="dcroat" unicode="&#x111;" horiz-adv-x="455" d="M165 567 L468 567 L468 701 L165 701 L165 567 Z M248 744 L248 475 C219 508 183 544 124 544 L118 544 C54 544 12 485 12 408 L12 133 C12 55 59 -11 128 -11 L133 -11 C186 -11 223 28 250 60 L250 0 L442 0 L442 744 L248 744 Z M248 149 C248 134 244 121 229 121 C212 121 209 133 209 148 L209 380 C209 395 212 407 229 407 C244 407 248 394 248 378 L248 149 Z " />
<glyph glyph-name="Emacron" unicode="&#x112;" horiz-adv-x="372" d="M15 744 L15 0 L362 0 L362 181 L210 181 L210 293 L331 293 L331 476 L210 476 L210 565 L357 565 L357 744 L15 744 Z M62 771 L313 771 L313 883 L62 883 L62 771 Z " />
<glyph glyph-name="emacron" unicode="&#x113;" horiz-adv-x="431" d="M201 551 C73 551 11 480 11 363 L11 171 C11 43 81 -13 201 -13 L238 -13 C351 -13 421 51 421 164 L421 213 L238 213 L238 141 C238 125 235 115 219 115 C207 115 201 121 201 141 L201 249 L421 249 L421 366 C421 502 342 551 238 551 L201 551 Z M201 406 C201 429 204 437 219 437 C236 437 238 429 238 406 L238 351 L201 351 L201 406 Z M92 571 L343 571 L343 684 L92 684 L92 571 Z " />
<glyph glyph-name="Ebreve" unicode="&#x114;" horiz-adv-x="372" d="M15 744 L15 0 L362 0 L362 181 L210 181 L210 293 L331 293 L331 476 L210 476 L210 565 L357 565 L357 744 L15 744 Z M192 760 C283 760 329 816 329 884 L329 895 L215 895 L215 886 C215 870 209 859 190 859 L189 859 C172 859 165 870 165 886 L165 895 L50 895 L50 884 C50 816 95 760 187 760 L192 760 L192 760 Z " />
<glyph glyph-name="ebreve" unicode="&#x115;" horiz-adv-x="431" d="M201 551 C73 551 11 480 11 363 L11 171 C11 43 81 -13 201 -13 L238 -13 C351 -13 421 51 421 164 L421 213 L238 213 L238 141 C238 125 235 115 219 115 C207 115 201 121 201 141 L201 249 L421 249 L421 366 C421 502 342 551 238 551 L201 551 Z M201 406 C201 429 204 437 219 437 C236 437 238 429 238 406 L238 351 L201 351 L201 406 Z M219 562 C304 562 355 611 355 692 L355 706 L242 706 L242 698 C242 673 234 661 217 661 L216 661 C200 661 192 673 192 698 L192 706 L78 706 L78 692 C78 611 123 562 215 562 L219 562 L219 562 Z " />
<glyph glyph-name="Edotaccent" unicode="&#x116;" horiz-adv-x="372" d="M15 744 L15 0 L362 0 L362 181 L210 181 L210 293 L331 293 L331 476 L210 476 L210 565 L357 565 L357 744 L15 744 Z M287 921 L92 921 L92 764 L287 764 L287 921 Z " />
<glyph glyph-name="edotaccent" unicode="&#x117;" horiz-adv-x="431" d="M315 715 L120 715 L120 565 L315 565 L315 715 Z M201 551 C73 551 11 480 11 363 L11 171 C11 43 81 -13 201 -13 L238 -13 C351 -13 421 51 421 164 L421 213 L238 213 L238 141 C238 125 235 115 219 115 C207 115 201 121 201 141 L201 249 L421 249 L421 366 C421 502 342 551 238 551 L201 551 Z M201 406 C201 429 204 437 219 437 C236 437 238 429 238 406 L238 351 L201 351 L201 406 Z " />
<glyph glyph-name="Eogonek" unicode="&#x118;" horiz-adv-x="372" d="M15 744 L15 0 L362 0 L362 181 L210 181 L210 293 L331 293 L331 476 L210 476 L210 565 L357 565 L357 744 L15 744 Z M140 -122 C140 -162 175 -188 230 -188 L312 -188 L312 -91 L299 -91 C278 -91 272 -83 272 -70 L272 -67 C272 -50 280 -35 312 0 L230 0 C170 -41 140 -74 140 -111 L140 -122 Z " />
<glyph glyph-name="eogonek" unicode="&#x119;" horiz-adv-x="431" d="M350 0 C380 32 421 79 421 164 L421 213 L238 213 L238 141 C238 125 235 115 219 115 C207 115 201 121 201 141 L201 249 L421 249 L421 366 C421 502 342 551 238 551 L201 551 C74 551 11 480 11 363 L11 171 C11 43 81 -13 201 -13 L238 -13 L253 -13 C203 -46 178 -78 178 -111 L178 -122 C178 -162 213 -188 268 -188 L350 -188 L350 -91 L337 -91 C316 -91 310 -83 310 -70 L310 -67 C310 -48 321 -32 350 0 L350 0 Z M201 406 C201 429 204 437 219 437 C236 437 238 429 238 406 L238 351 L201 351 L201 406 Z " />
<glyph glyph-name="Ecaron" unicode="&#x11a;" horiz-adv-x="372" d="M15 744 L15 0 L362 0 L362 181 L210 181 L210 293 L331 293 L331 476 L210 476 L210 565 L357 565 L357 744 L15 744 Z M111 764 L267 764 L344 895 L214 895 L188 847 L164 895 L35 895 L111 764 Z " />
<glyph glyph-name="ecaron" unicode="&#x11b;" horiz-adv-x="431" d="M137 565 L297 565 L369 711 L241 711 L216 649 L192 711 L66 711 L137 565 Z M201 551 C73 551 11 480 11 363 L11 171 C11 43 81 -13 201 -13 L238 -13 C351 -13 421 51 421 164 L421 213 L238 213 L238 141 C238 125 235 115 219 115 C207 115 201 121 201 141 L201 249 L421 249 L421 366 C421 502 342 551 238 551 L201 551 Z M201 406 C201 429 204 437 219 437 C236 437 238 429 238 406 L238 351 L201 351 L201 406 Z " />
<glyph glyph-name="Gcircumflex" unicode="&#x11c;" horiz-adv-x="481" d="M324 895 L156 895 L85 770 L215 770 L239 813 L265 770 L396 770 L324 895 Z M179 -11 C244 -11 286 27 314 66 C319 55 331 14 334 0 L469 0 L469 445 L235 445 L235 296 L278 296 L278 182 C278 157 268 145 249 145 C230 145 220 157 220 182 L220 564 C220 583 224 594 243 594 C262 594 267 583 267 564 L267 479 L460 479 L460 570 C460 660 415 755 254 755 L225 755 C68 755 13 661 13 550 L13 183 C13 79 63 -11 173 -11 L179 -11 Z " />
<glyph glyph-name="gcircumflex" unicode="&#x11d;" horiz-adv-x="455" d="M248 -44 C248 -57 242 -64 230 -64 C217 -64 211 -57 211 -44 L211 -18 L21 -18 L21 -70 C21 -139 73 -196 206 -196 L252 -196 C373 -196 442 -139 442 -39 L442 538 L250 538 L250 473 C223 502 186 544 129 544 L122 544 C49 544 12 478 12 411 L12 126 C12 41 63 -9 132 -9 C190 -9 230 38 248 58 L248 -44 Z M248 144 C248 131 244 117 229 117 C212 117 210 129 210 144 L210 383 C210 395 212 408 229 408 C244 408 248 397 248 382 L248 144 Z M302 715 L146 715 L72 558 L199 558 L223 625 L248 558 L377 558 L302 715 Z " />
<glyph glyph-name="Gbreve" unicode="&#x11e;" horiz-adv-x="481" d="M179 -11 C244 -11 286 27 314 66 C319 55 331 14 334 0 L469 0 L469 445 L235 445 L235 296 L278 296 L278 182 C278 157 268 145 249 145 C230 145 220 157 220 182 L220 564 C220 583 224 594 243 594 C262 594 267 583 267 564 L267 479 L460 479 L460 570 C460 660 415 755 254 755 L225 755 C68 755 13 661 13 550 L13 183 C13 79 63 -11 173 -11 L179 -11 Z M245 766 C336 766 382 822 382 890 L382 901 L268 901 L268 892 C268 876 262 865 243 865 L242 865 C225 865 218 876 218 892 L218 901 L103 901 L103 890 C103 822 148 766 240 766 L245 766 L245 766 Z " />
<glyph glyph-name="gbreve" unicode="&#x11f;" horiz-adv-x="455" d="M248 -44 C248 -57 242 -64 230 -64 C217 -64 211 -57 211 -44 L211 -18 L21 -18 L21 -70 C21 -139 73 -196 206 -196 L252 -196 C373 -196 442 -139 442 -39 L442 538 L250 538 L250 473 C223 502 186 544 129 544 L122 544 C49 544 12 478 12 411 L12 126 C12 41 63 -9 132 -9 C190 -9 230 38 248 58 L248 -44 Z M248 144 C248 131 244 117 229 117 C212 117 210 129 210 144 L210 383 C210 395 212 408 229 408 C244 408 248 397 248 382 L248 144 Z M226 555 C311 555 362 604 362 685 L362 699 L249 699 L249 691 C249 666 241 654 224 654 L223 654 C207 654 199 666 199 691 L199 699 L85 699 L85 685 C85 604 130 555 222 555 L226 555 L226 555 Z " />
<glyph glyph-name="Gdotaccent" unicode="&#x120;" horiz-adv-x="481" d="M339 921 L144 921 L144 770 L339 770 L339 921 Z M179 -11 C244 -11 286 27 314 66 C319 55 331 14 334 0 L469 0 L469 445 L235 445 L235 296 L278 296 L278 182 C278 157 268 145 249 145 C230 145 220 157 220 182 L220 564 C220 583 224 594 243 594 C262 594 267 583 267 564 L267 479 L460 479 L460 570 C460 660 415 755 254 755 L225 755 C68 755 13 661 13 550 L13 183 C13 79 63 -11 173 -11 L179 -11 Z " />
<glyph glyph-name="gdotaccent" unicode="&#x121;" horiz-adv-x="455" d="M248 -44 C248 -57 242 -64 230 -64 C217 -64 211 -57 211 -44 L211 -18 L21 -18 L21 -70 C21 -139 73 -196 206 -196 L252 -196 C373 -196 442 -139 442 -39 L442 538 L250 538 L250 473 C223 502 186 544 129 544 L122 544 C49 544 12 478 12 411 L12 126 C12 41 63 -9 132 -9 C190 -9 230 38 248 58 L248 -44 Z M248 144 C248 131 244 117 229 117 C212 117 210 129 210 144 L210 383 C210 395 212 408 229 408 C244 408 248 397 248 382 L248 144 Z M322 715 L127 715 L127 558 L322 558 L322 715 Z " />
<glyph glyph-name="uni0122" unicode="&#x122;" horiz-adv-x="481" d="M179 -11 C244 -11 286 27 314 66 C319 55 331 14 334 0 L469 0 L469 445 L235 445 L235 296 L278 296 L278 182 C278 157 268 145 249 145 C230 145 220 157 220 182 L220 564 C220 583 224 594 243 594 C262 594 267 583 267 564 L267 479 L460 479 L460 570 C460 660 415 755 254 755 L225 755 C68 755 13 661 13 550 L13 183 C13 79 63 -11 173 -11 L179 -11 Z M304 -224 C312 -205 328 -160 328 -109 L328 -24 L176 -24 L176 -150 L238 -150 C237 -173 233 -197 222 -224 L304 -224 Z " />
<glyph glyph-name="uni0123" unicode="&#x123;" horiz-adv-x="455" d="M248 -44 C248 -57 242 -64 230 -64 C217 -64 211 -57 211 -44 L211 -18 L21 -18 L21 -70 C21 -139 73 -196 206 -196 L252 -196 C373 -196 442 -139 442 -39 L442 538 L250 538 L250 473 C223 502 186 544 129 544 L122 544 C49 544 12 478 12 411 L12 126 C12 41 63 -9 132 -9 C190 -9 230 38 248 58 L248 -44 Z M248 144 C248 131 244 117 229 117 C212 117 210 129 210 144 L210 383 C210 395 212 408 229 408 C244 408 248 397 248 382 L248 144 Z M166 758 C158 739 142 694 142 643 L142 558 L294 558 L294 684 L232 684 C233 707 237 731 248 758 L166 758 Z " />
<glyph glyph-name="Hcircumflex" unicode="&#x124;" horiz-adv-x="473" d="M215 285 L258 285 L258 0 L458 0 L458 744 L258 744 L258 490 L215 490 L215 744 L15 744 L15 0 L215 0 L215 285 Z M313 895 L157 895 L81 764 L210 764 L234 810 L260 764 L390 764 L313 895 Z " />
<glyph glyph-name="hcircumflex" unicode="&#x125;" horiz-adv-x="458" d="M13 0 L208 0 L208 374 C208 389 211 401 227 401 C244 401 248 388 248 375 L248 0 L445 0 L445 436 C445 476 421 546 341 546 L333 546 C274 546 235 507 208 469 L208 744 L13 744 L13 0 Z M299 895 L143 895 L67 764 L196 764 L220 810 L246 764 L376 764 L299 895 Z " />
<glyph glyph-name="Hbar" unicode="&#x126;" horiz-adv-x="484" d="M2 549 L481 549 L481 674 L2 674 L2 549 Z M220 285 L263 285 L263 0 L463 0 L463 744 L263 744 L263 490 L220 490 L220 744 L20 744 L20 0 L220 0 L220 285 Z " />
<glyph glyph-name="hbar" unicode="&#x127;" horiz-adv-x="458" d="M-13 567 L290 567 L290 701 L-13 701 L-13 567 Z M13 0 L208 0 L208 374 C208 389 211 401 227 401 C244 401 248 388 248 375 L248 0 L445 0 L445 436 C445 476 421 546 341 546 L333 546 C274 546 235 507 208 469 L208 744 L13 744 L13 0 Z " />
<glyph glyph-name="Itilde" unicode="&#x128;" horiz-adv-x="230" d="M215 744 L15 744 L15 0 L215 0 L215 744 Z M115 783 C146 772 166 766 187 766 L192 766 C236 766 256 800 256 840 L256 905 L158 905 L158 884 C158 876 155 872 150 872 C143 872 134 876 115 883 C84 894 66 902 42 902 L39 902 C-5 902 -26 872 -26 831 L-26 762 L72 762 L72 782 C72 790 75 794 80 794 C87 794 96 790 115 783 L115 783 Z " />
<glyph glyph-name="itilde" unicode="&#x129;" horiz-adv-x="221" d="M148 708 L148 679 C148 672 146 669 141 669 C134 669 124 676 109 685 C84 700 69 705 50 705 L47 705 C2 705 -17 673 -17 633 L-17 556 L73 556 L73 584 C73 591 75 595 80 595 C87 595 95 589 110 580 C135 565 152 559 171 559 L175 559 C220 559 238 591 238 631 L238 708 L148 708 Z M208 538 L13 538 L13 0 L208 0 L208 538 Z " />
<glyph glyph-name="Imacron" unicode="&#x12a;" horiz-adv-x="230" d="M215 744 L15 744 L15 0 L215 0 L215 744 Z M-10 771 L241 771 L241 883 L-10 883 L-10 771 Z " />
<glyph glyph-name="imacron" unicode="&#x12b;" horiz-adv-x="221" d="M-1 564 L222 564 L222 675 L-1 675 L-1 564 Z M208 538 L13 538 L13 0 L208 0 L208 538 Z " />
<glyph glyph-name="Ibreve" unicode="&#x12c;" horiz-adv-x="230" d="M215 744 L15 744 L15 0 L215 0 L215 744 Z M118 760 C209 760 255 816 255 884 L255 895 L141 895 L141 886 C141 870 135 859 116 859 L115 859 C98 859 91 870 91 886 L91 895 L-24 895 L-24 884 C-24 816 21 760 113 760 L118 760 L118 760 Z " />
<glyph glyph-name="ibreve" unicode="&#x12d;" horiz-adv-x="221" d="M113 555 C196 555 235 606 235 674 L235 701 L132 701 L132 684 C132 663 125 653 111 653 C95 653 90 664 90 684 L90 701 L-14 701 L-14 674 C-14 606 21 555 109 555 L113 555 L113 555 Z M208 538 L13 538 L13 0 L208 0 L208 538 Z " />
<glyph glyph-name="Iogonek" unicode="&#x12e;" horiz-adv-x="230" d="M215 744 L15 744 L15 0 L215 0 L215 744 Z M43 -122 C43 -162 78 -188 133 -188 L215 -188 L215 -91 L202 -91 C181 -91 175 -83 175 -70 L175 -67 C175 -50 183 -35 215 0 L133 0 C73 -41 43 -74 43 -111 L43 -122 Z " />
<glyph glyph-name="iogonek" unicode="&#x12f;" horiz-adv-x="221" d="M208 538 L13 538 L13 0 L208 0 L208 538 Z M208 715 L13 715 L13 558 L208 558 L208 715 Z M36 -122 C36 -162 71 -188 126 -188 L208 -188 L208 -91 L195 -91 C174 -91 168 -83 168 -70 L168 -67 C168 -50 176 -35 208 0 L126 0 C66 -41 36 -74 36 -111 L36 -122 Z " />
<glyph glyph-name="Idotaccent" unicode="&#x130;" horiz-adv-x="230" d="M215 744 L15 744 L15 0 L215 0 L215 744 Z M213 921 L18 921 L18 764 L213 764 L213 921 Z " />
<glyph glyph-name="dotlessi" unicode="&#x131;" horiz-adv-x="221" d="M208 538 L13 538 L13 0 L208 0 L208 538 Z " />
<glyph glyph-name="IJ" unicode="&#x132;" horiz-adv-x="673" d="M215 744 L15 744 L15 0 L215 0 L215 744 Z M237 338 L237 159 C237 66 283 -11 411 -11 L465 -11 C601 -11 658 64 658 167 L658 744 L453 744 L453 174 C453 161 448 155 437 155 L436 155 C425 155 419 161 419 174 L419 338 L237 338 Z " />
<glyph glyph-name="ij" unicode="&#x133;" horiz-adv-x="438" d="M208 538 L13 538 L13 0 L208 0 L208 538 Z M208 715 L13 715 L13 558 L208 558 L208 715 Z M425 715 L230 715 L230 558 L425 558 L425 715 Z M176 -24 L176 -188 L340 -188 C384 -188 425 -159 425 -98 L425 538 L230 538 L230 -6 C230 -21 225 -24 214 -24 L176 -24 Z " />
<glyph glyph-name="Jcircumflex" unicode="&#x134;" horiz-adv-x="447" d="M11 338 L11 159 C11 66 57 -11 185 -11 L239 -11 C375 -11 432 64 432 167 L432 744 L227 744 L227 174 C227 161 222 155 211 155 L210 155 C199 155 193 161 193 174 L193 338 L11 338 Z M403 895 L247 895 L171 764 L300 764 L324 810 L350 764 L480 764 L403 895 Z " />
<glyph glyph-name="jcircumflex" unicode="&#x135;" horiz-adv-x="221" d="M186 715 L30 715 L-21 558 L88 558 L107 630 L127 558 L238 558 L186 715 Z M-41 -24 L-41 -188 L123 -188 C167 -188 208 -159 208 -98 L208 538 L13 538 L13 -6 C13 -21 8 -24 -3 -24 L-41 -24 Z " />
<glyph glyph-name="uni0136" unicode="&#x136;" horiz-adv-x="477" d="M215 272 L273 0 L481 0 L385 420 L480 744 L281 744 L215 506 L215 744 L15 744 L15 0 L215 0 L215 272 Z M296 -220 C304 -201 320 -156 320 -105 L320 -20 L168 -20 L168 -146 L230 -146 C229 -169 225 -193 214 -220 L296 -220 Z " />
<glyph glyph-name="uni0137" unicode="&#x137;" horiz-adv-x="440" d="M208 374 L208 744 L13 744 L13 0 L208 0 L208 206 L257 0 L443 0 L363 318 L434 538 L253 538 L208 374 Z M282 -220 C290 -201 306 -156 306 -105 L306 -20 L154 -20 L154 -146 L216 -146 C215 -169 211 -193 200 -220 L282 -220 Z " />
<glyph glyph-name="Lacute" unicode="&#x139;" horiz-adv-x="353" d="M15 744 L15 0 L343 0 L343 185 L215 185 L215 744 L15 744 Z M40 764 L191 764 L246 895 L91 895 L40 764 Z " />
<glyph glyph-name="lacute" unicode="&#x13a;" horiz-adv-x="221" d="M208 744 L13 744 L13 0 L208 0 L208 744 Z M35 764 L186 764 L241 895 L86 895 L35 764 Z " />
<glyph glyph-name="uni013B" unicode="&#x13b;" horiz-adv-x="353" d="M15 744 L15 0 L343 0 L343 185 L215 185 L215 744 L15 744 Z M234 -220 C242 -201 258 -156 258 -105 L258 -20 L106 -20 L106 -146 L168 -146 C167 -169 163 -193 152 -220 L234 -220 Z " />
<glyph glyph-name="uni013C" unicode="&#x13c;" horiz-adv-x="221" d="M208 744 L13 744 L13 0 L208 0 L208 744 Z M164 -220 C172 -201 188 -156 188 -105 L188 -20 L36 -20 L36 -146 L98 -146 C97 -169 93 -193 82 -220 L164 -220 Z " />
<glyph glyph-name="Lcaron" unicode="&#x13d;" horiz-adv-x="353" d="M15 744 L15 0 L343 0 L343 185 L215 185 L215 744 L15 744 Z M229 578 L346 578 L357 744 L234 744 L229 578 Z " />
<glyph glyph-name="lcaron" unicode="&#x13e;" horiz-adv-x="221" d="M208 744 L13 744 L13 0 L208 0 L208 744 Z M222 578 L339 578 L350 744 L227 744 L222 578 Z " />
<glyph glyph-name="Ldot" unicode="&#x13f;" horiz-adv-x="404" d="M397 479 L232 479 L232 299 L397 299 L397 479 Z M15 744 L15 0 L343 0 L343 185 L215 185 L215 744 L15 744 Z " />
<glyph glyph-name="ldot" unicode="&#x140;" horiz-adv-x="398" d="M391 476 L224 476 L224 297 L391 297 L391 476 Z M208 744 L13 744 L13 0 L208 0 L208 744 Z " />
<glyph glyph-name="Lslash" unicode="&#x141;" horiz-adv-x="366" d="M28 744 L28 344 L5 329 L5 186 L28 201 L28 0 L356 0 L356 185 L228 185 L228 332 L303 382 L303 530 L228 479 L228 744 L28 744 Z " />
<glyph glyph-name="lslash" unicode="&#x142;" horiz-adv-x="257" d="M226 392 L252 408 L252 544 L226 528 L226 744 L31 744 L31 410 L5 394 L5 259 L31 274 L31 0 L226 0 L226 392 Z " />
<glyph glyph-name="Nacute" unicode="&#x143;" horiz-adv-x="474" d="M15 744 L15 0 L185 0 L185 367 L278 0 L458 0 L458 744 L290 744 L290 406 L213 744 L15 744 Z M163 764 L314 764 L369 895 L214 895 L163 764 Z " />
<glyph glyph-name="nacute" unicode="&#x144;" horiz-adv-x="458" d="M13 0 L208 0 L208 374 C208 389 211 401 227 401 C244 401 248 388 248 375 L248 0 L445 0 L445 435 C445 475 424 546 341 546 L333 546 C275 546 235 506 206 467 L206 538 L13 538 L13 0 Z M155 558 L302 558 L359 715 L207 715 L155 558 Z " />
<glyph glyph-name="uni0145" unicode="&#x145;" horiz-adv-x="474" d="M15 744 L15 0 L185 0 L185 367 L278 0 L458 0 L458 744 L290 744 L290 406 L213 744 L15 744 Z M292 -220 C300 -201 316 -156 316 -105 L316 -20 L164 -20 L164 -146 L226 -146 C225 -169 221 -193 210 -220 L292 -220 Z " />
<glyph glyph-name="uni0146" unicode="&#x146;" horiz-adv-x="458" d="M13 0 L208 0 L208 374 C208 389 211 401 227 401 C244 401 248 388 248 375 L248 0 L445 0 L445 435 C445 475 424 546 341 546 L333 546 C275 546 235 506 206 467 L206 538 L13 538 L13 0 Z M282 -220 C290 -201 306 -156 306 -105 L306 -20 L154 -20 L154 -146 L216 -146 C215 -169 211 -193 200 -220 L282 -220 Z " />
<glyph glyph-name="Ncaron" unicode="&#x147;" horiz-adv-x="474" d="M15 744 L15 0 L185 0 L185 367 L278 0 L458 0 L458 744 L290 744 L290 406 L213 744 L15 744 Z M161 764 L317 764 L394 895 L264 895 L238 847 L214 895 L85 895 L161 764 Z " />
<glyph glyph-name="ncaron" unicode="&#x148;" horiz-adv-x="458" d="M13 0 L208 0 L208 374 C208 389 211 401 227 401 C244 401 248 388 248 375 L248 0 L445 0 L445 435 C445 475 424 546 341 546 L333 546 C275 546 235 506 206 467 L206 538 L13 538 L13 0 Z M152 558 L306 558 L381 715 L253 715 L228 649 L204 715 L78 715 L152 558 Z " />
<glyph glyph-name="napostrophe" unicode="&#x149;" horiz-adv-x="603" d="M158 0 L353 0 L353 374 C353 389 356 401 372 401 C389 401 393 388 393 375 L393 0 L590 0 L590 435 C590 475 569 546 486 546 L478 546 C420 546 380 506 351 467 L351 538 L158 538 L158 0 Z M121 493 C132 517 155 572 155 631 L155 744 L2 744 L2 592 L58 592 C57 560 42 516 31 493 L121 493 Z " />
<glyph glyph-name="Eng" unicode="&#x14a;" horiz-adv-x="470" d="M351 -188 C412 -188 454 -140 454 -71 L454 744 L289 744 L289 405 L210 744 L15 744 L15 0 L182 0 L182 367 L289 0 L289 -15 C289 -31 282 -39 269 -39 L225 -39 L225 -188 L351 -188 L351 -188 Z " />
<glyph glyph-name="eng" unicode="&#x14b;" horiz-adv-x="458" d="M248 -7 C248 -22 243 -25 231 -25 L220 -25 L220 -188 L361 -188 C404 -188 445 -159 445 -98 L445 435 C445 475 421 546 346 546 L337 546 C280 546 237 507 205 466 L205 538 L13 538 L13 0 L208 0 L208 374 C208 389 211 401 227 401 C244 401 248 388 248 375 L248 -7 Z " />
<glyph glyph-name="Omacron" unicode="&#x14c;" horiz-adv-x="486" d="M473 523 C473 663 408 755 260 755 L226 755 C77 755 13 666 13 523 L13 214 C13 69 89 -11 226 -11 L261 -11 C386 -11 473 66 473 214 L473 523 Z M267 196 C267 175 259 165 243 165 C228 165 220 175 220 196 L220 547 C220 570 228 581 243 581 C262 581 267 570 267 547 L267 196 Z M118 777 L369 777 L369 889 L118 889 L118 777 Z " />
<glyph glyph-name="omacron" unicode="&#x14d;" horiz-adv-x="455" d="M11 194 C11 53 74 -13 210 -13 L243 -13 C367 -13 444 52 444 195 L444 344 C444 482 377 551 244 551 L211 551 C82 551 11 484 11 344 L11 194 Z M207 379 C207 396 210 410 227 410 C244 410 248 396 248 379 L248 161 C248 141 243 131 227 131 C214 131 207 141 207 161 L207 379 Z M103 571 L354 571 L354 684 L103 684 L103 571 Z " />
<glyph glyph-name="Obreve" unicode="&#x14e;" horiz-adv-x="486" d="M473 523 C473 663 408 755 260 755 L226 755 C77 755 13 666 13 523 L13 214 C13 69 89 -11 226 -11 L261 -11 C386 -11 473 66 473 214 L473 523 Z M267 196 C267 175 259 165 243 165 C228 165 220 175 220 196 L220 547 C220 570 228 581 243 581 C262 581 267 570 267 547 L267 196 Z M246 766 C337 766 383 822 383 890 L383 901 L269 901 L269 892 C269 876 263 865 244 865 L243 865 C226 865 219 876 219 892 L219 901 L104 901 L104 890 C104 822 149 766 241 766 L246 766 L246 766 Z " />
<glyph glyph-name="obreve" unicode="&#x14f;" horiz-adv-x="455" d="M11 194 C11 53 74 -13 210 -13 L243 -13 C367 -13 444 52 444 195 L444 344 C444 482 377 551 244 551 L211 551 C82 551 11 484 11 344 L11 194 Z M207 379 C207 396 210 410 227 410 C244 410 248 396 248 379 L248 161 C248 141 243 131 227 131 C214 131 207 141 207 161 L207 379 Z M230 562 C315 562 366 611 366 692 L366 706 L253 706 L253 698 C253 673 245 661 228 661 L227 661 C211 661 203 673 203 698 L203 706 L89 706 L89 692 C89 611 134 562 226 562 L230 562 L230 562 Z " />
<glyph glyph-name="Ohungarumlaut" unicode="&#x150;" horiz-adv-x="486" d="M111 770 L237 770 L270 895 L141 895 L111 770 Z M259 770 L385 770 L421 895 L292 895 L259 770 Z M473 523 C473 663 408 755 260 755 L226 755 C77 755 13 666 13 523 L13 214 C13 69 89 -11 226 -11 L261 -11 C386 -11 473 66 473 214 L473 523 Z M267 196 C267 175 259 165 243 165 C228 165 220 175 220 196 L220 547 C220 570 228 581 243 581 C262 581 267 570 267 547 L267 196 Z " />
<glyph glyph-name="ohungarumlaut" unicode="&#x151;" horiz-adv-x="455" d="M99 565 L224 565 L257 715 L131 715 L99 565 Z M245 565 L370 565 L404 715 L278 715 L245 565 Z M11 194 C11 53 74 -13 210 -13 L243 -13 C367 -13 444 52 444 195 L444 344 C444 482 377 551 244 551 L211 551 C82 551 11 484 11 344 L11 194 Z M207 379 C207 396 210 410 227 410 C244 410 248 396 248 379 L248 161 C248 141 243 131 227 131 C214 131 207 141 207 161 L207 379 Z " />
<glyph glyph-name="OE" unicode="&#x152;" horiz-adv-x="604" d="M13 201 C13 66 67 -11 163 -11 L171 -11 C226 -11 263 27 273 43 L273 0 L594 0 L594 181 L468 181 L468 293 L563 293 L563 476 L468 476 L468 565 L589 565 L589 744 L273 744 L273 701 C262 715 234 753 170 753 L163 753 C56 753 13 659 13 544 L13 201 Z M264 197 C264 174 259 162 242 162 C225 162 220 174 220 197 L220 548 C220 571 225 583 242 583 C259 583 264 571 264 548 L264 197 Z " />
<glyph glyph-name="oe" unicode="&#x153;" horiz-adv-x="672" d="M661 249 L661 366 C661 499 583 550 480 550 L445 550 C394 550 363 531 347 519 C331 531 293 552 237 552 L211 552 C86 552 11 489 11 345 L11 192 C11 49 75 -16 212 -16 L234 -16 C290 -16 324 5 343 17 C362 5 394 -13 445 -13 L479 -13 C592 -13 661 52 661 164 L661 213 L478 213 L478 141 C478 125 475 115 459 115 C447 115 441 121 441 141 L441 249 L661 249 Z M207 379 C207 396 209 410 226 410 C245 410 247 396 247 379 L247 160 C247 137 242 129 226 129 C211 129 207 139 207 160 L207 379 Z M441 405 C441 428 444 436 459 436 C474 436 478 430 479 413 L479 351 L441 351 L441 405 Z " />
<glyph glyph-name="Racute" unicode="&#x154;" horiz-adv-x="468" d="M215 602 L232 602 C249 602 252 594 252 575 L252 476 C252 459 245 450 231 450 L215 450 L215 602 Z M215 290 L231 290 C250 290 252 279 252 263 L252 48 C252 29 258 11 266 0 L463 0 L463 5 C456 17 453 35 453 58 L453 297 C453 352 415 390 380 403 C413 419 451 451 451 531 L451 605 C451 703 392 744 326 744 L15 744 L15 0 L215 0 L215 290 Z M148 764 L299 764 L354 895 L199 895 L148 764 Z " />
<glyph glyph-name="racute" unicode="&#x155;" horiz-adv-x="414" d="M206 538 L13 538 L13 0 L208 0 L208 388 C208 400 212 406 221 406 C230 406 235 400 235 388 L235 267 L405 267 L405 461 C405 504 378 542 325 542 L313 542 C257 542 222 493 206 466 L206 538 Z M150 558 L297 558 L354 715 L202 715 L150 558 Z " />
<glyph glyph-name="uni0156" unicode="&#x156;" horiz-adv-x="468" d="M215 602 L232 602 C249 602 252 594 252 575 L252 476 C252 459 245 450 231 450 L215 450 L215 602 Z M215 290 L231 290 C250 290 252 279 252 263 L252 48 C252 29 258 11 266 0 L463 0 L463 5 C456 17 453 35 453 58 L453 297 C453 352 415 390 380 403 C413 419 451 451 451 531 L451 605 C451 703 392 744 326 744 L15 744 L15 0 L215 0 L215 290 Z M293 -220 C301 -201 317 -156 317 -105 L317 -20 L165 -20 L165 -146 L227 -146 C226 -169 222 -193 211 -220 L293 -220 Z " />
<glyph glyph-name="uni0157" unicode="&#x157;" horiz-adv-x="414" d="M206 538 L13 538 L13 0 L208 0 L208 388 C208 400 212 406 221 406 C230 406 235 400 235 388 L235 267 L405 267 L405 461 C405 504 378 542 325 542 L313 542 C257 542 222 493 206 466 L206 538 Z M163 -220 C171 -201 187 -156 187 -105 L187 -20 L35 -20 L35 -146 L97 -146 C96 -169 92 -193 81 -220 L163 -220 Z " />
<glyph glyph-name="Rcaron" unicode="&#x158;" horiz-adv-x="468" d="M215 602 L232 602 C249 602 252 594 252 575 L252 476 C252 459 245 450 231 450 L215 450 L215 602 Z M215 290 L231 290 C250 290 252 279 252 263 L252 48 C252 29 258 11 266 0 L463 0 L463 5 C456 17 453 35 453 58 L453 297 C453 352 415 390 380 403 C413 419 451 451 451 531 L451 605 C451 703 392 744 326 744 L15 744 L15 0 L215 0 L215 290 Z M141 764 L297 764 L374 895 L244 895 L218 847 L194 895 L65 895 L141 764 Z " />
<glyph glyph-name="rcaron" unicode="&#x159;" horiz-adv-x="414" d="M206 538 L13 538 L13 0 L208 0 L208 388 C208 400 212 406 221 406 C230 406 235 400 235 388 L235 267 L405 267 L405 461 C405 504 378 542 325 542 L313 542 C257 542 222 493 206 466 L206 538 Z M145 558 L299 558 L374 715 L246 715 L221 649 L197 715 L71 715 L145 558 Z " />
<glyph glyph-name="Sacute" unicode="&#x15a;" horiz-adv-x="467" d="M162 770 L313 770 L366 895 L211 895 L162 770 Z M214 755 C74 755 14 681 14 579 L14 541 C14 458 44 397 116 346 L211 279 C243 255 246 241 246 209 L246 182 C246 161 241 149 225 149 C208 149 204 161 204 180 L204 267 L8 267 L8 164 C8 47 73 -11 204 -11 L251 -11 C397 -11 459 75 459 194 L459 233 C459 332 426 383 342 442 L247 509 C223 526 217 539 217 563 L217 585 C217 602 224 610 237 610 C250 610 257 602 257 585 L257 519 L450 519 L450 596 C450 684 404 755 261 755 L214 755 Z " />
<glyph glyph-name="sacute" unicode="&#x15b;" horiz-adv-x="402" d="M128 565 L275 565 L330 715 L178 715 L128 565 Z M386 429 C386 521 322 551 225 551 L181 551 C69 551 11 502 11 406 L11 387 C11 332 26 279 104 236 L188 191 C205 182 212 172 212 152 L212 132 C212 118 207 111 196 111 L195 111 C184 111 178 118 178 132 L178 185 L6 185 L6 124 C6 25 72 -13 172 -13 L219 -13 C328 -13 396 39 396 146 L396 164 C396 231 377 281 298 324 L209 372 C190 383 187 388 187 403 L187 421 C187 434 193 441 204 441 C216 441 219 434 219 421 L219 379 L386 379 L386 429 L386 429 Z " />
<glyph glyph-name="Scircumflex" unicode="&#x15c;" horiz-adv-x="467" d="M321 895 L153 895 L82 770 L212 770 L236 813 L262 770 L393 770 L321 895 Z M214 755 C74 755 14 681 14 579 L14 541 C14 458 44 397 116 346 L211 279 C243 255 246 241 246 209 L246 182 C246 161 241 149 225 149 C208 149 204 161 204 180 L204 267 L8 267 L8 164 C8 47 73 -11 204 -11 L251 -11 C397 -11 459 75 459 194 L459 233 C459 332 426 383 342 442 L247 509 C223 526 217 539 217 563 L217 585 C217 602 224 610 237 610 C250 610 257 602 257 585 L257 519 L450 519 L450 596 C450 684 404 755 261 755 L214 755 Z " />
<glyph glyph-name="scircumflex" unicode="&#x15d;" horiz-adv-x="402" d="M281 715 L127 715 L53 565 L179 565 L203 625 L228 565 L356 565 L281 715 Z M386 429 C386 521 322 551 225 551 L181 551 C69 551 11 502 11 406 L11 387 C11 332 26 279 104 236 L188 191 C205 182 212 172 212 152 L212 132 C212 118 207 111 196 111 L195 111 C184 111 178 118 178 132 L178 185 L6 185 L6 124 C6 25 72 -13 172 -13 L219 -13 C328 -13 396 39 396 146 L396 164 C396 231 377 281 298 324 L209 372 C190 383 187 388 187 403 L187 421 C187 434 193 441 204 441 C216 441 219 434 219 421 L219 379 L386 379 L386 429 L386 429 Z " />
<glyph glyph-name="uni015E" unicode="&#x15e;" horiz-adv-x="467" d="M214 755 C74 755 14 681 14 579 L14 541 C14 458 44 397 116 346 L211 279 C243 255 246 241 246 209 L246 182 C246 161 241 149 225 149 C208 149 204 161 204 180 L204 267 L8 267 L8 164 C8 47 73 -11 204 -11 L251 -11 C397 -11 459 75 459 194 L459 233 C459 332 426 383 342 442 L247 509 C223 526 217 539 217 563 L217 585 C217 602 224 610 237 610 C250 610 257 602 257 585 L257 519 L450 519 L450 596 C450 684 404 755 261 755 L214 755 Z M238 -202 C306 -202 345 -170 345 -115 L345 -112 C345 -64 311 -33 247 -33 L239 -33 L239 0 L162 0 L162 -98 L213 -98 C226 -98 233 -102 233 -111 L233 -112 C233 -121 226 -126 213 -126 L147 -126 L147 -202 L238 -202 L238 -202 Z " />
<glyph glyph-name="uni015F" unicode="&#x15f;" horiz-adv-x="402" d="M386 429 C386 521 322 551 225 551 L181 551 C69 551 11 502 11 406 L11 387 C11 332 26 279 104 236 L188 191 C205 182 212 172 212 152 L212 132 C212 118 207 111 196 111 L195 111 C184 111 178 118 178 132 L178 185 L6 185 L6 124 C6 25 72 -13 172 -13 L219 -13 C328 -13 396 39 396 146 L396 164 C396 231 377 281 298 324 L209 372 C190 383 187 388 187 403 L187 421 C187 434 193 441 204 441 C216 441 219 434 219 421 L219 379 L386 379 L386 429 L386 429 Z M208 -202 C276 -202 315 -170 315 -115 L315 -112 C315 -64 281 -33 217 -33 L209 -33 L209 0 L132 0 L132 -98 L183 -98 C196 -98 203 -102 203 -111 L203 -112 C203 -121 196 -126 183 -126 L117 -126 L117 -202 L208 -202 L208 -202 Z " />
<glyph glyph-name="Scaron" unicode="&#x160;" horiz-adv-x="467" d="M214 755 C74 755 14 681 14 579 L14 541 C14 458 44 397 116 346 L211 279 C243 255 246 241 246 209 L246 182 C246 161 241 149 225 149 C208 149 204 161 204 180 L204 267 L8 267 L8 164 C8 47 73 -11 204 -11 L251 -11 C397 -11 459 75 459 194 L459 233 C459 332 426 383 342 442 L247 509 C223 526 217 539 217 563 L217 585 C217 602 224 610 237 610 C250 610 257 602 257 585 L257 519 L450 519 L450 596 C450 684 404 755 261 755 L214 755 Z M167 764 L323 764 L400 895 L270 895 L244 847 L220 895 L91 895 L167 764 Z " />
<glyph glyph-name="scaron" unicode="&#x161;" horiz-adv-x="402" d="M386 429 C386 521 322 551 225 551 L181 551 C69 551 11 502 11 406 L11 387 C11 332 26 279 104 236 L188 191 C205 182 212 172 212 152 L212 132 C212 118 207 111 196 111 L195 111 C184 111 178 118 178 132 L178 185 L6 185 L6 124 C6 25 72 -13 172 -13 L219 -13 C328 -13 396 39 396 146 L396 164 C396 231 377 281 298 324 L209 372 C190 383 187 388 187 403 L187 421 C187 434 193 441 204 441 C216 441 219 434 219 421 L219 379 L386 379 L386 429 L386 429 Z M128 558 L282 558 L357 715 L229 715 L204 649 L180 715 L54 715 L128 558 Z " />
<glyph glyph-name="Tcommaaccent" unicode="&#x162;" horiz-adv-x="399" d="M10 744 L10 565 L100 565 L100 0 L299 0 L299 565 L389 565 L389 744 L10 744 Z M252 -220 C260 -201 276 -156 276 -105 L276 -20 L124 -20 L124 -146 L186 -146 C185 -169 181 -193 170 -220 L252 -220 Z " />
<glyph glyph-name="tcommaaccent" unicode="&#x163;" horiz-adv-x="328" d="M318 0 L318 156 L279 156 C264 156 262 161 262 174 L262 385 L318 385 L318 538 L262 538 L262 717 L67 717 L67 538 L7 538 L7 385 L67 385 L67 77 C67 21 104 0 135 0 L318 0 Z M258 -220 C266 -201 282 -156 282 -105 L282 -20 L130 -20 L130 -146 L192 -146 C191 -169 187 -193 176 -220 L258 -220 Z " />
<glyph glyph-name="Tcaron" unicode="&#x164;" horiz-adv-x="399" d="M10 744 L10 565 L100 565 L100 0 L299 0 L299 565 L389 565 L389 744 L10 744 Z M121 764 L277 764 L354 895 L224 895 L198 847 L174 895 L45 895 L121 764 Z " />
<glyph glyph-name="tcaron" unicode="&#x165;" horiz-adv-x="328" d="M318 0 L318 156 L279 156 C264 156 262 161 262 174 L262 385 L318 385 L318 538 L262 538 L262 717 L67 717 L67 538 L7 538 L7 385 L67 385 L67 77 C67 21 104 0 135 0 L318 0 Z M276 578 L393 578 L404 744 L281 744 L276 578 Z " />
<glyph glyph-name="Tbar" unicode="&#x166;" horiz-adv-x="399" d="M360 310 L360 461 L37 461 L37 310 L360 310 Z M10 744 L10 565 L100 565 L100 0 L299 0 L299 565 L389 565 L389 744 L10 744 Z " />
<glyph glyph-name="tbar" unicode="&#x167;" horiz-adv-x="328" d="M319 0 L319 156 L279 156 C264 156 262 161 262 174 L262 224 L319 224 L319 352 L262 352 L262 385 L319 385 L319 538 L262 538 L262 717 L67 717 L67 538 L7 538 L7 385 L67 385 L67 352 L7 352 L7 224 L67 224 L67 77 C67 21 104 0 135 0 L319 0 Z " />
<glyph glyph-name="Utilde" unicode="&#x168;" horiz-adv-x="485" d="M15 181 C15 76 72 -13 226 -13 L258 -13 C400 -13 470 80 470 181 L470 744 L264 744 L264 204 C264 184 257 174 243 174 C228 174 221 184 221 204 L221 744 L15 744 L15 181 Z M246 783 C277 772 297 766 318 766 L323 766 C367 766 387 800 387 840 L387 905 L289 905 L289 884 C289 876 286 872 281 872 C274 872 265 876 246 883 C215 894 197 902 173 902 L170 902 C126 902 105 872 105 831 L105 762 L203 762 L203 782 C203 790 206 794 211 794 C218 794 227 790 246 783 L246 783 Z " />
<glyph glyph-name="utilde" unicode="&#x169;" horiz-adv-x="456" d="M442 538 L248 538 L248 163 C248 148 245 137 230 137 C215 137 210 149 210 162 L210 538 L13 538 L13 103 C13 63 38 -6 115 -6 L121 -6 C181 -6 221 32 250 72 L250 0 L442 0 L442 538 Z M269 708 L269 682 C269 674 267 670 262 670 C255 670 243 679 228 686 C197 701 181 705 162 705 L159 705 C111 705 89 674 89 634 L89 556 L190 556 L190 582 C190 590 192 594 197 594 C204 594 214 587 229 579 C257 564 277 559 296 559 L300 559 C348 559 369 590 369 630 L369 708 L269 708 Z " />
<glyph glyph-name="Umacron" unicode="&#x16a;" horiz-adv-x="485" d="M15 181 C15 76 72 -13 226 -13 L258 -13 C400 -13 470 80 470 181 L470 744 L264 744 L264 204 C264 184 257 174 243 174 C228 174 221 184 221 204 L221 744 L15 744 L15 181 Z M117 771 L368 771 L368 883 L117 883 L117 771 Z " />
<glyph glyph-name="umacron" unicode="&#x16b;" horiz-adv-x="456" d="M442 538 L248 538 L248 163 C248 148 245 137 230 137 C215 137 210 149 210 162 L210 538 L13 538 L13 103 C13 63 38 -6 115 -6 L121 -6 C181 -6 221 32 250 72 L250 0 L442 0 L442 538 Z M103 564 L354 564 L354 677 L103 677 L103 564 Z " />
<glyph glyph-name="Ubreve" unicode="&#x16c;" horiz-adv-x="485" d="M15 181 C15 76 72 -13 226 -13 L258 -13 C400 -13 470 80 470 181 L470 744 L264 744 L264 204 C264 184 257 174 243 174 C228 174 221 184 221 204 L221 744 L15 744 L15 181 Z M245 760 C336 760 382 816 382 884 L382 895 L268 895 L268 886 C268 870 262 859 243 859 L242 859 C225 859 218 870 218 886 L218 895 L103 895 L103 884 C103 816 148 760 240 760 L245 760 L245 760 Z " />
<glyph glyph-name="ubreve" unicode="&#x16d;" horiz-adv-x="456" d="M442 538 L248 538 L248 163 C248 148 245 137 230 137 C215 137 210 149 210 162 L210 538 L13 538 L13 103 C13 63 38 -6 115 -6 L121 -6 C181 -6 221 32 250 72 L250 0 L442 0 L442 538 Z M230 555 C315 555 366 604 366 685 L366 699 L253 699 L253 691 C253 666 245 654 228 654 L227 654 C211 654 203 666 203 691 L203 699 L89 699 L89 685 C89 604 134 555 226 555 L230 555 L230 555 Z " />
<glyph glyph-name="Uring" unicode="&#x16e;" horiz-adv-x="485" d="M15 181 C15 76 72 -13 226 -13 L258 -13 C400 -13 470 80 470 181 L470 744 L264 744 L264 204 C264 184 257 174 243 174 C228 174 221 184 221 204 L221 744 L15 744 L15 181 Z M205 847 C205 868 221 883 242 883 C263 883 279 868 279 847 C279 824 263 810 242 811 C221 810 205 824 205 847 L205 847 Z M242 935 C189 935 149 900 149 848 C149 795 189 759 242 759 C295 759 335 795 335 848 C335 900 295 935 242 935 L242 935 Z " />
<glyph glyph-name="uring" unicode="&#x16f;" horiz-adv-x="456" d="M442 538 L248 538 L248 163 C248 148 245 137 230 137 C215 137 210 149 210 162 L210 538 L13 538 L13 103 C13 63 38 -6 115 -6 L121 -6 C181 -6 221 32 250 72 L250 0 L442 0 L442 538 Z M228 608 C207 607 191 621 191 644 C191 665 207 680 228 680 C249 680 265 665 265 644 C265 621 249 607 228 608 L228 608 Z M228 556 C281 556 321 592 321 645 C321 697 281 732 228 732 C175 732 135 697 135 645 C135 592 175 556 228 556 L228 556 Z " />
<glyph glyph-name="Uhungarumlaut" unicode="&#x170;" horiz-adv-x="485" d="M15 181 C15 76 72 -13 226 -13 L258 -13 C400 -13 470 80 470 181 L470 744 L264 744 L264 204 C264 184 257 174 243 174 C228 174 221 184 221 204 L221 744 L15 744 L15 181 Z M107 764 L233 764 L267 895 L138 895 L107 764 Z M255 764 L381 764 L418 895 L289 895 L255 764 Z " />
<glyph glyph-name="uhungarumlaut" unicode="&#x171;" horiz-adv-x="456" d="M442 538 L248 538 L248 163 C248 148 245 137 230 137 C215 137 210 149 210 162 L210 538 L13 538 L13 103 C13 63 38 -6 115 -6 L121 -6 C181 -6 221 32 250 72 L250 0 L442 0 L442 538 Z M94 558 L219 558 L254 715 L128 715 L94 558 Z M240 558 L365 558 L401 715 L275 715 L240 558 Z " />
<glyph glyph-name="Uogonek" unicode="&#x172;" horiz-adv-x="485" d="M206 -111 L206 -122 C206 -162 241 -188 296 -188 L378 -188 L378 -91 L365 -91 C344 -91 338 -83 338 -70 L338 -67 C338 -50 349 -31 378 0 C428 50 470 99 470 181 L470 744 L264 744 L264 204 C264 184 257 174 243 174 C228 174 221 184 221 204 L221 744 L15 744 L15 181 C15 76 72 -13 226 -13 L258 -13 C266 -13 273 -12 281 -12 C231 -45 206 -78 206 -111 L206 -111 Z " />
<glyph glyph-name="uogonek" unicode="&#x173;" horiz-adv-x="456" d="M442 538 L248 538 L248 163 C248 148 245 137 230 137 C215 137 210 149 210 162 L210 538 L13 538 L13 103 C13 63 38 -6 115 -6 L121 -6 C181 -6 221 32 250 72 L250 0 L442 0 L442 538 Z M271 -122 C271 -162 306 -188 361 -188 L443 -188 L443 -91 L430 -91 C409 -91 403 -83 403 -70 L403 -67 C403 -50 411 -35 443 0 L361 0 C301 -41 271 -74 271 -111 L271 -122 Z " />
<glyph glyph-name="Wcircumflex" unicode="&#x174;" horiz-adv-x="690" d="M259 744 L227 321 L202 744 L-2 744 L94 0 L322 0 L345 365 L370 0 L596 0 L692 744 L501 744 L475 321 L444 744 L259 744 Z M423 895 L267 895 L191 764 L320 764 L344 810 L370 764 L500 764 L423 895 Z " />
<glyph glyph-name="wcircumflex" unicode="&#x175;" horiz-adv-x="642" d="M299 0 L322 246 L346 0 L556 0 L644 538 L457 538 L434 232 L410 538 L237 538 L212 232 L190 538 L-2 538 L87 0 L299 0 Z M400 715 L244 715 L170 558 L297 558 L321 625 L346 558 L475 558 L400 715 Z " />
<glyph glyph-name="Ycircumflex" unicode="&#x176;" horiz-adv-x="437" d="M442 744 L262 744 L229 521 L193 744 L-5 744 L124 268 L124 0 L323 0 L323 268 L442 744 Z M303 895 L147 895 L71 764 L200 764 L224 810 L250 764 L380 764 L303 895 Z " />
<glyph glyph-name="ycircumflex" unicode="&#x177;" horiz-adv-x="427" d="M110 36 C117 9 118 -4 118 -12 L118 -16 C117 -29 114 -33 101 -33 L40 -33 L40 -188 L207 -188 C239 -188 281 -173 297 -105 L430 538 L240 538 L220 266 L191 538 L-3 538 L110 36 Z M292 715 L136 715 L62 558 L189 558 L213 625 L238 558 L367 558 L292 715 Z " />
<glyph glyph-name="Ydieresis" unicode="&#x178;" horiz-adv-x="437" d="M442 744 L262 744 L229 521 L193 744 L-5 744 L124 268 L124 0 L323 0 L323 268 L442 744 Z M376 895 L238 895 L238 764 L376 764 L376 895 Z M216 895 L78 895 L78 764 L216 764 L216 895 Z " />
<glyph glyph-name="Zacute" unicode="&#x179;" horiz-adv-x="404" d="M15 744 L15 566 L164 566 L10 163 L10 0 L394 0 L394 180 L228 180 L387 581 L387 744 L15 744 Z M124 764 L275 764 L330 895 L175 895 L124 764 Z " />
<glyph glyph-name="zacute" unicode="&#x17a;" horiz-adv-x="353" d="M13 538 L13 390 L131 390 L8 136 L8 0 L344 0 L344 157 L223 157 L340 401 L340 538 L13 538 Z M102 558 L249 558 L306 715 L154 715 L102 558 Z " />
<glyph glyph-name="Zdotaccent" unicode="&#x17b;" horiz-adv-x="404" d="M15 744 L15 566 L164 566 L10 163 L10 0 L394 0 L394 180 L228 180 L387 581 L387 744 L15 744 Z M299 921 L104 921 L104 764 L299 764 L299 921 Z " />
<glyph glyph-name="zdotaccent" unicode="&#x17c;" horiz-adv-x="353" d="M13 538 L13 390 L131 390 L8 136 L8 0 L344 0 L344 157 L223 157 L340 401 L340 538 L13 538 Z M276 715 L81 715 L81 558 L276 558 L276 715 Z " />
<glyph glyph-name="Zcaron" unicode="&#x17d;" horiz-adv-x="404" d="M15 744 L15 566 L164 566 L10 163 L10 0 L394 0 L394 180 L228 180 L387 581 L387 744 L15 744 Z M124 764 L280 764 L357 895 L227 895 L201 847 L177 895 L48 895 L124 764 Z " />
<glyph glyph-name="zcaron" unicode="&#x17e;" horiz-adv-x="353" d="M13 538 L13 390 L131 390 L8 136 L8 0 L344 0 L344 157 L223 157 L340 401 L340 538 L13 538 Z M100 558 L254 558 L329 715 L201 715 L176 649 L152 715 L26 715 L100 558 Z " />
<glyph glyph-name="uni0192" unicode="&#x192;" horiz-adv-x="328" d="M32 -188 L223 -188 L250 342 L318 342 L318 488 L257 488 L262 578 C263 594 266 598 281 598 L318 598 L318 744 L182 744 C124 744 74 713 71 637 L64 488 L6 488 L6 342 L57 342 L32 -188 Z " />
<glyph glyph-name="Aringacute" unicode="&#x1fa;" horiz-adv-x="450" d="M147 947 L298 947 L353 1078 L198 1078 L147 947 Z M260 0 L453 0 L345 744 L94 744 L-3 0 L169 0 L178 92 L251 92 L260 0 Z M214 455 L234 259 L195 259 L214 455 Z M182 847 C182 868 198 883 219 883 C240 883 256 868 256 847 C256 824 240 810 219 811 C198 810 182 824 182 847 L182 847 Z M219 935 C166 935 126 900 126 848 C126 795 166 759 219 759 C272 759 312 795 312 848 C312 900 272 935 219 935 L219 935 Z " />
<glyph glyph-name="aringacute" unicode="&#x1fb;" horiz-adv-x="440" d="M223 139 C223 128 220 118 208 118 C195 118 192 127 192 138 L192 198 C192 218 194 226 201 235 C208 243 216 249 223 252 L223 139 Z M8 105 C8 45 42 -8 106 -8 L109 -8 C168 -8 207 32 225 61 C225 26 242 0 271 0 L436 0 L436 149 L422 149 C415 149 411 152 411 159 L411 414 C411 513 338 550 217 550 L195 550 C86 550 15 508 15 413 L15 367 L188 367 L188 413 C188 425 194 431 205 431 L207 431 C218 431 223 425 223 413 L223 385 C223 372 221 371 210 366 C194 358 119 332 88 319 C37 296 8 261 8 198 L8 105 Z M205 614 C184 613 168 627 168 650 C168 671 184 686 205 686 C226 686 242 671 242 650 C242 627 226 613 205 614 L205 614 Z M205 562 C258 562 298 598 298 651 C298 703 258 738 205 738 C152 738 112 703 112 651 C112 598 152 562 205 562 L205 562 Z M135 750 L282 750 L339 907 L187 907 L135 750 Z " />
<glyph glyph-name="AEacute" unicode="&#x1fc;" horiz-adv-x="593" d="M583 0 L583 181 L457 181 L457 293 L552 293 L552 476 L457 476 L457 565 L578 565 L578 744 L134 744 L-6 0 L185 0 L199 102 L261 102 L261 0 L583 0 Z M223 269 L261 528 L261 269 L223 269 Z M273 764 L424 764 L479 895 L324 895 L273 764 Z " />
<glyph glyph-name="aeacute" unicode="&#x1fd;" horiz-adv-x="644" d="M247 67 C266 32 308 -13 413 -13 L451 -13 C566 -13 633 53 633 164 L633 213 L451 213 L451 141 C451 125 448 115 432 115 C420 115 414 121 414 141 L414 249 L633 249 L633 365 C633 501 553 550 443 550 L429 550 C369 550 338 530 326 519 C314 530 280 550 211 550 L195 550 C86 550 15 508 15 413 L15 358 L188 358 L188 413 C188 425 194 431 205 431 L207 431 C218 431 223 425 223 413 L223 376 C223 363 221 362 210 357 C194 349 119 326 88 310 C37 286 8 252 8 189 L8 106 C8 47 42 -8 110 -8 L113 -8 C178 -8 223 36 247 67 L247 67 Z M223 139 C223 128 220 118 208 118 C195 118 192 127 192 138 L192 191 C192 211 194 219 201 228 C208 236 216 242 223 245 L223 139 Z M414 406 C414 429 417 437 432 437 C449 437 451 429 451 406 L451 351 L414 351 L414 406 Z M252 558 L399 558 L456 715 L304 715 L252 558 Z " />
<glyph glyph-name="Oslashacute" unicode="&#x1fe;" horiz-adv-x="480" d="M164 770 L315 770 L368 895 L213 895 L164 770 Z M467 524 C467 584 455 628 435 663 L476 744 L383 744 L372 723 C343 743 305 755 254 755 L226 755 C77 755 13 666 13 523 L13 214 C13 161 24 120 43 87 L-1 0 L91 0 L104 24 C133 1 175 -11 226 -11 L254 -11 C381 -11 467 66 467 214 L467 524 Z M240 163 C223 163 215 174 215 196 L215 237 L266 360 L266 196 C266 174 257 163 240 163 L240 163 Z M240 583 C257 583 266 571 266 547 L266 523 L215 400 L215 547 C215 574 221 583 240 583 L240 583 Z " />
<glyph glyph-name="oslashacute" unicode="&#x1ff;" horiz-adv-x="444" d="M146 565 L293 565 L348 715 L196 715 L146 565 Z M11 192 C11 139 22 95 43 62 L-1 0 L85 0 L97 15 C126 -2 165 -13 218 -13 L223 -13 C356 -13 432 49 432 192 L432 345 C432 398 418 442 394 475 L442 538 L354 538 L341 521 C312 540 274 551 226 551 L217 551 C85 551 11 489 11 345 L11 192 L11 192 Z M221 130 C204 130 200 141 200 161 L200 177 L243 255 L243 161 C243 141 238 130 221 130 L221 130 Z M243 367 L200 289 L200 379 C200 394 201 412 221 412 C242 412 243 394 243 379 L243 367 Z " />
<glyph glyph-name="uni0218" unicode="&#x218;" horiz-adv-x="467" d="M214 755 C74 755 14 681 14 579 L14 541 C14 458 44 397 116 346 L211 279 C243 255 246 241 246 209 L246 182 C246 161 241 149 225 149 C208 149 204 161 204 180 L204 267 L8 267 L8 164 C8 47 73 -11 204 -11 L251 -11 C397 -11 459 75 459 194 L459 233 C459 332 426 383 342 442 L247 509 C223 526 217 539 217 563 L217 585 C217 602 224 610 237 610 C250 610 257 602 257 585 L257 519 L450 519 L450 596 C450 684 404 755 261 755 L214 755 Z M288 -226 C296 -207 312 -162 312 -111 L312 -26 L160 -26 L160 -152 L222 -152 C221 -175 217 -199 206 -226 L288 -226 Z " />
<glyph glyph-name="uni0219" unicode="&#x219;" horiz-adv-x="402" d="M386 429 C386 521 322 551 225 551 L181 551 C69 551 11 502 11 406 L11 387 C11 332 26 279 104 236 L188 191 C205 182 212 172 212 152 L212 132 C212 118 207 111 196 111 L195 111 C184 111 178 118 178 132 L178 185 L6 185 L6 124 C6 25 72 -13 172 -13 L219 -13 C328 -13 396 39 396 146 L396 164 C396 231 377 281 298 324 L209 372 C190 383 187 388 187 403 L187 421 C187 434 193 441 204 441 C216 441 219 434 219 421 L219 379 L386 379 L386 429 L386 429 Z M252 -227 C260 -208 276 -163 276 -112 L276 -27 L124 -27 L124 -153 L186 -153 C185 -176 181 -200 170 -227 L252 -227 Z " />
<glyph glyph-name="uni021A" unicode="&#x21a;" horiz-adv-x="399" d="M10 744 L10 565 L100 565 L100 0 L299 0 L299 565 L389 565 L389 744 L10 744 Z M252 -220 C260 -201 276 -156 276 -105 L276 -20 L124 -20 L124 -146 L186 -146 C185 -169 181 -193 170 -220 L252 -220 Z " />
<glyph glyph-name="uni021B" unicode="&#x21b;" horiz-adv-x="328" d="M318 0 L318 156 L279 156 C264 156 262 161 262 174 L262 385 L318 385 L318 538 L262 538 L262 717 L67 717 L67 538 L7 538 L7 385 L67 385 L67 77 C67 21 104 0 135 0 L318 0 Z M258 -220 C266 -201 282 -156 282 -105 L282 -20 L130 -20 L130 -146 L192 -146 C191 -169 187 -193 176 -220 L258 -220 Z " />
<glyph glyph-name="uni0237" unicode="&#x237;" horiz-adv-x="221" d="M-41 -24 L-41 -188 L123 -188 C167 -188 208 -159 208 -98 L208 538 L13 538 L13 -6 C13 -21 8 -24 -3 -24 L-41 -24 Z " />
<glyph glyph-name="circumflex" unicode="&#x2c6;" horiz-adv-x="342" d="M249 715 L93 715 L19 558 L146 558 L170 625 L195 558 L324 558 L249 715 Z " />
<glyph glyph-name="caron" unicode="&#x2c7;" horiz-adv-x="342" d="M94 558 L248 558 L323 715 L195 715 L170 649 L146 715 L20 715 L94 558 Z " />
<glyph glyph-name="breve" unicode="&#x2d8;" horiz-adv-x="342" d="M173 555 C258 555 309 604 309 685 L309 699 L196 699 L196 691 C196 666 188 654 171 654 L170 654 C154 654 146 666 146 691 L146 699 L32 699 L32 685 C32 604 77 555 169 555 L173 555 L173 555 Z " />
<glyph glyph-name="dotaccent" unicode="&#x2d9;" horiz-adv-x="342" d="M268 715 L73 715 L73 558 L268 558 L268 715 Z " />
<glyph glyph-name="ring" unicode="&#x2da;" horiz-adv-x="342" d="M171 608 C150 607 134 621 134 644 C134 665 150 680 171 680 C192 680 208 665 208 644 C208 621 192 607 171 608 L171 608 Z M171 556 C224 556 264 592 264 645 C264 697 224 732 171 732 C118 732 78 697 78 645 C78 592 118 556 171 556 L171 556 Z " />
<glyph glyph-name="ogonek" unicode="&#x2db;" horiz-adv-x="342" d="M85 -122 C85 -162 120 -188 175 -188 L257 -188 L257 -91 L244 -91 C223 -91 217 -83 217 -70 L217 -67 C217 -50 225 -35 257 0 L175 0 C115 -41 85 -74 85 -111 L85 -122 Z " />
<glyph glyph-name="tilde" unicode="&#x2dc;" horiz-adv-x="342" d="M211 708 L211 682 C211 674 209 670 204 670 C197 670 185 679 170 686 C139 701 123 705 104 705 L101 705 C53 705 31 674 31 634 L31 556 L132 556 L132 582 C132 590 134 594 139 594 C146 594 156 587 171 579 C199 564 219 559 238 559 L242 559 C290 559 311 590 311 630 L311 708 L211 708 Z " />
<glyph glyph-name="hungarumlaut" unicode="&#x2dd;" horiz-adv-x="342" d="M18 558 L143 558 L178 715 L52 715 L18 558 Z M164 558 L289 558 L325 715 L199 715 L164 558 Z " />
<glyph glyph-name="Wgrave" unicode="&#x1e80;" horiz-adv-x="690" d="M259 744 L227 321 L202 744 L-2 744 L94 0 L322 0 L345 365 L370 0 L596 0 L692 744 L501 744 L475 321 L444 744 L259 744 Z M378 895 L222 895 L275 764 L426 764 L378 895 Z " />
<glyph glyph-name="wgrave" unicode="&#x1e81;" horiz-adv-x="642" d="M299 0 L322 246 L346 0 L556 0 L644 538 L457 538 L434 232 L410 538 L237 538 L212 232 L190 538 L-2 538 L87 0 L299 0 Z M345 715 L193 715 L249 558 L396 558 L345 715 Z " />
<glyph glyph-name="Wacute" unicode="&#x1e82;" horiz-adv-x="690" d="M259 744 L227 321 L202 744 L-2 744 L94 0 L322 0 L345 365 L370 0 L596 0 L692 744 L501 744 L475 321 L444 744 L259 744 Z M274 764 L425 764 L480 895 L325 895 L274 764 Z " />
<glyph glyph-name="wacute" unicode="&#x1e83;" horiz-adv-x="642" d="M299 0 L322 246 L346 0 L556 0 L644 538 L457 538 L434 232 L410 538 L237 538 L212 232 L190 538 L-2 538 L87 0 L299 0 Z M249 558 L396 558 L453 715 L301 715 L249 558 Z " />
<glyph glyph-name="Wdieresis" unicode="&#x1e84;" horiz-adv-x="690" d="M259 744 L227 321 L202 744 L-2 744 L94 0 L322 0 L345 365 L370 0 L596 0 L692 744 L501 744 L475 321 L444 744 L259 744 Z M495 895 L357 895 L357 764 L495 764 L495 895 Z M335 895 L197 895 L197 764 L335 764 L335 895 Z " />
<glyph glyph-name="wdieresis" unicode="&#x1e85;" horiz-adv-x="642" d="M299 0 L322 246 L346 0 L556 0 L644 538 L457 538 L434 232 L410 538 L237 538 L212 232 L190 538 L-2 538 L87 0 L299 0 Z M311 691 L173 691 L173 558 L311 558 L311 691 Z M471 691 L333 691 L333 558 L471 558 L471 691 Z " />
<glyph glyph-name="Ygrave" unicode="&#x1ef2;" horiz-adv-x="437" d="M442 744 L262 744 L229 521 L193 744 L-5 744 L124 268 L124 0 L323 0 L323 268 L442 744 Z M257 895 L101 895 L154 764 L305 764 L257 895 Z " />
<glyph glyph-name="ygrave" unicode="&#x1ef3;" horiz-adv-x="427" d="M110 36 C117 9 118 -4 118 -12 L118 -16 C117 -29 114 -33 101 -33 L40 -33 L40 -188 L207 -188 C239 -188 281 -173 297 -105 L430 538 L240 538 L220 266 L191 538 L-3 538 L110 36 Z M241 715 L89 715 L145 558 L292 558 L241 715 Z " />
<glyph glyph-name="uni2009" unicode="&#x2009;" horiz-adv-x="5" d="" />
<glyph glyph-name="endash" unicode="&#x2013;" horiz-adv-x="438" d="M13 359 L13 242 L425 242 L425 359 L13 359 Z " />
<glyph glyph-name="emdash" unicode="&#x2014;" horiz-adv-x="665" d="M13 359 L13 242 L652 242 L652 359 L13 359 Z " />
<glyph glyph-name="quoteleft" unicode="&#x2018;" horiz-adv-x="179" d="M47 744 C35 722 13 664 13 606 L13 493 L166 493 L166 645 L110 645 C111 677 126 721 137 744 L47 744 Z " />
<glyph glyph-name="quoteright" unicode="&#x2019;" horiz-adv-x="179" d="M132 493 C143 517 166 572 166 631 L166 744 L13 744 L13 592 L69 592 C68 560 53 516 42 493 L132 493 Z " />
<glyph glyph-name="quotesinglbase" unicode="&#x201a;" horiz-adv-x="179" d="M132 -99 C143 -75 166 -20 166 39 L166 152 L13 152 L13 0 L69 0 C68 -32 53 -76 42 -99 L132 -99 L132 -99 Z " />
<glyph glyph-name="quotedblleft" unicode="&#x201c;" horiz-adv-x="346" d="M47 744 C35 722 13 664 13 606 L13 493 L166 493 L166 645 L110 645 C111 677 126 721 137 744 L47 744 Z M214 744 C202 722 180 664 180 606 L180 493 L333 493 L333 645 L277 645 C278 677 293 721 304 744 L214 744 Z " />
<glyph glyph-name="quotedblright" unicode="&#x201d;" horiz-adv-x="346" d="M132 493 C143 517 166 572 166 631 L166 744 L13 744 L13 592 L69 592 C68 560 53 516 42 493 L132 493 Z M299 493 C310 517 333 572 333 631 L333 744 L180 744 L180 592 L236 592 C235 560 220 516 209 493 L299 493 Z " />
<glyph glyph-name="quotedblbase" unicode="&#x201e;" horiz-adv-x="346" d="M132 -99 C143 -75 166 -20 166 39 L166 152 L13 152 L13 0 L69 0 C68 -32 53 -76 42 -99 L132 -99 L132 -99 Z M299 -99 C310 -75 333 -20 333 39 L333 152 L180 152 L180 0 L236 0 C235 -32 220 -76 209 -99 L299 -99 L299 -99 Z " />
<glyph glyph-name="dagger" unicode="&#x2020;" horiz-adv-x="337" d="M73 0 L264 0 L264 447 L327 447 L327 602 L264 602 L264 744 L73 744 L73 602 L10 602 L10 447 L73 447 L73 0 Z " />
<glyph glyph-name="daggerdbl" unicode="&#x2021;" horiz-adv-x="337" d="M73 142 L73 0 L264 0 L264 142 L327 142 L327 297 L264 297 L264 447 L327 447 L327 602 L264 602 L264 744 L73 744 L73 602 L10 602 L10 447 L73 447 L73 297 L10 297 L10 142 L73 142 Z " />
<glyph glyph-name="bullet" unicode="&#x2022;" horiz-adv-x="298" d="M149 190 C232 190 291 248 291 330 C291 410 232 469 149 469 C66 469 7 410 7 330 C7 248 66 190 149 190 L149 190 Z " />
<glyph glyph-name="ellipsis" unicode="&#x2026;" horiz-adv-x="578" d="M398 180 L398 0 L565 0 L565 180 L398 180 Z M206 0 L371 0 L371 180 L206 180 L206 0 Z M179 0 L179 180 L13 180 L13 0 L179 0 Z " />
<glyph glyph-name="perthousand" unicode="&#x2030;" horiz-adv-x="901" d="M761 -8 C841 -8 891 35 891 122 L891 215 C891 303 847 345 763 345 L742 345 C665 345 616 303 616 215 L616 122 C616 35 658 -8 743 -8 L761 -8 Z M10 530 C10 443 52 400 137 400 L155 400 C235 400 285 443 285 530 L285 623 C285 711 241 753 157 753 L136 753 C59 753 10 711 10 623 L10 530 Z M471 -8 C551 -8 601 35 601 122 L601 215 C601 303 557 345 473 345 L452 345 C375 345 326 303 326 215 L326 122 C326 35 368 -8 453 -8 L471 -8 Z M409 744 L88 0 L203 0 L522 744 L409 744 Z M754 82 C743 82 742 87 742 96 L742 242 C742 251 743 257 754 257 C761 257 765 252 765 242 L765 96 C765 87 761 82 754 82 L754 82 Z M464 82 C453 82 452 87 452 96 L452 242 C452 251 453 257 464 257 C471 257 475 252 475 242 L475 96 C475 87 471 82 464 82 L464 82 Z M159 504 C159 495 155 490 148 490 C137 490 136 495 136 504 L136 650 C136 659 137 665 148 665 C155 665 159 660 159 650 L159 504 Z " />
<glyph glyph-name="uni2032" unicode="&#x2032;" horiz-adv-x="152" d="M150 744 L26 744 L2 515 L127 515 L150 744 Z " />
<glyph glyph-name="uni2033" unicode="&#x2033;" horiz-adv-x="287" d="M147 744 L25 744 L2 515 L124 515 L147 744 Z M285 744 L163 744 L139 515 L262 515 L285 744 Z " />
<glyph glyph-name="guilsinglleft" unicode="&#x2039;" horiz-adv-x="210" d="M156 287 L204 460 L57 460 L9 323 L9 250 L57 110 L203 110 L156 287 Z " />
<glyph glyph-name="guilsinglright" unicode="&#x203a;" horiz-adv-x="211" d="M55 287 L7 110 L153 110 L202 249 L202 323 L153 460 L6 460 L55 287 Z " />
<glyph glyph-name="fraction" unicode="&#x2044;" horiz-adv-x="440" d="M328 744 L2 0 L110 0 L438 744 L328 744 Z " />
<glyph glyph-name="Euro" unicode="&#x20ac;" horiz-adv-x="515" d="M5 283 L60 283 L60 208 C60 69 120 -11 275 -11 L303 -11 C447 -11 503 84 503 183 L503 264 L308 264 L308 190 C308 170 306 157 287 157 C271 157 266 169 266 190 L266 283 L393 283 L393 379 L266 379 L266 398 L393 398 L393 492 L266 492 L266 562 C266 582 273 592 286 592 C305 592 308 581 308 562 L308 511 L503 511 L503 570 C503 681 441 755 305 755 L268 755 C121 755 60 665 60 541 L60 492 L5 492 L5 398 L60 398 L60 379 L5 379 L5 283 Z " />
<glyph glyph-name="trademark" unicode="&#x2122;" horiz-adv-x="435" d="M182 456 L260 456 L260 610 L282 456 L320 456 L344 610 L344 456 L422 456 L422 744 L317 744 L306 626 L293 744 L182 744 L182 456 Z M171 744 L7 744 L7 663 L39 663 L39 456 L140 456 L140 663 L171 663 L171 744 Z " />
<glyph glyph-name="onethird" unicode="&#x2153;" horiz-adv-x="521" d="M48 616 L48 401 L169 401 L169 744 L60 744 C59 719 44 705 5 705 L5 616 L48 616 Z M335 744 L9 0 L117 0 L445 744 L335 744 Z M370 231 L370 263 C370 269 373 272 378 272 C384 272 387 269 387 263 L387 231 C387 224 384 221 377 221 L328 221 L328 138 L380 138 C386 138 389 134 389 127 L389 89 C389 82 386 79 381 79 C375 79 372 82 372 89 L372 126 L257 126 L257 84 C257 35 280 -8 372 -8 L389 -8 C477 -8 515 33 515 98 L515 125 C515 172 485 191 467 196 C482 201 506 219 506 254 L506 266 C506 325 461 349 386 349 L371 349 C291 349 259 311 259 264 L259 231 L370 231 Z " />
<glyph glyph-name="twothirds" unicode="&#x2154;" horiz-adv-x="617" d="M266 401 L266 524 L168 524 L168 487 L116 487 C116 495 115 496 176 536 C236 575 262 599 262 647 L262 657 C262 714 230 750 141 750 L123 750 C36 750 10 702 10 652 L10 623 L121 623 L121 659 C121 667 125 671 132 671 C137 671 140 667 140 659 L140 645 C140 632 135 623 96 589 C24 517 6 502 6 447 L6 401 L266 401 Z M431 744 L105 0 L213 0 L541 744 L431 744 Z M467 231 L467 263 C467 269 470 272 475 272 C481 272 484 269 484 263 L484 231 C484 224 481 221 474 221 L425 221 L425 138 L477 138 C483 138 486 134 486 127 L486 89 C486 82 483 79 478 79 C472 79 469 82 469 89 L469 126 L354 126 L354 84 C354 35 377 -8 469 -8 L486 -8 C574 -8 612 33 612 98 L612 125 C612 172 582 191 564 196 C579 201 603 219 603 254 L603 266 C603 325 558 349 483 349 L468 349 C388 349 356 311 356 264 L356 231 L467 231 Z " />
<glyph glyph-name="oneeighth" unicode="&#x215b;" horiz-adv-x="517" d="M48 616 L48 401 L169 401 L169 744 L60 744 C59 719 44 705 5 705 L5 616 L48 616 Z M335 744 L9 0 L117 0 L445 744 L335 744 Z M506 260 C506 313 469 349 389 349 L373 349 C292 349 258 313 258 260 L258 245 C258 210 278 193 294 182 C275 174 253 152 253 117 L253 88 C253 27 292 -7 373 -7 L389 -7 C468 -7 510 27 510 88 L510 116 C510 151 487 174 468 182 C483 190 506 206 506 245 L506 260 Z M391 92 C391 85 392 78 381 78 C374 78 371 83 371 92 L371 129 C371 140 374 145 381 145 C392 145 391 140 391 129 L391 92 Z M391 231 C391 220 392 215 381 215 C373 215 372 220 372 231 L372 257 C372 266 373 271 381 271 C392 271 391 265 391 257 L391 231 Z " />
<glyph glyph-name="threeeighths" unicode="&#x215c;" horiz-adv-x="584" d="M403 744 L77 0 L185 0 L513 744 L403 744 Z M118 632 L118 664 C118 670 121 673 126 673 C132 673 135 670 135 664 L135 632 C135 625 132 622 125 622 L76 622 L76 539 L128 539 C134 539 137 535 137 528 L137 490 C137 483 134 480 129 480 C123 480 120 483 120 490 L120 527 L5 527 L5 485 C5 436 28 393 120 393 L137 393 C225 393 263 434 263 499 L263 526 C263 573 233 592 215 597 C230 602 254 620 254 655 L254 667 C254 726 209 750 134 750 L119 750 C39 750 7 712 7 665 L7 632 L118 632 Z M573 260 C573 313 536 349 456 349 L440 349 C359 349 325 313 325 260 L325 245 C325 210 345 193 361 182 C342 174 320 152 320 117 L320 88 C320 27 359 -7 440 -7 L456 -7 C535 -7 577 27 577 88 L577 116 C577 151 554 174 535 182 C550 190 573 206 573 245 L573 260 Z M458 92 C458 85 459 78 448 78 C441 78 438 83 438 92 L438 129 C438 140 441 145 448 145 C459 145 458 140 458 129 L458 92 Z M458 231 C458 220 459 215 448 215 C440 215 439 220 439 231 L439 257 C439 266 440 271 448 271 C459 271 458 265 458 257 L458 231 Z " />
<glyph glyph-name="fiveeighths" unicode="&#x215d;" horiz-adv-x="583" d="M402 744 L76 0 L184 0 L512 744 L402 744 Z M122 545 L122 557 C122 565 125 569 131 569 C136 569 139 565 139 557 L139 487 C139 480 136 476 131 476 C125 476 122 480 122 487 L122 523 L5 523 L5 485 C5 437 31 394 123 394 L139 394 C227 394 264 438 264 497 L264 561 C264 608 242 644 191 644 L184 644 C153 644 134 625 119 609 L119 658 L250 658 L250 744 L12 744 L12 545 L122 545 Z M572 260 C572 313 535 349 455 349 L439 349 C358 349 324 313 324 260 L324 245 C324 210 344 193 360 182 C341 174 319 152 319 117 L319 88 C319 27 358 -7 439 -7 L455 -7 C534 -7 576 27 576 88 L576 116 C576 151 553 174 534 182 C549 190 572 206 572 245 L572 260 Z M457 92 C457 85 458 78 447 78 C440 78 437 83 437 92 L437 129 C437 140 440 145 447 145 C458 145 457 140 457 129 L457 92 Z M457 231 C457 220 458 215 447 215 C439 215 438 220 438 231 L438 257 C438 266 439 271 447 271 C458 271 457 265 457 257 L457 231 Z " />
<glyph glyph-name="seveneighths" unicode="&#x215e;" horiz-adv-x="546" d="M6 744 L6 614 L108 614 L108 669 L142 669 C142 656 140 650 95 554 C63 487 61 470 61 432 L61 401 L200 401 L200 434 C200 471 200 507 211 554 C231 638 242 675 242 692 L242 744 L6 744 Z M364 744 L38 0 L146 0 L474 744 L364 744 Z M536 260 C536 313 499 349 419 349 L403 349 C322 349 288 313 288 260 L288 245 C288 210 308 193 324 182 C305 174 283 152 283 117 L283 88 C283 27 322 -7 403 -7 L419 -7 C498 -7 540 27 540 88 L540 116 C540 151 517 174 498 182 C513 190 536 206 536 245 L536 260 Z M421 92 C421 85 422 78 411 78 C404 78 401 83 401 92 L401 129 C401 140 404 145 411 145 C422 145 421 140 421 129 L421 92 Z M421 231 C421 220 422 215 411 215 C403 215 402 220 402 231 L402 257 C402 266 403 271 411 271 C422 271 421 265 421 257 L421 231 Z " />
<glyph glyph-name="minus" unicode="&#x2212;" horiz-adv-x="338" d="M12 356 L12 250 L326 250 L326 356 L12 356 Z " />
<glyph glyph-name="uni24C5" unicode="&#x24c5;" horiz-adv-x="602" d="M309 -11 C460 -11 589 72 589 269 L589 477 C589 669 475 755 312 755 L296 755 C124 755 13 662 13 477 L13 269 C13 70 123 -11 295 -11 L309 -11 Z M297 64 C161 64 104 135 104 290 L104 454 C104 614 165 680 297 680 L311 680 C444 680 500 607 500 454 L500 290 C500 138 441 64 309 64 L297 64 L297 64 Z M365 299 C424 299 466 336 466 412 L466 513 C466 593 424 624 364 624 L160 624 L160 122 L301 122 L301 299 L365 299 Z M301 525 L314 525 C325 525 326 518 326 506 L326 423 C326 410 322 403 314 403 L301 403 L301 525 Z " />
<glyph glyph-name="E.alt" unicode="&#xe484;" horiz-adv-x="371" d="M15 744 L15 0 L360 0 L360 181 L215 181 L215 293 L353 293 L353 476 L215 476 L215 565 L357 565 L357 744 L15 744 Z " />
<glyph glyph-name="F.alt" unicode="&#xe485;" horiz-adv-x="367" d="M14 744 L14 0 L214 0 L214 293 L352 293 L352 476 L214 476 L214 565 L355 565 L355 744 L14 744 Z " />
<glyph glyph-name="J.alt" unicode="&#xe489;" horiz-adv-x="313" d="M10 0 L164 0 C251 0 299 57 299 149 L299 744 L92 744 L92 215 C92 195 85 183 64 183 L10 183 L10 0 Z " />
<glyph glyph-name="a.alt" unicode="&#xe4c0;" horiz-adv-x="425" d="M411 414 C411 513 338 550 217 550 L195 550 C86 550 15 508 15 413 L15 367 L188 367 L188 413 C188 425 194 431 205 431 L207 431 C218 431 223 425 223 413 L223 385 C223 372 221 371 210 366 C194 358 119 332 88 319 C37 296 8 261 8 198 L8 105 C8 45 42 -8 106 -8 L109 -8 C168 -8 206 32 225 61 C225 22 231 7 235 0 L421 0 L421 5 C413 26 411 40 411 136 L411 414 Z M223 139 C223 128 220 118 208 118 C195 118 192 127 192 138 L192 198 C192 218 194 226 201 235 C208 243 216 249 223 252 L223 139 Z " />
<glyph glyph-name="r.alt" unicode="&#xe4d1;" horiz-adv-x="352" d="M206 538 L13 538 L13 0 L208 0 L208 281 C208 312 226 329 273 329 L281 329 C316 329 330 325 341 322 L341 538 C337 539 322 542 309 542 L303 542 C258 542 226 505 206 445 L206 538 Z " />
<glyph glyph-name="f_f" unicode="&#xfb00;" horiz-adv-x="592" d="M314 744 L169 744 C119 744 67 712 67 641 L67 538 L6 538 L6 385 L67 385 L67 0 L262 0 L262 385 L329 385 L329 0 L525 0 L525 385 L583 385 L583 538 L525 538 L525 580 C525 592 527 598 542 598 L583 598 L583 744 L432 744 C381 744 329 712 329 641 L329 538 L262 538 L262 580 C262 592 264 598 279 598 L314 598 L314 744 Z " />
<glyph glyph-name="f_i" unicode="&#xfb01;" horiz-adv-x="543" d="M530 538 L335 538 L335 0 L530 0 L530 538 Z M530 715 L335 715 L335 558 L530 558 L530 715 Z M318 744 L169 744 C119 744 67 712 67 641 L67 538 L6 538 L6 385 L67 385 L67 0 L262 0 L262 385 L317 385 L317 538 L262 538 L262 580 C262 592 264 598 279 598 L318 598 L318 744 Z " />
<glyph glyph-name="f_l" unicode="&#xfb02;" horiz-adv-x="543" d="M318 744 L169 744 C119 744 67 712 67 641 L67 538 L6 538 L6 385 L67 385 L67 0 L262 0 L262 385 L317 385 L317 538 L262 538 L262 580 C262 592 264 598 279 598 L318 598 L318 744 Z M530 744 L335 744 L335 0 L530 0 L530 744 Z " />
</font>
</svg>
