<?xml version="1.0" encoding="UTF-8"?>
<svg xmlns="http://www.w3.org/2000/svg" xmlns:xlink="http://www.w3.org/1999/xlink" version="1.2" >
<font id="Druk Bold">
<font-face  font-family="Druk" units-per-em="1000" ascent="812" descent="-188" font-style="normal" font-weight="700" font-stretch="normal" cap-height="744" x-height="538" underline-position="22" underline-thickness="84" />
<missing-glyph  horiz-adv-x="103" d="" />
<glyph glyph-name="NULL" d="" />
<glyph glyph-name="nonmarkingreturn" unicode="&#xd;" horiz-adv-x="103" d="" />
<glyph glyph-name="space" unicode="&#x20;" horiz-adv-x="103" d="" />
<glyph glyph-name="exclam" unicode="&#x21;" horiz-adv-x="164" d="M141 144 L22 144 L22 0 L141 0 L141 144 Z M9 744 L56 167 L107 167 L154 744 L9 744 Z " />
<glyph glyph-name="quotedbl" unicode="&#x22;" horiz-adv-x="232" d="M106 744 L15 744 L15 553 L106 553 L106 744 Z M217 744 L126 744 L126 553 L217 553 L217 744 Z " />
<glyph glyph-name="numbersign" unicode="&#x23;" horiz-adv-x="372" d="M108 748 L90 538 L30 538 L21 440 L82 440 L74 346 L14 346 L5 248 L66 248 L45 0 L135 0 L156 248 L192 248 L171 0 L261 0 L282 248 L344 248 L351 346 L291 346 L299 440 L360 440 L367 538 L307 538 L326 748 L234 748 L216 538 L181 538 L199 748 L108 748 Z M172 440 L208 440 L200 346 L164 346 L172 440 Z " />
<glyph glyph-name="dollar" unicode="&#x24;" horiz-adv-x="356" d="M157 -72 L192 -72 L192 -11 C288 -8 346 54 346 158 L346 185 C346 287 322 319 258 389 L192 457 L192 645 C208 640 212 628 212 608 L212 506 L328 506 L328 607 C328 703 292 750 192 753 L192 812 L157 812 L157 753 C73 750 13 706 13 601 L13 578 C13 497 28 440 83 383 L157 307 L157 98 C141 103 133 118 133 143 L133 278 L10 278 L10 145 C10 44 59 -8 157 -11 L157 -72 Z M220 152 C220 121 211 102 192 96 L192 270 C213 243 220 224 220 181 L220 152 Z M136 607 C136 626 138 640 157 645 L157 496 C138 520 136 538 136 581 L136 607 Z " />
<glyph glyph-name="percent" unicode="&#x25;" horiz-adv-x="494" d="M265 102 C265 30 304 -5 364 -5 L384 -5 C445 -5 482 34 482 102 L482 230 C482 298 445 338 384 338 L364 338 C304 338 265 302 265 230 L265 102 Z M12 515 C12 443 51 407 111 407 L131 407 C192 407 229 447 229 515 L229 643 C229 711 192 750 131 750 L111 750 C51 750 12 715 12 643 L12 515 Z M346 744 L67 0 L150 0 L429 744 L346 744 Z M137 508 C137 495 131 488 120 488 C109 488 104 495 104 508 L104 651 C104 662 108 671 120 671 C133 671 137 662 137 651 L137 508 Z M373 75 C361 75 357 84 357 95 L357 238 C357 251 362 258 373 258 C384 258 390 251 390 238 L390 95 C390 84 386 75 373 75 L373 75 Z " />
<glyph glyph-name="ampersand" unicode="&#x26;" horiz-adv-x="453" d="M12 194 C12 61 83 -11 204 -11 L217 -11 C266 -11 298 3 318 22 C345 -1 377 -11 424 -18 C427 -11 433 16 440 43 C443 58 447 75 452 92 C429 96 410 101 391 116 C424 200 434 300 437 445 L325 445 C325 377 327 302 319 238 L237 418 C318 485 338 525 338 606 L338 619 C338 699 310 753 214 753 L192 753 C89 753 64 677 64 619 L64 591 C64 527 79 482 108 419 C49 375 12 321 12 230 L12 194 Z M225 99 C169 99 137 137 137 229 L137 255 C137 287 143 312 150 331 L260 106 C251 101 240 99 225 99 L225 99 Z M178 612 C178 644 184 655 204 655 C224 655 229 645 229 612 L229 597 C229 549 225 528 202 496 C183 539 178 558 178 596 L178 612 Z " />
<glyph glyph-name="quotesingle" unicode="&#x27;" horiz-adv-x="123" d="M108 744 L15 744 L15 553 L108 553 L108 744 Z " />
<glyph glyph-name="parenleft" unicode="&#x28;" horiz-adv-x="214" d="M27 344 C27 129 85 -32 139 -131 L217 -131 C180 -19 144 150 144 347 C144 539 177 707 214 808 L136 808 C80 699 27 555 27 344 L27 344 Z " />
<glyph glyph-name="parenright" unicode="&#x29;" horiz-adv-x="214" d="M70 347 C70 149 32 -19 -3 -131 L74 -131 C127 -30 187 131 187 344 C187 553 133 698 77 808 L0 808 C37 708 70 538 70 347 L70 347 Z " />
<glyph glyph-name="asterisk" unicode="&#x2a;" horiz-adv-x="237" d="M146 678 L154 744 L82 744 L90 678 L40 718 L4 657 L65 632 L5 607 L41 546 L91 587 L82 521 L154 521 L146 587 L197 546 L231 605 L171 632 L232 657 L196 718 L146 678 Z " />
<glyph glyph-name="plus" unicode="&#x2b;" horiz-adv-x="344" d="M123 134 L221 134 L221 255 L329 255 L329 346 L221 346 L221 468 L123 468 L123 346 L15 346 L15 255 L123 255 L123 134 Z " />
<glyph glyph-name="comma" unicode="&#x2c;" horiz-adv-x="149" d="M103 -95 C115 -70 134 -26 134 38 L134 144 L15 144 L15 0 L61 0 C60 -35 45 -74 36 -95 L103 -95 Z " />
<glyph glyph-name="hyphen" unicode="&#x2d;" horiz-adv-x="183" d="M15 359 L15 238 L168 238 L168 359 L15 359 Z " />
<glyph glyph-name="period" unicode="&#x2e;" horiz-adv-x="149" d="M134 144 L15 144 L15 0 L134 0 L134 144 Z " />
<glyph glyph-name="slash" unicode="&#x2f;" horiz-adv-x="219" d="M217 808 L123 808 L-8 -131 L87 -131 L217 808 Z " />
<glyph glyph-name="zero" unicode="0" horiz-adv-x="374" d="M356 564 C356 676 316 753 201 753 L171 753 C60 753 18 675 18 563 L18 165 C18 57 66 -11 170 -11 L200 -11 C300 -11 356 57 356 165 L356 564 Z M216 165 C216 138 210 122 185 122 C161 122 156 142 156 165 L156 577 C156 608 163 623 186 623 C210 623 216 608 216 577 L216 165 Z " />
<glyph glyph-name="one" unicode="1" horiz-adv-x="243" d="M87 547 L87 0 L220 0 L220 744 L109 744 C104 698 86 661 9 661 L9 547 L87 547 Z " />
<glyph glyph-name="two" unicode="2" horiz-adv-x="363" d="M177 632 C194 632 202 621 202 598 L202 553 C202 526 200 504 165 445 L101 339 C21 206 11 167 11 76 L11 0 L348 0 L348 256 L218 256 L218 129 L125 129 C125 145 118 159 203 271 C227 302 253 335 276 366 C339 448 341 488 341 568 L341 610 C341 706 286 753 190 753 L163 753 C62 753 27 683 27 614 L27 483 L152 483 L152 598 C152 622 158 632 177 632 L177 632 Z " />
<glyph glyph-name="three" unicode="3" horiz-adv-x="350" d="M143 515 L143 598 C143 625 151 632 168 632 C187 632 194 625 194 598 L194 496 C194 472 189 463 166 463 L104 463 L104 330 L173 330 C196 330 198 321 198 300 L198 155 C198 132 189 120 171 120 C152 120 143 132 143 155 L143 273 L13 273 L13 123 C13 55 48 -11 158 -11 L186 -11 C278 -11 334 47 334 143 L334 329 C334 374 316 402 279 414 C303 427 327 455 327 527 L327 610 C327 695 282 753 181 753 L153 753 C53 753 21 679 21 611 L21 515 L143 515 Z " />
<glyph glyph-name="four" unicode="4" horiz-adv-x="367" d="M161 293 L100 293 C121 349 145 425 161 474 L161 293 Z M7 166 L161 166 L161 0 L291 0 L291 166 L360 166 L360 293 L291 293 L291 749 L174 749 C137 640 47 388 7 279 L7 166 Z " />
<glyph glyph-name="five" unicode="5" horiz-adv-x="353" d="M153 331 L153 376 C153 392 154 412 174 412 C197 412 197 394 197 375 L197 150 C197 130 191 115 172 115 C152 115 147 129 147 150 L147 273 L14 273 L14 121 C14 64 44 -11 155 -11 L195 -11 C293 -11 336 59 336 134 L336 441 C336 487 314 538 253 538 L241 538 C200 538 170 503 150 468 L150 615 L327 615 L327 744 L22 744 L22 331 L153 331 Z " />
<glyph glyph-name="six" unicode="6" horiz-adv-x="372" d="M258 479 C207 479 175 435 156 413 L156 602 C156 617 162 631 181 631 C201 631 205 621 205 602 L205 519 L342 519 L342 631 C342 695 295 754 200 754 L172 754 C65 754 18 689 18 596 L18 135 C18 57 67 -10 174 -10 L204 -10 C304 -10 356 65 356 139 L356 385 C356 426 331 479 266 479 L258 479 Z M187 116 C160 116 156 135 156 155 L156 327 C156 351 166 363 187 363 C208 363 217 353 217 326 L217 155 C217 136 214 116 187 116 L187 116 Z " />
<glyph glyph-name="seven" unicode="7" horiz-adv-x="329" d="M13 744 L13 515 L135 515 L135 624 L214 624 C214 594 209 559 137 341 C91 202 83 134 83 76 L83 0 L243 0 L243 89 C243 146 252 253 275 382 C307 554 307 550 319 624 L319 744 L13 744 Z " />
<glyph glyph-name="eight" unicode="8" horiz-adv-x="363" d="M340 612 C340 691 295 753 191 753 L168 753 C60 753 23 683 23 614 L23 505 C23 453 47 421 75 406 C38 386 16 353 16 301 L16 144 C16 47 63 -11 167 -11 L195 -11 C299 -10 347 54 347 143 L347 301 C347 354 324 389 288 406 C313 421 340 453 340 505 L340 612 Z M209 149 C209 127 200 116 181 116 C162 116 154 130 154 149 L154 295 C154 322 161 332 181 332 C202 332 209 319 209 295 L209 149 Z M207 486 C207 465 199 455 182 455 C163 455 156 468 156 487 L156 604 C156 623 162 636 181 636 C198 636 207 625 207 604 L207 486 Z " />
<glyph glyph-name="nine" unicode="9" horiz-adv-x="372" d="M117 263 C164 263 198 307 215 329 L215 140 C215 125 211 111 192 111 C171 111 167 123 167 140 L167 223 L30 223 L30 105 C30 38 71 -11 176 -11 L206 -11 C310 -11 354 53 354 131 L354 611 C354 687 305 753 193 753 L163 753 C56 753 16 677 16 608 L16 376 C16 323 44 263 109 263 L117 263 Z M184 627 C212 627 215 608 215 587 L215 415 C215 390 205 378 184 378 C164 378 154 391 154 416 L154 587 C154 606 157 627 184 627 L184 627 Z " />
<glyph glyph-name="colon" unicode="&#x3a;" horiz-adv-x="153" d="M136 144 L17 144 L17 0 L136 0 L136 144 Z M136 437 L17 437 L17 295 L136 295 L136 437 Z " />
<glyph glyph-name="semicolon" unicode="&#x3b;" horiz-adv-x="153" d="M105 -96 C117 -71 136 -26 136 38 L136 144 L17 144 L17 0 L63 0 C62 -35 47 -75 38 -96 L105 -96 Z M136 437 L17 437 L17 295 L136 295 L136 437 Z " />
<glyph glyph-name="less" unicode="&#x3c;" horiz-adv-x="290" d="M12 257 L275 152 L275 247 L120 300 L275 355 L275 449 L12 344 L12 257 Z " />
<glyph glyph-name="equal" unicode="&#x3d;" horiz-adv-x="335" d="M17 287 L17 204 L318 204 L318 287 L17 287 Z M17 398 L17 314 L318 314 L318 398 L17 398 Z " />
<glyph glyph-name="greater" unicode="&#x3e;" horiz-adv-x="289" d="M15 355 L169 301 L15 247 L15 152 L277 257 L277 344 L15 449 L15 355 Z " />
<glyph glyph-name="question" unicode="&#x3f;" horiz-adv-x="333" d="M201 167 L201 259 C201 307 206 316 226 344 L275 411 C312 459 320 496 320 556 L320 608 C320 696 284 753 176 753 L149 753 C34 753 13 684 13 601 L13 483 L137 483 L137 597 C137 622 142 632 162 632 C181 632 187 624 187 597 L187 548 C187 515 185 494 166 463 L131 407 C102 362 97 343 97 295 L97 167 L201 167 Z M209 144 L90 144 L90 0 L209 0 L209 144 Z " />
<glyph glyph-name="at" unicode="&#x40;" horiz-adv-x="583" d="M457 25 C439 -1 386 -61 299 -61 L289 -61 C220 -61 105 -35 105 247 L105 354 C106 561 177 653 294 653 L312 653 C417 653 481 600 481 423 L481 318 C481 181 462 118 435 118 C423 118 422 125 422 136 L444 538 L321 538 L319 488 C299 519 274 542 243 542 L237 542 C189 542 163 497 160 446 L147 153 C144 76 187 38 225 38 L230 38 C265 38 296 58 321 105 C338 62 367 38 423 38 L430 38 C506 38 566 98 566 321 L566 425 C566 633 480 730 312 730 L294 730 C113 730 17 593 17 356 L17 245 C17 -103 178 -140 289 -140 L299 -140 C420 -140 486 -66 507 -34 L457 25 Z M303 166 C302 143 295 131 284 131 C269 131 267 140 268 165 L281 415 C282 436 284 448 299 448 C314 448 317 440 316 415 L303 166 Z " />
<glyph glyph-name="A" unicode="A" horiz-adv-x="349" d="M222 0 L351 0 L250 744 L92 744 L-2 0 L116 0 L128 125 L208 125 L222 0 Z M167 508 L195 253 L141 253 L167 508 Z " />
<glyph glyph-name="B" unicode="B" horiz-adv-x="376" d="M21 0 L240 0 C321 0 362 50 362 167 L362 291 C362 371 326 397 288 408 C315 416 351 451 351 512 L351 611 C351 710 311 744 222 744 L21 744 L21 0 Z M186 333 C217 333 225 319 225 288 L225 167 C225 124 214 118 191 118 L154 118 L154 333 L186 333 Z M186 630 C211 630 220 617 220 590 L220 497 C220 462 207 453 184 453 L154 453 L154 630 L186 630 Z " />
<glyph glyph-name="C" unicode="C" horiz-adv-x="372" d="M224 164 C224 137 215 119 191 119 C168 119 157 134 157 164 L157 584 C157 613 165 627 190 627 C215 627 224 612 224 584 L224 464 L356 464 L356 589 C356 674 330 753 202 753 L175 753 C58 753 18 674 18 584 L18 164 C18 71 47 -12 175 -12 L202 -12 C319 -12 356 72 356 160 L356 328 L224 328 L224 164 L224 164 Z " />
<glyph glyph-name="D" unicode="D" horiz-adv-x="374" d="M21 0 L210 0 C318 0 355 58 355 165 L355 585 C355 698 310 744 210 744 L21 744 L21 0 Z M154 626 L184 626 C209 626 219 612 219 576 L219 176 C219 140 211 124 180 124 L154 124 L154 626 Z " />
<glyph glyph-name="E" unicode="E" horiz-adv-x="315" d="M21 744 L21 0 L306 0 L306 134 L154 134 L154 317 L268 317 L268 451 L154 451 L154 613 L299 613 L299 744 L21 744 Z " />
<glyph glyph-name="F" unicode="F" horiz-adv-x="316" d="M21 0 L154 0 L154 318 L266 318 L266 452 L154 452 L154 614 L306 614 L306 744 L21 744 L21 0 Z " />
<glyph glyph-name="G" unicode="G" horiz-adv-x="378" d="M149 -10 C216 -10 245 46 259 71 C267 48 275 17 279 0 L360 0 L360 450 L183 450 L183 325 L232 325 L232 165 C232 134 219 119 193 119 C169 119 157 135 157 167 L157 581 C157 612 168 628 190 628 C217 628 224 612 224 581 L224 498 L354 498 L354 580 C354 669 332 753 200 753 L173 753 C57 753 18 670 18 579 L18 136 C18 56 62 -10 139 -10 L149 -10 Z " />
<glyph glyph-name="H" unicode="H" horiz-adv-x="378" d="M154 314 L224 314 L224 0 L357 0 L357 744 L224 744 L224 460 L154 460 L154 744 L21 744 L21 0 L154 0 L154 314 Z " />
<glyph glyph-name="I" unicode="I" horiz-adv-x="175" d="M154 744 L21 744 L21 0 L154 0 L154 744 Z " />
<glyph glyph-name="J" unicode="J" horiz-adv-x="354" d="M13 327 L13 137 C13 33 61 -8 149 -8 L193 -8 C281 -8 334 47 334 151 L334 744 L196 744 L196 155 C196 136 190 122 171 122 L167 122 C150 122 141 133 141 155 L141 327 L13 327 Z " />
<glyph glyph-name="K" unicode="K" horiz-adv-x="376" d="M154 315 L243 0 L383 0 L267 406 L372 744 L241 744 L154 458 L154 744 L21 744 L21 0 L154 0 L154 315 Z " />
<glyph glyph-name="L" unicode="L" horiz-adv-x="304" d="M21 744 L21 0 L295 0 L295 134 L154 134 L154 744 L21 744 Z " />
<glyph glyph-name="M" unicode="M" horiz-adv-x="461" d="M21 0 L137 0 L137 440 L204 0 L254 0 L320 440 L320 0 L440 0 L440 744 L287 744 L236 368 L185 744 L21 744 L21 0 Z " />
<glyph glyph-name="N" unicode="N" horiz-adv-x="376" d="M21 744 L21 0 L139 0 L139 408 L242 0 L355 0 L355 744 L237 744 L237 364 L146 744 L21 744 Z " />
<glyph glyph-name="O" unicode="O" horiz-adv-x="385" d="M367 564 C367 678 325 753 208 753 L178 753 C63 753 18 678 18 563 L18 170 C18 53 74 -11 179 -11 L209 -11 C309 -11 367 61 367 170 L367 564 Z M228 166 C228 143 221 122 194 122 C166 122 157 143 157 166 L157 574 C157 607 166 623 193 623 C216 623 228 607 228 574 L228 166 Z " />
<glyph glyph-name="P" unicode="P" horiz-adv-x="361" d="M217 298 C310 298 347 356 347 448 L347 597 C347 689 323 744 210 744 L21 744 L21 0 L154 0 L154 298 L217 298 Z M154 629 L179 629 C210 629 213 612 213 585 L213 461 C213 438 210 419 179 419 L154 419 L154 629 Z " />
<glyph glyph-name="Q" unicode="Q" horiz-adv-x="385" d="M367 564 C367 678 325 753 208 753 L178 753 C63 753 18 678 18 563 L18 170 C18 66 63 3 148 -9 L148 -155 L314 -155 L250 -6 C326 11 367 77 367 170 L367 564 Z M228 166 C228 143 221 122 194 122 C166 122 157 143 157 166 L157 574 C157 607 166 623 193 623 C216 623 228 607 228 574 L228 166 Z " />
<glyph glyph-name="R" unicode="R" horiz-adv-x="369" d="M154 629 L184 629 C211 629 217 619 217 587 L217 486 C217 451 207 441 180 441 L154 441 L154 629 Z M154 318 L182 318 C209 318 217 309 217 274 L217 57 C217 24 222 8 229 0 L362 0 L362 5 C357 14 351 28 351 60 L351 313 C351 368 315 393 294 401 C319 412 353 439 353 501 L353 620 C353 700 312 744 231 744 L21 744 L21 0 L154 0 L154 318 Z " />
<glyph glyph-name="S" unicode="S" horiz-adv-x="359" d="M168 753 C75 753 17 701 17 605 L17 573 C17 501 32 444 88 384 L165 299 C205 256 208 235 208 183 L208 169 C208 133 197 115 175 115 C152 115 141 130 141 160 L141 279 L10 279 L10 145 C10 45 61 -9 162 -9 L188 -9 C299 -9 350 63 350 175 L350 210 C350 275 336 325 269 401 L193 486 C160 523 152 547 152 582 L152 599 C152 624 158 639 181 639 C205 639 210 624 210 600 L210 507 L338 507 L338 607 C338 707 299 753 195 753 L168 753 Z " />
<glyph glyph-name="T" unicode="T" horiz-adv-x="339" d="M8 744 L8 613 L103 613 L103 0 L236 0 L236 613 L331 613 L331 744 L8 744 Z " />
<glyph glyph-name="U" unicode="U" horiz-adv-x="379" d="M20 173 C20 49 75 -11 172 -11 L205 -11 C301 -11 359 49 359 173 L359 744 L222 744 L222 168 C222 137 211 122 190 122 C168 122 157 137 157 168 L157 744 L20 744 L20 173 Z " />
<glyph glyph-name="V" unicode="V" horiz-adv-x="361" d="M98 0 L267 0 L362 744 L235 744 L186 245 L137 744 L-1 744 L98 0 Z " />
<glyph glyph-name="W" unicode="W" horiz-adv-x="572" d="M227 744 L179 267 L137 744 L-1 744 L92 0 L249 0 L288 409 L327 0 L478 0 L573 744 L445 744 L401 272 L354 744 L227 744 Z " />
<glyph glyph-name="X" unicode="X" horiz-adv-x="362" d="M91 398 L-3 0 L127 0 L180 258 L231 0 L365 0 L272 398 L351 744 L225 744 L185 521 L144 744 L10 744 L91 398 Z " />
<glyph glyph-name="Y" unicode="Y" horiz-adv-x="331" d="M337 744 L217 744 L172 480 L127 744 L-6 744 L104 288 L104 0 L237 0 L237 293 L337 744 Z " />
<glyph glyph-name="Z" unicode="Z" horiz-adv-x="334" d="M20 744 L20 616 L171 616 L9 120 L9 0 L325 0 L325 130 L152 130 L314 626 L314 744 L20 744 Z " />
<glyph glyph-name="bracketleft" unicode="&#x5b;" horiz-adv-x="200" d="M194 808 L34 808 L34 -131 L194 -131 L194 -35 L140 -35 L140 713 L194 713 L194 808 Z " />
<glyph glyph-name="backslash" unicode="&#x5c;" horiz-adv-x="219" d="M133 -131 L227 -131 L96 808 L2 808 L133 -131 Z " />
<glyph glyph-name="bracketright" unicode="&#x5d;" horiz-adv-x="200" d="M6 -131 L166 -131 L166 808 L6 808 L6 713 L60 713 L60 -35 L6 -35 L6 -131 Z " />
<glyph glyph-name="asciicircum" unicode="&#x5e;" horiz-adv-x="237" d="M169 744 L67 744 L2 433 L90 433 L117 597 L146 433 L235 433 L169 744 Z " />
<glyph glyph-name="underscore" unicode="&#x5f;" horiz-adv-x="333" d="M2 -115 L331 -115 L331 -20 L2 -20 L2 -115 Z " />
<glyph glyph-name="grave" unicode="&#x60;" horiz-adv-x="342" d="M203 700 L97 700 L142 564 L244 564 L203 700 Z " />
<glyph glyph-name="a" unicode="a" horiz-adv-x="339" d="M182 134 C182 113 174 102 158 102 C142 102 137 114 137 134 L137 199 C137 220 140 229 149 240 C158 251 175 261 182 265 L182 134 Z M14 88 C14 41 38 -5 87 -5 L91 -5 C139 -5 169 34 182 61 C182 17 194 0 219 0 L338 0 L338 114 L324 114 C308 114 305 118 305 129 L305 426 C305 495 277 544 169 544 L146 544 C42 544 20 485 20 438 L20 364 L134 364 L134 417 C134 436 139 446 156 446 L160 446 C175 446 182 440 182 417 L182 388 C182 373 179 371 174 368 C157 357 94 331 70 315 C31 291 14 261 14 205 L14 88 Z " />
<glyph glyph-name="b" unicode="b" horiz-adv-x="340" d="M18 744 L18 0 L108 0 C108 5 116 51 121 72 C142 35 167 -9 222 -9 L224 -9 C282 -9 323 52 323 111 L323 449 C323 497 295 544 243 544 L237 544 C190 544 154 494 146 478 L146 744 L18 744 Z M146 399 C146 418 150 434 169 434 C185 434 194 427 194 399 L194 135 C194 116 187 102 170 102 C153 102 146 117 146 137 L146 399 Z " />
<glyph glyph-name="c" unicode="c" horiz-adv-x="322" d="M190 241 L190 133 C190 114 185 102 166 102 C147 102 144 115 144 135 L144 406 C144 430 148 443 167 443 C187 443 191 428 191 405 L191 329 L309 329 L309 418 C309 492 278 548 179 548 L154 548 C55 548 15 489 15 400 L15 129 C15 49 56 -11 156 -11 L177 -11 C270 -11 309 51 309 125 L309 241 L190 241 Z " />
<glyph glyph-name="d" unicode="d" horiz-adv-x="344" d="M198 744 L198 478 C182 502 153 544 102 544 L97 544 C44 544 17 488 17 437 L17 104 C17 42 54 -11 107 -11 L109 -11 C156 -11 184 35 198 60 L198 0 L326 0 L326 744 L198 744 Z M198 143 C198 116 191 101 171 101 C152 101 146 115 146 138 L146 397 C146 422 154 434 171 434 C192 434 198 417 198 392 L198 143 Z " />
<glyph glyph-name="e" unicode="e" horiz-adv-x="323" d="M150 548 C53 548 15 485 15 413 L15 117 C15 33 70 -10 150 -10 L174 -10 C250 -10 309 33 309 117 L309 215 L186 215 L186 135 C186 115 180 102 163 102 C144 102 138 114 138 135 L138 252 L309 252 L309 411 C309 502 264 548 174 548 L150 548 Z M138 413 C138 436 141 449 164 449 C185 449 190 436 190 413 L190 348 L138 348 L138 413 Z " />
<glyph glyph-name="f" unicode="f" horiz-adv-x="274" d="M265 744 L151 744 C92 744 69 706 69 670 L69 538 L6 538 L6 419 L69 419 L69 0 L196 0 L196 419 L265 419 L265 538 L196 538 L196 608 C196 624 199 631 216 631 L265 631 L265 744 Z " />
<glyph glyph-name="g" unicode="g" horiz-adv-x="342" d="M196 -65 C196 -84 191 -92 172 -92 L167 -92 C148 -92 145 -84 145 -69 L145 -25 L22 -25 L22 -97 C22 -152 51 -195 161 -195 L179 -195 C298 -195 324 -130 324 -74 L324 538 L198 538 L198 473 C175 510 148 541 103 541 L102 541 C46 541 17 492 17 416 L17 95 C17 31 57 -10 109 -10 C149 -10 176 23 196 60 L196 -65 Z M196 129 C196 110 187 96 171 96 C152 96 147 109 147 128 L147 400 C147 419 152 433 171 433 C192 433 196 416 196 399 L196 129 Z " />
<glyph glyph-name="h" unicode="h" horiz-adv-x="344" d="M18 0 L146 0 L146 394 C146 414 151 428 172 428 C192 428 197 414 197 398 L197 0 L326 0 L326 456 C326 504 296 540 247 540 L242 540 C197 540 165 505 146 476 L146 744 L18 744 L18 0 Z " />
<glyph glyph-name="i" unicode="i" horiz-adv-x="164" d="M146 538 L18 538 L18 0 L146 0 L146 538 Z M146 690 L18 690 L18 564 L146 564 L146 690 Z " />
<glyph glyph-name="j" unicode="j" horiz-adv-x="165" d="M147 690 L19 690 L19 564 L147 564 L147 690 Z M-51 -69 L-51 -188 L73 -188 C120 -188 147 -155 147 -116 L147 538 L19 538 L19 -48 C19 -65 14 -69 1 -69 L-51 -69 Z " />
<glyph glyph-name="k" unicode="k" horiz-adv-x="346" d="M146 351 L146 744 L18 744 L18 0 L146 0 L146 239 L223 0 L350 0 L248 312 L343 538 L221 538 L146 351 Z " />
<glyph glyph-name="l" unicode="l" horiz-adv-x="164" d="M146 744 L18 744 L18 0 L146 0 L146 744 Z " />
<glyph glyph-name="m" unicode="m" horiz-adv-x="516" d="M18 0 L146 0 L146 392 C146 415 150 428 169 428 C192 428 194 413 194 392 L194 0 L322 0 L322 400 C323 417 327 428 346 428 C367 428 370 413 370 392 L370 0 L498 0 L498 456 C498 504 472 542 421 542 L416 542 C372 542 339 506 320 476 C312 511 285 542 241 542 L237 542 C195 542 162 500 145 475 L145 538 L18 538 L18 0 Z " />
<glyph glyph-name="n" unicode="n" horiz-adv-x="344" d="M18 0 L146 0 L146 392 C146 415 151 428 172 428 C192 428 197 415 197 396 L197 0 L326 0 L326 450 C326 483 309 540 249 540 L242 540 C198 540 169 509 145 473 L145 538 L18 538 L18 0 Z " />
<glyph glyph-name="o" unicode="o" horiz-adv-x="341" d="M15 142 C15 56 56 -10 155 -10 L185 -10 C273 -10 326 56 326 144 L326 399 C326 495 273 548 185 548 L155 548 C67 548 15 494 15 397 L15 142 L15 142 Z M144 400 C144 423 150 437 170 437 C191 437 197 423 197 400 L197 144 C197 124 193 106 170 106 C149 106 144 123 144 144 L144 400 L144 400 Z " />
<glyph glyph-name="p" unicode="p" horiz-adv-x="344" d="M18 538 L18 -188 L146 -188 L146 47 C167 15 195 -11 235 -11 L237 -11 C285 -11 327 36 327 108 L327 429 C327 497 302 544 242 544 L240 544 C193 544 165 510 146 479 L146 538 L18 538 Z M146 402 C146 422 152 436 171 436 C190 436 196 423 196 402 L196 129 C196 108 190 94 171 94 C154 94 146 106 146 130 L146 402 Z " />
<glyph glyph-name="q" unicode="q" horiz-adv-x="344" d="M238 538 C235 507 229 476 222 460 C201 500 174 544 124 544 L116 544 C40 544 17 480 17 413 L17 103 C17 47 50 -10 102 -10 L108 -10 C154 -10 185 33 198 59 L198 -188 L326 -188 L326 538 L238 538 Z M198 135 C198 111 191 96 172 96 C155 96 147 108 147 131 L147 398 C147 418 152 434 171 434 C189 434 198 422 198 398 L198 135 Z " />
<glyph glyph-name="r" unicode="r" horiz-adv-x="308" d="M145 538 L18 538 L18 0 L146 0 L146 403 C146 420 149 429 162 429 C175 429 178 422 178 403 L178 280 L297 280 L297 475 C297 515 279 541 236 541 L230 541 C178 541 153 493 145 471 L145 538 Z " />
<glyph glyph-name="s" unicode="s" horiz-adv-x="302" d="M289 446 C289 506 258 548 167 548 L140 548 C55 548 14 500 14 428 L14 411 C14 355 26 316 74 269 L142 204 C166 181 170 164 170 137 L170 125 C170 104 163 94 149 94 L148 94 C133 94 125 104 125 124 L125 196 L7 196 L7 108 C7 43 44 -9 137 -9 L163 -9 C255 -9 296 54 296 129 L296 147 C296 204 282 241 227 296 L156 366 C137 385 133 394 133 418 L133 429 C133 445 137 457 154 457 C170 457 175 446 175 429 L175 373 L289 373 L289 446 L289 446 Z " />
<glyph glyph-name="t" unicode="t" horiz-adv-x="267" d="M256 0 L256 121 L213 121 C196 121 194 128 194 143 L194 419 L256 419 L256 538 L194 538 L194 716 L67 716 L67 538 L6 538 L6 419 L67 419 L67 66 C67 27 93 0 128 0 L256 0 Z " />
<glyph glyph-name="u" unicode="u" horiz-adv-x="339" d="M321 538 L194 538 L194 146 C194 125 189 110 169 110 C152 110 147 124 147 143 L147 538 L18 538 L18 91 C18 48 45 -2 96 -2 L100 -2 C147 -2 173 30 197 66 L197 0 L321 0 L321 538 Z " />
<glyph glyph-name="v" unicode="v" horiz-adv-x="313" d="M80 0 L227 0 L315 538 L193 538 L157 195 L122 538 L-2 538 L80 0 Z " />
<glyph glyph-name="w" unicode="w" horiz-adv-x="498" d="M216 0 L250 292 L285 0 L418 0 L500 538 L380 538 L345 201 L309 538 L196 538 L159 205 L124 538 L-2 538 L79 0 L216 0 Z " />
<glyph glyph-name="x" unicode="x" horiz-adv-x="315" d="M75 289 L-2 0 L117 0 L157 170 L195 0 L317 0 L240 293 L308 538 L191 538 L160 384 L125 538 L3 538 L75 289 Z " />
<glyph glyph-name="y" unicode="y" horiz-adv-x="315" d="M91 9 C94 -6 93 -10 92 -21 L90 -42 C87 -61 85 -69 68 -69 L15 -69 L15 -188 L131 -188 C170 -188 194 -163 205 -107 L318 538 L195 538 L160 241 L124 538 L-2 538 L91 9 Z " />
<glyph glyph-name="z" unicode="z" horiz-adv-x="270" d="M16 538 L16 426 L131 426 L6 107 L6 0 L264 0 L264 114 L133 114 L257 432 L257 538 L16 538 Z " />
<glyph glyph-name="braceleft" unicode="&#x7b;" horiz-adv-x="210" d="M172 256 C172 296 162 325 121 341 C162 357 172 385 172 432 C172 482 144 627 144 673 C144 700 154 716 183 716 L204 716 L204 808 L160 808 C80 808 36 771 36 695 C36 639 67 499 67 425 C67 402 60 391 37 391 L17 391 L17 291 L37 291 C60 291 67 276 67 253 C67 182 36 38 36 -13 C36 -89 80 -131 160 -131 L204 -131 L204 -40 L187 -40 C154 -40 144 -18 144 13 C144 62 172 203 172 256 L172 256 Z " />
<glyph glyph-name="bar" unicode="&#x7c;" horiz-adv-x="171" d="M131 808 L40 808 L40 -131 L131 -131 L131 808 Z " />
<glyph glyph-name="braceright" unicode="&#x7d;" horiz-adv-x="210" d="M37 432 C37 385 47 357 88 341 C47 325 37 296 37 256 C37 203 66 62 66 13 C66 -18 57 -40 22 -40 L6 -40 L6 -131 L50 -131 C130 -131 174 -89 174 -13 C174 38 142 182 142 253 C142 276 149 291 172 291 L193 291 L193 391 L172 391 C149 391 142 402 142 425 C142 499 174 639 174 695 C174 771 127 808 50 808 L6 808 L6 716 L27 716 C56 716 66 700 66 673 C66 627 37 482 37 432 L37 432 Z " />
<glyph glyph-name="asciitilde" unicode="&#x7e;" horiz-adv-x="284" d="M134 345 C161 314 178 304 207 304 C244 304 273 334 273 379 L273 498 L189 498 L189 435 C189 428 187 425 182 425 C177 425 171 431 152 452 C125 481 107 494 78 494 C31 494 11 456 11 419 L11 301 L95 301 L95 363 C95 370 97 374 102 374 C109 374 115 366 134 345 L134 345 Z " />
<glyph glyph-name="exclamdown" unicode="&#xa1;" horiz-adv-x="164" d="M18 394 L137 394 L137 538 L18 538 L18 394 Z M150 -206 L103 371 L52 371 L5 -206 L150 -206 Z " />
<glyph glyph-name="cent" unicode="&#xa2;" horiz-adv-x="327" d="M315 242 L206 242 L206 134 C206 118 201 103 186 96 L186 446 C202 439 207 426 207 407 L207 330 L315 330 L315 418 C315 491 281 547 186 548 L186 612 L152 612 L152 548 C56 547 15 489 15 400 L15 129 C15 50 55 -8 152 -11 L152 -75 L186 -75 L186 -11 C275 -8 315 54 315 125 L315 242 Z M132 408 C132 427 136 441 152 446 L152 95 C137 102 132 117 132 134 L132 408 L132 408 Z " />
<glyph glyph-name="sterling" unicode="&#xa3;" horiz-adv-x="415" d="M207 252 C207 268 207 287 206 310 L326 310 L326 420 L200 420 C199 455 198 485 198 508 L198 590 C198 619 204 632 228 632 C252 632 257 617 257 590 L257 483 L380 483 L380 611 C380 680 352 753 243 753 L213 753 C97 753 63 682 63 590 L63 521 C63 502 66 464 70 420 L8 420 L8 310 L81 310 C84 278 86 252 86 241 C86 169 73 135 8 89 L8 0 L400 0 L400 249 L276 249 L276 117 L151 117 C186 152 207 188 207 252 L207 252 Z " />
<glyph glyph-name="yen" unicode="&#xa5;" horiz-adv-x="358" d="M245 218 L345 218 L345 302 L245 302 L245 328 L345 328 L345 412 L257 412 L345 744 L226 744 L181 503 L133 744 L2 744 L98 412 L13 412 L13 328 L112 328 L112 302 L13 302 L13 218 L112 218 L112 0 L245 0 L245 218 Z " />
<glyph glyph-name="brokenbar" unicode="&#xa6;" horiz-adv-x="171" d="M131 343 L40 343 L40 -131 L131 -131 L131 343 Z M131 808 L40 808 L40 382 L131 382 L131 808 Z " />
<glyph glyph-name="section" unicode="&#xa7;" horiz-adv-x="405" d="M394 275 C394 342 383 369 311 431 C292 447 239 488 225 499 C191 528 185 543 185 588 L185 605 C185 628 190 641 211 641 C231 641 238 633 238 605 L238 528 L364 528 L364 607 C364 708 326 753 222 753 L204 753 C88 753 51 688 51 606 L51 587 C51 522 61 484 93 448 C42 433 11 404 11 344 L11 311 C11 242 24 207 91 156 L179 87 C216 55 222 37 222 0 L222 -44 C222 -71 216 -80 197 -80 C178 -80 169 -69 169 -46 L169 53 L41 53 L41 -51 C41 -147 87 -195 178 -195 L209 -195 C310 -195 357 -137 357 -45 L357 20 C357 72 349 100 309 140 C354 153 394 183 394 251 L394 275 Z M224 327 C259 298 267 287 267 259 L267 249 C267 218 258 212 243 209 L175 262 C140 289 132 301 133 329 L133 346 C133 365 141 376 157 379 L224 327 Z " />
<glyph glyph-name="dieresis" unicode="&#xa8;" horiz-adv-x="342" d="M159 670 L59 670 L59 564 L159 564 L159 670 Z M283 670 L183 670 L183 564 L283 564 L283 670 Z " />
<glyph glyph-name="copyright" unicode="&#xa9;" horiz-adv-x="519" d="M266 -11 C401 -11 500 64 500 244 L500 502 C500 674 418 755 269 755 L257 755 C108 755 19 670 19 502 L19 244 C19 66 107 -11 256 -11 L266 -11 Z M258 56 C143 56 97 131 97 259 L97 489 C97 616 139 688 258 688 L268 688 C385 688 424 604 424 489 L424 259 C424 136 381 56 266 56 L258 56 L258 56 Z M264 207 C249 207 246 218 246 233 L246 514 C246 531 249 540 264 540 C279 540 280 530 280 514 L280 439 L384 439 L384 521 C384 606 335 636 274 636 L252 636 C175 636 138 588 138 508 L138 232 C138 160 175 110 255 110 L273 110 C341 110 385 158 385 223 L385 340 L281 340 L281 233 C281 218 279 207 264 207 L264 207 Z " />
<glyph glyph-name="ordfeminine" unicode="&#xaa;" horiz-adv-x="206" d="M185 677 C185 720 168 748 103 748 L89 748 C27 748 13 712 13 684 L13 650 L85 650 L85 670 C85 681 86 687 97 687 L98 687 C106 687 110 682 110 671 L110 662 C110 656 108 652 105 650 C94 645 58 627 44 618 C21 603 10 587 10 556 L10 503 C10 475 24 448 55 448 C83 448 102 472 110 488 C110 460 118 451 133 451 L204 451 L204 518 L193 518 C188 518 185 521 185 526 L185 677 Z M110 528 C110 516 106 510 97 510 C90 510 86 516 86 527 L86 555 C86 566 88 573 93 578 C97 582 103 586 110 589 L110 528 Z " />
<glyph glyph-name="guillemotleft" unicode="&#xab;" horiz-adv-x="273" d="M102 286 L152 451 L60 451 L12 316 L12 256 L60 119 L152 119 L102 286 Z M222 286 L266 451 L172 451 L124 286 L172 119 L265 119 L222 286 Z " />
<glyph glyph-name="registered" unicode="&#xae;" horiz-adv-x="281" d="M146 399 C214 399 268 450 268 533 L268 620 C268 700 223 750 147 750 L138 750 C58 750 13 699 13 619 L13 533 C13 445 62 399 138 399 L146 399 Z M138 436 C75 436 55 478 55 538 L55 612 C55 680 77 713 138 713 L147 713 C206 713 226 670 226 615 L226 538 C226 478 206 436 146 436 L138 436 L138 436 Z M134 560 L140 560 C149 560 150 556 150 547 L150 487 C150 478 151 472 153 467 L202 467 L202 472 C200 476 199 482 199 491 L199 556 C199 571 195 581 180 585 C193 592 199 602 199 617 L199 647 C199 674 186 687 159 687 L83 687 L83 467 L134 467 L134 560 Z M134 650 L141 650 C147 650 150 646 150 638 L150 612 C150 601 148 599 141 599 L134 599 L134 650 Z " />
<glyph glyph-name="macron" unicode="&#xaf;" horiz-adv-x="342" d="M76 576 L267 576 L267 663 L76 663 L76 576 Z " />
<glyph glyph-name="degree" unicode="&#xb0;" horiz-adv-x="210" d="M5 649 C5 593 46 552 106 552 C163 552 205 593 205 649 C205 705 163 747 106 747 C46 747 5 705 5 649 L5 649 Z M69 650 C69 670 81 687 105 687 C126 687 141 671 141 650 C141 627 128 612 105 612 C81 612 69 627 69 650 L69 650 Z " />
<glyph glyph-name="acute" unicode="&#xb4;" horiz-adv-x="342" d="M97 564 L200 564 L244 700 L139 700 L97 564 Z " />
<glyph glyph-name="paragraph" unicode="&#xb6;" horiz-adv-x="377" d="M124 744 C56 744 13 705 13 644 L13 445 C13 377 55 342 124 342 L130 342 L130 0 L215 0 L215 646 L249 646 L249 0 L334 0 L334 646 L373 646 L373 744 L124 744 L124 744 Z " />
<glyph glyph-name="periodcentered" unicode="&#xb7;" horiz-adv-x="149" d="M134 388 L15 388 L15 244 L134 244 L134 388 Z " />
<glyph glyph-name="cedilla" unicode="&#xb8;" horiz-adv-x="342" d="M154 -188 C210 -188 250 -163 250 -111 L250 -108 C250 -62 224 -38 171 -36 L168 -36 L168 0 L108 0 L108 -92 L143 -92 C158 -92 165 -97 165 -107 L165 -108 C165 -119 158 -125 143 -125 L93 -125 L93 -188 L154 -188 L154 -188 Z " />
<glyph glyph-name="ordmasculine" unicode="&#xba;" horiz-adv-x="212" d="M115 448 C166 448 199 483 199 540 L199 656 C199 717 166 748 115 748 L97 748 C44 748 13 715 13 655 L13 540 C13 479 41 448 97 448 L115 448 Z M92 662 C92 675 97 681 106 681 C115 681 120 675 120 662 L120 535 C120 522 115 516 106 516 C97 516 92 522 92 535 L92 662 Z " />
<glyph glyph-name="guillemotright" unicode="&#xbb;" horiz-adv-x="272" d="M120 119 L212 119 L260 255 L260 314 L213 451 L120 451 L170 285 L120 119 Z M7 119 L100 119 L148 285 L100 451 L7 451 L51 285 L7 119 Z " />
<glyph glyph-name="onequarter" unicode="&#xbc;" horiz-adv-x="379" d="M49 638 L49 404 L133 404 L133 744 L61 744 C58 723 49 704 6 704 L6 638 L49 638 Z M277 744 L10 0 L91 0 L358 744 L277 744 Z M174 59 L263 59 L263 0 L343 0 L343 59 L371 59 L371 131 L343 131 L343 342 L260 342 C239 280 195 168 174 117 L174 59 Z M232 131 C240 150 258 197 263 218 L263 131 L232 131 Z " />
<glyph glyph-name="onehalf" unicode="&#xbd;" horiz-adv-x="427" d="M49 638 L49 404 L133 404 L133 744 L61 744 C58 723 49 704 6 704 L6 638 L49 638 Z M277 744 L10 0 L91 0 L358 744 L277 744 Z M416 0 L416 122 L342 122 L342 68 L289 68 C289 84 290 86 345 136 C390 177 408 204 408 251 L408 269 C408 309 388 348 314 348 L299 348 C236 348 216 309 216 269 L216 212 L294 212 L294 265 C294 276 298 282 307 282 C316 282 321 276 321 265 L321 249 C321 226 321 216 290 182 C220 104 210 80 210 44 L210 0 L416 0 Z " />
<glyph glyph-name="threequarters" unicode="&#xbe;" horiz-adv-x="432" d="M330 744 L63 0 L144 0 L411 744 L330 744 Z M89 630 L89 668 C89 680 93 686 102 686 C111 686 115 680 115 668 L115 630 C115 619 110 614 101 614 L64 614 L64 545 L103 545 C112 545 116 542 116 530 L116 481 C116 470 112 464 104 464 C95 464 91 470 91 481 L91 527 L11 527 L11 476 C11 434 28 397 98 397 L112 397 C176 397 204 431 204 483 L204 538 C204 569 186 585 167 592 C180 597 197 613 197 646 L197 669 C197 726 169 750 109 750 L97 750 C33 750 12 718 12 666 L12 630 L89 630 Z M227 59 L316 59 L316 0 L396 0 L396 59 L424 59 L424 131 L396 131 L396 342 L313 342 C292 280 248 168 227 117 L227 59 Z M285 131 C293 150 311 197 316 218 L316 131 L285 131 Z " />
<glyph glyph-name="questiondown" unicode="&#xbf;" horiz-adv-x="333" d="M128 371 L128 279 C128 231 123 222 103 194 L54 127 C17 79 9 42 9 -18 L9 -70 C9 -158 45 -215 153 -215 L180 -215 C295 -215 316 -146 316 -63 L316 55 L192 55 L192 -59 C192 -84 187 -94 167 -94 C148 -94 142 -86 142 -59 L142 -10 C142 23 144 44 163 75 L198 131 C227 176 232 195 232 243 L232 371 L128 371 Z M120 394 L239 394 L239 538 L120 538 L120 394 Z " />
<glyph glyph-name="Agrave" unicode="&#xc0;" horiz-adv-x="349" d="M222 0 L351 0 L250 744 L92 744 L-2 0 L116 0 L128 125 L208 125 L222 0 Z M167 508 L195 253 L141 253 L167 508 Z M182 885 L77 885 L121 770 L225 770 L182 885 Z " />
<glyph glyph-name="Aacute" unicode="&#xc1;" horiz-adv-x="349" d="M222 0 L351 0 L250 744 L92 744 L-2 0 L116 0 L128 125 L208 125 L222 0 Z M167 508 L195 253 L141 253 L167 508 Z M118 770 L222 770 L267 885 L161 885 L118 770 Z " />
<glyph glyph-name="Acircumflex" unicode="&#xc2;" horiz-adv-x="349" d="M222 0 L351 0 L250 744 L92 744 L-2 0 L116 0 L128 125 L208 125 L222 0 Z M167 508 L195 253 L141 253 L167 508 Z M221 885 L119 885 L54 770 L143 770 L170 817 L198 770 L287 770 L221 885 Z " />
<glyph glyph-name="Atilde" unicode="&#xc3;" horiz-adv-x="349" d="M222 0 L351 0 L250 744 L92 744 L-2 0 L116 0 L128 125 L208 125 L222 0 Z M167 508 L195 253 L141 253 L167 508 Z M170 787 C193 776 207 773 224 773 C251 773 281 793 281 849 L281 883 L209 883 L209 867 C209 860 207 857 203 857 C198 857 193 859 176 867 C156 876 142 880 122 880 C87 880 65 854 65 803 L65 769 L137 769 L137 785 C137 792 140 796 145 796 C152 796 158 792 170 787 L170 787 Z " />
<glyph glyph-name="Adieresis" unicode="&#xc4;" horiz-adv-x="349" d="M222 0 L351 0 L250 744 L92 744 L-2 0 L116 0 L128 125 L208 125 L222 0 Z M167 508 L195 253 L141 253 L167 508 Z M282 876 L182 876 L182 770 L282 770 L282 876 Z M157 876 L57 876 L57 770 L157 770 L157 876 Z " />
<glyph glyph-name="Aring" unicode="&#xc5;" horiz-adv-x="349" d="M222 0 L351 0 L250 744 L92 744 L-2 0 L116 0 L128 125 L208 125 L222 0 Z M167 508 L195 253 L141 253 L167 508 Z M169 811 C149 811 137 825 137 844 C137 863 149 877 169 877 C189 877 201 863 201 844 C201 825 189 811 169 811 L169 811 Z M169 765 C216 765 249 797 249 844 C249 891 216 923 169 923 C122 923 89 891 89 844 C89 797 122 765 169 765 L169 765 Z " />
<glyph glyph-name="AE" unicode="&#xc6;" horiz-adv-x="515" d="M506 0 L506 134 L358 134 L358 316 L465 316 L465 451 L358 451 L358 612 L496 612 L496 744 L134 744 L-6 0 L122 0 L144 131 L225 131 L225 0 L506 0 Z M166 258 L225 602 L225 258 L166 258 Z " />
<glyph glyph-name="Ccedilla" unicode="&#xc7;" horiz-adv-x="372" d="M224 164 C224 137 215 119 191 119 C168 119 157 134 157 164 L157 584 C157 613 165 627 190 627 C215 627 224 612 224 584 L224 464 L356 464 L356 589 C356 674 330 753 202 753 L175 753 C58 753 18 674 18 584 L18 164 C18 71 47 -12 175 -12 L202 -12 C319 -12 356 72 356 160 L356 328 L224 328 L224 164 L224 164 Z M180 -188 C236 -188 276 -163 276 -111 L276 -108 C276 -62 250 -38 197 -36 L194 -36 L194 0 L134 0 L134 -92 L169 -92 C184 -92 191 -97 191 -107 L191 -108 C191 -119 184 -125 169 -125 L119 -125 L119 -188 L180 -188 L180 -188 Z " />
<glyph glyph-name="Egrave" unicode="&#xc8;" horiz-adv-x="315" d="M21 744 L21 0 L306 0 L306 134 L154 134 L154 317 L268 317 L268 451 L154 451 L154 613 L299 613 L299 744 L21 744 Z M176 885 L71 885 L115 770 L219 770 L176 885 Z " />
<glyph glyph-name="Eacute" unicode="&#xc9;" horiz-adv-x="315" d="M21 744 L21 0 L306 0 L306 134 L154 134 L154 317 L268 317 L268 451 L154 451 L154 613 L299 613 L299 744 L21 744 Z M108 770 L212 770 L257 885 L151 885 L108 770 Z " />
<glyph glyph-name="Ecircumflex" unicode="&#xca;" horiz-adv-x="315" d="M21 744 L21 0 L306 0 L306 134 L154 134 L154 317 L268 317 L268 451 L154 451 L154 613 L299 613 L299 744 L21 744 Z M213 885 L111 885 L46 770 L135 770 L162 817 L190 770 L279 770 L213 885 Z " />
<glyph glyph-name="Edieresis" unicode="&#xcb;" horiz-adv-x="315" d="M21 744 L21 0 L306 0 L306 134 L154 134 L154 317 L268 317 L268 451 L154 451 L154 613 L299 613 L299 744 L21 744 Z M275 876 L175 876 L175 770 L275 770 L275 876 Z M150 876 L50 876 L50 770 L150 770 L150 876 Z " />
<glyph glyph-name="Igrave" unicode="&#xcc;" horiz-adv-x="175" d="M154 744 L21 744 L21 0 L154 0 L154 744 Z M97 885 L-8 885 L36 770 L140 770 L97 885 Z " />
<glyph glyph-name="Iacute" unicode="&#xcd;" horiz-adv-x="175" d="M154 744 L21 744 L21 0 L154 0 L154 744 Z M35 770 L139 770 L184 885 L78 885 L35 770 Z " />
<glyph glyph-name="Icircumflex" unicode="&#xce;" horiz-adv-x="175" d="M154 744 L21 744 L21 0 L154 0 L154 744 Z M136 883 L34 883 L-31 768 L58 768 L85 815 L113 768 L202 768 L136 883 Z " />
<glyph glyph-name="Idieresis" unicode="&#xcf;" horiz-adv-x="175" d="M154 744 L21 744 L21 0 L154 0 L154 744 Z M200 876 L100 876 L100 770 L200 770 L200 876 Z M75 876 L-25 876 L-25 770 L75 770 L75 876 Z " />
<glyph glyph-name="Eth" unicode="&#xd0;" horiz-adv-x="377" d="M25 443 L0 443 L0 325 L25 325 L25 0 L214 0 C322 0 359 58 359 165 L359 585 C359 698 314 744 214 744 L25 744 L25 443 Z M158 325 L201 325 L201 443 L158 443 L158 626 L188 626 C213 626 223 612 223 576 L223 176 C223 140 215 124 184 124 L158 124 L158 325 Z " />
<glyph glyph-name="Ntilde" unicode="&#xd1;" horiz-adv-x="376" d="M21 744 L21 0 L139 0 L139 408 L242 0 L355 0 L355 744 L237 744 L237 364 L146 744 L21 744 Z M195 787 C218 776 232 773 249 773 C276 773 306 793 306 849 L306 883 L234 883 L234 867 C234 860 232 857 228 857 C223 857 218 859 201 867 C181 876 167 880 147 880 C112 880 90 854 90 803 L90 769 L162 769 L162 785 C162 792 165 796 170 796 C177 796 183 792 195 787 L195 787 Z " />
<glyph glyph-name="Ograve" unicode="&#xd2;" horiz-adv-x="385" d="M367 564 C367 678 325 753 208 753 L178 753 C63 753 18 678 18 563 L18 170 C18 53 74 -11 179 -11 L209 -11 C309 -11 367 61 367 170 L367 564 Z M228 166 C228 143 221 122 194 122 C166 122 157 143 157 166 L157 574 C157 607 166 623 193 623 C216 623 228 607 228 574 L228 166 Z M202 886 L97 886 L141 771 L245 771 L202 886 Z " />
<glyph glyph-name="Oacute" unicode="&#xd3;" horiz-adv-x="385" d="M367 564 C367 678 325 753 208 753 L178 753 C63 753 18 678 18 563 L18 170 C18 53 74 -11 179 -11 L209 -11 C309 -11 367 61 367 170 L367 564 Z M228 166 C228 143 221 122 194 122 C166 122 157 143 157 166 L157 574 C157 607 166 623 193 623 C216 623 228 607 228 574 L228 166 Z M140 771 L244 771 L289 886 L183 886 L140 771 Z " />
<glyph glyph-name="Ocircumflex" unicode="&#xd4;" horiz-adv-x="385" d="M367 564 C367 678 325 753 208 753 L178 753 C63 753 18 678 18 563 L18 170 C18 53 74 -11 179 -11 L209 -11 C309 -11 367 61 367 170 L367 564 Z M228 166 C228 143 221 122 194 122 C166 122 157 143 157 166 L157 574 C157 607 166 623 193 623 C216 623 228 607 228 574 L228 166 Z M243 886 L141 886 L76 771 L165 771 L192 818 L220 771 L309 771 L243 886 Z " />
<glyph glyph-name="Otilde" unicode="&#xd5;" horiz-adv-x="385" d="M367 564 C367 678 325 753 208 753 L178 753 C63 753 18 678 18 563 L18 170 C18 53 74 -11 179 -11 L209 -11 C309 -11 367 61 367 170 L367 564 Z M228 166 C228 143 221 122 194 122 C166 122 157 143 157 166 L157 574 C157 607 166 623 193 623 C216 623 228 607 228 574 L228 166 Z M190 788 C213 777 227 774 244 774 C271 774 301 794 301 850 L301 884 L229 884 L229 868 C229 861 227 858 223 858 C218 858 213 860 196 868 C176 877 162 881 142 881 C107 881 85 855 85 804 L85 770 L157 770 L157 786 C157 793 160 797 165 797 C172 797 178 793 190 788 L190 788 Z " />
<glyph glyph-name="Odieresis" unicode="&#xd6;" horiz-adv-x="385" d="M367 564 C367 678 325 753 208 753 L178 753 C63 753 18 678 18 563 L18 170 C18 53 74 -11 179 -11 L209 -11 C309 -11 367 61 367 170 L367 564 Z M228 166 C228 143 221 122 194 122 C166 122 157 143 157 166 L157 574 C157 607 166 623 193 623 C216 623 228 607 228 574 L228 166 Z M305 877 L205 877 L205 771 L305 771 L305 877 Z M180 877 L80 877 L80 771 L180 771 L180 877 Z " />
<glyph glyph-name="multiply" unicode="&#xd7;" horiz-adv-x="315" d="M243 149 L306 214 L220 301 L306 390 L243 452 L159 364 L74 452 L9 386 L95 298 L10 209 L73 149 L157 236 L243 149 Z " />
<glyph glyph-name="Oslash" unicode="&#xd8;" horiz-adv-x="381" d="M363 564 C363 605 358 637 347 661 L380 744 L306 744 L296 720 C272 742 241 753 203 753 L178 753 C63 753 18 678 18 563 L18 170 C18 135 24 106 33 82 L0 0 L74 0 L84 24 C109 1 141 -11 180 -11 L205 -11 C305 -11 363 61 363 170 L363 564 Z M192 122 C161 122 153 143 153 166 L153 188 L228 394 L228 166 C228 143 221 122 192 122 L192 122 Z M191 623 C216 623 228 607 228 574 L228 559 L153 350 L153 574 C153 607 163 623 191 623 L191 623 Z " />
<glyph glyph-name="Ugrave" unicode="&#xd9;" horiz-adv-x="379" d="M20 173 C20 49 75 -11 172 -11 L205 -11 C301 -11 359 49 359 173 L359 744 L222 744 L222 168 C222 137 211 122 190 122 C168 122 157 137 157 168 L157 744 L20 744 L20 173 Z M200 885 L95 885 L139 770 L243 770 L200 885 Z " />
<glyph glyph-name="Uacute" unicode="&#xda;" horiz-adv-x="379" d="M20 173 C20 49 75 -11 172 -11 L205 -11 C301 -11 359 49 359 173 L359 744 L222 744 L222 168 C222 137 211 122 190 122 C168 122 157 137 157 168 L157 744 L20 744 L20 173 Z M136 770 L240 770 L285 885 L179 885 L136 770 Z " />
<glyph glyph-name="Ucircumflex" unicode="&#xdb;" horiz-adv-x="379" d="M20 173 C20 49 75 -11 172 -11 L205 -11 C301 -11 359 49 359 173 L359 744 L222 744 L222 168 C222 137 211 122 190 122 C168 122 157 137 157 168 L157 744 L20 744 L20 173 Z M240 885 L138 885 L73 770 L162 770 L189 817 L217 770 L306 770 L240 885 Z " />
<glyph glyph-name="Udieresis" unicode="&#xdc;" horiz-adv-x="379" d="M20 173 C20 49 75 -11 172 -11 L205 -11 C301 -11 359 49 359 173 L359 744 L222 744 L222 168 C222 137 211 122 190 122 C168 122 157 137 157 168 L157 744 L20 744 L20 173 Z M302 876 L202 876 L202 770 L302 770 L302 876 Z M177 876 L77 876 L77 770 L177 770 L177 876 Z " />
<glyph glyph-name="Yacute" unicode="&#xdd;" horiz-adv-x="331" d="M337 744 L217 744 L172 480 L127 744 L-6 744 L104 288 L104 0 L237 0 L237 293 L337 744 Z M116 770 L220 770 L265 885 L159 885 L116 770 Z " />
<glyph glyph-name="Thorn" unicode="&#xde;" horiz-adv-x="366" d="M223 188 C304 188 353 230 353 330 L353 461 C353 557 311 594 223 594 L154 594 L154 744 L21 744 L21 0 L154 0 L154 188 L223 188 Z M154 485 L184 485 C212 485 219 472 219 444 L219 338 C219 310 210 298 185 298 L154 298 L154 485 Z " />
<glyph glyph-name="germandbls" unicode="&#xdf;" horiz-adv-x="342" d="M267 443 C291 451 318 480 318 525 L318 611 C318 699 279 744 182 744 L155 744 C59 744 18 690 18 606 L18 0 L145 0 L145 605 C145 621 150 634 166 634 L172 634 C191 634 195 620 195 604 L195 494 C195 473 187 466 176 466 L162 466 L162 348 L177 348 C193 348 197 340 197 324 L197 144 C197 127 191 119 178 119 L162 119 L162 0 L209 0 C301 0 329 45 329 130 L329 342 C329 402 308 428 267 443 L267 443 Z " />
<glyph glyph-name="agrave" unicode="&#xe0;" horiz-adv-x="339" d="M182 134 C182 113 174 102 158 102 C142 102 137 114 137 134 L137 199 C137 220 140 229 149 240 C158 251 175 261 182 265 L182 134 Z M14 88 C14 41 38 -5 87 -5 L91 -5 C139 -5 169 34 182 61 C182 17 194 0 219 0 L338 0 L338 114 L324 114 C308 114 305 118 305 129 L305 426 C305 495 277 544 169 544 L146 544 C42 544 20 485 20 438 L20 364 L134 364 L134 417 C134 436 139 446 156 446 L160 446 C175 446 182 440 182 417 L182 388 C182 373 179 371 174 368 C157 357 94 331 70 315 C31 291 14 261 14 205 L14 88 Z M170 700 L64 700 L109 564 L211 564 L170 700 Z " />
<glyph glyph-name="aacute" unicode="&#xe1;" horiz-adv-x="339" d="M182 134 C182 113 174 102 158 102 C142 102 137 114 137 134 L137 199 C137 220 140 229 149 240 C158 251 175 261 182 265 L182 134 Z M14 88 C14 41 38 -5 87 -5 L91 -5 C139 -5 169 34 182 61 C182 17 194 0 219 0 L338 0 L338 114 L324 114 C308 114 305 118 305 129 L305 426 C305 495 277 544 169 544 L146 544 C42 544 20 485 20 438 L20 364 L134 364 L134 417 C134 436 139 446 156 446 L160 446 C175 446 182 440 182 417 L182 388 C182 373 179 371 174 368 C157 357 94 331 70 315 C31 291 14 261 14 205 L14 88 Z M108 564 L211 564 L255 700 L150 700 L108 564 Z " />
<glyph glyph-name="acircumflex" unicode="&#xe2;" horiz-adv-x="339" d="M182 134 C182 113 174 102 158 102 C142 102 137 114 137 134 L137 199 C137 220 140 229 149 240 C158 251 175 261 182 265 L182 134 Z M14 88 C14 41 38 -5 87 -5 L91 -5 C139 -5 169 34 182 61 C182 17 194 0 219 0 L338 0 L338 114 L324 114 C308 114 305 118 305 129 L305 426 C305 495 277 544 169 544 L146 544 C42 544 20 485 20 438 L20 364 L134 364 L134 417 C134 436 139 446 156 446 L160 446 C175 446 182 440 182 417 L182 388 C182 373 179 371 174 368 C157 357 94 331 70 315 C31 291 14 261 14 205 L14 88 Z M214 700 L108 700 L47 564 L136 564 L161 626 L185 564 L276 564 L214 700 Z " />
<glyph glyph-name="atilde" unicode="&#xe3;" horiz-adv-x="339" d="M182 134 C182 113 174 102 158 102 C142 102 137 114 137 134 L137 199 C137 220 140 229 149 240 C158 251 175 261 182 265 L182 134 Z M14 88 C14 41 38 -5 87 -5 L91 -5 C139 -5 169 34 182 61 C182 17 194 0 219 0 L338 0 L338 114 L324 114 C308 114 305 118 305 129 L305 426 C305 495 277 544 169 544 L146 544 C42 544 20 485 20 438 L20 364 L134 364 L134 417 C134 436 139 446 156 446 L160 446 C175 446 182 440 182 417 L182 388 C182 373 179 371 174 368 C157 357 94 331 70 315 C31 291 14 261 14 205 L14 88 Z M193 678 L193 662 C193 655 191 652 187 652 C182 652 179 653 164 660 C137 672 128 678 105 678 C70 678 50 650 50 610 L50 563 L122 563 L122 579 C122 586 122 591 129 591 C134 591 137 589 152 582 C180 567 189 563 212 563 C245 563 266 589 266 622 L266 678 L193 678 Z " />
<glyph glyph-name="adieresis" unicode="&#xe4;" horiz-adv-x="339" d="M182 134 C182 113 174 102 158 102 C142 102 137 114 137 134 L137 199 C137 220 140 229 149 240 C158 251 175 261 182 265 L182 134 Z M14 88 C14 41 38 -5 87 -5 L91 -5 C139 -5 169 34 182 61 C182 17 194 0 219 0 L338 0 L338 114 L324 114 C308 114 305 118 305 129 L305 426 C305 495 277 544 169 544 L146 544 C42 544 20 485 20 438 L20 364 L134 364 L134 417 C134 436 139 446 156 446 L160 446 C175 446 182 440 182 417 L182 388 C182 373 179 371 174 368 C157 357 94 331 70 315 C31 291 14 261 14 205 L14 88 Z M146 670 L46 670 L46 564 L146 564 L146 670 Z M270 670 L170 670 L170 564 L270 564 L270 670 Z " />
<glyph glyph-name="aring" unicode="&#xe5;" horiz-adv-x="339" d="M182 134 C182 113 174 102 158 102 C142 102 137 114 137 134 L137 199 C137 220 140 229 149 240 C158 251 175 261 182 265 L182 134 Z M14 88 C14 41 38 -5 87 -5 L91 -5 C139 -5 169 34 182 61 C182 17 194 0 219 0 L338 0 L338 114 L324 114 C308 114 305 118 305 129 L305 426 C305 495 277 544 169 544 L146 544 C42 544 20 485 20 438 L20 364 L134 364 L134 417 C134 436 139 446 156 446 L160 446 C175 446 182 440 182 417 L182 388 C182 373 179 371 174 368 C157 357 94 331 70 315 C31 291 14 261 14 205 L14 88 Z M157 608 C137 608 125 622 125 641 C125 660 137 674 157 674 C177 674 189 660 189 641 C189 622 177 608 157 608 L157 608 Z M157 562 C204 562 237 594 237 641 C237 688 204 720 157 720 C110 720 77 688 77 641 C77 594 110 562 157 562 L157 562 Z " />
<glyph glyph-name="ae" unicode="&#xe6;" horiz-adv-x="489" d="M193 63 C204 31 235 -10 318 -10 L339 -10 C431 -10 476 43 476 124 L476 214 L354 214 L354 134 C354 115 349 102 329 102 C310 102 305 111 305 134 L305 251 L476 251 L476 401 C476 508 428 548 344 548 L329 548 C280 548 257 528 249 517 C238 528 220 544 169 544 L146 544 C42 544 20 485 20 438 L20 345 L134 345 L134 417 C134 436 139 446 156 446 L160 446 C175 446 182 440 182 417 L182 369 C182 354 179 352 174 349 C157 338 94 312 70 296 C31 272 14 242 14 186 L14 88 C14 41 37 -5 88 -5 L92 -5 C139 -5 172 27 193 63 L193 63 Z M182 134 C182 113 174 102 158 102 C142 102 137 114 137 134 L137 180 C137 201 140 210 149 221 C158 232 175 242 182 246 L182 134 Z M305 417 C305 438 314 448 331 448 C351 448 357 435 357 416 L357 347 L305 347 L305 417 Z " />
<glyph glyph-name="ccedilla" unicode="&#xe7;" horiz-adv-x="322" d="M190 241 L190 133 C190 114 185 102 166 102 C147 102 144 115 144 135 L144 406 C144 430 148 443 167 443 C187 443 191 428 191 405 L191 329 L309 329 L309 418 C309 492 278 548 179 548 L154 548 C55 548 15 489 15 400 L15 129 C15 49 56 -11 156 -11 L177 -11 C270 -11 309 51 309 125 L309 241 L190 241 Z M158 -188 C214 -188 254 -163 254 -111 L254 -108 C254 -62 228 -38 175 -36 L172 -36 L172 0 L112 0 L112 -92 L147 -92 C162 -92 169 -97 169 -107 L169 -108 C169 -119 162 -125 147 -125 L97 -125 L97 -188 L158 -188 L158 -188 Z " />
<glyph glyph-name="egrave" unicode="&#xe8;" horiz-adv-x="323" d="M150 548 C53 548 15 485 15 413 L15 117 C15 33 70 -10 150 -10 L174 -10 C250 -10 309 33 309 117 L309 215 L186 215 L186 135 C186 115 180 102 163 102 C144 102 138 114 138 135 L138 252 L309 252 L309 411 C309 502 264 548 174 548 L150 548 Z M138 413 C138 436 141 449 164 449 C185 449 190 436 190 413 L190 348 L138 348 L138 413 Z M172 702 L66 702 L111 566 L213 566 L172 702 Z " />
<glyph glyph-name="eacute" unicode="&#xe9;" horiz-adv-x="323" d="M150 548 C53 548 15 485 15 413 L15 117 C15 33 70 -10 150 -10 L174 -10 C250 -10 309 33 309 117 L309 215 L186 215 L186 135 C186 115 180 102 163 102 C144 102 138 114 138 135 L138 252 L309 252 L309 411 C309 502 264 548 174 548 L150 548 Z M138 413 C138 436 141 449 164 449 C185 449 190 436 190 413 L190 348 L138 348 L138 413 Z M111 566 L214 566 L258 702 L153 702 L111 566 Z " />
<glyph glyph-name="ecircumflex" unicode="&#xea;" horiz-adv-x="323" d="M150 548 C53 548 15 485 15 413 L15 117 C15 33 70 -10 150 -10 L174 -10 C250 -10 309 33 309 117 L309 215 L186 215 L186 135 C186 115 180 102 163 102 C144 102 138 114 138 135 L138 252 L309 252 L309 411 C309 502 264 548 174 548 L150 548 Z M138 413 C138 436 141 449 164 449 C185 449 190 436 190 413 L190 348 L138 348 L138 413 Z M216 702 L110 702 L49 566 L138 566 L163 628 L187 566 L278 566 L216 702 Z " />
<glyph glyph-name="edieresis" unicode="&#xeb;" horiz-adv-x="323" d="M150 548 C53 548 15 485 15 413 L15 117 C15 33 70 -10 150 -10 L174 -10 C250 -10 309 33 309 117 L309 215 L186 215 L186 135 C186 115 180 102 163 102 C144 102 138 114 138 135 L138 252 L309 252 L309 411 C309 502 264 548 174 548 L150 548 Z M138 413 C138 436 141 449 164 449 C185 449 190 436 190 413 L190 348 L138 348 L138 413 Z M151 672 L51 672 L51 566 L151 566 L151 672 Z M275 672 L175 672 L175 566 L275 566 L275 672 Z " />
<glyph glyph-name="igrave" unicode="&#xec;" horiz-adv-x="164" d="M146 538 L18 538 L18 0 L146 0 L146 538 Z M93 700 L-13 700 L32 564 L134 564 L93 700 Z " />
<glyph glyph-name="iacute" unicode="&#xed;" horiz-adv-x="164" d="M146 538 L18 538 L18 0 L146 0 L146 538 Z M31 564 L134 564 L178 700 L73 700 L31 564 Z " />
<glyph glyph-name="icircumflex" unicode="&#xee;" horiz-adv-x="164" d="M135 700 L29 700 L-23 564 L62 564 L82 630 L101 564 L187 564 L135 700 Z M146 538 L18 538 L18 0 L146 0 L146 538 Z " />
<glyph glyph-name="idieresis" unicode="&#xef;" horiz-adv-x="164" d="M71 670 L-22 670 L-22 564 L71 564 L71 670 Z M186 670 L93 670 L93 564 L186 564 L186 670 Z M146 538 L18 538 L18 0 L146 0 L146 538 Z " />
<glyph glyph-name="eth" unicode="&#xf0;" horiz-adv-x="341" d="M57 549 L149 591 L205 479 C174 515 145 540 102 540 L100 540 C55 540 15 497 15 429 L15 142 C15 56 57 -10 154 -10 L186 -10 C274 -10 326 56 326 144 L326 393 C326 467 317 500 282 567 L247 635 L285 652 L285 738 L212 705 L192 744 L74 744 L115 661 L57 635 L57 549 Z M197 144 C197 124 193 106 170 106 C149 106 144 123 144 144 L144 400 C144 423 150 437 170 437 C191 437 197 423 197 400 L197 144 Z " />
<glyph glyph-name="ntilde" unicode="&#xf1;" horiz-adv-x="344" d="M18 0 L146 0 L146 392 C146 415 151 428 172 428 C192 428 197 415 197 396 L197 0 L326 0 L326 450 C326 483 309 540 249 540 L242 540 C198 540 169 509 145 473 L145 538 L18 538 L18 0 Z M207 678 L207 662 C207 655 205 652 201 652 C196 652 193 653 178 660 C151 672 142 678 119 678 C84 678 64 650 64 610 L64 563 L136 563 L136 579 C136 586 136 591 143 591 C148 591 151 589 166 582 C194 567 203 563 226 563 C259 563 280 589 280 622 L280 678 L207 678 Z " />
<glyph glyph-name="ograve" unicode="&#xf2;" horiz-adv-x="341" d="M15 142 C15 56 56 -10 155 -10 L185 -10 C273 -10 326 56 326 144 L326 399 C326 495 273 548 185 548 L155 548 C67 548 15 494 15 397 L15 142 L15 142 Z M144 400 C144 423 150 437 170 437 C191 437 197 423 197 400 L197 144 C197 124 193 106 170 106 C149 106 144 123 144 144 L144 400 L144 400 Z M180 702 L74 702 L119 566 L221 566 L180 702 Z " />
<glyph glyph-name="oacute" unicode="&#xf3;" horiz-adv-x="341" d="M15 142 C15 56 56 -10 155 -10 L185 -10 C273 -10 326 56 326 144 L326 399 C326 495 273 548 185 548 L155 548 C67 548 15 494 15 397 L15 142 L15 142 Z M144 400 C144 423 150 437 170 437 C191 437 197 423 197 400 L197 144 C197 124 193 106 170 106 C149 106 144 123 144 144 L144 400 L144 400 Z M119 566 L222 566 L266 702 L161 702 L119 566 Z " />
<glyph glyph-name="ocircumflex" unicode="&#xf4;" horiz-adv-x="341" d="M15 142 C15 56 56 -10 155 -10 L185 -10 C273 -10 326 56 326 144 L326 399 C326 495 273 548 185 548 L155 548 C67 548 15 494 15 397 L15 142 L15 142 Z M144 400 C144 423 150 437 170 437 C191 437 197 423 197 400 L197 144 C197 124 193 106 170 106 C149 106 144 123 144 144 L144 400 L144 400 Z M223 702 L117 702 L56 566 L145 566 L170 628 L194 566 L285 566 L223 702 Z " />
<glyph glyph-name="otilde" unicode="&#xf5;" horiz-adv-x="341" d="M15 142 C15 56 56 -10 155 -10 L185 -10 C273 -10 326 56 326 144 L326 399 C326 495 273 548 185 548 L155 548 C67 548 15 494 15 397 L15 142 L15 142 Z M144 400 C144 423 150 437 170 437 C191 437 197 423 197 400 L197 144 C197 124 193 106 170 106 C149 106 144 123 144 144 L144 400 L144 400 Z M205 680 L205 664 C205 657 203 654 199 654 C194 654 191 655 176 662 C149 674 140 680 117 680 C82 680 62 652 62 612 L62 565 L134 565 L134 581 C134 588 134 593 141 593 C146 593 149 591 164 584 C192 569 201 565 224 565 C257 565 278 591 278 624 L278 680 L205 680 Z " />
<glyph glyph-name="odieresis" unicode="&#xf6;" horiz-adv-x="341" d="M15 142 C15 56 56 -10 155 -10 L185 -10 C273 -10 326 56 326 144 L326 399 C326 495 273 548 185 548 L155 548 C67 548 15 494 15 397 L15 142 L15 142 Z M144 400 C144 423 150 437 170 437 C191 437 197 423 197 400 L197 144 C197 124 193 106 170 106 C149 106 144 123 144 144 L144 400 L144 400 Z M159 672 L59 672 L59 566 L159 566 L159 672 Z M283 672 L183 672 L183 566 L283 566 L283 672 Z " />
<glyph glyph-name="divide" unicode="&#xf7;" horiz-adv-x="343" d="M15 346 L15 255 L328 255 L328 346 L15 346 Z M223 478 L120 478 L120 375 L223 375 L223 478 Z M223 223 L120 223 L120 120 L223 120 L223 223 Z " />
<glyph glyph-name="oslash" unicode="&#xf8;" horiz-adv-x="336" d="M15 142 C15 115 18 91 29 70 L-7 0 L60 0 L70 20 C89 4 118 -10 155 -10 L181 -10 C269 -10 321 56 321 144 L321 399 C321 426 316 450 309 469 L344 538 L278 538 L268 519 C247 536 220 548 181 548 L155 548 C67 548 15 494 15 397 L15 142 L15 142 Z M196 387 L140 264 L140 401 C140 424 147 438 168 438 C191 438 196 424 196 401 L196 387 Z M168 105 C145 105 140 122 140 143 L140 151 L196 272 L196 143 C196 123 191 105 168 105 L168 105 Z " />
<glyph glyph-name="ugrave" unicode="&#xf9;" horiz-adv-x="339" d="M321 538 L194 538 L194 146 C194 125 189 110 169 110 C152 110 147 124 147 143 L147 538 L18 538 L18 91 C18 48 45 -2 96 -2 L100 -2 C147 -2 173 30 197 66 L197 0 L321 0 L321 538 Z M183 700 L77 700 L122 564 L224 564 L183 700 Z " />
<glyph glyph-name="uacute" unicode="&#xfa;" horiz-adv-x="339" d="M321 538 L194 538 L194 146 C194 125 189 110 169 110 C152 110 147 124 147 143 L147 538 L18 538 L18 91 C18 48 45 -2 96 -2 L100 -2 C147 -2 173 30 197 66 L197 0 L321 0 L321 538 Z M119 564 L222 564 L266 700 L161 700 L119 564 Z " />
<glyph glyph-name="ucircumflex" unicode="&#xfb;" horiz-adv-x="339" d="M321 538 L194 538 L194 146 C194 125 189 110 169 110 C152 110 147 124 147 143 L147 538 L18 538 L18 91 C18 48 45 -2 96 -2 L100 -2 C147 -2 173 30 197 66 L197 0 L321 0 L321 538 Z M222 700 L116 700 L55 564 L144 564 L169 626 L193 564 L284 564 L222 700 Z " />
<glyph glyph-name="udieresis" unicode="&#xfc;" horiz-adv-x="339" d="M321 538 L194 538 L194 146 C194 125 189 110 169 110 C152 110 147 124 147 143 L147 538 L18 538 L18 91 C18 48 45 -2 96 -2 L100 -2 C147 -2 173 30 197 66 L197 0 L321 0 L321 538 Z M158 670 L58 670 L58 564 L158 564 L158 670 Z M282 670 L182 670 L182 564 L282 564 L282 670 Z " />
<glyph glyph-name="yacute" unicode="&#xfd;" horiz-adv-x="315" d="M91 9 C94 -6 93 -10 92 -21 L90 -42 C87 -61 85 -69 68 -69 L15 -69 L15 -188 L131 -188 C170 -188 194 -163 205 -107 L318 538 L195 538 L160 241 L124 538 L-2 538 L91 9 Z M105 564 L208 564 L252 700 L147 700 L105 564 Z " />
<glyph glyph-name="thorn" unicode="&#xfe;" horiz-adv-x="344" d="M18 744 L18 -188 L146 -188 L146 47 C167 15 195 -11 235 -11 L237 -11 C285 -11 327 36 327 108 L327 429 C327 497 301 544 245 544 L243 544 C195 544 165 511 146 478 L146 744 L18 744 Z M146 402 C146 422 152 436 171 436 C190 436 196 423 196 402 L196 129 C196 108 190 94 171 94 C154 94 146 106 146 130 L146 402 Z " />
<glyph glyph-name="ydieresis" unicode="&#xff;" horiz-adv-x="315" d="M91 9 C94 -6 93 -10 92 -21 L90 -42 C87 -61 85 -69 68 -69 L15 -69 L15 -188 L131 -188 C170 -188 194 -163 205 -107 L318 538 L195 538 L160 241 L124 538 L-2 538 L91 9 Z M147 670 L47 670 L47 564 L147 564 L147 670 Z M271 670 L171 670 L171 564 L271 564 L271 670 Z " />
<glyph glyph-name="Amacron" unicode="&#x100;" horiz-adv-x="349" d="M222 0 L351 0 L250 744 L92 744 L-2 0 L116 0 L128 125 L208 125 L222 0 Z M167 508 L195 253 L141 253 L167 508 Z M74 777 L267 777 L267 865 L74 865 L74 777 Z " />
<glyph glyph-name="amacron" unicode="&#x101;" horiz-adv-x="339" d="M182 134 C182 113 174 102 158 102 C142 102 137 114 137 134 L137 199 C137 220 140 229 149 240 C158 251 175 261 182 265 L182 134 Z M14 88 C14 41 38 -5 87 -5 L91 -5 C139 -5 169 34 182 61 C182 17 194 0 219 0 L338 0 L338 114 L324 114 C308 114 305 118 305 129 L305 426 C305 495 277 544 169 544 L146 544 C42 544 20 485 20 438 L20 364 L134 364 L134 417 C134 436 139 446 156 446 L160 446 C175 446 182 440 182 417 L182 388 C182 373 179 371 174 368 C157 357 94 331 70 315 C31 291 14 261 14 205 L14 88 Z M63 576 L254 576 L254 663 L63 663 L63 576 Z " />
<glyph glyph-name="Abreve" unicode="&#x102;" horiz-adv-x="349" d="M222 0 L351 0 L250 744 L92 744 L-2 0 L116 0 L128 125 L208 125 L222 0 Z M167 508 L195 253 L141 253 L167 508 Z M172 767 C229 767 278 806 278 870 L278 875 L194 875 L194 872 C194 857 186 846 171 846 L169 846 C154 846 146 857 146 872 L146 875 L61 875 L61 870 C61 806 107 767 168 767 L172 767 L172 767 Z " />
<glyph glyph-name="abreve" unicode="&#x103;" horiz-adv-x="339" d="M182 134 C182 113 174 102 158 102 C142 102 137 114 137 134 L137 199 C137 220 140 229 149 240 C158 251 175 261 182 265 L182 134 Z M14 88 C14 41 38 -5 87 -5 L91 -5 C139 -5 169 34 182 61 C182 17 194 0 219 0 L338 0 L338 114 L324 114 C308 114 305 118 305 129 L305 426 C305 495 277 544 169 544 L146 544 C42 544 20 485 20 438 L20 364 L134 364 L134 417 C134 436 139 446 156 446 L160 446 C175 446 182 440 182 417 L182 388 C182 373 179 371 174 368 C157 357 94 331 70 315 C31 291 14 261 14 205 L14 88 Z M154 563 C211 563 260 600 260 672 L260 680 L177 680 L177 674 C177 652 169 641 153 641 L152 641 C136 641 128 652 128 674 L128 680 L43 680 L43 672 C43 600 87 563 151 563 L154 563 L154 563 Z " />
<glyph glyph-name="Aogonek" unicode="&#x104;" horiz-adv-x="349" d="M222 0 L351 0 L250 744 L92 744 L-2 0 L116 0 L128 125 L208 125 L222 0 Z M167 508 L195 253 L141 253 L167 508 Z M215 -124 C215 -167 250 -188 293 -188 L351 -188 L351 -108 L333 -108 C316 -108 307 -101 307 -88 L307 -84 C307 -60 318 -41 351 0 L289 0 C245 -39 215 -72 215 -109 L215 -124 Z " />
<glyph glyph-name="aogonek" unicode="&#x105;" horiz-adv-x="339" d="M182 134 C182 113 174 102 158 102 C142 102 137 114 137 134 L137 199 C137 220 140 229 149 240 C158 251 175 261 182 265 L182 134 Z M14 88 C14 41 38 -5 87 -5 L91 -5 C139 -5 169 34 182 61 C182 17 194 0 219 0 L338 0 L338 114 L324 114 C308 114 305 118 305 129 L305 426 C305 495 277 544 169 544 L146 544 C42 544 20 485 20 438 L20 364 L134 364 L134 417 C134 436 139 446 156 446 L160 446 C175 446 182 440 182 417 L182 388 C182 373 179 371 174 368 C157 357 94 331 70 315 C31 291 14 261 14 205 L14 88 Z M202 -124 C202 -167 237 -188 280 -188 L338 -188 L338 -108 L320 -108 C303 -108 294 -101 294 -88 L294 -84 C294 -60 305 -41 338 0 L276 0 C232 -39 202 -72 202 -109 L202 -124 Z " />
<glyph glyph-name="Cacute" unicode="&#x106;" horiz-adv-x="372" d="M140 771 L244 771 L289 885 L183 885 L140 771 Z M224 164 C224 137 215 119 191 119 C168 119 157 134 157 164 L157 584 C157 613 165 627 190 627 C215 627 224 612 224 584 L224 464 L356 464 L356 589 C356 674 330 753 202 753 L175 753 C58 753 18 674 18 584 L18 164 C18 71 47 -12 175 -12 L202 -12 C319 -12 356 72 356 160 L356 328 L224 328 L224 164 L224 164 Z " />
<glyph glyph-name="cacute" unicode="&#x107;" horiz-adv-x="322" d="M114 566 L217 566 L261 700 L156 700 L114 566 Z M190 241 L190 133 C190 114 185 102 166 102 C147 102 144 115 144 135 L144 406 C144 430 148 443 167 443 C187 443 191 428 191 405 L191 329 L309 329 L309 418 C309 492 278 548 179 548 L154 548 C55 548 15 489 15 400 L15 129 C15 49 56 -11 156 -11 L177 -11 C270 -11 309 51 309 125 L309 241 L190 241 Z " />
<glyph glyph-name="Ccircumflex" unicode="&#x108;" horiz-adv-x="372" d="M241 885 L139 885 L74 771 L163 771 L190 817 L218 771 L307 771 L241 885 Z M224 164 C224 137 215 119 191 119 C168 119 157 134 157 164 L157 584 C157 613 165 627 190 627 C215 627 224 612 224 584 L224 464 L356 464 L356 589 C356 674 330 753 202 753 L175 753 C58 753 18 674 18 584 L18 164 C18 71 47 -12 175 -12 L202 -12 C319 -12 356 72 356 160 L356 328 L224 328 L224 164 L224 164 Z " />
<glyph glyph-name="ccircumflex" unicode="&#x109;" horiz-adv-x="322" d="M219 700 L113 700 L52 566 L141 566 L166 626 L190 566 L281 566 L219 700 Z M190 241 L190 133 C190 114 185 102 166 102 C147 102 144 115 144 135 L144 406 C144 430 148 443 167 443 C187 443 191 428 191 405 L191 329 L309 329 L309 418 C309 492 278 548 179 548 L154 548 C55 548 15 489 15 400 L15 129 C15 49 56 -11 156 -11 L177 -11 C270 -11 309 51 309 125 L309 241 L190 241 Z " />
<glyph glyph-name="Cdotaccent" unicode="&#x10a;" horiz-adv-x="372" d="M254 896 L126 896 L126 771 L254 771 L254 896 Z M224 164 C224 137 215 119 191 119 C168 119 157 134 157 164 L157 584 C157 613 165 627 190 627 C215 627 224 612 224 584 L224 464 L356 464 L356 589 C356 674 330 753 202 753 L175 753 C58 753 18 674 18 584 L18 164 C18 71 47 -12 175 -12 L202 -12 C319 -12 356 72 356 160 L356 328 L224 328 L224 164 L224 164 Z " />
<glyph glyph-name="cdotaccent" unicode="&#x10b;" horiz-adv-x="322" d="M230 690 L102 690 L102 566 L230 566 L230 690 Z M190 241 L190 133 C190 114 185 102 166 102 C147 102 144 115 144 135 L144 406 C144 430 148 443 167 443 C187 443 191 428 191 405 L191 329 L309 329 L309 418 C309 492 278 548 179 548 L154 548 C55 548 15 489 15 400 L15 129 C15 49 56 -11 156 -11 L177 -11 C270 -11 309 51 309 125 L309 241 L190 241 Z " />
<glyph glyph-name="Ccaron" unicode="&#x10c;" horiz-adv-x="372" d="M139 771 L240 771 L306 885 L217 885 L190 837 L163 885 L73 885 L139 771 Z M224 164 C224 137 215 119 191 119 C168 119 157 134 157 164 L157 584 C157 613 165 627 190 627 C215 627 224 612 224 584 L224 464 L356 464 L356 589 C356 674 330 753 202 753 L175 753 C58 753 18 674 18 584 L18 164 C18 71 47 -12 175 -12 L202 -12 C319 -12 356 72 356 160 L356 328 L224 328 L224 164 L224 164 Z " />
<glyph glyph-name="ccaron" unicode="&#x10d;" horiz-adv-x="322" d="M114 566 L221 566 L282 700 L193 700 L168 638 L144 700 L53 700 L114 566 Z M190 241 L190 133 C190 114 185 102 166 102 C147 102 144 115 144 135 L144 406 C144 430 148 443 167 443 C187 443 191 428 191 405 L191 329 L309 329 L309 418 C309 492 278 548 179 548 L154 548 C55 548 15 489 15 400 L15 129 C15 49 56 -11 156 -11 L177 -11 C270 -11 309 51 309 125 L309 241 L190 241 Z " />
<glyph glyph-name="Dcaron" unicode="&#x10e;" horiz-adv-x="374" d="M21 0 L210 0 C318 0 355 58 355 165 L355 585 C355 698 310 744 210 744 L21 744 L21 0 Z M154 626 L184 626 C209 626 219 612 219 576 L219 176 C219 140 211 124 180 124 L154 124 L154 626 Z M122 770 L223 770 L289 885 L200 885 L173 837 L146 885 L56 885 L122 770 Z " />
<glyph glyph-name="dcaron" unicode="&#x10f;" horiz-adv-x="344" d="M343 594 L424 594 L436 744 L349 744 L343 594 Z M198 744 L198 478 C182 502 153 544 102 544 L97 544 C44 544 17 488 17 437 L17 104 C17 42 54 -11 107 -11 L109 -11 C156 -11 184 35 198 60 L198 0 L326 0 L326 744 L198 744 Z M198 143 C198 116 191 101 171 101 C152 101 146 115 146 138 L146 397 C146 422 154 434 171 434 C192 434 198 417 198 392 L198 143 Z " />
<glyph glyph-name="Dcroat" unicode="&#x110;" horiz-adv-x="377" d="M25 443 L0 443 L0 325 L25 325 L25 0 L214 0 C322 0 359 58 359 165 L359 585 C359 698 314 744 214 744 L25 744 L25 443 Z M158 325 L201 325 L201 443 L158 443 L158 626 L188 626 C213 626 223 612 223 576 L223 176 C223 140 215 124 184 124 L158 124 L158 325 Z " />
<glyph glyph-name="dcroat" unicode="&#x111;" horiz-adv-x="344" d="M123 583 L358 583 L358 674 L123 674 L123 583 Z M198 744 L198 478 C182 502 153 544 102 544 L97 544 C44 544 17 488 17 437 L17 104 C17 42 54 -11 107 -11 L109 -11 C156 -11 184 35 198 60 L198 0 L326 0 L326 744 L198 744 Z M198 143 C198 116 191 101 171 101 C152 101 146 115 146 138 L146 397 C146 422 154 434 171 434 C192 434 198 417 198 392 L198 143 Z " />
<glyph glyph-name="Emacron" unicode="&#x112;" horiz-adv-x="315" d="M21 744 L21 0 L306 0 L306 134 L154 134 L154 317 L268 317 L268 451 L154 451 L154 613 L299 613 L299 744 L21 744 Z M66 777 L259 777 L259 865 L66 865 L66 777 Z " />
<glyph glyph-name="emacron" unicode="&#x113;" horiz-adv-x="323" d="M150 548 C53 548 15 485 15 413 L15 117 C15 33 70 -10 150 -10 L174 -10 C250 -10 309 33 309 117 L309 215 L186 215 L186 135 C186 115 180 102 163 102 C144 102 138 114 138 135 L138 252 L309 252 L309 411 C309 502 264 548 174 548 L150 548 Z M138 413 C138 436 141 449 164 449 C185 449 190 436 190 413 L190 348 L138 348 L138 413 Z M67 578 L258 578 L258 665 L67 665 L67 578 Z " />
<glyph glyph-name="Ebreve" unicode="&#x114;" horiz-adv-x="315" d="M21 744 L21 0 L306 0 L306 134 L154 134 L154 317 L268 317 L268 451 L154 451 L154 613 L299 613 L299 744 L21 744 Z M167 767 C224 767 273 806 273 870 L273 875 L189 875 L189 872 C189 857 181 846 166 846 L164 846 C149 846 141 857 141 872 L141 875 L56 875 L56 870 C56 806 102 767 163 767 L167 767 L167 767 Z " />
<glyph glyph-name="ebreve" unicode="&#x115;" horiz-adv-x="323" d="M150 548 C53 548 15 485 15 413 L15 117 C15 33 70 -10 150 -10 L174 -10 C250 -10 309 33 309 117 L309 215 L186 215 L186 135 C186 115 180 102 163 102 C144 102 138 114 138 135 L138 252 L309 252 L309 411 C309 502 264 548 174 548 L150 548 Z M138 413 C138 436 141 449 164 449 C185 449 190 436 190 413 L190 348 L138 348 L138 413 Z M165 565 C222 565 271 602 271 674 L271 682 L188 682 L188 676 C188 654 180 643 164 643 L163 643 C147 643 139 654 139 676 L139 682 L54 682 L54 674 C54 602 98 565 162 565 L165 565 L165 565 Z " />
<glyph glyph-name="Edotaccent" unicode="&#x116;" horiz-adv-x="315" d="M21 744 L21 0 L306 0 L306 134 L154 134 L154 317 L268 317 L268 451 L154 451 L154 613 L299 613 L299 744 L21 744 Z M229 896 L101 896 L101 770 L229 770 L229 896 Z " />
<glyph glyph-name="edotaccent" unicode="&#x117;" horiz-adv-x="323" d="M226 690 L98 690 L98 566 L226 566 L226 690 Z M150 548 C53 548 15 485 15 413 L15 117 C15 33 70 -10 150 -10 L174 -10 C250 -10 309 33 309 117 L309 215 L186 215 L186 135 C186 115 180 102 163 102 C144 102 138 114 138 135 L138 252 L309 252 L309 411 C309 502 264 548 174 548 L150 548 Z M138 413 C138 436 141 449 164 449 C185 449 190 436 190 413 L190 348 L138 348 L138 413 Z " />
<glyph glyph-name="Eogonek" unicode="&#x118;" horiz-adv-x="315" d="M21 744 L21 0 L306 0 L306 134 L154 134 L154 317 L268 317 L268 451 L154 451 L154 613 L299 613 L299 744 L21 744 Z M125 -124 C125 -167 160 -188 203 -188 L261 -188 L261 -108 L243 -108 C226 -108 217 -101 217 -88 L217 -84 C217 -60 228 -41 261 0 L199 0 C155 -39 125 -72 125 -109 L125 -124 Z " />
<glyph glyph-name="eogonek" unicode="&#x119;" horiz-adv-x="323" d="M256 -1 C288 39 309 61 309 121 L309 215 L186 215 L186 135 C186 115 180 102 163 102 C144 102 138 114 138 135 L138 252 L309 252 L309 411 C309 502 264 548 174 548 L150 548 C53 548 15 485 15 413 L15 117 C15 33 70 -10 150 -10 L174 -10 C179 -10 183 -10 186 -9 C146 -44 121 -74 121 -109 L121 -124 C121 -167 156 -188 199 -188 L257 -188 L257 -108 L239 -108 C222 -108 213 -101 213 -88 L213 -84 C213 -59 225 -40 256 -1 L256 -1 Z M138 413 C138 436 141 449 164 449 C185 449 190 436 190 413 L190 348 L138 348 L138 413 Z " />
<glyph glyph-name="Ecaron" unicode="&#x11a;" horiz-adv-x="315" d="M21 744 L21 0 L306 0 L306 134 L154 134 L154 317 L268 317 L268 451 L154 451 L154 613 L299 613 L299 744 L21 744 Z M114 770 L215 770 L281 885 L192 885 L165 837 L138 885 L48 885 L114 770 Z " />
<glyph glyph-name="ecaron" unicode="&#x11b;" horiz-adv-x="323" d="M110 566 L217 566 L278 700 L189 700 L164 638 L140 700 L49 700 L110 566 Z M150 548 C53 548 15 485 15 413 L15 117 C15 33 70 -10 150 -10 L174 -10 C250 -10 309 33 309 117 L309 215 L186 215 L186 135 C186 115 180 102 163 102 C144 102 138 114 138 135 L138 252 L309 252 L309 411 C309 502 264 548 174 548 L150 548 Z M138 413 C138 436 141 449 164 449 C185 449 190 436 190 413 L190 348 L138 348 L138 413 Z " />
<glyph glyph-name="Gcircumflex" unicode="&#x11c;" horiz-adv-x="378" d="M240 885 L138 885 L73 771 L162 771 L189 817 L217 771 L306 771 L240 885 Z M149 -10 C216 -10 245 46 259 71 C267 48 275 17 279 0 L360 0 L360 450 L183 450 L183 325 L232 325 L232 165 C232 134 219 119 193 119 C169 119 157 135 157 167 L157 581 C157 612 168 628 190 628 C217 628 224 612 224 581 L224 498 L354 498 L354 580 C354 669 332 753 200 753 L173 753 C57 753 18 670 18 579 L18 136 C18 56 62 -10 139 -10 L149 -10 Z " />
<glyph glyph-name="gcircumflex" unicode="&#x11d;" horiz-adv-x="342" d="M196 -65 C196 -84 191 -92 172 -92 L167 -92 C148 -92 145 -84 145 -69 L145 -25 L22 -25 L22 -97 C22 -152 51 -195 161 -195 L179 -195 C298 -195 324 -130 324 -74 L324 538 L198 538 L198 473 C175 510 148 541 103 541 L102 541 C46 541 17 492 17 416 L17 95 C17 31 57 -10 109 -10 C149 -10 176 23 196 60 L196 -65 Z M196 129 C196 110 187 96 171 96 C152 96 147 109 147 128 L147 400 C147 419 152 433 171 433 C192 433 196 416 196 399 L196 129 Z M222 700 L116 700 L55 564 L144 564 L169 626 L193 564 L284 564 L222 700 Z " />
<glyph glyph-name="Gbreve" unicode="&#x11e;" horiz-adv-x="378" d="M149 -10 C216 -10 245 46 259 71 C267 48 275 17 279 0 L360 0 L360 450 L183 450 L183 325 L232 325 L232 165 C232 134 219 119 193 119 C169 119 157 135 157 167 L157 581 C157 612 168 628 190 628 C217 628 224 612 224 581 L224 498 L354 498 L354 580 C354 669 332 753 200 753 L173 753 C57 753 18 670 18 579 L18 136 C18 56 62 -10 139 -10 L149 -10 Z M190 768 C247 768 296 807 296 871 L296 876 L212 876 L212 873 C212 858 204 847 189 847 L187 847 C172 847 164 858 164 873 L164 876 L79 876 L79 871 C79 807 125 768 186 768 L190 768 L190 768 Z " />
<glyph glyph-name="gbreve" unicode="&#x11f;" horiz-adv-x="342" d="M196 -65 C196 -84 191 -92 172 -92 L167 -92 C148 -92 145 -84 145 -69 L145 -25 L22 -25 L22 -97 C22 -152 51 -195 161 -195 L179 -195 C298 -195 324 -130 324 -74 L324 538 L198 538 L198 473 C175 510 148 541 103 541 L102 541 C46 541 17 492 17 416 L17 95 C17 31 57 -10 109 -10 C149 -10 176 23 196 60 L196 -65 Z M196 129 C196 110 187 96 171 96 C152 96 147 109 147 128 L147 400 C147 419 152 433 171 433 C192 433 196 416 196 399 L196 129 Z M172 563 C229 563 278 600 278 672 L278 680 L195 680 L195 674 C195 652 187 641 171 641 L170 641 C154 641 146 652 146 674 L146 680 L61 680 L61 672 C61 600 105 563 169 563 L172 563 L172 563 Z " />
<glyph glyph-name="Gdotaccent" unicode="&#x120;" horiz-adv-x="378" d="M256 896 L128 896 L128 771 L256 771 L256 896 Z M149 -10 C216 -10 245 46 259 71 C267 48 275 17 279 0 L360 0 L360 450 L183 450 L183 325 L232 325 L232 165 C232 134 219 119 193 119 C169 119 157 135 157 167 L157 581 C157 612 168 628 190 628 C217 628 224 612 224 581 L224 498 L354 498 L354 580 C354 669 332 753 200 753 L173 753 C57 753 18 670 18 579 L18 136 C18 56 62 -10 139 -10 L149 -10 Z " />
<glyph glyph-name="gdotaccent" unicode="&#x121;" horiz-adv-x="342" d="M196 -65 C196 -84 191 -92 172 -92 L167 -92 C148 -92 145 -84 145 -69 L145 -25 L22 -25 L22 -97 C22 -152 51 -195 161 -195 L179 -195 C298 -195 324 -130 324 -74 L324 538 L198 538 L198 473 C175 510 148 541 103 541 L102 541 C46 541 17 492 17 416 L17 95 C17 31 57 -10 109 -10 C149 -10 176 23 196 60 L196 -65 Z M196 129 C196 110 187 96 171 96 C152 96 147 109 147 128 L147 400 C147 419 152 433 171 433 C192 433 196 416 196 399 L196 129 Z M234 690 L106 690 L106 564 L234 564 L234 690 Z " />
<glyph glyph-name="uni0122" unicode="&#x122;" horiz-adv-x="378" d="M149 -10 C216 -10 245 46 259 71 C267 48 275 17 279 0 L360 0 L360 450 L183 450 L183 325 L232 325 L232 165 C232 134 219 119 193 119 C169 119 157 135 157 167 L157 581 C157 612 168 628 190 628 C217 628 224 612 224 581 L224 498 L354 498 L354 580 C354 669 332 753 200 753 L173 753 C57 753 18 670 18 579 L18 136 C18 56 62 -10 139 -10 L149 -10 Z M221 -203 C228 -188 243 -152 243 -96 L243 -26 L141 -26 L141 -136 L184 -136 C181 -165 177 -187 170 -203 L221 -203 Z " />
<glyph glyph-name="uni0123" unicode="&#x123;" horiz-adv-x="342" d="M196 -65 C196 -84 191 -92 172 -92 L167 -92 C148 -92 145 -84 145 -69 L145 -25 L22 -25 L22 -97 C22 -152 51 -195 161 -195 L179 -195 C298 -195 324 -130 324 -74 L324 538 L198 538 L198 473 C175 510 148 541 103 541 L102 541 C46 541 17 492 17 416 L17 95 C17 31 57 -10 109 -10 C149 -10 176 23 196 60 L196 -65 Z M196 129 C196 110 187 96 171 96 C152 96 147 109 147 128 L147 400 C147 419 152 433 171 433 C192 433 196 416 196 399 L196 129 Z M139 742 C132 727 117 689 117 633 L117 564 L220 564 L220 673 L178 673 C181 702 187 725 192 742 L139 742 Z " />
<glyph glyph-name="Hcircumflex" unicode="&#x124;" horiz-adv-x="378" d="M154 314 L224 314 L224 0 L357 0 L357 744 L224 744 L224 460 L154 460 L154 744 L21 744 L21 0 L154 0 L154 314 Z M240 885 L138 885 L73 770 L162 770 L189 817 L217 770 L306 770 L240 885 Z " />
<glyph glyph-name="hcircumflex" unicode="&#x125;" horiz-adv-x="344" d="M18 0 L146 0 L146 394 C146 414 151 428 172 428 C192 428 197 414 197 398 L197 0 L326 0 L326 456 C326 504 296 540 247 540 L242 540 C197 540 165 505 146 476 L146 744 L18 744 L18 0 Z M211 885 L109 885 L44 770 L133 770 L160 817 L188 770 L277 770 L211 885 Z " />
<glyph glyph-name="Hbar" unicode="&#x126;" horiz-adv-x="378" d="M-4 550 L383 550 L383 651 L-4 651 L-4 550 Z M154 314 L224 314 L224 0 L357 0 L357 744 L224 744 L224 460 L154 460 L154 744 L21 744 L21 0 L154 0 L154 314 Z " />
<glyph glyph-name="hbar" unicode="&#x127;" horiz-adv-x="344" d="M-14 583 L221 583 L221 674 L-14 674 L-14 583 Z M18 0 L146 0 L146 394 C146 414 151 428 172 428 C192 428 197 414 197 398 L197 0 L326 0 L326 456 C326 504 296 540 247 540 L242 540 C197 540 165 505 146 476 L146 744 L18 744 L18 0 Z " />
<glyph glyph-name="Itilde" unicode="&#x128;" horiz-adv-x="175" d="M154 744 L21 744 L21 0 L154 0 L154 744 Z M85 787 C108 776 122 773 139 773 C166 773 196 793 196 849 L196 883 L124 883 L124 867 C124 860 122 857 118 857 C113 857 108 859 91 867 C71 876 57 880 37 880 C2 880 -20 854 -20 803 L-20 769 L52 769 L52 785 C52 792 55 796 60 796 C67 796 73 792 85 787 L85 787 Z " />
<glyph glyph-name="itilde" unicode="&#x129;" horiz-adv-x="164" d="M112 678 L112 661 C112 654 110 651 107 651 C104 651 101 651 89 658 C65 670 50 676 30 676 C6 676 -14 660 -14 620 L-14 563 L54 563 L54 581 C54 588 56 592 59 592 C63 592 66 591 78 584 C103 571 116 564 137 564 C160 564 180 581 180 612 L180 678 L112 678 Z M147 538 L19 538 L19 0 L147 0 L147 538 Z " />
<glyph glyph-name="Imacron" unicode="&#x12a;" horiz-adv-x="175" d="M154 744 L21 744 L21 0 L154 0 L154 744 Z M-9 777 L184 777 L184 865 L-9 865 L-9 777 Z " />
<glyph glyph-name="imacron" unicode="&#x12b;" horiz-adv-x="164" d="M-4 576 L168 576 L168 664 L-4 664 L-4 576 Z M146 538 L18 538 L18 0 L146 0 L146 538 Z " />
<glyph glyph-name="Ibreve" unicode="&#x12c;" horiz-adv-x="175" d="M154 744 L21 744 L21 0 L154 0 L154 744 Z M90 767 C147 767 196 806 196 870 L196 875 L112 875 L112 872 C112 857 104 846 89 846 L87 846 C72 846 64 857 64 872 L64 875 L-21 875 L-21 870 C-21 806 25 767 86 767 L90 767 L90 767 Z " />
<glyph glyph-name="ibreve" unicode="&#x12d;" horiz-adv-x="164" d="M85 563 C152 563 178 604 178 657 L178 680 L100 680 L100 664 C100 649 94 641 83 641 C72 641 66 649 66 664 L66 680 L-14 680 L-14 657 C-14 604 9 563 81 563 L85 563 L85 563 Z M146 538 L18 538 L18 0 L146 0 L146 538 Z " />
<glyph glyph-name="Iogonek" unicode="&#x12e;" horiz-adv-x="175" d="M154 744 L21 744 L21 0 L154 0 L154 744 Z M18 -124 C18 -167 53 -188 96 -188 L154 -188 L154 -108 L136 -108 C119 -108 110 -101 110 -88 L110 -84 C110 -60 121 -41 154 0 L92 0 C48 -39 18 -72 18 -109 L18 -124 Z " />
<glyph glyph-name="iogonek" unicode="&#x12f;" horiz-adv-x="164" d="M146 538 L18 538 L18 0 L146 0 L146 538 Z M146 690 L18 690 L18 564 L146 564 L146 690 Z M10 -124 C10 -167 45 -188 88 -188 L146 -188 L146 -108 L128 -108 C111 -108 102 -101 102 -88 L102 -84 C102 -60 113 -41 146 0 L84 0 C40 -39 10 -72 10 -109 L10 -124 Z " />
<glyph glyph-name="Idotaccent" unicode="&#x130;" horiz-adv-x="175" d="M154 744 L21 744 L21 0 L154 0 L154 744 Z M152 896 L24 896 L24 770 L152 770 L152 896 Z " />
<glyph glyph-name="dotlessi" unicode="&#x131;" horiz-adv-x="164" d="M146 538 L18 538 L18 0 L146 0 L146 538 Z " />
<glyph glyph-name="IJ" unicode="&#x132;" horiz-adv-x="525" d="M154 744 L21 744 L21 0 L154 0 L154 744 Z M184 327 L184 137 C184 33 232 -8 320 -8 L364 -8 C452 -8 505 47 505 151 L505 744 L367 744 L367 155 C367 136 361 122 342 122 L338 122 C321 122 312 133 312 155 L312 327 L184 327 Z " />
<glyph glyph-name="ij" unicode="&#x133;" horiz-adv-x="325" d="M146 538 L18 538 L18 0 L146 0 L146 538 Z M146 690 L18 690 L18 564 L146 564 L146 690 Z M307 690 L179 690 L179 564 L307 564 L307 690 Z M109 -69 L109 -188 L233 -188 C280 -188 307 -155 307 -116 L307 538 L179 538 L179 -48 C179 -65 174 -69 161 -69 L109 -69 Z " />
<glyph glyph-name="Jcircumflex" unicode="&#x134;" horiz-adv-x="354" d="M13 327 L13 137 C13 33 61 -8 149 -8 L193 -8 C281 -8 334 47 334 151 L334 744 L196 744 L196 155 C196 136 190 122 171 122 L167 122 C150 122 141 133 141 155 L141 327 L13 327 Z M312 885 L210 885 L145 770 L234 770 L261 817 L289 770 L378 770 L312 885 Z " />
<glyph glyph-name="jcircumflex" unicode="&#x135;" horiz-adv-x="165" d="M134 700 L28 700 L-24 564 L61 564 L81 630 L100 564 L186 564 L134 700 Z M-51 -69 L-51 -188 L73 -188 C120 -188 147 -155 147 -116 L147 538 L19 538 L19 -48 C19 -65 14 -69 1 -69 L-51 -69 Z " />
<glyph glyph-name="uni0136" unicode="&#x136;" horiz-adv-x="376" d="M154 315 L243 0 L383 0 L267 406 L372 744 L241 744 L154 458 L154 744 L21 744 L21 0 L154 0 L154 315 Z M229 -203 C236 -188 251 -152 251 -96 L251 -26 L149 -26 L149 -136 L192 -136 C189 -165 185 -187 178 -203 L229 -203 Z " />
<glyph glyph-name="uni0137" unicode="&#x137;" horiz-adv-x="346" d="M146 351 L146 744 L18 744 L18 0 L146 0 L146 239 L223 0 L350 0 L248 312 L343 538 L221 538 L146 351 Z M213 -203 C220 -188 235 -152 235 -96 L235 -26 L133 -26 L133 -136 L176 -136 C173 -165 169 -187 162 -203 L213 -203 Z " />
<glyph glyph-name="Lacute" unicode="&#x139;" horiz-adv-x="304" d="M21 744 L21 0 L295 0 L295 134 L154 134 L154 744 L21 744 Z M36 770 L140 770 L185 885 L79 885 L36 770 Z " />
<glyph glyph-name="lacute" unicode="&#x13a;" horiz-adv-x="164" d="M146 744 L18 744 L18 0 L146 0 L146 744 Z M30 770 L134 770 L179 885 L73 885 L30 770 Z " />
<glyph glyph-name="uni013B" unicode="&#x13b;" horiz-adv-x="304" d="M21 744 L21 0 L295 0 L295 134 L154 134 L154 744 L21 744 Z M190 -203 C197 -188 212 -152 212 -96 L212 -26 L110 -26 L110 -136 L153 -136 C150 -165 146 -187 139 -203 L190 -203 Z " />
<glyph glyph-name="uni013C" unicode="&#x13c;" horiz-adv-x="164" d="M146 744 L18 744 L18 0 L146 0 L146 744 Z M114 -203 C121 -188 136 -152 136 -96 L136 -26 L34 -26 L34 -136 L77 -136 C74 -165 70 -187 63 -203 L114 -203 Z " />
<glyph glyph-name="Lcaron" unicode="&#x13d;" horiz-adv-x="304" d="M171 594 L252 594 L264 744 L177 744 L171 594 Z M21 744 L21 0 L295 0 L295 134 L154 134 L154 744 L21 744 Z " />
<glyph glyph-name="lcaron" unicode="&#x13e;" horiz-adv-x="164" d="M146 744 L18 744 L18 0 L146 0 L146 744 Z M163 594 L244 594 L256 744 L169 744 L163 594 Z " />
<glyph glyph-name="Ldot" unicode="&#x13f;" horiz-adv-x="311" d="M299 458 L181 458 L181 314 L299 314 L299 458 Z M21 744 L21 0 L295 0 L295 134 L154 134 L154 744 L21 744 Z " />
<glyph glyph-name="ldot" unicode="&#x140;" horiz-adv-x="291" d="M285 458 L167 458 L167 314 L285 314 L285 458 Z M146 744 L18 744 L18 0 L146 0 L146 744 Z " />
<glyph glyph-name="Lslash" unicode="&#x141;" horiz-adv-x="320" d="M36 744 L36 348 L3 325 L3 219 L36 241 L36 0 L310 0 L310 134 L169 134 L169 332 L264 397 L264 507 L169 440 L169 744 L36 744 Z " />
<glyph glyph-name="lslash" unicode="&#x142;" horiz-adv-x="189" d="M158 420 L186 440 L186 542 L158 522 L158 744 L30 744 L30 431 L3 412 L3 312 L30 331 L30 0 L158 0 L158 420 Z " />
<glyph glyph-name="Nacute" unicode="&#x143;" horiz-adv-x="376" d="M21 744 L21 0 L139 0 L139 408 L242 0 L355 0 L355 744 L237 744 L237 364 L146 744 L21 744 Z M137 770 L241 770 L286 885 L180 885 L137 770 Z " />
<glyph glyph-name="nacute" unicode="&#x144;" horiz-adv-x="344" d="M18 0 L146 0 L146 392 C146 415 151 428 172 428 C192 428 197 415 197 396 L197 0 L326 0 L326 450 C326 483 309 540 249 540 L242 540 C198 540 169 509 145 473 L145 538 L18 538 L18 0 Z M120 564 L223 564 L267 700 L162 700 L120 564 Z " />
<glyph glyph-name="uni0145" unicode="&#x145;" horiz-adv-x="376" d="M21 744 L21 0 L139 0 L139 408 L242 0 L355 0 L355 744 L237 744 L237 364 L146 744 L21 744 Z M218 -203 C225 -188 240 -152 240 -96 L240 -26 L138 -26 L138 -136 L181 -136 C178 -165 174 -187 167 -203 L218 -203 Z " />
<glyph glyph-name="uni0146" unicode="&#x146;" horiz-adv-x="344" d="M18 0 L146 0 L146 392 C146 415 151 428 172 428 C192 428 197 415 197 396 L197 0 L326 0 L326 450 C326 483 309 540 249 540 L242 540 C198 540 169 509 145 473 L145 538 L18 538 L18 0 Z M203 -203 C210 -188 225 -152 225 -96 L225 -26 L123 -26 L123 -136 L166 -136 C163 -165 159 -187 152 -203 L203 -203 Z " />
<glyph glyph-name="Ncaron" unicode="&#x147;" horiz-adv-x="376" d="M21 744 L21 0 L139 0 L139 408 L242 0 L355 0 L355 744 L237 744 L237 364 L146 744 L21 744 Z M139 770 L240 770 L306 885 L217 885 L190 837 L163 885 L73 885 L139 770 Z " />
<glyph glyph-name="ncaron" unicode="&#x148;" horiz-adv-x="344" d="M18 0 L146 0 L146 392 C146 415 151 428 172 428 C192 428 197 415 197 396 L197 0 L326 0 L326 450 C326 483 309 540 249 540 L242 540 C198 540 169 509 145 473 L145 538 L18 538 L18 0 Z M119 564 L224 564 L286 700 L197 700 L172 638 L148 700 L57 700 L119 564 Z " />
<glyph glyph-name="napostrophe" unicode="&#x149;" horiz-adv-x="436" d="M110 0 L238 0 L238 392 C238 415 243 428 264 428 C284 428 289 415 289 396 L289 0 L418 0 L418 450 C418 483 401 540 341 540 L334 540 C290 540 261 509 237 473 L237 538 L110 538 L110 0 Z M89 524 C98 545 113 590 113 641 L113 744 L2 744 L2 616 L45 616 C44 589 35 552 26 524 L89 524 Z " />
<glyph glyph-name="Eng" unicode="&#x14a;" horiz-adv-x="376" d="M276 -188 C324 -188 355 -161 355 -101 L355 744 L239 744 L239 340 L146 744 L21 744 L21 0 L139 0 L139 412 L242 0 L242 -44 C242 -62 234 -71 219 -71 L180 -71 L180 -188 L276 -188 L276 -188 Z " />
<glyph glyph-name="eng" unicode="&#x14b;" horiz-adv-x="344" d="M197 -48 C197 -65 192 -69 179 -69 L157 -69 L157 -188 L252 -188 C299 -188 326 -155 326 -116 L326 450 C326 483 310 540 251 540 L239 540 C198 540 169 510 142 470 L142 538 L18 538 L18 0 L146 0 L146 392 C146 415 151 428 172 428 C192 428 197 415 197 396 L197 -48 Z " />
<glyph glyph-name="Omacron" unicode="&#x14c;" horiz-adv-x="385" d="M367 564 C367 678 325 753 208 753 L178 753 C63 753 18 678 18 563 L18 170 C18 53 74 -11 179 -11 L209 -11 C309 -11 367 61 367 170 L367 564 Z M228 166 C228 143 221 122 194 122 C166 122 157 143 157 166 L157 574 C157 607 166 623 193 623 C216 623 228 607 228 574 L228 166 Z M96 778 L289 778 L289 866 L96 866 L96 778 Z " />
<glyph glyph-name="omacron" unicode="&#x14d;" horiz-adv-x="341" d="M15 142 C15 56 56 -10 155 -10 L185 -10 C273 -10 326 56 326 144 L326 399 C326 495 273 548 185 548 L155 548 C67 548 15 494 15 397 L15 142 L15 142 Z M144 400 C144 423 150 437 170 437 C191 437 197 423 197 400 L197 144 C197 124 193 106 170 106 C149 106 144 123 144 144 L144 400 L144 400 Z M75 578 L266 578 L266 665 L75 665 L75 578 Z " />
<glyph glyph-name="Obreve" unicode="&#x14e;" horiz-adv-x="385" d="M367 564 C367 678 325 753 208 753 L178 753 C63 753 18 678 18 563 L18 170 C18 53 74 -11 179 -11 L209 -11 C309 -11 367 61 367 170 L367 564 Z M228 166 C228 143 221 122 194 122 C166 122 157 143 157 166 L157 574 C157 607 166 623 193 623 C216 623 228 607 228 574 L228 166 Z M195 768 C252 768 301 807 301 871 L301 876 L217 876 L217 873 C217 858 209 847 194 847 L192 847 C177 847 169 858 169 873 L169 876 L84 876 L84 871 C84 807 130 768 191 768 L195 768 L195 768 Z " />
<glyph glyph-name="obreve" unicode="&#x14f;" horiz-adv-x="341" d="M15 142 C15 56 56 -10 155 -10 L185 -10 C273 -10 326 56 326 144 L326 399 C326 495 273 548 185 548 L155 548 C67 548 15 494 15 397 L15 142 L15 142 Z M144 400 C144 423 150 437 170 437 C191 437 197 423 197 400 L197 144 C197 124 193 106 170 106 C149 106 144 123 144 144 L144 400 L144 400 Z M173 565 C230 565 279 602 279 674 L279 682 L196 682 L196 676 C196 654 188 643 172 643 L171 643 C155 643 147 654 147 676 L147 682 L62 682 L62 674 C62 602 106 565 170 565 L173 565 L173 565 Z " />
<glyph glyph-name="Ohungarumlaut" unicode="&#x150;" horiz-adv-x="385" d="M95 771 L182 771 L209 885 L119 885 L95 771 Z M206 771 L292 771 L321 885 L232 885 L206 771 Z M367 564 C367 678 325 753 208 753 L178 753 C63 753 18 678 18 563 L18 170 C18 53 74 -11 179 -11 L209 -11 C309 -11 367 61 367 170 L367 564 Z M228 166 C228 143 221 122 194 122 C166 122 157 143 157 166 L157 574 C157 607 166 623 193 623 C216 623 228 607 228 574 L228 166 Z " />
<glyph glyph-name="ohungarumlaut" unicode="&#x151;" horiz-adv-x="341" d="M80 566 L166 566 L192 700 L104 700 L80 566 Z M189 566 L274 566 L302 700 L214 700 L189 566 Z M15 142 C15 56 56 -10 155 -10 L185 -10 C273 -10 326 56 326 144 L326 399 C326 495 273 548 185 548 L155 548 C67 548 15 494 15 397 L15 142 L15 142 Z M144 400 C144 423 150 437 170 437 C191 437 197 423 197 400 L197 144 C197 124 193 106 170 106 C149 106 144 123 144 144 L144 400 L144 400 Z " />
<glyph glyph-name="OE" unicode="&#x152;" horiz-adv-x="518" d="M18 172 C18 47 64 -10 136 -10 C187 -10 217 16 233 45 L233 0 L509 0 L509 134 L361 134 L361 316 L468 316 L468 451 L361 451 L361 612 L499 612 L499 744 L233 744 L233 701 C219 721 196 751 140 751 C55 751 18 675 18 571 L18 172 Z M228 176 C228 143 220 122 193 122 C166 122 157 141 157 176 L157 569 C157 602 166 623 193 623 C220 623 228 602 228 569 L228 176 Z " />
<glyph glyph-name="oe" unicode="&#x153;" horiz-adv-x="505" d="M491 252 L491 410 C491 502 444 548 360 548 L333 548 C298 548 269 532 257 517 C245 532 214 548 178 548 L152 548 C64 548 15 494 15 397 L15 142 C15 56 56 -10 153 -10 L177 -10 C216 -10 239 8 252 21 C264 6 297 -12 329 -12 L356 -12 C432 -12 491 32 491 116 L491 215 L369 215 L369 134 C369 113 361 102 345 102 C326 102 320 113 320 134 L320 252 L491 252 Z M144 400 C144 423 150 437 170 437 C191 437 197 423 197 400 L197 144 C197 124 193 106 170 106 C149 106 144 123 144 144 L144 400 Z M320 412 C320 435 323 448 346 448 C369 448 372 435 372 412 L372 348 L320 348 L320 412 Z " />
<glyph glyph-name="Racute" unicode="&#x154;" horiz-adv-x="369" d="M154 629 L184 629 C211 629 217 619 217 587 L217 486 C217 451 207 441 180 441 L154 441 L154 629 Z M154 318 L182 318 C209 318 217 309 217 274 L217 57 C217 24 222 8 229 0 L362 0 L362 5 C357 14 351 28 351 60 L351 313 C351 368 315 393 294 401 C319 412 353 439 353 501 L353 620 C353 700 312 744 231 744 L21 744 L21 0 L154 0 L154 318 Z M126 770 L230 770 L275 885 L169 885 L126 770 Z " />
<glyph glyph-name="racute" unicode="&#x155;" horiz-adv-x="308" d="M145 538 L18 538 L18 0 L146 0 L146 403 C146 420 149 429 162 429 C175 429 178 422 178 403 L178 280 L297 280 L297 475 C297 515 279 541 236 541 L230 541 C178 541 153 493 145 471 L145 538 Z M112 564 L215 564 L259 700 L154 700 L112 564 Z " />
<glyph glyph-name="uni0156" unicode="&#x156;" horiz-adv-x="369" d="M154 629 L184 629 C211 629 217 619 217 587 L217 486 C217 451 207 441 180 441 L154 441 L154 629 Z M154 318 L182 318 C209 318 217 309 217 274 L217 57 C217 24 222 8 229 0 L362 0 L362 5 C357 14 351 28 351 60 L351 313 C351 368 315 393 294 401 C319 412 353 439 353 501 L353 620 C353 700 312 744 231 744 L21 744 L21 0 L154 0 L154 318 Z M218 -203 C225 -188 240 -152 240 -96 L240 -26 L138 -26 L138 -136 L181 -136 C178 -165 174 -187 167 -203 L218 -203 Z " />
<glyph glyph-name="uni0157" unicode="&#x157;" horiz-adv-x="308" d="M145 538 L18 538 L18 0 L146 0 L146 403 C146 420 149 429 162 429 C175 429 178 422 178 403 L178 280 L297 280 L297 475 C297 515 279 541 236 541 L230 541 C178 541 153 493 145 471 L145 538 Z M110 -203 C117 -188 132 -152 132 -96 L132 -26 L30 -26 L30 -136 L73 -136 C70 -165 66 -187 59 -203 L110 -203 Z " />
<glyph glyph-name="Rcaron" unicode="&#x158;" horiz-adv-x="369" d="M154 629 L184 629 C211 629 217 619 217 587 L217 486 C217 451 207 441 180 441 L154 441 L154 629 Z M154 318 L182 318 C209 318 217 309 217 274 L217 57 C217 24 222 8 229 0 L362 0 L362 5 C357 14 351 28 351 60 L351 313 C351 368 315 393 294 401 C319 412 353 439 353 501 L353 620 C353 700 312 744 231 744 L21 744 L21 0 L154 0 L154 318 Z M127 770 L228 770 L294 885 L205 885 L178 837 L151 885 L61 885 L127 770 Z " />
<glyph glyph-name="rcaron" unicode="&#x159;" horiz-adv-x="308" d="M145 538 L18 538 L18 0 L146 0 L146 403 C146 420 149 429 162 429 C175 429 178 422 178 403 L178 280 L297 280 L297 475 C297 515 279 541 236 541 L230 541 C178 541 153 493 145 471 L145 538 Z M112 564 L217 564 L279 700 L190 700 L165 638 L141 700 L50 700 L112 564 Z " />
<glyph glyph-name="Sacute" unicode="&#x15a;" horiz-adv-x="359" d="M130 771 L234 771 L279 885 L173 885 L130 771 Z M168 753 C75 753 17 701 17 605 L17 573 C17 501 32 444 88 384 L165 299 C205 256 208 235 208 183 L208 169 C208 133 197 115 175 115 C152 115 141 130 141 160 L141 279 L10 279 L10 145 C10 45 61 -9 162 -9 L188 -9 C299 -9 350 63 350 175 L350 210 C350 275 336 325 269 401 L193 486 C160 523 152 547 152 582 L152 599 C152 624 158 639 181 639 C205 639 210 624 210 600 L210 507 L338 507 L338 607 C338 707 299 753 195 753 L168 753 Z " />
<glyph glyph-name="sacute" unicode="&#x15b;" horiz-adv-x="302" d="M103 566 L206 566 L250 700 L145 700 L103 566 Z M289 446 C289 506 258 548 167 548 L140 548 C55 548 14 500 14 428 L14 411 C14 355 26 316 74 269 L142 204 C166 181 170 164 170 137 L170 125 C170 104 163 94 149 94 L148 94 C133 94 125 104 125 124 L125 196 L7 196 L7 108 C7 43 44 -9 137 -9 L163 -9 C255 -9 296 54 296 129 L296 147 C296 204 282 241 227 296 L156 366 C137 385 133 394 133 418 L133 429 C133 445 137 457 154 457 C170 457 175 446 175 429 L175 373 L289 373 L289 446 L289 446 Z " />
<glyph glyph-name="Scircumflex" unicode="&#x15c;" horiz-adv-x="359" d="M234 885 L132 885 L67 771 L156 771 L183 817 L211 771 L300 771 L234 885 Z M168 753 C75 753 17 701 17 605 L17 573 C17 501 32 444 88 384 L165 299 C205 256 208 235 208 183 L208 169 C208 133 197 115 175 115 C152 115 141 130 141 160 L141 279 L10 279 L10 145 C10 45 61 -9 162 -9 L188 -9 C299 -9 350 63 350 175 L350 210 C350 275 336 325 269 401 L193 486 C160 523 152 547 152 582 L152 599 C152 624 158 639 181 639 C205 639 210 624 210 600 L210 507 L338 507 L338 607 C338 707 299 753 195 753 L168 753 Z " />
<glyph glyph-name="scircumflex" unicode="&#x15d;" horiz-adv-x="302" d="M208 700 L102 700 L41 566 L130 566 L155 626 L179 566 L270 566 L208 700 Z M289 446 C289 506 258 548 167 548 L140 548 C55 548 14 500 14 428 L14 411 C14 355 26 316 74 269 L142 204 C166 181 170 164 170 137 L170 125 C170 104 163 94 149 94 L148 94 C133 94 125 104 125 124 L125 196 L7 196 L7 108 C7 43 44 -9 137 -9 L163 -9 C255 -9 296 54 296 129 L296 147 C296 204 282 241 227 296 L156 366 C137 385 133 394 133 418 L133 429 C133 445 137 457 154 457 C170 457 175 446 175 429 L175 373 L289 373 L289 446 L289 446 Z " />
<glyph glyph-name="uni015E" unicode="&#x15e;" horiz-adv-x="359" d="M168 753 C75 753 17 701 17 605 L17 573 C17 501 32 444 88 384 L165 299 C205 256 208 235 208 183 L208 169 C208 133 197 115 175 115 C152 115 141 130 141 160 L141 279 L10 279 L10 145 C10 45 61 -9 162 -9 L188 -9 C299 -9 350 63 350 175 L350 210 C350 275 336 325 269 401 L193 486 C160 523 152 547 152 582 L152 599 C152 624 158 639 181 639 C205 639 210 624 210 600 L210 507 L338 507 L338 607 C338 707 299 753 195 753 L168 753 Z M165 -188 C221 -188 261 -163 261 -111 L261 -108 C261 -62 235 -38 182 -36 L179 -36 L179 0 L119 0 L119 -92 L154 -92 C169 -92 176 -97 176 -107 L176 -108 C176 -119 169 -125 154 -125 L104 -125 L104 -188 L165 -188 L165 -188 Z " />
<glyph glyph-name="uni015F" unicode="&#x15f;" horiz-adv-x="302" d="M289 446 C289 506 258 548 167 548 L140 548 C55 548 14 500 14 428 L14 411 C14 355 26 316 74 269 L142 204 C166 181 170 164 170 137 L170 125 C170 104 163 94 149 94 L148 94 C133 94 125 104 125 124 L125 196 L7 196 L7 108 C7 43 44 -9 137 -9 L163 -9 C255 -9 296 54 296 129 L296 147 C296 204 282 241 227 296 L156 366 C137 385 133 394 133 418 L133 429 C133 445 137 457 154 457 C170 457 175 446 175 429 L175 373 L289 373 L289 446 L289 446 Z M138 -188 C194 -188 234 -163 234 -111 L234 -108 C234 -62 208 -38 155 -36 L152 -36 L152 0 L92 0 L92 -92 L127 -92 C142 -92 149 -97 149 -107 L149 -108 C149 -119 142 -125 127 -125 L77 -125 L77 -188 L138 -188 L138 -188 Z " />
<glyph glyph-name="Scaron" unicode="&#x160;" horiz-adv-x="359" d="M168 753 C75 753 17 701 17 605 L17 573 C17 501 32 444 88 384 L165 299 C205 256 208 235 208 183 L208 169 C208 133 197 115 175 115 C152 115 141 130 141 160 L141 279 L10 279 L10 145 C10 45 61 -9 162 -9 L188 -9 C299 -9 350 63 350 175 L350 210 C350 275 336 325 269 401 L193 486 C160 523 152 547 152 582 L152 599 C152 624 158 639 181 639 C205 639 210 624 210 600 L210 507 L338 507 L338 607 C338 707 299 753 195 753 L168 753 Z M131 771 L232 771 L298 886 L209 886 L182 838 L155 886 L65 886 L131 771 Z " />
<glyph glyph-name="scaron" unicode="&#x161;" horiz-adv-x="302" d="M289 446 C289 506 258 548 167 548 L140 548 C55 548 14 500 14 428 L14 411 C14 355 26 316 74 269 L142 204 C166 181 170 164 170 137 L170 125 C170 104 163 94 149 94 L148 94 C133 94 125 104 125 124 L125 196 L7 196 L7 108 C7 43 44 -9 137 -9 L163 -9 C255 -9 296 54 296 129 L296 147 C296 204 282 241 227 296 L156 366 C137 385 133 394 133 418 L133 429 C133 445 137 457 154 457 C170 457 175 446 175 429 L175 373 L289 373 L289 446 L289 446 Z M102 566 L207 566 L269 702 L180 702 L155 640 L131 702 L40 702 L102 566 Z " />
<glyph glyph-name="Tcommaaccent" unicode="&#x162;" horiz-adv-x="339" d="M199 -203 C206 -188 221 -152 221 -96 L221 -26 L119 -26 L119 -136 L162 -136 C159 -165 155 -187 148 -203 L199 -203 Z M8 744 L8 613 L103 613 L103 0 L236 0 L236 613 L331 613 L331 744 L8 744 Z " />
<glyph glyph-name="tcommaaccent" unicode="&#x163;" horiz-adv-x="267" d="M256 0 L256 121 L213 121 C196 121 194 128 194 143 L194 419 L256 419 L256 538 L194 538 L194 716 L67 716 L67 538 L6 538 L6 419 L67 419 L67 66 C67 27 93 0 128 0 L256 0 Z M200 -203 C207 -188 222 -152 222 -96 L222 -26 L120 -26 L120 -136 L163 -136 C160 -165 156 -187 149 -203 L200 -203 Z " />
<glyph glyph-name="Tcaron" unicode="&#x164;" horiz-adv-x="339" d="M8 744 L8 613 L103 613 L103 0 L236 0 L236 613 L331 613 L331 744 L8 744 Z M119 770 L220 770 L286 885 L197 885 L170 837 L143 885 L53 885 L119 770 Z " />
<glyph glyph-name="tcaron" unicode="&#x165;" horiz-adv-x="267" d="M211 594 L292 594 L304 744 L217 744 L211 594 Z M256 0 L256 121 L213 121 C196 121 194 128 194 143 L194 419 L256 419 L256 538 L194 538 L194 716 L67 716 L67 538 L6 538 L6 419 L67 419 L67 66 C67 27 93 0 128 0 L256 0 Z " />
<glyph glyph-name="Tbar" unicode="&#x166;" horiz-adv-x="339" d="M304 349 L304 463 L35 463 L35 349 L304 349 Z M8 744 L8 613 L103 613 L103 0 L236 0 L236 613 L331 613 L331 744 L8 744 Z " />
<glyph glyph-name="tbar" unicode="&#x167;" horiz-adv-x="267" d="M256 0 L256 121 L213 121 C196 121 194 128 194 143 L194 235 L256 235 L256 339 L194 339 L194 419 L256 419 L256 538 L194 538 L194 716 L67 716 L67 538 L6 538 L6 419 L67 419 L67 339 L6 339 L6 235 L67 235 L67 66 C67 27 93 0 128 0 L256 0 Z " />
<glyph glyph-name="Utilde" unicode="&#x168;" horiz-adv-x="379" d="M20 173 C20 49 75 -11 172 -11 L205 -11 C301 -11 359 49 359 173 L359 744 L222 744 L222 168 C222 137 211 122 190 122 C168 122 157 137 157 168 L157 744 L20 744 L20 173 Z M190 787 C213 776 227 773 244 773 C271 773 301 793 301 849 L301 883 L229 883 L229 867 C229 860 227 857 223 857 C218 857 213 859 196 867 C176 876 162 880 142 880 C107 880 85 854 85 803 L85 769 L157 769 L157 785 C157 792 160 796 165 796 C172 796 178 792 190 787 L190 787 Z " />
<glyph glyph-name="utilde" unicode="&#x169;" horiz-adv-x="339" d="M321 538 L194 538 L194 146 C194 125 189 110 169 110 C152 110 147 124 147 143 L147 538 L18 538 L18 91 C18 48 45 -2 96 -2 L100 -2 C147 -2 173 30 197 66 L197 0 L321 0 L321 538 Z M208 678 L208 662 C208 655 206 652 202 652 C197 652 194 653 179 660 C152 672 143 678 120 678 C85 678 65 650 65 610 L65 563 L137 563 L137 579 C137 586 137 591 144 591 C149 591 152 589 167 582 C195 567 204 563 227 563 C260 563 281 589 281 622 L281 678 L208 678 Z " />
<glyph glyph-name="Umacron" unicode="&#x16a;" horiz-adv-x="379" d="M20 173 C20 49 75 -11 172 -11 L205 -11 C301 -11 359 49 359 173 L359 744 L222 744 L222 168 C222 137 211 122 190 122 C168 122 157 137 157 168 L157 744 L20 744 L20 173 Z M93 777 L286 777 L286 865 L93 865 L93 777 Z " />
<glyph glyph-name="umacron" unicode="&#x16b;" horiz-adv-x="339" d="M321 538 L194 538 L194 146 C194 125 189 110 169 110 C152 110 147 124 147 143 L147 538 L18 538 L18 91 C18 48 45 -2 96 -2 L100 -2 C147 -2 173 30 197 66 L197 0 L321 0 L321 538 Z M75 576 L266 576 L266 663 L75 663 L75 576 Z " />
<glyph glyph-name="Ubreve" unicode="&#x16c;" horiz-adv-x="379" d="M20 173 C20 49 75 -11 172 -11 L205 -11 C301 -11 359 49 359 173 L359 744 L222 744 L222 168 C222 137 211 122 190 122 C168 122 157 137 157 168 L157 744 L20 744 L20 173 Z M192 767 C249 767 298 806 298 870 L298 875 L214 875 L214 872 C214 857 206 846 191 846 L189 846 C174 846 166 857 166 872 L166 875 L81 875 L81 870 C81 806 127 767 188 767 L192 767 L192 767 Z " />
<glyph glyph-name="ubreve" unicode="&#x16d;" horiz-adv-x="339" d="M321 538 L194 538 L194 146 C194 125 189 110 169 110 C152 110 147 124 147 143 L147 538 L18 538 L18 91 C18 48 45 -2 96 -2 L100 -2 C147 -2 173 30 197 66 L197 0 L321 0 L321 538 Z M172 563 C229 563 278 600 278 672 L278 680 L195 680 L195 674 C195 652 187 641 171 641 L170 641 C154 641 146 652 146 674 L146 680 L61 680 L61 672 C61 600 105 563 169 563 L172 563 L172 563 Z " />
<glyph glyph-name="Uring" unicode="&#x16e;" horiz-adv-x="379" d="M20 173 C20 49 75 -11 172 -11 L205 -11 C301 -11 359 49 359 173 L359 744 L222 744 L222 168 C222 137 211 122 190 122 C168 122 157 137 157 168 L157 744 L20 744 L20 173 Z M189 811 C169 811 157 825 157 844 C157 863 169 877 189 877 C209 877 221 863 221 844 C221 825 209 811 189 811 L189 811 Z M189 765 C236 765 269 797 269 844 C269 891 236 923 189 923 C142 923 109 891 109 844 C109 797 142 765 189 765 L189 765 Z " />
<glyph glyph-name="uring" unicode="&#x16f;" horiz-adv-x="339" d="M321 538 L194 538 L194 146 C194 125 189 110 169 110 C152 110 147 124 147 143 L147 538 L18 538 L18 91 C18 48 45 -2 96 -2 L100 -2 C147 -2 173 30 197 66 L197 0 L321 0 L321 538 Z M169 608 C149 608 137 622 137 641 C137 660 149 674 169 674 C189 674 201 660 201 641 C201 622 189 608 169 608 L169 608 Z M169 562 C216 562 249 594 249 641 C249 688 216 720 169 720 C122 720 89 688 89 641 C89 594 122 562 169 562 L169 562 Z " />
<glyph glyph-name="Uhungarumlaut" unicode="&#x170;" horiz-adv-x="379" d="M20 173 C20 49 75 -11 172 -11 L205 -11 C301 -11 359 49 359 173 L359 744 L222 744 L222 168 C222 137 211 122 190 122 C168 122 157 137 157 168 L157 744 L20 744 L20 173 Z M91 770 L178 770 L205 885 L115 885 L91 770 Z M202 770 L288 770 L317 885 L228 885 L202 770 Z " />
<glyph glyph-name="uhungarumlaut" unicode="&#x171;" horiz-adv-x="339" d="M321 538 L194 538 L194 146 C194 125 189 110 169 110 C152 110 147 124 147 143 L147 538 L18 538 L18 91 C18 48 45 -2 96 -2 L100 -2 C147 -2 173 30 197 66 L197 0 L321 0 L321 538 Z M75 564 L161 564 L187 700 L99 700 L75 564 Z M184 564 L269 564 L297 700 L209 700 L184 564 Z " />
<glyph glyph-name="Uogonek" unicode="&#x172;" horiz-adv-x="379" d="M153 -109 L153 -124 C153 -167 188 -188 231 -188 L289 -188 L289 -108 L271 -108 C254 -108 245 -101 245 -88 L245 -84 C245 -60 255 -40 290 0 C320 36 359 73 359 173 L359 744 L222 744 L222 168 C222 137 211 122 190 122 C168 122 157 137 157 168 L157 744 L20 744 L20 173 C20 50 75 -11 172 -11 L205 -11 L217 -11 C178 -42 153 -74 153 -109 L153 -109 Z " />
<glyph glyph-name="uogonek" unicode="&#x173;" horiz-adv-x="339" d="M321 538 L194 538 L194 146 C194 125 189 110 169 110 C152 110 147 124 147 143 L147 538 L18 538 L18 91 C18 48 45 -2 96 -2 L100 -2 C147 -2 173 30 197 66 L197 0 L321 0 L321 538 Z M185 -124 C185 -167 220 -188 263 -188 L321 -188 L321 -108 L303 -108 C286 -108 277 -101 277 -88 L277 -84 C277 -60 288 -41 321 0 L259 0 C215 -39 185 -72 185 -109 L185 -124 Z " />
<glyph glyph-name="Wcircumflex" unicode="&#x174;" horiz-adv-x="572" d="M227 744 L179 267 L137 744 L-1 744 L92 0 L249 0 L288 409 L327 0 L478 0 L573 744 L445 744 L401 272 L354 744 L227 744 Z M338 885 L236 885 L171 770 L260 770 L287 817 L315 770 L404 770 L338 885 Z " />
<glyph glyph-name="wcircumflex" unicode="&#x175;" horiz-adv-x="498" d="M216 0 L250 292 L285 0 L418 0 L500 538 L380 538 L345 201 L309 538 L196 538 L159 205 L124 538 L-2 538 L79 0 L216 0 Z M302 700 L196 700 L135 564 L224 564 L249 626 L273 564 L364 564 L302 700 Z " />
<glyph glyph-name="Ycircumflex" unicode="&#x176;" horiz-adv-x="331" d="M337 744 L217 744 L172 480 L127 744 L-6 744 L104 288 L104 0 L237 0 L237 293 L337 744 Z M222 885 L120 885 L55 770 L144 770 L171 817 L199 770 L288 770 L222 885 Z " />
<glyph glyph-name="ycircumflex" unicode="&#x177;" horiz-adv-x="315" d="M91 9 C94 -6 93 -10 92 -21 L90 -42 C87 -61 85 -69 68 -69 L15 -69 L15 -188 L131 -188 C170 -188 194 -163 205 -107 L318 538 L195 538 L160 241 L124 538 L-2 538 L91 9 Z M211 700 L105 700 L44 564 L133 564 L158 626 L182 564 L273 564 L211 700 Z " />
<glyph glyph-name="Ydieresis" unicode="&#x178;" horiz-adv-x="331" d="M337 744 L217 744 L172 480 L127 744 L-6 744 L104 288 L104 0 L237 0 L237 293 L337 744 Z M285 876 L185 876 L185 770 L285 770 L285 876 Z M160 876 L60 876 L60 770 L160 770 L160 876 Z " />
<glyph glyph-name="Zacute" unicode="&#x179;" horiz-adv-x="334" d="M20 744 L20 616 L171 616 L9 120 L9 0 L325 0 L325 130 L152 130 L314 626 L314 744 L20 744 Z M109 770 L213 770 L258 885 L152 885 L109 770 Z " />
<glyph glyph-name="zacute" unicode="&#x17a;" horiz-adv-x="270" d="M16 538 L16 426 L131 426 L6 107 L6 0 L264 0 L264 114 L133 114 L257 432 L257 538 L16 538 Z M83 564 L186 564 L230 700 L125 700 L83 564 Z " />
<glyph glyph-name="Zdotaccent" unicode="&#x17b;" horiz-adv-x="334" d="M20 744 L20 616 L171 616 L9 120 L9 0 L325 0 L325 130 L152 130 L314 626 L314 744 L20 744 Z M232 896 L104 896 L104 770 L232 770 L232 896 Z " />
<glyph glyph-name="zdotaccent" unicode="&#x17c;" horiz-adv-x="270" d="M16 538 L16 426 L131 426 L6 107 L6 0 L264 0 L264 114 L133 114 L257 432 L257 538 L16 538 Z M201 690 L73 690 L73 564 L201 564 L201 690 Z " />
<glyph glyph-name="Zcaron" unicode="&#x17d;" horiz-adv-x="334" d="M20 744 L20 616 L171 616 L9 120 L9 0 L325 0 L325 130 L152 130 L314 626 L314 744 L20 744 Z M117 770 L218 770 L284 885 L195 885 L168 837 L141 885 L51 885 L117 770 Z " />
<glyph glyph-name="zcaron" unicode="&#x17e;" horiz-adv-x="270" d="M16 538 L16 426 L131 426 L6 107 L6 0 L264 0 L264 114 L133 114 L257 432 L257 538 L16 538 Z M84 564 L189 564 L251 700 L162 700 L137 638 L113 700 L22 700 L84 564 Z " />
<glyph glyph-name="uni0192" unicode="&#x192;" horiz-adv-x="276" d="M38 -188 L165 -188 L191 362 L266 362 L266 481 L197 481 L203 604 C206 625 210 631 229 631 L266 631 L266 744 L183 744 C107 744 81 712 78 656 L69 481 L6 481 L6 362 L64 362 L38 -188 Z " />
<glyph glyph-name="Aringacute" unicode="&#x1fa;" horiz-adv-x="349" d="M170 811 C150 811 138 825 138 844 C138 863 150 877 170 877 C190 877 202 863 202 844 C202 825 190 811 170 811 L170 811 Z M170 765 C217 765 250 797 250 844 C250 891 217 923 170 923 C123 923 90 891 90 844 C90 797 123 765 170 765 L170 765 Z M120 939 L224 939 L269 1054 L163 1054 L120 939 Z M222 0 L351 0 L250 744 L92 744 L-2 0 L116 0 L128 125 L208 125 L222 0 Z M167 508 L195 253 L141 253 L167 508 Z " />
<glyph glyph-name="aringacute" unicode="&#x1fb;" horiz-adv-x="339" d="M112 736 L215 736 L259 872 L154 872 L112 736 Z M161 608 C141 608 129 622 129 641 C129 660 141 674 161 674 C181 674 193 660 193 641 C193 622 181 608 161 608 L161 608 Z M161 562 C208 562 241 594 241 641 C241 688 208 720 161 720 C114 720 81 688 81 641 C81 594 114 562 161 562 L161 562 Z M182 134 C182 113 174 102 158 102 C142 102 137 114 137 134 L137 199 C137 220 140 229 149 240 C158 251 175 261 182 265 L182 134 Z M14 88 C14 41 38 -5 87 -5 L91 -5 C139 -5 169 34 182 61 C182 17 194 0 219 0 L338 0 L338 114 L324 114 C308 114 305 118 305 129 L305 426 C305 495 277 544 169 544 L146 544 C42 544 20 485 20 438 L20 364 L134 364 L134 417 C134 436 139 446 156 446 L160 446 C175 446 182 440 182 417 L182 388 C182 373 179 371 174 368 C157 357 94 331 70 315 C31 291 14 261 14 205 L14 88 Z " />
<glyph glyph-name="AEacute" unicode="&#x1fc;" horiz-adv-x="515" d="M506 0 L506 134 L358 134 L358 316 L465 316 L465 451 L358 451 L358 612 L496 612 L496 744 L134 744 L-6 0 L122 0 L144 131 L225 131 L225 0 L506 0 Z M166 258 L225 602 L225 258 L166 258 Z M259 770 L363 770 L408 885 L302 885 L259 770 Z " />
<glyph glyph-name="aeacute" unicode="&#x1fd;" horiz-adv-x="489" d="M193 63 C204 31 235 -10 318 -10 L339 -10 C431 -10 476 43 476 124 L476 214 L354 214 L354 134 C354 115 349 102 329 102 C310 102 305 111 305 134 L305 251 L476 251 L476 401 C476 508 428 548 344 548 L329 548 C280 548 257 528 249 517 C238 528 220 544 169 544 L146 544 C42 544 20 485 20 438 L20 345 L134 345 L134 417 C134 436 139 446 156 446 L160 446 C175 446 182 440 182 417 L182 369 C182 354 179 352 174 349 C157 338 94 312 70 296 C31 272 14 242 14 186 L14 88 C14 41 37 -5 88 -5 L92 -5 C139 -5 172 27 193 63 L193 63 Z M182 134 C182 113 174 102 158 102 C142 102 137 114 137 134 L137 180 C137 201 140 210 149 221 C158 232 175 242 182 246 L182 134 Z M305 417 C305 438 314 448 331 448 C351 448 357 435 357 416 L357 347 L305 347 L305 417 Z M195 564 L298 564 L342 700 L237 700 L195 564 Z " />
<glyph glyph-name="Oslashacute" unicode="&#x1fe;" horiz-adv-x="381" d="M137 771 L241 771 L286 885 L180 885 L137 771 Z M363 564 C363 605 358 637 347 661 L380 744 L306 744 L296 720 C272 742 241 753 203 753 L178 753 C63 753 18 678 18 563 L18 170 C18 135 24 106 33 82 L0 0 L74 0 L84 24 C109 1 141 -11 180 -11 L205 -11 C305 -11 363 61 363 170 L363 564 Z M192 122 C161 122 153 143 153 166 L153 188 L228 394 L228 166 C228 143 221 122 192 122 L192 122 Z M191 623 C216 623 228 607 228 574 L228 559 L153 350 L153 574 C153 607 163 623 191 623 L191 623 Z " />
<glyph glyph-name="oslashacute" unicode="&#x1ff;" horiz-adv-x="336" d="M116 566 L219 566 L263 700 L158 700 L116 566 Z M15 142 C15 115 18 91 29 70 L-7 0 L60 0 L70 20 C89 4 118 -10 155 -10 L181 -10 C269 -10 321 56 321 144 L321 399 C321 426 316 450 309 469 L344 538 L278 538 L268 519 C247 536 220 548 181 548 L155 548 C67 548 15 494 15 397 L15 142 L15 142 Z M196 387 L140 264 L140 401 C140 424 147 438 168 438 C191 438 196 424 196 401 L196 387 Z M168 105 C145 105 140 122 140 143 L140 151 L196 272 L196 143 C196 123 191 105 168 105 L168 105 Z " />
<glyph glyph-name="uni0218" unicode="&#x218;" horiz-adv-x="359" d="M168 753 C75 753 17 701 17 605 L17 573 C17 501 32 444 88 384 L165 299 C205 256 208 235 208 183 L208 169 C208 133 197 115 175 115 C152 115 141 130 141 160 L141 279 L10 279 L10 145 C10 45 61 -9 162 -9 L188 -9 C299 -9 350 63 350 175 L350 210 C350 275 336 325 269 401 L193 486 C160 523 152 547 152 582 L152 599 C152 624 158 639 181 639 C205 639 210 624 210 600 L210 507 L338 507 L338 607 C338 707 299 753 195 753 L168 753 Z M207 -205 C214 -190 229 -154 229 -98 L229 -28 L127 -28 L127 -138 L170 -138 C167 -167 163 -189 156 -205 L207 -205 Z " />
<glyph glyph-name="uni0219" unicode="&#x219;" horiz-adv-x="302" d="M289 446 C289 506 258 548 167 548 L140 548 C55 548 14 500 14 428 L14 411 C14 355 26 316 74 269 L142 204 C166 181 170 164 170 137 L170 125 C170 104 163 94 149 94 L148 94 C133 94 125 104 125 124 L125 196 L7 196 L7 108 C7 43 44 -9 137 -9 L163 -9 C255 -9 296 54 296 129 L296 147 C296 204 282 241 227 296 L156 366 C137 385 133 394 133 418 L133 429 C133 445 137 457 154 457 C170 457 175 446 175 429 L175 373 L289 373 L289 446 L289 446 Z M179 -204 C186 -189 201 -153 201 -97 L201 -27 L99 -27 L99 -137 L142 -137 C139 -166 135 -188 128 -204 L179 -204 Z " />
<glyph glyph-name="uni021A" unicode="&#x21a;" horiz-adv-x="339" d="M199 -203 C206 -188 221 -152 221 -96 L221 -26 L119 -26 L119 -136 L162 -136 C159 -165 155 -187 148 -203 L199 -203 Z M8 744 L8 613 L103 613 L103 0 L236 0 L236 613 L331 613 L331 744 L8 744 Z " />
<glyph glyph-name="uni021B" unicode="&#x21b;" horiz-adv-x="267" d="M256 0 L256 121 L213 121 C196 121 194 128 194 143 L194 419 L256 419 L256 538 L194 538 L194 716 L67 716 L67 538 L6 538 L6 419 L67 419 L67 66 C67 27 93 0 128 0 L256 0 Z M200 -203 C207 -188 222 -152 222 -96 L222 -26 L120 -26 L120 -136 L163 -136 C160 -165 156 -187 149 -203 L200 -203 Z " />
<glyph glyph-name="uni0237" unicode="&#x237;" horiz-adv-x="165" d="M-51 -69 L-51 -188 L73 -188 C120 -188 147 -155 147 -116 L147 538 L19 538 L19 -48 C19 -65 14 -69 1 -69 L-51 -69 Z " />
<glyph glyph-name="circumflex" unicode="&#x2c6;" horiz-adv-x="342" d="M224 700 L118 700 L57 564 L146 564 L171 626 L195 564 L286 564 L224 700 Z " />
<glyph glyph-name="caron" unicode="&#x2c7;" horiz-adv-x="342" d="M119 564 L224 564 L286 700 L197 700 L172 638 L148 700 L57 700 L119 564 Z " />
<glyph glyph-name="breve" unicode="&#x2d8;" horiz-adv-x="342" d="M174 563 C231 563 280 600 280 672 L280 680 L197 680 L197 674 C197 652 189 641 173 641 L172 641 C156 641 148 652 148 674 L148 680 L63 680 L63 672 C63 600 107 563 171 563 L174 563 L174 563 Z " />
<glyph glyph-name="dotaccent" unicode="&#x2d9;" horiz-adv-x="342" d="M235 690 L107 690 L107 564 L235 564 L235 690 Z " />
<glyph glyph-name="ring" unicode="&#x2da;" horiz-adv-x="342" d="M171 608 C151 608 139 622 139 641 C139 660 151 674 171 674 C191 674 203 660 203 641 C203 622 191 608 171 608 L171 608 Z M171 562 C218 562 251 594 251 641 C251 688 218 720 171 720 C124 720 91 688 91 641 C91 594 124 562 171 562 L171 562 Z " />
<glyph glyph-name="ogonek" unicode="&#x2db;" horiz-adv-x="342" d="M102 -124 C102 -167 137 -188 180 -188 L238 -188 L238 -108 L220 -108 C203 -108 194 -101 194 -88 L194 -84 C194 -60 205 -41 238 0 L176 0 C132 -39 102 -72 102 -109 L102 -124 Z " />
<glyph glyph-name="tilde" unicode="&#x2dc;" horiz-adv-x="342" d="M206 678 L206 662 C206 655 204 652 200 652 C195 652 192 653 177 660 C150 672 141 678 118 678 C83 678 63 650 63 610 L63 563 L135 563 L135 579 C135 586 135 591 142 591 C147 591 150 589 165 582 C193 567 202 563 225 563 C258 563 279 589 279 622 L279 678 L206 678 Z " />
<glyph glyph-name="hungarumlaut" unicode="&#x2dd;" horiz-adv-x="342" d="M60 564 L146 564 L172 700 L84 700 L60 564 Z M169 564 L254 564 L282 700 L194 700 L169 564 Z " />
<glyph glyph-name="Wgrave" unicode="&#x1e80;" horiz-adv-x="572" d="M227 744 L179 267 L137 744 L-1 744 L92 0 L249 0 L288 409 L327 0 L478 0 L573 744 L445 744 L401 272 L354 744 L227 744 Z M298 885 L193 885 L237 770 L341 770 L298 885 Z " />
<glyph glyph-name="wgrave" unicode="&#x1e81;" horiz-adv-x="498" d="M216 0 L250 292 L285 0 L418 0 L500 538 L380 538 L345 201 L309 538 L196 538 L159 205 L124 538 L-2 538 L79 0 L216 0 Z M260 700 L154 700 L199 564 L301 564 L260 700 Z " />
<glyph glyph-name="Wacute" unicode="&#x1e82;" horiz-adv-x="572" d="M227 744 L179 267 L137 744 L-1 744 L92 0 L249 0 L288 409 L327 0 L478 0 L573 744 L445 744 L401 272 L354 744 L227 744 Z M238 770 L342 770 L387 885 L281 885 L238 770 Z " />
<glyph glyph-name="wacute" unicode="&#x1e83;" horiz-adv-x="498" d="M202 564 L305 564 L349 700 L244 700 L202 564 Z M216 0 L250 292 L285 0 L418 0 L500 538 L380 538 L345 201 L309 538 L196 538 L159 205 L124 538 L-2 538 L79 0 L216 0 Z " />
<glyph glyph-name="Wdieresis" unicode="&#x1e84;" horiz-adv-x="572" d="M227 744 L179 267 L137 744 L-1 744 L92 0 L249 0 L288 409 L327 0 L478 0 L573 744 L445 744 L401 272 L354 744 L227 744 Z M400 876 L300 876 L300 770 L400 770 L400 876 Z M275 876 L175 876 L175 770 L275 770 L275 876 Z " />
<glyph glyph-name="wdieresis" unicode="&#x1e85;" horiz-adv-x="498" d="M216 0 L250 292 L285 0 L418 0 L500 538 L380 538 L345 201 L309 538 L196 538 L159 205 L124 538 L-2 538 L79 0 L216 0 Z M238 670 L138 670 L138 564 L238 564 L238 670 Z M362 670 L262 670 L262 564 L362 564 L362 670 Z " />
<glyph glyph-name="Ygrave" unicode="&#x1ef2;" horiz-adv-x="331" d="M337 744 L217 744 L172 480 L127 744 L-6 744 L104 288 L104 0 L237 0 L237 293 L337 744 Z M181 885 L76 885 L120 770 L224 770 L181 885 Z " />
<glyph glyph-name="ygrave" unicode="&#x1ef3;" horiz-adv-x="315" d="M91 9 C94 -6 93 -10 92 -21 L90 -42 C87 -61 85 -69 68 -69 L15 -69 L15 -188 L131 -188 C170 -188 194 -163 205 -107 L318 538 L195 538 L160 241 L124 538 L-2 538 L91 9 Z M173 700 L67 700 L112 564 L214 564 L173 700 Z " />
<glyph glyph-name="uni2009" unicode="&#x2009;" horiz-adv-x="12" d="" />
<glyph glyph-name="endash" unicode="&#x2013;" horiz-adv-x="338" d="M15 345 L15 255 L323 255 L323 345 L15 345 Z " />
<glyph glyph-name="emdash" unicode="&#x2014;" horiz-adv-x="510" d="M15 345 L15 255 L495 255 L495 345 L15 345 Z " />
<glyph glyph-name="quoteleft" unicode="&#x2018;" horiz-adv-x="139" d="M38 744 C29 723 14 678 14 627 L14 524 L125 524 L125 652 L82 652 C83 679 92 716 101 744 L38 744 Z " />
<glyph glyph-name="quoteright" unicode="&#x2019;" horiz-adv-x="139" d="M101 524 C110 545 125 590 125 641 L125 744 L14 744 L14 616 L57 616 C56 589 47 552 38 524 L101 524 Z " />
<glyph glyph-name="quotesinglbase" unicode="&#x201a;" horiz-adv-x="139" d="M101 -92 C110 -71 125 -26 125 25 L125 128 L14 128 L14 0 L57 0 C56 -27 47 -64 38 -92 L101 -92 L101 -92 Z " />
<glyph glyph-name="quotedblleft" unicode="&#x201c;" horiz-adv-x="267" d="M38 744 C29 723 14 678 14 627 L14 524 L125 524 L125 652 L82 652 C83 679 92 716 101 744 L38 744 Z M166 744 C157 723 142 678 142 627 L142 524 L253 524 L253 652 L210 652 C211 679 220 716 229 744 L166 744 Z " />
<glyph glyph-name="quotedblright" unicode="&#x201d;" horiz-adv-x="267" d="M101 524 C110 545 125 590 125 641 L125 744 L14 744 L14 616 L57 616 C56 589 47 552 38 524 L101 524 Z M229 524 C238 545 253 590 253 641 L253 744 L142 744 L142 616 L185 616 C184 589 175 552 166 524 L229 524 Z " />
<glyph glyph-name="quotedblbase" unicode="&#x201e;" horiz-adv-x="267" d="M101 -92 C110 -71 125 -26 125 25 L125 128 L14 128 L14 0 L57 0 C56 -27 47 -64 38 -92 L101 -92 L101 -92 Z M229 -92 C238 -71 253 -26 253 25 L253 128 L142 128 L142 0 L185 0 C184 -27 175 -64 166 -92 L229 -92 L229 -92 Z " />
<glyph glyph-name="dagger" unicode="&#x2020;" horiz-adv-x="271" d="M71 0 L200 0 L200 475 L264 475 L264 601 L200 601 L200 744 L71 744 L71 601 L7 601 L7 475 L71 475 L71 0 Z " />
<glyph glyph-name="daggerdbl" unicode="&#x2021;" horiz-adv-x="271" d="M71 144 L71 0 L200 0 L200 144 L264 144 L264 269 L200 269 L200 475 L264 475 L264 600 L200 600 L200 744 L71 744 L71 600 L7 600 L7 475 L71 475 L71 269 L7 269 L7 144 L71 144 Z " />
<glyph glyph-name="bullet" unicode="&#x2022;" horiz-adv-x="236" d="M118 221 C179 221 223 268 223 329 C223 390 179 438 118 438 C54 438 13 390 13 329 C13 268 54 221 118 221 L118 221 Z " />
<glyph glyph-name="ellipsis" unicode="&#x2026;" horiz-adv-x="428" d="M294 144 L294 0 L413 0 L413 144 L294 144 Z M154 0 L273 0 L273 144 L154 144 L154 0 Z M134 0 L134 144 L15 144 L15 0 L134 0 Z " />
<glyph glyph-name="perthousand" unicode="&#x2030;" horiz-adv-x="729" d="M618 -5 C682 -5 717 34 717 102 L717 230 C717 298 682 338 618 338 L599 338 C539 338 499 302 499 230 L499 102 C499 30 539 -5 599 -5 L618 -5 Z M384 -5 C445 -5 482 34 482 102 L482 230 C482 298 445 338 384 338 L364 338 C304 338 265 302 265 230 L265 102 C265 30 304 -5 364 -5 L384 -5 Z M12 515 C12 443 51 407 111 407 L131 407 C192 407 229 447 229 515 L229 643 C229 711 192 750 131 750 L111 750 C51 750 12 715 12 643 L12 515 Z M346 744 L67 0 L150 0 L429 744 L346 744 Z M608 75 C596 75 592 84 592 95 L592 238 C592 251 597 258 608 258 C619 258 625 251 625 238 L625 95 C625 84 621 75 608 75 L608 75 Z M137 508 C137 495 131 488 120 488 C109 488 104 495 104 508 L104 651 C104 662 108 671 120 671 C133 671 137 662 137 651 L137 508 Z M373 75 C361 75 357 84 357 95 L357 238 C357 251 362 258 373 258 C384 258 390 251 390 238 L390 95 C390 84 386 75 373 75 L373 75 Z " />
<glyph glyph-name="uni2032" unicode="&#x2032;" horiz-adv-x="119" d="M117 744 L23 744 L2 553 L95 553 L117 744 Z " />
<glyph glyph-name="uni2033" unicode="&#x2033;" horiz-adv-x="228" d="M115 744 L23 744 L2 553 L93 553 L115 744 Z M226 744 L135 744 L112 553 L204 553 L226 744 Z " />
<glyph glyph-name="guilsinglleft" unicode="&#x2039;" horiz-adv-x="163" d="M110 286 L156 451 L56 451 L12 316 L12 256 L56 119 L155 119 L110 286 Z " />
<glyph glyph-name="guilsinglright" unicode="&#x203a;" horiz-adv-x="163" d="M52 285 L7 119 L108 119 L151 255 L151 315 L108 451 L8 451 L52 285 Z " />
<glyph glyph-name="fraction" unicode="&#x2044;" horiz-adv-x="352" d="M269 744 L2 0 L83 0 L350 744 L269 744 Z " />
<glyph glyph-name="Euro" unicode="&#x20ac;" horiz-adv-x="416" d="M7 291 L62 291 L62 165 C62 72 91 -11 216 -11 L247 -11 C364 -11 400 73 400 161 L400 266 L268 266 L268 165 C268 138 259 120 235 120 C212 120 201 135 201 165 L201 291 L332 291 L332 375 L201 375 L201 401 L332 401 L332 485 L201 485 L201 584 C201 613 210 627 234 627 C259 627 268 612 268 584 L268 508 L400 508 L400 589 C400 674 371 753 247 753 L216 753 C103 753 62 674 62 584 L62 485 L7 485 L7 401 L62 401 L62 375 L7 375 L7 291 Z " />
<glyph glyph-name="trademark" unicode="&#x2122;" horiz-adv-x="349" d="M152 463 L209 463 L209 622 L230 463 L258 463 L280 622 L280 463 L337 463 L337 744 L259 744 L246 622 L231 744 L152 744 L152 463 Z M139 744 L6 744 L6 680 L36 680 L36 463 L108 463 L108 680 L139 680 L139 744 Z " />
<glyph glyph-name="onethird" unicode="&#x2153;" horiz-adv-x="419" d="M49 638 L49 404 L133 404 L133 744 L61 744 C58 723 49 704 6 704 L6 638 L49 638 Z M277 744 L10 0 L91 0 L358 744 L277 744 Z M294 228 L294 266 C294 278 298 284 307 284 C316 284 320 278 320 266 L320 228 C320 217 315 212 306 212 L269 212 L269 143 L308 143 C317 143 321 140 321 128 L321 79 C321 68 317 62 309 62 C300 62 296 68 296 79 L296 125 L216 125 L216 74 C216 32 233 -5 303 -5 L317 -5 C381 -5 409 29 409 81 L409 136 C409 167 391 183 372 190 C385 195 402 211 402 244 L402 267 C402 324 374 348 314 348 L302 348 C238 348 217 316 217 264 L217 228 L294 228 Z " />
<glyph glyph-name="twothirds" unicode="&#x2154;" horiz-adv-x="494" d="M213 402 L213 524 L139 524 L139 470 L86 470 C86 486 87 488 142 538 C187 579 205 606 205 653 L205 671 C205 711 185 750 111 750 L96 750 C33 750 13 711 13 671 L13 614 L91 614 L91 667 C91 678 95 684 104 684 C113 684 118 678 118 667 L118 651 C118 628 118 618 87 584 C17 506 7 482 7 446 L7 402 L213 402 Z M352 744 L85 0 L166 0 L433 744 L352 744 Z M369 228 L369 266 C369 278 373 284 382 284 C391 284 395 278 395 266 L395 228 C395 217 390 212 381 212 L344 212 L344 143 L383 143 C392 143 396 140 396 128 L396 79 C396 68 392 62 384 62 C375 62 371 68 371 79 L371 125 L291 125 L291 74 C291 32 308 -5 378 -5 L392 -5 C456 -5 484 29 484 81 L484 136 C484 167 466 183 447 190 C460 195 477 211 477 244 L477 267 C477 324 449 348 389 348 L377 348 C313 348 292 316 292 264 L292 228 L369 228 Z " />
<glyph glyph-name="oneeighth" unicode="&#x215b;" horiz-adv-x="420" d="M277 744 L10 0 L91 0 L358 744 L277 744 Z M49 638 L49 404 L133 404 L133 744 L61 744 C58 723 49 704 6 704 L6 638 L49 638 Z M407 269 C407 322 377 348 316 348 L307 348 C247 348 217 322 217 269 L217 243 C217 208 232 193 247 182 C225 171 214 149 214 118 L214 81 C214 29 239 -5 307 -5 L316 -5 C381 -5 410 29 410 80 L410 118 C410 155 394 174 375 182 C388 190 407 204 407 243 L407 269 Z M325 81 C325 72 322 64 311 64 C303 64 298 72 298 81 L298 129 C298 142 302 148 311 148 C320 148 325 142 325 129 L325 81 Z M324 228 C324 217 320 211 312 211 C303 211 299 217 299 228 L299 265 C299 277 303 283 311 283 C320 283 324 277 324 265 L324 228 Z " />
<glyph glyph-name="threeeighths" unicode="&#x215c;" horiz-adv-x="472" d="M89 630 L89 668 C89 680 93 686 102 686 C111 686 115 680 115 668 L115 630 C115 619 110 614 101 614 L64 614 L64 545 L103 545 C112 545 116 542 116 530 L116 481 C116 470 112 464 104 464 C95 464 91 470 91 481 L91 527 L11 527 L11 476 C11 434 28 397 98 397 L112 397 C176 397 204 431 204 483 L204 538 C204 569 186 585 167 592 C180 597 197 613 197 646 L197 669 C197 726 169 750 109 750 L97 750 C33 750 12 718 12 666 L12 630 L89 630 Z M329 744 L62 0 L143 0 L410 744 L329 744 Z M459 269 C459 322 429 348 368 348 L359 348 C299 348 269 322 269 269 L269 243 C269 208 284 193 299 182 C277 171 266 149 266 118 L266 81 C266 29 291 -5 359 -5 L368 -5 C433 -5 462 29 462 80 L462 118 C462 155 446 174 427 182 C440 190 459 204 459 243 L459 269 Z M377 81 C377 72 374 64 363 64 C355 64 350 72 350 81 L350 129 C350 142 354 148 363 148 C372 148 377 142 377 129 L377 81 Z M376 228 C376 217 372 211 364 211 C355 211 351 217 351 228 L351 265 C351 277 355 283 363 283 C372 283 376 277 376 265 L376 228 Z " />
<glyph glyph-name="fiveeighths" unicode="&#x215d;" horiz-adv-x="472" d="M329 744 L62 0 L143 0 L410 744 L329 744 Z M93 545 L93 561 C93 573 97 579 106 579 C114 579 118 573 118 561 L118 478 C118 470 113 463 106 463 C98 463 94 468 94 478 L94 519 L11 519 L11 479 C11 431 32 397 100 397 L115 397 C176 397 205 431 205 491 L205 584 C205 621 189 649 150 649 C121 649 104 628 92 612 L92 673 L195 673 L195 744 L15 744 L15 545 L93 545 Z M459 269 C459 322 429 348 368 348 L359 348 C299 348 269 322 269 269 L269 243 C269 208 284 193 299 182 C277 171 266 149 266 118 L266 81 C266 29 291 -5 359 -5 L368 -5 C433 -5 462 29 462 80 L462 118 C462 155 446 174 427 182 C440 190 459 204 459 243 L459 269 Z M377 81 C377 72 374 64 363 64 C355 64 350 72 350 81 L350 129 C350 142 354 148 363 148 C372 148 377 142 377 129 L377 81 Z M376 228 C376 217 372 211 364 211 C355 211 351 217 351 228 L351 265 C351 277 355 283 363 283 C372 283 376 277 376 265 L376 228 Z " />
<glyph glyph-name="seveneighths" unicode="&#x215e;" horiz-adv-x="437" d="M294 744 L27 0 L108 0 L375 744 L294 744 Z M11 744 L11 623 L85 623 L85 682 L120 682 C120 661 109 631 80 553 C56 489 52 454 52 403 L150 403 C150 463 151 502 163 561 C179 641 191 681 191 708 L191 744 L11 744 Z M424 269 C424 322 394 348 333 348 L324 348 C264 348 234 322 234 269 L234 243 C234 208 249 193 264 182 C242 171 231 149 231 118 L231 81 C231 29 256 -5 324 -5 L333 -5 C398 -5 427 29 427 80 L427 118 C427 155 411 174 392 182 C405 190 424 204 424 243 L424 269 Z M342 81 C342 72 339 64 328 64 C320 64 315 72 315 81 L315 129 C315 142 319 148 328 148 C337 148 342 142 342 129 L342 81 Z M341 228 C341 217 337 211 329 211 C320 211 316 217 316 228 L316 265 C316 277 320 283 328 283 C337 283 341 277 341 265 L341 228 Z " />
<glyph glyph-name="minus" unicode="&#x2212;" horiz-adv-x="320" d="M15 346 L15 255 L305 255 L305 346 L15 346 Z " />
<glyph glyph-name="uni24C5" unicode="&#x24c5;" horiz-adv-x="519" d="M266 -11 C401 -11 500 64 500 244 L500 502 C500 674 418 755 269 755 L257 755 C108 755 19 670 19 502 L19 244 C19 66 107 -11 256 -11 L266 -11 Z M258 56 C143 56 97 131 97 259 L97 489 C97 616 139 688 258 688 L268 688 C385 688 424 604 424 489 L424 259 C424 136 381 56 266 56 L258 56 L258 56 Z M296 312 C360 312 390 342 390 414 L390 526 C390 603 360 626 296 626 L149 626 L149 120 L252 120 L252 312 L296 312 Z M252 542 L267 542 C283 542 288 535 288 514 L288 426 C288 406 283 396 267 396 L252 396 L252 542 Z " />
<glyph glyph-name="E.alt" unicode="&#xe484;" horiz-adv-x="310" d="M21 744 L21 0 L300 0 L300 134 L154 134 L154 317 L289 317 L289 451 L154 451 L154 613 L296 613 L296 744 L21 744 Z " />
<glyph glyph-name="F.alt" unicode="&#xe485;" horiz-adv-x="306" d="M21 744 L21 0 L154 0 L154 317 L288 317 L288 451 L154 451 L154 613 L295 613 L295 744 L21 744 Z " />
<glyph glyph-name="J.alt" unicode="&#xe489;" horiz-adv-x="240" d="M9 0 L142 0 C189 0 220 27 220 87 L220 744 L82 744 L82 159 C82 143 79 134 63 134 L9 134 L9 0 Z " />
<glyph glyph-name="a.alt" unicode="&#xe4c0;" horiz-adv-x="324" d="M305 426 C305 495 277 544 169 544 L146 544 C42 544 20 485 20 438 L20 364 L134 364 L134 417 C134 436 139 446 156 446 L160 446 C175 446 182 440 182 417 L182 388 C182 373 179 371 174 368 C157 357 94 331 70 315 C31 291 14 260 14 205 L14 88 C14 41 38 -5 87 -5 L91 -5 C138 -5 169 34 182 61 C182 22 189 7 194 0 L316 0 L316 5 C311 24 305 35 305 123 L305 426 Z M182 134 C182 113 174 102 158 102 C142 102 137 114 137 134 L137 199 C137 220 140 229 149 240 C158 251 175 261 182 265 L182 134 Z " />
<glyph glyph-name="r.alt" unicode="&#xe4d1;" horiz-adv-x="275" d="M145 538 L18 538 L18 0 L146 0 L146 358 C146 387 161 401 205 401 L209 401 C236 401 253 396 264 392 L264 538 C261 539 248 542 236 542 L229 542 C194 542 166 514 145 458 L145 538 Z " />
<glyph glyph-name="f_f" unicode="&#xfb00;" horiz-adv-x="480" d="M260 744 L148 744 C89 744 66 706 66 670 L66 538 L6 538 L6 419 L66 419 L66 0 L193 0 L193 419 L277 419 L277 0 L404 0 L404 419 L469 419 L469 538 L404 538 L404 608 C404 624 407 631 424 631 L471 631 L471 744 L359 744 C300 744 277 706 277 670 L277 538 L193 538 L193 608 C193 624 196 631 213 631 L260 631 L260 744 Z " />
<glyph glyph-name="f_i" unicode="&#xfb01;" horiz-adv-x="424" d="M255 744 L148 744 C89 744 66 706 66 670 L66 538 L6 538 L6 419 L66 419 L66 0 L193 0 L193 419 L255 419 L255 538 L193 538 L193 608 C193 624 196 631 213 631 L255 631 L255 744 Z M406 538 L278 538 L278 0 L406 0 L406 538 Z M406 690 L278 690 L278 564 L406 564 L406 690 Z " />
<glyph glyph-name="f_l" unicode="&#xfb02;" horiz-adv-x="424" d="M255 744 L148 744 C89 744 66 706 66 670 L66 538 L6 538 L6 419 L66 419 L66 0 L193 0 L193 419 L255 419 L255 538 L193 538 L193 608 C193 624 196 631 213 631 L255 631 L255 744 Z M406 744 L278 744 L278 0 L406 0 L406 744 Z " />
</font>
</svg>
