<?xml version="1.0" encoding="UTF-8"?>
<svg xmlns="http://www.w3.org/2000/svg" xmlns:xlink="http://www.w3.org/1999/xlink" version="1.2" >
<font id="Druk Heavy">
<font-face  font-family="Druk" units-per-em="1000" ascent="812" descent="-188" font-style="normal" font-weight="900" font-stretch="normal" cap-height="744" x-height="538" underline-position="22" underline-thickness="84" />
<missing-glyph  horiz-adv-x="109" d="" />
<glyph glyph-name="NULL" d="" />
<glyph glyph-name="nonmarkingreturn" unicode="&#xd;" horiz-adv-x="109" d="" />
<glyph glyph-name="space" unicode="&#x20;" horiz-adv-x="109" d="" />
<glyph glyph-name="exclam" unicode="&#x21;" horiz-adv-x="192" d="M166 161 L25 161 L25 0 L166 0 L166 161 Z M8 744 L56 186 L135 186 L184 744 L8 744 Z " />
<glyph glyph-name="quotedbl" unicode="&#x22;" horiz-adv-x="259" d="M120 744 L14 744 L14 535 L120 535 L120 744 Z M244 744 L138 744 L138 535 L244 535 L244 744 Z " />
<glyph glyph-name="numbersign" unicode="&#x23;" horiz-adv-x="386" d="M101 746 L85 543 L29 543 L20 436 L77 436 L70 346 L14 346 L5 239 L61 239 L43 0 L145 0 L164 239 L197 239 L179 0 L282 0 L301 239 L357 239 L365 346 L309 346 L316 436 L373 436 L381 543 L325 543 L341 746 L237 746 L221 543 L188 543 L204 746 L101 746 Z M179 436 L213 436 L206 346 L172 346 L179 436 Z " />
<glyph glyph-name="dollar" unicode="&#x24;" horiz-adv-x="406" d="M182 -73 L216 -73 L216 -11 C332 -10 397 58 397 170 L397 204 C397 300 370 348 299 406 L216 472 L216 634 C232 630 236 618 236 595 L236 510 L380 510 L380 598 C380 705 332 753 216 754 L216 812 L182 812 L182 754 C74 753 13 699 13 592 L13 562 C13 474 36 417 100 365 L182 299 L182 115 C167 121 160 135 160 158 L160 275 L10 275 L10 152 C10 49 62 -10 182 -11 L182 -73 Z M241 164 C241 135 233 119 216 114 L216 268 C235 247 241 232 241 193 L241 164 Z M162 594 C162 617 165 630 182 634 L182 503 C166 522 162 537 162 572 L162 594 Z " />
<glyph glyph-name="percent" unicode="&#x25;" horiz-adv-x="550" d="M294 112 C294 33 334 -6 407 -6 L426 -6 C495 -6 539 35 539 112 L539 223 C539 300 499 341 427 341 L406 341 C338 341 294 302 294 223 L294 112 Z M11 522 C11 445 51 404 123 404 L143 404 C212 404 256 446 256 522 L256 633 C256 712 215 751 143 751 L123 751 C55 751 11 713 11 633 L11 522 Z M376 744 L77 0 L175 0 L474 744 L376 744 Z M148 506 C148 495 143 489 133 489 C124 489 119 495 119 506 L119 651 C119 662 124 668 133 668 C143 668 148 662 148 651 L148 506 Z M417 78 C408 78 403 84 403 95 L403 240 C403 251 406 258 417 258 C428 258 431 251 431 240 L431 95 C431 84 426 78 417 78 L417 78 Z " />
<glyph glyph-name="ampersand" unicode="&#x26;" horiz-adv-x="503" d="M10 194 C10 58 90 -11 219 -11 L227 -11 C282 -11 316 5 340 24 C369 1 409 -12 473 -15 C474 -11 482 20 489 51 C493 68 497 88 502 111 C477 114 454 117 433 129 C465 203 482 300 482 445 L349 445 C349 381 350 320 343 265 L269 419 C347 475 382 512 382 599 L382 616 C382 704 341 754 242 754 L215 754 C103 754 69 678 69 611 L69 585 C69 518 86 480 118 416 C51 371 10 316 10 225 L10 194 Z M243 114 C187 114 159 153 159 232 L159 255 C159 282 162 301 167 320 L272 119 C262 116 252 114 243 114 L243 114 Z M208 612 C208 637 213 647 230 647 C249 647 252 640 252 613 L252 581 C252 542 249 525 230 501 C213 537 208 553 208 585 L208 612 Z " />
<glyph glyph-name="quotesingle" unicode="&#x27;" horiz-adv-x="136" d="M122 744 L14 744 L14 535 L122 535 L122 744 Z " />
<glyph glyph-name="parenleft" unicode="&#x28;" horiz-adv-x="227" d="M21 344 C21 131 82 -27 138 -131 L232 -131 C197 -26 159 149 159 347 C159 539 193 712 228 808 L135 808 C76 698 21 552 21 344 L21 344 Z " />
<glyph glyph-name="parenright" unicode="&#x29;" horiz-adv-x="227" d="M68 347 C68 149 28 -26 -4 -131 L89 -131 C145 -27 207 131 207 344 C207 553 151 698 92 808 L-1 808 C34 712 68 539 68 347 L68 347 Z " />
<glyph glyph-name="asterisk" unicode="&#x2a;" horiz-adv-x="254" d="M159 677 L168 744 L85 744 L95 677 L44 719 L4 650 L68 626 L5 602 L45 534 L96 576 L85 509 L168 509 L158 576 L209 533 L248 601 L185 626 L249 650 L208 719 L159 677 Z " />
<glyph glyph-name="plus" unicode="&#x2b;" horiz-adv-x="347" d="M119 135 L228 135 L228 252 L333 252 L333 351 L228 351 L228 469 L119 469 L119 351 L14 351 L14 252 L119 252 L119 135 Z " />
<glyph glyph-name="comma" unicode="&#x2c;" horiz-adv-x="170" d="M122 -101 C135 -72 156 -22 156 41 L156 161 L14 161 L14 0 L69 0 C66 -32 53 -74 42 -101 L122 -101 Z " />
<glyph glyph-name="hyphen" unicode="&#x2d;" horiz-adv-x="201" d="M14 372 L14 226 L187 226 L187 372 L14 372 Z " />
<glyph glyph-name="period" unicode="&#x2e;" horiz-adv-x="170" d="M156 161 L14 161 L14 0 L156 0 L156 161 Z " />
<glyph glyph-name="slash" unicode="&#x2f;" horiz-adv-x="238" d="M239 808 L128 808 L-11 -131 L101 -131 L239 808 Z " />
<glyph glyph-name="zero" unicode="0" horiz-adv-x="424" d="M409 544 C409 670 358 754 227 754 L196 754 C68 754 16 671 16 544 L16 189 C16 64 78 -11 195 -11 L227 -11 C339 -11 409 60 409 189 L409 544 Z M237 178 C237 155 231 143 211 143 C192 143 187 158 187 178 L187 565 C187 590 192 603 211 603 C232 603 237 589 237 565 L237 178 Z " />
<glyph glyph-name="one" unicode="1" horiz-adv-x="273" d="M89 522 L89 0 L253 0 L253 744 L113 744 C109 695 85 660 9 660 L9 522 L89 522 Z " />
<glyph glyph-name="two" unicode="2" horiz-adv-x="401" d="M193 618 C208 618 215 609 215 590 L215 550 C215 523 207 504 172 447 C153 420 130 384 109 351 C14 211 10 175 10 98 L10 0 L389 0 L389 251 L239 251 L239 143 L156 143 C156 158 153 170 247 283 C274 314 298 343 319 370 C380 445 384 484 384 559 L384 598 C384 698 324 753 212 753 L178 753 C64 753 22 681 22 606 L22 489 L172 489 L172 590 C172 609 177 618 193 618 L193 618 Z " />
<glyph glyph-name="three" unicode="3" horiz-adv-x="394" d="M168 508 L168 590 C168 610 174 617 189 617 C205 617 211 611 211 590 L211 495 C211 478 203 469 187 469 L114 469 L114 318 L193 318 C212 318 215 312 215 293 L215 166 C215 148 207 139 192 139 C177 139 169 148 169 166 L169 276 L11 276 L11 136 C11 65 50 -11 178 -11 L207 -11 C312 -11 381 48 381 156 L381 327 C381 376 356 410 321 422 C340 436 372 463 372 531 L372 605 C372 696 317 753 204 753 L175 753 C63 753 19 681 19 605 L19 508 L168 508 Z " />
<glyph glyph-name="four" unicode="4" horiz-adv-x="401" d="M164 305 L111 305 C127 351 156 438 164 464 L164 305 Z M8 152 L164 152 L164 0 L323 0 L323 152 L393 152 L393 305 L323 305 L323 749 L174 749 C131 625 51 396 8 284 L8 152 Z " />
<glyph glyph-name="five" unicode="5" horiz-adv-x="397" d="M176 329 L176 372 C176 387 179 400 195 400 C211 400 214 387 214 372 L214 162 C214 146 209 134 194 134 C177 134 172 145 172 162 L172 273 L13 273 L13 132 C13 63 52 -11 176 -11 L216 -11 C324 -11 383 61 383 146 L383 427 C383 480 354 538 286 538 L276 538 C228 538 193 500 172 471 L172 597 L368 597 L368 744 L20 744 L20 329 L176 329 Z " />
<glyph glyph-name="six" unicode="6" horiz-adv-x="422" d="M299 484 C241 484 205 441 186 417 L186 587 C186 602 191 612 207 612 C220 612 227 604 227 587 L227 514 L394 514 L394 603 C394 684 343 754 224 754 L195 754 C70 754 16 675 16 583 L16 156 C16 61 75 -10 196 -10 L230 -10 C342 -10 408 66 408 158 L408 375 C408 428 376 484 307 484 L299 484 Z M212 135 C191 135 186 150 186 167 L186 321 C186 343 195 354 212 354 C231 354 237 344 237 321 L237 167 C237 151 235 135 212 135 L212 135 Z " />
<glyph glyph-name="seven" unicode="7" horiz-adv-x="369" d="M12 744 L12 504 L157 504 L157 605 L226 605 C226 576 218 550 138 335 C90 202 84 142 84 79 L84 0 L280 0 L280 94 C280 159 288 252 311 365 C338 509 350 549 358 613 L358 744 L12 744 Z " />
<glyph glyph-name="eight" unicode="8" horiz-adv-x="412" d="M393 598 C393 686 342 753 218 753 L192 753 C66 753 20 682 20 599 L20 509 C20 452 46 422 75 403 C36 380 13 349 13 293 L13 161 C13 46 72 -11 191 -11 L220 -11 C333 -10 400 49 400 160 L400 293 C400 349 375 383 336 403 C363 420 393 452 393 509 L393 598 Z M230 164 C230 145 222 135 206 135 C189 135 182 147 182 164 L182 297 C182 318 190 329 206 329 C225 329 230 317 230 297 L230 164 Z M229 484 C229 465 222 456 207 456 C191 456 183 465 183 484 L183 590 C183 609 191 618 206 618 C221 618 229 609 229 590 L229 484 Z " />
<glyph glyph-name="nine" unicode="9" horiz-adv-x="421" d="M130 258 C178 258 214 300 235 324 L235 155 C235 140 231 130 216 130 C199 130 195 139 195 155 L195 228 L27 228 L27 129 C27 52 73 -11 199 -11 L230 -11 C354 -11 406 68 406 152 L406 586 C406 682 345 753 221 753 L185 753 C59 753 14 668 14 584 L14 385 C14 317 51 258 122 258 L130 258 Z M209 608 C232 608 235 592 235 575 L235 421 C235 399 226 388 209 388 C192 388 184 399 184 421 L184 575 C184 591 188 608 209 608 L209 608 Z " />
<glyph glyph-name="colon" unicode="&#x3a;" horiz-adv-x="174" d="M158 161 L16 161 L16 0 L158 0 L158 161 Z M158 455 L16 455 L16 295 L158 295 L158 455 Z " />
<glyph glyph-name="semicolon" unicode="&#x3b;" horiz-adv-x="174" d="M124 -101 C137 -72 158 -23 158 41 L158 161 L16 161 L16 0 L71 0 C68 -33 55 -76 44 -101 L124 -101 Z M158 455 L16 455 L16 295 L158 295 L158 455 Z " />
<glyph glyph-name="less" unicode="&#x3c;" horiz-adv-x="296" d="M12 253 L281 145 L281 255 L133 301 L281 349 L281 457 L12 351 L12 253 Z " />
<glyph glyph-name="equal" unicode="&#x3d;" horiz-adv-x="341" d="M16 291 L16 198 L325 198 L325 291 L16 291 Z M16 406 L16 313 L325 313 L325 406 L16 406 Z " />
<glyph glyph-name="greater" unicode="&#x3e;" horiz-adv-x="295" d="M14 349 L163 302 L14 255 L14 145 L284 253 L284 351 L14 457 L14 349 Z " />
<glyph glyph-name="question" unicode="&#x3f;" horiz-adv-x="377" d="M231 186 L231 248 C231 286 235 297 256 323 L320 405 C357 452 365 487 365 549 L365 600 C365 690 322 753 203 753 L168 753 C37 753 12 675 12 595 L12 479 L160 479 L160 591 C160 611 163 622 182 622 C199 622 204 612 204 591 L204 540 C204 511 202 494 186 469 L141 398 C114 355 108 336 108 288 L108 186 L231 186 Z M241 161 L99 161 L99 0 L241 0 L241 161 Z " />
<glyph glyph-name="at" unicode="&#x40;" horiz-adv-x="648" d="M498 23 C475 -6 419 -58 326 -58 L321 -58 C245 -58 114 -34 114 246 L114 346 C114 555 200 649 329 649 L338 649 C450 649 538 607 538 415 L538 326 C538 205 521 124 493 124 C481 124 479 133 480 144 L502 538 L353 538 L351 484 C328 515 298 542 259 542 L252 542 C204 542 170 500 167 436 L154 163 C149 85 197 38 247 38 L252 38 C285 38 318 58 349 106 C366 63 399 38 458 38 L474 38 C562 38 633 95 633 328 L633 417 C633 641 514 731 338 731 L329 731 C130 731 15 585 15 348 L15 245 C15 -103 202 -142 321 -142 L326 -142 C448 -142 524 -78 553 -39 L498 23 Z M334 167 C333 149 328 140 317 140 C306 140 301 149 302 167 L315 412 C316 431 318 440 331 440 C342 440 348 431 347 412 L334 167 Z " />
<glyph glyph-name="A" unicode="A" horiz-adv-x="397" d="M240 0 L400 0 L296 744 L93 744 L-2 0 L141 0 L152 109 L228 109 L240 0 Z M190 482 L213 256 L167 256 L190 482 Z " />
<glyph glyph-name="B" unicode="B" horiz-adv-x="425" d="M18 0 L278 0 C368 0 413 57 413 172 L413 282 C413 370 365 398 330 409 C354 417 399 451 399 522 L399 604 C399 705 353 744 268 744 L18 744 L18 0 Z M210 328 C234 328 241 317 241 290 L241 172 C241 140 233 132 213 132 L183 132 L183 328 L210 328 Z M207 617 C230 617 236 605 236 582 L236 494 C236 466 225 457 206 457 L183 457 L183 617 L207 617 Z " />
<glyph glyph-name="C" unicode="C" horiz-adv-x="418" d="M241 176 C241 153 235 137 215 137 C194 137 187 151 187 176 L187 573 C187 600 193 610 214 610 C235 610 241 597 241 573 L241 458 L404 458 L404 580 C404 678 360 754 228 754 L198 754 C64 754 16 670 16 563 L16 185 C16 70 60 -12 199 -12 L228 -12 C359 -12 404 78 404 171 L404 325 L241 325 L241 176 L241 176 Z " />
<glyph glyph-name="D" unicode="D" horiz-adv-x="420" d="M18 0 L255 0 C352 0 403 54 403 171 L403 580 C403 699 346 744 254 744 L18 744 L18 0 Z M181 606 L206 606 C229 606 235 594 235 563 L235 188 C235 157 228 143 204 143 L181 143 L181 606 Z " />
<glyph glyph-name="E" unicode="E" horiz-adv-x="342" d="M18 744 L18 0 L333 0 L333 157 L181 157 L181 305 L298 305 L298 463 L181 463 L181 590 L327 590 L327 744 L18 744 Z " />
<glyph glyph-name="F" unicode="F" horiz-adv-x="339" d="M18 0 L181 0 L181 306 L295 306 L295 463 L181 463 L181 591 L329 591 L329 744 L18 744 L18 0 Z " />
<glyph glyph-name="G" unicode="G" horiz-adv-x="427" d="M163 -10 C230 -10 266 37 285 69 C293 53 303 15 305 0 L412 0 L412 448 L208 448 L208 311 L254 311 L254 173 C254 145 243 131 220 131 C198 131 187 145 187 174 L187 573 C187 599 196 612 215 612 C239 612 245 597 245 573 L245 489 L405 489 L405 575 C405 665 371 754 226 754 L198 754 C62 754 16 665 16 565 L16 159 C16 68 62 -10 155 -10 L163 -10 Z " />
<glyph glyph-name="H" unicode="H" horiz-adv-x="424" d="M183 300 L240 300 L240 0 L405 0 L405 744 L240 744 L240 474 L183 474 L183 744 L18 744 L18 0 L183 0 L183 300 Z " />
<glyph glyph-name="I" unicode="I" horiz-adv-x="201" d="M183 744 L18 744 L18 0 L183 0 L183 744 Z " />
<glyph glyph-name="J" unicode="J" horiz-adv-x="399" d="M12 332 L12 148 C12 48 58 -9 166 -9 L215 -9 C327 -9 381 55 381 159 L381 744 L211 744 L211 164 C211 147 204 138 190 138 L188 138 C173 138 166 147 166 164 L166 332 L12 332 Z " />
<glyph glyph-name="K" unicode="K" horiz-adv-x="425" d="M183 297 L257 0 L430 0 L323 412 L424 744 L260 744 L183 481 L183 744 L18 744 L18 0 L183 0 L183 297 Z " />
<glyph glyph-name="L" unicode="L" horiz-adv-x="327" d="M18 744 L18 0 L318 0 L318 158 L183 158 L183 744 L18 744 Z " />
<glyph glyph-name="M" unicode="M" horiz-adv-x="504" d="M18 0 L158 0 L158 406 L221 0 L280 0 L343 406 L343 0 L485 0 L485 744 L299 744 L256 396 L215 744 L18 744 L18 0 Z " />
<glyph glyph-name="N" unicode="N" horiz-adv-x="423" d="M18 744 L18 0 L161 0 L161 388 L259 0 L404 0 L404 744 L263 744 L263 384 L178 744 L18 744 Z " />
<glyph glyph-name="O" unicode="O" horiz-adv-x="433" d="M418 544 C418 671 365 754 233 754 L201 754 C70 754 16 672 16 544 L16 191 C16 62 81 -11 202 -11 L234 -11 C347 -11 418 62 418 191 L418 544 Z M247 180 C247 157 239 143 218 143 C195 143 187 157 187 180 L187 561 C187 589 194 603 217 603 C237 603 247 589 247 561 L247 180 Z " />
<glyph glyph-name="P" unicode="P" horiz-adv-x="408" d="M261 287 C346 287 396 343 396 440 L396 594 C396 694 355 744 256 744 L18 744 L18 0 L182 0 L182 287 L261 287 Z M182 614 L202 614 C227 614 231 600 231 577 L231 460 C231 437 226 424 202 424 L182 424 L182 614 Z " />
<glyph glyph-name="Q" unicode="Q" horiz-adv-x="434" d="M418 544 C418 671 366 754 233 754 L201 754 C70 754 16 672 16 544 L16 191 C16 76 66 7 162 -8 L162 -155 L350 -155 L286 -5 C369 15 418 83 418 191 L418 544 Z M247 180 C247 157 239 143 218 143 C195 143 187 157 187 180 L187 561 C187 589 194 603 217 603 C237 603 247 589 247 561 L247 180 Z " />
<glyph glyph-name="R" unicode="R" horiz-adv-x="417" d="M183 616 L207 616 C230 616 234 608 234 581 L234 481 C234 454 225 445 204 445 L183 445 L183 616 Z M183 305 L206 305 C229 305 234 294 234 269 L234 53 C234 26 240 9 247 0 L410 0 L410 5 C405 16 400 31 400 59 L400 305 C400 360 363 391 335 402 C364 415 400 446 400 515 L400 613 C400 701 350 744 277 744 L18 744 L18 0 L183 0 L183 305 Z " />
<glyph glyph-name="S" unicode="S" horiz-adv-x="411" d="M190 754 C74 754 16 692 16 593 L16 558 C16 482 38 422 101 366 L187 289 C223 256 226 237 226 195 L226 175 C226 146 219 131 199 131 C178 131 171 145 171 170 L171 273 L9 273 L9 154 C9 45 67 -10 182 -10 L218 -10 C345 -10 402 68 402 184 L402 221 C402 302 379 352 304 421 L219 497 C190 524 183 542 183 573 L183 592 C183 613 189 625 208 625 C228 625 233 613 233 593 L233 513 L392 513 L392 602 C392 695 348 754 227 754 L190 754 Z " />
<glyph glyph-name="T" unicode="T" horiz-adv-x="368" d="M9 744 L9 590 L102 590 L102 0 L266 0 L266 590 L359 590 L359 744 L9 744 Z " />
<glyph glyph-name="U" unicode="U" horiz-adv-x="430" d="M18 177 C18 62 74 -12 198 -12 L230 -12 C347 -12 412 64 412 177 L412 744 L242 744 L242 185 C242 161 235 147 215 147 C197 147 188 160 188 185 L188 744 L18 744 L18 177 Z " />
<glyph glyph-name="V" unicode="V" horiz-adv-x="421" d="M106 0 L322 0 L422 744 L263 744 L218 278 L173 744 L-1 744 L106 0 Z " />
<glyph glyph-name="W" unicode="W" horiz-adv-x="629" d="M242 744 L202 283 L168 744 L-1 744 L93 0 L284 0 L316 394 L348 0 L535 0 L630 744 L472 744 L437 287 L397 744 L242 744 Z " />
<glyph glyph-name="X" unicode="X" horiz-adv-x="411" d="M86 398 L-3 0 L158 0 L204 251 L248 0 L414 0 L323 398 L399 744 L242 744 L208 526 L173 744 L6 744 L86 398 Z " />
<glyph glyph-name="Y" unicode="Y" horiz-adv-x="382" d="M387 744 L239 744 L200 499 L159 744 L-6 744 L114 278 L114 0 L278 0 L278 281 L387 744 Z " />
<glyph glyph-name="Z" unicode="Z" horiz-adv-x="368" d="M18 744 L18 592 L168 592 L9 141 L9 0 L358 0 L358 154 L189 154 L349 604 L349 744 L18 744 Z " />
<glyph glyph-name="bracketleft" unicode="&#x5b;" horiz-adv-x="214" d="M207 808 L25 808 L25 -132 L207 -132 L207 -20 L152 -20 L152 696 L207 696 L207 808 Z " />
<glyph glyph-name="backslash" unicode="&#x5c;" horiz-adv-x="238" d="M138 -131 L249 -131 L110 808 L-2 808 L138 -131 Z " />
<glyph glyph-name="bracketright" unicode="&#x5d;" horiz-adv-x="214" d="M7 -132 L189 -132 L189 808 L7 808 L7 696 L61 696 L61 -20 L7 -20 L7 -132 Z " />
<glyph glyph-name="asciicircum" unicode="&#x5e;" horiz-adv-x="267" d="M203 744 L64 744 L2 426 L109 426 L132 595 L157 426 L265 426 L203 744 Z " />
<glyph glyph-name="underscore" unicode="&#x5f;" horiz-adv-x="381" d="M3 -127 L378 -127 L378 -20 L3 -20 L3 -127 Z " />
<glyph glyph-name="grave" unicode="&#x60;" horiz-adv-x="342" d="M212 707 L84 707 L134 561 L257 561 L212 707 Z " />
<glyph glyph-name="a" unicode="a" horiz-adv-x="388" d="M202 136 C202 121 197 110 182 110 C167 110 163 120 163 136 L163 199 C163 219 166 227 174 238 C182 247 195 255 202 259 L202 136 Z M11 96 C11 43 40 -6 96 -6 L100 -6 C151 -6 186 33 203 61 C203 20 217 0 244 0 L385 0 L385 131 L371 131 C359 131 356 134 356 143 L356 420 C356 504 307 547 192 547 L170 547 C63 547 18 497 18 426 L18 365 L160 365 L160 415 C160 430 164 439 180 439 L183 439 C196 439 202 431 202 415 L202 387 C202 372 199 371 191 367 C175 359 106 330 79 317 C34 293 11 259 11 202 L11 96 Z " />
<glyph glyph-name="b" unicode="b" horiz-adv-x="395" d="M16 744 L16 0 L142 0 C142 11 150 52 155 71 C182 28 214 -10 269 -10 L272 -10 C335 -10 380 57 380 121 L380 430 C380 490 348 543 288 543 L282 543 C230 543 195 498 176 474 L176 744 L16 744 Z M176 392 C176 407 179 422 196 422 C211 422 218 412 218 392 L218 140 C218 124 213 111 196 111 C180 111 176 125 176 141 L176 392 Z " />
<glyph glyph-name="c" unicode="c" horiz-adv-x="368" d="M212 241 L212 138 C212 121 205 112 192 112 C177 112 174 123 174 139 L174 404 C174 423 177 432 192 432 C209 432 213 422 213 403 L213 325 L357 325 L357 406 C357 488 319 549 207 549 L174 549 C57 549 13 478 13 385 L13 145 C13 45 70 -12 175 -12 L205 -12 C305 -12 357 50 357 133 L357 241 L212 241 Z " />
<glyph glyph-name="d" unicode="d" horiz-adv-x="397" d="M222 744 L222 477 C200 504 167 544 113 544 L107 544 C48 544 15 487 15 423 L15 118 C15 49 57 -11 117 -11 L120 -11 C169 -11 204 31 223 60 L223 0 L382 0 L382 744 L222 744 Z M222 146 C222 126 218 111 199 111 C180 111 176 124 176 143 L176 389 C176 409 180 421 199 421 C218 421 222 406 222 385 L222 146 Z " />
<glyph glyph-name="e" unicode="e" horiz-adv-x="375" d="M174 549 C64 549 13 482 13 389 L13 143 C13 39 75 -11 174 -11 L205 -11 C298 -11 363 43 363 140 L363 214 L211 214 L211 138 C211 119 206 108 190 108 C175 108 168 118 168 138 L168 251 L363 251 L363 389 C363 501 301 549 205 549 L174 549 Z M168 410 C168 433 171 443 190 443 C209 443 213 433 213 410 L213 349 L168 349 L168 410 Z " />
<glyph glyph-name="f" unicode="f" horiz-adv-x="301" d="M292 744 L160 744 C105 744 68 709 68 656 L68 538 L6 538 L6 403 L68 403 L68 0 L227 0 L227 403 L292 403 L292 538 L227 538 L227 595 C227 610 230 615 246 615 L292 615 L292 744 Z " />
<glyph glyph-name="g" unicode="g" horiz-adv-x="396" d="M221 -55 C221 -71 216 -79 200 -79 L197 -79 C181 -79 177 -72 177 -57 L177 -21 L22 -21 L22 -84 C22 -146 62 -195 183 -195 L214 -195 C333 -195 381 -133 381 -57 L381 538 L223 538 L223 473 C198 506 166 542 115 542 L112 542 C47 542 15 484 15 414 L15 110 C15 35 60 -10 120 -10 C168 -10 202 30 221 59 L221 -55 Z M221 136 C221 120 214 106 199 106 C180 106 177 120 177 136 L177 392 C177 408 180 421 199 421 C218 421 221 406 221 391 L221 136 Z " />
<glyph glyph-name="h" unicode="h" horiz-adv-x="399" d="M16 0 L176 0 L176 384 C176 403 179 415 198 415 C217 415 221 402 221 387 L221 0 L383 0 L383 446 C383 490 356 543 292 543 L286 543 C234 543 199 507 176 472 L176 744 L16 744 L16 0 Z " />
<glyph glyph-name="i" unicode="i" horiz-adv-x="191" d="M176 538 L16 538 L16 0 L176 0 L176 538 Z M176 702 L16 702 L16 561 L176 561 L176 702 Z " />
<glyph glyph-name="j" unicode="j" horiz-adv-x="192" d="M176 702 L16 702 L16 561 L176 561 L176 702 Z M-46 -47 L-46 -188 L97 -188 C142 -188 176 -158 176 -107 L176 538 L16 538 L16 -28 C16 -43 11 -47 -1 -47 L-46 -47 Z " />
<glyph glyph-name="k" unicode="k" horiz-adv-x="391" d="M176 362 L176 744 L16 744 L16 0 L176 0 L176 222 L239 0 L395 0 L303 313 L387 538 L236 538 L176 362 Z " />
<glyph glyph-name="l" unicode="l" horiz-adv-x="191" d="M176 744 L16 744 L16 0 L176 0 L176 744 Z " />
<glyph glyph-name="m" unicode="m" horiz-adv-x="597" d="M16 0 L176 0 L176 384 C176 403 179 415 196 415 C215 415 217 403 217 384 L217 0 L379 0 L379 391 C380 406 384 415 399 415 C418 415 420 403 420 384 L420 0 L581 0 L581 445 C581 488 559 544 492 544 L486 544 C433 544 398 505 375 474 C364 509 338 544 286 544 L280 544 C230 544 192 500 174 471 L174 538 L16 538 L16 0 Z " />
<glyph glyph-name="n" unicode="n" horiz-adv-x="399" d="M16 0 L176 0 L176 383 C176 402 179 415 198 415 C217 415 221 402 221 386 L221 0 L383 0 L383 443 C383 479 364 543 293 543 L286 543 C235 543 201 509 174 470 L174 538 L16 538 L16 0 Z " />
<glyph glyph-name="o" unicode="o" horiz-adv-x="396" d="M13 167 C13 54 65 -11 181 -11 L213 -11 C318 -11 383 55 383 168 L383 373 C383 489 324 549 213 549 L182 549 C74 549 13 489 13 372 L13 167 L13 167 Z M174 390 C174 410 178 424 197 424 C216 424 221 410 221 390 L221 152 C221 132 216 118 197 118 C178 118 174 132 174 152 L174 390 L174 390 Z " />
<glyph glyph-name="p" unicode="p" horiz-adv-x="397" d="M16 538 L16 -188 L176 -188 L176 51 C203 12 234 -11 277 -11 L280 -11 C336 -11 382 41 382 117 L382 415 C382 491 354 545 287 545 L284 545 C237 545 207 519 175 472 L175 538 L16 538 Z M176 395 C176 412 180 425 197 425 C214 425 219 414 219 395 L219 136 C219 119 216 105 197 105 C182 105 176 118 176 137 L176 395 Z " />
<glyph glyph-name="q" unicode="q" horiz-adv-x="397" d="M264 538 C261 513 255 478 248 463 C221 503 191 545 134 545 L127 545 C48 545 15 484 15 403 L15 115 C15 47 58 -10 114 -10 L119 -10 C166 -10 199 24 222 59 L222 -188 L382 -188 L382 538 L264 538 Z M222 144 C222 121 216 106 199 106 C184 106 177 116 177 137 L177 395 C177 412 182 426 198 426 C217 426 222 412 222 393 L222 144 Z " />
<glyph glyph-name="r" unicode="r" horiz-adv-x="359" d="M174 538 L16 538 L16 0 L176 0 L176 396 C176 411 181 418 190 418 C202 418 205 411 205 396 L205 274 L349 274 L349 468 C349 511 327 541 279 541 L270 541 C216 541 187 493 174 469 L174 538 Z " />
<glyph glyph-name="s" unicode="s" horiz-adv-x="350" d="M336 438 C336 512 289 549 195 549 L160 549 C61 549 13 501 13 417 L13 399 C13 344 25 297 88 253 L164 198 C184 183 190 168 190 144 L190 128 C190 111 184 102 172 102 L171 102 C157 102 150 111 150 128 L150 191 L7 191 L7 116 C7 35 57 -11 154 -11 L190 -11 C290 -11 344 46 344 137 L344 155 C344 215 328 261 261 309 L181 369 C162 384 159 391 159 411 L159 425 C159 440 163 449 178 449 C193 449 196 440 196 425 L196 376 L336 376 L336 438 L336 438 Z " />
<glyph glyph-name="t" unicode="t" horiz-adv-x="296" d="M286 0 L286 138 L245 138 C229 138 227 143 227 158 L227 403 L286 403 L286 538 L227 538 L227 716 L67 716 L67 538 L6 538 L6 403 L67 403 L67 71 C67 24 98 0 131 0 L286 0 Z " />
<glyph glyph-name="u" unicode="u" horiz-adv-x="395" d="M379 538 L220 538 L220 154 C220 137 217 123 198 123 C182 123 177 137 177 152 L177 538 L16 538 L16 97 C16 55 41 -4 105 -4 L110 -4 C163 -4 195 30 222 69 L222 0 L379 0 L379 538 Z " />
<glyph glyph-name="v" unicode="v" horiz-adv-x="368" d="M84 0 L281 0 L370 538 L216 538 L185 210 L156 538 L-2 538 L84 0 Z " />
<glyph glyph-name="w" unicode="w" horiz-adv-x="567" d="M256 0 L285 271 L314 0 L484 0 L569 538 L417 538 L388 210 L357 538 L216 538 L184 215 L156 538 L-2 538 L83 0 L256 0 Z " />
<glyph glyph-name="x" unicode="x" horiz-adv-x="368" d="M76 289 L-2 0 L149 0 L183 163 L215 0 L370 0 L293 293 L363 538 L213 538 L186 390 L157 538 L3 538 L76 289 Z " />
<glyph glyph-name="y" unicode="y" horiz-adv-x="369" d="M100 22 C104 2 105 -6 104 -17 L103 -30 C102 -46 99 -52 84 -52 L27 -52 L27 -188 L168 -188 C203 -188 237 -169 249 -106 L372 538 L217 538 L189 252 L156 538 L-2 538 L100 22 Z " />
<glyph glyph-name="z" unicode="z" horiz-adv-x="310" d="M15 538 L15 409 L131 409 L7 121 L7 0 L302 0 L302 135 L176 135 L297 417 L297 538 L15 538 Z " />
<glyph glyph-name="braceleft" unicode="&#x7b;" horiz-adv-x="227" d="M188 254 C188 297 175 325 128 341 C175 357 188 387 188 438 C188 486 159 619 159 663 C159 688 169 701 196 701 L220 701 L220 808 L158 808 C78 808 32 768 32 691 C32 630 64 508 64 433 C64 410 58 396 33 396 L13 396 L13 286 L29 286 C52 286 64 272 64 245 C64 178 32 33 32 -15 C32 -92 78 -131 158 -131 L220 -131 L220 -25 L203 -25 C168 -25 159 -3 159 28 C159 76 188 201 188 254 L188 254 Z " />
<glyph glyph-name="bar" unicode="&#x7c;" horiz-adv-x="194" d="M150 808 L44 808 L44 -131 L150 -131 L150 808 Z " />
<glyph glyph-name="braceright" unicode="&#x7d;" horiz-adv-x="227" d="M39 438 C39 387 52 357 99 341 C52 325 39 297 39 254 C39 201 69 76 69 28 C69 -3 59 -25 24 -25 L7 -25 L7 -131 L69 -131 C149 -131 195 -92 195 -15 C195 33 163 178 163 245 C163 272 175 286 198 286 L215 286 L215 396 L195 396 C170 396 163 410 163 433 C163 508 195 630 195 691 C195 768 149 808 69 808 L7 808 L7 701 L31 701 C56 701 69 688 69 663 C69 619 39 486 39 438 L39 438 Z " />
<glyph glyph-name="asciitilde" unicode="&#x7e;" horiz-adv-x="304" d="M145 338 C172 311 188 301 221 301 C264 301 296 334 296 385 L296 506 L195 506 L195 453 C195 446 193 442 188 442 C181 442 176 448 160 464 C133 491 115 502 84 502 C35 502 9 461 9 409 L9 298 L109 298 L109 351 C109 358 111 362 116 362 C123 362 128 355 145 338 L145 338 Z " />
<glyph glyph-name="exclamdown" unicode="&#xa1;" horiz-adv-x="192" d="M21 377 L162 377 L162 538 L21 538 L21 377 Z M179 -206 L131 352 L52 352 L3 -206 L179 -206 Z " />
<glyph glyph-name="cent" unicode="&#xa2;" horiz-adv-x="372" d="M362 242 L230 242 L230 145 C230 128 225 114 210 107 L210 438 C226 433 231 419 231 400 L231 325 L362 325 L362 408 C362 489 321 549 212 549 L210 549 L210 614 L177 614 L177 549 L172 549 C59 549 13 480 13 387 L13 144 C13 44 70 -12 173 -12 L177 -12 L177 -75 L210 -75 L210 -12 C308 -12 362 50 362 133 L362 242 Z M157 400 C157 421 164 433 177 438 L177 107 C162 112 157 126 157 145 L157 400 L157 400 Z " />
<glyph glyph-name="sterling" unicode="&#xa3;" horiz-adv-x="459" d="M237 264 L237 296 L362 296 L362 425 L233 425 C230 470 230 510 230 537 L230 583 C230 607 236 618 256 618 C275 618 281 604 281 583 L281 471 L428 471 L428 599 C428 679 395 754 267 754 L243 754 C110 754 66 680 66 579 L66 529 C66 505 69 468 73 425 L10 425 L10 296 L86 296 C88 273 89 253 89 237 L89 234 C89 165 63 126 10 119 L10 0 L445 0 L445 250 L297 250 L297 135 L188 135 C216 164 237 204 237 264 L237 264 Z " />
<glyph glyph-name="yen" unicode="&#xa5;" horiz-adv-x="394" d="M281 204 L380 204 L380 294 L281 294 L281 316 L380 316 L380 405 L295 405 L389 744 L243 744 L203 516 L161 744 L-1 744 L102 405 L20 405 L20 316 L117 316 L117 294 L20 294 L20 204 L117 204 L117 0 L281 0 L281 204 Z " />
<glyph glyph-name="brokenbar" unicode="&#xa6;" horiz-adv-x="194" d="M150 345 L44 345 L44 -131 L150 -131 L150 345 Z M150 808 L44 808 L44 381 L150 381 L150 808 Z " />
<glyph glyph-name="section" unicode="&#xa7;" horiz-adv-x="447" d="M438 283 C438 348 416 382 350 429 C339 437 249 499 241 504 C214 525 209 536 209 571 L209 598 C209 618 214 629 231 629 C248 629 253 621 253 598 L253 525 L407 525 L407 604 C407 712 352 754 249 754 L215 754 C92 754 46 686 46 598 L46 577 C46 510 59 472 94 435 C43 419 9 387 9 323 L9 296 C9 224 27 189 99 141 C109 133 196 76 204 71 C233 48 238 32 238 1 L238 -38 C238 -59 231 -69 216 -69 C200 -69 192 -59 192 -40 L192 50 L37 50 L37 -39 C37 -147 87 -195 195 -195 L230 -195 C345 -195 402 -134 402 -30 L402 18 C402 79 388 109 351 144 C399 160 438 192 438 261 L438 283 Z M253 304 C282 281 288 273 288 250 L288 243 C288 223 282 218 273 215 L187 275 C159 296 152 306 152 329 L152 339 C152 353 157 361 168 364 L253 304 Z " />
<glyph glyph-name="dieresis" unicode="&#xa8;" horiz-adv-x="342" d="M159 680 L41 680 L41 561 L159 561 L159 680 Z M301 680 L183 680 L183 561 L301 561 L301 680 Z " />
<glyph glyph-name="copyright" unicode="&#xa9;" horiz-adv-x="558" d="M286 -11 C429 -11 542 68 542 256 L542 490 C542 671 445 755 289 755 L277 755 C117 755 16 665 16 490 L16 256 C16 68 114 -11 276 -11 L286 -11 Z M278 60 C155 60 100 133 100 274 L100 472 C100 616 154 684 278 684 L288 684 C409 684 460 604 460 472 L460 274 C460 137 407 60 286 60 L278 60 L278 60 Z M284 216 C273 216 269 226 269 241 L269 508 C269 524 272 531 284 531 C297 531 299 523 299 508 L299 435 L420 435 L420 514 C420 598 371 636 294 636 L273 636 C184 636 140 582 140 498 L140 246 C140 162 185 110 277 110 L293 110 C376 110 421 166 421 233 L421 340 L299 340 L299 241 C299 226 297 216 284 216 L284 216 Z " />
<glyph glyph-name="ordfeminine" unicode="&#xaa;" horiz-adv-x="238" d="M218 674 C218 723 190 749 118 749 L104 749 C41 749 13 719 13 678 L13 647 L101 647 L101 669 C101 678 105 683 112 683 C120 683 124 678 124 669 L124 658 C124 652 122 648 117 646 C109 640 69 625 52 617 C23 602 9 586 9 550 L9 500 C9 467 26 439 61 439 L62 439 C94 439 115 464 124 480 C124 455 132 443 149 443 L234 443 L234 519 L225 519 C220 519 218 521 218 526 L218 674 Z M124 521 C124 512 120 507 112 507 C105 507 102 511 102 520 L102 551 C102 562 104 569 108 573 C112 577 117 580 124 583 L124 521 Z " />
<glyph glyph-name="guillemotleft" unicode="&#xab;" horiz-adv-x="315" d="M122 286 L175 455 L61 455 L11 320 L11 253 L61 115 L175 115 L122 286 Z M263 286 L308 455 L194 455 L143 286 L194 115 L307 115 L263 286 Z " />
<glyph glyph-name="registered" unicode="&#xae;" horiz-adv-x="305" d="M158 394 C233 394 293 445 293 536 L293 611 C293 700 243 750 159 750 L149 750 C61 750 11 698 11 609 L11 536 C11 441 65 394 149 394 L158 394 Z M149 433 C82 433 57 471 57 539 L57 605 C57 680 84 711 149 711 L159 711 C223 711 247 671 247 608 L247 539 C247 471 222 433 158 433 L149 433 L149 433 Z M146 554 L152 554 C159 554 162 550 162 542 L162 483 C162 474 163 468 166 465 L224 465 L224 469 C221 472 220 478 220 486 L220 553 C220 568 213 578 199 583 C213 589 220 601 220 618 L220 644 C220 671 205 685 175 685 L86 685 L86 465 L146 465 L146 554 Z M146 644 L153 644 C159 644 162 640 162 633 L162 610 C162 599 160 598 153 598 L146 598 L146 644 Z " />
<glyph glyph-name="macron" unicode="&#xaf;" horiz-adv-x="342" d="M61 570 L281 570 L281 670 L61 670 L61 570 Z " />
<glyph glyph-name="degree" unicode="&#xb0;" horiz-adv-x="218" d="M6 648 C6 592 47 549 110 549 C170 549 212 592 212 648 C212 703 170 748 110 748 C47 748 6 704 6 648 L6 648 Z M73 649 C73 670 85 686 109 686 C130 686 145 670 145 649 C145 626 132 611 109 611 C85 611 73 626 73 649 L73 649 Z " />
<glyph glyph-name="acute" unicode="&#xb4;" horiz-adv-x="342" d="M84 561 L208 561 L258 707 L130 707 L84 561 Z " />
<glyph glyph-name="paragraph" unicode="&#xb6;" horiz-adv-x="425" d="M419 744 L137 744 C62 744 12 702 12 618 L12 469 C12 380 69 343 136 343 L142 343 L142 0 L244 0 L244 632 L277 632 L277 0 L378 0 L378 632 L419 632 L419 744 Z " />
<glyph glyph-name="periodcentered" unicode="&#xb7;" horiz-adv-x="170" d="M156 397 L14 397 L14 236 L156 236 L156 397 Z " />
<glyph glyph-name="cedilla" unicode="&#xb8;" horiz-adv-x="342" d="M158 -196 C221 -196 260 -168 260 -113 L260 -110 C260 -61 230 -36 171 -35 L166 -35 L166 0 L98 0 L98 -95 L141 -95 C155 -95 162 -100 162 -109 L162 -110 C162 -120 155 -125 141 -125 L83 -125 L83 -196 L158 -196 L158 -196 Z " />
<glyph glyph-name="ordmasculine" unicode="&#xba;" horiz-adv-x="242" d="M131 439 C191 439 231 474 231 541 L231 647 C231 716 191 749 131 749 L112 749 C49 749 11 714 11 647 L11 541 C11 473 49 439 112 439 L131 439 Z M110 657 C110 668 112 675 121 675 C132 675 134 668 134 657 L134 531 C134 522 132 514 121 514 C112 514 110 522 110 531 L110 657 Z " />
<glyph glyph-name="guillemotright" unicode="&#xbb;" horiz-adv-x="314" d="M139 115 L253 115 L304 251 L304 318 L253 455 L139 455 L193 284 L139 115 Z M7 115 L121 115 L172 284 L121 455 L7 455 L53 284 L7 115 Z " />
<glyph glyph-name="onequarter" unicode="&#xbc;" horiz-adv-x="420" d="M49 627 L49 403 L150 403 L150 744 L61 744 C58 721 46 704 6 704 L6 627 L49 627 Z M304 744 L9 0 L103 0 L399 744 L304 744 Z M195 53 L287 53 L287 0 L384 0 L384 53 L413 53 L413 137 L384 137 L384 343 L279 343 C258 282 216 173 195 123 L195 53 Z M260 137 C266 154 282 195 287 214 L287 137 L260 137 Z " />
<glyph glyph-name="onehalf" unicode="&#xbd;" horiz-adv-x="470" d="M304 744 L9 0 L103 0 L399 744 L304 744 Z M49 627 L49 403 L150 403 L150 744 L61 744 C58 721 46 704 6 704 L6 627 L49 627 Z M461 0 L461 122 L375 122 L375 76 L323 76 C323 90 323 89 380 135 C433 175 454 201 454 248 L454 262 C454 310 429 348 348 348 L331 348 C256 348 234 305 234 260 L234 216 L328 216 L328 261 C328 271 332 276 339 276 C347 276 351 271 351 261 L351 246 C351 228 348 219 313 184 C241 109 229 89 229 44 L229 0 L461 0 Z " />
<glyph glyph-name="threequarters" unicode="&#xbe;" horiz-adv-x="481" d="M364 744 L69 0 L163 0 L459 744 L364 744 Z M103 631 L103 666 C103 675 106 680 113 680 C121 680 125 675 125 666 L125 631 C125 622 121 618 112 618 L70 618 L70 542 L115 542 C122 542 126 538 126 529 L126 485 C126 476 123 472 116 472 C109 472 105 476 105 485 L105 527 L8 527 L8 480 C8 435 28 395 109 395 L124 395 C200 395 232 431 232 491 L232 532 C232 571 209 587 190 594 C205 599 224 617 224 650 L224 668 C224 727 188 750 121 750 L108 750 C36 750 10 715 10 666 L10 631 L103 631 Z M256 53 L348 53 L348 0 L445 0 L445 53 L474 53 L474 137 L445 137 L445 343 L340 343 C319 282 277 173 256 123 L256 53 Z M321 137 C327 154 343 195 348 214 L348 137 L321 137 Z " />
<glyph glyph-name="questiondown" unicode="&#xbf;" horiz-adv-x="377" d="M142 352 L142 290 C142 252 138 241 117 215 L53 133 C16 86 8 51 8 -11 L8 -62 C8 -152 51 -215 170 -215 L205 -215 C336 -215 361 -137 361 -57 L361 59 L213 59 L213 -53 C213 -73 210 -84 191 -84 C174 -84 169 -74 169 -53 L169 -2 C169 27 171 44 187 69 L232 140 C259 183 265 202 265 250 L265 352 L142 352 Z M132 377 L274 377 L274 538 L132 538 L132 377 Z " />
<glyph glyph-name="Agrave" unicode="&#xc0;" horiz-adv-x="397" d="M240 0 L400 0 L296 744 L93 744 L-2 0 L141 0 L152 109 L228 109 L240 0 Z M190 482 L213 256 L167 256 L190 482 Z M216 890 L87 890 L135 767 L261 767 L216 890 Z " />
<glyph glyph-name="Aacute" unicode="&#xc1;" horiz-adv-x="397" d="M240 0 L400 0 L296 744 L93 744 L-2 0 L141 0 L152 109 L228 109 L240 0 Z M190 482 L213 256 L167 256 L190 482 Z M130 767 L256 767 L306 890 L176 890 L130 767 Z " />
<glyph glyph-name="Acircumflex" unicode="&#xc2;" horiz-adv-x="397" d="M240 0 L400 0 L296 744 L93 744 L-2 0 L141 0 L152 109 L228 109 L240 0 Z M190 482 L213 256 L167 256 L190 482 Z M256 890 L128 890 L58 767 L166 767 L192 814 L219 767 L327 767 L256 890 Z " />
<glyph glyph-name="Atilde" unicode="&#xc3;" horiz-adv-x="397" d="M240 0 L400 0 L296 744 L93 744 L-2 0 L141 0 L152 109 L228 109 L240 0 Z M190 482 L213 256 L167 256 L190 482 Z M193 785 C220 774 237 770 256 770 L258 770 C294 770 319 797 319 845 L319 894 L234 894 L234 875 C234 868 232 864 227 864 C220 864 216 867 197 875 C172 886 156 891 133 891 L132 891 C93 891 71 863 71 816 L71 766 L156 766 L156 784 C156 791 159 795 164 795 C171 795 178 792 193 785 L193 785 Z " />
<glyph glyph-name="Adieresis" unicode="&#xc4;" horiz-adv-x="397" d="M240 0 L400 0 L296 744 L93 744 L-2 0 L141 0 L152 109 L228 109 L240 0 Z M190 482 L213 256 L167 256 L190 482 Z M322 885 L204 885 L204 767 L322 767 L322 885 Z M180 885 L62 885 L62 767 L180 767 L180 885 Z " />
<glyph glyph-name="Aring" unicode="&#xc5;" horiz-adv-x="397" d="M240 0 L400 0 L296 744 L93 744 L-2 0 L141 0 L152 109 L228 109 L240 0 Z M190 482 L213 256 L167 256 L190 482 Z M158 845 C158 864 172 879 192 879 C212 879 226 864 226 845 C226 825 212 810 192 810 C172 810 158 825 158 845 L158 845 Z M192 928 C143 928 106 894 106 845 C106 797 143 762 192 762 C241 762 278 797 278 845 C278 894 241 928 192 928 L192 928 Z " />
<glyph glyph-name="AE" unicode="&#xc6;" horiz-adv-x="552" d="M543 0 L543 157 L406 157 L406 305 L507 305 L507 463 L406 463 L406 589 L535 589 L535 744 L134 744 L-6 0 L152 0 L170 117 L242 117 L242 0 L543 0 Z M193 263 L242 568 L242 263 L193 263 Z " />
<glyph glyph-name="Ccedilla" unicode="&#xc7;" horiz-adv-x="418" d="M241 176 C241 153 235 137 215 137 C194 137 187 151 187 176 L187 573 C187 600 193 610 214 610 C235 610 241 597 241 573 L241 458 L404 458 L404 580 C404 678 360 754 228 754 L198 754 C64 754 16 670 16 563 L16 185 C16 70 60 -12 199 -12 L228 -12 C359 -12 404 78 404 171 L404 325 L241 325 L241 176 L241 176 Z M210 -196 C273 -196 312 -168 312 -113 L312 -110 C312 -61 282 -36 223 -35 L218 -35 L218 0 L150 0 L150 -95 L193 -95 C207 -95 214 -100 214 -109 L214 -110 C214 -120 207 -125 193 -125 L135 -125 L135 -196 L210 -196 L210 -196 Z " />
<glyph glyph-name="Egrave" unicode="&#xc8;" horiz-adv-x="342" d="M18 744 L18 0 L333 0 L333 157 L181 157 L181 305 L298 305 L298 463 L181 463 L181 590 L327 590 L327 744 L18 744 Z M199 890 L70 890 L118 767 L244 767 L199 890 Z " />
<glyph glyph-name="Eacute" unicode="&#xc9;" horiz-adv-x="342" d="M18 744 L18 0 L333 0 L333 157 L181 157 L181 305 L298 305 L298 463 L181 463 L181 590 L327 590 L327 744 L18 744 Z M110 767 L236 767 L286 890 L156 890 L110 767 Z " />
<glyph glyph-name="Ecircumflex" unicode="&#xca;" horiz-adv-x="342" d="M18 744 L18 0 L333 0 L333 157 L181 157 L181 305 L298 305 L298 463 L181 463 L181 590 L327 590 L327 744 L18 744 Z M238 890 L110 890 L40 767 L148 767 L174 814 L201 767 L309 767 L238 890 Z " />
<glyph glyph-name="Edieresis" unicode="&#xcb;" horiz-adv-x="342" d="M18 744 L18 0 L333 0 L333 157 L181 157 L181 305 L298 305 L298 463 L181 463 L181 590 L327 590 L327 744 L18 744 Z M304 885 L186 885 L186 767 L304 767 L304 885 Z M162 885 L44 885 L44 767 L162 767 L162 885 Z " />
<glyph glyph-name="Igrave" unicode="&#xcc;" horiz-adv-x="201" d="M183 744 L18 744 L18 0 L183 0 L183 744 Z M120 890 L-9 890 L39 767 L165 767 L120 890 Z " />
<glyph glyph-name="Iacute" unicode="&#xcd;" horiz-adv-x="201" d="M183 744 L18 744 L18 0 L183 0 L183 744 Z M38 767 L164 767 L214 890 L84 890 L38 767 Z " />
<glyph glyph-name="Icircumflex" unicode="&#xce;" horiz-adv-x="201" d="M183 744 L18 744 L18 0 L183 0 L183 744 Z M163 889 L35 889 L-35 766 L73 766 L99 813 L126 766 L234 766 L163 889 Z " />
<glyph glyph-name="Idieresis" unicode="&#xcf;" horiz-adv-x="201" d="M183 744 L18 744 L18 0 L183 0 L183 744 Z M231 885 L113 885 L113 767 L231 767 L231 885 Z M89 885 L-29 885 L-29 767 L89 767 L89 885 Z " />
<glyph glyph-name="Eth" unicode="&#xd0;" horiz-adv-x="426" d="M25 457 L1 457 L1 314 L25 314 L25 0 L261 0 C360 0 410 54 410 171 L410 580 C410 699 353 744 260 744 L25 744 L25 457 Z M188 314 L226 314 L226 457 L188 457 L188 606 L212 606 C235 606 242 594 242 563 L242 188 C242 157 235 143 210 143 L188 143 L188 314 Z " />
<glyph glyph-name="Ntilde" unicode="&#xd1;" horiz-adv-x="423" d="M18 744 L18 0 L161 0 L161 388 L259 0 L404 0 L404 744 L263 744 L263 384 L178 744 L18 744 Z M219 785 C246 774 263 770 282 770 L284 770 C320 770 345 797 345 845 L345 894 L260 894 L260 875 C260 868 258 864 253 864 C246 864 242 867 223 875 C198 886 182 891 159 891 L158 891 C119 891 97 863 97 816 L97 766 L182 766 L182 784 C182 791 185 795 190 795 C197 795 204 792 219 785 L219 785 Z " />
<glyph glyph-name="Ograve" unicode="&#xd2;" horiz-adv-x="433" d="M418 544 C418 671 365 754 233 754 L201 754 C70 754 16 672 16 544 L16 191 C16 62 81 -11 202 -11 L234 -11 C347 -11 418 62 418 191 L418 544 Z M247 180 C247 157 239 143 218 143 C195 143 187 157 187 180 L187 561 C187 589 194 603 217 603 C237 603 247 589 247 561 L247 180 Z M236 890 L107 890 L155 767 L281 767 L236 890 Z " />
<glyph glyph-name="Oacute" unicode="&#xd3;" horiz-adv-x="433" d="M418 544 C418 671 365 754 233 754 L201 754 C70 754 16 672 16 544 L16 191 C16 62 81 -11 202 -11 L234 -11 C347 -11 418 62 418 191 L418 544 Z M247 180 C247 157 239 143 218 143 C195 143 187 157 187 180 L187 561 C187 589 194 603 217 603 C237 603 247 589 247 561 L247 180 Z M153 767 L279 767 L329 890 L199 890 L153 767 Z " />
<glyph glyph-name="Ocircumflex" unicode="&#xd4;" horiz-adv-x="433" d="M418 544 C418 671 365 754 233 754 L201 754 C70 754 16 672 16 544 L16 191 C16 62 81 -11 202 -11 L234 -11 C347 -11 418 62 418 191 L418 544 Z M247 180 C247 157 239 143 218 143 C195 143 187 157 187 180 L187 561 C187 589 194 603 217 603 C237 603 247 589 247 561 L247 180 Z M281 890 L153 890 L83 767 L191 767 L217 814 L244 767 L352 767 L281 890 Z " />
<glyph glyph-name="Otilde" unicode="&#xd5;" horiz-adv-x="433" d="M418 544 C418 671 365 754 233 754 L201 754 C70 754 16 672 16 544 L16 191 C16 62 81 -11 202 -11 L234 -11 C347 -11 418 62 418 191 L418 544 Z M247 180 C247 157 239 143 218 143 C195 143 187 157 187 180 L187 561 C187 589 194 603 217 603 C237 603 247 589 247 561 L247 180 Z M215 788 C242 777 259 773 278 773 L280 773 C316 773 341 800 341 848 L341 897 L256 897 L256 878 C256 871 254 867 249 867 C242 867 238 870 219 878 C194 889 178 894 155 894 L154 894 C115 894 93 866 93 819 L93 769 L178 769 L178 787 C178 794 181 798 186 798 C193 798 200 795 215 788 L215 788 Z " />
<glyph glyph-name="Odieresis" unicode="&#xd6;" horiz-adv-x="433" d="M418 544 C418 671 365 754 233 754 L201 754 C70 754 16 672 16 544 L16 191 C16 62 81 -11 202 -11 L234 -11 C347 -11 418 62 418 191 L418 544 Z M247 180 C247 157 239 143 218 143 C195 143 187 157 187 180 L187 561 C187 589 194 603 217 603 C237 603 247 589 247 561 L247 180 Z M347 885 L229 885 L229 767 L347 767 L347 885 Z M205 885 L87 885 L87 767 L205 767 L205 885 Z " />
<glyph glyph-name="multiply" unicode="&#xd7;" horiz-adv-x="320" d="M242 148 L312 218 L229 302 L312 386 L242 455 L161 371 L79 455 L9 384 L91 300 L9 216 L79 148 L160 231 L242 148 Z " />
<glyph glyph-name="Oslash" unicode="&#xd8;" horiz-adv-x="429" d="M413 545 C413 594 404 632 389 661 L426 744 L343 744 L332 721 C306 743 271 754 227 754 L201 754 C70 754 16 672 16 544 L16 191 C16 147 23 113 38 84 L0 0 L82 0 L94 25 C122 1 158 -11 202 -11 L229 -11 C342 -11 413 62 413 191 L413 545 Z M215 142 C191 142 183 157 183 180 L183 212 L246 375 L246 180 C246 157 239 142 215 142 L215 142 Z M215 604 C236 604 246 590 246 561 L246 541 L183 378 L183 561 C183 592 191 604 215 604 L215 604 Z " />
<glyph glyph-name="Ugrave" unicode="&#xd9;" horiz-adv-x="430" d="M18 177 C18 62 74 -12 198 -12 L230 -12 C347 -12 412 64 412 177 L412 744 L242 744 L242 185 C242 161 235 147 215 147 C197 147 188 160 188 185 L188 744 L18 744 L18 177 Z M235 890 L106 890 L154 767 L280 767 L235 890 Z " />
<glyph glyph-name="Uacute" unicode="&#xda;" horiz-adv-x="430" d="M18 177 C18 62 74 -12 198 -12 L230 -12 C347 -12 412 64 412 177 L412 744 L242 744 L242 185 C242 161 235 147 215 147 C197 147 188 160 188 185 L188 744 L18 744 L18 177 Z M150 767 L276 767 L326 890 L196 890 L150 767 Z " />
<glyph glyph-name="Ucircumflex" unicode="&#xdb;" horiz-adv-x="430" d="M18 177 C18 62 74 -12 198 -12 L230 -12 C347 -12 412 64 412 177 L412 744 L242 744 L242 185 C242 161 235 147 215 147 C197 147 188 160 188 185 L188 744 L18 744 L18 177 Z M277 890 L149 890 L79 767 L187 767 L213 814 L240 767 L348 767 L277 890 Z " />
<glyph glyph-name="Udieresis" unicode="&#xdc;" horiz-adv-x="430" d="M18 177 C18 62 74 -12 198 -12 L230 -12 C347 -12 412 64 412 177 L412 744 L242 744 L242 185 C242 161 235 147 215 147 C197 147 188 160 188 185 L188 744 L18 744 L18 177 Z M344 885 L226 885 L226 767 L344 767 L344 885 Z M202 885 L84 885 L84 767 L202 767 L202 885 Z " />
<glyph glyph-name="Yacute" unicode="&#xdd;" horiz-adv-x="382" d="M387 744 L239 744 L200 499 L159 744 L-6 744 L114 278 L114 0 L278 0 L278 281 L387 744 Z M133 767 L259 767 L309 890 L179 890 L133 767 Z " />
<glyph glyph-name="Thorn" unicode="&#xde;" horiz-adv-x="410" d="M261 180 C342 180 398 225 398 328 L398 460 C398 563 348 602 260 602 L183 602 L183 744 L18 744 L18 0 L183 0 L183 180 L261 180 Z M183 477 L205 477 C229 477 234 466 234 443 L234 344 C234 319 227 309 206 309 L183 309 L183 477 Z " />
<glyph glyph-name="germandbls" unicode="&#xdf;" horiz-adv-x="399" d="M315 443 C342 454 375 488 375 543 L375 609 C375 691 328 749 215 749 L177 749 C65 749 16 681 16 593 L16 0 L175 0 L175 594 C175 613 181 622 194 622 L199 622 C214 622 220 610 220 593 L220 492 C220 477 214 470 203 470 L191 470 L191 339 L203 339 C218 339 221 333 221 318 L221 153 C221 139 216 132 205 132 L191 132 L191 0 L264 0 C349 0 388 50 388 134 L388 334 C388 398 356 430 315 443 L315 443 Z " />
<glyph glyph-name="agrave" unicode="&#xe0;" horiz-adv-x="388" d="M202 136 C202 121 197 110 182 110 C167 110 163 120 163 136 L163 199 C163 219 166 227 174 238 C182 247 195 255 202 259 L202 136 Z M11 96 C11 43 40 -6 96 -6 L100 -6 C151 -6 186 33 203 61 C203 20 217 0 244 0 L385 0 L385 131 L371 131 C359 131 356 134 356 143 L356 420 C356 504 307 547 192 547 L170 547 C63 547 18 497 18 426 L18 365 L160 365 L160 415 C160 430 164 439 180 439 L183 439 C196 439 202 431 202 415 L202 387 C202 372 199 371 191 367 C175 359 106 330 79 317 C34 293 11 259 11 202 L11 96 Z M200 707 L72 707 L122 561 L245 561 L200 707 Z " />
<glyph glyph-name="aacute" unicode="&#xe1;" horiz-adv-x="388" d="M202 136 C202 121 197 110 182 110 C167 110 163 120 163 136 L163 199 C163 219 166 227 174 238 C182 247 195 255 202 259 L202 136 Z M11 96 C11 43 40 -6 96 -6 L100 -6 C151 -6 186 33 203 61 C203 20 217 0 244 0 L385 0 L385 131 L371 131 C359 131 356 134 356 143 L356 420 C356 504 307 547 192 547 L170 547 C63 547 18 497 18 426 L18 365 L160 365 L160 415 C160 430 164 439 180 439 L183 439 C196 439 202 431 202 415 L202 387 C202 372 199 371 191 367 C175 359 106 330 79 317 C34 293 11 259 11 202 L11 96 Z M121 561 L245 561 L295 707 L167 707 L121 561 Z " />
<glyph glyph-name="acircumflex" unicode="&#xe2;" horiz-adv-x="388" d="M202 136 C202 121 197 110 182 110 C167 110 163 120 163 136 L163 199 C163 219 166 227 174 238 C182 247 195 255 202 259 L202 136 Z M11 96 C11 43 40 -6 96 -6 L100 -6 C151 -6 186 33 203 61 C203 20 217 0 244 0 L385 0 L385 131 L371 131 C359 131 356 134 356 143 L356 420 C356 504 307 547 192 547 L170 547 C63 547 18 497 18 426 L18 365 L160 365 L160 415 C160 430 164 439 180 439 L183 439 C196 439 202 431 202 415 L202 387 C202 372 199 371 191 367 C175 359 106 330 79 317 C34 293 11 259 11 202 L11 96 Z M249 707 L119 707 L52 561 L159 561 L184 626 L208 561 L317 561 L249 707 Z " />
<glyph glyph-name="atilde" unicode="&#xe3;" horiz-adv-x="388" d="M202 136 C202 121 197 110 182 110 C167 110 163 120 163 136 L163 199 C163 219 166 227 174 238 C182 247 195 255 202 259 L202 136 Z M11 96 C11 43 40 -6 96 -6 L100 -6 C151 -6 186 33 203 61 C203 20 217 0 244 0 L385 0 L385 131 L371 131 C359 131 356 134 356 143 L356 420 C356 504 307 547 192 547 L170 547 C63 547 18 497 18 426 L18 365 L160 365 L160 415 C160 430 164 439 180 439 L183 439 C196 439 202 431 202 415 L202 387 C202 372 199 371 191 367 C175 359 106 330 79 317 C34 293 11 259 11 202 L11 96 Z M219 694 L219 674 C219 667 217 663 213 663 C206 663 200 667 185 674 C157 689 143 693 122 693 L121 693 C80 693 59 664 59 624 L59 562 L145 562 L145 582 C145 590 147 594 152 594 C159 594 164 590 179 583 C207 568 222 563 242 563 L244 563 C284 563 305 591 305 628 L305 694 L219 694 Z " />
<glyph glyph-name="adieresis" unicode="&#xe4;" horiz-adv-x="388" d="M202 136 C202 121 197 110 182 110 C167 110 163 120 163 136 L163 199 C163 219 166 227 174 238 C182 247 195 255 202 259 L202 136 Z M11 96 C11 43 40 -6 96 -6 L100 -6 C151 -6 186 33 203 61 C203 20 217 0 244 0 L385 0 L385 131 L371 131 C359 131 356 134 356 143 L356 420 C356 504 307 547 192 547 L170 547 C63 547 18 497 18 426 L18 365 L160 365 L160 415 C160 430 164 439 180 439 L183 439 C196 439 202 431 202 415 L202 387 C202 372 199 371 191 367 C175 359 106 330 79 317 C34 293 11 259 11 202 L11 96 Z M170 682 L52 682 L52 563 L170 563 L170 682 Z M312 682 L194 682 L194 563 L312 563 L312 682 Z " />
<glyph glyph-name="aring" unicode="&#xe5;" horiz-adv-x="388" d="M202 136 C202 121 197 110 182 110 C167 110 163 120 163 136 L163 199 C163 219 166 227 174 238 C182 247 195 255 202 259 L202 136 Z M11 96 C11 43 40 -6 96 -6 L100 -6 C151 -6 186 33 203 61 C203 20 217 0 244 0 L385 0 L385 131 L371 131 C359 131 356 134 356 143 L356 420 C356 504 307 547 192 547 L170 547 C63 547 18 497 18 426 L18 365 L160 365 L160 415 C160 430 164 439 180 439 L183 439 C196 439 202 431 202 415 L202 387 C202 372 199 371 191 367 C175 359 106 330 79 317 C34 293 11 259 11 202 L11 96 Z M181 609 C161 609 147 624 147 644 C147 663 161 678 181 678 C201 678 215 663 215 644 C215 624 201 609 181 609 L181 609 Z M181 561 C230 561 267 596 267 644 C267 693 230 727 181 727 C132 727 95 693 95 644 C95 596 132 561 181 561 L181 561 Z " />
<glyph glyph-name="ae" unicode="&#xe6;" horiz-adv-x="563" d="M219 65 C235 30 269 -11 363 -11 L393 -11 C496 -11 552 47 552 143 L552 214 L400 214 L400 138 C400 119 397 108 378 108 C363 108 358 115 357 138 L357 250 L552 250 L552 384 C552 504 488 549 392 549 L377 549 C322 549 297 529 286 518 C275 527 248 547 189 547 L169 547 C64 547 18 497 18 426 L18 351 L160 351 L160 415 C160 431 166 439 179 439 L183 439 C196 439 202 431 202 415 L202 373 C202 358 199 357 191 353 C175 345 105 319 79 303 C34 279 11 246 11 187 L11 97 C11 44 40 -6 99 -6 L102 -6 C158 -6 196 30 219 65 L219 65 Z M202 136 C202 121 197 110 182 110 C169 110 163 119 163 136 L163 185 C163 206 165 214 174 225 C182 234 195 242 202 246 L202 136 Z M357 412 C357 431 361 443 380 443 C399 443 402 432 402 411 L402 349 L357 349 L357 412 Z " />
<glyph glyph-name="ccedilla" unicode="&#xe7;" horiz-adv-x="368" d="M212 241 L212 138 C212 121 205 112 192 112 C177 112 174 123 174 139 L174 404 C174 423 177 432 192 432 C209 432 213 422 213 403 L213 325 L357 325 L357 406 C357 488 319 549 207 549 L174 549 C57 549 13 478 13 385 L13 145 C13 45 70 -12 175 -12 L205 -12 C305 -12 357 50 357 133 L357 241 L212 241 Z M186 -196 C249 -196 288 -168 288 -113 L288 -110 C288 -61 258 -36 199 -35 L194 -35 L194 0 L126 0 L126 -95 L169 -95 C183 -95 190 -100 190 -109 L190 -110 C190 -120 183 -125 169 -125 L111 -125 L111 -196 L186 -196 L186 -196 Z " />
<glyph glyph-name="egrave" unicode="&#xe8;" horiz-adv-x="375" d="M174 549 C64 549 13 482 13 389 L13 143 C13 39 75 -11 174 -11 L205 -11 C298 -11 363 43 363 140 L363 214 L211 214 L211 138 C211 119 206 108 190 108 C175 108 168 118 168 138 L168 251 L363 251 L363 389 C363 501 301 549 205 549 L174 549 Z M168 410 C168 433 171 443 190 443 C209 443 213 433 213 410 L213 349 L168 349 L168 410 Z M205 707 L77 707 L127 561 L250 561 L205 707 Z " />
<glyph glyph-name="eacute" unicode="&#xe9;" horiz-adv-x="375" d="M174 549 C64 549 13 482 13 389 L13 143 C13 39 75 -11 174 -11 L205 -11 C298 -11 363 43 363 140 L363 214 L211 214 L211 138 C211 119 206 108 190 108 C175 108 168 118 168 138 L168 251 L363 251 L363 389 C363 501 301 549 205 549 L174 549 Z M168 410 C168 433 171 443 190 443 C209 443 213 433 213 410 L213 349 L168 349 L168 410 Z M127 561 L251 561 L301 707 L173 707 L127 561 Z " />
<glyph glyph-name="ecircumflex" unicode="&#xea;" horiz-adv-x="375" d="M174 549 C64 549 13 482 13 389 L13 143 C13 39 75 -11 174 -11 L205 -11 C298 -11 363 43 363 140 L363 214 L211 214 L211 138 C211 119 206 108 190 108 C175 108 168 118 168 138 L168 251 L363 251 L363 389 C363 501 301 549 205 549 L174 549 Z M168 410 C168 433 171 443 190 443 C209 443 213 433 213 410 L213 349 L168 349 L168 410 Z M254 707 L124 707 L57 561 L164 561 L189 626 L213 561 L322 561 L254 707 Z " />
<glyph glyph-name="edieresis" unicode="&#xeb;" horiz-adv-x="375" d="M174 549 C64 549 13 482 13 389 L13 143 C13 39 75 -11 174 -11 L205 -11 C298 -11 363 43 363 140 L363 214 L211 214 L211 138 C211 119 206 108 190 108 C175 108 168 118 168 138 L168 251 L363 251 L363 389 C363 501 301 549 205 549 L174 549 Z M168 410 C168 433 171 443 190 443 C209 443 213 433 213 410 L213 349 L168 349 L168 410 Z M176 684 L58 684 L58 565 L176 565 L176 684 Z M318 684 L200 684 L200 565 L318 565 L318 684 Z " />
<glyph glyph-name="igrave" unicode="&#xec;" horiz-adv-x="191" d="M176 538 L16 538 L16 0 L176 0 L176 538 Z M114 707 L-14 707 L36 561 L159 561 L114 707 Z " />
<glyph glyph-name="iacute" unicode="&#xed;" horiz-adv-x="191" d="M176 538 L16 538 L16 0 L176 0 L176 538 Z M36 561 L160 561 L210 707 L82 707 L36 561 Z " />
<glyph glyph-name="icircumflex" unicode="&#xee;" horiz-adv-x="191" d="M160 707 L30 707 L-21 561 L75 561 L95 630 L114 561 L212 561 L160 707 Z M176 538 L16 538 L16 0 L176 0 L176 538 Z " />
<glyph glyph-name="idieresis" unicode="&#xef;" horiz-adv-x="191" d="M86 681 L-20 681 L-20 561 L86 561 L86 681 Z M211 681 L105 681 L105 561 L211 561 L211 681 Z M176 538 L16 538 L16 0 L176 0 L176 538 Z " />
<glyph glyph-name="eth" unicode="&#xf0;" horiz-adv-x="392" d="M66 546 L167 585 L223 484 C196 512 163 540 116 540 L111 540 C51 540 13 484 13 404 L13 156 C13 57 63 -11 182 -11 L209 -11 C316 -11 379 63 379 162 L379 389 C379 465 369 504 332 571 L296 634 L332 648 L332 739 L254 709 L234 744 L80 744 L126 660 L66 637 L66 546 Z M220 153 C220 133 215 118 196 118 C177 118 173 133 173 153 L173 390 C173 409 176 424 196 424 C217 424 220 409 220 390 L220 153 Z " />
<glyph glyph-name="ntilde" unicode="&#xf1;" horiz-adv-x="399" d="M16 0 L176 0 L176 383 C176 402 179 415 198 415 C217 415 221 402 221 386 L221 0 L383 0 L383 443 C383 479 364 543 293 543 L286 543 C235 543 201 509 174 470 L174 538 L16 538 L16 0 Z M235 692 L235 672 C235 665 233 661 229 661 C222 661 216 665 201 672 C173 687 159 691 138 691 L137 691 C96 691 75 662 75 622 L75 560 L161 560 L161 580 C161 588 163 592 168 592 C175 592 180 588 195 581 C223 566 238 561 258 561 L260 561 C300 561 321 589 321 626 L321 692 L235 692 Z " />
<glyph glyph-name="ograve" unicode="&#xf2;" horiz-adv-x="396" d="M13 167 C13 54 65 -11 181 -11 L213 -11 C318 -11 383 55 383 168 L383 373 C383 489 324 549 213 549 L182 549 C74 549 13 489 13 372 L13 167 L13 167 Z M174 390 C174 410 178 424 197 424 C216 424 221 410 221 390 L221 152 C221 132 216 118 197 118 C178 118 174 132 174 152 L174 390 L174 390 Z M215 707 L87 707 L137 561 L260 561 L215 707 Z " />
<glyph glyph-name="oacute" unicode="&#xf3;" horiz-adv-x="396" d="M13 167 C13 54 65 -11 181 -11 L213 -11 C318 -11 383 55 383 168 L383 373 C383 489 324 549 213 549 L182 549 C74 549 13 489 13 372 L13 167 L13 167 Z M174 390 C174 410 178 424 197 424 C216 424 221 410 221 390 L221 152 C221 132 216 118 197 118 C178 118 174 132 174 152 L174 390 L174 390 Z M136 561 L260 561 L310 707 L182 707 L136 561 Z " />
<glyph glyph-name="ocircumflex" unicode="&#xf4;" horiz-adv-x="396" d="M13 167 C13 54 65 -11 181 -11 L213 -11 C318 -11 383 55 383 168 L383 373 C383 489 324 549 213 549 L182 549 C74 549 13 489 13 372 L13 167 L13 167 Z M174 390 C174 410 178 424 197 424 C216 424 221 410 221 390 L221 152 C221 132 216 118 197 118 C178 118 174 132 174 152 L174 390 L174 390 Z M263 707 L133 707 L66 561 L173 561 L198 626 L222 561 L331 561 L263 707 Z " />
<glyph glyph-name="otilde" unicode="&#xf5;" horiz-adv-x="396" d="M13 167 C13 54 65 -11 181 -11 L213 -11 C318 -11 383 55 383 168 L383 373 C383 489 324 549 213 549 L182 549 C74 549 13 489 13 372 L13 167 L13 167 Z M174 390 C174 410 178 424 197 424 C216 424 221 410 221 390 L221 152 C221 132 216 118 197 118 C178 118 174 132 174 152 L174 390 L174 390 Z M233 696 L233 676 C233 669 231 665 227 665 C220 665 214 669 199 676 C171 691 157 695 136 695 L135 695 C94 695 73 666 73 626 L73 564 L159 564 L159 584 C159 592 161 596 166 596 C173 596 178 592 193 585 C221 570 236 565 256 565 L258 565 C298 565 319 593 319 630 L319 696 L233 696 Z " />
<glyph glyph-name="odieresis" unicode="&#xf6;" horiz-adv-x="396" d="M13 167 C13 54 65 -11 181 -11 L213 -11 C318 -11 383 55 383 168 L383 373 C383 489 324 549 213 549 L182 549 C74 549 13 489 13 372 L13 167 L13 167 Z M174 390 C174 410 178 424 197 424 C216 424 221 410 221 390 L221 152 C221 132 216 118 197 118 C178 118 174 132 174 152 L174 390 L174 390 Z M185 684 L67 684 L67 565 L185 565 L185 684 Z M327 684 L209 684 L209 565 L327 565 L327 684 Z " />
<glyph glyph-name="divide" unicode="&#xf7;" horiz-adv-x="346" d="M14 351 L14 252 L333 252 L333 351 L14 351 Z M228 484 L118 484 L118 375 L228 375 L228 484 Z M228 227 L118 227 L118 117 L228 117 L228 227 Z " />
<glyph glyph-name="oslash" unicode="&#xf8;" horiz-adv-x="388" d="M13 166 C13 126 20 93 35 66 L-4 0 L72 0 L83 18 C107 1 141 -11 185 -11 L201 -11 C310 -11 374 52 374 167 L374 373 C374 412 366 446 351 471 L391 538 L314 538 L303 520 C278 539 246 549 203 549 L185 549 C76 549 13 493 13 372 L13 166 L13 166 Z M219 377 L169 278 L169 390 C169 409 173 426 193 426 C216 426 219 409 219 390 L219 377 Z M193 117 C174 117 169 131 169 152 L169 165 L219 263 L219 152 C219 132 214 117 193 117 L193 117 Z " />
<glyph glyph-name="ugrave" unicode="&#xf9;" horiz-adv-x="395" d="M379 538 L220 538 L220 154 C220 137 217 123 198 123 C182 123 177 137 177 152 L177 538 L16 538 L16 97 C16 55 41 -4 105 -4 L110 -4 C163 -4 195 30 222 69 L222 0 L379 0 L379 538 Z M216 707 L88 707 L138 561 L261 561 L216 707 Z " />
<glyph glyph-name="uacute" unicode="&#xfa;" horiz-adv-x="395" d="M379 538 L220 538 L220 154 C220 137 217 123 198 123 C182 123 177 137 177 152 L177 538 L16 538 L16 97 C16 55 41 -4 105 -4 L110 -4 C163 -4 195 30 222 69 L222 0 L379 0 L379 538 Z M136 561 L260 561 L310 707 L182 707 L136 561 Z " />
<glyph glyph-name="ucircumflex" unicode="&#xfb;" horiz-adv-x="395" d="M379 538 L220 538 L220 154 C220 137 217 123 198 123 C182 123 177 137 177 152 L177 538 L16 538 L16 97 C16 55 41 -4 105 -4 L110 -4 C163 -4 195 30 222 69 L222 0 L379 0 L379 538 Z M262 707 L132 707 L65 561 L172 561 L197 626 L221 561 L330 561 L262 707 Z " />
<glyph glyph-name="udieresis" unicode="&#xfc;" horiz-adv-x="395" d="M379 538 L220 538 L220 154 C220 137 217 123 198 123 C182 123 177 137 177 152 L177 538 L16 538 L16 97 C16 55 41 -4 105 -4 L110 -4 C163 -4 195 30 222 69 L222 0 L379 0 L379 538 Z M186 680 L68 680 L68 561 L186 561 L186 680 Z M328 680 L210 680 L210 561 L328 561 L328 680 Z " />
<glyph glyph-name="yacute" unicode="&#xfd;" horiz-adv-x="369" d="M100 22 C104 2 105 -6 104 -17 L103 -30 C102 -46 99 -52 84 -52 L27 -52 L27 -188 L168 -188 C203 -188 237 -169 249 -106 L372 538 L217 538 L189 252 L156 538 L-2 538 L100 22 Z M122 561 L246 561 L296 707 L168 707 L122 561 Z " />
<glyph glyph-name="thorn" unicode="&#xfe;" horiz-adv-x="397" d="M16 744 L16 -188 L176 -188 L176 51 C203 12 234 -11 277 -11 L280 -11 C336 -11 382 41 382 117 L382 416 C382 492 353 545 289 545 L286 545 C239 545 207 520 176 473 L176 744 L16 744 Z M176 395 C176 412 180 425 197 425 C214 425 219 414 219 395 L219 136 C219 119 216 105 197 105 C182 105 176 118 176 137 L176 395 Z " />
<glyph glyph-name="ydieresis" unicode="&#xff;" horiz-adv-x="369" d="M100 22 C104 2 105 -6 104 -17 L103 -30 C102 -46 99 -52 84 -52 L27 -52 L27 -188 L168 -188 C203 -188 237 -169 249 -106 L372 538 L217 538 L189 252 L156 538 L-2 538 L100 22 Z M173 680 L55 680 L55 561 L173 561 L173 680 Z M315 680 L197 680 L197 561 L315 561 L315 680 Z " />
<glyph glyph-name="Amacron" unicode="&#x100;" horiz-adv-x="397" d="M240 0 L400 0 L296 744 L93 744 L-2 0 L141 0 L152 109 L228 109 L240 0 Z M190 482 L213 256 L167 256 L190 482 Z M84 774 L304 774 L304 874 L84 874 L84 774 Z " />
<glyph glyph-name="amacron" unicode="&#x101;" horiz-adv-x="388" d="M202 136 C202 121 197 110 182 110 C167 110 163 120 163 136 L163 199 C163 219 166 227 174 238 C182 247 195 255 202 259 L202 136 Z M11 96 C11 43 40 -6 96 -6 L100 -6 C151 -6 186 33 203 61 C203 20 217 0 244 0 L385 0 L385 131 L371 131 C359 131 356 134 356 143 L356 420 C356 504 307 547 192 547 L170 547 C63 547 18 497 18 426 L18 365 L160 365 L160 415 C160 430 164 439 180 439 L183 439 C196 439 202 431 202 415 L202 387 C202 372 199 371 191 367 C175 359 106 330 79 317 C34 293 11 259 11 202 L11 96 Z M72 572 L292 572 L292 672 L72 672 L72 572 Z " />
<glyph glyph-name="Abreve" unicode="&#x102;" horiz-adv-x="397" d="M240 0 L400 0 L296 744 L93 744 L-2 0 L141 0 L152 109 L228 109 L240 0 Z M190 482 L213 256 L167 256 L190 482 Z M196 764 C267 764 316 810 316 877 L316 885 L218 885 L218 879 C218 863 210 852 194 852 L193 852 C177 852 169 863 169 879 L169 885 L70 885 L70 877 C70 810 115 764 191 764 L196 764 L196 764 Z " />
<glyph glyph-name="abreve" unicode="&#x103;" horiz-adv-x="388" d="M202 136 C202 121 197 110 182 110 C167 110 163 120 163 136 L163 199 C163 219 166 227 174 238 C182 247 195 255 202 259 L202 136 Z M11 96 C11 43 40 -6 96 -6 L100 -6 C151 -6 186 33 203 61 C203 20 217 0 244 0 L385 0 L385 131 L371 131 C359 131 356 134 356 143 L356 420 C356 504 307 547 192 547 L170 547 C63 547 18 497 18 426 L18 365 L160 365 L160 415 C160 430 164 439 180 439 L183 439 C196 439 202 431 202 415 L202 387 C202 372 199 371 191 367 C175 359 106 330 79 317 C34 293 11 259 11 202 L11 96 Z M181 561 C252 561 301 604 301 680 L301 692 L204 692 L204 685 C204 662 196 650 179 650 L178 650 C162 650 154 662 154 685 L154 692 L55 692 L55 680 C55 604 101 561 177 561 L181 561 L181 561 Z " />
<glyph glyph-name="Aogonek" unicode="&#x104;" horiz-adv-x="397" d="M240 0 L400 0 L296 744 L93 744 L-2 0 L141 0 L152 109 L228 109 L240 0 Z M190 482 L213 256 L167 256 L190 482 Z M245 -123 C245 -164 280 -188 329 -188 L398 -188 L398 -100 L383 -100 C365 -100 356 -93 356 -79 L356 -76 C356 -55 366 -39 398 0 L327 0 C275 -39 245 -73 245 -110 L245 -123 Z " />
<glyph glyph-name="aogonek" unicode="&#x105;" horiz-adv-x="388" d="M202 136 C202 121 197 110 182 110 C167 110 163 120 163 136 L163 199 C163 219 166 227 174 238 C182 247 195 255 202 259 L202 136 Z M11 96 C11 43 40 -6 96 -6 L100 -6 C151 -6 186 33 203 61 C203 20 217 0 244 0 L385 0 L385 131 L371 131 C359 131 356 134 356 143 L356 420 C356 504 307 547 192 547 L170 547 C63 547 18 497 18 426 L18 365 L160 365 L160 415 C160 430 164 439 180 439 L183 439 C196 439 202 431 202 415 L202 387 C202 372 199 371 191 367 C175 359 106 330 79 317 C34 293 11 259 11 202 L11 96 Z M231 -123 C231 -164 266 -188 315 -188 L384 -188 L384 -100 L369 -100 C351 -100 342 -93 342 -79 L342 -76 C342 -55 352 -39 384 0 L313 0 C261 -39 231 -73 231 -110 L231 -123 Z " />
<glyph glyph-name="Cacute" unicode="&#x106;" horiz-adv-x="418" d="M153 771 L280 771 L328 890 L199 890 L153 771 Z M241 176 C241 153 235 137 215 137 C194 137 187 151 187 176 L187 573 C187 600 193 610 214 610 C235 610 241 597 241 573 L241 458 L404 458 L404 580 C404 678 360 754 228 754 L198 754 C64 754 16 670 16 563 L16 185 C16 70 60 -12 199 -12 L228 -12 C359 -12 404 78 404 171 L404 325 L241 325 L241 176 L241 176 Z " />
<glyph glyph-name="cacute" unicode="&#x107;" horiz-adv-x="368" d="M128 566 L253 566 L302 707 L174 707 L128 566 Z M212 241 L212 138 C212 121 205 112 192 112 C177 112 174 123 174 139 L174 404 C174 423 177 432 192 432 C209 432 213 422 213 403 L213 325 L357 325 L357 406 C357 488 319 549 207 549 L174 549 C57 549 13 478 13 385 L13 145 C13 45 70 -12 175 -12 L205 -12 C305 -12 357 50 357 133 L357 241 L212 241 Z " />
<glyph glyph-name="Ccircumflex" unicode="&#x108;" horiz-adv-x="418" d="M282 890 L148 890 L80 771 L189 771 L214 815 L242 771 L351 771 L282 890 Z M241 176 C241 153 235 137 215 137 C194 137 187 151 187 176 L187 573 C187 600 193 610 214 610 C235 610 241 597 241 573 L241 458 L404 458 L404 580 C404 678 360 754 228 754 L198 754 C64 754 16 670 16 563 L16 185 C16 70 60 -12 199 -12 L228 -12 C359 -12 404 78 404 171 L404 325 L241 325 L241 176 L241 176 Z " />
<glyph glyph-name="ccircumflex" unicode="&#x109;" horiz-adv-x="368" d="M255 707 L126 707 L59 566 L165 566 L190 626 L214 566 L323 566 L255 707 Z M212 241 L212 138 C212 121 205 112 192 112 C177 112 174 123 174 139 L174 404 C174 423 177 432 192 432 C209 432 213 422 213 403 L213 325 L357 325 L357 406 C357 488 319 549 207 549 L174 549 C57 549 13 478 13 385 L13 145 C13 45 70 -12 175 -12 L205 -12 C305 -12 357 50 357 133 L357 241 L212 241 Z " />
<glyph glyph-name="Cdotaccent" unicode="&#x10a;" horiz-adv-x="418" d="M294 908 L134 908 L134 771 L294 771 L294 908 Z M241 176 C241 153 235 137 215 137 C194 137 187 151 187 176 L187 573 C187 600 193 610 214 610 C235 610 241 597 241 573 L241 458 L404 458 L404 580 C404 678 360 754 228 754 L198 754 C64 754 16 670 16 563 L16 185 C16 70 60 -12 199 -12 L228 -12 C359 -12 404 78 404 171 L404 325 L241 325 L241 176 L241 176 Z " />
<glyph glyph-name="cdotaccent" unicode="&#x10b;" horiz-adv-x="368" d="M271 702 L111 702 L111 566 L271 566 L271 702 Z M212 241 L212 138 C212 121 205 112 192 112 C177 112 174 123 174 139 L174 404 C174 423 177 432 192 432 C209 432 213 422 213 403 L213 325 L357 325 L357 406 C357 488 319 549 207 549 L174 549 C57 549 13 478 13 385 L13 145 C13 45 70 -12 175 -12 L205 -12 C305 -12 357 50 357 133 L357 241 L212 241 Z " />
<glyph glyph-name="Ccaron" unicode="&#x10c;" horiz-adv-x="418" d="M148 771 L282 771 L352 890 L241 890 L215 842 L189 890 L79 890 L148 771 Z M241 176 C241 153 235 137 215 137 C194 137 187 151 187 176 L187 573 C187 600 193 610 214 610 C235 610 241 597 241 573 L241 458 L404 458 L404 580 C404 678 360 754 228 754 L198 754 C64 754 16 670 16 563 L16 185 C16 70 60 -12 199 -12 L228 -12 C359 -12 404 78 404 171 L404 325 L241 325 L241 176 L241 176 Z " />
<glyph glyph-name="ccaron" unicode="&#x10d;" horiz-adv-x="368" d="M126 566 L258 566 L324 707 L217 707 L192 643 L168 707 L60 707 L126 566 Z M212 241 L212 138 C212 121 205 112 192 112 C177 112 174 123 174 139 L174 404 C174 423 177 432 192 432 C209 432 213 422 213 403 L213 325 L357 325 L357 406 C357 488 319 549 207 549 L174 549 C57 549 13 478 13 385 L13 145 C13 45 70 -12 175 -12 L205 -12 C305 -12 357 50 357 133 L357 241 L212 241 Z " />
<glyph glyph-name="Dcaron" unicode="&#x10e;" horiz-adv-x="420" d="M125 767 L252 767 L323 890 L214 890 L188 842 L163 890 L54 890 L125 767 Z M18 0 L255 0 C352 0 403 54 403 171 L403 580 C403 699 346 744 254 744 L18 744 L18 0 Z M181 606 L206 606 C229 606 235 594 235 563 L235 188 C235 157 228 143 204 143 L181 143 L181 606 Z " />
<glyph glyph-name="dcaron" unicode="&#x10f;" horiz-adv-x="397" d="M396 586 L495 586 L506 744 L402 744 L396 586 Z M222 744 L222 477 C200 504 167 544 113 544 L107 544 C48 544 15 487 15 423 L15 118 C15 49 57 -11 117 -11 L120 -11 C169 -11 204 31 223 60 L223 0 L382 0 L382 744 L222 744 Z M222 146 C222 126 218 111 199 111 C180 111 176 124 176 143 L176 389 C176 409 180 421 199 421 C218 421 222 406 222 385 L222 146 Z " />
<glyph glyph-name="Dcroat" unicode="&#x110;" horiz-adv-x="426" d="M25 457 L1 457 L1 314 L25 314 L25 0 L261 0 C360 0 410 54 410 171 L410 580 C410 699 353 744 260 744 L25 744 L25 457 Z M188 314 L226 314 L226 457 L188 457 L188 606 L212 606 C235 606 242 594 242 563 L242 188 C242 157 235 143 210 143 L188 143 L188 314 Z " />
<glyph glyph-name="dcroat" unicode="&#x111;" horiz-adv-x="397" d="M143 575 L411 575 L411 687 L143 687 L143 575 Z M222 744 L222 477 C200 504 167 544 113 544 L107 544 C48 544 15 487 15 423 L15 118 C15 49 57 -11 117 -11 L120 -11 C169 -11 204 31 223 60 L223 0 L382 0 L382 744 L222 744 Z M222 146 C222 126 218 111 199 111 C180 111 176 124 176 143 L176 389 C176 409 180 421 199 421 C218 421 222 406 222 385 L222 146 Z " />
<glyph glyph-name="Emacron" unicode="&#x112;" horiz-adv-x="342" d="M18 744 L18 0 L333 0 L333 157 L181 157 L181 305 L298 305 L298 463 L181 463 L181 590 L327 590 L327 744 L18 744 Z M64 774 L284 774 L284 874 L64 874 L64 774 Z " />
<glyph glyph-name="emacron" unicode="&#x113;" horiz-adv-x="375" d="M174 549 C64 549 13 482 13 389 L13 143 C13 39 75 -11 174 -11 L205 -11 C298 -11 363 43 363 140 L363 214 L211 214 L211 138 C211 119 206 108 190 108 C175 108 168 118 168 138 L168 251 L363 251 L363 389 C363 501 301 549 205 549 L174 549 Z M168 410 C168 433 171 443 190 443 C209 443 213 433 213 410 L213 349 L168 349 L168 410 Z M78 574 L298 574 L298 674 L78 674 L78 574 Z " />
<glyph glyph-name="Ebreve" unicode="&#x114;" horiz-adv-x="342" d="M18 744 L18 0 L333 0 L333 157 L181 157 L181 305 L298 305 L298 463 L181 463 L181 590 L327 590 L327 744 L18 744 Z M179 764 C250 764 299 810 299 877 L299 885 L201 885 L201 879 C201 863 193 852 177 852 L176 852 C160 852 152 863 152 879 L152 885 L53 885 L53 877 C53 810 98 764 174 764 L179 764 L179 764 Z " />
<glyph glyph-name="ebreve" unicode="&#x115;" horiz-adv-x="375" d="M174 549 C64 549 13 482 13 389 L13 143 C13 39 75 -11 174 -11 L205 -11 C298 -11 363 43 363 140 L363 214 L211 214 L211 138 C211 119 206 108 190 108 C175 108 168 118 168 138 L168 251 L363 251 L363 389 C363 501 301 549 205 549 L174 549 Z M168 410 C168 433 171 443 190 443 C209 443 213 433 213 410 L213 349 L168 349 L168 410 Z M191 563 C262 563 311 606 311 682 L311 694 L214 694 L214 687 C214 664 206 652 189 652 L188 652 C172 652 164 664 164 687 L164 694 L65 694 L65 682 C65 606 111 563 187 563 L191 563 L191 563 Z " />
<glyph glyph-name="Edotaccent" unicode="&#x116;" horiz-adv-x="342" d="M257 908 L97 908 L97 767 L257 767 L257 908 Z M18 744 L18 0 L333 0 L333 157 L181 157 L181 305 L298 305 L298 463 L181 463 L181 590 L327 590 L327 744 L18 744 Z " />
<glyph glyph-name="edotaccent" unicode="&#x117;" horiz-adv-x="375" d="M269 702 L109 702 L109 566 L269 566 L269 702 Z M174 549 C64 549 13 482 13 389 L13 143 C13 39 75 -11 174 -11 L205 -11 C298 -11 363 43 363 140 L363 214 L211 214 L211 138 C211 119 206 108 190 108 C175 108 168 118 168 138 L168 251 L363 251 L363 389 C363 501 301 549 205 549 L174 549 Z M168 410 C168 433 171 443 190 443 C209 443 213 433 213 410 L213 349 L168 349 L168 410 Z " />
<glyph glyph-name="Eogonek" unicode="&#x118;" horiz-adv-x="342" d="M131 -123 C131 -164 166 -188 215 -188 L284 -188 L284 -100 L269 -100 C251 -100 242 -93 242 -79 L242 -76 C242 -55 252 -39 284 0 L213 0 C161 -39 131 -73 131 -110 L131 -123 Z M18 744 L18 0 L333 0 L333 157 L181 157 L181 305 L298 305 L298 463 L181 463 L181 590 L327 590 L327 744 L18 744 Z " />
<glyph glyph-name="eogonek" unicode="&#x119;" horiz-adv-x="375" d="M301 -1 C332 36 363 70 363 142 L363 214 L211 214 L211 138 C211 119 206 108 190 108 C175 108 168 118 168 138 L168 251 L363 251 L363 389 C363 501 301 549 205 549 L174 549 C64 549 13 482 13 389 L13 143 C13 39 75 -11 174 -11 L205 -11 C210 -11 214 -11 221 -10 C174 -45 148 -75 148 -110 L148 -123 C148 -164 184 -188 232 -188 L302 -188 L302 -100 L286 -100 C269 -100 260 -93 260 -79 L260 -76 C260 -53 272 -36 301 -1 L301 -1 Z M168 410 C168 433 171 443 190 443 C209 443 213 433 213 410 L213 349 L168 349 L168 410 Z " />
<glyph glyph-name="Ecaron" unicode="&#x11a;" horiz-adv-x="342" d="M113 767 L240 767 L311 890 L202 890 L176 842 L151 890 L42 890 L113 767 Z M18 744 L18 0 L333 0 L333 157 L181 157 L181 305 L298 305 L298 463 L181 463 L181 590 L327 590 L327 744 L18 744 Z " />
<glyph glyph-name="ecaron" unicode="&#x11b;" horiz-adv-x="375" d="M123 566 L255 566 L322 705 L214 705 L189 643 L165 705 L57 705 L123 566 Z M174 549 C64 549 13 482 13 389 L13 143 C13 39 75 -11 174 -11 L205 -11 C298 -11 363 43 363 140 L363 214 L211 214 L211 138 C211 119 206 108 190 108 C175 108 168 118 168 138 L168 251 L363 251 L363 389 C363 501 301 549 205 549 L174 549 Z M168 410 C168 433 171 443 190 443 C209 443 213 433 213 410 L213 349 L168 349 L168 410 Z " />
<glyph glyph-name="Gcircumflex" unicode="&#x11c;" horiz-adv-x="427" d="M280 890 L147 890 L79 771 L187 771 L213 815 L240 771 L349 771 L280 890 Z M163 -10 C230 -10 266 37 285 69 C293 53 303 15 305 0 L412 0 L412 448 L208 448 L208 311 L254 311 L254 173 C254 145 243 131 220 131 C198 131 187 145 187 174 L187 573 C187 599 196 612 215 612 C239 612 245 597 245 573 L245 489 L405 489 L405 575 C405 665 371 754 226 754 L198 754 C62 754 16 665 16 565 L16 159 C16 68 62 -10 155 -10 L163 -10 Z " />
<glyph glyph-name="gcircumflex" unicode="&#x11d;" horiz-adv-x="396" d="M260 707 L130 707 L63 561 L170 561 L195 626 L219 561 L328 561 L260 707 Z M221 -55 C221 -71 216 -79 200 -79 L197 -79 C181 -79 177 -72 177 -57 L177 -21 L22 -21 L22 -84 C22 -146 62 -195 183 -195 L214 -195 C333 -195 381 -133 381 -57 L381 538 L223 538 L223 473 C198 506 166 542 115 542 L112 542 C47 542 15 484 15 414 L15 110 C15 35 60 -10 120 -10 C168 -10 202 30 221 59 L221 -55 Z M221 136 C221 120 214 106 199 106 C180 106 177 120 177 136 L177 392 C177 408 180 421 199 421 C218 421 221 406 221 391 L221 136 Z " />
<glyph glyph-name="Gbreve" unicode="&#x11e;" horiz-adv-x="427" d="M216 767 C287 767 336 813 336 880 L336 888 L238 888 L238 882 C238 866 230 855 214 855 L213 855 C197 855 189 866 189 882 L189 888 L90 888 L90 880 C90 813 135 767 211 767 L216 767 L216 767 Z M163 -10 C230 -10 266 37 285 69 C293 53 303 15 305 0 L412 0 L412 448 L208 448 L208 311 L254 311 L254 173 C254 145 243 131 220 131 C198 131 187 145 187 174 L187 573 C187 599 196 612 215 612 C239 612 245 597 245 573 L245 489 L405 489 L405 575 C405 665 371 754 226 754 L198 754 C62 754 16 665 16 565 L16 159 C16 68 62 -10 155 -10 L163 -10 Z " />
<glyph glyph-name="gbreve" unicode="&#x11f;" horiz-adv-x="396" d="M221 -55 C221 -71 216 -79 200 -79 L197 -79 C181 -79 177 -72 177 -57 L177 -21 L22 -21 L22 -84 C22 -146 62 -195 183 -195 L214 -195 C333 -195 381 -133 381 -57 L381 538 L223 538 L223 473 C198 506 166 542 115 542 L112 542 C47 542 15 484 15 414 L15 110 C15 35 60 -10 120 -10 C168 -10 202 30 221 59 L221 -55 Z M221 136 C221 120 214 106 199 106 C180 106 177 120 177 136 L177 392 C177 408 180 421 199 421 C218 421 221 406 221 391 L221 136 Z M198 559 C269 559 318 602 318 678 L318 690 L221 690 L221 683 C221 660 213 648 196 648 L195 648 C179 648 171 660 171 683 L171 690 L72 690 L72 678 C72 602 118 559 194 559 L198 559 L198 559 Z " />
<glyph glyph-name="Gdotaccent" unicode="&#x120;" horiz-adv-x="427" d="M296 908 L136 908 L136 771 L296 771 L296 908 Z M163 -10 C230 -10 266 37 285 69 C293 53 303 15 305 0 L412 0 L412 448 L208 448 L208 311 L254 311 L254 173 C254 145 243 131 220 131 C198 131 187 145 187 174 L187 573 C187 599 196 612 215 612 C239 612 245 597 245 573 L245 489 L405 489 L405 575 C405 665 371 754 226 754 L198 754 C62 754 16 665 16 565 L16 159 C16 68 62 -10 155 -10 L163 -10 Z " />
<glyph glyph-name="gdotaccent" unicode="&#x121;" horiz-adv-x="396" d="M221 -55 C221 -71 216 -79 200 -79 L197 -79 C181 -79 177 -72 177 -57 L177 -21 L22 -21 L22 -84 C22 -146 62 -195 183 -195 L214 -195 C333 -195 381 -133 381 -57 L381 538 L223 538 L223 473 C198 506 166 542 115 542 L112 542 C47 542 15 484 15 414 L15 110 C15 35 60 -10 120 -10 C168 -10 202 30 221 59 L221 -55 Z M221 136 C221 120 214 106 199 106 C180 106 177 120 177 136 L177 392 C177 408 180 421 199 421 C218 421 221 406 221 391 L221 136 Z M276 702 L116 702 L116 561 L276 561 L276 702 Z " />
<glyph glyph-name="uni0122" unicode="&#x122;" horiz-adv-x="427" d="M261 -212 C268 -195 283 -154 283 -101 L283 -24 L157 -24 L157 -141 L210 -141 C208 -168 203 -191 195 -212 L261 -212 Z M163 -10 C230 -10 266 37 285 69 C293 53 303 15 305 0 L412 0 L412 448 L208 448 L208 311 L254 311 L254 173 C254 145 243 131 220 131 C198 131 187 145 187 174 L187 573 C187 599 196 612 215 612 C239 612 245 597 245 573 L245 489 L405 489 L405 575 C405 665 371 754 226 754 L198 754 C62 754 16 665 16 565 L16 159 C16 68 62 -10 155 -10 L163 -10 Z " />
<glyph glyph-name="uni0123" unicode="&#x123;" horiz-adv-x="396" d="M151 749 C144 732 128 690 128 637 L128 561 L255 561 L255 678 L203 678 C204 703 210 728 218 749 L151 749 Z M221 -55 C221 -71 216 -79 200 -79 L197 -79 C181 -79 177 -72 177 -57 L177 -21 L22 -21 L22 -84 C22 -146 62 -195 183 -195 L214 -195 C333 -195 381 -133 381 -57 L381 538 L223 538 L223 473 C198 506 166 542 115 542 L112 542 C47 542 15 484 15 414 L15 110 C15 35 60 -10 120 -10 C168 -10 202 30 221 59 L221 -55 Z M221 136 C221 120 214 106 199 106 C180 106 177 120 177 136 L177 392 C177 408 180 421 199 421 C218 421 221 406 221 391 L221 136 Z " />
<glyph glyph-name="Hcircumflex" unicode="&#x124;" horiz-adv-x="424" d="M183 300 L240 300 L240 0 L405 0 L405 744 L240 744 L240 474 L183 474 L183 744 L18 744 L18 0 L183 0 L183 300 Z M275 890 L147 890 L77 767 L185 767 L211 814 L238 767 L346 767 L275 890 Z " />
<glyph glyph-name="hcircumflex" unicode="&#x125;" horiz-adv-x="399" d="M16 0 L176 0 L176 384 C176 403 179 415 198 415 C217 415 221 402 221 387 L221 0 L383 0 L383 446 C383 490 356 543 292 543 L286 543 C234 543 199 507 176 472 L176 744 L16 744 L16 0 Z M253 890 L125 890 L55 767 L163 767 L189 814 L216 767 L324 767 L253 890 Z " />
<glyph glyph-name="Hbar" unicode="&#x126;" horiz-adv-x="429" d="M-1 550 L430 550 L430 662 L-1 662 L-1 550 Z M185 300 L242 300 L242 0 L407 0 L407 744 L242 744 L242 474 L185 474 L185 744 L20 744 L20 0 L185 0 L185 300 Z " />
<glyph glyph-name="hbar" unicode="&#x127;" horiz-adv-x="399" d="M-14 575 L254 575 L254 687 L-14 687 L-14 575 Z M16 0 L176 0 L176 384 C176 403 179 415 198 415 C217 415 221 402 221 387 L221 0 L383 0 L383 446 C383 490 356 543 292 543 L286 543 C234 543 199 507 176 472 L176 744 L16 744 L16 0 Z " />
<glyph glyph-name="Itilde" unicode="&#x128;" horiz-adv-x="201" d="M183 744 L18 744 L18 0 L183 0 L183 744 Z M99 785 C126 774 143 770 162 770 L164 770 C200 770 225 797 225 845 L225 894 L140 894 L140 875 C140 868 138 864 133 864 C126 864 122 867 103 875 C78 886 62 891 39 891 L38 891 C-1 891 -23 863 -23 816 L-23 766 L62 766 L62 784 C62 791 65 795 70 795 C77 795 84 792 99 785 L99 785 Z " />
<glyph glyph-name="itilde" unicode="&#x129;" horiz-adv-x="191" d="M129 692 L129 670 C129 663 127 660 123 660 C118 660 112 664 99 671 C74 684 59 690 40 690 L38 690 C3 690 -15 666 -15 626 L-15 560 L63 560 L63 582 C63 589 65 593 69 593 C76 593 80 590 93 582 C118 567 134 562 153 562 L155 562 C190 562 208 586 208 621 L208 692 L129 692 Z M176 538 L16 538 L16 0 L176 0 L176 538 Z " />
<glyph glyph-name="Imacron" unicode="&#x12a;" horiz-adv-x="201" d="M183 744 L18 744 L18 0 L183 0 L183 744 Z M-9 774 L211 774 L211 874 L-9 874 L-9 774 Z " />
<glyph glyph-name="imacron" unicode="&#x12b;" horiz-adv-x="191" d="M-3 570 L194 570 L194 669 L-3 669 L-3 570 Z M176 538 L16 538 L16 0 L176 0 L176 538 Z " />
<glyph glyph-name="Ibreve" unicode="&#x12c;" horiz-adv-x="201" d="M183 744 L18 744 L18 0 L183 0 L183 744 Z M104 764 C175 764 224 810 224 877 L224 885 L126 885 L126 879 C126 863 118 852 102 852 L101 852 C85 852 77 863 77 879 L77 885 L-22 885 L-22 877 C-22 810 23 764 99 764 L104 764 L104 764 Z " />
<glyph glyph-name="ibreve" unicode="&#x12d;" horiz-adv-x="191" d="M98 559 C174 559 205 605 205 665 L205 690 L115 690 L115 674 C115 656 109 647 96 647 C81 647 78 657 78 674 L78 690 L-14 690 L-14 665 C-14 605 15 559 94 559 L98 559 L98 559 Z M176 538 L16 538 L16 0 L176 0 L176 538 Z " />
<glyph glyph-name="Iogonek" unicode="&#x12e;" horiz-adv-x="201" d="M183 744 L18 744 L18 0 L183 0 L183 744 Z M31 -123 C31 -164 66 -188 115 -188 L184 -188 L184 -100 L169 -100 C151 -100 142 -93 142 -79 L142 -76 C142 -55 152 -39 184 0 L113 0 C61 -39 31 -73 31 -110 L31 -123 Z " />
<glyph glyph-name="iogonek" unicode="&#x12f;" horiz-adv-x="191" d="M176 538 L16 538 L16 0 L176 0 L176 538 Z M176 702 L16 702 L16 561 L176 561 L176 702 Z M23 -123 C23 -164 58 -188 107 -188 L176 -188 L176 -100 L161 -100 C143 -100 134 -93 134 -79 L134 -76 C134 -55 144 -39 176 0 L105 0 C53 -39 23 -73 23 -110 L23 -123 Z " />
<glyph glyph-name="Idotaccent" unicode="&#x130;" horiz-adv-x="201" d="M183 744 L18 744 L18 0 L183 0 L183 744 Z M182 908 L22 908 L22 767 L182 767 L182 908 Z " />
<glyph glyph-name="dotlessi" unicode="&#x131;" horiz-adv-x="191" d="M176 538 L16 538 L16 0 L176 0 L176 538 Z " />
<glyph glyph-name="IJ" unicode="&#x132;" horiz-adv-x="596" d="M183 744 L18 744 L18 0 L183 0 L183 744 Z M209 332 L209 148 C209 48 255 -9 363 -9 L412 -9 C524 -9 578 55 578 159 L578 744 L408 744 L408 164 C408 147 401 138 387 138 L385 138 C370 138 363 147 363 164 L363 332 L209 332 Z " />
<glyph glyph-name="ij" unicode="&#x133;" horiz-adv-x="379" d="M176 538 L16 538 L16 0 L176 0 L176 538 Z M176 702 L16 702 L16 561 L176 561 L176 702 Z M363 702 L203 702 L203 561 L363 561 L363 702 Z M141 -47 L141 -188 L284 -188 C329 -188 363 -158 363 -107 L363 538 L203 538 L203 -28 C203 -43 198 -47 186 -47 L141 -47 Z " />
<glyph glyph-name="Jcircumflex" unicode="&#x134;" horiz-adv-x="399" d="M355 890 L227 890 L157 767 L265 767 L291 814 L318 767 L426 767 L355 890 Z M12 332 L12 148 C12 48 58 -9 166 -9 L215 -9 C327 -9 381 55 381 159 L381 744 L211 744 L211 164 C211 147 204 138 190 138 L188 138 C173 138 166 147 166 164 L166 332 L12 332 Z " />
<glyph glyph-name="jcircumflex" unicode="&#x135;" horiz-adv-x="192" d="M159 707 L29 707 L-23 561 L74 561 L93 630 L113 561 L211 561 L159 707 Z M-46 -47 L-46 -188 L97 -188 C142 -188 176 -158 176 -107 L176 538 L16 538 L16 -28 C16 -43 11 -47 -1 -47 L-46 -47 Z " />
<glyph glyph-name="uni0136" unicode="&#x136;" horiz-adv-x="425" d="M262 -211 C269 -194 284 -153 284 -100 L284 -23 L158 -23 L158 -140 L211 -140 C209 -167 204 -190 196 -211 L262 -211 Z M183 297 L257 0 L430 0 L323 412 L424 744 L260 744 L183 481 L183 744 L18 744 L18 0 L183 0 L183 297 Z " />
<glyph glyph-name="uni0137" unicode="&#x137;" horiz-adv-x="391" d="M247 -211 C254 -194 269 -153 269 -100 L269 -23 L143 -23 L143 -140 L196 -140 C194 -167 189 -190 181 -211 L247 -211 Z M176 362 L176 744 L16 744 L16 0 L176 0 L176 222 L239 0 L395 0 L303 313 L387 538 L236 538 L176 362 Z " />
<glyph glyph-name="Lacute" unicode="&#x139;" horiz-adv-x="327" d="M39 767 L165 767 L215 890 L85 890 L39 767 Z M18 744 L18 0 L318 0 L318 158 L183 158 L183 744 L18 744 Z " />
<glyph glyph-name="lacute" unicode="&#x13a;" horiz-adv-x="191" d="M33 767 L159 767 L209 890 L79 890 L33 767 Z M176 744 L16 744 L16 0 L176 0 L176 744 Z " />
<glyph glyph-name="uni013B" unicode="&#x13b;" horiz-adv-x="327" d="M212 -211 C219 -194 234 -153 234 -100 L234 -23 L108 -23 L108 -140 L161 -140 C159 -167 154 -190 146 -211 L212 -211 Z M18 744 L18 0 L318 0 L318 158 L183 158 L183 744 L18 744 Z " />
<glyph glyph-name="uni013C" unicode="&#x13c;" horiz-adv-x="191" d="M139 -211 C146 -194 161 -153 161 -100 L161 -23 L35 -23 L35 -140 L88 -140 C86 -167 81 -190 73 -211 L139 -211 Z M176 744 L16 744 L16 0 L176 0 L176 744 Z " />
<glyph glyph-name="Lcaron" unicode="&#x13d;" horiz-adv-x="327" d="M198 586 L297 586 L308 744 L204 744 L198 586 Z M18 744 L18 0 L318 0 L318 158 L183 158 L183 744 L18 744 Z " />
<glyph glyph-name="lcaron" unicode="&#x13e;" horiz-adv-x="191" d="M190 586 L289 586 L300 744 L196 744 L190 586 Z M176 744 L16 744 L16 0 L176 0 L176 744 Z " />
<glyph glyph-name="Ldot" unicode="&#x13f;" horiz-adv-x="356" d="M346 468 L205 468 L205 307 L346 307 L346 468 Z M18 744 L18 0 L318 0 L318 158 L183 158 L183 744 L18 744 Z " />
<glyph glyph-name="ldot" unicode="&#x140;" horiz-adv-x="342" d="M336 467 L194 467 L194 306 L336 306 L336 467 Z M176 744 L16 744 L16 0 L176 0 L176 744 Z " />
<glyph glyph-name="Lslash" unicode="&#x141;" horiz-adv-x="342" d="M33 744 L33 347 L4 327 L4 203 L33 222 L33 0 L333 0 L333 158 L198 158 L198 333 L283 390 L283 518 L198 460 L198 744 L33 744 Z " />
<glyph glyph-name="lslash" unicode="&#x142;" horiz-adv-x="222" d="M191 407 L218 425 L218 543 L191 525 L191 744 L31 744 L31 420 L4 403 L4 287 L31 304 L31 0 L191 0 L191 407 Z " />
<glyph glyph-name="Nacute" unicode="&#x143;" horiz-adv-x="423" d="M149 767 L275 767 L325 890 L195 890 L149 767 Z M18 744 L18 0 L161 0 L161 388 L259 0 L404 0 L404 744 L263 744 L263 384 L178 744 L18 744 Z " />
<glyph glyph-name="nacute" unicode="&#x144;" horiz-adv-x="399" d="M137 561 L261 561 L311 707 L183 707 L137 561 Z M16 0 L176 0 L176 383 C176 402 179 415 198 415 C217 415 221 402 221 386 L221 0 L383 0 L383 443 C383 479 364 543 293 543 L286 543 C235 543 201 509 174 470 L174 538 L16 538 L16 0 Z " />
<glyph glyph-name="uni0145" unicode="&#x145;" horiz-adv-x="423" d="M254 -211 C261 -194 276 -153 276 -100 L276 -23 L150 -23 L150 -140 L203 -140 C201 -167 196 -190 188 -211 L254 -211 Z M18 744 L18 0 L161 0 L161 388 L259 0 L404 0 L404 744 L263 744 L263 384 L178 744 L18 744 Z " />
<glyph glyph-name="uni0146" unicode="&#x146;" horiz-adv-x="399" d="M241 -211 C248 -194 263 -153 263 -100 L263 -23 L137 -23 L137 -140 L190 -140 C188 -167 183 -190 175 -211 L241 -211 Z M16 0 L176 0 L176 383 C176 402 179 415 198 415 C217 415 221 402 221 386 L221 0 L383 0 L383 443 C383 479 364 543 293 543 L286 543 C235 543 201 509 174 470 L174 538 L16 538 L16 0 Z " />
<glyph glyph-name="Ncaron" unicode="&#x147;" horiz-adv-x="423" d="M150 767 L277 767 L348 890 L239 890 L213 842 L188 890 L79 890 L150 767 Z M18 744 L18 0 L161 0 L161 388 L259 0 L404 0 L404 744 L263 744 L263 384 L178 744 L18 744 Z " />
<glyph glyph-name="ncaron" unicode="&#x148;" horiz-adv-x="399" d="M134 561 L263 561 L331 707 L223 707 L198 643 L174 707 L66 707 L134 561 Z M16 0 L176 0 L176 383 C176 402 179 415 198 415 C217 415 221 402 221 386 L221 0 L383 0 L383 443 C383 479 364 543 293 543 L286 543 C235 543 201 509 174 470 L174 538 L16 538 L16 0 Z " />
<glyph glyph-name="napostrophe" unicode="&#x149;" horiz-adv-x="516" d="M105 509 C116 532 134 581 134 636 L134 744 L3 744 L3 604 L52 604 C51 575 38 536 29 509 L105 509 Z M133 0 L293 0 L293 383 C293 402 296 415 315 415 C334 415 338 402 338 386 L338 0 L500 0 L500 443 C500 479 481 543 410 543 L403 543 C352 543 318 509 291 470 L291 538 L133 538 L133 0 Z " />
<glyph glyph-name="Eng" unicode="&#x14a;" horiz-adv-x="421" d="M312 -188 C367 -188 403 -150 403 -86 L403 744 L263 744 L263 371 L177 744 L18 744 L18 0 L160 0 L160 390 L265 0 L265 -30 C265 -47 258 -56 243 -56 L202 -56 L202 -188 L312 -188 L312 -188 Z " />
<glyph glyph-name="eng" unicode="&#x14b;" horiz-adv-x="399" d="M221 -28 C221 -44 216 -48 204 -48 L187 -48 L187 -188 L304 -188 C349 -188 383 -158 383 -107 L383 443 C383 479 364 543 296 543 L286 543 C237 543 203 509 172 468 L172 538 L16 538 L16 0 L176 0 L176 383 C176 402 179 415 198 415 C217 415 221 402 221 386 L221 -28 Z " />
<glyph glyph-name="Omacron" unicode="&#x14c;" horiz-adv-x="433" d="M106 777 L326 777 L326 877 L106 877 L106 777 Z M418 544 C418 671 365 754 233 754 L201 754 C70 754 16 672 16 544 L16 191 C16 62 81 -11 202 -11 L234 -11 C347 -11 418 62 418 191 L418 544 Z M247 180 C247 157 239 143 218 143 C195 143 187 157 187 180 L187 561 C187 589 194 603 217 603 C237 603 247 589 247 561 L247 180 Z " />
<glyph glyph-name="omacron" unicode="&#x14d;" horiz-adv-x="396" d="M88 574 L308 574 L308 674 L88 674 L88 574 Z M13 167 C13 54 65 -11 181 -11 L213 -11 C318 -11 383 55 383 168 L383 373 C383 489 324 549 213 549 L182 549 C74 549 13 489 13 372 L13 167 L13 167 Z M174 390 C174 410 178 424 197 424 C216 424 221 410 221 390 L221 152 C221 132 216 118 197 118 C178 118 174 132 174 152 L174 390 L174 390 Z " />
<glyph glyph-name="Obreve" unicode="&#x14e;" horiz-adv-x="433" d="M219 767 C290 767 339 813 339 880 L339 888 L241 888 L241 882 C241 866 233 855 217 855 L216 855 C200 855 192 866 192 882 L192 888 L93 888 L93 880 C93 813 138 767 214 767 L219 767 L219 767 Z M418 544 C418 671 365 754 233 754 L201 754 C70 754 16 672 16 544 L16 191 C16 62 81 -11 202 -11 L234 -11 C347 -11 418 62 418 191 L418 544 Z M247 180 C247 157 239 143 218 143 C195 143 187 157 187 180 L187 561 C187 589 194 603 217 603 C237 603 247 589 247 561 L247 180 Z " />
<glyph glyph-name="obreve" unicode="&#x14f;" horiz-adv-x="396" d="M13 167 C13 54 65 -11 181 -11 L213 -11 C318 -11 383 55 383 168 L383 373 C383 489 324 549 213 549 L182 549 C74 549 13 489 13 372 L13 167 L13 167 Z M174 390 C174 410 178 424 197 424 C216 424 221 410 221 390 L221 152 C221 132 216 118 197 118 C178 118 174 132 174 152 L174 390 L174 390 Z M200 563 C271 563 320 606 320 682 L320 694 L223 694 L223 687 C223 664 215 652 198 652 L197 652 C181 652 173 664 173 687 L173 694 L74 694 L74 682 C74 606 120 563 196 563 L200 563 L200 563 Z " />
<glyph glyph-name="Ohungarumlaut" unicode="&#x150;" horiz-adv-x="433" d="M103 771 L208 771 L238 890 L130 890 L103 771 Z M231 771 L337 771 L369 890 L261 890 L231 771 Z M418 544 C418 671 365 754 233 754 L201 754 C70 754 16 672 16 544 L16 191 C16 62 81 -11 202 -11 L234 -11 C347 -11 418 62 418 191 L418 544 Z M247 180 C247 157 239 143 218 143 C195 143 187 157 187 180 L187 561 C187 589 194 603 217 603 C237 603 247 589 247 561 L247 180 Z " />
<glyph glyph-name="ohungarumlaut" unicode="&#x151;" horiz-adv-x="396" d="M89 566 L194 566 L223 707 L117 707 L89 566 Z M216 566 L320 566 L351 707 L245 707 L216 566 Z M13 167 C13 54 65 -11 181 -11 L213 -11 C318 -11 383 55 383 168 L383 373 C383 489 324 549 213 549 L182 549 C74 549 13 489 13 372 L13 167 L13 167 Z M174 390 C174 410 178 424 197 424 C216 424 221 410 221 390 L221 152 C221 132 216 118 197 118 C178 118 174 132 174 152 L174 390 L174 390 Z " />
<glyph glyph-name="OE" unicode="&#x152;" horiz-adv-x="559" d="M16 186 C16 57 65 -10 149 -10 L153 -10 C206 -10 239 23 252 44 L252 0 L550 0 L550 157 L412 157 L412 305 L514 305 L514 463 L412 463 L412 589 L542 589 L542 744 L252 744 L252 701 C238 717 215 752 154 752 L151 752 C55 752 16 667 16 558 L16 186 Z M245 186 C245 158 238 141 217 141 C194 141 187 157 187 186 L187 559 C187 587 194 604 217 604 C238 604 245 587 245 559 L245 186 Z " />
<glyph glyph-name="oe" unicode="&#x153;" horiz-adv-x="585" d="M573 251 L573 389 C573 501 510 549 417 549 L387 549 C344 549 315 533 300 518 C285 533 253 550 206 550 L180 550 C76 550 13 493 13 372 L13 166 C13 53 64 -13 181 -13 L204 -13 C251 -13 280 7 296 19 C311 6 342 -12 385 -12 L415 -12 C510 -12 573 42 573 139 L573 214 L422 214 L422 138 C422 118 415 108 400 108 C385 108 378 118 378 138 L378 251 L573 251 Z M174 390 C174 410 178 424 197 424 C217 424 221 410 221 390 L221 152 C221 131 216 117 197 117 C178 117 174 131 174 152 L174 390 Z M378 408 C378 431 381 442 400 442 C419 442 423 432 423 412 L423 349 L378 349 L378 408 Z " />
<glyph glyph-name="Racute" unicode="&#x154;" horiz-adv-x="417" d="M137 767 L263 767 L313 890 L183 890 L137 767 Z M183 616 L207 616 C230 616 234 608 234 581 L234 481 C234 454 225 445 204 445 L183 445 L183 616 Z M183 305 L206 305 C229 305 234 294 234 269 L234 53 C234 26 240 9 247 0 L410 0 L410 5 C405 16 400 31 400 59 L400 305 C400 360 363 391 335 402 C364 415 400 446 400 515 L400 613 C400 701 350 744 277 744 L18 744 L18 0 L183 0 L183 305 Z " />
<glyph glyph-name="racute" unicode="&#x155;" horiz-adv-x="359" d="M130 561 L254 561 L304 707 L176 707 L130 561 Z M174 538 L16 538 L16 0 L176 0 L176 396 C176 411 181 418 190 418 C202 418 205 411 205 396 L205 274 L349 274 L349 468 C349 511 327 541 279 541 L270 541 C216 541 187 493 174 469 L174 538 Z " />
<glyph glyph-name="uni0156" unicode="&#x156;" horiz-adv-x="417" d="M254 -211 C261 -194 276 -153 276 -100 L276 -23 L150 -23 L150 -140 L203 -140 C201 -167 196 -190 188 -211 L254 -211 Z M183 616 L207 616 C230 616 234 608 234 581 L234 481 C234 454 225 445 204 445 L183 445 L183 616 Z M183 305 L206 305 C229 305 234 294 234 269 L234 53 C234 26 240 9 247 0 L410 0 L410 5 C405 16 400 31 400 59 L400 305 C400 360 363 391 335 402 C364 415 400 446 400 515 L400 613 C400 701 350 744 277 744 L18 744 L18 0 L183 0 L183 305 Z " />
<glyph glyph-name="uni0157" unicode="&#x157;" horiz-adv-x="359" d="M137 -211 C144 -194 159 -153 159 -100 L159 -23 L33 -23 L33 -140 L86 -140 C84 -167 79 -190 71 -211 L137 -211 Z M174 538 L16 538 L16 0 L176 0 L176 396 C176 411 181 418 190 418 C202 418 205 411 205 396 L205 274 L349 274 L349 468 C349 511 327 541 279 541 L270 541 C216 541 187 493 174 469 L174 538 Z " />
<glyph glyph-name="Rcaron" unicode="&#x158;" horiz-adv-x="417" d="M134 767 L261 767 L332 890 L223 890 L197 842 L172 890 L63 890 L134 767 Z M183 616 L207 616 C230 616 234 608 234 581 L234 481 C234 454 225 445 204 445 L183 445 L183 616 Z M183 305 L206 305 C229 305 234 294 234 269 L234 53 C234 26 240 9 247 0 L410 0 L410 5 C405 16 400 31 400 59 L400 305 C400 360 363 391 335 402 C364 415 400 446 400 515 L400 613 C400 701 350 744 277 744 L18 744 L18 0 L183 0 L183 305 Z " />
<glyph glyph-name="rcaron" unicode="&#x159;" horiz-adv-x="359" d="M127 561 L256 561 L324 707 L216 707 L191 643 L167 707 L59 707 L127 561 Z M174 538 L16 538 L16 0 L176 0 L176 396 C176 411 181 418 190 418 C202 418 205 411 205 396 L205 274 L349 274 L349 468 C349 511 327 541 279 541 L270 541 C216 541 187 493 174 469 L174 538 Z " />
<glyph glyph-name="Sacute" unicode="&#x15a;" horiz-adv-x="411" d="M145 771 L272 771 L321 890 L191 890 L145 771 Z M190 754 C74 754 16 692 16 593 L16 558 C16 482 38 422 101 366 L187 289 C223 256 226 237 226 195 L226 175 C226 146 219 131 199 131 C178 131 171 145 171 170 L171 273 L9 273 L9 154 C9 45 67 -10 182 -10 L218 -10 C345 -10 402 68 402 184 L402 221 C402 302 379 352 304 421 L219 497 C190 524 183 542 183 573 L183 592 C183 613 189 625 208 625 C228 625 233 613 233 593 L233 513 L392 513 L392 602 C392 695 348 754 227 754 L190 754 Z " />
<glyph glyph-name="sacute" unicode="&#x15b;" horiz-adv-x="350" d="M115 566 L239 566 L288 707 L161 707 L115 566 Z M336 438 C336 512 289 549 195 549 L160 549 C61 549 13 501 13 417 L13 399 C13 344 25 297 88 253 L164 198 C184 183 190 168 190 144 L190 128 C190 111 184 102 172 102 L171 102 C157 102 150 111 150 128 L150 191 L7 191 L7 116 C7 35 57 -11 154 -11 L190 -11 C290 -11 344 46 344 137 L344 155 C344 215 328 261 261 309 L181 369 C162 384 159 391 159 411 L159 425 C159 440 163 449 178 449 C193 449 196 440 196 425 L196 376 L336 376 L336 438 L336 438 Z " />
<glyph glyph-name="Scircumflex" unicode="&#x15c;" horiz-adv-x="411" d="M276 890 L142 890 L74 771 L183 771 L208 815 L235 771 L345 771 L276 890 Z M190 754 C74 754 16 692 16 593 L16 558 C16 482 38 422 101 366 L187 289 C223 256 226 237 226 195 L226 175 C226 146 219 131 199 131 C178 131 171 145 171 170 L171 273 L9 273 L9 154 C9 45 67 -10 182 -10 L218 -10 C345 -10 402 68 402 184 L402 221 C402 302 379 352 304 421 L219 497 C190 524 183 542 183 573 L183 592 C183 613 189 625 208 625 C228 625 233 613 233 593 L233 513 L392 513 L392 602 C392 695 348 754 227 754 L190 754 Z " />
<glyph glyph-name="scircumflex" unicode="&#x15d;" horiz-adv-x="350" d="M243 707 L114 707 L47 566 L154 566 L178 626 L203 566 L311 566 L243 707 Z M336 438 C336 512 289 549 195 549 L160 549 C61 549 13 501 13 417 L13 399 C13 344 25 297 88 253 L164 198 C184 183 190 168 190 144 L190 128 C190 111 184 102 172 102 L171 102 C157 102 150 111 150 128 L150 191 L7 191 L7 116 C7 35 57 -11 154 -11 L190 -11 C290 -11 344 46 344 137 L344 155 C344 215 328 261 261 309 L181 369 C162 384 159 391 159 411 L159 425 C159 440 163 449 178 449 C193 449 196 440 196 425 L196 376 L336 376 L336 438 L336 438 Z " />
<glyph glyph-name="uni015E" unicode="&#x15e;" horiz-adv-x="411" d="M190 754 C74 754 16 692 16 593 L16 558 C16 482 38 422 101 366 L187 289 C223 256 226 237 226 195 L226 175 C226 146 219 131 199 131 C178 131 171 145 171 170 L171 273 L9 273 L9 154 C9 45 67 -10 182 -10 L218 -10 C345 -10 402 68 402 184 L402 221 C402 302 379 352 304 421 L219 497 C190 524 183 542 183 573 L183 592 C183 613 189 625 208 625 C228 625 233 613 233 593 L233 513 L392 513 L392 602 C392 695 348 754 227 754 L190 754 Z M199 -196 C262 -196 301 -168 301 -113 L301 -110 C301 -61 271 -36 212 -35 L207 -35 L207 0 L139 0 L139 -95 L182 -95 C196 -95 203 -100 203 -109 L203 -110 C203 -120 196 -125 182 -125 L124 -125 L124 -196 L199 -196 L199 -196 Z " />
<glyph glyph-name="uni015F" unicode="&#x15f;" horiz-adv-x="350" d="M336 438 C336 512 289 549 195 549 L160 549 C61 549 13 501 13 417 L13 399 C13 344 25 297 88 253 L164 198 C184 183 190 168 190 144 L190 128 C190 111 184 102 172 102 L171 102 C157 102 150 111 150 128 L150 191 L7 191 L7 116 C7 35 57 -11 154 -11 L190 -11 C290 -11 344 46 344 137 L344 155 C344 215 328 261 261 309 L181 369 C162 384 159 391 159 411 L159 425 C159 440 163 449 178 449 C193 449 196 440 196 425 L196 376 L336 376 L336 438 L336 438 Z M171 -196 C234 -196 273 -168 273 -113 L273 -110 C273 -61 243 -36 184 -35 L179 -35 L179 0 L111 0 L111 -95 L154 -95 C168 -95 175 -100 175 -109 L175 -110 C175 -120 168 -125 154 -125 L96 -125 L96 -196 L171 -196 L171 -196 Z " />
<glyph glyph-name="Scaron" unicode="&#x160;" horiz-adv-x="411" d="M190 754 C74 754 16 692 16 593 L16 558 C16 482 38 422 101 366 L187 289 C223 256 226 237 226 195 L226 175 C226 146 219 131 199 131 C178 131 171 145 171 170 L171 273 L9 273 L9 154 C9 45 67 -10 182 -10 L218 -10 C345 -10 402 68 402 184 L402 221 C402 302 379 352 304 421 L219 497 C190 524 183 542 183 573 L183 592 C183 613 189 625 208 625 C228 625 233 613 233 593 L233 513 L392 513 L392 602 C392 695 348 754 227 754 L190 754 Z M148 767 L275 767 L346 890 L237 890 L211 842 L186 890 L77 890 L148 767 Z " />
<glyph glyph-name="scaron" unicode="&#x161;" horiz-adv-x="350" d="M336 438 C336 512 289 549 195 549 L160 549 C61 549 13 501 13 417 L13 399 C13 344 25 297 88 253 L164 198 C184 183 190 168 190 144 L190 128 C190 111 184 102 172 102 L171 102 C157 102 150 111 150 128 L150 191 L7 191 L7 116 C7 35 57 -11 154 -11 L190 -11 C290 -11 344 46 344 137 L344 155 C344 215 328 261 261 309 L181 369 C162 384 159 391 159 411 L159 425 C159 440 163 449 178 449 C193 449 196 440 196 425 L196 376 L336 376 L336 438 L336 438 Z M115 561 L244 561 L312 707 L204 707 L179 643 L155 707 L47 707 L115 561 Z " />
<glyph glyph-name="Tcommaaccent" unicode="&#x162;" horiz-adv-x="368" d="M225 -211 C232 -194 247 -153 247 -100 L247 -23 L121 -23 L121 -140 L174 -140 C172 -167 167 -190 159 -211 L225 -211 Z M9 744 L9 590 L102 590 L102 0 L266 0 L266 590 L359 590 L359 744 L9 744 Z " />
<glyph glyph-name="tcommaaccent" unicode="&#x163;" horiz-adv-x="296" d="M228 -211 C235 -194 250 -153 250 -100 L250 -23 L124 -23 L124 -140 L177 -140 C175 -167 170 -190 162 -211 L228 -211 Z M286 0 L286 138 L245 138 C229 138 227 143 227 158 L227 403 L286 403 L286 538 L227 538 L227 716 L67 716 L67 538 L6 538 L6 403 L67 403 L67 71 C67 24 98 0 131 0 L286 0 Z " />
<glyph glyph-name="Tcaron" unicode="&#x164;" horiz-adv-x="368" d="M120 767 L247 767 L318 890 L209 890 L183 842 L158 890 L49 890 L120 767 Z M9 744 L9 590 L102 590 L102 0 L266 0 L266 590 L359 590 L359 744 L9 744 Z " />
<glyph glyph-name="tcaron" unicode="&#x165;" horiz-adv-x="296" d="M241 586 L340 586 L351 744 L247 744 L241 586 Z M286 0 L286 138 L245 138 C229 138 227 143 227 158 L227 403 L286 403 L286 538 L227 538 L227 716 L67 716 L67 538 L6 538 L6 403 L67 403 L67 71 C67 24 98 0 131 0 L286 0 Z " />
<glyph glyph-name="Tbar" unicode="&#x166;" horiz-adv-x="368" d="M331 330 L331 462 L36 462 L36 330 L331 330 Z M9 744 L9 590 L102 590 L102 0 L266 0 L266 590 L359 590 L359 744 L9 744 Z " />
<glyph glyph-name="tbar" unicode="&#x167;" horiz-adv-x="296" d="M286 0 L286 138 L245 138 C229 138 227 143 227 158 L227 230 L286 230 L286 345 L227 345 L227 403 L286 403 L286 538 L227 538 L227 716 L67 716 L67 538 L6 538 L6 403 L67 403 L67 345 L6 345 L6 230 L67 230 L67 71 C67 24 97 0 132 0 L286 0 Z " />
<glyph glyph-name="Utilde" unicode="&#x168;" horiz-adv-x="430" d="M216 785 C243 774 260 770 279 770 L281 770 C317 770 342 797 342 845 L342 894 L257 894 L257 875 C257 868 255 864 250 864 C243 864 239 867 220 875 C195 886 179 891 156 891 L155 891 C116 891 94 863 94 816 L94 766 L179 766 L179 784 C179 791 182 795 187 795 C194 795 201 792 216 785 L216 785 Z M18 177 C18 62 74 -12 198 -12 L230 -12 C347 -12 412 64 412 177 L412 744 L242 744 L242 185 C242 161 235 147 215 147 C197 147 188 160 188 185 L188 744 L18 744 L18 177 Z " />
<glyph glyph-name="utilde" unicode="&#x169;" horiz-adv-x="395" d="M379 538 L220 538 L220 154 C220 137 217 123 198 123 C182 123 177 137 177 152 L177 538 L16 538 L16 97 C16 55 41 -4 105 -4 L110 -4 C163 -4 195 30 222 69 L222 0 L379 0 L379 538 Z M236 692 L236 672 C236 665 234 661 230 661 C223 661 217 665 202 672 C174 687 160 691 139 691 L138 691 C97 691 76 662 76 622 L76 560 L162 560 L162 580 C162 588 164 592 169 592 C176 592 181 588 196 581 C224 566 239 561 259 561 L261 561 C301 561 322 589 322 626 L322 692 L236 692 Z " />
<glyph glyph-name="Umacron" unicode="&#x16a;" horiz-adv-x="430" d="M18 177 C18 62 74 -12 198 -12 L230 -12 C347 -12 412 64 412 177 L412 744 L242 744 L242 185 C242 161 235 147 215 147 C197 147 188 160 188 185 L188 744 L18 744 L18 177 Z M104 774 L324 774 L324 874 L104 874 L104 774 Z " />
<glyph glyph-name="umacron" unicode="&#x16b;" horiz-adv-x="395" d="M379 538 L220 538 L220 154 C220 137 217 123 198 123 C182 123 177 137 177 152 L177 538 L16 538 L16 97 C16 55 41 -4 105 -4 L110 -4 C163 -4 195 30 222 69 L222 0 L379 0 L379 538 Z M88 570 L308 570 L308 670 L88 670 L88 570 Z " />
<glyph glyph-name="Ubreve" unicode="&#x16c;" horiz-adv-x="430" d="M18 177 C18 62 74 -12 198 -12 L230 -12 C347 -12 412 64 412 177 L412 744 L242 744 L242 185 C242 161 235 147 215 147 C197 147 188 160 188 185 L188 744 L18 744 L18 177 Z M217 764 C288 764 337 810 337 877 L337 885 L239 885 L239 879 C239 863 231 852 215 852 L214 852 C198 852 190 863 190 879 L190 885 L91 885 L91 877 C91 810 136 764 212 764 L217 764 L217 764 Z " />
<glyph glyph-name="ubreve" unicode="&#x16d;" horiz-adv-x="395" d="M379 538 L220 538 L220 154 C220 137 217 123 198 123 C182 123 177 137 177 152 L177 538 L16 538 L16 97 C16 55 41 -4 105 -4 L110 -4 C163 -4 195 30 222 69 L222 0 L379 0 L379 538 Z M200 559 C271 559 320 602 320 678 L320 690 L223 690 L223 683 C223 660 215 648 198 648 L197 648 C181 648 173 660 173 683 L173 690 L74 690 L74 678 C74 602 120 559 196 559 L200 559 L200 559 Z " />
<glyph glyph-name="Uring" unicode="&#x16e;" horiz-adv-x="430" d="M18 177 C18 62 74 -12 198 -12 L230 -12 C347 -12 412 64 412 177 L412 744 L242 744 L242 185 C242 161 235 147 215 147 C197 147 188 160 188 185 L188 744 L18 744 L18 177 Z M180 845 C180 864 194 879 214 879 C234 879 248 864 248 845 C248 825 234 810 214 810 C194 810 180 825 180 845 L180 845 Z M214 928 C165 928 128 894 128 845 C128 797 165 762 214 762 C263 762 300 797 300 845 C300 894 263 928 214 928 L214 928 Z " />
<glyph glyph-name="uring" unicode="&#x16f;" horiz-adv-x="395" d="M197 607 C177 607 163 622 163 642 C163 661 177 676 197 676 C217 676 231 661 231 642 C231 622 217 607 197 607 L197 607 Z M197 559 C246 559 283 594 283 642 C283 691 246 725 197 725 C148 725 111 691 111 642 C111 594 148 559 197 559 L197 559 Z M379 538 L220 538 L220 154 C220 137 217 123 198 123 C182 123 177 137 177 152 L177 538 L16 538 L16 97 C16 55 41 -4 105 -4 L110 -4 C163 -4 195 30 222 69 L222 0 L379 0 L379 538 Z " />
<glyph glyph-name="Uhungarumlaut" unicode="&#x170;" horiz-adv-x="430" d="M98 767 L204 767 L234 890 L125 890 L98 767 Z M227 767 L332 767 L365 890 L256 890 L227 767 Z M18 177 C18 62 74 -12 198 -12 L230 -12 C347 -12 412 64 412 177 L412 744 L242 744 L242 185 C242 161 235 147 215 147 C197 147 188 160 188 185 L188 744 L18 744 L18 177 Z " />
<glyph glyph-name="uhungarumlaut" unicode="&#x171;" horiz-adv-x="395" d="M379 538 L220 538 L220 154 C220 137 217 123 198 123 C182 123 177 137 177 152 L177 538 L16 538 L16 97 C16 55 41 -4 105 -4 L110 -4 C163 -4 195 30 222 69 L222 0 L379 0 L379 538 Z M84 561 L189 561 L219 707 L113 707 L84 561 Z M211 561 L315 561 L347 707 L240 707 L211 561 Z " />
<glyph glyph-name="Uogonek" unicode="&#x172;" horiz-adv-x="430" d="M178 -110 L178 -123 C178 -164 214 -188 262 -188 L332 -188 L332 -100 L316 -100 C299 -100 290 -93 290 -79 L290 -76 C290 -55 301 -35 332 0 C372 43 412 85 412 177 L412 744 L242 744 L242 185 C242 161 235 147 215 147 C197 147 188 160 188 185 L188 744 L18 744 L18 177 C18 62 74 -12 198 -12 L230 -12 C237 -12 242 -12 249 -11 C204 -43 178 -75 178 -110 L178 -110 Z " />
<glyph glyph-name="uogonek" unicode="&#x173;" horiz-adv-x="395" d="M226 -123 C226 -164 261 -188 310 -188 L379 -188 L379 -100 L364 -100 C346 -100 337 -93 337 -79 L337 -76 C337 -55 347 -39 379 0 L308 0 C256 -39 226 -73 226 -110 L226 -123 Z M379 538 L220 538 L220 154 C220 137 217 123 198 123 C182 123 177 137 177 152 L177 538 L16 538 L16 97 C16 55 41 -4 105 -4 L110 -4 C163 -4 195 30 222 69 L222 0 L379 0 L379 538 Z " />
<glyph glyph-name="Wcircumflex" unicode="&#x174;" horiz-adv-x="629" d="M378 890 L250 890 L180 767 L288 767 L314 814 L341 767 L449 767 L378 890 Z M242 744 L202 283 L168 744 L-1 744 L93 0 L284 0 L316 394 L348 0 L535 0 L630 744 L472 744 L437 287 L397 744 L242 744 Z " />
<glyph glyph-name="wcircumflex" unicode="&#x175;" horiz-adv-x="567" d="M349 707 L219 707 L152 561 L259 561 L284 626 L308 561 L417 561 L349 707 Z M256 0 L285 271 L314 0 L484 0 L569 538 L417 538 L388 210 L357 538 L216 538 L184 215 L156 538 L-2 538 L83 0 L256 0 Z " />
<glyph glyph-name="Ycircumflex" unicode="&#x176;" horiz-adv-x="382" d="M387 744 L239 744 L200 499 L159 744 L-6 744 L114 278 L114 0 L278 0 L278 281 L387 744 Z M261 890 L133 890 L63 767 L171 767 L197 814 L224 767 L332 767 L261 890 Z " />
<glyph glyph-name="ycircumflex" unicode="&#x177;" horiz-adv-x="369" d="M100 22 C104 2 105 -6 104 -17 L103 -30 C102 -46 99 -52 84 -52 L27 -52 L27 -188 L168 -188 C203 -188 237 -169 249 -106 L372 538 L217 538 L189 252 L156 538 L-2 538 L100 22 Z M249 707 L119 707 L52 561 L159 561 L184 626 L208 561 L317 561 L249 707 Z " />
<glyph glyph-name="Ydieresis" unicode="&#x178;" horiz-adv-x="382" d="M387 744 L239 744 L200 499 L159 744 L-6 744 L114 278 L114 0 L278 0 L278 281 L387 744 Z M328 885 L210 885 L210 767 L328 767 L328 885 Z M186 885 L68 885 L68 767 L186 767 L186 885 Z " />
<glyph glyph-name="Zacute" unicode="&#x179;" horiz-adv-x="368" d="M116 767 L242 767 L292 890 L162 890 L116 767 Z M18 744 L18 592 L168 592 L9 141 L9 0 L358 0 L358 154 L189 154 L349 604 L349 744 L18 744 Z " />
<glyph glyph-name="zacute" unicode="&#x17a;" horiz-adv-x="310" d="M92 561 L216 561 L266 707 L138 707 L92 561 Z M15 538 L15 409 L131 409 L7 121 L7 0 L302 0 L302 135 L176 135 L297 417 L297 538 L15 538 Z " />
<glyph glyph-name="Zdotaccent" unicode="&#x17b;" horiz-adv-x="368" d="M18 744 L18 592 L168 592 L9 141 L9 0 L358 0 L358 154 L189 154 L349 604 L349 744 L18 744 Z M264 908 L104 908 L104 767 L264 767 L264 908 Z " />
<glyph glyph-name="zdotaccent" unicode="&#x17c;" horiz-adv-x="310" d="M15 538 L15 409 L131 409 L7 121 L7 0 L302 0 L302 135 L176 135 L297 417 L297 538 L15 538 Z M238 702 L78 702 L78 561 L238 561 L238 702 Z " />
<glyph glyph-name="Zcaron" unicode="&#x17d;" horiz-adv-x="368" d="M18 744 L18 592 L168 592 L9 141 L9 0 L358 0 L358 154 L189 154 L349 604 L349 744 L18 744 Z M120 767 L247 767 L318 890 L209 890 L183 842 L158 890 L49 890 L120 767 Z " />
<glyph glyph-name="zcaron" unicode="&#x17e;" horiz-adv-x="310" d="M15 538 L15 409 L131 409 L7 121 L7 0 L302 0 L302 135 L176 135 L297 417 L297 538 L15 538 Z M92 561 L221 561 L289 707 L181 707 L156 643 L132 707 L24 707 L92 561 Z " />
<glyph glyph-name="uni0192" unicode="&#x192;" horiz-adv-x="301" d="M35 -188 L193 -188 L219 352 L291 352 L291 484 L226 484 L231 592 C234 611 238 615 254 615 L291 615 L291 744 L183 744 C114 744 78 712 75 647 L67 484 L6 484 L6 352 L61 352 L35 -188 Z " />
<glyph glyph-name="Aringacute" unicode="&#x1fa;" horiz-adv-x="397" d="M240 0 L400 0 L296 744 L93 744 L-2 0 L141 0 L152 109 L228 109 L240 0 Z M190 482 L213 256 L167 256 L190 482 Z M133 941 L259 941 L309 1064 L179 1064 L133 941 Z M159 845 C159 864 173 879 193 879 C213 879 227 864 227 845 C227 825 213 810 193 810 C173 810 159 825 159 845 L159 845 Z M193 928 C144 928 107 894 107 845 C107 797 144 762 193 762 C242 762 279 797 279 845 C279 894 242 928 193 928 L193 928 Z " />
<glyph glyph-name="aringacute" unicode="&#x1fb;" horiz-adv-x="388" d="M202 136 C202 121 197 110 182 110 C167 110 163 120 163 136 L163 199 C163 219 166 227 174 238 C182 247 195 255 202 259 L202 136 Z M11 96 C11 43 40 -6 96 -6 L100 -6 C151 -6 186 33 203 61 C203 20 217 0 244 0 L385 0 L385 131 L371 131 C359 131 356 134 356 143 L356 420 C356 504 307 547 192 547 L170 547 C63 547 18 497 18 426 L18 365 L160 365 L160 415 C160 430 164 439 180 439 L183 439 C196 439 202 431 202 415 L202 387 C202 372 199 371 191 367 C175 359 106 330 79 317 C34 293 11 259 11 202 L11 96 Z M123 741 L247 741 L297 887 L169 887 L123 741 Z M182 609 C162 609 148 624 148 644 C148 663 162 678 182 678 C202 678 216 663 216 644 C216 624 202 609 182 609 L182 609 Z M182 561 C231 561 268 596 268 644 C268 693 231 727 182 727 C133 727 96 693 96 644 C96 596 133 561 182 561 L182 561 Z " />
<glyph glyph-name="AEacute" unicode="&#x1fc;" horiz-adv-x="552" d="M266 767 L392 767 L442 890 L312 890 L266 767 Z M543 0 L543 157 L406 157 L406 305 L507 305 L507 463 L406 463 L406 589 L535 589 L535 744 L134 744 L-6 0 L152 0 L170 117 L242 117 L242 0 L543 0 Z M193 263 L242 568 L242 263 L193 263 Z " />
<glyph glyph-name="aeacute" unicode="&#x1fd;" horiz-adv-x="563" d="M222 561 L346 561 L396 707 L268 707 L222 561 Z M219 65 C235 30 269 -11 363 -11 L393 -11 C496 -11 552 47 552 143 L552 214 L400 214 L400 138 C400 119 397 108 378 108 C363 108 358 115 357 138 L357 250 L552 250 L552 384 C552 504 488 549 392 549 L377 549 C322 549 297 529 286 518 C275 527 248 547 189 547 L169 547 C64 547 18 497 18 426 L18 351 L160 351 L160 415 C160 431 166 439 179 439 L183 439 C196 439 202 431 202 415 L202 373 C202 358 199 357 191 353 C175 345 105 319 79 303 C34 279 11 246 11 187 L11 97 C11 44 40 -6 99 -6 L102 -6 C158 -6 196 30 219 65 L219 65 Z M202 136 C202 121 197 110 182 110 C169 110 163 119 163 136 L163 185 C163 206 165 214 174 225 C182 234 195 242 202 246 L202 136 Z M357 412 C357 431 361 443 380 443 C399 443 402 432 402 411 L402 349 L357 349 L357 412 Z " />
<glyph glyph-name="Oslashacute" unicode="&#x1fe;" horiz-adv-x="429" d="M150 771 L277 771 L325 890 L196 890 L150 771 Z M413 545 C413 594 404 632 389 661 L426 744 L343 744 L332 721 C306 743 271 754 227 754 L201 754 C70 754 16 672 16 544 L16 191 C16 147 23 113 38 84 L0 0 L82 0 L94 25 C122 1 158 -11 202 -11 L229 -11 C342 -11 413 62 413 191 L413 545 Z M215 142 C191 142 183 157 183 180 L183 212 L246 375 L246 180 C246 157 239 142 215 142 L215 142 Z M215 604 C236 604 246 590 246 561 L246 541 L183 378 L183 561 C183 592 191 604 215 604 L215 604 Z " />
<glyph glyph-name="oslashacute" unicode="&#x1ff;" horiz-adv-x="388" d="M130 566 L255 566 L304 707 L176 707 L130 566 Z M13 166 C13 126 20 93 35 66 L-4 0 L72 0 L83 18 C107 1 141 -11 185 -11 L201 -11 C310 -11 374 52 374 167 L374 373 C374 412 366 446 351 471 L391 538 L314 538 L303 520 C278 539 246 549 203 549 L185 549 C76 549 13 493 13 372 L13 166 L13 166 Z M219 377 L169 278 L169 390 C169 409 173 426 193 426 C216 426 219 409 219 390 L219 377 Z M193 117 C174 117 169 131 169 152 L169 165 L219 263 L219 152 C219 132 214 117 193 117 L193 117 Z " />
<glyph glyph-name="uni0218" unicode="&#x218;" horiz-adv-x="411" d="M246 -214 C253 -197 268 -156 268 -103 L268 -26 L142 -26 L142 -143 L195 -143 C193 -170 188 -193 180 -214 L246 -214 Z M190 754 C74 754 16 692 16 593 L16 558 C16 482 38 422 101 366 L187 289 C223 256 226 237 226 195 L226 175 C226 146 219 131 199 131 C178 131 171 145 171 170 L171 273 L9 273 L9 154 C9 45 67 -10 182 -10 L218 -10 C345 -10 402 68 402 184 L402 221 C402 302 379 352 304 421 L219 497 C190 524 183 542 183 573 L183 592 C183 613 189 625 208 625 C228 625 233 613 233 593 L233 513 L392 513 L392 602 C392 695 348 754 227 754 L190 754 Z " />
<glyph glyph-name="uni0219" unicode="&#x219;" horiz-adv-x="350" d="M215 -214 C222 -197 237 -156 237 -103 L237 -26 L111 -26 L111 -143 L164 -143 C162 -170 157 -193 149 -214 L215 -214 Z M336 438 C336 512 289 549 195 549 L160 549 C61 549 13 501 13 417 L13 399 C13 344 25 297 88 253 L164 198 C184 183 190 168 190 144 L190 128 C190 111 184 102 172 102 L171 102 C157 102 150 111 150 128 L150 191 L7 191 L7 116 C7 35 57 -11 154 -11 L190 -11 C290 -11 344 46 344 137 L344 155 C344 215 328 261 261 309 L181 369 C162 384 159 391 159 411 L159 425 C159 440 163 449 178 449 C193 449 196 440 196 425 L196 376 L336 376 L336 438 L336 438 Z " />
<glyph glyph-name="uni021A" unicode="&#x21a;" horiz-adv-x="368" d="M225 -211 C232 -194 247 -153 247 -100 L247 -23 L121 -23 L121 -140 L174 -140 C172 -167 167 -190 159 -211 L225 -211 Z M9 744 L9 590 L102 590 L102 0 L266 0 L266 590 L359 590 L359 744 L9 744 Z " />
<glyph glyph-name="uni021B" unicode="&#x21b;" horiz-adv-x="296" d="M228 -211 C235 -194 250 -153 250 -100 L250 -23 L124 -23 L124 -140 L177 -140 C175 -167 170 -190 162 -211 L228 -211 Z M286 0 L286 138 L245 138 C229 138 227 143 227 158 L227 403 L286 403 L286 538 L227 538 L227 716 L67 716 L67 538 L6 538 L6 403 L67 403 L67 71 C67 24 98 0 131 0 L286 0 Z " />
<glyph glyph-name="uni0237" unicode="&#x237;" horiz-adv-x="192" d="M-46 -47 L-46 -188 L97 -188 C142 -188 176 -158 176 -107 L176 538 L16 538 L16 -28 C16 -43 11 -47 -1 -47 L-46 -47 Z " />
<glyph glyph-name="circumflex" unicode="&#x2c6;" horiz-adv-x="342" d="M236 707 L106 707 L39 561 L146 561 L171 626 L195 561 L304 561 L236 707 Z " />
<glyph glyph-name="caron" unicode="&#x2c7;" horiz-adv-x="342" d="M107 561 L236 561 L304 707 L196 707 L171 643 L147 707 L39 707 L107 561 Z " />
<glyph glyph-name="breve" unicode="&#x2d8;" horiz-adv-x="342" d="M174 559 C245 559 294 602 294 678 L294 690 L197 690 L197 683 C197 660 189 648 172 648 L171 648 C155 648 147 660 147 683 L147 690 L48 690 L48 678 C48 602 94 559 170 559 L174 559 L174 559 Z " />
<glyph glyph-name="dotaccent" unicode="&#x2d9;" horiz-adv-x="342" d="M251 702 L91 702 L91 561 L251 561 L251 702 Z " />
<glyph glyph-name="ring" unicode="&#x2da;" horiz-adv-x="342" d="M171 607 C151 607 137 622 137 642 C137 661 151 676 171 676 C191 676 205 661 205 642 C205 622 191 607 171 607 L171 607 Z M171 559 C220 559 257 594 257 642 C257 691 220 725 171 725 C122 725 85 691 85 642 C85 594 122 559 171 559 L171 559 Z " />
<glyph glyph-name="ogonek" unicode="&#x2db;" horiz-adv-x="342" d="M94 -123 C94 -164 129 -188 178 -188 L247 -188 L247 -100 L232 -100 C214 -100 205 -93 205 -79 L205 -76 C205 -55 215 -39 247 0 L176 0 C124 -39 94 -73 94 -110 L94 -123 Z " />
<glyph glyph-name="tilde" unicode="&#x2dc;" horiz-adv-x="342" d="M208 692 L208 672 C208 665 206 661 202 661 C195 661 189 665 174 672 C146 687 132 691 111 691 L110 691 C69 691 48 662 48 622 L48 560 L134 560 L134 580 C134 588 136 592 141 592 C148 592 153 588 168 581 C196 566 211 561 231 561 L233 561 C273 561 294 589 294 626 L294 692 L208 692 Z " />
<glyph glyph-name="hungarumlaut" unicode="&#x2dd;" horiz-adv-x="342" d="M40 561 L145 561 L175 707 L69 707 L40 561 Z M167 561 L271 561 L303 707 L196 707 L167 561 Z " />
<glyph glyph-name="Wgrave" unicode="&#x1e80;" horiz-adv-x="629" d="M336 890 L207 890 L255 767 L381 767 L336 890 Z M242 744 L202 283 L168 744 L-1 744 L93 0 L284 0 L316 394 L348 0 L535 0 L630 744 L472 744 L437 287 L397 744 L242 744 Z " />
<glyph glyph-name="wgrave" unicode="&#x1e81;" horiz-adv-x="567" d="M256 0 L285 271 L314 0 L484 0 L569 538 L417 538 L388 210 L357 538 L216 538 L184 215 L156 538 L-2 538 L83 0 L256 0 Z M301 707 L173 707 L223 561 L346 561 L301 707 Z " />
<glyph glyph-name="Wacute" unicode="&#x1e82;" horiz-adv-x="629" d="M255 767 L381 767 L431 890 L301 890 L255 767 Z M242 744 L202 283 L168 744 L-1 744 L93 0 L284 0 L316 394 L348 0 L535 0 L630 744 L472 744 L437 287 L397 744 L242 744 Z " />
<glyph glyph-name="wacute" unicode="&#x1e83;" horiz-adv-x="567" d="M225 561 L349 561 L399 707 L271 707 L225 561 Z M256 0 L285 271 L314 0 L484 0 L569 538 L417 538 L388 210 L357 538 L216 538 L184 215 L156 538 L-2 538 L83 0 L256 0 Z " />
<glyph glyph-name="Wdieresis" unicode="&#x1e84;" horiz-adv-x="629" d="M445 885 L327 885 L327 767 L445 767 L445 885 Z M303 885 L185 885 L185 767 L303 767 L303 885 Z M242 744 L202 283 L168 744 L-1 744 L93 0 L284 0 L316 394 L348 0 L535 0 L630 744 L472 744 L437 287 L397 744 L242 744 Z " />
<glyph glyph-name="wdieresis" unicode="&#x1e85;" horiz-adv-x="567" d="M272 680 L154 680 L154 561 L272 561 L272 680 Z M414 680 L296 680 L296 561 L414 561 L414 680 Z M256 0 L285 271 L314 0 L484 0 L569 538 L417 538 L388 210 L357 538 L216 538 L184 215 L156 538 L-2 538 L83 0 L256 0 Z " />
<glyph glyph-name="Ygrave" unicode="&#x1ef2;" horiz-adv-x="382" d="M387 744 L239 744 L200 499 L159 744 L-6 744 L114 278 L114 0 L278 0 L278 281 L387 744 Z M217 890 L88 890 L136 767 L262 767 L217 890 Z " />
<glyph glyph-name="ygrave" unicode="&#x1ef3;" horiz-adv-x="369" d="M100 22 C104 2 105 -6 104 -17 L103 -30 C102 -46 99 -52 84 -52 L27 -52 L27 -188 L168 -188 C203 -188 237 -169 249 -106 L372 538 L217 538 L189 252 L156 538 L-2 538 L100 22 Z M206 707 L78 707 L128 561 L251 561 L206 707 Z " />
<glyph glyph-name="uni2009" unicode="&#x2009;" horiz-adv-x="8" d="" />
<glyph glyph-name="endash" unicode="&#x2013;" horiz-adv-x="386" d="M14 352 L14 249 L372 249 L372 352 L14 352 Z " />
<glyph glyph-name="emdash" unicode="&#x2014;" horiz-adv-x="584" d="M14 352 L14 249 L570 249 L570 352 L14 352 Z " />
<glyph glyph-name="quoteleft" unicode="&#x2018;" horiz-adv-x="159" d="M42 744 C31 721 14 672 14 617 L14 509 L145 509 L145 649 L95 649 C96 678 109 717 118 744 L42 744 Z " />
<glyph glyph-name="quoteright" unicode="&#x2019;" horiz-adv-x="159" d="M116 509 C127 532 145 581 145 636 L145 744 L14 744 L14 604 L63 604 C62 575 49 536 40 509 L116 509 Z " />
<glyph glyph-name="quotesinglbase" unicode="&#x201a;" horiz-adv-x="159" d="M116 -95 C127 -72 145 -24 145 32 L145 140 L14 140 L14 0 L63 0 C62 -29 49 -70 40 -95 L116 -95 L116 -95 Z " />
<glyph glyph-name="quotedblleft" unicode="&#x201c;" horiz-adv-x="305" d="M189 744 C178 721 160 672 160 617 L160 509 L291 509 L291 649 L242 649 C243 678 256 717 265 744 L189 744 Z M42 744 C31 721 14 672 14 617 L14 509 L145 509 L145 649 L95 649 C96 678 109 717 118 744 L42 744 Z " />
<glyph glyph-name="quotedblright" unicode="&#x201d;" horiz-adv-x="305" d="M263 509 C274 532 291 581 291 636 L291 744 L160 744 L160 604 L209 604 C208 575 196 536 187 509 L263 509 Z M116 509 C127 532 145 581 145 636 L145 744 L14 744 L14 604 L63 604 C62 575 49 536 40 509 L116 509 Z " />
<glyph glyph-name="quotedblbase" unicode="&#x201e;" horiz-adv-x="305" d="M116 -95 C127 -72 145 -23 145 32 L145 140 L14 140 L14 0 L63 0 C62 -29 49 -68 40 -95 L116 -95 Z M263 -95 C274 -72 291 -23 291 32 L291 140 L160 140 L160 0 L209 0 C208 -29 196 -68 187 -95 L263 -95 Z " />
<glyph glyph-name="dagger" unicode="&#x2020;" horiz-adv-x="303" d="M72 0 L231 0 L231 462 L294 462 L294 601 L231 601 L231 744 L72 744 L72 601 L8 601 L8 462 L72 462 L72 0 Z " />
<glyph glyph-name="daggerdbl" unicode="&#x2021;" horiz-adv-x="303" d="M72 143 L72 0 L231 0 L231 143 L294 143 L294 282 L231 282 L231 462 L294 462 L294 601 L231 601 L231 744 L72 744 L72 601 L8 601 L8 462 L72 462 L72 282 L8 282 L8 143 L72 143 Z " />
<glyph glyph-name="bullet" unicode="&#x2022;" horiz-adv-x="266" d="M133 206 C205 206 256 257 256 329 C256 401 205 453 133 453 C61 453 10 400 10 329 C10 257 61 206 133 206 L133 206 Z " />
<glyph glyph-name="ellipsis" unicode="&#x2026;" horiz-adv-x="500" d="M344 161 L344 0 L486 0 L486 161 L344 161 Z M179 0 L320 0 L320 161 L179 161 L179 0 Z M156 0 L156 161 L14 161 L14 0 L156 0 Z " />
<glyph glyph-name="perthousand" unicode="&#x2030;" horiz-adv-x="812" d="M687 -6 C758 -6 801 35 801 112 L801 223 C801 300 760 341 688 341 L668 341 C599 341 555 302 555 223 L555 112 C555 33 596 -6 668 -6 L687 -6 Z M426 -6 C495 -6 539 35 539 112 L539 223 C539 300 499 341 427 341 L406 341 C338 341 294 302 294 223 L294 112 C294 33 334 -6 407 -6 L426 -6 Z M11 522 C11 445 51 404 123 404 L143 404 C212 404 256 446 256 522 L256 633 C256 712 215 751 143 751 L123 751 C55 751 11 713 11 633 L11 522 Z M376 744 L77 0 L175 0 L474 744 L376 744 Z M148 506 C148 495 143 489 133 489 C124 489 119 495 119 506 L119 651 C119 662 124 668 133 668 C143 668 148 662 148 651 L148 506 Z M678 78 C669 78 664 84 664 95 L664 240 C664 251 667 258 678 258 C689 258 692 251 692 240 L692 95 C692 84 687 78 678 78 L678 78 Z M417 78 C408 78 403 84 403 95 L403 240 C403 251 406 258 417 258 C428 258 431 251 431 240 L431 95 C431 84 426 78 417 78 L417 78 Z " />
<glyph glyph-name="uni2032" unicode="&#x2032;" horiz-adv-x="135" d="M133 744 L24 744 L2 535 L110 535 L133 744 Z " />
<glyph glyph-name="uni2033" unicode="&#x2033;" horiz-adv-x="256" d="M130 744 L24 744 L2 535 L108 535 L130 744 Z M254 744 L148 744 L125 535 L232 535 L254 744 Z " />
<glyph glyph-name="guilsinglleft" unicode="&#x2039;" horiz-adv-x="186" d="M132 286 L179 455 L56 455 L11 320 L11 253 L56 115 L178 115 L132 286 Z " />
<glyph glyph-name="guilsinglright" unicode="&#x203a;" horiz-adv-x="186" d="M53 286 L7 115 L130 115 L175 252 L175 319 L130 455 L7 455 L53 286 Z " />
<glyph glyph-name="fraction" unicode="&#x2044;" horiz-adv-x="394" d="M297 744 L2 0 L96 0 L392 744 L297 744 Z " />
<glyph glyph-name="Euro" unicode="&#x20ac;" horiz-adv-x="464" d="M6 287 L61 287 L61 186 C61 71 105 -11 244 -11 L274 -11 C403 -11 449 79 449 172 L449 265 L287 265 L287 177 C287 153 281 138 260 138 C241 138 232 151 232 177 L232 287 L361 287 L361 377 L232 377 L232 400 L361 400 L361 489 L232 489 L232 573 C232 598 239 610 259 610 C282 610 287 597 287 573 L287 509 L449 509 L449 580 C449 678 405 754 275 754 L241 754 C111 754 61 670 61 563 L61 489 L6 489 L6 400 L61 400 L61 377 L6 377 L6 287 Z " />
<glyph glyph-name="trademark" unicode="&#x2122;" horiz-adv-x="390" d="M166 460 L233 460 L233 616 L255 460 L288 460 L311 616 L311 460 L378 460 L378 744 L287 744 L275 624 L261 744 L166 744 L166 460 Z M154 744 L6 744 L6 672 L37 672 L37 460 L123 460 L123 672 L154 672 L154 744 Z " />
<glyph glyph-name="onethird" unicode="&#x2153;" horiz-adv-x="468" d="M49 627 L49 403 L150 403 L150 744 L61 744 C58 721 46 704 6 704 L6 627 L49 627 Z M304 744 L9 0 L103 0 L399 744 L304 744 Z M330 229 L330 264 C330 273 333 278 340 278 C348 278 352 273 352 264 L352 229 C352 220 348 216 339 216 L297 216 L297 140 L342 140 C349 140 353 136 353 127 L353 83 C353 74 350 70 343 70 C336 70 332 74 332 83 L332 125 L235 125 L235 78 C235 33 255 -7 336 -7 L351 -7 C427 -7 459 29 459 89 L459 130 C459 169 436 185 417 192 C432 197 451 215 451 248 L451 266 C451 325 415 348 348 348 L335 348 C263 348 237 313 237 264 L237 229 L330 229 Z " />
<glyph glyph-name="twothirds" unicode="&#x2154;" horiz-adv-x="553" d="M239 402 L239 524 L153 524 L153 478 L101 478 C101 492 101 491 158 537 C211 577 232 603 232 650 L232 664 C232 712 207 750 126 750 L109 750 C34 750 12 707 12 662 L12 618 L106 618 L106 663 C106 673 110 678 117 678 C125 678 129 673 129 663 L129 648 C129 630 126 621 91 586 C19 511 7 491 7 446 L7 402 L239 402 Z M389 744 L94 0 L188 0 L484 744 L389 744 Z M416 229 L416 264 C416 273 419 278 426 278 C434 278 438 273 438 264 L438 229 C438 220 434 216 425 216 L383 216 L383 140 L428 140 C435 140 439 136 439 127 L439 83 C439 74 436 70 429 70 C422 70 418 74 418 83 L418 125 L321 125 L321 78 C321 33 341 -7 422 -7 L437 -7 C513 -7 545 29 545 89 L545 130 C545 169 522 185 503 192 C518 197 537 215 537 248 L537 266 C537 325 501 348 434 348 L421 348 C349 348 323 313 323 264 L323 229 L416 229 Z " />
<glyph glyph-name="oneeighth" unicode="&#x215b;" horiz-adv-x="466" d="M49 627 L49 403 L150 403 L150 744 L61 744 C58 721 46 704 6 704 L6 627 L49 627 Z M304 744 L9 0 L103 0 L399 744 L304 744 Z M454 264 C454 317 420 348 351 348 L339 348 C267 348 237 317 237 264 L237 243 C237 208 254 193 269 182 C250 171 233 149 233 117 L233 84 C233 28 263 -6 339 -6 L351 -6 C423 -6 458 28 458 84 L458 117 C458 153 438 174 419 182 C434 190 454 204 454 243 L454 264 Z M357 86 C357 78 355 70 344 70 C337 70 333 75 333 86 L333 129 C333 140 337 146 344 146 C355 146 357 140 357 129 L357 86 Z M356 229 C356 218 352 212 345 212 C338 212 334 218 334 229 L334 261 C334 272 337 277 344 277 C355 277 356 272 356 261 L356 229 Z " />
<glyph glyph-name="threeeighths" unicode="&#x215c;" horiz-adv-x="526" d="M364 744 L69 0 L163 0 L459 744 L364 744 Z M103 631 L103 666 C103 675 106 680 113 680 C121 680 125 675 125 666 L125 631 C125 622 121 618 112 618 L70 618 L70 542 L115 542 C122 542 126 538 126 529 L126 485 C126 476 123 472 116 472 C109 472 105 476 105 485 L105 527 L8 527 L8 480 C8 435 28 395 109 395 L124 395 C200 395 232 431 232 491 L232 532 C232 571 209 587 190 594 C205 599 224 617 224 650 L224 668 C224 727 188 750 121 750 L108 750 C36 750 10 715 10 666 L10 631 L103 631 Z M513 264 C513 317 479 348 410 348 L398 348 C326 348 296 317 296 264 L296 243 C296 208 313 193 328 182 C309 171 292 149 292 117 L292 84 C292 28 322 -6 398 -6 L410 -6 C482 -6 517 28 517 84 L517 117 C517 153 497 174 478 182 C493 190 513 204 513 243 L513 264 Z M416 86 C416 78 414 70 403 70 C396 70 392 75 392 86 L392 129 C392 140 396 146 403 146 C414 146 416 140 416 129 L416 86 Z M415 229 C415 218 411 212 404 212 C397 212 393 218 393 229 L393 261 C393 272 396 277 403 277 C414 277 415 272 415 261 L415 229 Z " />
<glyph glyph-name="fiveeighths" unicode="&#x215d;" horiz-adv-x="525" d="M364 744 L69 0 L163 0 L459 744 L364 744 Z M107 545 L107 559 C107 569 111 574 118 574 C125 574 128 569 128 559 L128 482 C128 473 125 469 118 469 C111 469 107 473 107 482 L107 521 L8 521 L8 482 C8 433 32 396 111 396 L126 396 C201 396 233 434 233 494 L233 573 C233 616 215 647 170 647 L166 647 C135 647 118 627 105 611 L105 666 L221 666 L221 744 L14 744 L14 545 L107 545 Z M513 264 C513 317 479 348 410 348 L398 348 C326 348 296 317 296 264 L296 243 C296 208 313 193 328 182 C309 171 292 149 292 117 L292 84 C292 28 322 -6 398 -6 L410 -6 C482 -6 517 28 517 84 L517 117 C517 153 497 174 478 182 C493 190 513 204 513 243 L513 264 Z M416 86 C416 78 414 70 403 70 C396 70 392 75 392 86 L392 129 C392 140 396 146 403 146 C414 146 416 140 416 129 L416 86 Z M415 229 C415 218 411 212 404 212 C397 212 393 218 393 229 L393 261 C393 272 396 277 403 277 C414 277 415 272 415 261 L415 229 Z " />
<glyph glyph-name="seveneighths" unicode="&#x215e;" horiz-adv-x="490" d="M9 744 L9 619 L96 619 L96 676 L131 676 C131 658 124 641 87 553 C60 489 56 461 56 417 L56 402 L174 402 L174 418 C174 467 175 504 186 557 C205 640 215 677 215 700 L215 744 L9 744 Z M327 744 L32 0 L126 0 L422 744 L327 744 Z M477 264 C477 317 443 348 374 348 L362 348 C290 348 260 317 260 264 L260 243 C260 208 277 193 292 182 C273 171 256 149 256 117 L256 84 C256 28 286 -6 362 -6 L374 -6 C446 -6 481 28 481 84 L481 117 C481 153 461 174 442 182 C457 190 477 204 477 243 L477 264 Z M380 86 C380 78 378 70 367 70 C360 70 356 75 356 86 L356 129 C356 140 360 146 367 146 C378 146 380 140 380 129 L380 86 Z M379 229 C379 218 375 212 368 212 C361 212 357 218 357 229 L357 261 C357 272 360 277 367 277 C378 277 379 272 379 261 L379 229 Z " />
<glyph glyph-name="minus" unicode="&#x2212;" horiz-adv-x="329" d="M14 351 L14 252 L315 252 L315 351 L14 351 Z " />
<glyph glyph-name="uni24C5" unicode="&#x24c5;" horiz-adv-x="559" d="M287 -11 C429 -11 543 68 543 256 L543 490 C543 671 446 755 290 755 L276 755 C116 755 16 665 16 490 L16 256 C16 68 115 -11 275 -11 L287 -11 Z M277 60 C152 60 100 133 100 274 L100 472 C100 616 150 684 277 684 L289 684 C413 684 460 605 460 472 L460 274 C460 137 410 60 287 60 L277 60 L277 60 Z M329 306 C389 306 426 338 426 413 L426 520 C426 599 390 625 329 625 L154 625 L154 121 L276 121 L276 306 L329 306 Z M276 534 L290 534 C303 534 306 527 306 510 L306 425 C306 408 301 399 290 399 L276 399 L276 534 Z " />
<glyph glyph-name="E.alt" unicode="&#xe484;" horiz-adv-x="339" d="M18 744 L18 0 L329 0 L329 157 L183 157 L183 306 L320 306 L320 463 L183 463 L183 590 L325 590 L325 744 L18 744 Z " />
<glyph glyph-name="F.alt" unicode="&#xe485;" horiz-adv-x="335" d="M18 744 L18 0 L183 0 L183 305 L319 305 L319 463 L183 463 L183 590 L324 590 L324 744 L18 744 Z " />
<glyph glyph-name="J.alt" unicode="&#xe489;" horiz-adv-x="275" d="M9 0 L153 0 C218 0 258 41 258 117 L258 744 L87 744 L87 186 C87 167 82 157 63 157 L9 157 L9 0 Z " />
<glyph glyph-name="a.alt" unicode="&#xe4c0;" horiz-adv-x="372" d="M356 420 C356 504 307 547 192 547 L170 547 C63 547 18 497 18 426 L18 365 L160 365 L160 415 C160 430 164 439 180 439 L183 439 C196 439 202 431 202 415 L202 387 C202 372 199 371 191 367 C175 359 106 330 79 317 C34 293 11 259 11 202 L11 96 C11 43 40 -6 96 -6 L100 -6 C151 -6 186 33 203 61 C203 22 209 7 214 0 L366 0 L366 5 C358 23 356 39 356 129 L356 420 Z M202 136 C202 121 197 110 182 110 C167 110 163 120 163 136 L163 199 C163 219 166 227 174 238 C182 247 195 255 202 259 L202 136 Z " />
<glyph glyph-name="r.alt" unicode="&#xe4d1;" horiz-adv-x="312" d="M174 538 L16 538 L16 0 L176 0 L176 321 C176 352 191 366 238 366 L244 366 C275 366 290 362 301 358 L301 538 C297 539 284 542 271 542 L265 542 C224 542 195 511 174 452 L174 538 Z " />
<glyph glyph-name="f_f" unicode="&#xfb00;" horiz-adv-x="534" d="M286 744 L158 744 C103 744 66 709 66 656 L66 538 L6 538 L6 403 L66 403 L66 0 L226 0 L226 403 L302 403 L302 0 L462 0 L462 403 L524 403 L524 538 L462 538 L462 595 C462 610 465 615 481 615 L525 615 L525 744 L394 744 C339 744 302 709 302 656 L302 538 L226 538 L226 595 C226 610 229 615 245 615 L286 615 L286 744 Z " />
<glyph glyph-name="f_i" unicode="&#xfb01;" horiz-adv-x="480" d="M465 538 L305 538 L305 0 L465 0 L465 538 Z M465 702 L305 702 L305 561 L465 561 L465 702 Z M285 744 L158 744 C103 744 66 708 66 656 L66 538 L6 538 L6 403 L66 403 L66 0 L226 0 L226 403 L285 403 L285 538 L226 538 L226 595 C226 610 229 615 245 615 L285 615 L285 744 Z " />
<glyph glyph-name="f_l" unicode="&#xfb02;" horiz-adv-x="480" d="M285 744 L158 744 C103 744 66 708 66 656 L66 538 L6 538 L6 403 L66 403 L66 0 L226 0 L226 403 L285 403 L285 538 L226 538 L226 595 C226 610 229 615 245 615 L285 615 L285 744 Z M465 744 L305 744 L305 0 L465 0 L465 744 Z " />
</font>
</svg>
